<?xml version="1.0" standalone="no"?>
<!DOCTYPE svg PUBLIC "-//W3C//DTD SVG 1.1//EN" "http://www.w3.org/Graphics/SVG/1.1/DTD/svg11.dtd" >
<svg>
<metadata>
Created by FontForge 20110222 at Mon Jun 27 20:33:38 2011
 By Application Server
Copyright (c) 2007 Red Hat, Inc. All rights reserved. LIBERATION is a trademark of Red Hat, Inc.
</metadata>
<defs>
<font id="LiberationSerif-Bold" horiz-adv-x="1024" >
  <font-face 
    font-family="Liberation Serif"
    font-weight="700"
    font-stretch="normal"
    units-per-em="2048"
    panose-1="2 2 8 3 7 5 5 2 3 4"
    ascent="1638"
    descent="-410"
    x-height="940"
    cap-height="1341"
    bbox="-373 -621 2222 2064"
    underline-thickness="195"
    underline-position="-126"
    unicode-range="U+0020-F005"
  />
<missing-glyph horiz-adv-x="748" 
d="M68 0v1365h544v-1365h-544zM136 68h408v1229h-408v-1229z" />
    <glyph glyph-name=".notdef" horiz-adv-x="748" 
d="M68 0v1365h544v-1365h-544zM136 68h408v1229h-408v-1229z" />
    <glyph glyph-name=".null" horiz-adv-x="0" 
 />
    <glyph glyph-name="nonmarkingreturn" horiz-adv-x="682" 
 />
    <glyph glyph-name="uni00A0" unicode=" " horiz-adv-x="512" 
 />
    <glyph glyph-name="uni00A0" unicode="&#xa0;" horiz-adv-x="512" 
 />
    <glyph glyph-name="exclam" unicode="!" horiz-adv-x="682" 
d="M397 420h-115l-92 921h299zM340 -29q-35 0 -65 13t-52.5 35.5t-35.5 52.5t-13 65q0 34 13 64.5t35.5 53t52.5 35.5t65 13q34 0 64.5 -13t53 -35.5t35.5 -53t13 -64.5q0 -35 -13 -65t-35.5 -52.5t-53 -35.5t-64.5 -13z" />
    <glyph glyph-name="quotedbl" unicode="&#x22;" horiz-adv-x="1137" 
d="M653 1341h258l-78 -481h-104zM227 1341h258l-78 -481h-104z" />
    <glyph glyph-name="numbersign" unicode="#" 
d="M741 411l-76 -411h-143l76 411h-270l-74 -411h-146l76 411h-157v123h182l53 287h-235v123h258l73 397h144l-74 -397h270l74 397h143l-74 -397h156v-123h-178l-51 -287h229v-123h-256zM405 821l-53 -287h270l54 287h-271z" />
    <glyph glyph-name="dollar" unicode="$" 
d="M466 -20q-56 1 -113.5 7.5t-110 16.5t-96.5 22t-73 25v320h93l36 -186q15 -20 44.5 -38.5t66.5 -33t77 -24.5t76 -11v488q-69 27 -136.5 58.5t-121 80t-86.5 122.5t-33 187q0 73 27 132.5t76.5 103t119 70.5t154.5 34v129h102v-127q81 -3 162.5 -15.5t143.5 -27.5v-279
h-91l-32 143q-29 29 -79 51.5t-104 27.5v-415q47 -19 94.5 -39t92 -44.5t83 -57t67 -76.5t45 -102.5t16.5 -134.5q0 -86 -27 -157t-78 -123t-125 -84t-168 -39v-140h-102v136zM752 330q0 45 -14.5 76.5t-39.5 54t-58.5 38t-71.5 29.5v-451q89 16 136.5 79.5t47.5 173.5z
M303 1067q0 -43 12.5 -72.5t34.5 -50.5t52 -36t64 -29v375q-79 -12 -121 -61.5t-42 -125.5z" />
    <glyph glyph-name="percent" unicode="%" horiz-adv-x="2048" 
d="M640 -20h-150l948 1382h151zM861 995q0 -179 -80.5 -275.5t-249.5 -96.5q-161 0 -241 95t-80 277q0 178 80.5 272.5t246.5 94.5q159 0 241.5 -92t82.5 -275zM645 995q0 65 -5.5 116t-19 86t-35.5 53t-54 18t-52.5 -18t-32.5 -53t-16.5 -86t-4.5 -116q0 -66 4.5 -117.5
t16.5 -87.5t32.5 -55t52.5 -19t54 19t35.5 55t19 87.5t5.5 117.5zM1856 346q0 -180 -80 -276.5t-249 -96.5q-161 0 -241.5 95t-80.5 278q0 178 81 272.5t247 94.5q159 0 241 -92t82 -275zM1641 346q0 65 -5.5 116t-19 86t-35.5 53t-54 18t-52.5 -18t-32.5 -53t-16.5 -86
t-4.5 -116q0 -66 4.5 -117.5t16.5 -87.5t32.5 -55t52.5 -19t54 19t35.5 55t19 87.5t5.5 117.5z" />
    <glyph glyph-name="ampersand" unicode="&#x26;" horiz-adv-x="1706" 
d="M1043 1073q0 -70 -24 -120t-64 -87t-92.5 -63.5t-110.5 -49.5l380 -343q31 79 43.5 159t15.5 148l-111 26v64h477v-64l-110 -26q-12 -40 -27 -91t-35.5 -107.5t-48.5 -116t-66 -116.5l220 -198l116 -25v-63h-384l-119 110q-80 -59 -189 -94.5t-254 -35.5
q-142 0 -244.5 24.5t-168.5 72.5t-97.5 118t-31.5 161q0 90 28.5 154t73.5 109.5t100.5 75t109.5 50.5q-27 31 -50 66t-40 74.5t-26.5 84.5t-9.5 97q0 58 20 111.5t65 94.5t116.5 65t175.5 24q101 0 170 -23t112 -62.5t61.5 -92t18.5 -111.5zM660 86q114 0 197 33t142 87
l-477 444q-25 -17 -48 -40t-41 -56.5t-28.5 -79t-10.5 -107.5q0 -143 71 -212t195 -69zM554 1089q0 -42 8 -76t22 -63.5t34 -55t43 -50.5q30 16 54.5 35t42 47t26.5 67t9 96q0 173 -112 173q-68 0 -97.5 -43.5t-29.5 -129.5z" />
    <glyph glyph-name="quotesingle" unicode="'" horiz-adv-x="569" 
d="M156 1341h258l-78 -481h-104z" />
    <glyph glyph-name="parenleft" unicode="(" horiz-adv-x="682" 
d="M363 494q0 -122 8.5 -241.5t35.5 -226t76.5 -196t132.5 -152.5v-114q-134 71 -232.5 154.5t-164 193t-97.5 252t-32 331.5q0 188 32 329.5t97.5 250.5t164 192t232.5 154v-114q-83 -63 -132.5 -152t-76.5 -195.5t-35.5 -225t-8.5 -240.5z" />
    <glyph glyph-name="parenright" unicode=")" horiz-adv-x="682" 
d="M66 -436v114q82 63 132 152.5t77 196t35.5 226t8.5 241.5t-8.5 240.5t-35.5 225t-77 195.5t-132 152v114q133 -71 232 -154t164.5 -192t97.5 -250.5t32 -329.5q0 -189 -32 -331.5t-97.5 -252t-164.5 -193t-232 -154.5z" />
    <glyph glyph-name="asterisk" unicode="*" 
d="M556 895l73 -316h-233l70 320l-287 -236l-94 213l307 88l-307 90l94 213l287 -233l-70 317h233l-73 -317l288 227l95 -209l-312 -88l312 -86l-95 -211z" />
    <glyph glyph-name="plus" unicode="+" horiz-adv-x="1167" 
d="M655 608v-405h-143v405h-404v143h404v406h143v-406h405v-143h-405z" />
    <glyph glyph-name="comma" unicode="," horiz-adv-x="512" 
d="M434 106q0 -71 -22.5 -134.5t-71.5 -118t-126.5 -98t-186.5 -72.5v92q57 17 95.5 41.5t62 51t34 52.5t10.5 45q0 20 -11 33.5t-28 24t-36.5 21t-36.5 26.5t-28 39t-11 59q0 65 45 99t114 34q38 0 73.5 -12.5t63 -37.5t44 -61t16.5 -84z" />
    <glyph glyph-name="uni00AD" unicode="-" horiz-adv-x="682" 
d="M75 395v174h532v-174h-532z" />
    <glyph glyph-name="uni00AD" unicode="&#xad;" horiz-adv-x="682" 
d="M75 395v174h532v-174h-532z" />
    <glyph glyph-name="period" unicode="." horiz-adv-x="512" 
d="M256 -29q-35 0 -65 13t-52.5 35.5t-35.5 52.5t-13 65q0 34 13 64.5t35.5 53t52.5 35.5t65 13q34 0 64.5 -13t53 -35.5t35.5 -53t13 -64.5q0 -35 -13 -65t-35.5 -52.5t-53 -35.5t-64.5 -13z" />
    <glyph glyph-name="slash" unicode="/" horiz-adv-x="569" 
d="M121 -20h-141l470 1369h140z" />
    <glyph glyph-name="zero" unicode="0" 
d="M946 676q0 -168 -26.5 -298t-80.5 -218.5t-137 -134t-196 -45.5q-212 0 -320 178t-108 518q0 333 108 509.5t328 176.5q212 0 322 -174.5t110 -511.5zM653 676q0 139 -7 248t-24 184t-44.5 114t-69.5 39t-68.5 -39t-41.5 -114t-21 -184t-6 -248q0 -140 6 -250.5t21 -187
t41.5 -117.5t68.5 -41t69.5 41t44.5 117.5t24 187t7 250.5z" />
    <glyph glyph-name="one" unicode="1" 
d="M685 110l233 -24v-86h-754v86l232 24v1011l-231 -76v85l378 222h142v-1242z" />
    <glyph glyph-name="two" unicode="2" 
d="M936 0h-850v189q86 92 159 164.5t132.5 135t105.5 119t76.5 117t46.5 129.5t16 157q0 61 -16 106.5t-42.5 76t-61.5 45.5t-74 15q-62 0 -99 -13t-68 -39l-43 -194h-87v305q80 18 156.5 30.5t166.5 12.5q221 0 338.5 -91t117.5 -259q0 -80 -19 -144.5t-55.5 -121.5
t-90.5 -111t-124.5 -114t-156.5 -130t-186 -159h658v-226z" />
    <glyph glyph-name="three" unicode="3" 
d="M954 365q0 -91 -33 -162.5t-96.5 -121t-155.5 -75.5t-210 -26q-102 0 -197 11.5t-173 28.5l-12 325h92l52 -215q32 -18 79.5 -33.5t102.5 -15.5q66 0 114 22t80 61t47.5 93t15.5 118q0 72 -18 120.5t-49 78t-73.5 43t-90.5 16.5l-116 7v121l112 8q89 6 131.5 65.5
t42.5 179.5q0 61 -14.5 106t-40 75t-61.5 44.5t-78 14.5q-54 0 -88.5 -16.5t-65.5 -35.5l-43 -194h-87v305q36 9 72 17t75 13.5t82 9t93 3.5q221 0 336 -81t115 -249q0 -63 -16.5 -117.5t-50.5 -96.5t-86.5 -70.5t-124.5 -39.5q172 -21 255 -105t83 -232z" />
    <glyph glyph-name="four" unicode="4" 
d="M852 265v-265h-269v265h-555v163l604 920h220v-878h134v-205h-134zM583 867q0 26 1 55t2.5 57.5t3 54t3.5 45.5l-399 -609h389v397z" />
    <glyph glyph-name="five" unicode="5" 
d="M480 793q115 0 202.5 -23t146.5 -71t89.5 -122.5t30.5 -177.5q0 -95 -29 -172t-89 -132t-151.5 -85t-215.5 -30q-102 0 -197 11.5t-173 28.5l-12 325h92l52 -215q16 -9 39 -18t49.5 -15.5t55 -11t55.5 -4.5q63 0 106.5 22.5t71 63t40 97t12.5 125.5q0 75 -13 132t-42 95
t-75.5 57t-114.5 19q-30 0 -53.5 -3.5t-42 -9.5t-34.5 -13t-31 -13h-100v688h700v-223h-589v-352q18 4 39 8.5t47.5 8.5t59.5 7t74 3z" />
    <glyph glyph-name="six" unicode="6" 
d="M964 416q0 -104 -27 -185t-80.5 -137t-131.5 -85t-180 -29q-112 0 -200.5 43t-149.5 128.5t-93 213t-32 297.5q0 182 42.5 313t113.5 216t163.5 125t192.5 40q78 0 157.5 -12t143.5 -31v-305h-87l-43 194q-32 24 -70.5 38t-80.5 14q-46 0 -86.5 -30t-71.5 -90
t-51.5 -151.5t-26.5 -214.5q51 22 103.5 34.5t112.5 12.5q87 0 157.5 -24.5t120.5 -74t77 -124.5t27 -176zM541 81q73 0 101 79t28 237q0 85 -13 141.5t-34.5 90.5t-49.5 47.5t-58 13.5q-46 0 -80 -6t-71 -17v-5q0 -140 10 -248t31.5 -182t55 -112.5t80.5 -38.5z" />
    <glyph glyph-name="seven" unicode="7" 
d="M204 958h-87v383h857v-79l-521 -1262h-239l565 1118h-529z" />
    <glyph glyph-name="eight" unicode="8" 
d="M925 1011q0 -110 -54 -187.5t-152 -112.5q53 -20 97 -52t75 -75.5t48 -99t17 -122.5q0 -190 -109.5 -286t-340.5 -96q-219 0 -328.5 94.5t-109.5 287.5q0 66 16.5 121.5t47 99t73.5 76t97 52.5q-97 37 -150 114t-53 189q0 79 26.5 143.5t78.5 110t130 70t180 24.5
q99 0 175.5 -24.5t129 -70.5t79.5 -110.5t27 -145.5zM672 362q0 71 -8.5 125.5t-28 92t-51 57t-78.5 19.5q-46 0 -75.5 -19.5t-47 -57t-24.5 -92t-7 -125.5q0 -68 7 -120.5t24.5 -88t47 -54t75.5 -18.5q47 0 78.5 18.5t51 54t28 88t8.5 120.5zM641 1011q0 54 -6 100
t-21.5 79.5t-41 52t-64.5 18.5q-38 0 -62 -18.5t-38 -52t-19.5 -79.5t-5.5 -100q0 -58 5.5 -104t19.5 -78t38 -49t62 -17q39 0 64.5 17t41 49t21.5 78t6 104z" />
    <glyph glyph-name="nine" unicode="9" 
d="M56 932q0 103 30.5 182.5t88 133t139.5 81t184 27.5q116 0 201.5 -40t141 -123.5t82.5 -212.5t27 -306q0 -194 -43.5 -326.5t-117 -214t-170 -117.5t-201.5 -36q-92 0 -166 11t-145 32v305h87l43 -194q35 -25 83.5 -39t93.5 -14q47 0 88 25.5t72.5 82.5t52 147.5
t26.5 221.5q-48 -17 -99 -27t-108 -10q-87 0 -158.5 26.5t-123 78t-80 128.5t-28.5 178zM350 928q0 -78 11.5 -132.5t32 -88.5t49 -49.5t63.5 -15.5q76 0 150 18v14q0 289 -34.5 435t-121.5 146q-78 0 -114 -84t-36 -243z" />
    <glyph glyph-name="colon" unicode=":" horiz-adv-x="682" 
d="M333 -29q-35 0 -65.5 13t-52.5 35.5t-34.5 52.5t-12.5 65q0 34 12.5 64.5t34.5 53t52.5 35.5t65.5 13t65 -13t52.5 -35.5t35.5 -53t13 -64.5q0 -35 -13 -65t-35.5 -52.5t-52.5 -35.5t-65 -13zM333 628q-35 0 -65.5 13t-52.5 35.5t-34.5 52.5t-12.5 65t12.5 65.5t34.5 53
t52.5 35t65.5 12.5t65 -12.5t52.5 -35t35.5 -53t13 -65.5t-13 -65t-35.5 -52.5t-52.5 -35.5t-65 -13z" />
    <glyph glyph-name="uni037E" unicode=";" horiz-adv-x="682" 
d="M335 628q-35 0 -65.5 13t-52.5 35.5t-34.5 52.5t-12.5 65t12.5 65.5t34.5 53t52.5 35t65.5 12.5t65 -12.5t52.5 -35t35.5 -53t13 -65.5t-13 -65t-35.5 -52.5t-52.5 -35.5t-65 -13zM514 106q0 -71 -22.5 -134.5t-71.5 -118t-126.5 -98t-187.5 -72.5v92q57 17 96 41.5
t62.5 51t34 52.5t10.5 45q0 20 -11.5 33.5t-28.5 24t-37 21t-37 26.5t-28.5 39t-11.5 59q0 32 12.5 57t34 42t51 25.5t64.5 8.5q37 0 72 -12.5t63 -37.5t45 -61t17 -84z" />
    <glyph glyph-name="uni037E" unicode="&#x37e;" horiz-adv-x="682" 
d="M335 628q-35 0 -65.5 13t-52.5 35.5t-34.5 52.5t-12.5 65t12.5 65.5t34.5 53t52.5 35t65.5 12.5t65 -12.5t52.5 -35t35.5 -53t13 -65.5t-13 -65t-35.5 -52.5t-52.5 -35.5t-65 -13zM514 106q0 -71 -22.5 -134.5t-71.5 -118t-126.5 -98t-187.5 -72.5v92q57 17 96 41.5
t62.5 51t34 52.5t10.5 45q0 20 -11.5 33.5t-28.5 24t-37 21t-37 26.5t-28.5 39t-11.5 59q0 32 12.5 57t34 42t51 25.5t64.5 8.5q37 0 72 -12.5t63 -37.5t45 -61t17 -84z" />
    <glyph glyph-name="less" unicode="&#x3c;" horiz-adv-x="1167" 
d="M102 635v90l952 468v-143l-767 -370l767 -371v-143z" />
    <glyph glyph-name="equal" unicode="=" horiz-adv-x="1167" 
d="M1054 547v-144h-952v144h952zM1054 956v-143h-952v143h952z" />
    <glyph glyph-name="greater" unicode="&#x3e;" horiz-adv-x="1167" 
d="M104 166v143l768 371l-768 370v143l952 -468v-90z" />
    <glyph glyph-name="question" unicode="?" 
d="M445 -29q-35 0 -65.5 13t-52.5 35.5t-34.5 52.5t-12.5 65q0 34 12.5 64.5t34.5 53t52.5 35.5t65.5 13t65 -13t52.5 -35.5t35.5 -53t13 -64.5q0 -35 -13 -65t-35.5 -52.5t-52.5 -35.5t-65 -13zM491 390h-103l-57 313l95 25q38 10 72 26.5t59.5 46.5t40.5 76.5t15 116.5
t-12 119.5t-37.5 81t-64.5 45.5t-94 14q-48 0 -84.5 -12t-64.5 -30l-43 -194h-89v295q77 20 154.5 31.5t169.5 11.5q225 0 339.5 -88.5t114.5 -266.5q0 -67 -18 -128t-55 -111t-93 -87.5t-131 -58.5l-87 -24z" />
    <glyph glyph-name="at" unicode="@" horiz-adv-x="1905" 
d="M1798 752q0 -103 -28.5 -197t-78 -174.5t-117.5 -146.5t-147 -112.5t-166.5 -71.5t-175.5 -25q-65 0 -95.5 34t-32.5 91q-25 -21 -52.5 -43.5t-60.5 -40.5t-71.5 -29.5t-86.5 -11.5q-43 0 -77.5 18t-58.5 51.5t-37 81t-13 107.5q0 70 16.5 143t49.5 141.5t82.5 129.5
t115.5 108q51 37 99.5 60t99 36t105 18t116.5 5q48 0 98 -3.5t85 -7.5l-121 -541q-5 -20 -9 -42t-7 -43.5t-5 -40.5t-2 -31q0 -23 8.5 -39.5t41.5 -16.5q53 0 99 24.5t84 67t67.5 99.5t49.5 123t30.5 137t10.5 141q0 124 -37.5 219.5t-107.5 160.5t-168.5 98.5t-221.5 33.5
t-229 -32.5t-194 -92t-155.5 -142t-114.5 -182.5t-71 -214.5t-24 -236.5q0 -128 36.5 -245t111.5 -206.5t188.5 -142.5t267.5 -53q91 0 168.5 14t143.5 38t122.5 56t106.5 67l44 -64q-56 -45 -119 -84t-138 -68.5t-164 -46.5t-195 -17q-184 0 -325.5 58.5t-237.5 160.5
t-145 239t-49 293q0 143 33 273t94.5 241t148.5 201.5t195.5 154t235.5 98t269 34.5q178 0 312 -43.5t223.5 -123.5t134.5 -193t45 -252zM740 316q0 -72 21.5 -109.5t49.5 -37.5q20 0 42 6.5t43 16.5t39 22t30 23l120 561q-7 2 -26.5 3.5t-34.5 1.5q-49 0 -92.5 -13.5
t-79.5 -56.5q-20 -24 -40 -67t-36 -98.5t-26 -120t-10 -131.5z" />
    <glyph glyph-name="A" unicode="A" horiz-adv-x="1479" 
d="M428 73v-73h-408v73l100 27l477 1252h290l475 -1252l102 -27v-73h-597v73l155 27l-128 347h-515l-123 -347zM641 1150l-221 -593h436z" />
    <glyph glyph-name="B" unicode="B" horiz-adv-x="1366" 
d="M878 1010q0 57 -11.5 98.5t-37.5 69t-67.5 40.5t-100.5 13h-139v-467h147q61 0 101.5 17t64.5 48.5t33.5 77t9.5 103.5zM979 391q0 133 -66.5 198t-217.5 65h-173v-544q48 -2 92 -3q37 -2 75 -2.5t60 -0.5q63 0 107 20t71 57t39.5 90t12.5 120zM34 0v73l173 27v1142
l-173 26v73h651q149 0 249 -21t160.5 -60t86 -95t25.5 -127q0 -67 -22.5 -121t-60.5 -94.5t-88 -67t-105 -38.5q99 -10 170.5 -37t118 -69t68.5 -97.5t22 -122.5q0 -87 -31 -160t-98.5 -125.5t-173 -82t-254.5 -29.5q-120 0 -238 3t-218 3h-262z" />
    <glyph glyph-name="C" unicode="C" horiz-adv-x="1479" 
d="M815 -20q-169 0 -301.5 46t-224.5 133t-140.5 212.5t-48.5 283.5q0 180 48.5 312t140 218.5t224 128.5t301.5 42q143 0 264.5 -20.5t218.5 -46.5l6 -322h-90l-28 194q-63 43 -142 66.5t-165 23.5q-105 0 -188 -30.5t-140.5 -100.5t-87.5 -183t-30 -279q0 -146 30 -254
t86 -179t137.5 -106.5t184.5 -35.5q113 0 197.5 30t132.5 71l32 220h91l-6 -340q-43 -17 -101.5 -32t-125 -26.5t-137.5 -18.5t-138 -7z" />
    <glyph glyph-name="D" unicode="D" horiz-adv-x="1479" 
d="M1047 670q0 157 -29.5 264.5t-86.5 173.5t-141 94.5t-194 28.5h-74v-1117q24 -2 43.5 -3t39 -2.5t41 -2t50.5 -0.5q100 0 167 32.5t108 101.5t58.5 175.5t17.5 254.5zM673 1341q162 0 292.5 -34.5t222.5 -112.5t141.5 -204.5t49.5 -311.5q0 -164 -38 -291t-119 -214
t-206.5 -132t-300.5 -45q-57 0 -120 0.5t-123 1.5t-113.5 1.5t-92.5 0.5h-230v73l172 27v1142l-172 26v73h637z" />
    <glyph glyph-name="E" unicode="E" horiz-adv-x="1366" 
d="M35 73l172 27v1142l-172 26v73h1142v-341h-91l-32 217q-32 4 -77.5 7t-92.5 4.5t-89 2t-65 0.5h-208v-492h351l31 148h89v-412h-89l-31 152h-351v-517h253q62 0 117 1.5t99 3.5t75.5 5t46.5 6l57 248h91l-19 -374h-1207v73z" />
    <glyph glyph-name="F" unicode="F" horiz-adv-x="1251" 
d="M522 572v-472l223 -27v-73h-697v73l159 27v1142l-172 26v73h1118v-361h-94l-32 237q-21 3 -53.5 5t-70 4t-77 2.5t-75 1.5t-64.5 1h-44h-121v-549h327l31 170h89v-452h-89l-31 172h-327z" />
    <glyph glyph-name="G" unicode="G" horiz-adv-x="1593" 
d="M1406 70q-58 -19 -129.5 -35.5t-148.5 -28.5t-155 -19t-150 -7q-159 0 -292 43.5t-228.5 129t-149 211.5t-53.5 291q0 176 52 307.5t148.5 219t234 131t307.5 43.5q87 0 158.5 -7t133.5 -19t117 -27.5t111 -31.5v-308h-90l-24 174q-35 24 -77 45t-89.5 36.5t-99 24
t-104.5 8.5q-102 0 -184 -28.5t-140.5 -97t-90 -183t-31.5 -285.5q0 -116 18 -203t49 -151t73.5 -106.5t91 -67.5t101.5 -35.5t105 -10.5q57 0 115 9.5t106 25.5v388l-172 26v74h618v-74l-131 -26v-436z" />
    <glyph glyph-name="H" unicode="H" horiz-adv-x="1593" 
d="M35 0v74l172 26v1141l-172 27v73h659v-73l-172 -27v-496h548v496l-172 27v73h661v-73l-173 -27v-1141l173 -26v-74h-661v74l172 26v535h-548v-535l172 -26v-74h-659z" />
    <glyph glyph-name="I" unicode="I" horiz-adv-x="797" 
d="M556 100l172 -26v-74h-659v74l172 26v1141l-172 27v73h659v-73l-172 -27v-1141z" />
    <glyph glyph-name="J" unicode="J" 
d="M501 1242l-172 26v73h639v-73l-152 -26v-810q0 -91 -20 -160t-54 -119t-79 -83.5t-96.5 -53.5t-106 -28t-106.5 -8q-34 0 -70.5 2t-71.5 6t-66.5 9.5t-54.5 12.5v304h89l30 -179q19 -23 54 -36t77 -13q69 0 114.5 48t45.5 142v966z" />
    <glyph glyph-name="K" unicode="K" horiz-adv-x="1593" 
d="M1469 1341v-73l-164 -26l-443 -391l590 -751l125 -27v-73h-438l-501 646l-116 -100v-446l193 -27v-73h-680v73l172 27v1142l-172 26v73h660v-73l-173 -26v-546l611 546l-123 26v73h459z" />
    <glyph glyph-name="L" unicode="L" horiz-adv-x="1366" 
d="M729 1268l-207 -26v-1136h273q125 0 204 7t109 13l82 279h90l-38 -405h-1207v73l172 27v1142l-171 26v73h693v-73z" />
    <glyph glyph-name="M" unicode="M" horiz-adv-x="1933" 
d="M882 0h-55l-495 1133v-1033l180 -27v-73h-477v73l172 27v1142l-172 26v73h527l383 -882l391 882h538v-73l-172 -26v-1142l172 -27v-73h-667v73l180 27v1033z" />
    <glyph glyph-name="N" unicode="N" horiz-adv-x="1479" 
d="M1155 1242l-180 26v73h477v-73l-172 -26v-1242h-117l-827 1078v-978l180 -27v-73h-477v73l172 27v1142l-172 26v73h459l657 -857v758z" />
    <glyph glyph-name="O" unicode="O" horiz-adv-x="1593" 
d="M432 672q0 -140 17 -250t59 -186t112.5 -116t176.5 -40t176 40t112 116t59 186t17 250q0 139 -17 248t-59 183t-112 113t-176 39t-176.5 -39t-112.5 -113t-59 -183t-17 -248zM100 672q0 178 46 307t135 213t218.5 124t297.5 40q162 0 291 -40t219 -124t138 -213t48 -307
t-48 -308.5t-138 -215.5t-219 -126.5t-291 -41.5t-291 41.5t-219.5 126.5t-138.5 215.5t-48 308.5z" />
    <glyph glyph-name="P" unicode="P" horiz-adv-x="1251" 
d="M871 944q0 80 -14 135t-45.5 88.5t-83 48.5t-126.5 15h-79v-595h83q76 0 126.5 19.5t81.5 58t44 96t13 134.5zM523 526v-426l223 -27v-73h-698v73l159 27v1142l-172 26v73h591q168 0 277.5 -30.5t174 -84t90 -125.5t25.5 -155q0 -82 -21.5 -158t-77 -134t-150.5 -93
t-241 -35h-180z" />
    <glyph glyph-name="Q" unicode="Q" horiz-adv-x="1593" 
d="M100 672q0 178 46 307t135 213t218.5 124t297.5 40q162 0 291 -40t219 -124t138 -213t48 -307q0 -128 -25 -231.5t-73 -183t-117.5 -135.5t-158.5 -90l50 -61q43 -54 80 -89.5t68 -56.5t56.5 -29.5t47.5 -8.5q52 0 82 8v-86q-11 -5 -36.5 -11.5t-58.5 -13.5t-70 -11.5
t-71 -4.5q-81 0 -141 16.5t-110 49.5t-95.5 82.5t-97.5 115.5l-38 48q-159 1 -286 43.5t-215.5 127.5t-136 214.5t-47.5 306.5zM432 672q0 -140 17 -250t59 -186t112.5 -116t176.5 -40t176 40t112 116t59 186t17 250q0 139 -17 248t-59 183t-112 113t-176 39t-176.5 -39
t-112.5 -113t-59 -183t-17 -248z" />
    <glyph glyph-name="R" unicode="R" horiz-adv-x="1479" 
d="M523 568v-468l172 -27v-73h-647v73l159 27v1142l-172 26v73h641q168 0 281 -27.5t181 -77t97 -118.5t29 -152q0 -63 -14 -120t-45.5 -105t-83 -85t-127.5 -60l358 -496l145 -27v-73h-434l-374 568h-166zM952 964q0 80 -16 131.5t-51 81.5t-90 42t-132 12h-140v-553h145
q79 0 133.5 16t88 50.5t48 88.5t14.5 131z" />
    <glyph glyph-name="S" unicode="S" horiz-adv-x="1139" 
d="M109 411h88l45 -215q21 -24 53 -44.5t72 -36.5t85.5 -25t92.5 -9q78 0 133 17.5t89 48.5t49.5 74.5t15.5 95.5q0 60 -30.5 99t-81 67t-114.5 49.5t-131.5 45.5t-131.5 55t-114.5 78.5t-81 115.5t-30.5 167q0 177 120.5 269.5t352.5 92.5q49 0 99.5 -3.5t98.5 -9.5t92 -14
t82 -16v-319h-89l-45 184q-44 32 -101 53t-137 21q-68 0 -116.5 -13.5t-79.5 -37.5t-45 -58t-14 -76q0 -54 31 -90t81 -62t114.5 -47t132 -45.5t132 -56t114.5 -79t81 -115.5t31 -165q0 -98 -28 -177t-89 -134.5t-156 -85.5t-230 -30q-65 0 -129 6t-121.5 16t-106.5 23
t-83 26v360z" />
    <glyph glyph-name="T" unicode="T" horiz-adv-x="1366" 
d="M310 0v73l213 27v1135h-51q-131 0 -208 -6t-114 -14l-27 -249h-91v375h1303v-375h-92l-27 249q-37 8 -123.5 13t-204.5 5h-49v-1133l213 -27v-73h-742z" />
    <glyph glyph-name="U" unicode="U" horiz-adv-x="1479" 
d="M838 122q82 0 141.5 24.5t98 68t56.5 104.5t18 134v789l-180 26v73h456v-73l-152 -26v-781q0 -89 -24.5 -175t-83.5 -154t-159 -109.5t-250 -41.5q-140 0 -244 33.5t-173.5 96.5t-104 153.5t-34.5 204.5v773l-152 26v73h639v-73l-172 -26v-787q0 -76 19 -137.5t58 -105
t99.5 -67t143.5 -23.5z" />
    <glyph glyph-name="V" unicode="V" horiz-adv-x="1479" 
d="M1456 1341v-73l-127 -27l-518 -1272h-133l-545 1272l-110 27v73h583v-73l-139 -27l377 -879l352 879l-135 27v73h395z" />
    <glyph glyph-name="W" unicode="W" horiz-adv-x="2048" 
d="M1899 1242l-398 -1273h-123l-334 827l-331 -827h-123l-444 1273l-117 26v73h602v-73l-157 -26l286 -799l314 784h125l315 -782l237 797l-169 26v73h434v-73z" />
    <glyph glyph-name="X" unicode="X" horiz-adv-x="1479" 
d="M330 100l166 -27v-73h-458v73l148 27l431 548l-384 594l-151 26v73h653v-73l-170 -26l234 -362l285 362l-166 26v73h459v-73l-148 -26l-365 -463l439 -679l152 -27v-73h-653v73l170 27l-290 447z" />
    <glyph glyph-name="Y" unicode="Y" horiz-adv-x="1479" 
d="M911 528v-428l213 -27v-73h-742v73l213 27v422l-408 720l-151 26v73h690v-73l-180 -26l306 -562l296 562l-164 26v73h456v-73l-142 -26z" />
    <glyph glyph-name="Z" unicode="Z" horiz-adv-x="1366" 
d="M98 114l742 1121h-240q-131 0 -207 -6t-113 -14l-31 -211h-89v337h1036v-106l-747 -1131h280q65 0 126.5 3.5t112.5 9t89 11t56 9.5l59 256h90l-27 -393h-1137v114z" />
    <glyph glyph-name="bracketleft" unicode="[" horiz-adv-x="682" 
d="M152 -274v1695h456v-67l-203 -41v-1479l203 -41v-67h-456z" />
    <glyph glyph-name="backslash" unicode="\" horiz-adv-x="569" 
d="M-20 1349h140l470 -1369h-141z" />
    <glyph glyph-name="bracketright" unicode="]" horiz-adv-x="682" 
d="M74 -274v67l203 41v1479l-203 41v67h456v-1695h-456z" />
    <glyph glyph-name="asciicircum" unicode="^" horiz-adv-x="1190" 
d="M925 389l-330 761l-330 -761h-143l428 952h90l428 -952h-143z" />
    <glyph glyph-name="underscore" unicode="_" 
d="M-16 -285v144h1056v-144h-1056z" />
    <glyph glyph-name="grave" unicode="`" horiz-adv-x="682" 
d="M452 1118l-364 268v37h285l165 -273v-32h-86z" />
    <glyph glyph-name="a" unicode="a" 
d="M546 961q77 0 142 -13t112 -43.5t73 -80.5t26 -123v-611l94 -24v-66h-346l-22 72q-19 -13 -44.5 -29t-58.5 -30t-74 -23.5t-91 -9.5q-82 0 -137.5 21t-89.5 58.5t-49 89t-15 111.5q0 97 34 155t91.5 89.5t134 41.5t162.5 12l122 3v137q0 83 -34 126.5t-105 43.5
q-55 0 -100.5 -15.5t-87.5 -36.5l-38 -117h-66v227q46 7 87.5 13t84.5 11t90.5 8t104.5 3zM610 472l-84 -3q-44 -2 -76 -12t-53.5 -33.5t-32 -61.5t-10.5 -96q0 -85 30 -125t78 -40t82 10.5t66 24.5v336z" />
    <glyph glyph-name="b" unicode="b" horiz-adv-x="1139" 
d="M763 497q0 102 -13 170.5t-38 110t-61.5 59t-82.5 17.5q-38 0 -83 -8.5t-74 -25.5v-719q32 -8 74.5 -12t82.5 -4q54 0 91 27t60.5 79.5t33.5 129.5t10 176zM122 1333l-96 23v65h385v-345q0 -37 -2.5 -89t-7.5 -100q22 18 52.5 32t66 24.5t72.5 16t72 5.5q105 0 179 -28.5
t121.5 -86.5t69.5 -146t22 -208q0 -114 -28.5 -208.5t-85.5 -163t-143.5 -106.5t-202.5 -38q-96 0 -218.5 19.5t-255.5 48.5v1285z" />
    <glyph glyph-name="c" unicode="c" horiz-adv-x="909" 
d="M858 57q-24 -19 -56.5 -33t-71 -23.5t-79.5 -14.5t-81 -5q-134 0 -229 33.5t-155 96.5t-88 154t-28 207q0 129 37 222.5t100.5 153.5t147.5 88.5t177 28.5q86 0 162.5 -10.5t142.5 -24.5v-278h-72l-42 165q-16 12 -31.5 20.5t-33.5 14t-39.5 8t-49.5 2.5q-39 0 -76 -22.5
t-66.5 -69t-47.5 -119.5t-18 -173q0 -84 11.5 -153t40.5 -118t80 -75.5t129 -26.5q65 0 128.5 8t107.5 21v-77z" />
    <glyph glyph-name="d" unicode="d" horiz-adv-x="1139" 
d="M733 53q-23 -15 -45.5 -28.5t-50 -23t-62 -15.5t-80.5 -6q-208 0 -310 119.5t-102 367.5q0 114 25 206t77.5 157t133 100t191.5 35q109 0 220 -27q-2 11 -3 31t-1.5 42.5t-1 44.5t-0.5 37v238l-96 24v66h385v-1331l103 -24v-66h-362zM376 475q0 -110 15 -183.5t40.5 -118
t58.5 -63.5t68 -19q51 0 89.5 12t76.5 31v708q-41 11 -77 16t-81 5q-90 0 -140 -98.5t-50 -289.5z" />
    <glyph glyph-name="e" unicode="e" horiz-adv-x="909" 
d="M494 963q83 0 150 -20t114 -68.5t72.5 -129t25.5 -201.5v-82h-493v-16q0 -67 5.5 -128.5t30 -109t75 -75.5t139.5 -28q59 0 115 9t107 20v-77q-23 -14 -58 -28t-76.5 -24.5t-87.5 -17t-91 -6.5q-121 0 -207 32t-140.5 95t-79.5 155t-25 212q0 246 105.5 367t318.5 121z
M483 862q-36 0 -59 -21t-36.5 -59t-18.5 -93t-5 -122h218q0 67 -2.5 122t-12 93t-29.5 59t-55 21z" />
    <glyph glyph-name="f" unicode="f" horiz-adv-x="682" 
d="M157 836h-142v69l142 39v101q0 99 26 173.5t74.5 124t119 74.5t159.5 25q22 0 45.5 -1.5t46 -4t41.5 -6t33 -7.5v-224h-64l-29 109q-9 9 -24.5 16.5t-38.5 7.5q-22 0 -40.5 -13.5t-31.5 -44t-20.5 -79t-7.5 -118.5v-137h191v-104h-191v-746l153 -24v-66h-544v66l102 24
v746z" />
    <glyph glyph-name="g" unicode="g" 
d="M257 347q-178 75 -178 293q0 80 28.5 140.5t82.5 101.5t132.5 62t177.5 21q32 0 65 -3t61.5 -6.5t50.5 -8t32 -7.5l225 111l35 -43l-114 -162q31 -38 46.5 -91t15.5 -115q0 -81 -28 -142.5t-81.5 -103.5t-132 -63t-179.5 -21q-40 0 -81 3.5t-72 8.5l-24 -76q1 -15 11 -29
t26 -25.5t38 -18.5t48 -7h219q165 0 254 -64t89 -200q0 -62 -24.5 -125t-84.5 -114t-160.5 -83t-252.5 -32q-114 0 -195 17.5t-132.5 47.5t-76 70t-24.5 84q0 29 13.5 54t37.5 48t56.5 44.5t70.5 43.5q-18 7 -42.5 23.5t-46.5 42t-37.5 59.5t-15.5 75zM785 -166q0 47 -33 71
t-94 24h-317q-41 -30 -64.5 -67t-23.5 -78q0 -23 10 -46t36 -41t70.5 -29.5t113.5 -11.5q79 0 136 13.5t94 37.5t54.5 56.5t17.5 70.5zM494 410q74 0 107 57.5t33 172.5t-32.5 169.5t-107.5 54.5q-69 0 -100.5 -54.5t-31.5 -169.5t31 -172.5t101 -57.5z" />
    <glyph glyph-name="h" unicode="h" horiz-adv-x="1139" 
d="M436 1014q0 -15 -0.5 -35.5t-1.5 -42.5t-2 -42.5t-2 -35.5q31 16 68.5 35t79.5 35t86.5 26.5t89.5 10.5q57 0 105 -15t82.5 -48t53.5 -86t19 -128v-598l94 -24v-66h-467v66l84 24v559q0 84 -35.5 131t-101.5 47q-76 0 -152 -34v-703l86 -24v-66h-467v66l92 24v1241
l-96 24v66h385v-407z" />
    <glyph glyph-name="i" unicode="i" horiz-adv-x="569" 
d="M436 90l103 -24v-66h-494v66l102 24v760l-96 24v66h385v-850zM137 1268q0 32 12 60t33 48.5t49 32.5t60 12t60 -12t48.5 -32.5t32.5 -48.5t12 -60t-12 -60t-32.5 -49t-48.5 -33t-60 -12t-60 12t-49 33t-33 49t-12 60z" />
    <glyph glyph-name="j" unicode="j" horiz-adv-x="682" 
d="M553 1268q0 -32 -12 -60t-33 -49t-49 -33t-59 -12q-32 0 -60 12t-49 33t-33 49t-12 60q0 31 12 59t33 49t49 33t60 12q31 0 59 -12t49 -33t33 -49t12 -59zM545 -39q0 -106 -31 -181.5t-84 -123.5t-124 -70t-151 -22q-45 0 -90 5t-82 13v225h64l43 -114q10 -8 20 -13.5
t29 -5.5q22 0 43 13.5t37.5 43.5t26.5 78.5t10 119.5v911l-166 34v66h455v-979z" />
    <glyph glyph-name="k" unicode="k" horiz-adv-x="1139" 
d="M436 451l367 400l-100 23v66h358v-66l-108 -22l-224 -236l323 -526l84 -24v-66h-452v66l55 24l-188 329l-115 -80v-249l93 -24v-66h-471v66l89 24v1241l-96 24v66h385v-970z" />
    <glyph glyph-name="l" unicode="l" horiz-adv-x="569" 
d="M431 90l103 -24v-66h-494v66l102 24v1241l-96 24v66h385v-1331z" />
    <glyph glyph-name="m" unicode="m" horiz-adv-x="1706" 
d="M434 858q31 16 68 35t78 35t84.5 26.5t88.5 10.5q78 0 136 -28.5t88 -93.5q32 19 73.5 40.5t87 39.5t93.5 30t92 12q57 0 104 -15t80.5 -48t51.5 -86t18 -128v-598l94 -24v-66h-467v66l84 24v559q0 84 -32.5 131t-98.5 47q-36 0 -78.5 -11.5t-81.5 -30.5q5 -21 7.5 -45.5
t2.5 -51.5v-598l94 -24v-66h-467v66l84 24v559q0 84 -32.5 131t-98.5 47q-37 0 -75.5 -11t-75.5 -28v-698l86 -24v-66h-467v66l92 24v760l-92 24v66h365z" />
    <glyph glyph-name="n" unicode="n" horiz-adv-x="1139" 
d="M434 858q31 16 68 35t78 35t85 26.5t89 10.5q57 0 105 -15t82.5 -48t53.5 -86t19 -128v-598l94 -24v-66h-467v66l84 24v559q0 84 -35.5 131t-101.5 47q-76 0 -152 -34v-703l86 -24v-66h-467v66l92 24v760l-92 24v66h365z" />
    <glyph glyph-name="o" unicode="o" 
d="M946 475q0 -120 -24.5 -212t-77.5 -155t-136.5 -95.5t-201.5 -32.5q-111 0 -192 32t-133.5 95t-77.5 155.5t-25 212.5q0 119 25 210.5t78 153.5t135.5 94t197.5 32q223 0 327.5 -124.5t104.5 -365.5zM653 475q0 97 -6 170t-22 122t-44 73t-73 24q-44 0 -71 -24t-41.5 -73
t-19.5 -122t-5 -170q0 -98 5 -171.5t19.5 -123.5t41.5 -75t71 -25q45 0 73 25t44 75t22 123.5t6 171.5z" />
    <glyph glyph-name="p" unicode="p" horiz-adv-x="1139" 
d="M409 892q22 15 48.5 28.5t58 23t69.5 15.5t84 6q196 0 291.5 -115t95.5 -363q0 -114 -25.5 -207.5t-78.5 -160t-134 -103t-192 -36.5q-54 0 -106 6.5t-108 20.5q1 -11 2.5 -30t2 -40.5t1 -42t0.5 -35.5v-205l138 -24v-66h-529v66l102 24v1196l-103 24v66h381zM763 480
q0 109 -14 181.5t-38 115t-55.5 60t-66.5 17.5q-51 0 -94.5 -11t-76.5 -27v-709q81 -21 169 -21q90 0 133 99t43 295z" />
    <glyph glyph-name="q" unicode="q" horiz-adv-x="1139" 
d="M377 448q0 -102 14 -170.5t39.5 -110t62.5 -59t84 -17.5q38 0 80.5 10.5t71.5 27.5v716q-32 8 -72 12.5t-80 4.5q-54 0 -92 -27.5t-62 -80t-35 -130t-11 -176.5zM1018 -346l102 -24v-66h-529v66l138 24v215q0 37 2.5 89t7.5 100q-44 -35 -106 -56.5t-139 -21.5
q-209 0 -309.5 123.5t-100.5 370.5q0 114 26 204.5t80.5 154.5t138.5 98t200 34q30 0 67 -2.5t75 -6t74 -7.5l63 -7l119 43h91v-1331z" />
    <glyph glyph-name="r" unicode="r" horiz-adv-x="909" 
d="M461 745q26 29 64.5 68t84 74t97 59t104.5 24h54v-343h-56l-59 126q-33 0 -72 -8t-77 -21.5t-73.5 -30t-61.5 -32.5v-571l151 -24v-66h-562v66l122 24v760l-122 24v66h395z" />
    <glyph glyph-name="s" unicode="s" horiz-adv-x="797" 
d="M747 298q0 -74 -22.5 -133t-69 -100t-117.5 -63t-168 -22q-48 0 -97 6t-91 14.5t-73.5 17t-44.5 13.5v256h66l38 -132q15 -15 37 -29.5t49 -26.5t58 -19t64 -7q87 0 129.5 37.5t42.5 95.5q0 32 -12.5 55t-39.5 41t-68.5 34t-99.5 34q-48 15 -96 37.5t-85.5 58.5t-61 89
t-23.5 130q0 68 26.5 120t72.5 87.5t108 54t133 18.5q70 0 140.5 -9t136.5 -20v-241h-66l-32 110q-13 13 -33 25t-44.5 21t-51.5 14.5t-52 5.5q-72 0 -106.5 -29.5t-34.5 -80.5q0 -33 14.5 -56t43 -41t69 -33t93.5 -31q55 -17 104 -40.5t85.5 -59t57.5 -84.5t21 -118z" />
    <glyph glyph-name="t" unicode="t" horiz-adv-x="682" 
d="M438 -20q-75 0 -128.5 18t-87.5 49.5t-50 75t-16 94.5v619h-123v65l145 39l117 213h150v-213h198v-104h-198v-601q0 -65 27 -98t71 -33q34 0 67.5 5t62.5 11v-85q-14 -10 -41 -20t-59.5 -17.5t-68 -12.5t-66.5 -5z" />
    <glyph glyph-name="u" unicode="u" horiz-adv-x="1139" 
d="M705 82q-31 -16 -68 -35t-78 -35t-85 -26.5t-89 -10.5q-57 0 -105 15t-82.5 48t-53.5 86t-19 128v598l-94 24v66h383v-649q0 -84 35.5 -131t101.5 -47q76 0 152 34v703l-86 24v66h375v-850l92 -24v-66h-365z" />
    <glyph glyph-name="v" unicode="v" 
d="M956 854l-376 -874h-121l-393 870l-66 24v66h481v-66l-112 -26l241 -536l217 538l-110 24v66h307v-66z" />
    <glyph glyph-name="w" unicode="w" horiz-adv-x="1479" 
d="M874 846l217 -535l182 539l-110 24v66h305v-66l-72 -20l-316 -874h-121l-215 527l-214 -527h-121l-333 870l-70 24v66h465v-66l-112 -26l202 -537l218 535h95z" />
    <glyph glyph-name="x" unicode="x" 
d="M31 875v65h502v-65l-105 -27l137 -211l181 213l-94 25v65h320v-65l-83 -21l-264 -310l298 -458l90 -21v-65h-502v65l105 23l-164 253l-218 -255l94 -21v-65h-320v65l84 16l300 352l-270 417z" />
    <glyph glyph-name="y" unicode="y" 
d="M462 -29l-376 879l-66 24v66h481v-66l-112 -26l221 -520l197 522l-110 24v66h307v-66l-68 -20l-371 -913q-32 -82 -65 -152t-73.5 -121.5t-92.5 -80.5t-121 -29q-28 0 -48.5 1t-39 3.5t-37 6t-40.5 8.5v242h60l43 -126q14 -11 31.5 -17t42.5 -6q41 0 71.5 21t55.5 56.5
t46.5 83t45.5 100.5z" />
    <glyph glyph-name="z" unicode="z" horiz-adv-x="909" 
d="M40 0v45l432 805h-107q-28 0 -55.5 -2.5t-52 -7t-43.5 -11t-29 -14.5l-31 -155h-72v280h730v-49l-432 -801h150q27 0 57.5 3.5t59 9.5t53 14.5t39.5 19.5l53 217h72l-27 -354h-797z" />
    <glyph glyph-name="braceleft" unicode="{" horiz-adv-x="807" 
d="M592 -274q-77 0 -135.5 20.5t-97.5 59t-58.5 92.5t-19.5 122v295q0 58 -14.5 98.5t-42 66.5t-67.5 38.5t-91 14.5v85q102 3 158.5 52.5t56.5 163.5v294q0 141 78 217t233 76h135v-87h-62q-69 0 -98.5 -44t-29.5 -131v-330q0 -50 -15.5 -92t-42.5 -74.5t-64 -54t-80 -30.5
v-3q45 -10 82 -31.5t64 -54t41.5 -74.5t14.5 -93v-334q0 -86 29.5 -130.5t98.5 -44.5h62v-87h-135z" />
    <glyph glyph-name="bar" unicode="|" horiz-adv-x="451" 
d="M154 -442v1863h143v-1863h-143z" />
    <glyph glyph-name="braceright" unicode="}" horiz-adv-x="807" 
d="M80 -274v87h62q69 0 98.5 44.5t29.5 130.5v334q0 51 14.5 93t41.5 74.5t64 54t82 31.5v3q-44 9 -81 30.5t-64 54t-42 74.5t-15 92v330q0 87 -29.5 131t-98.5 44h-62v87h135q155 0 233 -76t78 -217v-294q0 -114 56.5 -163.5t158.5 -52.5v-85q-51 -2 -91 -14.5t-67.5 -38.5
t-42 -66.5t-14.5 -98.5v-295q0 -68 -19.5 -122t-58.5 -92.5t-97.5 -59t-135.5 -20.5h-135z" />
    <glyph glyph-name="asciitilde" unicode="~" horiz-adv-x="1065" 
d="M761 481q-48 0 -92 18t-84 45t-77 58t-71.5 58t-67 45t-63.5 18q-34 0 -59 -12t-42.5 -40.5t-29 -75t-18.5 -114.5h-141q7 69 21 138t45 123.5t84.5 89t139.5 34.5q39 0 74 -11t67 -28.5t62 -39.5t57 -44q17 -15 40.5 -35t50 -39t53.5 -32t51 -13q33 0 57 13.5t41 42.5
t29 75t20 111h144q-9 -68 -24.5 -137t-47 -124t-84 -89.5t-135.5 -34.5z" />
    <glyph glyph-name="exclamdown" unicode="&#xa1;" horiz-adv-x="682" 
d="M283 512h115l92 -921h-299zM340 961q34 0 64.5 -13t53 -35.5t35.5 -53t13 -64.5q0 -35 -13 -65t-35.5 -52.5t-53 -35.5t-64.5 -13q-35 0 -65 13t-52.5 35.5t-35.5 52.5t-13 65q0 34 13 64.5t35.5 53t52.5 35.5t65 13z" />
    <glyph glyph-name="cent" unicode="&#xa2;" 
d="M927 262q-44 -32 -114 -51t-144 -24v-187h-92v187q-129 5 -221.5 40.5t-152 98.5t-87 151.5t-27.5 199.5q0 129 39 222.5t105.5 153.5t154.5 88.5t187 28.5h2v171h92v-175q65 -5 125.5 -13t111.5 -18v-278h-72l-54 165q-26 17 -51 27t-60 15v-754q34 0 70 2t70 6
t64.5 9.5t53.5 11.5v-77zM380 683q0 -72 9.5 -132.5t32 -107.5t60.5 -78.5t95 -44.5v743q-39 -8 -74.5 -34t-62.5 -72.5t-43.5 -114.5t-16.5 -159z" />
    <glyph glyph-name="sterling" unicode="&#xa3;" 
d="M960 223v-223h-873v123q33 30 71 62t69.5 69t52.5 80t21 96q0 45 -16.5 91.5t-39.5 98.5h-163v101h88q-28 63 -47.5 133t-19.5 152q0 168 118.5 259t354.5 91q46 0 85.5 -3.5t76 -9t73 -13.5t76.5 -17v-305h-87l-43 194q-33 20 -78.5 36.5t-102.5 16.5q-91 0 -135 -63
t-44 -186q0 -92 8 -159.5t18 -125.5h251v-101h-238q6 -38 10 -73.5t4 -79.5q0 -84 -27 -142t-63 -103z" />
    <glyph glyph-name="currency" unicode="&#xa4;" 
d="M735 352q-48 -34 -104.5 -51.5t-118.5 -17.5q-63 0 -119 18.5t-104 50.5l-105 -104l-100 102l102 103q-32 48 -49.5 104t-17.5 119t17.5 119t49.5 104l-102 105l104 104l101 -107q48 32 104 51t119 19q62 0 118.5 -19t104.5 -51l105 105l102 -100l-104 -107
q32 -48 50.5 -104.5t18.5 -118.5q0 -63 -18.5 -119t-50.5 -104l104 -103l-100 -102zM512 932q-52 0 -98.5 -20t-81 -55t-54.5 -81.5t-20 -99.5q0 -52 20 -98.5t54.5 -81t81 -54.5t98.5 -20q53 0 99.5 20t81.5 54.5t55 81t20 98.5q0 53 -20 99.5t-55 81.5t-81.5 55t-99.5 20z
" />
    <glyph glyph-name="yen" unicode="&#xa5;" 
d="M2 1275v66h499v-66l-112 -26l206 -540l212 542l-110 24v66h325v-66l-86 -20l-257 -616h226v-102h-244v-138h244v-102h-244v-207l143 -24v-66h-574v66l142 24v207h-257v102h257v138h-257v102h233l-262 612z" />
    <glyph glyph-name="brokenbar" unicode="&#xa6;" horiz-adv-x="451" 
d="M154 801v620h142v-620h-142zM154 -442v622h142v-622h-142z" />
    <glyph glyph-name="section" unicode="&#xa7;" 
d="M855 42q0 -66 -22.5 -120.5t-69 -94t-117.5 -61t-168 -21.5q-48 0 -97 6t-91 14.5t-73.5 17t-44.5 13.5v261h66l38 -132q15 -15 37 -30.5t49 -28t58 -20.5t64 -8q81 0 125 37.5t44 95.5q0 47 -22.5 82t-59 63.5t-83.5 53t-96.5 50.5t-96.5 56t-83.5 70t-59 92t-22.5 122
q0 52 16 96.5t45 79t69 59.5t88 39q-37 20 -69.5 45t-57 58t-38.5 75.5t-14 97.5q0 68 26.5 120t72.5 87.5t108 54t133 18.5q70 0 140.5 -9t136.5 -20v-241h-66l-32 110q-13 13 -33 25t-44.5 21t-51.5 14.5t-52 5.5q-72 0 -106.5 -29.5t-34.5 -80.5q0 -46 22.5 -78.5t60 -57
t84.5 -45t96.5 -42.5t97 -48.5t85 -63.5t60 -88t22.5 -121q0 -51 -14 -98t-42 -85.5t-71 -68t-101 -46.5q39 -24 73 -53t60 -65.5t41 -81.5t15 -102zM692 571q0 41 -17 71t-46.5 53.5t-67.5 42t-80 36.5q-32 -4 -60 -17t-49 -32.5t-33 -42.5t-12 -46q0 -40 17.5 -71.5
t47 -57.5t68.5 -48.5t81 -44.5q33 6 61 21.5t48 37.5t31 47t11 51z" />
    <glyph glyph-name="dieresis" unicode="&#xa8;" horiz-adv-x="682" 
d="M510 1130q-25 0 -47 10t-38.5 26.5t-26 38.5t-9.5 46q0 25 9.5 46.5t26 37.5t38.5 25.5t47 9.5t47 -9.5t38 -25.5t25 -37.5t9 -46.5q0 -24 -9 -46t-25 -38.5t-38 -26.5t-47 -10zM174 1130q-24 0 -46 10t-38.5 26.5t-26.5 38.5t-10 46q0 25 10 46.5t26.5 37.5t38.5 25.5
t46 9.5q25 0 46.5 -9.5t37.5 -25.5t25.5 -37.5t9.5 -46.5q0 -24 -9 -46t-25 -38.5t-38 -26.5t-47 -10z" />
    <glyph glyph-name="copyright" unicode="&#xa9;" horiz-adv-x="1530" 
d="M88 670q0 96 24.5 184.5t69.5 165.5t107.5 140t139.5 108t165 69.5t184 24.5t184.5 -24.5t165.5 -69.5t140 -108t108 -140t69.5 -165.5t24.5 -184.5t-24.5 -184t-69.5 -165t-108 -139.5t-140 -107.5t-165.5 -69.5t-184.5 -24.5q-144 0 -269.5 54t-219 147.5t-147.5 219
t-54 269.5zM813 254q-99 0 -178 28.5t-134 82t-84.5 129t-29.5 170.5q0 108 29.5 188t85 132.5t134.5 78.5t179 26q82 0 147.5 -9.5t120.5 -20.5l4 -207h-69l-19 105q-41 25 -82 38t-98 13q-66 0 -112 -18.5t-75 -59t-42 -106t-13 -158.5q0 -165 53.5 -248.5t182.5 -83.5
q75 0 119.5 17t75.5 42l22 119h70l-4 -219q-26 -8 -58 -15t-69 -12.5t-76.5 -8.5t-79.5 -3zM778 1278q-125 0 -234.5 -48t-190.5 -130.5t-128 -193t-47 -236.5t47 -236.5t128 -193t190.5 -130t234.5 -47.5q124 0 234 47.5t191.5 130t129 193t47.5 236.5q0 84 -21.5 161.5
t-61 145.5t-94 123t-121.5 95t-144 61.5t-160 21.5z" />
    <glyph glyph-name="ordfeminine" unicode="&#xaa;" horiz-adv-x="614" 
d="M323 1362q46 0 85.5 -11t68.5 -33t45.5 -55t16.5 -77v-336l56 -15v-49h-214l-7 43q-8 -8 -21.5 -17.5t-33 -17.5t-45 -14t-57.5 -6q-53 0 -89 12.5t-58.5 35t-32 53.5t-9.5 67q0 58 23.5 93.5t62.5 55t88.5 26.5t100.5 8l62 2v69q0 50 -27.5 75t-69.5 25q-33 0 -54.5 -9
t-47.5 -22l-23 -77h-49v153q27 4 53.5 8t54 7t57 4.5t64.5 1.5zM365 1064l-56 -2q-26 -1 -46 -6t-34 -18t-21 -35.5t-7 -57.5q0 -50 18.5 -69.5t44.5 -19.5q33 0 55 7.5t46 19.5v181z" />
    <glyph glyph-name="guillemotleft" unicode="&#xab;" 
d="M106 496l330 356h101l-183 -389l183 -389h-101l-330 356v66zM516 496l330 356h100l-182 -389l182 -389h-100l-330 356v66z" />
    <glyph glyph-name="logicalnot" unicode="&#xac;" horiz-adv-x="1167" 
d="M1055 752v-549h-142v405h-811v144h953z" />
    <glyph glyph-name="registered" unicode="&#xae;" horiz-adv-x="1530" 
d="M1470 670q0 -96 -24.5 -184t-69.5 -165t-108 -139.5t-140 -107.5t-165.5 -69.5t-184.5 -24.5q-144 0 -269.5 54t-219 147.5t-147.5 219t-54 269.5q0 96 24.5 184.5t69.5 165.5t107.5 140t139.5 108t165 69.5t184 24.5t184.5 -24.5t165.5 -69.5t140 -108t108 -140
t69.5 -165.5t24.5 -184.5zM967 276l-230 343h-49v-269l94 -16v-58h-346v58l76 16v660l-84 16v55h350q84 0 143.5 -16t98 -45.5t56.5 -70t18 -89.5q0 -77 -45.5 -135t-133.5 -86l207 -289l70 -16v-58h-225zM911 858q0 48 -13 77t-38.5 44.5t-63.5 21t-89 5.5h-19v-312h23
q104 0 152 36t48 128zM778 1278q-125 0 -234.5 -48t-190.5 -130.5t-128 -193t-47 -236.5t47 -236.5t128 -193t190.5 -130t234.5 -47.5q124 0 234 47.5t191.5 130t129 193t47.5 236.5q0 84 -21.5 161.5t-61 145.5t-94 123t-121.5 95t-144 61.5t-160 21.5z" />
    <glyph glyph-name="macron" unicode="&#xaf;" 
d="M1042 1392h-1059v149h1059v-149z" />
    <glyph glyph-name="degree" unicode="&#xb0;" horiz-adv-x="819" 
d="M98 1051q0 64 24 121t66 99t98.5 66.5t121.5 24.5q64 0 121 -24.5t99 -66.5t66.5 -99t24.5 -121q0 -65 -24.5 -121.5t-66.5 -98.5t-99 -66t-121 -24q-65 0 -121.5 24t-98.5 66t-66 98.5t-24 121.5zM407 1250q-40 0 -75 -15.5t-60.5 -42.5t-40 -63.5t-14.5 -79.5
q0 -41 14.5 -77t40 -63t60.5 -43t75 -16q42 0 77 16t60.5 43t40 63t14.5 77q0 43 -14.5 79.5t-40 63.5t-60.5 42.5t-77 15.5z" />
    <glyph glyph-name="plusminus" unicode="&#xb1;" horiz-adv-x="1124" 
d="M633 608v-405h-143v405h-404v144h404v405h143v-405h406v-144h-406zM1039 141v-141h-953v141h953z" />
    <glyph glyph-name="uni00B2" unicode="&#xb2;" horiz-adv-x="614" 
d="M566 536h-510v113q77 83 136 141t99 110t60.5 108t20.5 135q0 36 -8.5 62t-23.5 42t-35.5 23.5t-43.5 7.5q-53 0 -90 -31l-26 -116h-62v193q48 11 93.5 18.5t99.5 7.5q133 0 203.5 -55t70.5 -155q0 -48 -10 -86.5t-29.5 -72t-49.5 -65.5t-70 -67.5t-90 -77t-110 -94.5
h375v-141z" />
    <glyph glyph-name="uni00B3" unicode="&#xb3;" horiz-adv-x="614" 
d="M571 754q0 -109 -77 -170t-220 -61q-61 0 -118 6.5t-104 17.5l-7 205h65l32 -132q19 -11 44.5 -18.5t54.5 -7.5q79 0 114 44t35 122q0 43 -11 71.5t-29.5 45t-44 24t-54.5 9.5l-64 4v83l62 4q54 4 79 37t25 105q0 74 -30 104t-81 30q-26 0 -44.5 -8t-37.5 -20l-26 -119
h-62v193q43 11 87.5 18.5t105.5 7.5q133 0 201.5 -49t68.5 -149q0 -76 -39.5 -128.5t-126.5 -66.5q104 -13 153 -62.5t49 -139.5z" />
    <glyph glyph-name="acute" unicode="&#xb4;" horiz-adv-x="682" 
d="M145 1118v33l166 272h285v-37l-365 -268h-86z" />
    <glyph glyph-name="uni00B5" unicode="&#xb5;" horiz-adv-x="1180" 
d="M768 92q-20 -20 -43 -40t-50.5 -36t-59.5 -26t-71 -10q-50 0 -84 13.5t-60 38.5q0 -35 -1.5 -92t-3.5 -122t-4 -132t-4 -122h-282v45q11 119 17.5 241.5t6.5 252.5v746l-94 25v66h383v-652q0 -91 38 -132.5t117 -41.5q31 0 58 7t50.5 18t43.5 25t38 29v656l-86 25v66h375
v-850l92 -25v-65h-357z" />
    <glyph glyph-name="paragraph" unicode="&#xb6;" horiz-adv-x="1106" 
d="M936 1245v-1503h-140v1503h-135v-1503h-140v803q-87 3 -164.5 29.5t-135 76.5t-91 125t-33.5 176q0 90 27.5 162t82 122.5t136 77.5t188.5 27h488v-73z" />
    <glyph glyph-name="uni2219" unicode="&#xb7;" horiz-adv-x="512" 
d="M256 511q-35 0 -65 13t-52.5 35.5t-35.5 52.5t-13 65q0 34 13 64.5t35.5 53t52.5 35.5t65 13q34 0 64.5 -13t53 -35.5t35.5 -53t13 -64.5q0 -35 -13 -65t-35.5 -52.5t-53 -35.5t-64.5 -13z" />
    <glyph glyph-name="uni2219" unicode="&#x2219;" horiz-adv-x="512" 
d="M256 511q-35 0 -65 13t-52.5 35.5t-35.5 52.5t-13 65q0 34 13 64.5t35.5 53t52.5 35.5t65 13q34 0 64.5 -13t53 -35.5t35.5 -53t13 -64.5q0 -35 -13 -65t-35.5 -52.5t-53 -35.5t-64.5 -13z" />
    <glyph glyph-name="cedilla" unicode="&#xb8;" horiz-adv-x="682" 
d="M283 -422q-38 0 -82 8t-78 23v90q34 -9 72 -14t63 -5q51 0 71.5 25t20.5 61q0 44 -31 67.5t-100 28.5l51 195h111l-23 -110q41 -6 75 -18t58.5 -32.5t38 -49.5t13.5 -68q0 -50 -20 -87.5t-55 -62.5t-82.5 -38t-102.5 -13z" />
    <glyph glyph-name="uni00B9" unicode="&#xb9;" horiz-adv-x="614" 
d="M393 616l140 -14v-67h-457v67l139 14v577l-139 -46v66l227 134h90v-731z" />
    <glyph glyph-name="ordmasculine" unicode="&#xba;" horiz-adv-x="676" 
d="M618 1067q0 -144 -70.5 -220.5t-213.5 -76.5q-135 0 -206 75.5t-71 221.5q0 144 71 219t210 75q135 0 207.5 -74t72.5 -220zM442 1067q0 117 -27 170t-80 53t-77.5 -53t-24.5 -170q0 -118 24.5 -172.5t77.5 -54.5q54 0 80.5 54.5t26.5 172.5z" />
    <glyph glyph-name="guillemotright" unicode="&#xbb;" 
d="M918 430l-330 -356h-101l183 389l-183 389h101l330 -356v-66zM508 430l-330 -356h-100l182 389l-182 389h100l330 -356v-66z" />
    <glyph glyph-name="onequarter" unicode="&#xbc;" horiz-adv-x="1536" 
d="M386 0h-123l965 1341h120zM403 616l140 -14v-67h-457v67l139 14v577l-139 -46v66l227 134h90v-731zM1318 157v-159h-168v159h-327v98l361 552h134v-527h80v-123h-80zM1150 613h-3l-215 -333h218v333z" />
    <glyph glyph-name="onehalf" unicode="&#xbd;" horiz-adv-x="1536" 
d="M389 0h-123l965 1341h120zM396 616l140 -14v-67h-457v67l139 14v577l-139 -46v66l227 134h90v-731zM1457 2h-510v113q77 83 136 141t99 110t60.5 108t20.5 135q0 36 -8.5 62t-23.5 42t-35.5 23.5t-43.5 7.5q-53 0 -90 -31l-26 -116h-62v193q48 11 93.5 18.5t99.5 7.5
q133 0 203.5 -55t70.5 -155q0 -48 -10 -86.5t-29.5 -72t-49.5 -65.5t-70 -67.5t-90 -77t-110 -94.5h375v-141z" />
    <glyph glyph-name="threequarters" unicode="&#xbe;" horiz-adv-x="1536" 
d="M386 0h-123l965 1341h120zM622 754q0 -109 -77 -170t-220 -61q-61 0 -118 6.5t-104 17.5l-7 205h65l32 -132q19 -11 44.5 -18.5t54.5 -7.5q79 0 114 44t35 122q0 43 -11 71.5t-29.5 45t-44 24t-54.5 9.5l-64 4v83l62 4q54 4 79 37t25 105q0 74 -30 104t-81 30
q-26 0 -44.5 -8t-37.5 -20l-26 -119h-62v193q43 11 87.5 18.5t105.5 7.5q133 0 201.5 -49t68.5 -149q0 -76 -39.5 -128.5t-126.5 -66.5q104 -13 153 -62.5t49 -139.5zM1339 157v-159h-168v159h-327v98l361 552h134v-527h80v-123h-80zM1171 613h-3l-215 -333h218v333z" />
    <glyph glyph-name="questiondown" unicode="&#xbf;" 
d="M581 961q35 0 65.5 -13t52.5 -35.5t34.5 -53t12.5 -64.5q0 -35 -12.5 -65t-34.5 -52.5t-52.5 -35.5t-65.5 -13t-65 13t-52.5 35.5t-35.5 52.5t-13 65q0 34 13 64.5t35.5 53t52.5 35.5t65 13zM535 542h103l57 -313l-95 -25q-38 -10 -72 -26.5t-59.5 -46.5t-40.5 -76.5
t-15 -116.5q0 -71 12 -120t37.5 -80.5t64.5 -45.5t94 -14q48 0 84.5 12t64.5 30l43 194h89v-295q-77 -20 -154.5 -31.5t-169.5 -11.5q-225 0 -339.5 88.5t-114.5 266.5q0 67 18 128t55 111t93 87.5t131 58.5l87 24z" />
    <glyph glyph-name="Agrave" unicode="&#xc0;" horiz-adv-x="1479" 
d="M428 73v-73h-408v73l100 27l477 1252h290l475 -1252l102 -27v-73h-597v73l155 27l-128 347h-515l-123 -347zM641 1150l-221 -593h436zM815 1452l-364 268v37h285l165 -273v-32h-86z" />
    <glyph glyph-name="Aacute" unicode="&#xc1;" horiz-adv-x="1479" 
d="M428 73v-73h-408v73l100 27l477 1252h290l475 -1252l102 -27v-73h-597v73l155 27l-128 347h-515l-123 -347zM641 1150l-221 -593h436zM602 1452v33l166 272h285v-37l-365 -268h-86z" />
    <glyph glyph-name="Acircumflex" unicode="&#xc2;" horiz-adv-x="1479" 
d="M428 73v-73h-408v73l100 27l477 1252h290l475 -1252l102 -27v-73h-597v73l155 27l-128 347h-515l-123 -347zM641 1150l-221 -593h436zM416 1452v33l218 293h213l217 -293v-33h-76l-248 162l-248 -162h-76z" />
    <glyph glyph-name="Atilde" unicode="&#xc3;" horiz-adv-x="1479" 
d="M428 73v-73h-408v73l100 27l477 1252h290l475 -1252l102 -27v-73h-597v73l155 27l-128 347h-515l-123 -347zM641 1150l-221 -593h436zM854 1454q-26 0 -49.5 6.5t-45 16t-40.5 22t-37 24.5q-11 8 -25 19t-29.5 21t-31 17t-29.5 7q-19 0 -30.5 -6t-18.5 -20t-11.5 -36
t-8.5 -53h-105q4 56 15 108t35 91.5t63.5 63.5t101.5 24q53 0 95 -21.5t77 -46.5q11 -8 25.5 -18.5t30 -20.5t31 -17t28.5 -7q18 0 29.5 6t19 19.5t11.5 35t9 51.5h105q-4 -56 -15 -107.5t-35 -91.5t-64 -63.5t-101 -23.5z" />
    <glyph glyph-name="Adieresis" unicode="&#xc4;" horiz-adv-x="1479" 
d="M428 73v-73h-408v73l100 27l477 1252h290l475 -1252l102 -27v-73h-597v73l155 27l-128 347h-515l-123 -347zM641 1150l-221 -593h436zM905 1464q-25 0 -47 10t-38.5 26.5t-26 38.5t-9.5 46q0 25 9.5 46.5t26 37.5t38.5 25.5t47 9.5t47 -9.5t38 -25.5t25 -37.5t9 -46.5
q0 -24 -9 -46t-25 -38.5t-38 -26.5t-47 -10zM569 1464q-24 0 -46 10t-38.5 26.5t-26.5 38.5t-10 46q0 25 10 46.5t26.5 37.5t38.5 25.5t46 9.5q25 0 46.5 -9.5t37.5 -25.5t25.5 -37.5t9.5 -46.5q0 -24 -9 -46t-25 -38.5t-38 -26.5t-47 -10z" />
    <glyph glyph-name="Aring" unicode="&#xc5;" horiz-adv-x="1479" 
d="M428 73v-73h-408v73l100 27l477 1252h290l475 -1252l102 -27v-73h-597v73l155 27l-128 347h-515l-123 -347zM641 1150l-221 -593h436zM732 1272q-45 0 -83.5 17t-67 46t-44.5 67.5t-16 82.5t16 82.5t44.5 67t67 45t83.5 16.5t83.5 -16.5t67 -45t44.5 -67t16 -82.5
t-16 -82.5t-44.5 -67.5t-67 -46t-83.5 -17zM732 1584q-20 0 -37.5 -8t-31 -21.5t-21.5 -31.5t-8 -38t8 -37.5t21.5 -31t31 -21.5t37.5 -8t37.5 8t31 21.5t21.5 31t8 37.5t-8 38t-21.5 31.5t-31 21.5t-37.5 8z" />
    <glyph glyph-name="AE" unicode="&#xc6;" horiz-adv-x="2048" 
d="M827 1252l-143 18v71h1174v-341h-91l-32 217q-32 4 -68 7t-72 4.5t-68.5 2t-55.5 0.5h-200v-492h283l31 148h89v-412h-89l-31 152h-283v-517h245q62 0 107.5 1.5t78.5 3.5t55 5t37 6l57 248h91l-19 -374h-1139v73l172 27v347h-461l-205 -347l152 -27v-73h-428v73l122 27z
M956 557v679l-396 -679h396z" />
    <glyph glyph-name="Ccedilla" unicode="&#xc7;" horiz-adv-x="1479" 
d="M815 -20q-169 0 -301.5 46t-224.5 133t-140.5 212.5t-48.5 283.5q0 180 48.5 312t140 218.5t224 128.5t301.5 42q143 0 264.5 -20.5t218.5 -46.5l6 -322h-90l-28 194q-63 43 -142 66.5t-165 23.5q-105 0 -188 -30.5t-140.5 -100.5t-87.5 -183t-30 -279q0 -146 30 -254
t86 -179t137.5 -106.5t184.5 -35.5q113 0 197.5 30t132.5 71l32 220h91l-6 -340q-43 -17 -101.5 -32t-125 -26.5t-137.5 -18.5t-138 -7zM740 -422q-38 0 -82 8t-78 23v90q34 -9 72 -14t63 -5q51 0 71.5 25t20.5 61q0 44 -31 67.5t-100 28.5l51 195h111l-23 -110
q41 -6 75 -18t58.5 -32.5t38 -49.5t13.5 -68q0 -50 -20 -87.5t-55 -62.5t-82.5 -38t-102.5 -13z" />
    <glyph glyph-name="Egrave" unicode="&#xc8;" horiz-adv-x="1366" 
d="M35 73l172 27v1142l-172 26v73h1142v-341h-91l-32 217q-32 4 -77.5 7t-92.5 4.5t-89 2t-65 0.5h-208v-492h351l31 148h89v-412h-89l-31 152h-351v-517h253q62 0 117 1.5t99 3.5t75.5 5t46.5 6l57 248h91l-19 -374h-1207v73zM794 1452l-364 268v37h285l165 -273v-32h-86z
" />
    <glyph glyph-name="Eacute" unicode="&#xc9;" horiz-adv-x="1366" 
d="M35 73l172 27v1142l-172 26v73h1142v-341h-91l-32 217q-32 4 -77.5 7t-92.5 4.5t-89 2t-65 0.5h-208v-492h351l31 148h89v-412h-89l-31 152h-351v-517h253q62 0 117 1.5t99 3.5t75.5 5t46.5 6l57 248h91l-19 -374h-1207v73zM538 1452v33l166 272h285v-37l-365 -268h-86z
" />
    <glyph glyph-name="Ecircumflex" unicode="&#xca;" horiz-adv-x="1366" 
d="M35 73l172 27v1142l-172 26v73h1142v-341h-91l-32 217q-32 4 -77.5 7t-92.5 4.5t-89 2t-65 0.5h-208v-492h351l31 148h89v-412h-89l-31 152h-351v-517h253q62 0 117 1.5t99 3.5t75.5 5t46.5 6l57 248h91l-19 -374h-1207v73zM358 1452v33l218 293h213l217 -293v-33h-76
l-248 162l-248 -162h-76z" />
    <glyph glyph-name="Edieresis" unicode="&#xcb;" horiz-adv-x="1366" 
d="M35 73l172 27v1142l-172 26v73h1142v-341h-91l-32 217q-32 4 -77.5 7t-92.5 4.5t-89 2t-65 0.5h-208v-492h351l31 148h89v-412h-89l-31 152h-351v-517h253q62 0 117 1.5t99 3.5t75.5 5t46.5 6l57 248h91l-19 -374h-1207v73zM852 1464q-25 0 -47 10t-38.5 26.5t-26 38.5
t-9.5 46q0 25 9.5 46.5t26 37.5t38.5 25.5t47 9.5t47 -9.5t38 -25.5t25 -37.5t9 -46.5q0 -24 -9 -46t-25 -38.5t-38 -26.5t-47 -10zM516 1464q-24 0 -46 10t-38.5 26.5t-26.5 38.5t-10 46q0 25 10 46.5t26.5 37.5t38.5 25.5t46 9.5q25 0 46.5 -9.5t37.5 -25.5t25.5 -37.5
t9.5 -46.5q0 -24 -9 -46t-25 -38.5t-38 -26.5t-47 -10z" />
    <glyph glyph-name="Igrave" unicode="&#xcc;" horiz-adv-x="797" 
d="M556 100l172 -26v-74h-659v74l172 26v1141l-172 27v73h659v-73l-172 -27v-1141zM503 1452l-364 268v37h285l165 -273v-32h-86z" />
    <glyph glyph-name="Iacute" unicode="&#xcd;" horiz-adv-x="797" 
d="M556 100l172 -26v-74h-659v74l172 26v1141l-172 27v73h659v-73l-172 -27v-1141zM238 1452v33l166 272h285v-37l-365 -268h-86z" />
    <glyph glyph-name="Icircumflex" unicode="&#xce;" horiz-adv-x="797" 
d="M556 100l172 -26v-74h-659v74l172 26v1141l-172 27v73h659v-73l-172 -27v-1141zM71 1452v33l218 293h213l217 -293v-33h-76l-248 162l-248 -162h-76z" />
    <glyph glyph-name="Idieresis" unicode="&#xcf;" horiz-adv-x="797" 
d="M556 100l172 -26v-74h-659v74l172 26v1141l-172 27v73h659v-73l-172 -27v-1141zM565 1464q-25 0 -47 10t-38.5 26.5t-26 38.5t-9.5 46q0 25 9.5 46.5t26 37.5t38.5 25.5t47 9.5t47 -9.5t38 -25.5t25 -37.5t9 -46.5q0 -24 -9 -46t-25 -38.5t-38 -26.5t-47 -10zM229 1464
q-24 0 -46 10t-38.5 26.5t-26.5 38.5t-10 46q0 25 10 46.5t26.5 37.5t38.5 25.5t46 9.5q25 0 46.5 -9.5t37.5 -25.5t25.5 -37.5t9.5 -46.5q0 -24 -9 -46t-25 -38.5t-38 -26.5t-47 -10z" />
    <glyph glyph-name="Eth" unicode="&#xd0;" horiz-adv-x="1479" 
d="M695 1341q162 0 292.5 -34.5t222.5 -112.5t141.5 -204.5t49.5 -311.5q0 -164 -38 -291t-119 -214t-206.5 -132t-300.5 -45q-57 0 -120 0.5t-123 1.5t-113.5 1.5t-92.5 0.5h-208v73l150 27v509h-179v122h179v511l-172 26v73h637zM1069 670q0 157 -29.5 264.5t-86.5 173.5
t-141 94.5t-194 28.5h-74v-500h256v-122h-256v-495q24 -2 43.5 -3t39 -2.5t41 -2t50.5 -0.5q100 0 167 32.5t108 101.5t58.5 175.5t17.5 254.5z" />
    <glyph glyph-name="Ntilde" unicode="&#xd1;" horiz-adv-x="1479" 
d="M1155 1242l-180 26v73h477v-73l-172 -26v-1242h-117l-827 1078v-978l180 -27v-73h-477v73l172 27v1142l-172 26v73h459l657 -857v758zM874 1454q-26 0 -49.5 6.5t-45 16t-40.5 22t-37 24.5q-11 8 -25 19t-29.5 21t-31 17t-29.5 7q-19 0 -30.5 -6t-18.5 -20t-11.5 -36
t-8.5 -53h-105q4 56 15 108t35 91.5t63.5 63.5t101.5 24q53 0 95 -21.5t77 -46.5q11 -8 25.5 -18.5t30 -20.5t31 -17t28.5 -7q18 0 29.5 6t19 19.5t11.5 35t9 51.5h105q-4 -56 -15 -107.5t-35 -91.5t-64 -63.5t-101 -23.5z" />
    <glyph glyph-name="Ograve" unicode="&#xd2;" horiz-adv-x="1593" 
d="M432 672q0 -140 17 -250t59 -186t112.5 -116t176.5 -40t176 40t112 116t59 186t17 250q0 139 -17 248t-59 183t-112 113t-176 39t-176.5 -39t-112.5 -113t-59 -183t-17 -248zM100 672q0 178 46 307t135 213t218.5 124t297.5 40q162 0 291 -40t219 -124t138 -213t48 -307
t-48 -308.5t-138 -215.5t-219 -126.5t-291 -41.5t-291 41.5t-219.5 126.5t-138.5 215.5t-48 308.5zM855 1452l-364 268v37h285l165 -273v-32h-86z" />
    <glyph glyph-name="Oacute" unicode="&#xd3;" horiz-adv-x="1593" 
d="M432 672q0 -140 17 -250t59 -186t112.5 -116t176.5 -40t176 40t112 116t59 186t17 250q0 139 -17 248t-59 183t-112 113t-176 39t-176.5 -39t-112.5 -113t-59 -183t-17 -248zM100 672q0 178 46 307t135 213t218.5 124t297.5 40q162 0 291 -40t219 -124t138 -213t48 -307
t-48 -308.5t-138 -215.5t-219 -126.5t-291 -41.5t-291 41.5t-219.5 126.5t-138.5 215.5t-48 308.5zM695 1452v33l166 272h285v-37l-365 -268h-86z" />
    <glyph glyph-name="Ocircumflex" unicode="&#xd4;" horiz-adv-x="1593" 
d="M432 672q0 -140 17 -250t59 -186t112.5 -116t176.5 -40t176 40t112 116t59 186t17 250q0 139 -17 248t-59 183t-112 113t-176 39t-176.5 -39t-112.5 -113t-59 -183t-17 -248zM100 672q0 178 46 307t135 213t218.5 124t297.5 40q162 0 291 -40t219 -124t138 -213t48 -307
t-48 -308.5t-138 -215.5t-219 -126.5t-291 -41.5t-291 41.5t-219.5 126.5t-138.5 215.5t-48 308.5zM473 1452v33l218 293h213l217 -293v-33h-76l-248 162l-248 -162h-76z" />
    <glyph glyph-name="Otilde" unicode="&#xd5;" horiz-adv-x="1593" 
d="M432 672q0 -140 17 -250t59 -186t112.5 -116t176.5 -40t176 40t112 116t59 186t17 250q0 139 -17 248t-59 183t-112 113t-176 39t-176.5 -39t-112.5 -113t-59 -183t-17 -248zM100 672q0 178 46 307t135 213t218.5 124t297.5 40q162 0 291 -40t219 -124t138 -213t48 -307
t-48 -308.5t-138 -215.5t-219 -126.5t-291 -41.5t-291 41.5t-219.5 126.5t-138.5 215.5t-48 308.5zM918 1454q-26 0 -49.5 6.5t-45 16t-40.5 22t-37 24.5q-11 8 -25 19t-29.5 21t-31 17t-29.5 7q-19 0 -30.5 -6t-18.5 -20t-11.5 -36t-8.5 -53h-105q4 56 15 108t35 91.5
t63.5 63.5t101.5 24q53 0 95 -21.5t77 -46.5q11 -8 25.5 -18.5t30 -20.5t31 -17t28.5 -7q18 0 29.5 6t19 19.5t11.5 35t9 51.5h105q-4 -56 -15 -107.5t-35 -91.5t-64 -63.5t-101 -23.5z" />
    <glyph glyph-name="Odieresis" unicode="&#xd6;" horiz-adv-x="1593" 
d="M432 672q0 -140 17 -250t59 -186t112.5 -116t176.5 -40t176 40t112 116t59 186t17 250q0 139 -17 248t-59 183t-112 113t-176 39t-176.5 -39t-112.5 -113t-59 -183t-17 -248zM100 672q0 178 46 307t135 213t218.5 124t297.5 40q162 0 291 -40t219 -124t138 -213t48 -307
t-48 -308.5t-138 -215.5t-219 -126.5t-291 -41.5t-291 41.5t-219.5 126.5t-138.5 215.5t-48 308.5zM971 1464q-25 0 -47 10t-38.5 26.5t-26 38.5t-9.5 46q0 25 9.5 46.5t26 37.5t38.5 25.5t47 9.5t47 -9.5t38 -25.5t25 -37.5t9 -46.5q0 -24 -9 -46t-25 -38.5t-38 -26.5
t-47 -10zM635 1464q-24 0 -46 10t-38.5 26.5t-26.5 38.5t-10 46q0 25 10 46.5t26.5 37.5t38.5 25.5t46 9.5q25 0 46.5 -9.5t37.5 -25.5t25.5 -37.5t9.5 -46.5q0 -24 -9 -46t-25 -38.5t-38 -26.5t-47 -10z" />
    <glyph glyph-name="multiply" unicode="&#xd7;" horiz-adv-x="1167" 
d="M578 578l-325 -324l-101 102l324 326l-324 322l104 104l322 -324l326 324l101 -102l-324 -324l324 -326l-101 -102z" />
    <glyph glyph-name="Oslash" unicode="&#xd8;" horiz-adv-x="1593" 
d="M291 144q-93 85 -142 215.5t-49 312.5q0 178 46 307t135 213t218.5 124t297.5 40q125 0 229 -23.5t187 -71.5l108 130h145l-162 -197q92 -84 140.5 -213t48.5 -309q0 -178 -48 -308.5t-138 -215.5t-219 -126.5t-291 -41.5q-124 0 -227 23.5t-187 71.5l-107 -130h-149z
M432 672q0 -94 7 -173.5t24 -145.5l621 751q-42 74 -111.5 112.5t-175.5 38.5t-176.5 -39t-112.5 -113t-59 -183t-17 -248zM1161 672q0 91 -7 169t-24 142l-619 -752q42 -74 111.5 -112.5t174.5 -38.5q106 0 176 40t112 116t59 186t17 250z" />
    <glyph glyph-name="Ugrave" unicode="&#xd9;" horiz-adv-x="1479" 
d="M838 122q82 0 141.5 24.5t98 68t56.5 104.5t18 134v789l-180 26v73h456v-73l-152 -26v-781q0 -89 -24.5 -175t-83.5 -154t-159 -109.5t-250 -41.5q-140 0 -244 33.5t-173.5 96.5t-104 153.5t-34.5 204.5v773l-152 26v73h639v-73l-172 -26v-787q0 -76 19 -137.5t58 -105
t99.5 -67t143.5 -23.5zM849 1452l-364 268v37h285l165 -273v-32h-86z" />
    <glyph glyph-name="Uacute" unicode="&#xda;" horiz-adv-x="1479" 
d="M838 122q82 0 141.5 24.5t98 68t56.5 104.5t18 134v789l-180 26v73h456v-73l-152 -26v-781q0 -89 -24.5 -175t-83.5 -154t-159 -109.5t-250 -41.5q-140 0 -244 33.5t-173.5 96.5t-104 153.5t-34.5 204.5v773l-152 26v73h639v-73l-172 -26v-787q0 -76 19 -137.5t58 -105
t99.5 -67t143.5 -23.5zM706 1452v33l166 272h285v-37l-365 -268h-86z" />
    <glyph glyph-name="Ucircumflex" unicode="&#xdb;" horiz-adv-x="1479" 
d="M838 122q82 0 141.5 24.5t98 68t56.5 104.5t18 134v789l-180 26v73h456v-73l-152 -26v-781q0 -89 -24.5 -175t-83.5 -154t-159 -109.5t-250 -41.5q-140 0 -244 33.5t-173.5 96.5t-104 153.5t-34.5 204.5v773l-152 26v73h639v-73l-172 -26v-787q0 -76 19 -137.5t58 -105
t99.5 -67t143.5 -23.5zM478 1452v33l218 293h213l217 -293v-33h-76l-248 162l-248 -162h-76z" />
    <glyph glyph-name="Udieresis" unicode="&#xdc;" horiz-adv-x="1479" 
d="M838 122q82 0 141.5 24.5t98 68t56.5 104.5t18 134v789l-180 26v73h456v-73l-152 -26v-781q0 -89 -24.5 -175t-83.5 -154t-159 -109.5t-250 -41.5q-140 0 -244 33.5t-173.5 96.5t-104 153.5t-34.5 204.5v773l-152 26v73h639v-73l-172 -26v-787q0 -76 19 -137.5t58 -105
t99.5 -67t143.5 -23.5zM965 1464q-25 0 -47 10t-38.5 26.5t-26 38.5t-9.5 46q0 25 9.5 46.5t26 37.5t38.5 25.5t47 9.5t47 -9.5t38 -25.5t25 -37.5t9 -46.5q0 -24 -9 -46t-25 -38.5t-38 -26.5t-47 -10zM629 1464q-24 0 -46 10t-38.5 26.5t-26.5 38.5t-10 46q0 25 10 46.5
t26.5 37.5t38.5 25.5t46 9.5q25 0 46.5 -9.5t37.5 -25.5t25.5 -37.5t9.5 -46.5q0 -24 -9 -46t-25 -38.5t-38 -26.5t-47 -10z" />
    <glyph glyph-name="Yacute" unicode="&#xdd;" horiz-adv-x="1479" 
d="M911 528v-428l213 -27v-73h-742v73l213 27v422l-408 720l-151 26v73h690v-73l-180 -26l306 -562l296 562l-164 26v73h456v-73l-142 -26zM643 1452v33l166 272h285v-37l-365 -268h-86z" />
    <glyph glyph-name="Thorn" unicode="&#xde;" horiz-adv-x="1251" 
d="M530 100l172 -26v-74h-659v74l172 26v1141l-172 27v73h659v-73l-172 -27v-158h56q168 0 277.5 -30.5t174 -84t90 -125.5t25.5 -155q0 -82 -21.5 -158t-77 -134t-150.5 -93t-241 -35h-133v-168zM831 686q0 80 -14 135t-45.5 88.5t-83 48.5t-126.5 15h-32v-595h36
q76 0 126.5 19.5t81.5 58t44 96t13 134.5z" />
    <glyph glyph-name="germandbls" unicode="&#xdf;" horiz-adv-x="1139" 
d="M537 785q0 51 13.5 92.5t36.5 74.5t53.5 56.5t65.5 37.5q-6 149 -41 222t-113 73q-44 0 -71 -24t-42 -73t-20 -122t-5 -170v-952h-371v66l82 24v862q0 119 24.5 210.5t77 153.5t134.5 94t197 32q215 0 323 -115.5t114 -341.5q-46 0 -84.5 -8t-66 -25.5t-43 -44.5
t-15.5 -66q0 -47 17 -86.5t45.5 -75.5t64.5 -72.5t74 -77.5q20 -22 38.5 -47t32.5 -55.5t22 -67.5t8 -82q0 -66 -22.5 -120.5t-67 -94t-109.5 -61t-149 -21.5q-40 0 -77.5 4t-70 10t-57.5 13t-39 14v248h66l38 -142q24 -30 53.5 -43t67.5 -11q25 1 45.5 12.5t35.5 31
t23.5 45t8.5 54.5q0 51 -20 89.5t-50 73t-66 69.5t-68 78q-17 22 -33.5 47t-29.5 55.5t-21.5 68.5t-8.5 88z" />
    <glyph glyph-name="agrave" unicode="&#xe0;" 
d="M546 961q77 0 142 -13t112 -43.5t73 -80.5t26 -123v-611l94 -24v-66h-346l-22 72q-19 -13 -44.5 -29t-58.5 -30t-74 -23.5t-91 -9.5q-82 0 -137.5 21t-89.5 58.5t-49 89t-15 111.5q0 97 34 155t91.5 89.5t134 41.5t162.5 12l122 3v137q0 83 -34 126.5t-105 43.5
q-55 0 -100.5 -15.5t-87.5 -36.5l-38 -117h-66v227q46 7 87.5 13t84.5 11t90.5 8t104.5 3zM610 472l-84 -3q-44 -2 -76 -12t-53.5 -33.5t-32 -61.5t-10.5 -96q0 -85 30 -125t78 -40t82 10.5t66 24.5v336zM622 1118l-364 268v37h285l165 -273v-32h-86z" />
    <glyph glyph-name="aacute" unicode="&#xe1;" 
d="M546 961q77 0 142 -13t112 -43.5t73 -80.5t26 -123v-611l94 -24v-66h-346l-22 72q-19 -13 -44.5 -29t-58.5 -30t-74 -23.5t-91 -9.5q-82 0 -137.5 21t-89.5 58.5t-49 89t-15 111.5q0 97 34 155t91.5 89.5t134 41.5t162.5 12l122 3v137q0 83 -34 126.5t-105 43.5
q-55 0 -100.5 -15.5t-87.5 -36.5l-38 -117h-66v227q46 7 87.5 13t84.5 11t90.5 8t104.5 3zM610 472l-84 -3q-44 -2 -76 -12t-53.5 -33.5t-32 -61.5t-10.5 -96q0 -85 30 -125t78 -40t82 10.5t66 24.5v336zM363 1118v33l166 272h285v-37l-365 -268h-86z" />
    <glyph glyph-name="acircumflex" unicode="&#xe2;" 
d="M546 961q77 0 142 -13t112 -43.5t73 -80.5t26 -123v-611l94 -24v-66h-346l-22 72q-19 -13 -44.5 -29t-58.5 -30t-74 -23.5t-91 -9.5q-82 0 -137.5 21t-89.5 58.5t-49 89t-15 111.5q0 97 34 155t91.5 89.5t134 41.5t162.5 12l122 3v137q0 83 -34 126.5t-105 43.5
q-55 0 -100.5 -15.5t-87.5 -36.5l-38 -117h-66v227q46 7 87.5 13t84.5 11t90.5 8t104.5 3zM610 472l-84 -3q-44 -2 -76 -12t-53.5 -33.5t-32 -61.5t-10.5 -96q0 -85 30 -125t78 -40t82 10.5t66 24.5v336zM186 1118v33l218 293h213l217 -293v-33h-76l-248 162l-248 -162h-76z
" />
    <glyph glyph-name="atilde" unicode="&#xe3;" 
d="M546 961q77 0 142 -13t112 -43.5t73 -80.5t26 -123v-611l94 -24v-66h-346l-22 72q-19 -13 -44.5 -29t-58.5 -30t-74 -23.5t-91 -9.5q-82 0 -137.5 21t-89.5 58.5t-49 89t-15 111.5q0 97 34 155t91.5 89.5t134 41.5t162.5 12l122 3v137q0 83 -34 126.5t-105 43.5
q-55 0 -100.5 -15.5t-87.5 -36.5l-38 -117h-66v227q46 7 87.5 13t84.5 11t90.5 8t104.5 3zM610 472l-84 -3q-44 -2 -76 -12t-53.5 -33.5t-32 -61.5t-10.5 -96q0 -85 30 -125t78 -40t82 10.5t66 24.5v336zM631 1122q-26 0 -49.5 6.5t-45 16t-40.5 22t-37 24.5q-11 8 -25 19
t-29.5 21t-31 17t-29.5 7q-19 0 -30.5 -6t-18.5 -20t-11.5 -36t-8.5 -53h-105q4 56 15 108t35 91.5t63.5 63.5t101.5 24q53 0 95 -21.5t77 -46.5q11 -8 25.5 -18.5t30 -20.5t31 -17t28.5 -7q18 0 29.5 6t19 19.5t11.5 35t9 51.5h105q-4 -56 -15 -107.5t-35 -91.5t-64 -63.5
t-101 -23.5z" />
    <glyph glyph-name="adieresis" unicode="&#xe4;" 
d="M546 961q77 0 142 -13t112 -43.5t73 -80.5t26 -123v-611l94 -24v-66h-346l-22 72q-19 -13 -44.5 -29t-58.5 -30t-74 -23.5t-91 -9.5q-82 0 -137.5 21t-89.5 58.5t-49 89t-15 111.5q0 97 34 155t91.5 89.5t134 41.5t162.5 12l122 3v137q0 83 -34 126.5t-105 43.5
q-55 0 -100.5 -15.5t-87.5 -36.5l-38 -117h-66v227q46 7 87.5 13t84.5 11t90.5 8t104.5 3zM610 472l-84 -3q-44 -2 -76 -12t-53.5 -33.5t-32 -61.5t-10.5 -96q0 -85 30 -125t78 -40t82 10.5t66 24.5v336zM682 1130q-25 0 -47 10t-38.5 26.5t-26 38.5t-9.5 46q0 25 9.5 46.5
t26 37.5t38.5 25.5t47 9.5t47 -9.5t38 -25.5t25 -37.5t9 -46.5q0 -24 -9 -46t-25 -38.5t-38 -26.5t-47 -10zM346 1130q-24 0 -46 10t-38.5 26.5t-26.5 38.5t-10 46q0 25 10 46.5t26.5 37.5t38.5 25.5t46 9.5q25 0 46.5 -9.5t37.5 -25.5t25.5 -37.5t9.5 -46.5q0 -24 -9 -46
t-25 -38.5t-38 -26.5t-47 -10z" />
    <glyph glyph-name="aring" unicode="&#xe5;" 
d="M546 961q77 0 142 -13t112 -43.5t73 -80.5t26 -123v-611l94 -24v-66h-346l-22 72q-19 -13 -44.5 -29t-58.5 -30t-74 -23.5t-91 -9.5q-82 0 -137.5 21t-89.5 58.5t-49 89t-15 111.5q0 97 34 155t91.5 89.5t134 41.5t162.5 12l122 3v137q0 83 -34 126.5t-105 43.5
q-55 0 -100.5 -15.5t-87.5 -36.5l-38 -117h-66v227q46 7 87.5 13t84.5 11t90.5 8t104.5 3zM610 472l-84 -3q-44 -2 -76 -12t-53.5 -33.5t-32 -61.5t-10.5 -96q0 -85 30 -125t78 -40t82 10.5t66 24.5v336zM518 1059q-45 0 -83.5 17t-67 46t-44.5 67.5t-16 82.5t16 82.5
t44.5 67t67 45t83.5 16.5t83.5 -16.5t67 -45t44.5 -67t16 -82.5t-16 -82.5t-44.5 -67.5t-67 -46t-83.5 -17zM518 1371q-20 0 -37.5 -8t-31 -21.5t-21.5 -31.5t-8 -38t8 -37.5t21.5 -31t31 -21.5t37.5 -8t37.5 8t31 21.5t21.5 31t8 37.5t-8 38t-21.5 31.5t-31 21.5t-37.5 8z
" />
    <glyph glyph-name="ae" unicode="&#xe6;" horiz-adv-x="1479" 
d="M988 965q84 0 159 -20.5t131.5 -69t89.5 -129.5t33 -202v-82h-523v-53q1 -56 10 -110.5t37.5 -97.5t81.5 -69.5t142 -26.5q25 0 53 2.5t56 6.5t54 9t48 11v-77q-21 -14 -52.5 -28t-69.5 -24.5t-81 -17t-87 -6.5q-136 0 -221.5 31.5t-138.5 92.5q-29 -23 -64.5 -45.5
t-80 -40t-97 -28.5t-113.5 -11q-83 0 -138.5 21t-89 58.5t-47.5 89t-14 111.5q0 65 17 112t47.5 79.5t72 52.5t90 31.5t102 16t108.5 6.5l99 3v135q0 38 -6.5 69.5t-22.5 54.5t-43 35.5t-67 12.5q-47 0 -94.5 -14.5t-85.5 -36.5l-39 -118h-65v226q34 7 74.5 13.5t84 11.5
t88.5 8t88 3q75 0 133.5 -16t98.5 -54q45 36 105 55t137 19zM466 101q56 0 103 18.5t92 44.5q-8 10 -18.5 31.5t-19.5 54t-15 75t-6 95.5v52l-74 -3q-40 -2 -72.5 -10.5t-55 -30.5t-34.5 -61t-12 -101q0 -85 32 -125t80 -40zM1004 862q-38 0 -62.5 -21t-38.5 -59t-19 -93
t-5 -122h228q0 79 -5 135.5t-17 91.5t-32 51.5t-49 16.5z" />
    <glyph glyph-name="ccedilla" unicode="&#xe7;" horiz-adv-x="909" 
d="M858 57q-24 -19 -56.5 -33t-71 -23.5t-79.5 -14.5t-81 -5q-134 0 -229 33.5t-155 96.5t-88 154t-28 207q0 129 37 222.5t100.5 153.5t147.5 88.5t177 28.5q86 0 162.5 -10.5t142.5 -24.5v-278h-72l-42 165q-16 12 -31.5 20.5t-33.5 14t-39.5 8t-49.5 2.5q-39 0 -76 -22.5
t-66.5 -69t-47.5 -119.5t-18 -173q0 -84 11.5 -153t40.5 -118t80 -75.5t129 -26.5q65 0 128.5 8t107.5 21v-77zM440 -422q-38 0 -82 8t-78 23v90q34 -9 72 -14t63 -5q51 0 71.5 25t20.5 61q0 44 -31 67.5t-100 28.5l51 195h111l-23 -110q41 -6 75 -18t58.5 -32.5t38 -49.5
t13.5 -68q0 -50 -20 -87.5t-55 -62.5t-82.5 -38t-102.5 -13z" />
    <glyph glyph-name="egrave" unicode="&#xe8;" horiz-adv-x="909" 
d="M494 963q83 0 150 -20t114 -68.5t72.5 -129t25.5 -201.5v-82h-493v-16q0 -67 5.5 -128.5t30 -109t75 -75.5t139.5 -28q59 0 115 9t107 20v-77q-23 -14 -58 -28t-76.5 -24.5t-87.5 -17t-91 -6.5q-121 0 -207 32t-140.5 95t-79.5 155t-25 212q0 246 105.5 367t318.5 121z
M483 862q-36 0 -59 -21t-36.5 -59t-18.5 -93t-5 -122h218q0 67 -2.5 122t-12 93t-29.5 59t-55 21zM571 1118l-364 268v37h285l165 -273v-32h-86z" />
    <glyph glyph-name="eacute" unicode="&#xe9;" horiz-adv-x="909" 
d="M494 963q83 0 150 -20t114 -68.5t72.5 -129t25.5 -201.5v-82h-493v-16q0 -67 5.5 -128.5t30 -109t75 -75.5t139.5 -28q59 0 115 9t107 20v-77q-23 -14 -58 -28t-76.5 -24.5t-87.5 -17t-91 -6.5q-121 0 -207 32t-140.5 95t-79.5 155t-25 212q0 246 105.5 367t318.5 121z
M483 862q-36 0 -59 -21t-36.5 -59t-18.5 -93t-5 -122h218q0 67 -2.5 122t-12 93t-29.5 59t-55 21zM358 1118v33l166 272h285v-37l-365 -268h-86z" />
    <glyph glyph-name="ecircumflex" unicode="&#xea;" horiz-adv-x="909" 
d="M494 963q83 0 150 -20t114 -68.5t72.5 -129t25.5 -201.5v-82h-493v-16q0 -67 5.5 -128.5t30 -109t75 -75.5t139.5 -28q59 0 115 9t107 20v-77q-23 -14 -58 -28t-76.5 -24.5t-87.5 -17t-91 -6.5q-121 0 -207 32t-140.5 95t-79.5 155t-25 212q0 246 105.5 367t318.5 121z
M483 862q-36 0 -59 -21t-36.5 -59t-18.5 -93t-5 -122h218q0 67 -2.5 122t-12 93t-29.5 59t-55 21zM154 1118v33l218 293h213l217 -293v-33h-76l-248 162l-248 -162h-76z" />
    <glyph glyph-name="edieresis" unicode="&#xeb;" horiz-adv-x="909" 
d="M494 963q83 0 150 -20t114 -68.5t72.5 -129t25.5 -201.5v-82h-493v-16q0 -67 5.5 -128.5t30 -109t75 -75.5t139.5 -28q59 0 115 9t107 20v-77q-23 -14 -58 -28t-76.5 -24.5t-87.5 -17t-91 -6.5q-121 0 -207 32t-140.5 95t-79.5 155t-25 212q0 246 105.5 367t318.5 121z
M483 862q-36 0 -59 -21t-36.5 -59t-18.5 -93t-5 -122h218q0 67 -2.5 122t-12 93t-29.5 59t-55 21zM642 1130q-25 0 -47 10t-38.5 26.5t-26 38.5t-9.5 46q0 25 9.5 46.5t26 37.5t38.5 25.5t47 9.5t47 -9.5t38 -25.5t25 -37.5t9 -46.5q0 -24 -9 -46t-25 -38.5t-38 -26.5
t-47 -10zM306 1130q-24 0 -46 10t-38.5 26.5t-26.5 38.5t-10 46q0 25 10 46.5t26.5 37.5t38.5 25.5t46 9.5q25 0 46.5 -9.5t37.5 -25.5t25.5 -37.5t9.5 -46.5q0 -24 -9 -46t-25 -38.5t-38 -26.5t-47 -10z" />
    <glyph glyph-name="igrave" unicode="&#xec;" horiz-adv-x="569" 
d="M436 90l103 -24v-66h-494v66l102 24v760l-96 24v66h385v-850zM352 1118l-364 268v37h285l165 -273v-32h-86z" />
    <glyph glyph-name="iacute" unicode="&#xed;" horiz-adv-x="569" 
d="M436 90l103 -24v-66h-494v66l102 24v760l-96 24v66h385v-850zM143 1118v33l166 272h285v-37l-365 -268h-86z" />
    <glyph glyph-name="icircumflex" unicode="&#xee;" horiz-adv-x="569" 
d="M436 90l103 -24v-66h-494v66l102 24v760l-96 24v66h385v-850zM-36 1118v33l218 293h213l217 -293v-33h-76l-248 162l-248 -162h-76z" />
    <glyph glyph-name="idieresis" unicode="&#xef;" horiz-adv-x="569" 
d="M436 90l103 -24v-66h-494v66l102 24v760l-96 24v66h385v-850zM460 1130q-25 0 -47 10t-38.5 26.5t-26 38.5t-9.5 46q0 25 9.5 46.5t26 37.5t38.5 25.5t47 9.5t47 -9.5t38 -25.5t25 -37.5t9 -46.5q0 -24 -9 -46t-25 -38.5t-38 -26.5t-47 -10zM124 1130q-24 0 -46 10
t-38.5 26.5t-26.5 38.5t-10 46q0 25 10 46.5t26.5 37.5t38.5 25.5t46 9.5q25 0 46.5 -9.5t37.5 -25.5t25.5 -37.5t9.5 -46.5q0 -24 -9 -46t-25 -38.5t-38 -26.5t-47 -10z" />
    <glyph glyph-name="eth" unicode="&#xf0;" 
d="M229 1117l173 100q-39 29 -84.5 54t-99.5 42v108q88 -20 166 -51.5t150 -75.5l285 165v-124l-191 -111q71 -59 129 -134t99.5 -167.5t64.5 -203t25 -240.5v-35q0 -224 -107 -344t-333 -120q-212 0 -320 119t-108 345q0 223 108 341t328 118q29 0 54.5 -1.5t48.5 -6.5
q-14 59 -46 122.5t-87 121.5l-255 -148v126zM653 445q0 85 -7.5 152t-24.5 113t-44.5 70t-68.5 24t-67.5 -24t-42 -70t-21.5 -113t-6 -152q0 -86 6 -153.5t21.5 -114.5t42 -72t67.5 -25t68.5 25t44.5 72t24.5 114.5t7.5 153.5z" />
    <glyph glyph-name="ntilde" unicode="&#xf1;" horiz-adv-x="1139" 
d="M434 858q31 16 68 35t78 35t85 26.5t89 10.5q57 0 105 -15t82.5 -48t53.5 -86t19 -128v-598l94 -24v-66h-467v66l84 24v559q0 84 -35.5 131t-101.5 47q-76 0 -152 -34v-703l86 -24v-66h-467v66l92 24v760l-92 24v66h365zM707 1122q-26 0 -49.5 6.5t-45 16t-40.5 22
t-37 24.5q-11 8 -25 19t-29.5 21t-31 17t-29.5 7q-19 0 -30.5 -6t-18.5 -20t-11.5 -36t-8.5 -53h-105q4 56 15 108t35 91.5t63.5 63.5t101.5 24q53 0 95 -21.5t77 -46.5q11 -8 25.5 -18.5t30 -20.5t31 -17t28.5 -7q18 0 29.5 6t19 19.5t11.5 35t9 51.5h105
q-4 -56 -15 -107.5t-35 -91.5t-64 -63.5t-101 -23.5z" />
    <glyph glyph-name="ograve" unicode="&#xf2;" 
d="M946 475q0 -120 -24.5 -212t-77.5 -155t-136.5 -95.5t-201.5 -32.5q-111 0 -192 32t-133.5 95t-77.5 155.5t-25 212.5q0 119 25 210.5t78 153.5t135.5 94t197.5 32q223 0 327.5 -124.5t104.5 -365.5zM653 475q0 97 -6 170t-22 122t-44 73t-73 24q-44 0 -71 -24t-41.5 -73
t-19.5 -122t-5 -170q0 -98 5 -171.5t19.5 -123.5t41.5 -75t71 -25q45 0 73 25t44 75t22 123.5t6 171.5zM591 1118l-364 268v37h285l165 -273v-32h-86z" />
    <glyph glyph-name="oacute" unicode="&#xf3;" 
d="M946 475q0 -120 -24.5 -212t-77.5 -155t-136.5 -95.5t-201.5 -32.5q-111 0 -192 32t-133.5 95t-77.5 155.5t-25 212.5q0 119 25 210.5t78 153.5t135.5 94t197.5 32q223 0 327.5 -124.5t104.5 -365.5zM653 475q0 97 -6 170t-22 122t-44 73t-73 24q-44 0 -71 -24t-41.5 -73
t-19.5 -122t-5 -170q0 -98 5 -171.5t19.5 -123.5t41.5 -75t71 -25q45 0 73 25t44 75t22 123.5t6 171.5zM375 1118v33l166 272h285v-37l-365 -268h-86z" />
    <glyph glyph-name="ocircumflex" unicode="&#xf4;" 
d="M946 475q0 -120 -24.5 -212t-77.5 -155t-136.5 -95.5t-201.5 -32.5q-111 0 -192 32t-133.5 95t-77.5 155.5t-25 212.5q0 119 25 210.5t78 153.5t135.5 94t197.5 32q223 0 327.5 -124.5t104.5 -365.5zM653 475q0 97 -6 170t-22 122t-44 73t-73 24q-44 0 -71 -24t-41.5 -73
t-19.5 -122t-5 -170q0 -98 5 -171.5t19.5 -123.5t41.5 -75t71 -25q45 0 73 25t44 75t22 123.5t6 171.5zM186 1118v33l218 293h213l217 -293v-33h-76l-248 162l-248 -162h-76z" />
    <glyph glyph-name="otilde" unicode="&#xf5;" 
d="M946 475q0 -120 -24.5 -212t-77.5 -155t-136.5 -95.5t-201.5 -32.5q-111 0 -192 32t-133.5 95t-77.5 155.5t-25 212.5q0 119 25 210.5t78 153.5t135.5 94t197.5 32q223 0 327.5 -124.5t104.5 -365.5zM653 475q0 97 -6 170t-22 122t-44 73t-73 24q-44 0 -71 -24t-41.5 -73
t-19.5 -122t-5 -170q0 -98 5 -171.5t19.5 -123.5t41.5 -75t71 -25q45 0 73 25t44 75t22 123.5t6 171.5zM629 1122q-26 0 -49.5 6.5t-45 16t-40.5 22t-37 24.5q-11 8 -25 19t-29.5 21t-31 17t-29.5 7q-19 0 -30.5 -6t-18.5 -20t-11.5 -36t-8.5 -53h-105q4 56 15 108t35 91.5
t63.5 63.5t101.5 24q53 0 95 -21.5t77 -46.5q11 -8 25.5 -18.5t30 -20.5t31 -17t28.5 -7q18 0 29.5 6t19 19.5t11.5 35t9 51.5h105q-4 -56 -15 -107.5t-35 -91.5t-64 -63.5t-101 -23.5z" />
    <glyph glyph-name="odieresis" unicode="&#xf6;" 
d="M946 475q0 -120 -24.5 -212t-77.5 -155t-136.5 -95.5t-201.5 -32.5q-111 0 -192 32t-133.5 95t-77.5 155.5t-25 212.5q0 119 25 210.5t78 153.5t135.5 94t197.5 32q223 0 327.5 -124.5t104.5 -365.5zM653 475q0 97 -6 170t-22 122t-44 73t-73 24q-44 0 -71 -24t-41.5 -73
t-19.5 -122t-5 -170q0 -98 5 -171.5t19.5 -123.5t41.5 -75t71 -25q45 0 73 25t44 75t22 123.5t6 171.5zM680 1130q-25 0 -47 10t-38.5 26.5t-26 38.5t-9.5 46q0 25 9.5 46.5t26 37.5t38.5 25.5t47 9.5t47 -9.5t38 -25.5t25 -37.5t9 -46.5q0 -24 -9 -46t-25 -38.5t-38 -26.5
t-47 -10zM344 1130q-24 0 -46 10t-38.5 26.5t-26.5 38.5t-10 46q0 25 10 46.5t26.5 37.5t38.5 25.5t46 9.5q25 0 46.5 -9.5t37.5 -25.5t25.5 -37.5t9.5 -46.5q0 -24 -9 -46t-25 -38.5t-38 -26.5t-47 -10z" />
    <glyph glyph-name="divide" unicode="&#xf7;" horiz-adv-x="1124" 
d="M1038 751v-143h-952v143h952zM561 183q-28 0 -52.5 10.5t-42.5 28.5t-28.5 42.5t-10.5 52.5t10.5 52.5t28.5 42.5t42.5 28.5t52.5 10.5t52.5 -10.5t42.5 -28.5t28.5 -42.5t10.5 -52.5t-10.5 -52.5t-28.5 -42.5t-42.5 -28.5t-52.5 -10.5zM561 909q-28 0 -52.5 10.5
t-42.5 28.5t-28.5 42.5t-10.5 52.5t10.5 52.5t28.5 42.5t42.5 28.5t52.5 10.5t52.5 -10.5t42.5 -28.5t28.5 -42.5t10.5 -52.5t-10.5 -52.5t-28.5 -42.5t-42.5 -28.5t-52.5 -10.5z" />
    <glyph glyph-name="oslash" unicode="&#xf8;" 
d="M192 94q-59 63 -86.5 158t-27.5 223q0 119 25 210.5t78 153.5t135.5 94t197.5 32q144 0 239 -53l75 110h124l-118 -173q57 -62 84.5 -155.5t27.5 -218.5q0 -120 -24.5 -212t-77.5 -155t-136.5 -95.5t-201.5 -32.5q-137 0 -231 50l-77 -114h-128zM371 475v-61t2 -56
l260 380q-15 63 -44.5 94.5t-80.5 31.5q-44 0 -71 -24t-41.5 -73t-19.5 -122t-5 -170zM653 475q0 29 -0.5 55t-1.5 51l-261 -382q14 -60 42 -89.5t76 -29.5q45 0 73 25t44 75t22 123.5t6 171.5z" />
    <glyph glyph-name="ugrave" unicode="&#xf9;" horiz-adv-x="1139" 
d="M705 82q-31 -16 -68 -35t-78 -35t-85 -26.5t-89 -10.5q-57 0 -105 15t-82.5 48t-53.5 86t-19 128v598l-94 24v66h383v-649q0 -84 35.5 -131t101.5 -47q76 0 152 34v703l-86 24v66h375v-850l92 -24v-66h-365zM631 1118l-364 268v37h285l165 -273v-32h-86z" />
    <glyph glyph-name="uacute" unicode="&#xfa;" horiz-adv-x="1139" 
d="M705 82q-31 -16 -68 -35t-78 -35t-85 -26.5t-89 -10.5q-57 0 -105 15t-82.5 48t-53.5 86t-19 128v598l-94 24v66h383v-649q0 -84 35.5 -131t101.5 -47q76 0 152 34v703l-86 24v66h375v-850l92 -24v-66h-365zM416 1118v33l166 272h285v-37l-365 -268h-86z" />
    <glyph glyph-name="ucircumflex" unicode="&#xfb;" horiz-adv-x="1139" 
d="M705 82q-31 -16 -68 -35t-78 -35t-85 -26.5t-89 -10.5q-57 0 -105 15t-82.5 48t-53.5 86t-19 128v598l-94 24v66h383v-649q0 -84 35.5 -131t101.5 -47q76 0 152 34v703l-86 24v66h375v-850l92 -24v-66h-365zM239 1118v33l218 293h213l217 -293v-33h-76l-248 162
l-248 -162h-76z" />
    <glyph glyph-name="udieresis" unicode="&#xfc;" horiz-adv-x="1139" 
d="M705 82q-31 -16 -68 -35t-78 -35t-85 -26.5t-89 -10.5q-57 0 -105 15t-82.5 48t-53.5 86t-19 128v598l-94 24v66h383v-649q0 -84 35.5 -131t101.5 -47q76 0 152 34v703l-86 24v66h375v-850l92 -24v-66h-365zM735 1130q-25 0 -47 10t-38.5 26.5t-26 38.5t-9.5 46
q0 25 9.5 46.5t26 37.5t38.5 25.5t47 9.5t47 -9.5t38 -25.5t25 -37.5t9 -46.5q0 -24 -9 -46t-25 -38.5t-38 -26.5t-47 -10zM399 1130q-24 0 -46 10t-38.5 26.5t-26.5 38.5t-10 46q0 25 10 46.5t26.5 37.5t38.5 25.5t46 9.5q25 0 46.5 -9.5t37.5 -25.5t25.5 -37.5t9.5 -46.5
q0 -24 -9 -46t-25 -38.5t-38 -26.5t-47 -10z" />
    <glyph glyph-name="yacute" unicode="&#xfd;" 
d="M462 -29l-376 879l-66 24v66h481v-66l-112 -26l221 -520l197 522l-110 24v66h307v-66l-68 -20l-371 -913q-32 -82 -65 -152t-73.5 -121.5t-92.5 -80.5t-121 -29q-28 0 -48.5 1t-39 3.5t-37 6t-40.5 8.5v242h60l43 -126q14 -11 31.5 -17t42.5 -6q41 0 71.5 21t55.5 56.5
t46.5 83t45.5 100.5zM412 1118v33l166 272h285v-37l-365 -268h-86z" />
    <glyph glyph-name="thorn" unicode="&#xfe;" horiz-adv-x="1139" 
d="M129 1333l-115 23v65h404v-345q0 -36 -2 -86.5t-7 -97.5q22 15 47 28.5t54.5 23t65.5 15.5t82 6q208 0 312.5 -119.5t104.5 -367.5q0 -114 -26 -206t-79 -157t-134.5 -100t-192.5 -35q-54 0 -114.5 6.5t-116.5 20.5q1 -11 2.5 -30t2 -40.5t1 -42t0.5 -35.5v-205l138 -24
v-66h-529v66l102 24v1679zM782 470q0 109 -16 183t-42.5 118.5t-60 63.5t-68.5 19q-57 0 -98 -12t-79 -31v-708q81 -21 169 -21q90 0 142.5 98.5t52.5 289.5z" />
    <glyph glyph-name="ydieresis" unicode="&#xff;" 
d="M462 -29l-376 879l-66 24v66h481v-66l-112 -26l221 -520l197 522l-110 24v66h307v-66l-68 -20l-371 -913q-32 -82 -65 -152t-73.5 -121.5t-92.5 -80.5t-121 -29q-28 0 -48.5 1t-39 3.5t-37 6t-40.5 8.5v242h60l43 -126q14 -11 31.5 -17t42.5 -6q41 0 71.5 21t55.5 56.5
t46.5 83t45.5 100.5zM707 1130q-25 0 -47 10t-38.5 26.5t-26 38.5t-9.5 46q0 25 9.5 46.5t26 37.5t38.5 25.5t47 9.5t47 -9.5t38 -25.5t25 -37.5t9 -46.5q0 -24 -9 -46t-25 -38.5t-38 -26.5t-47 -10zM371 1130q-24 0 -46 10t-38.5 26.5t-26.5 38.5t-10 46q0 25 10 46.5
t26.5 37.5t38.5 25.5t46 9.5q25 0 46.5 -9.5t37.5 -25.5t25.5 -37.5t9.5 -46.5q0 -24 -9 -46t-25 -38.5t-38 -26.5t-47 -10z" />
    <glyph glyph-name="Amacron" unicode="&#x100;" horiz-adv-x="1479" 
d="M428 73v-73h-408v73l100 27l477 1252h290l475 -1252l102 -27v-73h-597v73l155 27l-128 347h-515l-123 -347zM641 1150l-221 -593h436zM425 1455v150h628v-150h-628z" />
    <glyph glyph-name="amacron" unicode="&#x101;" 
d="M546 961q77 0 142 -13t112 -43.5t73 -80.5t26 -123v-611l94 -24v-66h-346l-22 72q-19 -13 -44.5 -29t-58.5 -30t-74 -23.5t-91 -9.5q-82 0 -137.5 21t-89.5 58.5t-49 89t-15 111.5q0 97 34 155t91.5 89.5t134 41.5t162.5 12l122 3v137q0 83 -34 126.5t-105 43.5
q-55 0 -100.5 -15.5t-87.5 -36.5l-38 -117h-66v227q46 7 87.5 13t84.5 11t90.5 8t104.5 3zM610 472l-84 -3q-44 -2 -76 -12t-53.5 -33.5t-32 -61.5t-10.5 -96q0 -85 30 -125t78 -40t82 10.5t66 24.5v336zM198 1121v150h628v-150h-628z" />
    <glyph glyph-name="Abreve" unicode="&#x102;" horiz-adv-x="1479" 
d="M428 73v-73h-408v73l100 27l477 1252h290l475 -1252l102 -27v-73h-597v73l155 27l-128 347h-515l-123 -347zM641 1150l-221 -593h436zM739 1454q-77 0 -133 24.5t-93 67.5t-55.5 102t-19.5 129h101q17 -83 68 -117t132 -34q40 0 72.5 7.5t57 25t42 46.5t28.5 72h101
q-2 -70 -20 -129t-55 -102t-93 -67.5t-133 -24.5z" />
    <glyph glyph-name="abreve" unicode="&#x103;" 
d="M546 961q77 0 142 -13t112 -43.5t73 -80.5t26 -123v-611l94 -24v-66h-346l-22 72q-19 -13 -44.5 -29t-58.5 -30t-74 -23.5t-91 -9.5q-82 0 -137.5 21t-89.5 58.5t-49 89t-15 111.5q0 97 34 155t91.5 89.5t134 41.5t162.5 12l122 3v137q0 83 -34 126.5t-105 43.5
q-55 0 -100.5 -15.5t-87.5 -36.5l-38 -117h-66v227q46 7 87.5 13t84.5 11t90.5 8t104.5 3zM610 472l-84 -3q-44 -2 -76 -12t-53.5 -33.5t-32 -61.5t-10.5 -96q0 -85 30 -125t78 -40t82 10.5t66 24.5v336zM512 1120q-77 0 -133 24.5t-93 67.5t-55.5 102t-19.5 129h101
q17 -83 68 -117t132 -34q40 0 72.5 7.5t57 25t42 46.5t28.5 72h101q-2 -70 -20 -129t-55 -102t-93 -67.5t-133 -24.5z" />
    <glyph glyph-name="Aogonek" unicode="&#x104;" horiz-adv-x="1479" 
d="M428 73v-73h-408v73l100 27l477 1252h290l475 -1252l102 -27v-73h-597v73l155 27l-128 347h-515l-123 -347zM641 1150l-221 -593h436zM1139 -430q-62 0 -106.5 16.5t-73 45.5t-42 68.5t-13.5 84.5q0 38 11 73t29.5 64t42.5 52.5t50 39.5h127q-32 -46 -53 -101t-21 -112
q0 -58 29 -89.5t83 -31.5q38 0 70.5 8t67.5 21v-85q-42 -25 -92 -39.5t-109 -14.5z" />
    <glyph glyph-name="aogonek" unicode="&#x105;" 
d="M546 961q77 0 142 -13t112 -43.5t73 -80.5t26 -123v-611l94 -24v-66h-346l-22 72q-19 -13 -44.5 -29t-58.5 -30t-74 -23.5t-91 -9.5q-82 0 -137.5 21t-89.5 58.5t-49 89t-15 111.5q0 97 34 155t91.5 89.5t134 41.5t162.5 12l122 3v137q0 83 -34 126.5t-105 43.5
q-55 0 -100.5 -15.5t-87.5 -36.5l-38 -117h-66v227q46 7 87.5 13t84.5 11t90.5 8t104.5 3zM610 472l-84 -3q-44 -2 -76 -12t-53.5 -33.5t-32 -61.5t-10.5 -96q0 -85 30 -125t78 -40t82 10.5t66 24.5v336zM769 -430q-62 0 -106.5 16.5t-73 45.5t-42 68.5t-13.5 84.5
q0 38 11 73t29.5 64t42.5 52.5t50 39.5h127q-32 -46 -53 -101t-21 -112q0 -58 29 -89.5t83 -31.5q38 0 70.5 8t67.5 21v-85q-42 -25 -92 -39.5t-109 -14.5z" />
    <glyph glyph-name="Cacute" unicode="&#x106;" horiz-adv-x="1479" 
d="M815 -20q-169 0 -301.5 46t-224.5 133t-140.5 212.5t-48.5 283.5q0 180 48.5 312t140 218.5t224 128.5t301.5 42q143 0 264.5 -20.5t218.5 -46.5l6 -322h-90l-28 194q-63 43 -142 66.5t-165 23.5q-105 0 -188 -30.5t-140.5 -100.5t-87.5 -183t-30 -279q0 -146 30 -254
t86 -179t137.5 -106.5t184.5 -35.5q113 0 197.5 30t132.5 71l32 220h91l-6 -340q-43 -17 -101.5 -32t-125 -26.5t-137.5 -18.5t-138 -7zM676 1452v33l166 272h285v-37l-365 -268h-86z" />
    <glyph glyph-name="cacute" unicode="&#x107;" horiz-adv-x="909" 
d="M858 57q-24 -19 -56.5 -33t-71 -23.5t-79.5 -14.5t-81 -5q-134 0 -229 33.5t-155 96.5t-88 154t-28 207q0 129 37 222.5t100.5 153.5t147.5 88.5t177 28.5q86 0 162.5 -10.5t142.5 -24.5v-278h-72l-42 165q-16 12 -31.5 20.5t-33.5 14t-39.5 8t-49.5 2.5q-39 0 -76 -22.5
t-66.5 -69t-47.5 -119.5t-18 -173q0 -84 11.5 -153t40.5 -118t80 -75.5t129 -26.5q65 0 128.5 8t107.5 21v-77zM380 1118v33l166 272h285v-37l-365 -268h-86z" />
    <glyph glyph-name="Ccircumflex" unicode="&#x108;" horiz-adv-x="1479" 
d="M815 -20q-169 0 -301.5 46t-224.5 133t-140.5 212.5t-48.5 283.5q0 180 48.5 312t140 218.5t224 128.5t301.5 42q143 0 264.5 -20.5t218.5 -46.5l6 -322h-90l-28 194q-63 43 -142 66.5t-165 23.5q-105 0 -188 -30.5t-140.5 -100.5t-87.5 -183t-30 -279q0 -146 30 -254
t86 -179t137.5 -106.5t184.5 -35.5q113 0 197.5 30t132.5 71l32 220h91l-6 -340q-43 -17 -101.5 -32t-125 -26.5t-137.5 -18.5t-138 -7zM492 1519v33l218 293h213l217 -293v-33h-76l-248 162l-248 -162h-76z" />
    <glyph glyph-name="ccircumflex" unicode="&#x109;" horiz-adv-x="909" 
d="M858 57q-24 -19 -56.5 -33t-71 -23.5t-79.5 -14.5t-81 -5q-134 0 -229 33.5t-155 96.5t-88 154t-28 207q0 129 37 222.5t100.5 153.5t147.5 88.5t177 28.5q86 0 162.5 -10.5t142.5 -24.5v-278h-72l-42 165q-16 12 -31.5 20.5t-33.5 14t-39.5 8t-49.5 2.5q-39 0 -76 -22.5
t-66.5 -69t-47.5 -119.5t-18 -173q0 -84 11.5 -153t40.5 -118t80 -75.5t129 -26.5q65 0 128.5 8t107.5 21v-77zM197 1118v33l218 293h213l217 -293v-33h-76l-248 162l-248 -162h-76z" />
    <glyph glyph-name="Cdotaccent" unicode="&#x10a;" horiz-adv-x="1479" 
d="M815 -20q-169 0 -301.5 46t-224.5 133t-140.5 212.5t-48.5 283.5q0 180 48.5 312t140 218.5t224 128.5t301.5 42q143 0 264.5 -20.5t218.5 -46.5l6 -322h-90l-28 194q-63 43 -142 66.5t-165 23.5q-105 0 -188 -30.5t-140.5 -100.5t-87.5 -183t-30 -279q0 -146 30 -254
t86 -179t137.5 -106.5t184.5 -35.5q113 0 197.5 30t132.5 71l32 220h91l-6 -340q-43 -17 -101.5 -32t-125 -26.5t-137.5 -18.5t-138 -7zM689 1602q0 32 12 60t33 48.5t49 32.5t60 12t60 -12t48.5 -32.5t32.5 -48.5t12 -60t-12 -60t-32.5 -49t-48.5 -33t-60 -12t-60 12
t-49 33t-33 49t-12 60z" />
    <glyph glyph-name="cdotaccent" unicode="&#x10b;" horiz-adv-x="909" 
d="M858 57q-24 -19 -56.5 -33t-71 -23.5t-79.5 -14.5t-81 -5q-134 0 -229 33.5t-155 96.5t-88 154t-28 207q0 129 37 222.5t100.5 153.5t147.5 88.5t177 28.5q86 0 162.5 -10.5t142.5 -24.5v-278h-72l-42 165q-16 12 -31.5 20.5t-33.5 14t-39.5 8t-49.5 2.5q-39 0 -76 -22.5
t-66.5 -69t-47.5 -119.5t-18 -173q0 -84 11.5 -153t40.5 -118t80 -75.5t129 -26.5q65 0 128.5 8t107.5 21v-77zM364 1268q0 32 12 60t33 48.5t49 32.5t60 12t60 -12t48.5 -32.5t32.5 -48.5t12 -60t-12 -60t-32.5 -49t-48.5 -33t-60 -12t-60 12t-49 33t-33 49t-12 60z" />
    <glyph glyph-name="Ccaron" unicode="&#x10c;" horiz-adv-x="1479" 
d="M815 -20q-169 0 -301.5 46t-224.5 133t-140.5 212.5t-48.5 283.5q0 180 48.5 312t140 218.5t224 128.5t301.5 42q143 0 264.5 -20.5t218.5 -46.5l6 -322h-90l-28 194q-63 43 -142 66.5t-165 23.5q-105 0 -188 -30.5t-140.5 -100.5t-87.5 -183t-30 -279q0 -146 30 -254
t86 -179t137.5 -106.5t184.5 -35.5q113 0 197.5 30t132.5 71l32 220h91l-6 -340q-43 -17 -101.5 -32t-125 -26.5t-137.5 -18.5t-138 -7zM1166 1778v-33l-218 -293h-213l-217 293v33h76l248 -162l248 162h76z" />
    <glyph glyph-name="ccaron" unicode="&#x10d;" horiz-adv-x="909" 
d="M858 57q-24 -19 -56.5 -33t-71 -23.5t-79.5 -14.5t-81 -5q-134 0 -229 33.5t-155 96.5t-88 154t-28 207q0 129 37 222.5t100.5 153.5t147.5 88.5t177 28.5q86 0 162.5 -10.5t142.5 -24.5v-278h-72l-42 165q-16 12 -31.5 20.5t-33.5 14t-39.5 8t-49.5 2.5q-39 0 -76 -22.5
t-66.5 -69t-47.5 -119.5t-18 -173q0 -84 11.5 -153t40.5 -118t80 -75.5t129 -26.5q65 0 128.5 8t107.5 21v-77zM856 1444v-33l-218 -293h-213l-217 293v33h76l248 -162l248 162h76z" />
    <glyph glyph-name="Dcaron" unicode="&#x10e;" horiz-adv-x="1479" 
d="M1047 670q0 157 -29.5 264.5t-86.5 173.5t-141 94.5t-194 28.5h-74v-1117q24 -2 43.5 -3t39 -2.5t41 -2t50.5 -0.5q100 0 167 32.5t108 101.5t58.5 175.5t17.5 254.5zM673 1341q162 0 292.5 -34.5t222.5 -112.5t141.5 -204.5t49.5 -311.5q0 -164 -38 -291t-119 -214
t-206.5 -132t-300.5 -45q-57 0 -120 0.5t-123 1.5t-113.5 1.5t-92.5 0.5h-230v73l172 27v1142l-172 26v73h637zM1016 1778v-33l-218 -293h-213l-217 293v33h76l248 -162l248 162h76z" />
    <glyph glyph-name="dcaron" unicode="&#x10f;" horiz-adv-x="1502" 
d="M733 53q-23 -15 -45.5 -28.5t-50 -23t-62 -15.5t-80.5 -6q-208 0 -310 119.5t-102 367.5q0 114 25 206t77.5 157t133 100t191.5 35q109 0 220 -27q-2 11 -3 31t-1.5 42.5t-1 44.5t-0.5 37v238l-96 24v66h385v-1331l103 -24v-66h-362zM376 475q0 -110 15 -183.5t40.5 -118
t58.5 -63.5t68 -19q51 0 89.5 12t76.5 31v708q-41 11 -77 16t-81 5q-90 0 -140 -98.5t-50 -289.5zM1501 1254q0 -60 -20 -115t-63 -102t-111 -84.5t-164 -62.5v80q50 15 84 36t55 43.5t30 44.5t9 39q0 18 -10 29.5t-24.5 20.5t-32 18t-32 22.5t-24.5 33.5t-10 51
q0 56 39.5 85t100.5 29q33 0 64 -11t55.5 -32t39 -52.5t14.5 -72.5z" />
    <glyph glyph-name="Dcroat" unicode="&#x110;" horiz-adv-x="1479" 
d="M695 1341q162 0 292.5 -34.5t222.5 -112.5t141.5 -204.5t49.5 -311.5q0 -164 -38 -291t-119 -214t-206.5 -132t-300.5 -45q-57 0 -120 0.5t-123 1.5t-113.5 1.5t-92.5 0.5h-208v73l150 27v509h-179v122h179v511l-172 26v73h637zM1069 670q0 157 -29.5 264.5t-86.5 173.5
t-141 94.5t-194 28.5h-74v-500h256v-122h-256v-495q24 -2 43.5 -3t39 -2.5t41 -2t50.5 -0.5q100 0 167 32.5t108 101.5t58.5 175.5t17.5 254.5z" />
    <glyph glyph-name="dcroat" unicode="&#x111;" horiz-adv-x="1139" 
d="M733 53q-23 -15 -45.5 -28.5t-50 -23t-62 -15.5t-80.5 -6q-209 0 -310.5 116.5t-101.5 360.5q0 112 25 202t77.5 153.5t133 98t191.5 34.5q109 0 220 -27q-2 11 -3 32.5t-1.5 47t-1 50t-0.5 41.5v10h-218v103h218v129l-96 24v66h385v-219h103v-103h-103v-1009l103 -24
v-66h-362zM376 465q0 -107 15 -178.5t40.5 -115t58.5 -62t68 -18.5q51 0 89.5 12t76.5 30v690q-41 10 -77 15t-81 5q-90 0 -140 -96t-50 -282z" />
    <glyph glyph-name="Emacron" unicode="&#x112;" horiz-adv-x="1366" 
d="M35 73l172 27v1142l-172 26v73h1142v-341h-91l-32 217q-32 4 -77.5 7t-92.5 4.5t-89 2t-65 0.5h-208v-492h351l31 148h89v-412h-89l-31 152h-351v-517h253q62 0 117 1.5t99 3.5t75.5 5t46.5 6l57 248h91l-19 -374h-1207v73zM362 1455v150h628v-150h-628z" />
    <glyph glyph-name="emacron" unicode="&#x113;" horiz-adv-x="909" 
d="M494 963q83 0 150 -20t114 -68.5t72.5 -129t25.5 -201.5v-82h-493v-16q0 -67 5.5 -128.5t30 -109t75 -75.5t139.5 -28q59 0 115 9t107 20v-77q-23 -14 -58 -28t-76.5 -24.5t-87.5 -17t-91 -6.5q-121 0 -207 32t-140.5 95t-79.5 155t-25 212q0 246 105.5 367t318.5 121z
M483 862q-36 0 -59 -21t-36.5 -59t-18.5 -93t-5 -122h218q0 67 -2.5 122t-12 93t-29.5 59t-55 21zM167 1121v150h628v-150h-628z" />
    <glyph glyph-name="Ebreve" unicode="&#x114;" horiz-adv-x="1366" 
d="M35 73l172 27v1142l-172 26v73h1142v-341h-91l-32 217q-32 4 -77.5 7t-92.5 4.5t-89 2t-65 0.5h-208v-492h351l31 148h89v-412h-89l-31 152h-351v-517h253q62 0 117 1.5t99 3.5t75.5 5t46.5 6l57 248h91l-19 -374h-1207v73zM683 1454q-77 0 -133 24.5t-93 67.5t-55.5 102
t-19.5 129h101q17 -83 68 -117t132 -34q40 0 72.5 7.5t57 25t42 46.5t28.5 72h101q-2 -70 -20 -129t-55 -102t-93 -67.5t-133 -24.5z" />
    <glyph glyph-name="ebreve" unicode="&#x115;" horiz-adv-x="909" 
d="M494 963q83 0 150 -20t114 -68.5t72.5 -129t25.5 -201.5v-82h-493v-16q0 -67 5.5 -128.5t30 -109t75 -75.5t139.5 -28q59 0 115 9t107 20v-77q-23 -14 -58 -28t-76.5 -24.5t-87.5 -17t-91 -6.5q-121 0 -207 32t-140.5 95t-79.5 155t-25 212q0 246 105.5 367t318.5 121z
M483 862q-36 0 -59 -21t-36.5 -59t-18.5 -93t-5 -122h218q0 67 -2.5 122t-12 93t-29.5 59t-55 21zM482 1120q-77 0 -133 24.5t-93 67.5t-55.5 102t-19.5 129h101q17 -83 68 -117t132 -34q40 0 72.5 7.5t57 25t42 46.5t28.5 72h101q-2 -70 -20 -129t-55 -102t-93 -67.5
t-133 -24.5z" />
    <glyph glyph-name="Edotaccent" unicode="&#x116;" horiz-adv-x="1366" 
d="M35 73l172 27v1142l-172 26v73h1142v-341h-91l-32 217q-32 4 -77.5 7t-92.5 4.5t-89 2t-65 0.5h-208v-492h351l31 148h89v-412h-89l-31 152h-351v-517h253q62 0 117 1.5t99 3.5t75.5 5t46.5 6l57 248h91l-19 -374h-1207v73zM522 1602q0 32 12 60t33 48.5t49 32.5t60 12
t60 -12t48.5 -32.5t32.5 -48.5t12 -60t-12 -60t-32.5 -49t-48.5 -33t-60 -12t-60 12t-49 33t-33 49t-12 60z" />
    <glyph glyph-name="edotaccent" unicode="&#x117;" horiz-adv-x="909" 
d="M494 963q83 0 150 -20t114 -68.5t72.5 -129t25.5 -201.5v-82h-493v-16q0 -67 5.5 -128.5t30 -109t75 -75.5t139.5 -28q59 0 115 9t107 20v-77q-23 -14 -58 -28t-76.5 -24.5t-87.5 -17t-91 -6.5q-121 0 -207 32t-140.5 95t-79.5 155t-25 212q0 246 105.5 367t318.5 121z
M483 862q-36 0 -59 -21t-36.5 -59t-18.5 -93t-5 -122h218q0 67 -2.5 122t-12 93t-29.5 59t-55 21zM329 1268q0 32 12 60t33 48.5t49 32.5t60 12t60 -12t48.5 -32.5t32.5 -48.5t12 -60t-12 -60t-32.5 -49t-48.5 -33t-60 -12t-60 12t-49 33t-33 49t-12 60z" />
    <glyph glyph-name="Eogonek" unicode="&#x118;" horiz-adv-x="1366" 
d="M35 73l172 27v1142l-172 26v73h1142v-341h-91l-32 217q-32 4 -77.5 7t-92.5 4.5t-89 2t-65 0.5h-208v-492h351l31 148h89v-412h-89l-31 152h-351v-517h253q62 0 117 1.5t99 3.5t75.5 5t46.5 6l57 248h91l-19 -374h-1207v73zM1032 -430q-62 0 -106.5 16.5t-73 45.5
t-42 68.5t-13.5 84.5q0 38 11 73t29.5 64t42.5 52.5t50 39.5h127q-32 -46 -53 -101t-21 -112q0 -58 29 -89.5t83 -31.5q38 0 70.5 8t67.5 21v-85q-42 -25 -92 -39.5t-109 -14.5z" />
    <glyph glyph-name="eogonek" unicode="&#x119;" horiz-adv-x="909" 
d="M494 963q83 0 150 -20t114 -68.5t72.5 -129t25.5 -201.5v-82h-493v-16q0 -67 5.5 -128.5t30 -109t75 -75.5t139.5 -28q59 0 115 9t107 20v-77q-23 -14 -58 -28t-76.5 -24.5t-87.5 -17t-91 -6.5q-121 0 -207 32t-140.5 95t-79.5 155t-25 212q0 246 105.5 367t318.5 121z
M483 862q-36 0 -59 -21t-36.5 -59t-18.5 -93t-5 -122h218q0 67 -2.5 122t-12 93t-29.5 59t-55 21zM641 -430q-62 0 -106.5 16.5t-73 45.5t-42 68.5t-13.5 84.5q0 38 11 73t29.5 64t42.5 52.5t50 39.5h127q-32 -46 -53 -101t-21 -112q0 -58 29 -89.5t83 -31.5q38 0 70.5 8
t67.5 21v-85q-42 -25 -92 -39.5t-109 -14.5z" />
    <glyph glyph-name="Ecaron" unicode="&#x11a;" horiz-adv-x="1366" 
d="M35 73l172 27v1142l-172 26v73h1142v-341h-91l-32 217q-32 4 -77.5 7t-92.5 4.5t-89 2t-65 0.5h-208v-492h351l31 148h89v-412h-89l-31 152h-351v-517h253q62 0 117 1.5t99 3.5t75.5 5t46.5 6l57 248h91l-19 -374h-1207v73zM987 1778v-33l-218 -293h-213l-217 293v33h76
l248 -162l248 162h76z" />
    <glyph glyph-name="ecaron" unicode="&#x11b;" horiz-adv-x="909" 
d="M494 963q83 0 150 -20t114 -68.5t72.5 -129t25.5 -201.5v-82h-493v-16q0 -67 5.5 -128.5t30 -109t75 -75.5t139.5 -28q59 0 115 9t107 20v-77q-23 -14 -58 -28t-76.5 -24.5t-87.5 -17t-91 -6.5q-121 0 -207 32t-140.5 95t-79.5 155t-25 212q0 246 105.5 367t318.5 121z
M483 862q-36 0 -59 -21t-36.5 -59t-18.5 -93t-5 -122h218q0 67 -2.5 122t-12 93t-29.5 59t-55 21zM800 1444v-33l-218 -293h-213l-217 293v33h76l248 -162l248 162h76z" />
    <glyph glyph-name="Gcircumflex" unicode="&#x11c;" horiz-adv-x="1593" 
d="M1406 70q-58 -19 -129.5 -35.5t-148.5 -28.5t-155 -19t-150 -7q-159 0 -292 43.5t-228.5 129t-149 211.5t-53.5 291q0 176 52 307.5t148.5 219t234 131t307.5 43.5q87 0 158.5 -7t133.5 -19t117 -27.5t111 -31.5v-308h-90l-24 174q-35 24 -77 45t-89.5 36.5t-99 24
t-104.5 8.5q-102 0 -184 -28.5t-140.5 -97t-90 -183t-31.5 -285.5q0 -116 18 -203t49 -151t73.5 -106.5t91 -67.5t101.5 -35.5t105 -10.5q57 0 115 9.5t106 25.5v388l-172 26v74h618v-74l-131 -26v-436zM511 1519v33l218 293h213l217 -293v-33h-76l-248 162l-248 -162h-76z
" />
    <glyph glyph-name="gcircumflex" unicode="&#x11d;" 
d="M257 347q-178 75 -178 293q0 80 28.5 140.5t82.5 101.5t132.5 62t177.5 21q32 0 65 -3t61.5 -6.5t50.5 -8t32 -7.5l225 111l35 -43l-114 -162q31 -38 46.5 -91t15.5 -115q0 -81 -28 -142.5t-81.5 -103.5t-132 -63t-179.5 -21q-40 0 -81 3.5t-72 8.5l-24 -76q1 -15 11 -29
t26 -25.5t38 -18.5t48 -7h219q165 0 254 -64t89 -200q0 -62 -24.5 -125t-84.5 -114t-160.5 -83t-252.5 -32q-114 0 -195 17.5t-132.5 47.5t-76 70t-24.5 84q0 29 13.5 54t37.5 48t56.5 44.5t70.5 43.5q-18 7 -42.5 23.5t-46.5 42t-37.5 59.5t-15.5 75zM785 -166q0 47 -33 71
t-94 24h-317q-41 -30 -64.5 -67t-23.5 -78q0 -23 10 -46t36 -41t70.5 -29.5t113.5 -11.5q79 0 136 13.5t94 37.5t54.5 56.5t17.5 70.5zM494 410q74 0 107 57.5t33 172.5t-32.5 169.5t-107.5 54.5q-69 0 -100.5 -54.5t-31.5 -169.5t31 -172.5t101 -57.5zM172 1118v33l218 293
h213l217 -293v-33h-76l-248 162l-248 -162h-76z" />
    <glyph glyph-name="Gbreve" unicode="&#x11e;" horiz-adv-x="1593" 
d="M1406 70q-58 -19 -129.5 -35.5t-148.5 -28.5t-155 -19t-150 -7q-159 0 -292 43.5t-228.5 129t-149 211.5t-53.5 291q0 176 52 307.5t148.5 219t234 131t307.5 43.5q87 0 158.5 -7t133.5 -19t117 -27.5t111 -31.5v-308h-90l-24 174q-35 24 -77 45t-89.5 36.5t-99 24
t-104.5 8.5q-102 0 -184 -28.5t-140.5 -97t-90 -183t-31.5 -285.5q0 -116 18 -203t49 -151t73.5 -106.5t91 -67.5t101.5 -35.5t105 -10.5q57 0 115 9.5t106 25.5v388l-172 26v74h618v-74l-131 -26v-436zM848 1454q-77 0 -133 24.5t-93 67.5t-55.5 102t-19.5 129h101
q17 -83 68 -117t132 -34q40 0 72.5 7.5t57 25t42 46.5t28.5 72h101q-2 -70 -20 -129t-55 -102t-93 -67.5t-133 -24.5z" />
    <glyph glyph-name="gbreve" unicode="&#x11f;" 
d="M257 347q-178 75 -178 293q0 80 28.5 140.5t82.5 101.5t132.5 62t177.5 21q32 0 65 -3t61.5 -6.5t50.5 -8t32 -7.5l225 111l35 -43l-114 -162q31 -38 46.5 -91t15.5 -115q0 -81 -28 -142.5t-81.5 -103.5t-132 -63t-179.5 -21q-40 0 -81 3.5t-72 8.5l-24 -76q1 -15 11 -29
t26 -25.5t38 -18.5t48 -7h219q165 0 254 -64t89 -200q0 -62 -24.5 -125t-84.5 -114t-160.5 -83t-252.5 -32q-114 0 -195 17.5t-132.5 47.5t-76 70t-24.5 84q0 29 13.5 54t37.5 48t56.5 44.5t70.5 43.5q-18 7 -42.5 23.5t-46.5 42t-37.5 59.5t-15.5 75zM785 -166q0 47 -33 71
t-94 24h-317q-41 -30 -64.5 -67t-23.5 -78q0 -23 10 -46t36 -41t70.5 -29.5t113.5 -11.5q79 0 136 13.5t94 37.5t54.5 56.5t17.5 70.5zM494 410q74 0 107 57.5t33 172.5t-32.5 169.5t-107.5 54.5q-69 0 -100.5 -54.5t-31.5 -169.5t31 -172.5t101 -57.5zM509 1120
q-77 0 -133 24.5t-93 67.5t-55.5 102t-19.5 129h101q17 -83 68 -117t132 -34q40 0 72.5 7.5t57 25t42 46.5t28.5 72h101q-2 -70 -20 -129t-55 -102t-93 -67.5t-133 -24.5z" />
    <glyph glyph-name="Gdotaccent" unicode="&#x120;" horiz-adv-x="1593" 
d="M1406 70q-58 -19 -129.5 -35.5t-148.5 -28.5t-155 -19t-150 -7q-159 0 -292 43.5t-228.5 129t-149 211.5t-53.5 291q0 176 52 307.5t148.5 219t234 131t307.5 43.5q87 0 158.5 -7t133.5 -19t117 -27.5t111 -31.5v-308h-90l-24 174q-35 24 -77 45t-89.5 36.5t-99 24
t-104.5 8.5q-102 0 -184 -28.5t-140.5 -97t-90 -183t-31.5 -285.5q0 -116 18 -203t49 -151t73.5 -106.5t91 -67.5t101.5 -35.5t105 -10.5q57 0 115 9.5t106 25.5v388l-172 26v74h618v-74l-131 -26v-436zM689 1602q0 32 12 60t33 48.5t49 32.5t60 12t60 -12t48.5 -32.5
t32.5 -48.5t12 -60t-12 -60t-32.5 -49t-48.5 -33t-60 -12t-60 12t-49 33t-33 49t-12 60z" />
    <glyph glyph-name="gdotaccent" unicode="&#x121;" 
d="M257 347q-178 75 -178 293q0 80 28.5 140.5t82.5 101.5t132.5 62t177.5 21q32 0 65 -3t61.5 -6.5t50.5 -8t32 -7.5l225 111l35 -43l-114 -162q31 -38 46.5 -91t15.5 -115q0 -81 -28 -142.5t-81.5 -103.5t-132 -63t-179.5 -21q-40 0 -81 3.5t-72 8.5l-24 -76q1 -15 11 -29
t26 -25.5t38 -18.5t48 -7h219q165 0 254 -64t89 -200q0 -62 -24.5 -125t-84.5 -114t-160.5 -83t-252.5 -32q-114 0 -195 17.5t-132.5 47.5t-76 70t-24.5 84q0 29 13.5 54t37.5 48t56.5 44.5t70.5 43.5q-18 7 -42.5 23.5t-46.5 42t-37.5 59.5t-15.5 75zM785 -166q0 47 -33 71
t-94 24h-317q-41 -30 -64.5 -67t-23.5 -78q0 -23 10 -46t36 -41t70.5 -29.5t113.5 -11.5q79 0 136 13.5t94 37.5t54.5 56.5t17.5 70.5zM494 410q74 0 107 57.5t33 172.5t-32.5 169.5t-107.5 54.5q-69 0 -100.5 -54.5t-31.5 -169.5t31 -172.5t101 -57.5zM353 1268q0 32 12 60
t33 48.5t49 32.5t60 12t60 -12t48.5 -32.5t32.5 -48.5t12 -60t-12 -60t-32.5 -49t-48.5 -33t-60 -12t-60 12t-49 33t-33 49t-12 60z" />
    <glyph glyph-name="Gcommaaccent" unicode="&#x122;" horiz-adv-x="1593" 
d="M1406 70q-58 -19 -129.5 -35.5t-148.5 -28.5t-155 -19t-150 -7q-159 0 -292 43.5t-228.5 129t-149 211.5t-53.5 291q0 176 52 307.5t148.5 219t234 131t307.5 43.5q87 0 158.5 -7t133.5 -19t117 -27.5t111 -31.5v-308h-90l-24 174q-35 24 -77 45t-89.5 36.5t-99 24
t-104.5 8.5q-102 0 -184 -28.5t-140.5 -97t-90 -183t-31.5 -285.5q0 -116 18 -203t49 -151t73.5 -106.5t91 -67.5t101.5 -35.5t105 -10.5q57 0 115 9.5t106 25.5v388l-172 26v74h618v-74l-131 -26v-436zM972 -238q0 -42 -14 -85t-50 -81.5t-98.5 -69.5t-159.5 -49v69
q50 13 79.5 27.5t45 30t20 31t4.5 29.5q0 25 -17.5 41t-39 31t-39 34.5t-17.5 52.5q0 19 7.5 37.5t23.5 33.5t42 24.5t63 9.5q31 0 58.5 -10t48 -31t32 -52t11.5 -73z" />
    <glyph glyph-name="gcommaaccent" unicode="&#x123;" 
d="M257 347q-178 75 -178 293q0 80 28.5 140.5t82.5 101.5t132.5 62t177.5 21q32 0 65 -3t61.5 -6.5t50.5 -8t32 -7.5l225 111l35 -43l-114 -162q31 -38 46.5 -91t15.5 -115q0 -81 -28 -142.5t-81.5 -103.5t-132 -63t-179.5 -21q-40 0 -81 3.5t-72 8.5l-24 -76q1 -15 11 -29
t26 -25.5t38 -18.5t48 -7h219q165 0 254 -64t89 -200q0 -62 -24.5 -125t-84.5 -114t-160.5 -83t-252.5 -32q-114 0 -195 17.5t-132.5 47.5t-76 70t-24.5 84q0 29 13.5 54t37.5 48t56.5 44.5t70.5 43.5q-18 7 -42.5 23.5t-46.5 42t-37.5 59.5t-15.5 75zM785 -166q0 47 -33 71
t-94 24h-317q-41 -30 -64.5 -67t-23.5 -78q0 -23 10 -46t36 -41t70.5 -29.5t113.5 -11.5q79 0 136 13.5t94 37.5t54.5 56.5t17.5 70.5zM494 410q74 0 107 57.5t33 172.5t-32.5 169.5t-107.5 54.5q-69 0 -100.5 -54.5t-31.5 -169.5t31 -172.5t101 -57.5zM173 1286q0 42 14 85
t50 81.5t98.5 69.5t159.5 49v-69q-50 -13 -79.5 -27.5t-45 -30t-20 -31t-4.5 -29.5q0 -25 17.5 -41t39 -31t39 -34.5t17.5 -52.5q0 -19 -7.5 -37.5t-23.5 -33.5t-42 -24.5t-63 -9.5q-32 0 -59 10t-47.5 31t-32 52t-11.5 73z" />
    <glyph glyph-name="Hcircumflex" unicode="&#x124;" horiz-adv-x="1593" 
d="M35 0v74l172 26v1141l-172 27v73h659v-73l-172 -27v-496h548v496l-172 27v73h661v-73l-173 -27v-1141l173 -26v-74h-661v74l172 26v535h-548v-535l172 -26v-74h-659zM472 1452v33l218 293h213l217 -293v-33h-76l-248 162l-248 -162h-76z" />
    <glyph glyph-name="hcircumflex" unicode="&#x125;" horiz-adv-x="1139" 
d="M436 1014q0 -15 -0.5 -35.5t-1.5 -42.5t-2 -42.5t-2 -35.5q31 16 68.5 35t79.5 35t86.5 26.5t89.5 10.5q57 0 105 -15t82.5 -48t53.5 -86t19 -128v-598l94 -24v-66h-467v66l84 24v559q0 84 -35.5 131t-101.5 47q-76 0 -152 -34v-703l86 -24v-66h-467v66l92 24v1241
l-96 24v66h385v-407zM245 1532v33l218 293h213l217 -293v-33h-76l-248 162l-248 -162h-76z" />
    <glyph glyph-name="Hbar" unicode="&#x126;" horiz-adv-x="1593" 
d="M35 0v74l172 26v852h-172v110h172v179l-172 27v73h659v-73l-172 -27v-179h548v179l-172 27v73h661v-73l-173 -27v-179h173v-110h-173v-852l173 -26v-74h-661v74l172 26v535h-548v-535l172 -26v-74h-659zM1070 745v207h-548v-207h548z" />
    <glyph glyph-name="hbar" unicode="&#x127;" horiz-adv-x="1139" 
d="M687 1099h-251v-105q0 -15 -0.5 -35.5t-1.5 -42.5t-2 -42.5t-2 -35.5q31 16 68.5 35t79.5 35t86.5 26.5t89.5 10.5q57 0 105 -15t82.5 -48t53.5 -86t19 -128v-578l94 -24v-66h-467v66l84 24v539q0 84 -35.5 131t-101.5 47q-76 0 -152 -34v-683l86 -24v-66h-467v66l92 24
v1009h-145v103h145v129l-96 24v66h385v-219h251v-103z" />
    <glyph glyph-name="Itilde" unicode="&#x128;" horiz-adv-x="797" 
d="M556 100l172 -26v-74h-659v74l172 26v1141l-172 27v73h659v-73l-172 -27v-1141zM521 1454q-26 0 -49.5 6.5t-45 16t-40.5 22t-37 24.5q-11 8 -25 19t-29.5 21t-31 17t-29.5 7q-19 0 -30.5 -6t-18.5 -20t-11.5 -36t-8.5 -53h-105q4 56 15 108t35 91.5t63.5 63.5t101.5 24
q53 0 95 -21.5t77 -46.5q11 -8 25.5 -18.5t30 -20.5t31 -17t28.5 -7q18 0 29.5 6t19 19.5t11.5 35t9 51.5h105q-4 -56 -15 -107.5t-35 -91.5t-64 -63.5t-101 -23.5z" />
    <glyph glyph-name="itilde" unicode="&#x129;" horiz-adv-x="569" 
d="M436 90l103 -24v-66h-494v66l102 24v760l-96 24v66h385v-850zM410 1120q-26 0 -49.5 6.5t-45 16t-40.5 22t-37 24.5q-11 8 -25 19t-29.5 21t-31 17t-29.5 7q-19 0 -30.5 -6t-18.5 -20t-11.5 -36t-8.5 -53h-105q4 56 15 108t35 91.5t63.5 63.5t101.5 24q53 0 95 -21.5
t77 -46.5q11 -8 25.5 -18.5t30 -20.5t31 -17t28.5 -7q18 0 29.5 6t19 19.5t11.5 35t9 51.5h105q-4 -56 -15 -107.5t-35 -91.5t-64 -63.5t-101 -23.5z" />
    <glyph glyph-name="Imacron" unicode="&#x12a;" horiz-adv-x="797" 
d="M556 100l172 -26v-74h-659v74l172 26v1141l-172 27v73h659v-73l-172 -27v-1141zM84 1455v150h628v-150h-628z" />
    <glyph glyph-name="imacron" unicode="&#x12b;" horiz-adv-x="569" 
d="M436 90l103 -24v-66h-494v66l102 24v760l-96 24v66h385v-850zM-28 1121v150h628v-150h-628z" />
    <glyph glyph-name="Ibreve" unicode="&#x12c;" horiz-adv-x="797" 
d="M556 100l172 -26v-74h-659v74l172 26v1141l-172 27v73h659v-73l-172 -27v-1141zM398 1454q-77 0 -133 24.5t-93 67.5t-55.5 102t-19.5 129h101q17 -83 68 -117t132 -34q40 0 72.5 7.5t57 25t42 46.5t28.5 72h101q-2 -70 -20 -129t-55 -102t-93 -67.5t-133 -24.5z" />
    <glyph glyph-name="ibreve" unicode="&#x12d;" horiz-adv-x="569" 
d="M436 90l103 -24v-66h-494v66l102 24v760l-96 24v66h385v-850zM289 1120q-77 0 -133 24.5t-93 67.5t-55.5 102t-19.5 129h101q17 -83 68 -117t132 -34q40 0 72.5 7.5t57 25t42 46.5t28.5 72h101q-2 -70 -20 -129t-55 -102t-93 -67.5t-133 -24.5z" />
    <glyph glyph-name="Iogonek" unicode="&#x12e;" horiz-adv-x="797" 
d="M556 100l172 -26v-74h-659v74l172 26v1141l-172 27v73h659v-73l-172 -27v-1141zM464 -430q-62 0 -106.5 16.5t-73 45.5t-42 68.5t-13.5 84.5q0 38 11 73t29.5 64t42.5 52.5t50 39.5h127q-32 -46 -53 -101t-21 -112q0 -58 29 -89.5t83 -31.5q38 0 70.5 8t67.5 21v-85
q-42 -25 -92 -39.5t-109 -14.5z" />
    <glyph glyph-name="iogonek" unicode="&#x12f;" horiz-adv-x="569" 
d="M436 90l103 -24v-66h-494v66l102 24v760l-96 24v66h385v-850zM137 1268q0 32 12 60t33 48.5t49 32.5t60 12t60 -12t48.5 -32.5t32.5 -48.5t12 -60t-12 -60t-32.5 -49t-48.5 -33t-60 -12t-60 12t-49 33t-33 49t-12 60zM339 -430q-62 0 -106.5 16.5t-73 45.5t-42 68.5
t-13.5 84.5q0 38 11 73t29.5 64t42.5 52.5t50 39.5h127q-32 -46 -53 -101t-21 -112q0 -58 29 -89.5t83 -31.5q38 0 70.5 8t67.5 21v-85q-42 -25 -92 -39.5t-109 -14.5z" />
    <glyph glyph-name="Idotaccent" unicode="&#x130;" horiz-adv-x="797" 
d="M556 100l172 -26v-74h-659v74l172 26v1141l-172 27v73h659v-73l-172 -27v-1141zM245 1602q0 32 12 60t33 48.5t49 32.5t60 12t60 -12t48.5 -32.5t32.5 -48.5t12 -60t-12 -60t-32.5 -49t-48.5 -33t-60 -12t-60 12t-49 33t-33 49t-12 60z" />
    <glyph glyph-name="dotlessi" unicode="&#x131;" horiz-adv-x="569" 
d="M436 90l103 -24v-66h-494v66l102 24v760l-96 24v66h385v-850z" />
    <glyph glyph-name="IJ" unicode="&#x132;" horiz-adv-x="1685" 
d="M556 100l172 -26v-74h-659v74l172 26v1141l-172 27v73h659v-73l-172 -27v-1141zM1172 1242l-172 26v73h639v-73l-152 -26v-810q0 -91 -20 -160t-54 -119t-79 -83.5t-96.5 -53.5t-106 -28t-106.5 -8q-34 0 -70.5 2t-71.5 6t-66.5 9.5t-54.5 12.5v304h89l30 -179
q19 -23 54 -36t77 -13q69 0 114.5 48t45.5 142v966z" />
    <glyph glyph-name="ij" unicode="&#x133;" horiz-adv-x="1131" 
d="M436 90l103 -24v-66h-494v66l102 24v760l-96 24v66h385v-850zM137 1268q0 32 12 60t33 48.5t49 32.5t60 12t60 -12t48.5 -32.5t32.5 -48.5t12 -60t-12 -60t-32.5 -49t-48.5 -33t-60 -12t-60 12t-49 33t-33 49t-12 60zM1002 1268q0 -32 -12 -60t-33 -49t-49 -33t-59 -12
q-32 0 -60 12t-49 33t-33 49t-12 60q0 31 12 59t33 49t49 33t60 12q31 0 59 -12t49 -33t33 -49t12 -59zM994 -39q0 -106 -31 -181.5t-84 -123.5t-124 -70t-151 -22q-45 0 -90 5t-82 13v225h64l43 -114q10 -8 20 -13.5t29 -5.5q22 0 43 13.5t37.5 43.5t26.5 78.5t10 119.5
v911l-166 34v66h455v-979z" />
    <glyph glyph-name="Jcircumflex" unicode="&#x134;" 
d="M501 1242l-172 26v73h639v-73l-152 -26v-810q0 -91 -20 -160t-54 -119t-79 -83.5t-96.5 -53.5t-106 -28t-106.5 -8q-34 0 -70.5 2t-71.5 6t-66.5 9.5t-54.5 12.5v304h89l30 -179q19 -23 54 -36t77 -13q69 0 114.5 48t45.5 142v966zM328 1452v33l218 293h213l217 -293v-33
h-76l-248 162l-248 -162h-76z" />
    <glyph glyph-name="jcircumflex" unicode="&#x135;" horiz-adv-x="682" 
d="M545 -39q0 -106 -31 -181.5t-84 -123.5t-124 -70t-151 -22q-45 0 -90 5t-82 13v225h64l43 -114q10 -8 20 -13.5t29 -5.5q22 0 43 13.5t37.5 43.5t26.5 78.5t10 119.5v911l-166 34v66h455v-979zM64 1118v33l218 293h213l217 -293v-33h-76l-248 162l-248 -162h-76z" />
    <glyph glyph-name="Kcommaaccent" unicode="&#x136;" horiz-adv-x="1593" 
d="M1469 1341v-73l-164 -26l-443 -391l590 -751l125 -27v-73h-438l-501 646l-116 -100v-446l193 -27v-73h-680v73l172 27v1142l-172 26v73h660v-73l-173 -26v-546l611 546l-123 26v73h459zM947 -238q0 -42 -14 -85t-50 -81.5t-98.5 -69.5t-159.5 -49v69q50 13 79.5 27.5
t45 30t20 31t4.5 29.5q0 25 -17.5 41t-39 31t-39 34.5t-17.5 52.5q0 19 7.5 37.5t23.5 33.5t42 24.5t63 9.5q31 0 58.5 -10t48 -31t32 -52t11.5 -73z" />
    <glyph glyph-name="kcommaaccent" unicode="&#x137;" horiz-adv-x="1139" 
d="M436 451l367 400l-100 23v66h358v-66l-108 -22l-224 -236l323 -526l84 -24v-66h-452v66l55 24l-188 329l-115 -80v-249l93 -24v-66h-471v66l89 24v1241l-96 24v66h385v-970zM720 -238q0 -42 -14 -85t-50 -81.5t-98.5 -69.5t-159.5 -49v69q50 13 79.5 27.5t45 30t20 31
t4.5 29.5q0 25 -17.5 41t-39 31t-39 34.5t-17.5 52.5q0 19 7.5 37.5t23.5 33.5t42 24.5t63 9.5q31 0 58.5 -10t48 -31t32 -52t11.5 -73z" />
    <glyph glyph-name="kgreenlandic" unicode="&#x138;" horiz-adv-x="1139" 
d="M436 451l367 400l-100 23v66h358v-66l-108 -22l-224 -236l323 -526l84 -24v-66h-452v66l55 24l-188 329l-115 -80v-249l93 -24v-66h-471v66l89 24v760l-96 24v66h385v-489z" />
    <glyph glyph-name="Lacute" unicode="&#x139;" horiz-adv-x="1366" 
d="M729 1268l-207 -26v-1136h273q125 0 204 7t109 13l82 279h90l-38 -405h-1207v73l172 27v1142l-171 26v73h693v-73zM317 1452v33l166 272h285v-37l-365 -268h-86z" />
    <glyph glyph-name="lacute" unicode="&#x13a;" horiz-adv-x="569" 
d="M431 90l103 -24v-66h-494v66l102 24v1241l-96 24v66h385v-1331zM139 1532v33l166 272h285v-37l-365 -268h-86z" />
    <glyph glyph-name="Lcommaaccent" unicode="&#x13b;" horiz-adv-x="1366" 
d="M729 1268l-207 -26v-1136h273q125 0 204 7t109 13l82 279h90l-38 -405h-1207v73l172 27v1142l-171 26v73h693v-73zM835 -238q0 -42 -14 -85t-50 -81.5t-98.5 -69.5t-159.5 -49v69q50 13 79.5 27.5t45 30t20 31t4.5 29.5q0 25 -17.5 41t-39 31t-39 34.5t-17.5 52.5
q0 19 7.5 37.5t23.5 33.5t42 24.5t63 9.5q31 0 58.5 -10t48 -31t32 -52t11.5 -73z" />
    <glyph glyph-name="lcommaaccent" unicode="&#x13c;" horiz-adv-x="569" 
d="M431 90l103 -24v-66h-494v66l102 24v1241l-96 24v66h385v-1331zM434 -238q0 -42 -14 -85t-50 -81.5t-98.5 -69.5t-159.5 -49v69q50 13 79.5 27.5t45 30t20 31t4.5 29.5q0 25 -17.5 41t-39 31t-39 34.5t-17.5 52.5q0 19 7.5 37.5t23.5 33.5t42 24.5t63 9.5q31 0 58.5 -10
t48 -31t32 -52t11.5 -73z" />
    <glyph glyph-name="Lcaron" unicode="&#x13d;" horiz-adv-x="1366" 
d="M729 1268l-207 -26v-1136h273q125 0 204 7t109 13l82 279h90l-38 -405h-1207v73l172 27v1142l-171 26v73h693v-73zM1206 1194q0 -60 -20 -115t-63 -102t-111 -84.5t-164 -62.5v80q50 15 84 36t55 43.5t30 44.5t9 39q0 18 -10 29.5t-24.5 20.5t-32 18t-32 22.5t-24.5 33.5
t-10 51q0 56 39.5 85t100.5 29q33 0 64 -11t55.5 -32t39 -52.5t14.5 -72.5z" />
    <glyph glyph-name="lcaron" unicode="&#x13e;" horiz-adv-x="960" 
d="M431 90l103 -24v-66h-494v66l102 24v1241l-96 24v66h385v-1331zM922 1253q0 -60 -20 -115t-63 -102t-111 -84.5t-164 -62.5v80q50 15 84 36t55 43.5t30 44.5t9 39q0 18 -10 29.5t-24.5 20.5t-32 18t-32 22.5t-24.5 33.5t-10 51q0 56 39.5 85t100.5 29q33 0 64 -11
t55.5 -32t39 -52.5t14.5 -72.5z" />
    <glyph glyph-name="Ldot" unicode="&#x13f;" horiz-adv-x="1366" 
d="M729 1268l-207 -26v-1136h273q125 0 204 7t109 13l82 279h90l-38 -405h-1207v73l172 27v1142l-171 26v73h693v-73zM755 754q0 32 12 60t33 48.5t49 32.5t60 12t60 -12t48.5 -32.5t32.5 -48.5t12 -60t-12 -60t-32.5 -49t-48.5 -33t-60 -12t-60 12t-49 33t-33 49t-12 60z
" />
    <glyph glyph-name="ldot" unicode="&#x140;" horiz-adv-x="810" 
d="M434 90l103 -24v-66h-494v66l102 24v1241l-96 24v66h385v-1331zM537 754q0 32 12 60t33 48.5t49 32.5t60 12t60 -12t48.5 -32.5t32.5 -48.5t12 -60t-12 -60t-32.5 -49t-48.5 -33t-60 -12t-60 12t-49 33t-33 49t-12 60z" />
    <glyph glyph-name="Lslash" unicode="&#x141;" horiz-adv-x="1366" 
d="M207 632v609l-170 27v73h692v-73l-207 -27v-428l239 138v-134l-239 -138v-573h273q125 0 203.5 7.5t109.5 13.5l82 279h90l-39 -406h-1206v74l172 26v397l-164 -95v136z" />
    <glyph glyph-name="lslash" unicode="&#x142;" horiz-adv-x="569" 
d="M20 533l122 70v728l-96 24v66h385v-651l128 74v-124l-128 -75v-555l103 -24v-66h-494v66l102 24v388l-122 -71v126z" />
    <glyph glyph-name="Nacute" unicode="&#x143;" horiz-adv-x="1479" 
d="M1155 1242l-180 26v73h477v-73l-172 -26v-1242h-117l-827 1078v-978l180 -27v-73h-477v73l172 27v1142l-172 26v73h459l657 -857v758zM634 1452v33l166 272h285v-37l-365 -268h-86z" />
    <glyph glyph-name="nacute" unicode="&#x144;" horiz-adv-x="1139" 
d="M434 858q31 16 68 35t78 35t85 26.5t89 10.5q57 0 105 -15t82.5 -48t53.5 -86t19 -128v-598l94 -24v-66h-467v66l84 24v559q0 84 -35.5 131t-101.5 47q-76 0 -152 -34v-703l86 -24v-66h-467v66l92 24v760l-92 24v66h365zM461 1118v33l166 272h285v-37l-365 -268h-86z" />
    <glyph glyph-name="Ncommaaccent" unicode="&#x145;" horiz-adv-x="1479" 
d="M1155 1242l-180 26v73h477v-73l-172 -26v-1242h-117l-827 1078v-978l180 -27v-73h-477v73l172 27v1142l-172 26v73h459l657 -857v758zM920 -238q0 -42 -14 -85t-50 -81.5t-98.5 -69.5t-159.5 -49v69q50 13 79.5 27.5t45 30t20 31t4.5 29.5q0 25 -17.5 41t-39 31t-39 34.5
t-17.5 52.5q0 19 7.5 37.5t23.5 33.5t42 24.5t63 9.5q31 0 58.5 -10t48 -31t32 -52t11.5 -73z" />
    <glyph glyph-name="ncommaaccent" unicode="&#x146;" horiz-adv-x="1139" 
d="M434 858q31 16 68 35t78 35t85 26.5t89 10.5q57 0 105 -15t82.5 -48t53.5 -86t19 -128v-598l94 -24v-66h-467v66l84 24v559q0 84 -35.5 131t-101.5 47q-76 0 -152 -34v-703l86 -24v-66h-467v66l92 24v760l-92 24v66h365zM740 -238q0 -42 -14 -85t-50 -81.5t-98.5 -69.5
t-159.5 -49v69q50 13 79.5 27.5t45 30t20 31t4.5 29.5q0 25 -17.5 41t-39 31t-39 34.5t-17.5 52.5q0 19 7.5 37.5t23.5 33.5t42 24.5t63 9.5q31 0 58.5 -10t48 -31t32 -52t11.5 -73z" />
    <glyph glyph-name="Ncaron" unicode="&#x147;" horiz-adv-x="1479" 
d="M1155 1242l-180 26v73h477v-73l-172 -26v-1242h-117l-827 1078v-978l180 -27v-73h-477v73l172 27v1142l-172 26v73h459l657 -857v758zM1063 1778v-33l-218 -293h-213l-217 293v33h76l248 -162l248 162h76z" />
    <glyph glyph-name="ncaron" unicode="&#x148;" horiz-adv-x="1139" 
d="M434 858q31 16 68 35t78 35t85 26.5t89 10.5q57 0 105 -15t82.5 -48t53.5 -86t19 -128v-598l94 -24v-66h-467v66l84 24v559q0 84 -35.5 131t-101.5 47q-76 0 -152 -34v-703l86 -24v-66h-467v66l92 24v760l-92 24v66h365zM901 1444v-33l-218 -293h-213l-217 293v33h76
l248 -162l248 162h76z" />
    <glyph glyph-name="napostrophe" unicode="&#x149;" horiz-adv-x="1493" 
d="M778 858q31 16 68 35t78 35t85 26.5t89 10.5q57 0 105 -15t82.5 -48t53.5 -86t19 -128v-598l94 -24v-66h-467v66l84 24v559q0 84 -35.5 131t-101.5 47q-76 0 -152 -34v-703l86 -24v-66h-467v66l92 24v760l-92 24v66h365zM421 1224q0 -71 -22.5 -135t-71.5 -118.5
t-126.5 -98t-187.5 -72.5v93q57 17 96 41.5t62.5 51t34 52.5t10.5 45q0 21 -11.5 34t-28 24t-36.5 21t-36.5 26t-28 39t-11.5 59q0 32 12 57t33.5 42t50.5 25.5t64 8.5q37 0 72.5 -12.5t63.5 -37.5t44.5 -61t16.5 -84z" />
    <glyph glyph-name="Eng" unicode="&#x14a;" horiz-adv-x="1575" 
d="M1085 985q0 69 -18.5 114.5t-48 71.5t-66.5 36.5t-75 10.5q-70 0 -158.5 -25.5t-191.5 -78.5v-1014l101 -15v-85h-588v74l171 26v1141l-171 27v73h473l14 -122q60 34 115 58.5t108 41t105.5 24.5t106.5 8q104 0 185.5 -22t138 -68.5t86 -119t29.5 -173.5v-536
q0 -137 -37.5 -224.5t-99 -138t-140.5 -70t-163 -19.5q-65 0 -123 8t-100 22v274h89l33 -157q20 -20 44 -30.5t61 -10.5q64 0 92 51t28 145v703z" />
    <glyph glyph-name="eng" unicode="&#x14b;" horiz-adv-x="1139" 
d="M434 858q31 16 68 35t78 35t85 26.5t89 10.5q57 0 103.5 -15t79 -48t50 -86t17.5 -128v-727q0 -106 -31 -181.5t-84 -123.5t-124 -70t-151 -22q-45 0 -90 5t-82 13v225h64l43 -114q10 -8 20 -13.5t29 -5.5q22 0 43 13.5t37.5 43.5t26.5 78.5t10 119.5v720
q0 99 -30.5 138.5t-96.5 39.5q-76 0 -152 -34v-703l86 -24v-66h-467v66l92 24v760l-92 24v66h365z" />
    <glyph glyph-name="Omacron" unicode="&#x14c;" horiz-adv-x="1593" 
d="M432 672q0 -140 17 -250t59 -186t112.5 -116t176.5 -40t176 40t112 116t59 186t17 250q0 139 -17 248t-59 183t-112 113t-176 39t-176.5 -39t-112.5 -113t-59 -183t-17 -248zM100 672q0 178 46 307t135 213t218.5 124t297.5 40q162 0 291 -40t219 -124t138 -213t48 -307
t-48 -308.5t-138 -215.5t-219 -126.5t-291 -41.5t-291 41.5t-219.5 126.5t-138.5 215.5t-48 308.5zM482 1455v150h628v-150h-628z" />
    <glyph glyph-name="omacron" unicode="&#x14d;" 
d="M946 475q0 -120 -24.5 -212t-77.5 -155t-136.5 -95.5t-201.5 -32.5q-111 0 -192 32t-133.5 95t-77.5 155.5t-25 212.5q0 119 25 210.5t78 153.5t135.5 94t197.5 32q223 0 327.5 -124.5t104.5 -365.5zM653 475q0 97 -6 170t-22 122t-44 73t-73 24q-44 0 -71 -24t-41.5 -73
t-19.5 -122t-5 -170q0 -98 5 -171.5t19.5 -123.5t41.5 -75t71 -25q45 0 73 25t44 75t22 123.5t6 171.5zM198 1121v150h628v-150h-628z" />
    <glyph glyph-name="Obreve" unicode="&#x14e;" horiz-adv-x="1593" 
d="M432 672q0 -140 17 -250t59 -186t112.5 -116t176.5 -40t176 40t112 116t59 186t17 250q0 139 -17 248t-59 183t-112 113t-176 39t-176.5 -39t-112.5 -113t-59 -183t-17 -248zM100 672q0 178 46 307t135 213t218.5 124t297.5 40q162 0 291 -40t219 -124t138 -213t48 -307
t-48 -308.5t-138 -215.5t-219 -126.5t-291 -41.5t-291 41.5t-219.5 126.5t-138.5 215.5t-48 308.5zM796 1454q-77 0 -133 24.5t-93 67.5t-55.5 102t-19.5 129h101q17 -83 68 -117t132 -34q40 0 72.5 7.5t57 25t42 46.5t28.5 72h101q-2 -70 -20 -129t-55 -102t-93 -67.5
t-133 -24.5z" />
    <glyph glyph-name="obreve" unicode="&#x14f;" 
d="M946 475q0 -120 -24.5 -212t-77.5 -155t-136.5 -95.5t-201.5 -32.5q-111 0 -192 32t-133.5 95t-77.5 155.5t-25 212.5q0 119 25 210.5t78 153.5t135.5 94t197.5 32q223 0 327.5 -124.5t104.5 -365.5zM653 475q0 97 -6 170t-22 122t-44 73t-73 24q-44 0 -71 -24t-41.5 -73
t-19.5 -122t-5 -170q0 -98 5 -171.5t19.5 -123.5t41.5 -75t71 -25q45 0 73 25t44 75t22 123.5t6 171.5zM512 1120q-77 0 -133 24.5t-93 67.5t-55.5 102t-19.5 129h101q17 -83 68 -117t132 -34q40 0 72.5 7.5t57 25t42 46.5t28.5 72h101q-2 -70 -20 -129t-55 -102t-93 -67.5
t-133 -24.5z" />
    <glyph glyph-name="Ohungarumlaut" unicode="&#x150;" horiz-adv-x="1593" 
d="M432 672q0 -140 17 -250t59 -186t112.5 -116t176.5 -40t176 40t112 116t59 186t17 250q0 139 -17 248t-59 183t-112 113t-176 39t-176.5 -39t-112.5 -113t-59 -183t-17 -248zM100 672q0 178 46 307t135 213t218.5 124t297.5 40q162 0 291 -40t219 -124t138 -213t48 -307
t-48 -308.5t-138 -215.5t-219 -126.5t-291 -41.5t-291 41.5t-219.5 126.5t-138.5 215.5t-48 308.5zM550 1452v33l138 293h251v-37l-292 -289h-97zM901 1452v33l137 293h252v-37l-293 -289h-96z" />
    <glyph glyph-name="ohungarumlaut" unicode="&#x151;" 
d="M946 475q0 -120 -24.5 -212t-77.5 -155t-136.5 -95.5t-201.5 -32.5q-111 0 -192 32t-133.5 95t-77.5 155.5t-25 212.5q0 119 25 210.5t78 153.5t135.5 94t197.5 32q223 0 327.5 -124.5t104.5 -365.5zM653 475q0 97 -6 170t-22 122t-44 73t-73 24q-44 0 -71 -24t-41.5 -73
t-19.5 -122t-5 -170q0 -98 5 -171.5t19.5 -123.5t41.5 -75t71 -25q45 0 73 25t44 75t22 123.5t6 171.5zM225 1118v33l138 293h251v-37l-292 -289h-97zM576 1118v33l137 293h252v-37l-293 -289h-96z" />
    <glyph glyph-name="OE" unicode="&#x152;" horiz-adv-x="2048" 
d="M113 675q0 178 46 305.5t135 209.5t218.5 120.5t297.5 38.5q38 0 89 -2t107 -6h853v-341h-91l-32 217q-32 4 -79.5 7t-97 4.5t-93 2t-66.5 0.5h-108v-492h263l31 148h89v-412h-89l-31 152h-263v-517h153q62 0 119 1.5t103 3.5t79.5 5t48.5 6l57 248h91l-19 -374h-935
q-51 -3 -97.5 -5t-81.5 -2q-162 0 -291 40t-219.5 123t-138.5 212t-48 307zM445 675q0 -140 17 -248.5t59 -182.5t112.5 -112.5t176.5 -38.5q19 0 42 1t45.5 3t43.5 6t36 9v1117q-16 5 -36.5 8.5t-43 6t-45.5 3.5t-42 1q-106 0 -176.5 -37t-112.5 -110t-59 -180t-17 -246z
" />
    <glyph glyph-name="oe" unicode="&#x153;" horiz-adv-x="1479" 
d="M1046 963q85 0 156 -20t122 -68.5t79.5 -129t28.5 -201.5v-82h-523v-16q0 -67 6.5 -128.5t33.5 -109t80 -75.5t146 -28q61 0 112.5 9t105.5 20v-77q-47 -29 -112 -52.5t-157 -23.5q-126 0 -211.5 36t-139.5 98q-45 -63 -117.5 -99t-184.5 -36q-111 0 -191 32t-131.5 95
t-76 155.5t-24.5 212.5q0 119 24 210.5t76 153.5t134 94t197 32q101 0 170 -32.5t114 -89.5q45 56 114 88t169 32zM613 475q0 97 -5 170t-20 122t-42.5 73t-72.5 24q-44 0 -70 -24t-40 -73t-18 -122t-4 -170q0 -98 4 -171.5t18 -123.5t40 -75t70 -25q45 0 72.5 25t42.5 75
t20 123.5t5 171.5zM1035 862q-39 0 -63.5 -21t-38 -59t-18.5 -93t-5 -122h228q0 67 -2 122t-11.5 93t-30.5 59t-59 21z" />
    <glyph glyph-name="Racute" unicode="&#x154;" horiz-adv-x="1479" 
d="M523 568v-468l172 -27v-73h-647v73l159 27v1142l-172 26v73h641q168 0 281 -27.5t181 -77t97 -118.5t29 -152q0 -63 -14 -120t-45.5 -105t-83 -85t-127.5 -60l358 -496l145 -27v-73h-434l-374 568h-166zM952 964q0 80 -16 131.5t-51 81.5t-90 42t-132 12h-140v-553h145
q79 0 133.5 16t88 50.5t48 88.5t14.5 131zM556 1452v33l166 272h285v-37l-365 -268h-86z" />
    <glyph glyph-name="racute" unicode="&#x155;" horiz-adv-x="909" 
d="M461 745q26 29 64.5 68t84 74t97 59t104.5 24h54v-343h-56l-59 126q-33 0 -72 -8t-77 -21.5t-73.5 -30t-61.5 -32.5v-571l151 -24v-66h-562v66l122 24v760l-122 24v66h395zM343 1118v33l166 272h285v-37l-365 -268h-86z" />
    <glyph glyph-name="Rcommaaccent" unicode="&#x156;" horiz-adv-x="1479" 
d="M523 568v-468l172 -27v-73h-647v73l159 27v1142l-172 26v73h641q168 0 281 -27.5t181 -77t97 -118.5t29 -152q0 -63 -14 -120t-45.5 -105t-83 -85t-127.5 -60l358 -496l145 -27v-73h-434l-374 568h-166zM952 964q0 80 -16 131.5t-51 81.5t-90 42t-132 12h-140v-553h145
q79 0 133.5 16t88 50.5t48 88.5t14.5 131zM917 -238q0 -42 -14 -85t-50 -81.5t-98.5 -69.5t-159.5 -49v69q50 13 79.5 27.5t45 30t20 31t4.5 29.5q0 25 -17.5 41t-39 31t-39 34.5t-17.5 52.5q0 19 7.5 37.5t23.5 33.5t42 24.5t63 9.5q31 0 58.5 -10t48 -31t32 -52t11.5 -73z
" />
    <glyph glyph-name="rcommaaccent" unicode="&#x157;" horiz-adv-x="909" 
d="M461 745q26 29 64.5 68t84 74t97 59t104.5 24h54v-343h-56l-59 126q-33 0 -72 -8t-77 -21.5t-73.5 -30t-61.5 -32.5v-571l151 -24v-66h-562v66l122 24v760l-122 24v66h395zM474 -238q0 -42 -14 -85t-50 -81.5t-98.5 -69.5t-159.5 -49v69q50 13 79.5 27.5t45 30t20 31
t4.5 29.5q0 25 -17.5 41t-39 31t-39 34.5t-17.5 52.5q0 19 7.5 37.5t23.5 33.5t42 24.5t63 9.5q31 0 58.5 -10t48 -31t32 -52t11.5 -73z" />
    <glyph glyph-name="Rcaron" unicode="&#x158;" horiz-adv-x="1479" 
d="M523 568v-468l172 -27v-73h-647v73l159 27v1142l-172 26v73h641q168 0 281 -27.5t181 -77t97 -118.5t29 -152q0 -63 -14 -120t-45.5 -105t-83 -85t-127.5 -60l358 -496l145 -27v-73h-434l-374 568h-166zM952 964q0 80 -16 131.5t-51 81.5t-90 42t-132 12h-140v-553h145
q79 0 133.5 16t88 50.5t48 88.5t14.5 131zM1038 1778v-33l-218 -293h-213l-217 293v33h76l248 -162l248 162h76z" />
    <glyph glyph-name="rcaron" unicode="&#x159;" horiz-adv-x="909" 
d="M461 745q26 29 64.5 68t84 74t97 59t104.5 24h54v-343h-56l-59 126q-33 0 -72 -8t-77 -21.5t-73.5 -30t-61.5 -32.5v-571l151 -24v-66h-562v66l122 24v760l-122 24v66h395zM790 1444v-33l-218 -293h-213l-217 293v33h76l248 -162l248 162h76z" />
    <glyph glyph-name="Sacute" unicode="&#x15a;" horiz-adv-x="1139" 
d="M109 411h88l45 -215q21 -24 53 -44.5t72 -36.5t85.5 -25t92.5 -9q78 0 133 17.5t89 48.5t49.5 74.5t15.5 95.5q0 60 -30.5 99t-81 67t-114.5 49.5t-131.5 45.5t-131.5 55t-114.5 78.5t-81 115.5t-30.5 167q0 177 120.5 269.5t352.5 92.5q49 0 99.5 -3.5t98.5 -9.5t92 -14
t82 -16v-319h-89l-45 184q-44 32 -101 53t-137 21q-68 0 -116.5 -13.5t-79.5 -37.5t-45 -58t-14 -76q0 -54 31 -90t81 -62t114.5 -47t132 -45.5t132 -56t114.5 -79t81 -115.5t31 -165q0 -98 -28 -177t-89 -134.5t-156 -85.5t-230 -30q-65 0 -129 6t-121.5 16t-106.5 23
t-83 26v360zM480 1452v33l166 272h285v-37l-365 -268h-86z" />
    <glyph glyph-name="sacute" unicode="&#x15b;" horiz-adv-x="797" 
d="M747 298q0 -74 -22.5 -133t-69 -100t-117.5 -63t-168 -22q-48 0 -97 6t-91 14.5t-73.5 17t-44.5 13.5v256h66l38 -132q15 -15 37 -29.5t49 -26.5t58 -19t64 -7q87 0 129.5 37.5t42.5 95.5q0 32 -12.5 55t-39.5 41t-68.5 34t-99.5 34q-48 15 -96 37.5t-85.5 58.5t-61 89
t-23.5 130q0 68 26.5 120t72.5 87.5t108 54t133 18.5q70 0 140.5 -9t136.5 -20v-241h-66l-32 110q-13 13 -33 25t-44.5 21t-51.5 14.5t-52 5.5q-72 0 -106.5 -29.5t-34.5 -80.5q0 -33 14.5 -56t43 -41t69 -33t93.5 -31q55 -17 104 -40.5t85.5 -59t57.5 -84.5t21 -118z
M299 1118v33l166 272h285v-37l-365 -268h-86z" />
    <glyph glyph-name="Scircumflex" unicode="&#x15c;" horiz-adv-x="1139" 
d="M109 411h88l45 -215q21 -24 53 -44.5t72 -36.5t85.5 -25t92.5 -9q78 0 133 17.5t89 48.5t49.5 74.5t15.5 95.5q0 60 -30.5 99t-81 67t-114.5 49.5t-131.5 45.5t-131.5 55t-114.5 78.5t-81 115.5t-30.5 167q0 177 120.5 269.5t352.5 92.5q49 0 99.5 -3.5t98.5 -9.5t92 -14
t82 -16v-319h-89l-45 184q-44 32 -101 53t-137 21q-68 0 -116.5 -13.5t-79.5 -37.5t-45 -58t-14 -76q0 -54 31 -90t81 -62t114.5 -47t132 -45.5t132 -56t114.5 -79t81 -115.5t31 -165q0 -98 -28 -177t-89 -134.5t-156 -85.5t-230 -30q-65 0 -129 6t-121.5 16t-106.5 23
t-83 26v360zM245 1452v33l218 293h213l217 -293v-33h-76l-248 162l-248 -162h-76z" />
    <glyph glyph-name="scircumflex" unicode="&#x15d;" horiz-adv-x="797" 
d="M747 298q0 -74 -22.5 -133t-69 -100t-117.5 -63t-168 -22q-48 0 -97 6t-91 14.5t-73.5 17t-44.5 13.5v256h66l38 -132q15 -15 37 -29.5t49 -26.5t58 -19t64 -7q87 0 129.5 37.5t42.5 95.5q0 32 -12.5 55t-39.5 41t-68.5 34t-99.5 34q-48 15 -96 37.5t-85.5 58.5t-61 89
t-23.5 130q0 68 26.5 120t72.5 87.5t108 54t133 18.5q70 0 140.5 -9t136.5 -20v-241h-66l-32 110q-13 13 -33 25t-44.5 21t-51.5 14.5t-52 5.5q-72 0 -106.5 -29.5t-34.5 -80.5q0 -33 14.5 -56t43 -41t69 -33t93.5 -31q55 -17 104 -40.5t85.5 -59t57.5 -84.5t21 -118z
M74 1118v33l218 293h213l217 -293v-33h-76l-248 162l-248 -162h-76z" />
    <glyph glyph-name="Scedilla" unicode="&#x15e;" horiz-adv-x="1139" 
d="M109 411h88l45 -215q21 -24 53 -44.5t72 -36.5t85.5 -25t92.5 -9q78 0 133 17.5t89 48.5t49.5 74.5t15.5 95.5q0 60 -30.5 99t-81 67t-114.5 49.5t-131.5 45.5t-131.5 55t-114.5 78.5t-81 115.5t-30.5 167q0 177 120.5 269.5t352.5 92.5q49 0 99.5 -3.5t98.5 -9.5t92 -14
t82 -16v-319h-89l-45 184q-44 32 -101 53t-137 21q-68 0 -116.5 -13.5t-79.5 -37.5t-45 -58t-14 -76q0 -54 31 -90t81 -62t114.5 -47t132 -45.5t132 -56t114.5 -79t81 -115.5t31 -165q0 -98 -28 -177t-89 -134.5t-156 -85.5t-230 -30q-65 0 -129 6t-121.5 16t-106.5 23
t-83 26v360zM519 -422q-38 0 -82 8t-78 23v90q34 -9 72 -14t63 -5q51 0 71.5 25t20.5 61q0 44 -31 67.5t-100 28.5l51 195h111l-23 -110q41 -6 75 -18t58.5 -32.5t38 -49.5t13.5 -68q0 -50 -20 -87.5t-55 -62.5t-82.5 -38t-102.5 -13z" />
    <glyph glyph-name="scedilla" unicode="&#x15f;" horiz-adv-x="797" 
d="M747 298q0 -74 -22.5 -133t-69 -100t-117.5 -63t-168 -22q-48 0 -97 6t-91 14.5t-73.5 17t-44.5 13.5v256h66l38 -132q15 -15 37 -29.5t49 -26.5t58 -19t64 -7q87 0 129.5 37.5t42.5 95.5q0 32 -12.5 55t-39.5 41t-68.5 34t-99.5 34q-48 15 -96 37.5t-85.5 58.5t-61 89
t-23.5 130q0 68 26.5 120t72.5 87.5t108 54t133 18.5q70 0 140.5 -9t136.5 -20v-241h-66l-32 110q-13 13 -33 25t-44.5 21t-51.5 14.5t-52 5.5q-72 0 -106.5 -29.5t-34.5 -80.5q0 -33 14.5 -56t43 -41t69 -33t93.5 -31q55 -17 104 -40.5t85.5 -59t57.5 -84.5t21 -118z
M348 -422q-38 0 -82 8t-78 23v90q34 -9 72 -14t63 -5q51 0 71.5 25t20.5 61q0 44 -31 67.5t-100 28.5l51 195h111l-23 -110q41 -6 75 -18t58.5 -32.5t38 -49.5t13.5 -68q0 -50 -20 -87.5t-55 -62.5t-82.5 -38t-102.5 -13z" />
    <glyph glyph-name="Scaron" unicode="&#x160;" horiz-adv-x="1139" 
d="M109 411h88l45 -215q21 -24 53 -44.5t72 -36.5t85.5 -25t92.5 -9q78 0 133 17.5t89 48.5t49.5 74.5t15.5 95.5q0 60 -30.5 99t-81 67t-114.5 49.5t-131.5 45.5t-131.5 55t-114.5 78.5t-81 115.5t-30.5 167q0 177 120.5 269.5t352.5 92.5q49 0 99.5 -3.5t98.5 -9.5t92 -14
t82 -16v-319h-89l-45 184q-44 32 -101 53t-137 21q-68 0 -116.5 -13.5t-79.5 -37.5t-45 -58t-14 -76q0 -54 31 -90t81 -62t114.5 -47t132 -45.5t132 -56t114.5 -79t81 -115.5t31 -165q0 -98 -28 -177t-89 -134.5t-156 -85.5t-230 -30q-65 0 -129 6t-121.5 16t-106.5 23
t-83 26v360zM909 1778v-33l-218 -293h-213l-217 293v33h76l248 -162l248 162h76z" />
    <glyph glyph-name="scaron" unicode="&#x161;" horiz-adv-x="797" 
d="M747 298q0 -74 -22.5 -133t-69 -100t-117.5 -63t-168 -22q-48 0 -97 6t-91 14.5t-73.5 17t-44.5 13.5v256h66l38 -132q15 -15 37 -29.5t49 -26.5t58 -19t64 -7q87 0 129.5 37.5t42.5 95.5q0 32 -12.5 55t-39.5 41t-68.5 34t-99.5 34q-48 15 -96 37.5t-85.5 58.5t-61 89
t-23.5 130q0 68 26.5 120t72.5 87.5t108 54t133 18.5q70 0 140.5 -9t136.5 -20v-241h-66l-32 110q-13 13 -33 25t-44.5 21t-51.5 14.5t-52 5.5q-72 0 -106.5 -29.5t-34.5 -80.5q0 -33 14.5 -56t43 -41t69 -33t93.5 -31q55 -17 104 -40.5t85.5 -59t57.5 -84.5t21 -118z
M727 1444v-33l-218 -293h-213l-217 293v33h76l248 -162l248 162h76z" />
    <glyph glyph-name="Tcommaaccent" unicode="&#x162;" horiz-adv-x="1366" 
d="M630 -422q-38 0 -82 8t-78 23v90q34 -9 72 -14t63 -5q51 0 71.5 25t20.5 61q0 44 -31 67.5t-100 28.5l51 195h111l-23 -110q41 -6 75 -18t58.5 -32.5t38 -49.5t13.5 -68q0 -50 -20 -87.5t-55 -62.5t-82.5 -38t-102.5 -13zM310 0v73l213 27v1135h-51q-131 0 -208 -6
t-114 -14l-27 -249h-91v375h1303v-375h-92l-27 249q-37 8 -123.5 13t-204.5 5h-49v-1133l213 -27v-73h-742z" />
    <glyph glyph-name="tcommaaccent" unicode="&#x163;" horiz-adv-x="682" 
d="M348 -422q-38 0 -82 8t-78 23v90q34 -9 72 -14t63 -5q51 0 71.5 25t20.5 61q0 44 -31 67.5t-100 28.5l51 195h111l-23 -110q41 -6 75 -18t58.5 -32.5t38 -49.5t13.5 -68q0 -50 -20 -87.5t-55 -62.5t-82.5 -38t-102.5 -13zM438 -20q-75 0 -128.5 18t-87.5 49.5t-50 75
t-16 94.5v619h-123v65l145 39l117 213h150v-213h198v-104h-198v-601q0 -65 27 -98t71 -33q34 0 67.5 5t62.5 11v-85q-14 -10 -41 -20t-59.5 -17.5t-68 -12.5t-66.5 -5z" />
    <glyph glyph-name="Tcaron" unicode="&#x164;" horiz-adv-x="1366" 
d="M310 0v73l213 27v1135h-51q-131 0 -208 -6t-114 -14l-27 -249h-91v375h1303v-375h-92l-27 249q-37 8 -123.5 13t-204.5 5h-49v-1133l213 -27v-73h-742zM1007 1778v-33l-218 -293h-213l-217 293v33h76l248 -162l248 162h76z" />
    <glyph glyph-name="tcaron" unicode="&#x165;" horiz-adv-x="1067" 
d="M438 -20q-75 0 -128.5 18t-87.5 49.5t-50 75t-16 94.5v619h-123v65l145 39l117 213h150v-213h198v-104h-198v-601q0 -65 27 -98t71 -33q34 0 67.5 5t62.5 11v-85q-14 -10 -41 -20t-59.5 -17.5t-68 -12.5t-66.5 -5zM1048 1263q0 -60 -20 -115t-63 -102t-111 -84.5
t-164 -62.5v80q50 15 84 36t55 43.5t30 44.5t9 39q0 18 -10 29.5t-24.5 20.5t-32 18t-32 22.5t-24.5 33.5t-10 51q0 56 39.5 85t100.5 29q33 0 64 -11t55.5 -32t39 -52.5t14.5 -72.5z" />
    <glyph glyph-name="Tbar" unicode="&#x166;" horiz-adv-x="1366" 
d="M310 0v73l213 27v509h-281v122h281v504h-51q-131 0 -208 -6t-114 -14l-27 -249h-91v375h1303v-375h-92l-27 249q-37 8 -123.5 13t-204.5 5h-49v-502h281v-122h-281v-509l213 -27v-73h-742z" />
    <glyph glyph-name="tbar" unicode="&#x167;" horiz-adv-x="682" 
d="M33 581h123v255h-123v65l145 39l117 213h150v-213h198v-104h-198v-255h198v-104h-198v-242q0 -65 27 -98t71 -33q34 0 67.5 5t62.5 11v-85q-14 -10 -41 -20t-59.5 -17.5t-68 -12.5t-66.5 -5q-75 0 -128.5 18t-87.5 49.5t-50 75t-16 94.5v260h-123v104z" />
    <glyph glyph-name="Utilde" unicode="&#x168;" horiz-adv-x="1479" 
d="M838 122q82 0 141.5 24.5t98 68t56.5 104.5t18 134v789l-180 26v73h456v-73l-152 -26v-781q0 -89 -24.5 -175t-83.5 -154t-159 -109.5t-250 -41.5q-140 0 -244 33.5t-173.5 96.5t-104 153.5t-34.5 204.5v773l-152 26v73h639v-73l-172 -26v-787q0 -76 19 -137.5t58 -105
t99.5 -67t143.5 -23.5zM905 1454q-26 0 -49.5 6.5t-45 16t-40.5 22t-37 24.5q-11 8 -25 19t-29.5 21t-31 17t-29.5 7q-19 0 -30.5 -6t-18.5 -20t-11.5 -36t-8.5 -53h-105q4 56 15 108t35 91.5t63.5 63.5t101.5 24q53 0 95 -21.5t77 -46.5q11 -8 25.5 -18.5t30 -20.5t31 -17
t28.5 -7q18 0 29.5 6t19 19.5t11.5 35t9 51.5h105q-4 -56 -15 -107.5t-35 -91.5t-64 -63.5t-101 -23.5z" />
    <glyph glyph-name="utilde" unicode="&#x169;" horiz-adv-x="1139" 
d="M705 82q-31 -16 -68 -35t-78 -35t-85 -26.5t-89 -10.5q-57 0 -105 15t-82.5 48t-53.5 86t-19 128v598l-94 24v66h383v-649q0 -84 35.5 -131t101.5 -47q76 0 152 34v703l-86 24v66h375v-850l92 -24v-66h-365zM686 1120q-26 0 -49.5 6.5t-45 16t-40.5 22t-37 24.5
q-11 8 -25 19t-29.5 21t-31 17t-29.5 7q-19 0 -30.5 -6t-18.5 -20t-11.5 -36t-8.5 -53h-105q4 56 15 108t35 91.5t63.5 63.5t101.5 24q53 0 95 -21.5t77 -46.5q11 -8 25.5 -18.5t30 -20.5t31 -17t28.5 -7q18 0 29.5 6t19 19.5t11.5 35t9 51.5h105q-4 -56 -15 -107.5
t-35 -91.5t-64 -63.5t-101 -23.5z" />
    <glyph glyph-name="Umacron" unicode="&#x16a;" horiz-adv-x="1479" 
d="M838 122q82 0 141.5 24.5t98 68t56.5 104.5t18 134v789l-180 26v73h456v-73l-152 -26v-781q0 -89 -24.5 -175t-83.5 -154t-159 -109.5t-250 -41.5q-140 0 -244 33.5t-173.5 96.5t-104 153.5t-34.5 204.5v773l-152 26v73h639v-73l-172 -26v-787q0 -76 19 -137.5t58 -105
t99.5 -67t143.5 -23.5zM476 1455v150h628v-150h-628z" />
    <glyph glyph-name="umacron" unicode="&#x16b;" horiz-adv-x="1139" 
d="M705 82q-31 -16 -68 -35t-78 -35t-85 -26.5t-89 -10.5q-57 0 -105 15t-82.5 48t-53.5 86t-19 128v598l-94 24v66h383v-649q0 -84 35.5 -131t101.5 -47q76 0 152 34v703l-86 24v66h375v-850l92 -24v-66h-365zM245 1121v150h628v-150h-628z" />
    <glyph glyph-name="Ubreve" unicode="&#x16c;" horiz-adv-x="1479" 
d="M838 122q82 0 141.5 24.5t98 68t56.5 104.5t18 134v789l-180 26v73h456v-73l-152 -26v-781q0 -89 -24.5 -175t-83.5 -154t-159 -109.5t-250 -41.5q-140 0 -244 33.5t-173.5 96.5t-104 153.5t-34.5 204.5v773l-152 26v73h639v-73l-172 -26v-787q0 -76 19 -137.5t58 -105
t99.5 -67t143.5 -23.5zM763 1454q-77 0 -133 24.5t-93 67.5t-55.5 102t-19.5 129h101q17 -83 68 -117t132 -34q40 0 72.5 7.5t57 25t42 46.5t28.5 72h101q-2 -70 -20 -129t-55 -102t-93 -67.5t-133 -24.5z" />
    <glyph glyph-name="ubreve" unicode="&#x16d;" horiz-adv-x="1139" 
d="M705 82q-31 -16 -68 -35t-78 -35t-85 -26.5t-89 -10.5q-57 0 -105 15t-82.5 48t-53.5 86t-19 128v598l-94 24v66h383v-649q0 -84 35.5 -131t101.5 -47q76 0 152 34v703l-86 24v66h375v-850l92 -24v-66h-365zM560 1120q-77 0 -133 24.5t-93 67.5t-55.5 102t-19.5 129h101
q17 -83 68 -117t132 -34q40 0 72.5 7.5t57 25t42 46.5t28.5 72h101q-2 -70 -20 -129t-55 -102t-93 -67.5t-133 -24.5z" />
    <glyph glyph-name="Uring" unicode="&#x16e;" horiz-adv-x="1479" 
d="M838 122q82 0 141.5 24.5t98 68t56.5 104.5t18 134v789l-180 26v73h456v-73l-152 -26v-781q0 -89 -24.5 -175t-83.5 -154t-159 -109.5t-250 -41.5q-140 0 -244 33.5t-173.5 96.5t-104 153.5t-34.5 204.5v773l-152 26v73h639v-73l-172 -26v-787q0 -76 19 -137.5t58 -105
t99.5 -67t143.5 -23.5zM805 1393q-45 0 -83.5 17t-67 46t-44.5 67.5t-16 82.5t16 82.5t44.5 67t67 45t83.5 16.5t83.5 -16.5t67 -45t44.5 -67t16 -82.5t-16 -82.5t-44.5 -67.5t-67 -46t-83.5 -17zM805 1705q-20 0 -37.5 -8t-31 -21.5t-21.5 -31.5t-8 -38t8 -37.5t21.5 -31
t31 -21.5t37.5 -8t37.5 8t31 21.5t21.5 31t8 37.5t-8 38t-21.5 31.5t-31 21.5t-37.5 8z" />
    <glyph glyph-name="uring" unicode="&#x16f;" horiz-adv-x="1139" 
d="M705 82q-31 -16 -68 -35t-78 -35t-85 -26.5t-89 -10.5q-57 0 -105 15t-82.5 48t-53.5 86t-19 128v598l-94 24v66h383v-649q0 -84 35.5 -131t101.5 -47q76 0 152 34v703l-86 24v66h375v-850l92 -24v-66h-365zM560 1059q-45 0 -83.5 17t-67 46t-44.5 67.5t-16 82.5t16 82.5
t44.5 67t67 45t83.5 16.5t83.5 -16.5t67 -45t44.5 -67t16 -82.5t-16 -82.5t-44.5 -67.5t-67 -46t-83.5 -17zM560 1371q-20 0 -37.5 -8t-31 -21.5t-21.5 -31.5t-8 -38t8 -37.5t21.5 -31t31 -21.5t37.5 -8t37.5 8t31 21.5t21.5 31t8 37.5t-8 38t-21.5 31.5t-31 21.5t-37.5 8z
" />
    <glyph glyph-name="Uhungarumlaut" unicode="&#x170;" horiz-adv-x="1479" 
d="M838 122q82 0 141.5 24.5t98 68t56.5 104.5t18 134v789l-180 26v73h456v-73l-152 -26v-781q0 -89 -24.5 -175t-83.5 -154t-159 -109.5t-250 -41.5q-140 0 -244 33.5t-173.5 96.5t-104 153.5t-34.5 204.5v773l-152 26v73h639v-73l-172 -26v-787q0 -76 19 -137.5t58 -105
t99.5 -67t143.5 -23.5zM472 1452v33l138 293h251v-37l-292 -289h-97zM823 1452v33l137 293h252v-37l-293 -289h-96z" />
    <glyph glyph-name="uhungarumlaut" unicode="&#x171;" horiz-adv-x="1139" 
d="M705 82q-31 -16 -68 -35t-78 -35t-85 -26.5t-89 -10.5q-57 0 -105 15t-82.5 48t-53.5 86t-19 128v598l-94 24v66h383v-649q0 -84 35.5 -131t101.5 -47q76 0 152 34v703l-86 24v66h375v-850l92 -24v-66h-365zM250 1118v33l138 293h251v-37l-292 -289h-97zM601 1118v33
l137 293h252v-37l-293 -289h-96z" />
    <glyph glyph-name="Uogonek" unicode="&#x172;" horiz-adv-x="1479" 
d="M838 122q82 0 141.5 24.5t98 68t56.5 104.5t18 134v789l-180 26v73h456v-73l-152 -26v-781q0 -89 -24.5 -175t-83.5 -154t-159 -109.5t-250 -41.5q-140 0 -244 33.5t-173.5 96.5t-104 153.5t-34.5 204.5v773l-152 26v73h639v-73l-172 -26v-787q0 -76 19 -137.5t58 -105
t99.5 -67t143.5 -23.5zM906 -430q-62 0 -106.5 16.5t-73 45.5t-42 68.5t-13.5 84.5q0 38 11 73t29.5 64t42.5 52.5t50 39.5h127q-32 -46 -53 -101t-21 -112q0 -58 29 -89.5t83 -31.5q38 0 70.5 8t67.5 21v-85q-42 -25 -92 -39.5t-109 -14.5z" />
    <glyph glyph-name="uogonek" unicode="&#x173;" horiz-adv-x="1139" 
d="M705 82q-31 -16 -68 -35t-78 -35t-85 -26.5t-89 -10.5q-57 0 -105 15t-82.5 48t-53.5 86t-19 128v598l-94 24v66h383v-649q0 -84 35.5 -131t101.5 -47q76 0 152 34v703l-86 24v66h375v-850l92 -24v-66h-365zM843 -430q-62 0 -106.5 16.5t-73 45.5t-42 68.5t-13.5 84.5
q0 38 11 73t29.5 64t42.5 52.5t50 39.5h127q-32 -46 -53 -101t-21 -112q0 -58 29 -89.5t83 -31.5q38 0 70.5 8t67.5 21v-85q-42 -25 -92 -39.5t-109 -14.5z" />
    <glyph glyph-name="Wcircumflex" unicode="&#x174;" horiz-adv-x="2048" 
d="M1899 1242l-398 -1273h-123l-334 827l-331 -827h-123l-444 1273l-117 26v73h602v-73l-157 -26l286 -799l314 784h125l315 -782l237 797l-169 26v73h434v-73zM781 1452v33l218 293h213l217 -293v-33h-76l-248 162l-248 -162h-76z" />
    <glyph glyph-name="wcircumflex" unicode="&#x175;" horiz-adv-x="1479" 
d="M874 846l217 -535l182 539l-110 24v66h305v-66l-72 -20l-316 -874h-121l-215 527l-214 -527h-121l-333 870l-70 24v66h465v-66l-112 -26l202 -537l218 535h95zM471 1118v33l218 293h213l217 -293v-33h-76l-248 162l-248 -162h-76z" />
    <glyph glyph-name="Ycircumflex" unicode="&#x176;" horiz-adv-x="1479" 
d="M911 528v-428l213 -27v-73h-742v73l213 27v422l-408 720l-151 26v73h690v-73l-180 -26l306 -562l296 562l-164 26v73h456v-73l-142 -26zM427 1452v33l218 293h213l217 -293v-33h-76l-248 162l-248 -162h-76z" />
    <glyph glyph-name="ycircumflex" unicode="&#x177;" 
d="M462 -29l-376 879l-66 24v66h481v-66l-112 -26l221 -520l197 522l-110 24v66h307v-66l-68 -20l-371 -913q-32 -82 -65 -152t-73.5 -121.5t-92.5 -80.5t-121 -29q-28 0 -48.5 1t-39 3.5t-37 6t-40.5 8.5v242h60l43 -126q14 -11 31.5 -17t42.5 -6q41 0 71.5 21t55.5 56.5
t46.5 83t45.5 100.5zM195 1118v33l218 293h213l217 -293v-33h-76l-248 162l-248 -162h-76z" />
    <glyph glyph-name="Ydieresis" unicode="&#x178;" horiz-adv-x="1479" 
d="M911 528v-428l213 -27v-73h-742v73l213 27v422l-408 720l-151 26v73h690v-73l-180 -26l306 -562l296 562l-164 26v73h456v-73l-142 -26zM950 1464q-25 0 -47 10t-38.5 26.5t-26 38.5t-9.5 46q0 25 9.5 46.5t26 37.5t38.5 25.5t47 9.5t47 -9.5t38 -25.5t25 -37.5t9 -46.5
q0 -24 -9 -46t-25 -38.5t-38 -26.5t-47 -10zM614 1464q-24 0 -46 10t-38.5 26.5t-26.5 38.5t-10 46q0 25 10 46.5t26.5 37.5t38.5 25.5t46 9.5q25 0 46.5 -9.5t37.5 -25.5t25.5 -37.5t9.5 -46.5q0 -24 -9 -46t-25 -38.5t-38 -26.5t-47 -10z" />
    <glyph glyph-name="Zacute" unicode="&#x179;" horiz-adv-x="1366" 
d="M98 114l742 1121h-240q-131 0 -207 -6t-113 -14l-31 -211h-89v337h1036v-106l-747 -1131h280q65 0 126.5 3.5t112.5 9t89 11t56 9.5l59 256h90l-27 -393h-1137v114zM533 1452v33l166 272h285v-37l-365 -268h-86z" />
    <glyph glyph-name="zacute" unicode="&#x17a;" horiz-adv-x="909" 
d="M40 0v45l432 805h-107q-28 0 -55.5 -2.5t-52 -7t-43.5 -11t-29 -14.5l-31 -155h-72v280h730v-49l-432 -801h150q27 0 57.5 3.5t59 9.5t53 14.5t39.5 19.5l53 217h72l-27 -354h-797zM310 1118v33l166 272h285v-37l-365 -268h-86z" />
    <glyph glyph-name="Zdotaccent" unicode="&#x17b;" horiz-adv-x="1366" 
d="M98 114l742 1121h-240q-131 0 -207 -6t-113 -14l-31 -211h-89v337h1036v-106l-747 -1131h280q65 0 126.5 3.5t112.5 9t89 11t56 9.5l59 256h90l-27 -393h-1137v114zM529 1602q0 32 12 60t33 48.5t49 32.5t60 12t60 -12t48.5 -32.5t32.5 -48.5t12 -60t-12 -60t-32.5 -49
t-48.5 -33t-60 -12t-60 12t-49 33t-33 49t-12 60z" />
    <glyph glyph-name="zdotaccent" unicode="&#x17c;" horiz-adv-x="909" 
d="M40 0v45l432 805h-107q-28 0 -55.5 -2.5t-52 -7t-43.5 -11t-29 -14.5l-31 -155h-72v280h730v-49l-432 -801h150q27 0 57.5 3.5t59 9.5t53 14.5t39.5 19.5l53 217h72l-27 -354h-797zM301 1268q0 32 12 60t33 48.5t49 32.5t60 12t60 -12t48.5 -32.5t32.5 -48.5t12 -60
t-12 -60t-32.5 -49t-48.5 -33t-60 -12t-60 12t-49 33t-33 49t-12 60z" />
    <glyph glyph-name="Zcaron" unicode="&#x17d;" horiz-adv-x="1366" 
d="M98 114l742 1121h-240q-131 0 -207 -6t-113 -14l-31 -211h-89v337h1036v-106l-747 -1131h280q65 0 126.5 3.5t112.5 9t89 11t56 9.5l59 256h90l-27 -393h-1137v114zM1015 1778v-33l-218 -293h-213l-217 293v33h76l248 -162l248 162h76z" />
    <glyph glyph-name="zcaron" unicode="&#x17e;" horiz-adv-x="909" 
d="M40 0v45l432 805h-107q-28 0 -55.5 -2.5t-52 -7t-43.5 -11t-29 -14.5l-31 -155h-72v280h730v-49l-432 -801h150q27 0 57.5 3.5t59 9.5t53 14.5t39.5 19.5l53 217h72l-27 -354h-797zM781 1444v-33l-218 -293h-213l-217 293v33h76l248 -162l248 162h76z" />
    <glyph glyph-name="longs" unicode="&#x17f;" horiz-adv-x="569" 
d="M109 1045q0 99 26 173.5t74.5 124t119 74.5t159.5 25q22 0 45.5 -1.5t46 -4t41.5 -6t33 -7.5v-224h-64l-29 109q-9 9 -24.5 16.5t-38.5 7.5q-22 0 -40.5 -13.5t-31.5 -44t-20.5 -79t-7.5 -118.5v-987l153 -24v-66h-544v66l102 24v955z" />
    <glyph glyph-name="florin" unicode="&#x192;" 
d="M180 -285l137 978h-169l13 69l171 34l33 236q11 79 42.5 140.5t79 103.5t107.5 64t128 22q117 0 196 -19v-224h-64l-28 113q-11 8 -27 14t-38 6t-39 -12t-31 -39.5t-25 -71.5t-20 -108l-32 -224h239l-15 -104h-239l-137 -978h-282z" />
    <glyph glyph-name="Aringacute" unicode="&#x1fa;" horiz-adv-x="1479" 
d="M428 73v-73h-408v73l100 27l477 1252h290l475 -1252l102 -27v-73h-597v73l155 27l-128 347h-515l-123 -347zM641 1150l-221 -593h436zM732 1272q-45 0 -83.5 17t-67 46t-44.5 67.5t-16 82.5t16 82.5t44.5 67t67 45t83.5 16.5t83.5 -16.5t67 -45t44.5 -67t16 -82.5
t-16 -82.5t-44.5 -67.5t-67 -46t-83.5 -17zM732 1584q-20 0 -37.5 -8t-31 -21.5t-21.5 -31.5t-8 -38t8 -37.5t21.5 -31t31 -21.5t37.5 -8t37.5 8t31 21.5t21.5 31t8 37.5t-8 38t-21.5 31.5t-31 21.5t-37.5 8zM628 1759v33l166 272h285v-37l-365 -268h-86z" />
    <glyph glyph-name="aringacute" unicode="&#x1fb;" 
d="M546 961q77 0 142 -13t112 -43.5t73 -80.5t26 -123v-611l94 -24v-66h-346l-22 72q-19 -13 -44.5 -29t-58.5 -30t-74 -23.5t-91 -9.5q-82 0 -137.5 21t-89.5 58.5t-49 89t-15 111.5q0 97 34 155t91.5 89.5t134 41.5t162.5 12l122 3v137q0 83 -34 126.5t-105 43.5
q-55 0 -100.5 -15.5t-87.5 -36.5l-38 -117h-66v227q46 7 87.5 13t84.5 11t90.5 8t104.5 3zM610 472l-84 -3q-44 -2 -76 -12t-53.5 -33.5t-32 -61.5t-10.5 -96q0 -85 30 -125t78 -40t82 10.5t66 24.5v336zM518 1059q-45 0 -83.5 17t-67 46t-44.5 67.5t-16 82.5t16 82.5
t44.5 67t67 45t83.5 16.5t83.5 -16.5t67 -45t44.5 -67t16 -82.5t-16 -82.5t-44.5 -67.5t-67 -46t-83.5 -17zM518 1371q-20 0 -37.5 -8t-31 -21.5t-21.5 -31.5t-8 -38t8 -37.5t21.5 -31t31 -21.5t37.5 -8t37.5 8t31 21.5t21.5 31t8 37.5t-8 38t-21.5 31.5t-31 21.5t-37.5 8z
M413 1563v33l166 272h285v-37l-365 -268h-86z" />
    <glyph glyph-name="AEacute" unicode="&#x1fc;" horiz-adv-x="2048" 
d="M827 1252l-143 18v71h1174v-341h-91l-32 217q-32 4 -68 7t-72 4.5t-68.5 2t-55.5 0.5h-200v-492h283l31 148h89v-412h-89l-31 152h-283v-517h245q62 0 107.5 1.5t78.5 3.5t55 5t37 6l57 248h91l-19 -374h-1139v73l172 27v347h-461l-205 -347l152 -27v-73h-428v73l122 27z
M956 557v679l-396 -679h396zM1108 1452v33l166 272h285v-37l-365 -268h-86z" />
    <glyph glyph-name="aeacute" unicode="&#x1fd;" horiz-adv-x="1479" 
d="M988 965q84 0 159 -20.5t131.5 -69t89.5 -129.5t33 -202v-82h-523v-53q1 -56 10 -110.5t37.5 -97.5t81.5 -69.5t142 -26.5q25 0 53 2.5t56 6.5t54 9t48 11v-77q-21 -14 -52.5 -28t-69.5 -24.5t-81 -17t-87 -6.5q-136 0 -221.5 31.5t-138.5 92.5q-29 -23 -64.5 -45.5
t-80 -40t-97 -28.5t-113.5 -11q-83 0 -138.5 21t-89 58.5t-47.5 89t-14 111.5q0 65 17 112t47.5 79.5t72 52.5t90 31.5t102 16t108.5 6.5l99 3v135q0 38 -6.5 69.5t-22.5 54.5t-43 35.5t-67 12.5q-47 0 -94.5 -14.5t-85.5 -36.5l-39 -118h-65v226q34 7 74.5 13.5t84 11.5
t88.5 8t88 3q75 0 133.5 -16t98.5 -54q45 36 105 55t137 19zM466 101q56 0 103 18.5t92 44.5q-8 10 -18.5 31.5t-19.5 54t-15 75t-6 95.5v52l-74 -3q-40 -2 -72.5 -10.5t-55 -30.5t-34.5 -61t-12 -101q0 -85 32 -125t80 -40zM1004 862q-38 0 -62.5 -21t-38.5 -59t-19 -93
t-5 -122h228q0 79 -5 135.5t-17 91.5t-32 51.5t-49 16.5zM603 1118v33l166 272h285v-37l-365 -268h-86z" />
    <glyph glyph-name="Oslashacute" unicode="&#x1fe;" horiz-adv-x="1593" 
d="M291 144q-93 85 -142 215.5t-49 312.5q0 178 46 307t135 213t218.5 124t297.5 40q125 0 229 -23.5t187 -71.5l108 130h145l-162 -197q92 -84 140.5 -213t48.5 -309q0 -178 -48 -308.5t-138 -215.5t-219 -126.5t-291 -41.5q-124 0 -227 23.5t-187 71.5l-107 -130h-149z
M432 672q0 -94 7 -173.5t24 -145.5l621 751q-42 74 -111.5 112.5t-175.5 38.5t-176.5 -39t-112.5 -113t-59 -183t-17 -248zM1161 672q0 91 -7 169t-24 142l-619 -752q42 -74 111.5 -112.5t174.5 -38.5q106 0 176 40t112 116t59 186t17 250zM695 1452v33l166 272h285v-37
l-365 -268h-86z" />
    <glyph glyph-name="oslashacute" unicode="&#x1ff;" 
d="M192 94q-59 63 -86.5 158t-27.5 223q0 119 25 210.5t78 153.5t135.5 94t197.5 32q144 0 239 -53l75 110h124l-118 -173q57 -62 84.5 -155.5t27.5 -218.5q0 -120 -24.5 -212t-77.5 -155t-136.5 -95.5t-201.5 -32.5q-137 0 -231 50l-77 -114h-128zM371 475v-61t2 -56
l260 380q-15 63 -44.5 94.5t-80.5 31.5q-44 0 -71 -24t-41.5 -73t-19.5 -122t-5 -170zM653 475q0 29 -0.5 55t-1.5 51l-261 -382q14 -60 42 -89.5t76 -29.5q45 0 73 25t44 75t22 123.5t6 171.5zM375 1118v33l166 272h285v-37l-365 -268h-86z" />
    <glyph glyph-name="Scommaaccent" unicode="&#x218;" horiz-adv-x="1139" 
d="M764 -238q0 -42 -14 -85t-50 -81.5t-98.5 -69.5t-159.5 -49v69q50 13 79.5 27.5t45 30t20 31t4.5 29.5q0 25 -17.5 41t-39 31t-39 34.5t-17.5 52.5q0 19 7.5 37.5t23.5 33.5t42 24.5t63 9.5q31 0 58.5 -10t48 -31t32 -52t11.5 -73zM109 411h88l45 -215q21 -24 53 -44.5
t72 -36.5t85.5 -25t92.5 -9q78 0 133 17.5t89 48.5t49.5 74.5t15.5 95.5q0 60 -30.5 99t-81 67t-114.5 49.5t-131.5 45.5t-131.5 55t-114.5 78.5t-81 115.5t-30.5 167q0 177 120.5 269.5t352.5 92.5q49 0 99.5 -3.5t98.5 -9.5t92 -14t82 -16v-319h-89l-45 184
q-44 32 -101 53t-137 21q-68 0 -116.5 -13.5t-79.5 -37.5t-45 -58t-14 -76q0 -54 31 -90t81 -62t114.5 -47t132 -45.5t132 -56t114.5 -79t81 -115.5t31 -165q0 -98 -28 -177t-89 -134.5t-156 -85.5t-230 -30q-65 0 -129 6t-121.5 16t-106.5 23t-83 26v360z" />
    <glyph glyph-name="scommaaccent" unicode="&#x219;" horiz-adv-x="797" 
d="M502 -238q0 -42 -14 -85t-50 -81.5t-98.5 -69.5t-159.5 -49v69q50 13 79.5 27.5t45 30t20 31t4.5 29.5q0 25 -17.5 41t-39 31t-39 34.5t-17.5 52.5q0 19 7.5 37.5t23.5 33.5t42 24.5t63 9.5q31 0 58.5 -10t48 -31t32 -52t11.5 -73zM747 298q0 -74 -22.5 -133t-69 -100
t-117.5 -63t-168 -22q-48 0 -97 6t-91 14.5t-73.5 17t-44.5 13.5v256h66l38 -132q15 -15 37 -29.5t49 -26.5t58 -19t64 -7q87 0 129.5 37.5t42.5 95.5q0 32 -12.5 55t-39.5 41t-68.5 34t-99.5 34q-48 15 -96 37.5t-85.5 58.5t-61 89t-23.5 130q0 68 26.5 120t72.5 87.5
t108 54t133 18.5q70 0 140.5 -9t136.5 -20v-241h-66l-32 110q-13 13 -33 25t-44.5 21t-51.5 14.5t-52 5.5q-72 0 -106.5 -29.5t-34.5 -80.5q0 -33 14.5 -56t43 -41t69 -33t93.5 -31q55 -17 104 -40.5t85.5 -59t57.5 -84.5t21 -118z" />
    <glyph glyph-name="uni021A" unicode="&#x21a;" horiz-adv-x="1366" 
d="M832 -238q0 -42 -14 -85t-50 -81.5t-98.5 -69.5t-159.5 -49v69q50 13 79.5 27.5t45 30t20 31t4.5 29.5q0 25 -17.5 41t-39 31t-39 34.5t-17.5 52.5q0 19 7.5 37.5t23.5 33.5t42 24.5t63 9.5q31 0 58.5 -10t48 -31t32 -52t11.5 -73zM310 0v73l213 27v1135h-51
q-131 0 -208 -6t-114 -14l-27 -249h-91v375h1303v-375h-92l-27 249q-37 8 -123.5 13t-204.5 5h-49v-1133l213 -27v-73h-742z" />
    <glyph glyph-name="uni021B" unicode="&#x21b;" horiz-adv-x="682" 
d="M502 -238q0 -42 -14 -85t-50 -81.5t-98.5 -69.5t-159.5 -49v69q50 13 79.5 27.5t45 30t20 31t4.5 29.5q0 25 -17.5 41t-39 31t-39 34.5t-17.5 52.5q0 19 7.5 37.5t23.5 33.5t42 24.5t63 9.5q31 0 58.5 -10t48 -31t32 -52t11.5 -73zM438 -20q-75 0 -128.5 18t-87.5 49.5
t-50 75t-16 94.5v619h-123v65l145 39l117 213h150v-213h198v-104h-198v-601q0 -65 27 -98t71 -33q34 0 67.5 5t62.5 11v-85q-14 -10 -41 -20t-59.5 -17.5t-68 -12.5t-66.5 -5z" />
    <glyph glyph-name="circumflex" unicode="&#x2c6;" horiz-adv-x="682" 
d="M18 1118v33l218 293h213l217 -293v-33h-76l-248 162l-248 -162h-76z" />
    <glyph glyph-name="caron" unicode="&#x2c7;" horiz-adv-x="682" 
d="M666 1444v-33l-218 -293h-213l-217 293v33h76l248 -162l248 162h76z" />
    <glyph glyph-name="uni02C9" unicode="&#x2c9;" horiz-adv-x="682" 
d="M27 1121v150h628v-150h-628z" />
    <glyph glyph-name="breve" unicode="&#x2d8;" horiz-adv-x="682" 
d="M340 1120q-77 0 -133 24.5t-93 67.5t-55.5 102t-19.5 129h101q17 -83 68 -117t132 -34q40 0 72.5 7.5t57 25t42 46.5t28.5 72h101q-2 -70 -20 -129t-55 -102t-93 -67.5t-133 -24.5z" />
    <glyph glyph-name="dotaccent" unicode="&#x2d9;" horiz-adv-x="682" 
d="M189 1268q0 32 12 60t33 48.5t49 32.5t60 12t60 -12t48.5 -32.5t32.5 -48.5t12 -60t-12 -60t-32.5 -49t-48.5 -33t-60 -12t-60 12t-49 33t-33 49t-12 60z" />
    <glyph glyph-name="ring" unicode="&#x2da;" horiz-adv-x="682" 
d="M342 1059q-45 0 -83.5 17t-67 46t-44.5 67.5t-16 82.5t16 82.5t44.5 67t67 45t83.5 16.5t83.5 -16.5t67 -45t44.5 -67t16 -82.5t-16 -82.5t-44.5 -67.5t-67 -46t-83.5 -17zM342 1371q-20 0 -37.5 -8t-31 -21.5t-21.5 -31.5t-8 -38t8 -37.5t21.5 -31t31 -21.5t37.5 -8
t37.5 8t31 21.5t21.5 31t8 37.5t-8 38t-21.5 31.5t-31 21.5t-37.5 8z" />
    <glyph glyph-name="ogonek" unicode="&#x2db;" horiz-adv-x="682" 
d="M346 -430q-62 0 -106.5 16.5t-73 45.5t-42 68.5t-13.5 84.5q0 38 11 73t29.5 64t42.5 52.5t50 39.5h127q-32 -46 -53 -101t-21 -112q0 -58 29 -89.5t83 -31.5q38 0 70.5 8t67.5 21v-85q-42 -25 -92 -39.5t-109 -14.5z" />
    <glyph glyph-name="tilde" unicode="&#x2dc;" horiz-adv-x="682" 
d="M465 1120q-26 0 -49.5 6.5t-45 16t-40.5 22t-37 24.5q-11 8 -25 19t-29.5 21t-31 17t-29.5 7q-19 0 -30.5 -6t-18.5 -20t-11.5 -36t-8.5 -53h-105q4 56 15 108t35 91.5t63.5 63.5t101.5 24q53 0 95 -21.5t77 -46.5q11 -8 25.5 -18.5t30 -20.5t31 -17t28.5 -7q18 0 29.5 6
t19 19.5t11.5 35t9 51.5h105q-4 -56 -15 -107.5t-35 -91.5t-64 -63.5t-101 -23.5z" />
    <glyph glyph-name="hungarumlaut" unicode="&#x2dd;" horiz-adv-x="682" 
d="M-29 1118v33l138 293h251v-37l-292 -289h-97zM322 1118v33l137 293h252v-37l-293 -289h-96z" />
    <glyph glyph-name="tonos" unicode="&#x384;" horiz-adv-x="682" 
d="M248 1118v33l63 371h285v-37l-262 -367h-86z" />
    <glyph glyph-name="dieresistonos" unicode="&#x385;" horiz-adv-x="682" 
d="M583 1132q-22 0 -42 8.5t-35 23.5t-23.5 35t-8.5 42t8.5 41.5t23.5 34t35 23t42 8.5q23 0 42.5 -8.5t34 -23t22.5 -34t8 -41.5t-8 -42t-22.5 -35t-34 -23.5t-42.5 -8.5zM101 1132q-22 0 -42 8.5t-35 23.5t-23.5 35t-8.5 42t8.5 41.5t23.5 34t35 23t42 8.5t41.5 -8.5
t34 -23t23 -34t8.5 -41.5t-8 -42t-22.5 -35t-34 -23.5t-42.5 -8.5zM244 1118v33l63 371h242v-37l-219 -367h-86z" />
    <glyph glyph-name="Alphatonos" unicode="&#x386;" horiz-adv-x="1479" 
d="M428 73v-73h-408v73l100 27l477 1252h290l475 -1252l102 -27v-73h-597v73l155 27l-128 347h-515l-123 -347zM641 1150l-221 -593h436zM99 938v33l63 371h285v-37l-262 -367h-86z" />
    <glyph glyph-name="anoteleia" unicode="&#x387;" horiz-adv-x="682" 
d="M341 511q-35 0 -65 13t-52.5 35.5t-35.5 52.5t-13 65q0 34 13 64.5t35.5 53t52.5 35.5t65 13q34 0 64.5 -13t53 -35.5t35.5 -53t13 -64.5q0 -35 -13 -65t-35.5 -52.5t-53 -35.5t-64.5 -13z" />
    <glyph glyph-name="Epsilontonos" unicode="&#x388;" horiz-adv-x="1636" 
d="M305 73l172 27v1142l-172 26v73h1142v-341h-91l-32 217q-32 4 -77.5 7t-92.5 4.5t-89 2t-65 0.5h-208v-492h351l31 148h89v-412h-89l-31 152h-351v-517h253q62 0 117 1.5t99 3.5t75.5 5t46.5 6l57 248h91l-19 -374h-1207v73zM-83 938v33l63 371h285v-37l-262 -367h-86z
" />
    <glyph glyph-name="Etatonos" unicode="&#x389;" horiz-adv-x="1862" 
d="M304 0v74l172 26v1141l-172 27v73h659v-73l-172 -27v-496h548v496l-172 27v73h661v-73l-173 -27v-1141l173 -26v-74h-661v74l172 26v535h-548v-535l172 -26v-74h-659zM-83 938v33l63 371h285v-37l-262 -367h-86z" />
    <glyph glyph-name="Iotatonos" unicode="&#x38a;" horiz-adv-x="1069" 
d="M828 100l172 -26v-74h-659v74l172 26v1141l-172 27v73h659v-73l-172 -27v-1141zM-73 938v33l63 371h285v-37l-262 -367h-86z" />
    <glyph glyph-name="Omicrontonos" unicode="&#x38c;" horiz-adv-x="1593" 
d="M432 672q0 -140 17 -250t59 -186t112.5 -116t176.5 -40t176 40t112 116t59 186t17 250q0 139 -17 248t-59 183t-112 113t-176 39t-176.5 -39t-112.5 -113t-59 -183t-17 -248zM100 672q0 178 46 307t135 213t218.5 124t297.5 40q162 0 291 -40t219 -124t138 -213t48 -307
t-48 -308.5t-138 -215.5t-219 -126.5t-291 -41.5t-291 41.5t-219.5 126.5t-138.5 215.5t-48 308.5zM-133 938v33l63 371h285v-37l-262 -367h-86z" />
    <glyph glyph-name="Upsilontonos" unicode="&#x38e;" horiz-adv-x="1771" 
d="M1203 528v-428l213 -27v-73h-742v73l213 27v422l-408 720l-151 26v73h690v-73l-180 -26l306 -562l296 562l-164 26v73h456v-73l-142 -26zM-61 938v33l63 371h285v-37l-262 -367h-86z" />
    <glyph glyph-name="Omegatonos" unicode="&#x38f;" horiz-adv-x="1640" 
d="M821 1255q-110 0 -185.5 -34t-122 -91.5t-67 -133t-20.5 -159.5q0 -79 16 -147.5t51.5 -122t91 -88.5t133.5 -47l23 -432h-625l-23 384h86l61 -128q30 -6 97 -11t161 -5h109l-5 105q-112 16 -205 54.5t-160.5 99.5t-105 145t-37.5 193q0 124 48 220.5t141 163t228.5 101
t309.5 34.5t309.5 -34.5t228.5 -101t141 -163t48 -220.5q0 -109 -37.5 -193t-105 -145t-160.5 -99.5t-205 -54.5l-5 -105h109q94 0 161 5t97 11l61 128h86l-23 -384h-625l23 432q78 12 133.5 47t91 88.5t51.5 122t16 147.5q0 84 -20.5 159.5t-67 133t-122 91.5t-185.5 34z
M-164 938v33l63 371h285v-37l-262 -367h-86z" />
    <glyph glyph-name="iotadieresistonos" unicode="&#x390;" horiz-adv-x="635" 
d="M399 -20q-75 0 -124 19.5t-77.5 53t-39.5 78.5t-11 96v623l-116 24v66h405v-714q0 -68 23.5 -95t65.5 -27q26 0 44.5 3t44.5 10v-82q-14 -10 -38 -20t-53 -17.5t-61 -12.5t-63 -5zM551 1132q-22 0 -42 8.5t-35 23.5t-23.5 35t-8.5 42t8.5 41.5t23.5 34t35 23t42 8.5
q23 0 42.5 -8.5t34 -23t22.5 -34t8 -41.5t-8 -42t-22.5 -35t-34 -23.5t-42.5 -8.5zM69 1132q-22 0 -42 8.5t-35 23.5t-23.5 35t-8.5 42t8.5 41.5t23.5 34t35 23t42 8.5t41.5 -8.5t34 -23t23 -34t8.5 -41.5t-8 -42t-22.5 -35t-34 -23.5t-42.5 -8.5zM212 1118v33l63 371h242
v-37l-219 -367h-86z" />
    <glyph glyph-name="Alpha" unicode="&#x391;" horiz-adv-x="1479" 
d="M428 73v-73h-408v73l100 27l477 1252h290l475 -1252l102 -27v-73h-597v73l155 27l-128 347h-515l-123 -347zM641 1150l-221 -593h436z" />
    <glyph glyph-name="Beta" unicode="&#x392;" horiz-adv-x="1366" 
d="M878 1010q0 57 -11.5 98.5t-37.5 69t-67.5 40.5t-100.5 13h-139v-467h147q61 0 101.5 17t64.5 48.5t33.5 77t9.5 103.5zM979 391q0 133 -66.5 198t-217.5 65h-173v-544q48 -2 92 -3q37 -2 75 -2.5t60 -0.5q63 0 107 20t71 57t39.5 90t12.5 120zM34 0v73l173 27v1142
l-173 26v73h651q149 0 249 -21t160.5 -60t86 -95t25.5 -127q0 -67 -22.5 -121t-60.5 -94.5t-88 -67t-105 -38.5q99 -10 170.5 -37t118 -69t68.5 -97.5t22 -122.5q0 -87 -31 -160t-98.5 -125.5t-173 -82t-254.5 -29.5q-120 0 -238 3t-218 3h-262z" />
    <glyph glyph-name="Gamma" unicode="&#x393;" horiz-adv-x="1303" 
d="M731 0h-693v73l171 26v1142l-172 27v73h1137l18 -405h-90l-62 279q-30 6 -109 13t-204 7h-203v-1136l207 -26v-73z" />
    <glyph glyph-name="Delta" unicode="&#x394;" horiz-adv-x="1284" 
d="M1249 0h-1221v97l460 1255h290l471 -1255v-97zM164 119h753l-384 1029z" />
    <glyph glyph-name="Epsilon" unicode="&#x395;" horiz-adv-x="1366" 
d="M35 73l172 27v1142l-172 26v73h1142v-341h-91l-32 217q-32 4 -77.5 7t-92.5 4.5t-89 2t-65 0.5h-208v-492h351l31 148h89v-412h-89l-31 152h-351v-517h253q62 0 117 1.5t99 3.5t75.5 5t46.5 6l57 248h91l-19 -374h-1207v73z" />
    <glyph glyph-name="Zeta" unicode="&#x396;" horiz-adv-x="1366" 
d="M98 114l742 1121h-240q-131 0 -207 -6t-113 -14l-31 -211h-89v337h1036v-106l-747 -1131h280q65 0 126.5 3.5t112.5 9t89 11t56 9.5l59 256h90l-27 -393h-1137v114z" />
    <glyph glyph-name="Eta" unicode="&#x397;" horiz-adv-x="1593" 
d="M35 0v74l172 26v1141l-172 27v73h659v-73l-172 -27v-496h548v496l-172 27v73h661v-73l-173 -27v-1141l173 -26v-74h-661v74l172 26v535h-548v-535l172 -26v-74h-659z" />
    <glyph glyph-name="Theta" unicode="&#x398;" horiz-adv-x="1593" 
d="M432 672q0 -140 17 -250t59 -186t112.5 -116t176.5 -40t176 40t112 116t59 186t17 250q0 139 -17 248t-59 183t-112 113t-176 39t-176.5 -39t-112.5 -113t-59 -183t-17 -248zM100 672q0 178 46 307t135 213t218.5 124t297.5 40q162 0 291 -40t219 -124t138 -213t48 -307
t-48 -308.5t-138 -215.5t-219 -126.5t-291 -41.5t-291 41.5t-219.5 126.5t-138.5 215.5t-48 308.5zM943 790l26 102h68v-432h-68l-26 100h-293l-26 -100h-68v432h68l26 -102h293z" />
    <glyph glyph-name="Iota" unicode="&#x399;" horiz-adv-x="797" 
d="M556 100l172 -26v-74h-659v74l172 26v1141l-172 27v73h659v-73l-172 -27v-1141z" />
    <glyph glyph-name="Kappa" unicode="&#x39a;" horiz-adv-x="1593" 
d="M1469 1341v-73l-164 -26l-443 -391l590 -751l125 -27v-73h-438l-501 646l-116 -100v-446l193 -27v-73h-680v73l172 27v1142l-172 26v73h660v-73l-173 -26v-546l611 546l-123 26v73h459z" />
    <glyph glyph-name="Lambda" unicode="&#x39b;" horiz-adv-x="1468" 
d="M420 73v-73h-408v73l98 27l477 1252h292l475 -1252l102 -27v-73h-597v73l155 17l-377 1049l-381 -1039z" />
    <glyph glyph-name="Mu" unicode="&#x39c;" horiz-adv-x="1933" 
d="M882 0h-55l-495 1133v-1033l180 -27v-73h-477v73l172 27v1142l-172 26v73h527l383 -882l391 882h538v-73l-172 -26v-1142l172 -27v-73h-667v73l180 27v1033z" />
    <glyph glyph-name="Nu" unicode="&#x39d;" horiz-adv-x="1479" 
d="M1155 1242l-180 26v73h477v-73l-172 -26v-1242h-117l-827 1078v-978l180 -27v-73h-477v73l172 27v1142l-172 26v73h459l657 -857v758z" />
    <glyph glyph-name="Xi" unicode="&#x39e;" horiz-adv-x="1387" 
d="M912 790l26 102h68v-432h-68l-26 100h-437l-26 -100h-68v432h68l26 -102h437zM549 1098q-23 0 -58.5 -0.5t-75 -2t-79.5 -4.5t-71 -7l-36 -164h-83l20 421h1055l20 -421h-83l-36 164q-32 4 -71.5 7t-79 4.5t-75 2t-58.5 0.5h-289zM853 263q125 0 206 5t112 11l36 185h83
l-19 -464h-1155l-19 464h83l36 -185q31 -6 107 -11t201 -5h329z" />
    <glyph glyph-name="Omicron" unicode="&#x39f;" horiz-adv-x="1593" 
d="M432 672q0 -140 17 -250t59 -186t112.5 -116t176.5 -40t176 40t112 116t59 186t17 250q0 139 -17 248t-59 183t-112 113t-176 39t-176.5 -39t-112.5 -113t-59 -183t-17 -248zM100 672q0 178 46 307t135 213t218.5 124t297.5 40q162 0 291 -40t219 -124t138 -213t48 -307
t-48 -308.5t-138 -215.5t-219 -126.5t-291 -41.5t-291 41.5t-219.5 126.5t-138.5 215.5t-48 308.5z" />
    <glyph glyph-name="Pi" unicode="&#x3a0;" horiz-adv-x="1593" 
d="M40 0v74l172 26v1141l-172 27v73h1513v-73l-173 -27v-1141l173 -26v-74h-661v74l172 26v1131h-537v-1131l172 -26v-74h-659z" />
    <glyph glyph-name="Rho" unicode="&#x3a1;" horiz-adv-x="1251" 
d="M871 944q0 80 -14 135t-45.5 88.5t-83 48.5t-126.5 15h-79v-595h83q76 0 126.5 19.5t81.5 58t44 96t13 134.5zM523 526v-426l223 -27v-73h-698v73l159 27v1142l-172 26v73h591q168 0 277.5 -30.5t174 -84t90 -125.5t25.5 -155q0 -82 -21.5 -158t-77 -134t-150.5 -93
t-241 -35h-180z" />
    <glyph glyph-name="Sigma" unicode="&#x3a3;" horiz-adv-x="1339" 
d="M775 817v-100l-409 -454h285q68 0 144 1.5t143.5 3.5t118 5t67.5 6l36 185h83l-19 -464h-1157v102l480 530l-472 602v107h1085v-341h-91l-42 217q-33 4 -79.5 7t-93.5 4.5t-88.5 2t-66.5 0.5h-239z" />
    <glyph glyph-name="Tau" unicode="&#x3a4;" horiz-adv-x="1366" 
d="M310 0v73l213 27v1135h-51q-131 0 -208 -6t-114 -14l-27 -249h-91v375h1303v-375h-92l-27 249q-37 8 -123.5 13t-204.5 5h-49v-1133l213 -27v-73h-742z" />
    <glyph glyph-name="Upsilon" unicode="&#x3a5;" horiz-adv-x="1479" 
d="M911 528v-428l213 -27v-73h-742v73l213 27v422l-408 720l-151 26v73h690v-73l-180 -26l306 -562l296 562l-164 26v73h456v-73l-142 -26z" />
    <glyph glyph-name="Phi" unicode="&#x3a6;" horiz-adv-x="1698" 
d="M711 324v710h-65q-54 0 -102 -21t-84 -64t-56.5 -107.5t-20.5 -151.5q0 -84 19.5 -151.5t54 -115.5t81 -73.5t99.5 -25.5h74zM1060 324q53 0 99.5 25.5t81 73.5t54 115.5t19.5 151.5q0 87 -20.5 151.5t-56.5 107.5t-84 64t-102 21h-65v-710h74zM539 0v74l172 26v121h-109
q-98 0 -175 19.5t-135 54t-98.5 80t-66 98t-37 108.5t-11.5 111q0 83 27 163t89 142.5t163 101t249 38.5h104v104l-172 27v73h619v-73l-172 -27v-104h104q148 0 249 -38.5t163 -101t89 -142.5t27 -163q0 -55 -11.5 -111t-37 -108.5t-66 -98t-98.5 -80t-135 -54t-175 -19.5
h-109v-121l172 -26v-74h-619z" />
    <glyph glyph-name="Chi" unicode="&#x3a7;" horiz-adv-x="1479" 
d="M330 100l166 -27v-73h-458v73l148 27l431 548l-384 594l-151 26v73h653v-73l-170 -26l234 -362l285 362l-166 26v73h459v-73l-148 -26l-365 -463l439 -679l152 -27v-73h-653v73l170 27l-290 447z" />
    <glyph glyph-name="Psi" unicode="&#x3a8;" horiz-adv-x="1597" 
d="M489 0v74l172 26v393q-144 0 -249 36t-173.5 100.5t-101.5 155t-33 199.5v257l-97 27v73h391v-369q0 -84 17.5 -153t51 -118.5t82.5 -76.5t112 -28v645l-122 27v73h519v-73l-122 -27v-645q63 1 112 28t82.5 76.5t51 118.5t17.5 153v369h391v-73l-97 -27v-257
q0 -109 -33 -199.5t-101.5 -155t-173.5 -100.5t-249 -36v-393l172 -26v-74h-619z" />
    <glyph glyph-name="Omega" unicode="&#x3a9;" horiz-adv-x="1640" 
d="M821 1255q-110 0 -185.5 -34t-122 -91.5t-67 -133t-20.5 -159.5q0 -79 16 -147.5t51.5 -122t91 -88.5t133.5 -47l23 -432h-625l-23 384h86l61 -128q30 -6 97 -11t161 -5h109l-5 105q-112 16 -205 54.5t-160.5 99.5t-105 145t-37.5 193q0 124 48 220.5t141 163t228.5 101
t309.5 34.5t309.5 -34.5t228.5 -101t141 -163t48 -220.5q0 -109 -37.5 -193t-105 -145t-160.5 -99.5t-205 -54.5l-5 -105h109q94 0 161 5t97 11l61 128h86l-23 -384h-625l23 432q78 12 133.5 47t91 88.5t51.5 122t16 147.5q0 84 -20.5 159.5t-67 133t-122 91.5t-185.5 34z
" />
    <glyph glyph-name="Iotadieresis" unicode="&#x3aa;" horiz-adv-x="797" 
d="M556 100l172 -26v-74h-659v74l172 26v1141l-172 27v73h659v-73l-172 -27v-1141zM565 1464q-25 0 -47 10t-38.5 26.5t-26 38.5t-9.5 46q0 25 9.5 46.5t26 37.5t38.5 25.5t47 9.5t47 -9.5t38 -25.5t25 -37.5t9 -46.5q0 -24 -9 -46t-25 -38.5t-38 -26.5t-47 -10zM229 1464
q-24 0 -46 10t-38.5 26.5t-26.5 38.5t-10 46q0 25 10 46.5t26.5 37.5t38.5 25.5t46 9.5q25 0 46.5 -9.5t37.5 -25.5t25.5 -37.5t9.5 -46.5q0 -24 -9 -46t-25 -38.5t-38 -26.5t-47 -10z" />
    <glyph glyph-name="Upsilondieresis" unicode="&#x3ab;" horiz-adv-x="1479" 
d="M911 528v-428l213 -27v-73h-742v73l213 27v422l-408 720l-151 26v73h690v-73l-180 -26l306 -562l296 562l-164 26v73h456v-73l-142 -26zM976 1464q-25 0 -47 10t-38.5 26.5t-26 38.5t-9.5 46q0 25 9.5 46.5t26 37.5t38.5 25.5t47 9.5t47 -9.5t38 -25.5t25 -37.5t9 -46.5
q0 -24 -9 -46t-25 -38.5t-38 -26.5t-47 -10zM640 1464q-24 0 -46 10t-38.5 26.5t-26.5 38.5t-10 46q0 25 10 46.5t26.5 37.5t38.5 25.5t46 9.5q25 0 46.5 -9.5t37.5 -25.5t25.5 -37.5t9.5 -46.5q0 -24 -9 -46t-25 -38.5t-38 -26.5t-47 -10z" />
    <glyph glyph-name="alphatonos" unicode="&#x3ac;" horiz-adv-x="1143" 
d="M428 -20q-78 0 -143 30t-111.5 89.5t-72.5 148t-26 205.5q0 127 31.5 223t88 160t133 96.5t166.5 32.5q109 0 180 -57t113 -163h6l46 195h283v-40q-18 -29 -37 -71t-39.5 -95.5t-41 -117t-40.5 -133.5q11 -63 21.5 -115.5t23 -99.5t27.5 -90.5t35 -87.5l48 -15v-75h-318
q-8 21 -16 49t-15 57.5t-13 59t-10 53.5h-6q-31 -56 -63.5 -100t-70 -75t-81.5 -47.5t-98 -16.5zM527 849q-40 0 -69.5 -22.5t-49 -69.5t-29.5 -120.5t-10 -176.5q0 -99 11.5 -164t29.5 -103.5t40.5 -53.5t44.5 -15q36 0 69 24t63 69.5t55.5 110.5t46.5 146
q-11 109 -32 181.5t-48.5 115.5t-59 60.5t-62.5 17.5zM468 1118v33l63 371h285v-37l-262 -367h-86z" />
    <glyph glyph-name="epsilontonos" unicode="&#x3ad;" horiz-adv-x="875" 
d="M833 70q-60 -38 -147.5 -64t-202.5 -26q-110 0 -190.5 21t-133 59t-78 91t-25.5 117q0 46 15.5 84.5t41 68t59.5 50t72 31.5v7q-65 28 -107 78.5t-42 127.5q0 68 37 115.5t97 77.5t136 43.5t155 13.5q70 0 147.5 -9.5t141.5 -26.5v-216h-65l-52 115q-26 14 -66 25t-91 11
q-24 0 -52.5 -6.5t-52.5 -23.5t-40.5 -46t-16.5 -73q0 -38 8 -66.5t20 -48t25 -31.5t24 -18q21 2 50 7t57 10t51.5 9t33.5 4h51v-158h-51q-10 0 -34 4t-54 9.5t-62 11t-59 7.5q-14 -6 -31.5 -18t-32.5 -31.5t-25 -48.5t-10 -69q0 -36 13 -68.5t39 -58t65 -40.5t92 -15
q54 0 95 4.5t74.5 11.5t62.5 16.5t58 18.5v-87zM378 1118v33l63 371h285v-37l-262 -367h-86z" />
    <glyph glyph-name="etatonos" unicode="&#x3ae;" horiz-adv-x="1163" 
d="M1039 70q0 -84 3.5 -159t8.5 -135.5t11.5 -104t12.5 -62.5v-45h-302q-9 49 -13.5 107.5t-6.5 122.5t-2.5 131t-0.5 133v591q0 86 -36 132t-106 46q-20 0 -43 -4.5t-47 -12t-46.5 -17.5t-39.5 -20v-773h-289v850l-112 24v66h382l14 -82q30 16 68 35t82.5 35t94 26.5
t100.5 10.5q57 0 106 -15t85 -48t56 -86t20 -128v-618zM498 1118v33l63 371h285v-37l-262 -367h-86z" />
    <glyph glyph-name="iotatonos" unicode="&#x3af;" horiz-adv-x="635" 
d="M399 -20q-75 0 -124 19.5t-77.5 53t-39.5 78.5t-11 96v623l-116 24v66h405v-714q0 -68 23.5 -95t65.5 -27q26 0 44.5 3t44.5 10v-82q-14 -10 -38 -20t-53 -17.5t-61 -12.5t-63 -5zM179 1118v33l63 371h285v-37l-262 -367h-86z" />
    <glyph glyph-name="upsilondieresistonos" unicode="&#x3b0;" horiz-adv-x="1063" 
d="M513 -20q-104 0 -177.5 24t-120 69t-68.5 110t-22 147v520l-95 24v66h384v-668q0 -53 10 -90t27.5 -59.5t41.5 -32.5t52 -10q52 0 82.5 26.5t46.5 75.5t20.5 119.5t4.5 158.5q0 98 -3.5 166t-15 115t-33 77.5t-58.5 53.5v92q88 -11 161.5 -44.5t127 -92.5t83.5 -146
t30 -205q0 -123 -34.5 -215.5t-97 -155t-150.5 -94t-196 -31.5zM769 1132q-22 0 -42 8.5t-35 23.5t-23.5 35t-8.5 42t8.5 41.5t23.5 34t35 23t42 8.5q23 0 42.5 -8.5t34 -23t22.5 -34t8 -41.5t-8 -42t-22.5 -35t-34 -23.5t-42.5 -8.5zM287 1132q-22 0 -42 8.5t-35 23.5
t-23.5 35t-8.5 42t8.5 41.5t23.5 34t35 23t42 8.5t41.5 -8.5t34 -23t23 -34t8.5 -41.5t-8 -42t-22.5 -35t-34 -23.5t-42.5 -8.5zM430 1118v33l63 371h242v-37l-219 -367h-86z" />
    <glyph glyph-name="alpha" unicode="&#x3b1;" horiz-adv-x="1143" 
d="M428 -20q-78 0 -143 30t-111.5 89.5t-72.5 148t-26 205.5q0 127 31.5 223t88 160t133 96.5t166.5 32.5q109 0 180 -57t113 -163h6l46 195h283v-40q-18 -29 -37 -71t-39.5 -95.5t-41 -117t-40.5 -133.5q11 -63 21.5 -115.5t23 -99.5t27.5 -90.5t35 -87.5l48 -15v-75h-318
q-8 21 -16 49t-15 57.5t-13 59t-10 53.5h-6q-31 -56 -63.5 -100t-70 -75t-81.5 -47.5t-98 -16.5zM527 849q-40 0 -69.5 -22.5t-49 -69.5t-29.5 -120.5t-10 -176.5q0 -99 11.5 -164t29.5 -103.5t40.5 -53.5t44.5 -15q36 0 69 24t63 69.5t55.5 110.5t46.5 146
q-11 109 -32 181.5t-48.5 115.5t-59 60.5t-62.5 17.5z" />
    <glyph glyph-name="beta" unicode="&#x3b2;" horiz-adv-x="1079" 
d="M405 -436h-289v1414q0 132 30.5 221t87.5 143t138 77t182 23q92 0 166.5 -24t127.5 -69t81.5 -109t28.5 -144q0 -75 -21.5 -132.5t-57 -99t-80.5 -67.5t-92 -36v-10q67 -14 122.5 -42.5t95.5 -73.5t61.5 -108t21.5 -145q0 -201 -118 -300.5t-352 -99.5q-39 0 -76 5
t-57 12v-435zM663 1083q0 121 -30 189.5t-92 68.5q-33 0 -58 -11.5t-42.5 -45t-26.5 -94t-9 -157.5v-934q21 -8 52 -13t60 -5q52 0 89 17t61 53.5t35.5 93.5t11.5 137q0 67 -13 124.5t-42 100t-74.5 68t-111.5 28.5v96q55 1 91.5 18t58.5 51t31 87t9 128z" />
    <glyph glyph-name="gamma" unicode="&#x3b3;" horiz-adv-x="958" 
d="M-11 874v66h331q64 -171 123 -352.5t106 -360.5h7l136 323q30 72 44.5 129.5t14.5 100.5q0 45 -23 66.5t-55 28.5v65h238q12 -11 15.5 -34t3.5 -45q0 -51 -22 -121.5t-64 -158.5l-255 -533q7 -36 13 -98t10.5 -130.5t7 -134t2.5 -108.5l-245 -13l-46 29q0 40 2.5 94.5
t7 112.5t12 113.5t16.5 98.5q-23 69 -49 146.5t-54 156.5t-56.5 156.5t-56 147.5t-52.5 129.5t-46 101.5z" />
    <glyph glyph-name="delta" unicode="&#x3b4;" horiz-adv-x="1063" 
d="M880 1169h-66l-35 123q-22 17 -57 30.5t-80 13.5q-63 0 -97 -36t-34 -92q0 -45 19 -84t52 -76.5t77 -76t93 -81.5q57 -50 101 -99.5t74 -104.5t45.5 -119t15.5 -143q0 -111 -34.5 -195.5t-96 -142t-146.5 -87t-185 -29.5q-99 0 -182 28t-142.5 82.5t-93 135.5t-33.5 186
q0 84 26 152t70.5 121.5t103.5 94t124 69.5q-27 25 -55 59.5t-50 74.5t-36 85t-14 92q0 60 23 111.5t68.5 89t113.5 59t159 21.5q75 0 144.5 -10t127.5 -21v-231zM357 392q0 -171 46.5 -252t123.5 -81q39 0 70.5 21t53.5 60.5t34 96.5t12 129q0 116 -48 215t-164 184
q-23 -20 -45.5 -53.5t-41 -81t-30 -107t-11.5 -131.5z" />
    <glyph glyph-name="epsilon" unicode="&#x3b5;" horiz-adv-x="875" 
d="M833 70q-60 -38 -147.5 -64t-202.5 -26q-110 0 -190.5 21t-133 59t-78 91t-25.5 117q0 46 15.5 84.5t41 68t59.5 50t72 31.5v7q-65 28 -107 78.5t-42 127.5q0 68 37 115.5t97 77.5t136 43.5t155 13.5q70 0 147.5 -9.5t141.5 -26.5v-216h-65l-52 115q-26 14 -66 25t-91 11
q-24 0 -52.5 -6.5t-52.5 -23.5t-40.5 -46t-16.5 -73q0 -38 8 -66.5t20 -48t25 -31.5t24 -18q21 2 50 7t57 10t51.5 9t33.5 4h51v-158h-51q-10 0 -34 4t-54 9.5t-62 11t-59 7.5q-14 -6 -31.5 -18t-32.5 -31.5t-25 -48.5t-10 -69q0 -36 13 -68.5t39 -58t65 -40.5t92 -15
q54 0 95 4.5t74.5 11.5t62.5 16.5t58 18.5v-87z" />
    <glyph glyph-name="zeta" unicode="&#x3b6;" horiz-adv-x="846" 
d="M867 -40q0 -67 -23.5 -120t-69 -95t-112.5 -75t-155 -60v105q67 25 107.5 58t40.5 87q0 51 -47 77.5t-144 44.5q-111 21 -185.5 53t-119 79.5t-63 111t-18.5 147.5q0 82 26.5 166.5t71.5 168t105 165t126.5 159.5t136 150t134.5 137v4l-521 -95v159q76 4 169 9.5t185 12
t176 14t142 15.5v-88q-95 -122 -180 -236.5t-149 -227t-101.5 -225t-37.5 -229.5q0 -46 12.5 -80t40 -60t70.5 -44.5t103 -32.5q75 -18 128.5 -42t87 -55.5t49 -70.5t15.5 -87z" />
    <glyph glyph-name="eta" unicode="&#x3b7;" horiz-adv-x="1163" 
d="M1039 70q0 -84 3.5 -159t8.5 -135.5t11.5 -104t12.5 -62.5v-45h-302q-9 49 -13.5 107.5t-6.5 122.5t-2.5 131t-0.5 133v591q0 86 -36 132t-106 46q-20 0 -43 -4.5t-47 -12t-46.5 -17.5t-39.5 -20v-773h-289v850l-112 24v66h382l14 -82q30 16 68 35t82.5 35t94 26.5
t100.5 10.5q57 0 106 -15t85 -48t56 -86t20 -128v-618z" />
    <glyph glyph-name="theta" unicode="&#x3b8;" horiz-adv-x="1069" 
d="M983 708q0 -177 -27 -312.5t-82.5 -228t-141.5 -140t-204 -47.5q-223 0 -333 185t-110 543q0 352 110.5 538t340.5 186q223 0 335 -183t112 -541zM530 80q42 0 72.5 37.5t50.5 110t29.5 178.5t11.5 244h-321q1 -138 10.5 -244t28 -178.5t47.5 -110t71 -37.5zM530 1331
q-42 0 -71 -37t-48 -109t-28 -177.5t-10 -242.5h321q-2 137 -11.5 242.5t-29.5 177.5t-50.5 109t-72.5 37z" />
    <glyph glyph-name="iota" unicode="&#x3b9;" horiz-adv-x="635" 
d="M413 -20q-75 0 -124 19.5t-77.5 53t-39.5 78.5t-11 96v623l-116 24v66h405v-714q0 -68 23.5 -95t65.5 -27q26 0 44.5 3t44.5 10v-82q-14 -10 -38 -20t-53 -17.5t-61 -12.5t-63 -5z" />
    <glyph glyph-name="kappa" unicode="&#x3ba;" horiz-adv-x="1137" 
d="M1060 940v-66l-109 -16l-231 -241l288 -524l115 -25v-68h-366l-216 429l-109 -92v-337h-289v850l-106 24v66h395v-490l430 490h198z" />
    <glyph glyph-name="lambda" unicode="&#x3bb;" horiz-adv-x="1006" 
d="M24 0v50l461 935l-27 84q-18 54 -39.5 99t-45.5 78t-51.5 51t-58.5 18q-23 0 -36.5 -6t-27.5 -17l-43 -96h-60v220q22 5 40.5 9.5t37 8.5t39 6t48.5 2q69 0 117 -21t85.5 -67t69 -119t66.5 -176l310 -903q7 -21 18.5 -36.5t25 -26t29 -17.5t30.5 -11v-65h-201l-218 658
q-17 -46 -34 -89q-14 -37 -30 -77t-28 -68l-184 -424h-293z" />
    <glyph glyph-name="mu" unicode="&#x3bc;" horiz-adv-x="1161" 
d="M759 92q-20 -20 -43 -40t-50.5 -36t-59.5 -26t-71 -10q-50 0 -84 13.5t-60 38.5q0 -35 -1.5 -92t-3.5 -122t-4 -132t-4 -122h-282v45q11 119 17.5 241.5t6.5 252.5v746l-94 25v66h383v-652q0 -91 38 -132.5t117 -41.5q31 0 58 7t50.5 18t43.5 25t38 29v656l-86 25v66h375
v-850l92 -25v-65h-357z" />
    <glyph glyph-name="nu" unicode="&#x3bd;" horiz-adv-x="915" 
d="M384 -20l-331 870l-56 24v66h321l231 -669l100 266q25 66 43 134.5t18 120.5q0 43 -23 67.5t-56 35.5v45h238q7 -12 13 -33.5t6 -53.5q0 -42 -12 -93t-39 -113l-297 -667h-156z" />
    <glyph glyph-name="xi" unicode="&#x3be;" horiz-adv-x="913" 
d="M593 1330l-469 -58v149h93.5t117 1t130.5 2t134 3t127 4.5t110 6.5v-109q-32 -7 -70.5 -19t-78.5 -31t-77.5 -44.5t-66.5 -58.5t-46.5 -74t-17.5 -90q0 -43 12 -78t29.5 -61t37.5 -42t36 -22q22 4 48 9t51 9.5t46 8t34 3.5h40v-158h-41q-13 0 -38.5 2.5t-56 7t-61.5 9
t-55 9.5q-43 -19 -81.5 -44t-68 -60t-46.5 -80.5t-17 -104.5q0 -44 13 -77t44 -57t81 -42t124 -32q83 -16 140.5 -39.5t93 -55.5t51.5 -73t16 -93q0 -66 -28 -121t-77 -98t-115.5 -74t-143.5 -48v104q37 13 65 26.5t47.5 29.5t29.5 36.5t10 48.5q0 25 -10.5 43.5t-37 33.5
t-71 27t-111.5 24q-92 16 -165 43.5t-124 73t-78 110.5t-27 156q0 75 28 135.5t77 108.5t114 83.5t140 60.5v7q-36 12 -75 31.5t-72 49.5t-54.5 72t-21.5 99q0 64 31 114t83.5 88t122 64.5t145.5 43.5v7z" />
    <glyph glyph-name="omicron" unicode="&#x3bf;" 
d="M946 475q0 -120 -24.5 -212t-77.5 -155t-136.5 -95.5t-201.5 -32.5q-111 0 -192 32t-133.5 95t-77.5 155.5t-25 212.5q0 119 25 210.5t78 153.5t135.5 94t197.5 32q223 0 327.5 -124.5t104.5 -365.5zM653 475q0 97 -6 170t-22 122t-44 73t-73 24q-44 0 -71 -24t-41.5 -73
t-19.5 -122t-5 -170q0 -98 5 -171.5t19.5 -123.5t41.5 -75t71 -25q45 0 73 25t44 75t22 123.5t6 171.5z" />
    <glyph glyph-name="pi" unicode="&#x3c0;" horiz-adv-x="1122" 
d="M1004 105q24 0 48 3.5t49 9.5v-95q-16 -9 -39.5 -17t-51 -14t-57 -9t-57.5 -3q-75 0 -126.5 18t-83 49.5t-45.5 75t-14 94.5v619h-216l-30 -453q-5 -81 -11 -142t-11.5 -106.5t-11 -78t-9.5 -56.5h-222v45q29 30 50 58.5t36 65.5t24 89.5t15 130.5l33 447h-100l-67 -168
h-81l21 272h1054v-104h-185v-601q0 -130 88 -130z" />
    <glyph glyph-name="rho" unicode="&#x3c1;" horiz-adv-x="1096" 
d="M122 554q0 99 28.5 175t82.5 127.5t132.5 78t179.5 26.5q93 0 177.5 -32.5t149 -98t102.5 -165t38 -233.5q0 -120 -32.5 -205.5t-85.5 -140t-120 -80.5t-136 -26t-125.5 12.5t-101.5 29.5v-458h-289v990zM546 101q39 0 71 16.5t55 55t35.5 101t12.5 155.5
q0 120 -16 197.5t-41 122.5t-55.5 62.5t-59.5 17.5q-64 0 -100.5 -63.5t-36.5 -185.5v-457q58 -22 135 -22z" />
    <glyph glyph-name="sigma1" unicode="&#x3c2;" horiz-adv-x="864" 
d="M358 477q0 -65 13.5 -108t39.5 -71t64.5 -45t88.5 -30q81 -21 141 -43t100 -53t60 -73t20 -103q0 -63 -24.5 -114.5t-70.5 -93.5t-113.5 -74.5t-152.5 -58.5v105q33 12 61 25.5t47.5 30t30.5 37t11 47.5q0 26 -12 45t-37.5 34t-65.5 27.5t-97 24.5q-102 21 -175 55
t-120 83t-69 115.5t-22 153.5q0 126 40.5 231t109.5 180.5t160 118t191 42.5q39 0 72.5 -2.5t64.5 -7.5t61.5 -11.5t62.5 -13.5v-258h-72l-42 145q-27 21 -61 33t-79 12t-86 -22.5t-72 -69.5t-49.5 -120t-18.5 -173z" />
    <glyph glyph-name="sigma" unicode="&#x3c3;" horiz-adv-x="1114" 
d="M713 442q0 69 -8.5 125.5t-22 102.5t-31.5 82t-36 64q-42 -7 -85.5 -30.5t-79 -69.5t-57.5 -117.5t-22 -175.5q0 -93 14.5 -158.5t37.5 -106.5t53 -59.5t62 -18.5q31 0 62.5 16.5t56.5 58t40.5 111t15.5 176.5zM809 831v-6q34 -29 67.5 -68t60 -88t43 -107t16.5 -124
q0 -109 -36.5 -194t-100 -143.5t-150 -89.5t-186.5 -31q-101 0 -183.5 34.5t-140.5 97.5t-89.5 152t-31.5 199q0 108 35 196t103 150.5t167.5 96.5t227.5 34h346l64 126h81l-16 -235h-277z" />
    <glyph glyph-name="tau" unicode="&#x3c4;" horiz-adv-x="944" 
d="M188 836l-67 -168h-81l21 272h859v-104h-303v-601q0 -65 28.5 -97.5t72.5 -32.5q24 0 48 3.5t49 9.5v-95q-16 -9 -39.5 -17t-51 -14t-57 -9t-57.5 -3q-75 0 -128.5 18t-87.5 49.5t-50 75t-16 94.5v619h-140z" />
    <glyph glyph-name="upsilon" unicode="&#x3c5;" horiz-adv-x="1063" 
d="M513 -20q-104 0 -177.5 24t-120 69t-68.5 110t-22 147v520l-95 24v66h384v-668q0 -53 10 -90t27.5 -59.5t41.5 -32.5t52 -10q52 0 82.5 26.5t46.5 75.5t20.5 119.5t4.5 158.5q0 98 -3.5 166t-15 115t-33 77.5t-58.5 53.5v92q88 -11 161.5 -44.5t127 -92.5t83.5 -146
t30 -205q0 -123 -34.5 -215.5t-97 -155t-150.5 -94t-196 -31.5z" />
    <glyph glyph-name="phi" unicode="&#x3c6;" horiz-adv-x="1278" 
d="M700 -436h-124v420q-119 8 -212 41.5t-158 93.5t-99 148.5t-34 207.5q0 117 29.5 202.5t86.5 144.5t140.5 93.5t191.5 48.5v-92q-46 -18 -76 -52t-47.5 -83.5t-24.5 -115t-7 -146.5q0 -186 50.5 -283t159.5 -111v581q0 63 14 118t45 96.5t81.5 65.5t122.5 24
q87 0 155 -34t115 -95t72 -146t25 -188q0 -126 -37.5 -219.5t-104.5 -157.5t-160 -99t-204 -44v-419zM913 485q0 196 -25.5 288.5t-87.5 92.5q-54 0 -77 -53t-23 -153v-576q107 12 160 109.5t53 291.5z" />
    <glyph glyph-name="chi" unicode="&#x3c7;" horiz-adv-x="946" 
d="M-7 -383q21 40 49.5 95t61 118.5t67.5 133t69.5 138t67 133t59.5 119.5l-216 443q-12 24 -27 38t-32 22t-34.5 11.5t-34.5 6.5v65h202q20 -17 38 -51t34 -70l141 -325q22 47 47 101t50.5 111t51.5 116.5t49 117.5h299v-59q-36 -68 -79 -151t-87 -170t-86 -172.5
t-78 -157.5l255 -523q12 -24 23 -38t23.5 -22t26.5 -11.5t31 -6.5v-65h-173q-10 8 -20.5 22t-20 30.5t-18.5 34t-15 31.5l-186 413q-29 -59 -60 -128t-61.5 -139t-59 -138t-52.5 -126h-305v53z" />
    <glyph glyph-name="psi" unicode="&#x3c8;" horiz-adv-x="1409" 
d="M646 -19q-153 6 -254 39t-160.5 87t-83.5 126t-24 156v461l-94 24v66h383v-609q0 -52 13.5 -95t41.5 -75t72 -52t106 -25v1148h124v-1147q119 12 173 78t54 168v609h391v-66l-103 -24v-461q0 -76 -25.5 -146t-85.5 -125.5t-158.5 -91.5t-245.5 -44v-418h-124v417z" />
    <glyph glyph-name="omega" unicode="&#x3c9;" horiz-adv-x="1497" 
d="M488 -20q-109 0 -186 36t-125.5 98t-71 145t-22.5 176q0 121 39 213t106 157t157.5 104.5t193.5 54.5v-92q-45 -21 -82.5 -57.5t-64 -90t-41.5 -125.5t-15 -164q0 -60 7 -119.5t24.5 -107t48 -77t78.5 -29.5q56 0 98.5 51.5t56.5 142.5q-4 21 -11.5 56t-15 74t-13.5 76.5
t-6 61.5v64h212v-64q0 -24 -6 -61.5t-13.5 -76.5t-15 -74t-11.5 -56q14 -91 56.5 -142.5t98.5 -51.5q48 0 78.5 29.5t48 77t24.5 107t7 119.5q0 92 -15 164t-41.5 125.5t-64 90t-82.5 57.5v92q103 -15 193.5 -54.5t157.5 -104.5t106 -157t39 -213q0 -93 -22.5 -176
t-71.5 -145t-125.5 -98t-185.5 -36q-58 0 -101 16.5t-73.5 42t-50.5 57t-31 60.5h-10q-11 -29 -31 -60.5t-50.5 -57t-73.5 -42t-101 -16.5z" />
    <glyph glyph-name="iotadieresis" unicode="&#x3ca;" horiz-adv-x="635" 
d="M399 -20q-75 0 -124 19.5t-77.5 53t-39.5 78.5t-11 96v623l-116 24v66h405v-714q0 -68 23.5 -95t65.5 -27q26 0 44.5 3t44.5 10v-82q-14 -10 -38 -20t-53 -17.5t-61 -12.5t-63 -5zM453 1130q-25 0 -47 10t-38.5 26.5t-26 38.5t-9.5 46q0 25 9.5 46.5t26 37.5t38.5 25.5
t47 9.5t47 -9.5t38 -25.5t25 -37.5t9 -46.5q0 -24 -9 -46t-25 -38.5t-38 -26.5t-47 -10zM117 1130q-24 0 -46 10t-38.5 26.5t-26.5 38.5t-10 46q0 25 10 46.5t26.5 37.5t38.5 25.5t46 9.5q25 0 46.5 -9.5t37.5 -25.5t25.5 -37.5t9.5 -46.5q0 -24 -9 -46t-25 -38.5t-38 -26.5
t-47 -10z" />
    <glyph glyph-name="upsilondieresis" unicode="&#x3cb;" horiz-adv-x="1063" 
d="M513 -20q-104 0 -177.5 24t-120 69t-68.5 110t-22 147v520l-95 24v66h384v-668q0 -53 10 -90t27.5 -59.5t41.5 -32.5t52 -10q52 0 82.5 26.5t46.5 75.5t20.5 119.5t4.5 158.5q0 98 -3.5 166t-15 115t-33 77.5t-58.5 53.5v92q88 -11 161.5 -44.5t127 -92.5t83.5 -146
t30 -205q0 -123 -34.5 -215.5t-97 -155t-150.5 -94t-196 -31.5zM692 1130q-25 0 -47 10t-38.5 26.5t-26 38.5t-9.5 46q0 25 9.5 46.5t26 37.5t38.5 25.5t47 9.5t47 -9.5t38 -25.5t25 -37.5t9 -46.5q0 -24 -9 -46t-25 -38.5t-38 -26.5t-47 -10zM356 1130q-24 0 -46 10
t-38.5 26.5t-26.5 38.5t-10 46q0 25 10 46.5t26.5 37.5t38.5 25.5t46 9.5q25 0 46.5 -9.5t37.5 -25.5t25.5 -37.5t9.5 -46.5q0 -24 -9 -46t-25 -38.5t-38 -26.5t-47 -10z" />
    <glyph glyph-name="omicrontonos" unicode="&#x3cc;" 
d="M946 475q0 -120 -24.5 -212t-77.5 -155t-136.5 -95.5t-201.5 -32.5q-111 0 -192 32t-133.5 95t-77.5 155.5t-25 212.5q0 119 25 210.5t78 153.5t135.5 94t197.5 32q223 0 327.5 -124.5t104.5 -365.5zM653 475q0 97 -6 170t-22 122t-44 73t-73 24q-44 0 -71 -24t-41.5 -73
t-19.5 -122t-5 -170q0 -98 5 -171.5t19.5 -123.5t41.5 -75t71 -25q45 0 73 25t44 75t22 123.5t6 171.5zM409 1118v33l63 371h285v-37l-262 -367h-86z" />
    <glyph glyph-name="upsilontonos" unicode="&#x3cd;" horiz-adv-x="1063" 
d="M513 -20q-104 0 -177.5 24t-120 69t-68.5 110t-22 147v520l-95 24v66h384v-668q0 -53 10 -90t27.5 -59.5t41.5 -32.5t52 -10q52 0 82.5 26.5t46.5 75.5t20.5 119.5t4.5 158.5q0 98 -3.5 166t-15 115t-33 77.5t-58.5 53.5v92q88 -11 161.5 -44.5t127 -92.5t83.5 -146
t30 -205q0 -123 -34.5 -215.5t-97 -155t-150.5 -94t-196 -31.5zM421 1118v33l63 371h285v-37l-262 -367h-86z" />
    <glyph glyph-name="omegatonos" unicode="&#x3ce;" horiz-adv-x="1497" 
d="M488 -20q-109 0 -186 36t-125.5 98t-71 145t-22.5 176q0 121 39 213t106 157t157.5 104.5t193.5 54.5v-92q-45 -21 -82.5 -57.5t-64 -90t-41.5 -125.5t-15 -164q0 -60 7 -119.5t24.5 -107t48 -77t78.5 -29.5q56 0 98.5 51.5t56.5 142.5q-4 21 -11.5 56t-15 74t-13.5 76.5
t-6 61.5v64h212v-64q0 -24 -6 -61.5t-13.5 -76.5t-15 -74t-11.5 -56q14 -91 56.5 -142.5t98.5 -51.5q48 0 78.5 29.5t48 77t24.5 107t7 119.5q0 92 -15 164t-41.5 125.5t-64 90t-82.5 57.5v92q103 -15 193.5 -54.5t157.5 -104.5t106 -157t39 -213q0 -93 -22.5 -176
t-71.5 -145t-125.5 -98t-185.5 -36q-58 0 -101 16.5t-73.5 42t-50.5 57t-31 60.5h-10q-11 -29 -31 -60.5t-50.5 -57t-73.5 -42t-101 -16.5zM656 1118v33l63 371h285v-37l-262 -367h-86z" />
    <glyph glyph-name="uni0400" unicode="&#x400;" horiz-adv-x="1366" 
d="M35 73l172 27v1142l-172 26v73h1142v-341h-91l-32 217q-32 4 -77.5 7t-92.5 4.5t-89 2t-65 0.5h-208v-492h351l31 148h89v-412h-89l-31 152h-351v-517h253q62 0 117 1.5t99 3.5t75.5 5t46.5 6l57 248h91l-19 -374h-1207v73zM794 1452l-364 268v37h285l165 -273v-32h-86z
" />
    <glyph glyph-name="afii10023" unicode="&#x401;" horiz-adv-x="1366" 
d="M35 73l172 27v1142l-172 26v73h1142v-341h-91l-32 217q-32 4 -77.5 7t-92.5 4.5t-89 2t-65 0.5h-208v-492h351l31 148h89v-412h-89l-31 152h-351v-517h253q62 0 117 1.5t99 3.5t75.5 5t46.5 6l57 248h91l-19 -374h-1207v73zM852 1464q-25 0 -47 10t-38.5 26.5t-26 38.5
t-9.5 46q0 25 9.5 46.5t26 37.5t38.5 25.5t47 9.5t47 -9.5t38 -25.5t25 -37.5t9 -46.5q0 -24 -9 -46t-25 -38.5t-38 -26.5t-47 -10zM516 1464q-24 0 -46 10t-38.5 26.5t-26.5 38.5t-10 46q0 25 10 46.5t26.5 37.5t38.5 25.5t46 9.5q25 0 46.5 -9.5t37.5 -25.5t25.5 -37.5
t9.5 -46.5q0 -24 -9 -46t-25 -38.5t-38 -26.5t-47 -10z" />
    <glyph glyph-name="afii10051" unicode="&#x402;" horiz-adv-x="1638" 
d="M1474 2q0 -91 -20 -160t-54 -119t-79 -83.5t-96.5 -53.5t-106 -28t-106.5 -8q-34 0 -70.5 2.5t-71.5 7t-66.5 10t-54.5 12.5v284h89l30 -159q19 -23 54 -37t77 -14q69 0 114.5 48t45.5 142v690q0 57 -15.5 97t-43.5 65t-66 36.5t-83 11.5q-43 0 -82 -6.5t-70 -14.5v-625
l163 -27v-73h-652v73l173 27v1135h-51q-65 0 -110.5 -1.5t-77.5 -4.5t-54 -6.5t-40 -7.5l-27 -249h-91v375h1263v-355h-92l-27 229q-37 8 -123.5 13t-204.5 5h-49v-381q50 14 118 27t148 13q99 0 175.5 -23.5t128 -72.5t78.5 -126t27 -183v-485z" />
    <glyph glyph-name="afii10052" unicode="&#x403;" horiz-adv-x="1303" 
d="M731 0h-693v73l171 26v1142l-172 27v73h1137l18 -405h-90l-62 279q-30 6 -109 13t-204 7h-203v-1136l207 -26v-73zM519 1452v33l166 272h285v-37l-365 -268h-86z" />
    <glyph glyph-name="afii10053" unicode="&#x404;" horiz-adv-x="1389" 
d="M932 634h-500q2 -140 30.5 -243.5t80.5 -171.5t126.5 -102t167.5 -34q105 0 182.5 30t122.5 71l30 220h91l-6 -340q-41 -17 -96.5 -32t-118.5 -26.5t-130.5 -18.5t-131.5 -7q-161 0 -287 46t-213.5 133t-133.5 212.5t-46 283.5q0 180 46 312t133 218.5t213 128.5t286 42
q136 0 252 -20.5t207 -46.5l6 -322h-90l-26 194q-58 43 -131 66.5t-152 23.5q-91 0 -163.5 -26.5t-125 -86t-83.5 -156t-38 -236.5h498v-112z" />
    <glyph glyph-name="afii10054" unicode="&#x405;" horiz-adv-x="1139" 
d="M109 411h88l45 -215q21 -24 53 -44.5t72 -36.5t85.5 -25t92.5 -9q78 0 133 17.5t89 48.5t49.5 74.5t15.5 95.5q0 60 -30.5 99t-81 67t-114.5 49.5t-131.5 45.5t-131.5 55t-114.5 78.5t-81 115.5t-30.5 167q0 177 120.5 269.5t352.5 92.5q49 0 99.5 -3.5t98.5 -9.5t92 -14
t82 -16v-319h-89l-45 184q-44 32 -101 53t-137 21q-68 0 -116.5 -13.5t-79.5 -37.5t-45 -58t-14 -76q0 -54 31 -90t81 -62t114.5 -47t132 -45.5t132 -56t114.5 -79t81 -115.5t31 -165q0 -98 -28 -177t-89 -134.5t-156 -85.5t-230 -30q-65 0 -129 6t-121.5 16t-106.5 23
t-83 26v360z" />
    <glyph glyph-name="afii10055" unicode="&#x406;" horiz-adv-x="797" 
d="M556 100l172 -26v-74h-659v74l172 26v1141l-172 27v73h659v-73l-172 -27v-1141z" />
    <glyph glyph-name="afii10056" unicode="&#x407;" horiz-adv-x="797" 
d="M556 100l172 -26v-74h-659v74l172 26v1141l-172 27v73h659v-73l-172 -27v-1141zM565 1464q-25 0 -47 10t-38.5 26.5t-26 38.5t-9.5 46q0 25 9.5 46.5t26 37.5t38.5 25.5t47 9.5t47 -9.5t38 -25.5t25 -37.5t9 -46.5q0 -24 -9 -46t-25 -38.5t-38 -26.5t-47 -10zM229 1464
q-24 0 -46 10t-38.5 26.5t-26.5 38.5t-10 46q0 25 10 46.5t26.5 37.5t38.5 25.5t46 9.5q25 0 46.5 -9.5t37.5 -25.5t25.5 -37.5t9.5 -46.5q0 -24 -9 -46t-25 -38.5t-38 -26.5t-47 -10z" />
    <glyph glyph-name="afii10057" unicode="&#x408;" 
d="M501 1242l-172 26v73h639v-73l-152 -26v-810q0 -91 -20 -160t-54 -119t-79 -83.5t-96.5 -53.5t-106 -28t-106.5 -8q-34 0 -70.5 2t-71.5 6t-66.5 9.5t-54.5 12.5v304h89l30 -179q19 -23 54 -36t77 -13q69 0 114.5 48t45.5 142v966z" />
    <glyph glyph-name="afii10058" unicode="&#x409;" horiz-adv-x="2054" 
d="M1629 385q0 67 -18.5 119t-53.5 88t-85 55t-113 19h-68v-562h68q63 0 113 19t85 55t53.5 88t18.5 119zM169 -20q-45 0 -84.5 12t-68.5 35l-11 261h71l44 -109q8 -18 21.5 -29.5t38.5 -11.5q36 0 72.5 39t70.5 133t63 251t49 392l25 287l-188 28v73h1252v-73l-233 -27
v-465h111q149 0 254.5 -28.5t173 -80t98.5 -123.5t31 -159t-31 -158.5t-98.5 -121.5t-173 -77.5t-254.5 -27.5h-598v74l172 26v1131h-394l-25 -291q-22 -253 -52 -434.5t-75 -298.5t-109 -172t-152 -55z" />
    <glyph glyph-name="afii10059" unicode="&#x40a;" horiz-adv-x="2052" 
d="M842 0v74l152 26v543h-472v-543l152 -26v-74h-639v74l172 26v1141l-172 27v73h639v-73l-152 -27v-488h472v488l-152 27v73h639v-73l-172 -27v-488h92q149 0 254.5 -26.5t173 -75.5t98.5 -119.5t31 -157.5t-31 -156.5t-98.5 -118t-173 -74t-254.5 -25.5h-559zM1628 374
q0 134 -71.5 201.5t-198.5 67.5h-49v-539h59q127 0 193.5 68t66.5 202z" />
    <glyph glyph-name="afii10060" unicode="&#x40b;" horiz-adv-x="1638" 
d="M1416 100l143 -27v-73h-591v73l133 27v436q0 63 -19.5 103.5t-50 64t-67.5 33t-71 9.5q-43 0 -82 -6.5t-70 -14.5v-625l163 -27v-73h-652v73l173 27v1135h-51q-65 0 -110.5 -1.5t-77.5 -4.5t-54 -6.5t-40 -7.5l-27 -249h-91v375h1263v-355h-92l-27 229q-37 8 -123.5 13
t-204.5 5h-49v-381q25 7 54 14t59 13t59.5 9.5t55.5 3.5q52 0 105.5 -5t103 -20.5t93 -44t76 -74t51 -111.5t18.5 -157v-380z" />
    <glyph glyph-name="afii10061" unicode="&#x40c;" horiz-adv-x="1485" 
d="M1439 1341v-73l-164 -26l-413 -391l500 -751l105 -27v-73h-411l-410 651l-124 -95v-456l193 -27v-73h-680v73l172 27v1142l-172 26v73h660v-73l-173 -26v-561l581 561l-123 26v73h459zM635 1452v33l166 272h285v-37l-365 -268h-86z" />
    <glyph glyph-name="uni040D" unicode="&#x40d;" horiz-adv-x="1479" 
d="M791 1452l-364 268v37h285l165 -273v-32h-86zM1155 1242l-180 26v73h477v-73l-172 -26v-1242h-117l-827 1078v-978l180 -27v-73h-477v73l172 27v1142l-172 26v73h459l657 -857v758z" />
    <glyph glyph-name="afii10062" unicode="&#x40e;" horiz-adv-x="1503" 
d="M209 1242l-151 26v73h690v-73l-180 -26l306 -562l296 562l-164 26v73h456v-73l-142 -26l-436 -808q-59 -110 -109 -194.5t-102.5 -142t-111.5 -87.5t-136 -30q-22 0 -47 3t-49 9t-45 14t-36 17l-12 281h65l52 -117q17 -23 39.5 -36t50.5 -13q36 0 67 12.5t62 41.5
t63 76.5t68 117.5zM830 1453q-111 0 -184.5 24t-118 64t-63.5 92.5t-21 109.5h209q6 -102 54.5 -150.5t123.5 -48.5t123.5 48.5t54.5 150.5h209q-2 -57 -21 -109.5t-63.5 -92.5t-118 -64t-184.5 -24z" />
    <glyph glyph-name="afii10145" unicode="&#x40f;" horiz-adv-x="1593" 
d="M1558 1341v-74l-172 -26v-1141l172 -27v-73h-611l-93 -417h-115l-93 417h-612v73l173 27v1141l-173 26v74h661v-74l-172 -26v-1131h548v1131l-172 26v74h659z" />
    <glyph glyph-name="afii10017" unicode="&#x410;" horiz-adv-x="1479" 
d="M428 73v-73h-408v73l100 27l477 1252h290l475 -1252l102 -27v-73h-597v73l155 27l-128 347h-515l-123 -347zM641 1150l-221 -593h436z" />
    <glyph glyph-name="afii10018" unicode="&#x411;" horiz-adv-x="1354" 
d="M692 0h-656v73l171 26v1142l-172 27v73h1117l11 -330h-90l-55 204q-30 6 -109 13t-204 7h-183v-472h170q149 0 254.5 -27t173 -77.5t98.5 -121.5t31 -158t-31 -157.5t-98.5 -119.5t-173 -75.5t-254.5 -26.5zM919 379q0 134 -71.5 204t-198.5 70h-127v-549h137
q127 0 193.5 70.5t66.5 204.5z" />
    <glyph glyph-name="afii10019" unicode="&#x412;" horiz-adv-x="1366" 
d="M878 1010q0 57 -11.5 98.5t-37.5 69t-67.5 40.5t-100.5 13h-139v-467h147q61 0 101.5 17t64.5 48.5t33.5 77t9.5 103.5zM979 391q0 133 -66.5 198t-217.5 65h-173v-544q48 -2 92 -3q37 -2 75 -2.5t60 -0.5q63 0 107 20t71 57t39.5 90t12.5 120zM34 0v73l173 27v1142
l-173 26v73h651q149 0 249 -21t160.5 -60t86 -95t25.5 -127q0 -67 -22.5 -121t-60.5 -94.5t-88 -67t-105 -38.5q99 -10 170.5 -37t118 -69t68.5 -97.5t22 -122.5q0 -87 -31 -160t-98.5 -125.5t-173 -82t-254.5 -29.5q-120 0 -238 3t-218 3h-262z" />
    <glyph glyph-name="afii10020" unicode="&#x413;" horiz-adv-x="1303" 
d="M731 0h-693v73l171 26v1142l-172 27v73h1137l18 -405h-90l-62 279q-30 6 -109 13t-204 7h-203v-1136l207 -26v-73z" />
    <glyph glyph-name="afii10021" unicode="&#x414;" horiz-adv-x="1409" 
d="M275 1341h1080v-73l-173 -27v-1141l200 -27l-35 -510h-125l-129 437h-788l-133 -437h-125l-35 510l200 25q54 106 99.5 234t78.5 273.5t51.5 305.5t20.5 329l-187 28v73zM867 1231h-283q-1 -164 -18.5 -321.5t-47.5 -301t-71.5 -270t-90.5 -228.5h511v1121z" />
    <glyph glyph-name="afii10022" unicode="&#x415;" horiz-adv-x="1366" 
d="M35 73l172 27v1142l-172 26v73h1142v-341h-91l-32 217q-32 4 -77.5 7t-92.5 4.5t-89 2t-65 0.5h-208v-492h351l31 148h89v-412h-89l-31 152h-351v-517h253q62 0 117 1.5t99 3.5t75.5 5t46.5 6l57 248h91l-19 -374h-1207v73z" />
    <glyph glyph-name="afii10024" unicode="&#x416;" horiz-adv-x="2025" 
d="M712 1341h601v-73l-153 -26v-558l478 558l-113 26v73h412v-73l-144 -26l-341 -398l454 -744l115 -27v-73h-400l-353 638l-108 -87v-451l159 -27v-73h-613v73l159 27v451l-109 87l-352 -638h-400v73l115 27l453 744l-340 398l-144 26v73h412v-73l-113 -26l478 -558v558
l-153 26v73z" />
    <glyph glyph-name="afii10025" unicode="&#x417;" horiz-adv-x="1081" 
d="M1025 365q0 -91 -37.5 -162.5t-108 -121t-172.5 -75.5t-231 -26q-102 0 -194.5 10t-175.5 30l-12 325h92l52 -215q16 -9 40 -18t51.5 -15.5t57.5 -11t57 -4.5q73 0 123.5 20.5t82.5 58.5t46.5 92.5t14.5 122.5q0 72 -19.5 120.5t-52.5 78t-77 43t-92 16.5l-120 7v121
l116 8q44 3 80.5 19.5t62.5 46.5t40 74.5t14 104.5q0 67 -15 113t-42.5 74.5t-65.5 40.5t-84 12q-27 0 -55.5 -4t-55 -11t-49 -16.5t-38.5 -20.5l-43 -194h-87v305q72 18 163.5 30.5t192.5 12.5q239 0 365 -81.5t126 -248.5q0 -63 -19.5 -117.5t-57.5 -96.5t-93.5 -70.5
t-127.5 -39.5q174 -21 261 -104.5t87 -232.5z" />
    <glyph glyph-name="afii10026" unicode="&#x418;" horiz-adv-x="1593" 
d="M35 0v74l172 26v1141l-172 27v73h659v-73l-172 -27v-867l548 810v57l-172 27v73h661v-73l-173 -27v-1141l173 -26v-74h-661v74l172 26v893l-548 -810v-83l172 -26v-74h-659z" />
    <glyph glyph-name="afii10027" unicode="&#x419;" horiz-adv-x="1593" 
d="M35 0v74l172 26v1141l-172 27v73h659v-73l-172 -27v-867l548 810v57l-172 27v73h661v-73l-173 -27v-1141l173 -26v-74h-661v74l172 26v893l-548 -810v-83l172 -26v-74h-659zM799 1454q-111 0 -184.5 24t-118 64t-63.5 92.5t-21 109.5h209q6 -102 54.5 -150.5t123.5 -48.5
t123.5 48.5t54.5 150.5h209q-2 -57 -21 -109.5t-63.5 -92.5t-118 -64t-184.5 -24z" />
    <glyph glyph-name="afii10028" unicode="&#x41a;" horiz-adv-x="1485" 
d="M1439 1341v-73l-164 -26l-413 -391l500 -751l105 -27v-73h-411l-410 651l-124 -95v-456l193 -27v-73h-680v73l172 27v1142l-172 26v73h660v-73l-173 -26v-561l581 561l-123 26v73h459z" />
    <glyph glyph-name="afii10029" unicode="&#x41b;" horiz-adv-x="1526" 
d="M272 1268v73h1220v-73l-173 -27v-1141l173 -26v-74h-661v74l172 26v1131h-421l-25 -291q-22 -253 -52 -434.5t-75 -298.5t-109 -172t-152 -55q-45 0 -84.5 12t-68.5 35l-11 261h71l44 -109q8 -18 21.5 -29.5t38.5 -11.5q36 0 72.5 39t70.5 133t63 251t49 392l25 287z" />
    <glyph glyph-name="afii10030" unicode="&#x41c;" horiz-adv-x="1933" 
d="M882 0h-55l-495 1133v-1033l180 -27v-73h-477v73l172 27v1142l-172 26v73h527l383 -882l391 882h538v-73l-172 -26v-1142l172 -27v-73h-667v73l180 27v1033z" />
    <glyph glyph-name="afii10031" unicode="&#x41d;" horiz-adv-x="1593" 
d="M35 0v74l172 26v1141l-172 27v73h659v-73l-172 -27v-496h548v496l-172 27v73h661v-73l-173 -27v-1141l173 -26v-74h-661v74l172 26v535h-548v-535l172 -26v-74h-659z" />
    <glyph glyph-name="afii10032" unicode="&#x41e;" horiz-adv-x="1593" 
d="M432 672q0 -140 17 -250t59 -186t112.5 -116t176.5 -40t176 40t112 116t59 186t17 250q0 139 -17 248t-59 183t-112 113t-176 39t-176.5 -39t-112.5 -113t-59 -183t-17 -248zM100 672q0 178 46 307t135 213t218.5 124t297.5 40q162 0 291 -40t219 -124t138 -213t48 -307
t-48 -308.5t-138 -215.5t-219 -126.5t-291 -41.5t-291 41.5t-219.5 126.5t-138.5 215.5t-48 308.5z" />
    <glyph glyph-name="afii10033" unicode="&#x41f;" horiz-adv-x="1593" 
d="M40 0v74l172 26v1141l-172 27v73h1513v-73l-173 -27v-1141l173 -26v-74h-661v74l172 26v1131h-537v-1131l172 -26v-74h-659z" />
    <glyph glyph-name="afii10034" unicode="&#x420;" horiz-adv-x="1251" 
d="M871 944q0 80 -14 135t-45.5 88.5t-83 48.5t-126.5 15h-79v-595h83q76 0 126.5 19.5t81.5 58t44 96t13 134.5zM523 526v-426l223 -27v-73h-698v73l159 27v1142l-172 26v73h591q168 0 277.5 -30.5t174 -84t90 -125.5t25.5 -155q0 -82 -21.5 -158t-77 -134t-150.5 -93
t-241 -35h-180z" />
    <glyph glyph-name="afii10035" unicode="&#x421;" horiz-adv-x="1479" 
d="M815 -20q-169 0 -301.5 46t-224.5 133t-140.5 212.5t-48.5 283.5q0 180 48.5 312t140 218.5t224 128.5t301.5 42q143 0 264.5 -20.5t218.5 -46.5l6 -322h-90l-28 194q-63 43 -142 66.5t-165 23.5q-105 0 -188 -30.5t-140.5 -100.5t-87.5 -183t-30 -279q0 -146 30 -254
t86 -179t137.5 -106.5t184.5 -35.5q113 0 197.5 30t132.5 71l32 220h91l-6 -340q-43 -17 -101.5 -32t-125 -26.5t-137.5 -18.5t-138 -7z" />
    <glyph glyph-name="afii10036" unicode="&#x422;" horiz-adv-x="1366" 
d="M310 0v73l213 27v1135h-51q-131 0 -208 -6t-114 -14l-27 -249h-91v375h1303v-375h-92l-27 249q-37 8 -123.5 13t-204.5 5h-49v-1133l213 -27v-73h-742z" />
    <glyph glyph-name="afii10037" unicode="&#x423;" horiz-adv-x="1503" 
d="M209 1242l-151 26v73h690v-73l-180 -26l306 -562l296 562l-164 26v73h456v-73l-142 -26l-436 -808q-59 -110 -109 -194.5t-102.5 -142t-111.5 -87.5t-136 -30q-22 0 -47 3t-49 9t-45 14t-36 17l-12 281h65l52 -117q17 -23 39.5 -36t50.5 -13q36 0 67 12.5t62 41.5
t63 76.5t68 117.5z" />
    <glyph glyph-name="afii10038" unicode="&#x424;" horiz-adv-x="1759" 
d="M742 324v710h-96q-54 0 -102 -21t-84 -64t-56.5 -107.5t-20.5 -151.5q0 -84 19.5 -151.5t54 -115.5t81 -73.5t99.5 -25.5h105zM1122 324q53 0 99.5 25.5t81 73.5t54 115.5t19.5 151.5q0 87 -20.5 151.5t-56.5 107.5t-84 64t-102 21h-96v-710h105zM570 0v74l172 26v121
h-140q-98 0 -175 19.5t-135 54t-98.5 80t-66 98t-37 108.5t-11.5 111q0 83 27 163t89 142.5t163 101t249 38.5h135v104l-172 27v73h619v-73l-172 -27v-104h135q148 0 249 -38.5t163 -101t89 -142.5t27 -163q0 -55 -11.5 -111t-37 -108.5t-66 -98t-98.5 -80t-135 -54
t-175 -19.5h-140v-121l172 -26v-74h-619z" />
    <glyph glyph-name="afii10039" unicode="&#x425;" horiz-adv-x="1479" 
d="M330 100l166 -27v-73h-458v73l148 27l431 548l-384 594l-151 26v73h653v-73l-170 -26l234 -362l285 362l-166 26v73h459v-73l-148 -26l-365 -463l439 -679l152 -27v-73h-653v73l170 27l-290 447z" />
    <glyph glyph-name="afii10040" unicode="&#x426;" horiz-adv-x="1593" 
d="M1361 100l200 -27l-35 -510h-125l-129 437h-1232v73l173 27v1141l-173 26v74h661v-74l-172 -26v-1131h517v1131l-172 26v74h659v-74l-172 -26v-1141z" />
    <glyph glyph-name="afii10041" unicode="&#x427;" horiz-adv-x="1503" 
d="M168 1241l-143 27v73h591v-73l-133 -27v-424q0 -61 17.5 -103t47 -68.5t67.5 -38.5t79 -12q26 0 59.5 4t70.5 11.5t76.5 18.5t78.5 24v588l-163 27v73h652v-73l-173 -27v-1141l159 -27v-73h-658v73l183 27v428q-51 -18 -102 -33t-98.5 -25t-89.5 -15.5t-74 -5.5
q-52 0 -105.5 5t-103 20.5t-93 44t-76 74t-51 111.5t-18.5 157v380z" />
    <glyph glyph-name="afii10042" unicode="&#x428;" horiz-adv-x="2249" 
d="M2214 1341v-74l-172 -26v-1141l172 -27v-73h-2179v73l173 27v1141l-173 26v74h641v-74l-152 -26v-1131h443v1131l-152 26v74h620v-74l-152 -26v-1131h443v1131l-152 26v74h640z" />
    <glyph glyph-name="afii10043" unicode="&#x429;" horiz-adv-x="2249" 
d="M1933 0h-1898v73l173 27v1141l-173 26v74h641v-74l-152 -26v-1131h433v1131l-152 26v74h620v-74l-152 -26v-1131h433v1131l-152 26v74h640v-74l-172 -26v-1141l200 -27l-35 -510h-125z" />
    <glyph glyph-name="afii10044" unicode="&#x42a;" horiz-adv-x="1567" 
d="M802 1241v-478h112q149 0 254.5 -27t173 -77.5t98.5 -121.5t31 -158t-31 -157.5t-98.5 -119.5t-173 -75.5t-254.5 -26.5h-598v73l171 26v1136h-51q-39 0 -79 -2t-76 -5t-64.5 -6.5t-43.5 -6.5l-44 -204h-90v330h995v-73zM1141 379q0 134 -71.5 204t-198.5 70h-69v-549h79
q127 0 193.5 70.5t66.5 204.5z" />
    <glyph glyph-name="afii10045" unicode="&#x42b;" horiz-adv-x="2011" 
d="M909 379q0 134 -71.5 204t-198.5 70h-117v-549h127q127 0 193.5 70.5t66.5 204.5zM522 1241v-478h160q149 0 254.5 -27t173 -77.5t98.5 -121.5t31 -158t-31 -157.5t-98.5 -119.5t-173 -75.5t-254.5 -26.5h-646v73l171 26v1142l-172 27v73h719v-73zM1804 100l172 -26v-74
h-659v74l172 26v1141l-172 27v73h659v-73l-172 -27v-1141z" />
    <glyph glyph-name="afii10046" unicode="&#x42c;" horiz-adv-x="1354" 
d="M929 379q0 134 -71.5 204t-198.5 70h-137v-549h147q127 0 193.5 70.5t66.5 204.5zM522 1241v-478h180q149 0 254.5 -27t173 -77.5t98.5 -121.5t31 -158t-31 -157.5t-98.5 -119.5t-173 -75.5t-254.5 -26.5h-666v73l171 26v1142l-172 27v73h719v-73z" />
    <glyph glyph-name="afii10047" unicode="&#x42d;" horiz-adv-x="1389" 
d="M463 746h498q-6 140 -32.5 236.5t-74 156t-115.5 86t-158 26.5q-78 0 -150.5 -23.5t-130.5 -66.5l-28 -194h-90l6 322q96 26 212 46.5t250 20.5q318 0 481.5 -170.5t163.5 -530.5q0 -158 -44.5 -283.5t-129.5 -212.5t-209 -133t-283 -46q-64 0 -131 7t-130.5 18.5
t-120 26.5t-99.5 32l-6 340h91l32 -220q44 -41 122 -71t182 -30q186 0 287 136t106 415h-499v112z" />
    <glyph glyph-name="afii10048" unicode="&#x42e;" horiz-adv-x="2306" 
d="M522 100l172 -26v-74h-659v74l172 26v1141l-172 27v73h659v-73l-172 -27v-495h373q9 159 55.5 274t129.5 189.5t201 110.5t269 36q154 0 275.5 -40t206 -124t129.5 -213t45 -307t-45 -308.5t-129.5 -215.5t-206 -126.5t-275.5 -41.5q-150 0 -269.5 39t-204 119.5
t-131.5 204t-52 291.5h-371v-534zM1225 672q0 -140 15 -250t51.5 -186t99.5 -116t159 -40t158.5 40t99 116t51.5 186t15 250q0 139 -15 248t-51.5 183t-99 113t-158.5 39t-159 -39t-99.5 -113t-51.5 -183t-15 -248z" />
    <glyph glyph-name="afii10049" unicode="&#x42f;" horiz-adv-x="1479" 
d="M186 966q0 83 29 152t97 118.5t181 77t281 27.5h671v-73l-172 -26v-1142l159 -27v-73h-647v73l172 27v468h-216l-304 -568h-434v73l145 27l285 503q-63 21 -109.5 57.5t-77 84.5t-45.5 104.5t-15 116.5zM498 964q0 -77 19 -131t58 -88.5t98 -50.5t139 -16h145v553h-140
q-77 0 -136.5 -12t-100 -42t-61.5 -81.5t-21 -131.5z" />
    <glyph glyph-name="afii10065" unicode="&#x430;" 
d="M546 961q77 0 142 -13t112 -43.5t73 -80.5t26 -123v-611l94 -24v-66h-346l-22 72q-19 -13 -44.5 -29t-58.5 -30t-74 -23.5t-91 -9.5q-82 0 -137.5 21t-89.5 58.5t-49 89t-15 111.5q0 97 34 155t91.5 89.5t134 41.5t162.5 12l122 3v137q0 83 -34 126.5t-105 43.5
q-55 0 -100.5 -15.5t-87.5 -36.5l-38 -117h-66v227q46 7 87.5 13t84.5 11t90.5 8t104.5 3zM610 472l-84 -3q-44 -2 -76 -12t-53.5 -33.5t-32 -61.5t-10.5 -96q0 -85 30 -125t78 -40t82 10.5t66 24.5v336z" />
    <glyph glyph-name="afii10066" unicode="&#x431;" 
d="M80 578q0 176 20.5 315t72 238.5t138 159t218.5 75.5q60 7 115.5 14t99.5 17.5t73.5 26.5t37.5 42h70q-3 -104 -29 -165.5t-76 -96.5t-124 -51.5t-173 -29.5q-94 -13 -150.5 -32.5t-88 -55t-44 -92t-18.5 -143.5h7q37 75 110 120t190 45q215 0 317 -124.5t102 -365.5
q0 -239 -107 -367t-333 -128q-212 0 -320 146.5t-108 451.5zM656 475q0 97 -6 170t-22 122t-44 73t-73 24q-44 0 -71 -24t-41.5 -73t-19.5 -122t-5 -170q0 -98 5 -171.5t19.5 -123.5t41.5 -75t71 -25q45 0 73 25t44 75t22 123.5t6 171.5z" />
    <glyph glyph-name="afii10067" unicode="&#x432;" horiz-adv-x="1106" 
d="M53 0v66l95 24v760l-95 24v66h481q100 0 183 -10.5t141.5 -37t91 -71t32.5 -113.5q0 -48 -16 -83.5t-45.5 -61t-71.5 -42.5t-93 -26v-8q140 -11 213 -65.5t73 -157.5q0 -68 -24.5 -117.5t-81 -82t-149.5 -48.5t-230 -16h-504zM751 274q0 49 -16 81t-43 51t-64 26t-79 7
h-112v-349h111q98 0 150.5 43t52.5 141zM437 529h93q87 0 124 45t37 122q0 72 -41 113t-130 41h-83v-321z" />
    <glyph glyph-name="afii10068" unicode="&#x433;" horiz-adv-x="930" 
d="M877 632h-75l-43 186q-35 6 -88.5 12.5t-110.5 6.5h-122v-747l153 -24v-66h-537v66l95 24v760l-95 24v66h823v-308z" />
    <glyph glyph-name="afii10069" unicode="&#x434;" horiz-adv-x="1036" 
d="M207 875v65h776v-66l-95 -24v-760l125 -24l-16 -422h-105l-137 356h-471l-137 -356h-105l-17 430l113 19q37 70 66 155.5t51 182t36 202.5t22 217zM263 103h336v747h-180q-7 -111 -19.5 -217t-32 -201.5t-45.5 -178.5t-59 -150z" />
    <glyph glyph-name="afii10070" unicode="&#x435;" horiz-adv-x="909" 
d="M494 963q83 0 150 -20t114 -68.5t72.5 -129t25.5 -201.5v-82h-493v-16q0 -67 5.5 -128.5t30 -109t75 -75.5t139.5 -28q59 0 115 9t107 20v-77q-23 -14 -58 -28t-76.5 -24.5t-87.5 -17t-91 -6.5q-121 0 -207 32t-140.5 95t-79.5 155t-25 212q0 246 105.5 367t318.5 121z
M483 862q-36 0 -59 -21t-36.5 -59t-18.5 -93t-5 -122h218q0 67 -2.5 122t-12 93t-29.5 59t-55 21z" />
    <glyph glyph-name="afii10072" unicode="&#x436;" horiz-adv-x="1485" 
d="M958 444l-92 -55v-299l75 -24v-66h-398v66l75 24v299l-94 57l-217 -446h-303v64l82 20l277 528l-218 239l-95 23v66h304v-66l-65 -23l329 -379v378l-75 24v66h398v-66l-75 -24v-378l329 379l-65 23v66h304v-66l-95 -23l-219 -239l278 -528l82 -20v-64h-303z" />
    <glyph glyph-name="afii10073" unicode="&#x437;" horiz-adv-x="823" 
d="M559 492q41 -6 79.5 -23t68.5 -44.5t48 -65t18 -85.5q0 -147 -112 -220.5t-344 -73.5q-42 0 -87 6.5t-85 18t-72 25.5t-48 29v80q45 -14 109.5 -24.5t131.5 -10.5q64 0 106 13t66.5 36t34.5 54t10 67t-9.5 66t-30.5 51t-55.5 32.5t-85.5 11.5h-74v101h87q47 0 76.5 14.5
t46.5 39t23.5 56.5t6.5 67q0 75 -39 113.5t-117 38.5q-35 0 -73.5 -13t-63.5 -35l-34 -125h-72v242q60 12 128.5 21.5t149.5 9.5q205 0 304.5 -57.5t99.5 -181.5q0 -41 -14.5 -76.5t-40 -64t-61 -50.5t-76.5 -37v-6z" />
    <glyph glyph-name="afii10074" unicode="&#x438;" horiz-adv-x="1180" 
d="M657 0v66l85 24v499l-304 -396v-103l85 -24v-66h-469v66l95 24v760l-95 24v66h469v-66l-85 -24v-504l304 396v108l-85 24v66h469v-66l-95 -24v-760l95 -24v-66h-469z" />
    <glyph glyph-name="afii10075" unicode="&#x439;" horiz-adv-x="1180" 
d="M657 0v66l85 24v499l-304 -396v-103l85 -24v-66h-469v66l95 24v760l-95 24v66h469v-66l-85 -24v-504l304 396v108l-85 24v66h469v-66l-95 -24v-760l95 -24v-66h-469zM593 1120q-111 0 -184.5 24t-118 64t-63.5 92.5t-21 109.5h209q6 -102 54.5 -150.5t123.5 -48.5
t123.5 48.5t54.5 150.5h209q-2 -57 -21 -109.5t-63.5 -92.5t-118 -64t-184.5 -24z" />
    <glyph glyph-name="afii10076" unicode="&#x43a;" horiz-adv-x="1180" 
d="M428 464l410 383l-96 29v63h360v-63l-100 -25l-273 -246l356 -517l92 -25v-63h-497v63l86 27l-231 346l-107 -72v-274l85 -24v-66h-469v66l95 24v760l-95 24v66h469v-66l-85 -24v-386z" />
    <glyph glyph-name="afii10077" unicode="&#x43b;" horiz-adv-x="1149" 
d="M162 106q18 0 40 20.5t45 74.5t47 148t47 240l41 260l-117 25v66h830v-66l-95 -24v-760l95 -24v-66h-479v66l95 24v747h-215l-40 -259q-22 -143 -46 -254t-58.5 -187.5t-84 -116.5t-122.5 -40q-33 0 -64 8t-48 19l-8 219h64l33 -88q5 -11 14.5 -21.5t25.5 -10.5z" />
    <glyph glyph-name="afii10078" unicode="&#x43c;" horiz-adv-x="1395" 
d="M635 0h-48l-322 752v-662l92 -24v-66h-303v66l95 24v761l-95 23v66h372l249 -582l260 582h396v-66l-85 -24v-760l85 -24v-66h-457v66l92 24v670z" />
    <glyph glyph-name="afii10079" unicode="&#x43d;" horiz-adv-x="1180" 
d="M742 429h-304v-339l95 -24v-66h-479v66l95 24v760l-95 24v66h479v-66l-95 -24v-318h304v318l-95 24v66h479v-66l-95 -24v-760l95 -24v-66h-479v66l95 24v339z" />
    <glyph glyph-name="afii10080" unicode="&#x43e;" 
d="M946 475q0 -120 -24.5 -212t-77.5 -155t-136.5 -95.5t-201.5 -32.5q-111 0 -192 32t-133.5 95t-77.5 155.5t-25 212.5q0 119 25 210.5t78 153.5t135.5 94t197.5 32q223 0 327.5 -124.5t104.5 -365.5zM653 475q0 97 -6 170t-22 122t-44 73t-73 24q-44 0 -71 -24t-41.5 -73
t-19.5 -122t-5 -170q0 -98 5 -171.5t19.5 -123.5t41.5 -75t71 -25q45 0 73 25t44 75t22 123.5t6 171.5z" />
    <glyph glyph-name="afii10081" unicode="&#x43f;" horiz-adv-x="1180" 
d="M742 837h-304v-747l95 -24v-66h-479v66l95 24v760l-95 24v66h1072v-66l-95 -24v-760l95 -24v-66h-479v66l95 24v747z" />
    <glyph glyph-name="afii10082" unicode="&#x440;" horiz-adv-x="1139" 
d="M409 892q22 15 48.5 28.5t58 23t69.5 15.5t84 6q196 0 291.5 -115t95.5 -363q0 -114 -25.5 -207.5t-78.5 -160t-134 -103t-192 -36.5q-54 0 -106 6.5t-108 20.5q1 -11 2.5 -30t2 -40.5t1 -42t0.5 -35.5v-205l138 -24v-66h-529v66l102 24v1196l-103 24v66h381zM763 480
q0 109 -14 181.5t-38 115t-55.5 60t-66.5 17.5q-51 0 -94.5 -11t-76.5 -27v-709q81 -21 169 -21q90 0 133 99t43 295z" />
    <glyph glyph-name="afii10083" unicode="&#x441;" horiz-adv-x="909" 
d="M858 57q-24 -19 -56.5 -33t-71 -23.5t-79.5 -14.5t-81 -5q-134 0 -229 33.5t-155 96.5t-88 154t-28 207q0 129 37 222.5t100.5 153.5t147.5 88.5t177 28.5q86 0 162.5 -10.5t142.5 -24.5v-278h-72l-42 165q-16 12 -31.5 20.5t-33.5 14t-39.5 8t-49.5 2.5q-39 0 -76 -22.5
t-66.5 -69t-47.5 -119.5t-18 -173q0 -84 11.5 -153t40.5 -118t80 -75.5t129 -26.5q65 0 128.5 8t107.5 21v-77z" />
    <glyph glyph-name="afii10084" unicode="&#x442;" horiz-adv-x="1006" 
d="M981 940v-288h-75l-43 166q-35 6 -83.5 12.5t-105.5 6.5h-27v-747l153 -25v-65h-606v65l164 25v747h-26q-57 0 -105.5 -6.5t-83.5 -12.5l-43 -166h-75v288h956z" />
    <glyph glyph-name="afii10085" unicode="&#x443;" 
d="M462 -29l-376 879l-66 24v66h481v-66l-112 -26l221 -520l197 522l-110 24v66h307v-66l-68 -20l-371 -913q-32 -82 -65 -152t-73.5 -121.5t-92.5 -80.5t-121 -29q-28 0 -48.5 1t-39 3.5t-37 6t-40.5 8.5v242h60l43 -126q14 -11 31.5 -17t42.5 -6q41 0 71.5 21t55.5 56.5
t46.5 83t45.5 100.5z" />
    <glyph glyph-name="afii10086" unicode="&#x444;" horiz-adv-x="1417" 
d="M576 49q-15 -11 -34.5 -23t-44.5 -22t-54 -17t-63 -7q-159 0 -234 119t-75 362q0 117 20.5 210.5t63 159t107 100t152.5 34.5q41 0 85.5 -12t81.5 -26q0 13 -1 37.5t-2 51t-1.5 52t-0.5 40.5v223l-97 25v65h366v-343q0 -12 -0.5 -41.5t-1.5 -59.5q-1 -35 -1 -76
q35 25 89.5 44.5t117.5 19.5q145 0 221 -123t76 -361q0 -115 -21 -207.5t-64 -158t-107 -100.5t-150 -35q-20 0 -43 3.5t-45 9t-42 12.5t-35 14q1 -12 2.5 -31.5t2 -40.5t1 -39t0.5 -27v-227l102 -24v-66h-476v66l105 24v395zM339 461q0 -105 9.5 -175t27 -112t42.5 -60
t56 -18q23 0 49.5 10.5t52.5 26.5v704q-27 10 -53.5 15t-42.5 5q-31 0 -57 -23t-44.5 -71.5t-29 -123.5t-10.5 -178zM1078 481q0 102 -10 172.5t-27.5 113.5t-41.5 62t-53 19q-18 0 -45.5 -7.5t-55.5 -23.5v-704q22 -12 50 -20t51 -8q71 0 101.5 96.5t30.5 299.5z" />
    <glyph glyph-name="afii10087" unicode="&#x445;" 
d="M31 875v65h502v-65l-105 -27l137 -211l181 213l-94 25v65h320v-65l-83 -21l-264 -310l298 -458l90 -21v-65h-502v65l105 23l-164 253l-218 -255l94 -21v-65h-320v65l84 16l300 352l-270 417z" />
    <glyph glyph-name="afii10088" unicode="&#x446;" horiz-adv-x="1180" 
d="M888 0h-834v66l95 24v760l-95 24v66h479v-66l-95 -24v-747h304v747l-95 24v66h479v-66l-95 -24v-760l115 -24l-16 -422h-115z" />
    <glyph glyph-name="afii10089" unicode="&#x447;" horiz-adv-x="1155" 
d="M414 568q0 -29 4 -55.5t16 -46t33.5 -31t56.5 -11.5q55 0 99.5 11.5t93.5 27.5v387l-95 24v66h479v-66l-95 -24v-760l95 -24v-66h-479v66l95 24v289q-75 -38 -157.5 -64t-162.5 -26q-78 0 -130.5 21.5t-84 58t-44.5 85t-13 101.5v295l-95 24v66h479v-66l-95 -24v-282z
" />
    <glyph glyph-name="afii10090" unicode="&#x448;" horiz-adv-x="1729" 
d="M438 103h282v747l-95 24v66h479v-66l-95 -24v-747h282v747l-95 24v66h479v-66l-95 -24v-760l95 -24v-66h-1621v66l95 24v760l-95 24v66h479v-66l-95 -24v-747z" />
    <glyph glyph-name="afii10091" unicode="&#x449;" horiz-adv-x="1729" 
d="M1716 66l-16 -422h-115l-127 356h-1404v66l95 24v760l-95 24v66h479v-66l-95 -24v-747h282v747l-95 24v66h479v-66l-95 -24v-747h282v747l-95 24v66h479v-66l-95 -24v-760z" />
    <glyph glyph-name="afii10092" unicode="&#x44a;" horiz-adv-x="1194" 
d="M629 850v-306h56q137 0 226 -17t140.5 -51.5t72 -85.5t20.5 -118q0 -68 -21.5 -118.5t-74.5 -85t-142.5 -51.5t-226.5 -17h-434v66l95 24v747h-18q-57 0 -105.5 -6.5t-83.5 -12.5l-43 -166h-75v288h729v-66zM670 90q92 0 137.5 42t45.5 141t-49 140t-133 41h-42v-364h41z
" />
    <glyph glyph-name="afii10093" unicode="&#x44b;" horiz-adv-x="1599" 
d="M724 273q0 49 -13.5 83.5t-38 56.5t-59 31.5t-76.5 9.5h-99v-364h91q99 0 147 42t48 141zM438 850v-306h116q137 0 226 -17t141.5 -51.5t73 -85.5t20.5 -118q0 -68 -22 -118.5t-75.5 -85t-143.5 -51.5t-227 -17h-493v66l95 24v760l-95 24v66h499v-66zM1161 850l-95 24v66
h479v-66l-95 -24v-760l95 -24v-66h-479v66l95 24v760z" />
    <glyph glyph-name="afii10094" unicode="&#x44c;" horiz-adv-x="1083" 
d="M742 273q0 49 -13.5 83.5t-38 56.5t-59 31.5t-76.5 9.5h-117v-364h109q99 0 147 42t48 141zM438 850v-306h134q137 0 226 -17t141.5 -51.5t73 -85.5t20.5 -118q0 -68 -22 -118.5t-75.5 -85t-143.5 -51.5t-227 -17h-511v66l95 24v760l-95 24v66h499v-66z" />
    <glyph glyph-name="afii10095" unicode="&#x44d;" horiz-adv-x="885" 
d="M220 536h302q-2 86 -17 147.5t-39.5 101.5t-56.5 58.5t-68 18.5q-48 0 -83 -11t-67 -34l-42 -165h-72v278q66 14 146 24.5t155 10.5q93 0 173 -27t138.5 -85.5t92 -150.5t33.5 -221q0 -116 -29 -208.5t-89 -157t-152.5 -99.5t-219.5 -35q-38 0 -77 5t-75 14.5t-67 23.5
t-55 33v77q22 -6 49 -11.5t56.5 -9.5t59.5 -6t57 -2q126 0 185.5 82.5t64.5 245.5h-303v103z" />
    <glyph glyph-name="afii10096" unicode="&#x44e;" horiz-adv-x="1565" 
d="M620 532q6 105 34 186t81 136t132.5 83t187.5 28q223 0 327.5 -124.5t104.5 -365.5q0 -120 -24.5 -212t-77.5 -155t-136.5 -95.5t-201.5 -32.5q-212 0 -315 115t-112 334h-182v-339l95 -24v-66h-479v66l95 24v760l-95 24v66h479v-66l-95 -24v-318h182zM1194 475
q0 97 -6 170t-22 122t-44 73t-73 24q-44 0 -71 -24t-41.5 -73t-19.5 -122t-5 -170q0 -98 5 -171.5t19.5 -123.5t41.5 -75t71 -25q45 0 73 25t44 75t22 123.5t6 171.5z" />
    <glyph glyph-name="afii10097" unicode="&#x44f;" horiz-adv-x="1108" 
d="M670 90v304h-139l-165 -394h-345v64l82 20l180 365q-87 29 -132.5 91t-45.5 140q0 137 99.5 198.5t305.5 61.5h544v-66l-95 -24v-760l95 -24v-66h-479v66zM670 850h-103q-35 0 -66.5 -9.5t-54.5 -31t-36.5 -55.5t-13.5 -83q0 -41 9 -75t29 -59t51.5 -39t75.5 -14h109v366
z" />
    <glyph glyph-name="uni0450" unicode="&#x450;" horiz-adv-x="909" 
d="M521 1129l-364 268v37h285l165 -273v-32h-86zM494 963q83 0 150 -20t114 -68.5t72.5 -129t25.5 -201.5v-82h-493v-16q0 -67 5.5 -128.5t30 -109t75 -75.5t139.5 -28q59 0 115 9t107 20v-77q-23 -14 -58 -28t-76.5 -24.5t-87.5 -17t-91 -6.5q-121 0 -207 32t-140.5 95
t-79.5 155t-25 212q0 246 105.5 367t318.5 121zM483 862q-36 0 -59 -21t-36.5 -59t-18.5 -93t-5 -122h218q0 67 -2.5 122t-12 93t-29.5 59t-55 21z" />
    <glyph glyph-name="afii10071" unicode="&#x451;" horiz-adv-x="909" 
d="M494 963q83 0 150 -20t114 -68.5t72.5 -129t25.5 -201.5v-82h-493v-16q0 -67 5.5 -128.5t30 -109t75 -75.5t139.5 -28q59 0 115 9t107 20v-77q-23 -14 -58 -28t-76.5 -24.5t-87.5 -17t-91 -6.5q-121 0 -207 32t-140.5 95t-79.5 155t-25 212q0 246 105.5 367t318.5 121z
M483 862q-36 0 -59 -21t-36.5 -59t-18.5 -93t-5 -122h218q0 67 -2.5 122t-12 93t-29.5 59t-55 21zM642 1130q-25 0 -47 10t-38.5 26.5t-26 38.5t-9.5 46q0 25 9.5 46.5t26 37.5t38.5 25.5t47 9.5t47 -9.5t38 -25.5t25 -37.5t9 -46.5q0 -24 -9 -46t-25 -38.5t-38 -26.5
t-47 -10zM306 1130q-24 0 -46 10t-38.5 26.5t-26.5 38.5t-10 46q0 25 10 46.5t26.5 37.5t38.5 25.5t46 9.5q25 0 46.5 -9.5t37.5 -25.5t25.5 -37.5t9.5 -46.5q0 -24 -9 -46t-25 -38.5t-38 -26.5t-47 -10z" />
    </font>
</defs>
</svg>
