<?xml version="1.0" standalone="no"?>
<!DOCTYPE svg PUBLIC "-//W3C//DTD SVG 1.1//EN" "http://www.w3.org/Graphics/SVG/1.1/DTD/svg11.dtd" >
<svg>
<metadata>
Created by FontForge 20110222 at Mon Jun 27 20:33:33 2011
 By Application Server
Copyright (c) 2007 Red Hat, Inc. All rights reserved. LIBERATION is a trademark of Red Hat, Inc.
</metadata>
<defs>
<font id="LiberationSerif" horiz-adv-x="1024" >
  <font-face 
    font-family="Liberation Serif"
    font-weight="400"
    font-stretch="normal"
    units-per-em="2048"
    panose-1="2 2 6 3 5 4 5 2 3 4"
    ascent="1638"
    descent="-410"
    x-height="940"
    cap-height="1341"
    bbox="-362 -621 2062 2010"
    underline-thickness="100"
    underline-position="-173"
    unicode-range="U+0020-F005"
  />
<missing-glyph horiz-adv-x="748" 
d="M68 0v1365h544v-1365h-544zM136 68h408v1229h-408v-1229z" />
    <glyph glyph-name=".notdef" horiz-adv-x="748" 
d="M68 0v1365h544v-1365h-544zM136 68h408v1229h-408v-1229z" />
    <glyph glyph-name=".null" horiz-adv-x="0" 
 />
    <glyph glyph-name="nonmarkingreturn" horiz-adv-x="682" 
 />
    <glyph glyph-name="uni00A0" unicode=" " horiz-adv-x="512" 
 />
    <glyph glyph-name="uni00A0" unicode="&#xa0;" horiz-adv-x="512" 
 />
    <glyph glyph-name="exclam" unicode="!" horiz-adv-x="682" 
d="M461 92q0 -25 -9.5 -47t-25.5 -38.5t-38.5 -26t-47.5 -9.5q-26 0 -48 9.5t-38 26t-25.5 38.5t-9.5 47t9.5 47.5t25.5 38.5t38 25.5t48 9.5q25 0 47.5 -9.5t38.5 -25.5t25.5 -38.5t9.5 -47.5zM231 1341h218l-62 -952h-94z" />
    <glyph glyph-name="quotedbl" unicode="&#x22;" horiz-adv-x="836" 
d="M512 1341h197l-62 -481h-74zM127 1341h197l-62 -481h-74z" />
    <glyph glyph-name="numbersign" unicode="#" 
d="M987 524v-102h-260l-78 -422h-104l78 422h-310l-77 -422h-105l78 422h-172v102h192l58 307h-250v103h268l76 407h104l-75 -407h309l76 407h104l-76 -407h164v-103h-182l-57 -307h239zM334 524h309l57 307h-309z" />
    <glyph glyph-name="dollar" unicode="$" 
d="M481 -20q-56 1 -113.5 7.5t-110 16.5t-96.5 22t-73 25v320h66l34 -191q17 -23 50 -43.5t73.5 -37t85 -26.5t84.5 -12v566q-46 16 -91 32.5t-87 38t-78 49t-62.5 65.5t-41.5 87.5t-15 114.5q0 73 27 132.5t76 103t118.5 70.5t153.5 34v129h82v-127q81 -3 163 -15.5
t144 -27.5v-279h-65l-29 164q-16 15 -40 27.5t-52 22t-59 16t-62 8.5v-477q47 -17 94.5 -34.5t92 -40t83 -51.5t67 -69t45 -92t16.5 -121q0 -86 -27 -157t-78 -123t-125 -84t-168 -39v-140h-82v136zM791 330q0 61 -18 103t-49 72t-72.5 51.5t-88.5 39.5v-530q110 17 169 83
t59 181zM274 1067q0 -55 16 -93t44 -65.5t65.5 -46.5t81.5 -37v443q-100 -13 -153.5 -66t-53.5 -135z" />
    <glyph glyph-name="percent" unicode="%" horiz-adv-x="1706" 
d="M440 -20h-110l948 1382h111zM721 995q0 -179 -80.5 -275.5t-249.5 -96.5q-161 0 -241 95t-80 277q0 178 80.5 272.5t246.5 94.5q159 0 241.5 -92t82.5 -275zM565 995q0 70 -9 124.5t-29 92t-53.5 57t-82.5 19.5t-81 -19.5t-51 -57t-26.5 -92t-7.5 -124.5
q0 -71 7.5 -126.5t26.5 -93.5t51 -58.5t81 -20.5t82.5 20.5t53.5 58.5t29 93.5t9 126.5zM1636 346q0 -180 -80 -276.5t-249 -96.5q-161 0 -241.5 95t-80.5 278q0 178 81 272.5t247 94.5q159 0 241 -92t82 -275zM1481 346q0 70 -9 124.5t-29 92t-53.5 57t-82.5 19.5
t-81 -19.5t-51 -57t-26.5 -92t-7.5 -124.5q0 -71 7.5 -126.5t26.5 -93.5t51 -58.5t81 -20.5t82.5 20.5t53.5 58.5t29 93.5t9 126.5z" />
    <glyph glyph-name="ampersand" unicode="&#x26;" horiz-adv-x="1593" 
d="M989 1083q0 -74 -28.5 -126t-75 -90.5t-106.5 -66.5t-122 -52l422 -384q46 94 73 186.5t30 176.5l-142 27v53h457v-53l-139 -27q-12 -42 -29.5 -93.5t-41 -109t-54 -118.5t-70.5 -120l228 -208l165 -25v-53h-344l-171 155q-39 -35 -85.5 -67t-103.5 -56t-125.5 -38
t-151.5 -14q-248 0 -372.5 96.5t-124.5 279.5q0 93 31 157.5t79 108.5t106.5 72t113.5 49q-28 27 -55 60.5t-48.5 74t-34.5 88.5t-13 104q0 63 20.5 116.5t65.5 92.5t116 61t172 22q98 0 166.5 -21.5t111 -59t61.5 -88.5t19 -110zM602 66q64 0 118.5 12t99.5 33t82.5 48.5
t69.5 59.5l-499 457q-37 -16 -72.5 -39.5t-63.5 -59.5t-45.5 -87t-17.5 -123q0 -76 23 -132.5t65.5 -94t103 -56t136.5 -18.5zM434 1090q0 -54 15 -97.5t37.5 -77.5t50 -60t51.5 -44q51 19 93 40.5t71 52.5t45 75.5t16 110.5q0 192 -182 192q-105 0 -151 -48t-46 -144z" />
    <glyph glyph-name="quotesingle" unicode="'" horiz-adv-x="369" 
d="M86 1341h197l-62 -481h-74z" />
    <glyph glyph-name="parenleft" unicode="(" horiz-adv-x="682" 
d="M283 494q0 -84 4 -167.5t15.5 -163t34 -154t59.5 -140t91 -122t129 -99.5v-84q-134 71 -232.5 154.5t-164 193t-97.5 251.5t-32 331t32 330.5t97.5 250.5t164 192t232.5 154v-84q-113 -65 -179 -157.5t-100.5 -203t-44 -233.5t-9.5 -249z" />
    <glyph glyph-name="parenright" unicode=")" horiz-adv-x="682" 
d="M66 -436v84q75 43 129 99.5t91 122t59.5 140t34 154t15.5 163t4 167.5q0 126 -9.5 249t-44 233.5t-100.5 203t-179 157.5v84q133 -71 232 -154t164.5 -192t97.5 -250.5t32 -330.5t-32 -331t-97.5 -251.5t-164.5 -193t-232 -154.5z" />
    <glyph glyph-name="asterisk" unicode="*" 
d="M100 1065l64 143l315 -194l-43 327h156l-47 -327l317 190l64 -141l-332 -98l332 -97l-64 -141l-317 188l47 -325h-156l43 328l-315 -195l-64 143l328 99z" />
    <glyph glyph-name="plus" unicode="+" horiz-adv-x="1155" 
d="M629 629v-426h-103v426h-424v102h424v426h103v-426h426v-102h-426z" />
    <glyph glyph-name="comma" unicode="," horiz-adv-x="512" 
d="M383 49q0 -59 -16.5 -114.5t-53 -102.5t-94.5 -85t-141 -62v77q91 29 133.5 71t42.5 97q0 18 -10 30.5t-25 22t-32.5 18.5t-32.5 21.5t-25 31t-10 46.5q0 54 34 82.5t87 28.5q28 0 54 -10.5t45.5 -31t31.5 -51t12 -69.5z" />
    <glyph glyph-name="uni00AD" unicode="-" horiz-adv-x="682" 
d="M76 406v153h532v-153h-532z" />
    <glyph glyph-name="uni00AD" unicode="&#xad;" horiz-adv-x="682" 
d="M76 406v153h532v-153h-532z" />
    <glyph glyph-name="period" unicode="." horiz-adv-x="512" 
d="M377 92q0 -25 -9.5 -47t-25.5 -38.5t-38.5 -26t-47.5 -9.5q-26 0 -48 9.5t-38 26t-25.5 38.5t-9.5 47t9.5 47.5t25.5 38.5t38 25.5t48 9.5q25 0 47.5 -9.5t38.5 -25.5t25.5 -38.5t9.5 -47.5z" />
    <glyph glyph-name="slash" unicode="/" horiz-adv-x="569" 
d="M100 -20h-100l471 1370h98z" />
    <glyph glyph-name="zero" unicode="0" 
d="M946 676q0 -168 -26.5 -298t-80.5 -218.5t-137 -134t-196 -45.5q-212 0 -320 178t-108 518q0 333 108 509.5t328 176.5q212 0 322 -174.5t110 -511.5zM762 676q0 144 -12.5 257t-42 190.5t-79 118t-122.5 40.5q-74 0 -121.5 -40.5t-74.5 -118t-37.5 -190.5t-10.5 -257
t10.5 -258.5t37.5 -194t74.5 -122t121.5 -42.5q73 0 122.5 42.5t79 122t42 194t12.5 258.5z" />
    <glyph glyph-name="one" unicode="1" 
d="M627 80l274 -27v-53h-721v53l275 27v1094l-271 -97v53l391 222h52v-1272z" />
    <glyph glyph-name="two" unicode="2" 
d="M911 0h-821v147q101 94 185.5 168.5t152 139t118 123.5t84 123t50 138t16.5 167q0 130 -59 198t-193 68q-30 0 -59.5 -4.5t-56.5 -12t-50.5 -17t-41.5 -19.5l-35 -164h-66v258q76 18 149.5 30.5t159.5 12.5q220 0 330.5 -91.5t110.5 -258.5q0 -82 -21.5 -152
t-61.5 -134.5t-98 -127t-132 -129.5t-162.5 -142.5t-188.5 -166.5h690v-154z" />
    <glyph glyph-name="three" unicode="3" 
d="M944 365q0 -91 -32 -162.5t-92.5 -121t-149 -75.5t-201.5 -26q-99 0 -192 12t-168 31l-11 282h66l45 -188q18 -10 47 -20t62.5 -17.5t69 -12t65.5 -4.5q93 0 152.5 23t94 64.5t47.5 99t13 125.5q0 78 -22 129.5t-60.5 83t-90 46t-110.5 17.5l-143 8v82l143 9
q113 6 167 70t54 194q0 65 -13.5 113.5t-42.5 80.5t-75.5 48t-113.5 16q-30 0 -60.5 -4.5t-58.5 -12t-52 -17t-42 -19.5l-35 -164h-66v258q35 9 70 17t73 13.5t80 9t91 3.5q211 0 320.5 -81t109.5 -249q0 -63 -17 -117.5t-53 -96.5t-91.5 -70.5t-131.5 -39.5
q182 -21 268 -104.5t86 -232.5z" />
    <glyph glyph-name="four" unicode="4" 
d="M810 295v-295h-172v295h-598v133l655 920h115v-910h182v-143h-182zM638 1113h-5l-480 -675h485v675z" />
    <glyph glyph-name="five" unicode="5" 
d="M485 784q112 0 198 -22.5t144 -69.5t87.5 -119.5t29.5 -173.5q0 -95 -28.5 -172t-87.5 -132t-148.5 -85t-210.5 -30q-94 0 -178.5 10.5t-160.5 32.5l-11 282h66l45 -188q18 -10 43.5 -20t55.5 -17.5t62 -12t62 -4.5q93 0 152.5 23.5t94 66.5t47.5 103t13 133
q0 78 -13.5 136t-49.5 97t-98.5 58.5t-160.5 19.5q-59 0 -104 -8t-74 -16h-96v665h680v-153h-590v-428q18 4 40.5 8t50 7.5t62 6t78.5 2.5z" />
    <glyph glyph-name="six" unicode="6" 
d="M963 416q0 -104 -26.5 -185t-78.5 -137t-128.5 -85t-176.5 -29q-110 0 -196.5 43t-146 128.5t-91 213t-31.5 297.5q0 182 41.5 313t111 216t160.5 125t189 40q75 0 152 -10t139 -25v-231h-66l-35 137q-18 10 -41.5 18t-49 14t-51 9.5t-48.5 3.5q-71 0 -127.5 -34
t-97.5 -103t-64.5 -173t-27.5 -245q72 38 157.5 62t169.5 24t151.5 -23.5t114.5 -71.5t72 -121t25 -171zM549 59q64 0 108 21t71 63.5t38.5 106t11.5 147.5q0 164 -51.5 237t-163.5 73q-68 0 -142.5 -13t-148.5 -37q0 -144 15.5 -255t49.5 -187.5t86 -116t126 -39.5z" />
    <glyph glyph-name="seven" unicode="7" 
d="M201 1024h-66v317h830v-77l-598 -1264h-129l587 1188h-589z" />
    <glyph glyph-name="eight" unicode="8" 
d="M905 1014q0 -110 -53.5 -186.5t-144.5 -116.5q54 -20 98 -52t75.5 -75.5t48.5 -99t17 -122.5q0 -190 -107 -286t-333 -96q-214 0 -321 94.5t-107 287.5q0 133 64 220.5t173 128.5q-87 40 -141.5 116t-54.5 187q0 79 24.5 143.5t73.5 110t123 70t174 24.5q96 0 169 -24
t122.5 -69t74.5 -109.5t25 -145.5zM766 362q0 73 -13 129.5t-43.5 95.5t-80.5 59t-123 20q-74 0 -122 -20t-76 -59t-39 -95.5t-11 -129.5q0 -74 11 -130.5t39 -94.5t76 -58t122 -20q73 0 123 20t80.5 58t43.5 94.5t13 130.5zM725 1014q0 59 -10.5 108t-35.5 84.5t-67 55.5
t-104 20t-102.5 -20t-64 -55.5t-33 -84.5t-9.5 -108q0 -60 9.5 -108t33 -82t64 -52t102.5 -18t104 18t67 52t35.5 82t10.5 108z" />
    <glyph glyph-name="nine" unicode="9" 
d="M66 932q0 103 30 182.5t86 133t136 81t180 27.5q114 0 197 -40t137.5 -123.5t81 -212.5t26.5 -306q0 -129 -19.5 -230.5t-54.5 -178.5t-83.5 -131.5t-106.5 -88.5t-123.5 -49.5t-134.5 -15.5q-88 0 -159.5 8.5t-139.5 25.5v232h65l35 -144q19 -9 42.5 -16t49 -12.5t52 -8
t51.5 -2.5q70 0 130.5 29.5t105.5 95.5t72.5 171.5t32.5 257.5q-66 -37 -143 -61t-166 -24q-84 0 -154 25.5t-120.5 76t-78 125.5t-27.5 173zM500 1276q-129 0 -189.5 -89.5t-60.5 -258.5q0 -82 16.5 -139t48 -92.5t77 -51.5t104.5 -16q66 0 132 14t128 39q0 147 -14 258.5
t-44 186t-79 112t-119 37.5z" />
    <glyph glyph-name="colon" unicode=":" horiz-adv-x="569" 
d="M403 92q0 -25 -9.5 -47t-25.5 -38.5t-38 -26t-47 -9.5q-26 0 -48 9.5t-38 26t-25.5 38.5t-9.5 47t9.5 47.5t25.5 38.5t38 25.5t48 9.5q25 0 47 -9.5t38 -25.5t25.5 -38.5t9.5 -47.5zM403 840q0 -26 -9.5 -48t-25.5 -38t-38 -25.5t-47 -9.5q-26 0 -48 9.5t-38 25.5
t-25.5 38t-9.5 48q0 25 9.5 47t25.5 38.5t38 26t48 9.5q25 0 47 -9.5t38 -26t25.5 -38.5t9.5 -47z" />
    <glyph glyph-name="uni037E" unicode=";" horiz-adv-x="569" 
d="M403 840q0 -26 -9.5 -48t-25.5 -38t-38 -25.5t-47 -9.5q-26 0 -48 9.5t-38 25.5t-25.5 38t-9.5 48q0 25 9.5 47t25.5 38.5t38 26t48 9.5q25 0 47 -9.5t38 -26t25.5 -38.5t9.5 -47zM412 49q0 -59 -16.5 -114.5t-53 -102.5t-95 -85t-141.5 -62v77q91 29 134 71t43 97
q0 18 -10 30.5t-25 22t-33 18.5t-33 21.5t-25 31t-10 46.5q0 54 34.5 82.5t86.5 28.5q28 0 54.5 -10.5t46 -31t31.5 -51t12 -69.5z" />
    <glyph glyph-name="uni037E" unicode="&#x37e;" horiz-adv-x="569" 
d="M403 840q0 -26 -9.5 -48t-25.5 -38t-38 -25.5t-47 -9.5q-26 0 -48 9.5t-38 25.5t-25.5 38t-9.5 48q0 25 9.5 47t25.5 38.5t38 26t48 9.5q25 0 47 -9.5t38 -26t25.5 -38.5t9.5 -47zM412 49q0 -59 -16.5 -114.5t-53 -102.5t-95 -85t-141.5 -62v77q91 29 134 71t43 97
q0 18 -10 30.5t-25 22t-33 18.5t-33 21.5t-25 31t-10 46.5q0 54 34.5 82.5t86.5 28.5q28 0 54.5 -10.5t46 -31t31.5 -51t12 -69.5z" />
    <glyph glyph-name="less" unicode="&#x3c;" horiz-adv-x="1155" 
d="M102 655v50l953 469v-103l-809 -391l809 -391v-103z" />
    <glyph glyph-name="equal" unicode="=" horiz-adv-x="1155" 
d="M1055 526v-102h-953v102h953zM1055 936v-102h-953v102h953z" />
    <glyph glyph-name="greater" unicode="&#x3e;" horiz-adv-x="1155" 
d="M104 186v103l809 391l-809 391v103l953 -469v-50z" />
    <glyph glyph-name="question" unicode="?" horiz-adv-x="909" 
d="M440 350h-80l-26 334l143 29q36 7 66 24.5t52 51t34 86t12 129.5q0 73 -12.5 124t-40.5 83t-74 46.5t-113 14.5q-60 0 -109.5 -14t-84.5 -35l-35 -164h-66v254q70 19 140.5 31t154.5 12q212 0 318 -86t106 -254q0 -70 -16.5 -133.5t-54 -115t-97.5 -89t-147 -55.5
l-57 -13zM530 92q0 -25 -9.5 -47t-25.5 -38.5t-38 -26t-47 -9.5q-26 0 -48 9.5t-38 26t-25.5 38.5t-9.5 47t9.5 47.5t25.5 38.5t38 25.5t48 9.5q25 0 47 -9.5t38 -25.5t25.5 -38.5t9.5 -47.5z" />
    <glyph glyph-name="at" unicode="@" horiz-adv-x="1886" 
d="M1458 -184q-54 -42 -114.5 -79t-133 -65t-158 -44.5t-188.5 -16.5q-181 0 -321.5 58.5t-237 160.5t-146.5 239t-50 293q0 143 32.5 273t93 241t147 201.5t193.5 154t232.5 98t265.5 34.5q175 0 307 -43.5t220.5 -123.5t133 -193t44.5 -252q0 -103 -28 -197t-77 -174.5
t-116 -146.5t-145 -112.5t-164 -71.5t-173 -25q-12 0 -23.5 2t-20.5 8t-15 16t-6 25q0 28 2.5 62.5t5.5 62.5q-27 -27 -63.5 -58t-78.5 -57t-88 -43.5t-92 -17.5q-72 0 -111.5 54.5t-39.5 145.5q0 83 15 164.5t44 155.5t73 137t101 109q48 38 92 62.5t90.5 38t98.5 18.5
t115 5h35.5t29.5 -0.5t27.5 -2t29.5 -3.5l-114 -530q-5 -21 -9 -46t-7 -48.5t-5 -44.5t-2 -35q0 -12 2 -23.5t9.5 -20t22 -13.5t40.5 -5q65 0 122 25t103.5 68.5t83 102.5t61 126.5t37.5 140t13 144.5q0 129 -41 228t-117.5 166.5t-185 102.5t-242.5 35q-128 0 -238.5 -33.5
t-202 -93.5t-162 -144.5t-119 -186t-74 -218t-25.5 -241.5q0 -132 39 -253t119.5 -213.5t202.5 -148t288 -55.5q95 0 171.5 14t139.5 37.5t116.5 54.5t102.5 66zM1139 807q-10 1 -19 2q-8 1 -16 1.5t-14 0.5q-29 0 -63.5 -3t-70 -11.5t-70.5 -23.5t-63 -40
q-29 -26 -55 -69.5t-45.5 -99.5t-31 -121t-11.5 -134q0 -71 20 -110t60 -39q36 0 73.5 11t73 27.5t66 37t51.5 38.5z" />
    <glyph glyph-name="A" unicode="A" horiz-adv-x="1479" 
d="M461 53v-53h-441v53l152 27l457 1272h190l475 -1272l170 -27v-53h-567v53l180 27l-133 387h-528l-135 -387zM676 1208l-230 -651h467z" />
    <glyph glyph-name="B" unicode="B" horiz-adv-x="1366" 
d="M958 1016q0 59 -17.5 103t-56.5 73.5t-101 44t-152 14.5h-207v-507h219q93 0 154 19.5t96.5 55t50 85.5t14.5 112zM1059 382q0 70 -22.5 121t-70 84.5t-122.5 50t-180 16.5h-240v-564q46 -2 96 -3q43 -2 95 -2.5t103 -0.5q94 0 159 21t105.5 59.5t58.5 93.5t18 124zM59 0
v53l172 27v1182l-172 26v53h613q141 0 235 -21.5t151 -62.5t81 -99.5t24 -131.5q0 -63 -20.5 -115t-57 -91.5t-87.5 -66t-111 -39.5q87 -9 157.5 -35t119.5 -67.5t75.5 -98.5t26.5 -127q0 -87 -29.5 -159.5t-92.5 -124t-162 -80t-239 -28.5q-112 0 -223 3t-205 3h-256z" />
    <glyph glyph-name="C" unicode="C" horiz-adv-x="1366" 
d="M774 -20q-164 0 -292.5 46t-217 133t-134.5 212.5t-46 283.5q0 180 46.5 312t135 218.5t217.5 128.5t295 42q69 0 130 -4.5t116.5 -11.5t105.5 -16t97 -19l6 -293h-66l-30 174q-70 43 -162.5 66.5t-188.5 23.5q-117 0 -208.5 -32t-154.5 -104.5t-96.5 -191t-33.5 -291.5
q0 -152 33 -264.5t95 -187t151.5 -111.5t203.5 -37q62 0 118.5 8t105 22t87 32.5t64.5 38.5l37 200h65l-6 -315q-42 -12 -96 -23.5t-115 -20.5t-128 -14t-134 -5z" />
    <glyph glyph-name="D" unicode="D" horiz-adv-x="1479" 
d="M1188 680q0 148 -41 255.5t-117.5 177.5t-184.5 104t-241 34h-180v-1157q30 -2 65 -3t72 -2.5t74.5 -2t73.5 -0.5q127 0 217.5 37.5t148.5 112t85.5 185.5t27.5 259zM668 1341q167 0 301.5 -35t229.5 -114t146.5 -205t51.5 -309q0 -164 -42 -291t-127 -214t-214.5 -132
t-304.5 -45q-57 0 -124.5 0.5t-132.5 1.5t-123.5 1.5t-97.5 0.5h-172v53l172 27v1182l-172 26v53h609z" />
    <glyph glyph-name="E" unicode="E" horiz-adv-x="1251" 
d="M59 53l172 27v1182l-172 26v53h1006v-321h-66l-32 217q-32 4 -77.5 7t-92.5 4.5t-89 2t-65 0.5h-219v-524h362l31 160h64v-412h-64l-31 162h-362v-547h264q62 0 117 1.5t99 3.5t75.5 5t46.5 6l57 248h66l-19 -354h-1071v53z" />
    <glyph glyph-name="F" unicode="F" horiz-adv-x="1139" 
d="M424 602v-522l223 -27v-53h-575v53l159 27v1182l-172 26v53h1006v-321h-66l-32 217q-32 4 -77.5 7t-92.5 4.5t-89 2t-65 0.5h-219v-559h395l31 160h61v-412h-61l-31 162h-395z" />
    <glyph glyph-name="G" unicode="G" horiz-adv-x="1479" 
d="M1284 70q-116 -38 -241 -64t-269 -26q-159 0 -286.5 43.5t-217.5 129t-138 211.5t-48 291q0 352 176.5 526.5t517.5 174.5q130 0 247.5 -16t223.5 -44v-288h-67l-27 166q-69 49 -165.5 75.5t-203.5 26.5q-117 0 -208.5 -32.5t-154.5 -105.5t-96.5 -191.5t-33.5 -289.5
q0 -173 39 -288.5t105.5 -184.5t154 -98t184.5 -29q49 0 97.5 6.5t91 16.5t75.5 22t52 23v381l-172 26v54h495v-54l-131 -26v-436z" />
    <glyph glyph-name="H" unicode="H" horiz-adv-x="1479" 
d="M59 0v53l172 27v1182l-172 26v53h537v-53l-172 -26v-527h631v527l-172 26v53h536v-53l-172 -26v-1182l172 -27v-53h-536v53l172 27v565h-631v-565l172 -27v-53h-537z" />
    <glyph glyph-name="I" unicode="I" horiz-adv-x="682" 
d="M438 80l172 -27v-53h-536v53l172 27v1182l-172 26v53h536v-53l-172 -26v-1182z" />
    <glyph glyph-name="J" unicode="J" horiz-adv-x="797" 
d="M410 1262l-172 26v53h516v-53l-152 -26v-830q0 -91 -17 -160t-45 -119t-64.5 -83.5t-75.5 -53.5t-78 -28t-72 -8q-65 0 -117.5 8t-89.5 22v244h66l30 -139q19 -23 54 -36t77 -13q140 0 140 190v1006z" />
    <glyph glyph-name="K" unicode="K" horiz-adv-x="1479" 
d="M1353 1341v-53l-155 -26l-458 -448l573 -734l145 -27v-53h-328l-525 678l-181 -145v-453l192 -27v-53h-557v53l172 27v1182l-172 26v53h537v-53l-172 -26v-632l642 632l-133 26v53h420z" />
    <glyph glyph-name="L" unicode="L" horiz-adv-x="1251" 
d="M631 1288l-207 -26v-1176h264q125 0 204 7t109 13l62 279h65l-18 -385h-1051v53l172 27v1182l-172 26v53h572v-53z" />
    <glyph glyph-name="M" unicode="M" horiz-adv-x="1821" 
d="M862 0h-35l-491 1153v-1073l180 -27v-53h-457v53l172 27v1182l-172 26v53h406l436 -1020l476 1020h384v-53l-172 -26v-1182l172 -27v-53h-544v53l180 27v1073z" />
    <glyph glyph-name="N" unicode="N" horiz-adv-x="1479" 
d="M1155 1262l-180 26v53h457v-53l-172 -26v-1262h-97l-827 1206v-1126l180 -27v-53h-457v53l172 27v1182l-172 26v53h406l690 -993v914z" />
    <glyph glyph-name="O" unicode="O" horiz-adv-x="1479" 
d="M293 672q0 -140 21 -253t72 -193t137 -123.5t216 -43.5t216 43.5t137.5 123.5t72.5 193t21 253q0 139 -21 251t-72.5 190.5t-137.5 120.5t-216 42t-216 -42t-137 -120.5t-72 -190.5t-21 -251zM84 672q0 178 43.5 307t126.5 213t205 124t280 40q153 0 274.5 -40
t206.5 -124t130 -213t45 -307t-45 -308.5t-130 -215.5t-206.5 -126.5t-274.5 -41.5t-274 41.5t-206 126.5t-130 215.5t-45 308.5z" />
    <glyph glyph-name="P" unicode="P" horiz-adv-x="1139" 
d="M858 944q0 80 -17.5 138t-57 95.5t-103.5 55.5t-158 18h-98v-635h104q94 0 157.5 22.5t102 64.5t54.5 103t16 138zM424 526v-446l213 -27v-53h-565v53l159 27v1182l-172 26v53h506q141 0 235.5 -30.5t151.5 -84t81 -125.5t24 -155q0 -82 -23.5 -158t-79 -134t-148.5 -93
t-231 -35h-151z" />
    <glyph glyph-name="Q" unicode="Q" horiz-adv-x="1479" 
d="M293 670q0 -140 21 -253t72 -192.5t137 -122.5t216 -43t216 43t137.5 122.5t72.5 192.5t21 253q0 139 -21 251.5t-72.5 191t-137.5 121t-216 42.5t-216 -42.5t-137 -121t-72 -191t-21 -251.5zM84 670q0 178 43.5 307.5t126.5 213.5t205 124.5t280 40.5q153 0 274.5 -40.5
t206.5 -124.5t130 -213.5t45 -307.5q0 -128 -23.5 -230.5t-69 -181t-111.5 -134.5t-151 -91l50 -62q43 -54 80 -93t69.5 -63.5t62.5 -36t60 -11.5q7 0 19 0.5l24 1t23 1t16 1.5v-66q-11 -5 -33 -11t-49.5 -12t-57.5 -10t-57 -4q-57 0 -102.5 14.5t-89 46t-89 82
t-102.5 121.5l-41 52q-18 -2 -38.5 -3t-45.5 -1q-153 0 -274 41t-206 126t-130 215t-45 308z" />
    <glyph glyph-name="R" unicode="R" horiz-adv-x="1366" 
d="M424 588v-508l203 -27v-53h-555v53l159 27v1182l-172 26v53h579q141 0 235.5 -25t151.5 -71.5t81 -112.5t24 -149q0 -77 -22.5 -137.5t-60.5 -106.5t-88 -76.5t-104 -46.5l363 -536l145 -27v-53h-321l-377 588h-241zM931 969q0 80 -19 134t-59.5 87t-104 47t-153.5 14
h-171v-573h177q92 0 155 16.5t102 52t56 90.5t17 132z" />
    <glyph glyph-name="S" unicode="S" horiz-adv-x="1139" 
d="M139 361h65l35 -181q19 -24 53 -45.5t75.5 -38t87.5 -26t90 -9.5q76 0 132 20.5t92.5 56.5t54.5 85t18 107q0 72 -30.5 119t-80 79.5t-112.5 55t-129.5 45.5t-129.5 51t-112.5 71t-80 106.5t-30.5 156.5q0 78 30 141.5t88 108t142.5 68.5t192.5 24q99 0 188 -13t164 -30
v-279h-65l-35 164q-44 32 -108 53t-144 21q-74 0 -127.5 -16t-88.5 -43.5t-52 -65t-17 -80.5q0 -65 30.5 -108t80 -73.5t113 -52.5t130 -45.5t130 -53t113 -75t80 -111t30.5 -161.5q0 -93 -28.5 -168t-86 -128.5t-144 -82t-203.5 -28.5q-62 0 -122 6t-113 16t-98 23t-78 26
v310z" />
    <glyph glyph-name="T" unicode="T" horiz-adv-x="1251" 
d="M315 0v53l213 27v1175h-51q-131 0 -220 -6t-126 -14l-27 -209h-67v315h1180v-315h-68l-27 209q-18 4 -53.5 7t-82.5 5.5t-102.5 4t-113.5 1.5h-49v-1173l213 -27v-53h-619z" />
    <glyph glyph-name="U" unicode="U" horiz-adv-x="1479" 
d="M1159 1262l-180 26v53h457v-53l-172 -26v-801q0 -92 -23 -178.5t-81 -153.5t-158.5 -108t-254.5 -41q-267 0 -399.5 120.5t-132.5 341.5v820l-172 26v53h536v-53l-172 -26v-805q0 -82 19.5 -149.5t62 -115.5t110 -74t163.5 -26q105 0 180 26t123.5 73t71 114t22.5 148
v809z" />
    <glyph glyph-name="V" unicode="V" horiz-adv-x="1479" 
d="M1456 1341v-53l-147 -26l-539 -1293h-51l-545 1293l-151 26v53h542v-53l-180 -26l406 -987l405 987l-176 26v53h436z" />
    <glyph glyph-name="W" unicode="W" horiz-adv-x="1933" 
d="M1812 1262l-438 -1293h-53l-348 924l-357 -924h-53l-444 1293l-117 26v53h512v-53l-197 -26l319 -945l361 930h45l348 -930l304 945l-209 26v53h444v-53z" />
    <glyph glyph-name="X" unicode="X" horiz-adv-x="1479" 
d="M317 80l166 -27v-53h-438v53l148 27l456 606l-389 576l-151 26v53h553v-53l-170 -26l278 -414l311 414l-166 26v53h439v-53l-148 -26l-377 -502l461 -680l152 -27v-53h-553v53l170 27l-352 520z" />
    <glyph glyph-name="Y" unicode="Y" horiz-adv-x="1479" 
d="M838 528v-448l213 -27v-53h-619v53l213 27v442l-471 740l-151 26v53h567v-53l-180 -26l385 -619l366 619l-170 26v53h436v-53l-147 -26z" />
    <glyph glyph-name="Z" unicode="Z" horiz-adv-x="1251" 
d="M98 94l752 1161h-250q-131 0 -217 -6t-123 -14l-31 -211h-69v317h913v-86l-757 -1171h290q65 0 129.5 3.5t119.5 9t96 11t59 9.5l59 256h70l-27 -373h-1014v94z" />
    <glyph glyph-name="bracketleft" unicode="[" horiz-adv-x="682" 
d="M152 -274v1695h456v-47l-297 -41v-1519l297 -41v-47h-456z" />
    <glyph glyph-name="backslash" unicode="\" horiz-adv-x="569" 
d="M0 1350h98l471 -1370h-100z" />
    <glyph glyph-name="bracketright" unicode="]" horiz-adv-x="682" 
d="M74 -274v47l297 41v1519l-297 41v47h456v-1695h-456z" />
    <glyph glyph-name="asciicircum" unicode="^" horiz-adv-x="961" 
d="M457 1341h49l428 -952h-103l-350 809l-350 -809h-102z" />
    <glyph glyph-name="underscore" unicode="_" 
d="M-16 -264v102h1056v-102h-1056z" />
    <glyph glyph-name="grave" unicode="`" horiz-adv-x="682" 
d="M473 1119l-354 268v37h213l196 -272v-33h-55z" />
    <glyph glyph-name="a" unicode="a" horiz-adv-x="909" 
d="M465 961q64 0 119 -12t95 -41t62.5 -78.5t22.5 -124.5v-635l117 -25v-45h-258l-19 94q-15 -15 -40.5 -35t-61.5 -37.5t-83.5 -29.5t-105.5 -12q-68 0 -114.5 21t-74.5 58.5t-40 89t-12 111.5q0 62 15 107.5t42 76.5t63.5 50.5t79 30.5t90 15t95.5 5l141 4v147
q0 42 -7 76.5t-23.5 59.5t-44.5 39t-70 14q-48 0 -97 -13t-86 -34l-34 -117h-56v205q65 14 134.5 24.5t150.5 10.5zM598 479l-131 -4q-59 -2 -102 -11.5t-71 -32.5t-42 -63t-14 -102q0 -176 143 -176q68 0 117.5 15.5t99.5 39.5v334z" />
    <glyph glyph-name="b" unicode="b" 
d="M766 496q0 102 -18.5 171.5t-53 112.5t-83 61.5t-107.5 18.5q-24 0 -51.5 -2t-54.5 -6.5t-52 -10.5t-43 -14v-745q42 -8 96 -12t105 -4q138 0 200 108t62 322zM137 1352l-137 24v45h303v-336q0 -19 -0.5 -43.5t-1 -51t-2 -53t-2.5 -50.5q45 35 109.5 56.5t142.5 21.5
q192 0 294.5 -116.5t102.5 -352.5q0 -119 -26 -214.5t-80 -162.5t-136.5 -103t-195.5 -36q-48 0 -97.5 5.5t-97.5 14.5t-93 21.5t-83 27.5v1303z" />
    <glyph glyph-name="c" unicode="c" horiz-adv-x="909" 
d="M846 57q-26 -19 -62 -33.5t-77 -24t-85.5 -14.5t-86.5 -5q-122 0 -208.5 33.5t-141.5 97.5t-81 156.5t-26 209.5q0 128 33.5 220.5t93.5 152t142.5 87.5t180.5 28q81 0 157 -9.5t138 -21.5v-262h-55l-43 166q-37 21 -89.5 34t-109.5 13q-65 0 -114.5 -23.5t-84 -73.5
t-52 -127t-17.5 -184q0 -90 15 -162.5t53 -123.5t102.5 -79t163.5 -28q34 0 69.5 2.5t69 7t63 10.5t52.5 13v-60z" />
    <glyph glyph-name="d" unicode="d" 
d="M723 70q-44 -35 -109.5 -62.5t-154.5 -27.5q-385 0 -385 481q0 117 25.5 210.5t78.5 159t134 100t192 34.5q51 0 108.5 -6t110.5 -17q-2 11 -3 32.5t-1.5 46t-1 48.5t-0.5 39v244l-158 24v45h324v-1351l116 -25v-45h-264zM254 461q0 -105 18.5 -177t52.5 -116.5t82 -64
t107 -19.5q60 0 113 11.5t90 27.5v743q-42 8 -97 12.5t-106 4.5q-133 0 -196.5 -107t-63.5 -315z" />
    <glyph glyph-name="e" unicode="e" horiz-adv-x="909" 
d="M260 473v-18q0 -73 10.5 -140t42 -118.5t88.5 -82t150 -30.5q30 0 63 2.5t66 6.5t64 9t57 11v-56q-23 -15 -55.5 -28.5t-71.5 -24.5t-83 -17.5t-89 -6.5q-117 0 -197.5 32t-130.5 95t-72 156t-22 214q0 246 103 367t294 121q75 0 140.5 -20t114.5 -67t77.5 -126
t28.5 -197v-82h-578zM477 885q-56 0 -96.5 -23.5t-67 -66.5t-39 -104.5t-12.5 -137.5h402q0 76 -8.5 137.5t-30 104.5t-57.5 66.5t-91 23.5z" />
    <glyph glyph-name="f" unicode="f" horiz-adv-x="682" 
d="M225 856h-162v49l162 39v66q0 106 21.5 186.5t62 135t99 82.5t131.5 28q45 0 80 -5.5t63 -13.5v-205h-49l-45 123q-16 10 -35 15.5t-47 5.5q-35 0 -57 -15.5t-35 -48t-18 -82.5t-5 -120v-156h250v-84h-250v-778l203 -33v-45h-508v45l139 33v778z" />
    <glyph glyph-name="g" unicode="g" 
d="M870 643q0 -162 -97 -245t-279 -83q-41 0 -82.5 4.5t-69.5 10.5l-63 -131q3 -17 39 -32t90 -15h278q152 0 225.5 -66t73.5 -182q0 -65 -26.5 -127.5t-86 -111t-155.5 -78t-236 -29.5q-107 0 -182 17.5t-122 48.5t-68 72t-21 89q0 33 12.5 62.5t35 57t53.5 53.5t67 52
q-18 6 -41.5 19.5t-44.5 34.5t-35 48.5t-14 61.5l158 178q-158 74 -158 291q0 79 26 139.5t74.5 101t119.5 61t161 20.5q28 0 57 -3t54.5 -6.5t44.5 -8t28 -7.5l221 111l35 -43l-139 -144q34 -38 50.5 -95.5t16.5 -125.5zM829 -127q0 57 -35 89t-106 32h-364
q-21 -18 -38.5 -41.5t-30 -49.5t-19.5 -52.5t-7 -51.5q0 -36 11.5 -65.5t40 -50.5t77.5 -33t123 -12q90 0 155.5 17.5t108.5 49t63.5 74.5t20.5 94zM496 391q109 0 154.5 62.5t45.5 189.5q0 63 -10.5 109.5t-34 76.5t-61.5 45t-92 15q-55 0 -93.5 -15t-63 -45t-35.5 -76.5
t-11 -109.5t11 -110.5t35 -79t62 -47t93 -15.5z" />
    <glyph glyph-name="h" unicode="h" 
d="M326 1014q0 -14 -0.5 -34t-1 -41.5t-2 -41.5t-3.5 -33q28 16 68 34t83.5 33t87 24.5t79.5 9.5q54 0 99 -15t77.5 -48t51 -86t18.5 -128v-618l114 -25v-45h-405v45l125 25v606q0 83 -40.5 127.5t-125.5 44.5q-28 0 -59.5 -3t-62.5 -7t-58 -9.5t-45 -9.5v-749l127 -25v-45
h-412v45l119 25v1282l-140 24v45h306v-407z" />
    <glyph glyph-name="i" unicode="i" horiz-adv-x="569" 
d="M379 1247q0 -22 -8.5 -41.5t-23.5 -34.5t-35 -23.5t-42 -8.5t-41.5 8.5t-34.5 23.5t-23.5 34.5t-8.5 41.5t8.5 42t23.5 35t34.5 23.5t41.5 8.5t42 -8.5t35 -23.5t23.5 -35t8.5 -42zM369 70l161 -25v-45h-487v45l160 25v800l-133 25v45h299v-870z" />
    <glyph glyph-name="j" unicode="j" horiz-adv-x="569" 
d="M393 1247q0 -22 -8.5 -41.5t-23.5 -34.5t-34.5 -23.5t-41.5 -8.5q-23 0 -42.5 8.5t-34.5 23.5t-23.5 34.5t-8.5 41.5t8.5 42t23.5 35t34.5 23.5t42.5 8.5q22 0 41.5 -8.5t34.5 -23.5t23.5 -35t8.5 -42zM383 -39q0 -106 -21.5 -181.5t-61 -123.5t-94 -70t-120.5 -22
q-44 0 -76 5t-69 13v199h47l27 -109q33 -28 83 -28q59 0 89 63t30 203v960l-141 25v45h307v-979z" />
    <glyph glyph-name="k" unicode="k" 
d="M344 453l385 415l-98 27v45h332v-45l-117 -23l-268 -274l344 -530l102 -23v-45h-385v45l86 25l-258 405l-123 -135v-270l100 -25v-45h-385v45l119 25v1282l-139 24v45h305v-968z" />
    <glyph glyph-name="l" unicode="l" horiz-adv-x="569" 
d="M367 70l161 -25v-45h-487v45l160 25v1282l-160 24v45h326v-1351z" />
    <glyph glyph-name="m" unicode="m" horiz-adv-x="1593" 
d="M326 864q28 16 66.5 34t79.5 33t83 24.5t78 9.5q69 0 127.5 -26t87.5 -83q32 18 77 37.5t93.5 35.5t96 26t85.5 10q54 0 98 -15t75.5 -48t49 -86t17.5 -128v-618l121 -25v-45h-427v45l140 25v600q0 83 -37.5 127.5t-122.5 44.5q-26 0 -60.5 -4t-69 -9t-66 -11.5
t-52.5 -10.5q17 -54 17 -119v-618l141 -25v-45h-446v45l139 25v600q0 83 -42.5 127.5t-127.5 44.5q-28 0 -58.5 -3t-60 -7t-56 -9.5t-44.5 -9.5v-743l141 -25v-45h-426v45l119 25v800l-119 25v45h275z" />
    <glyph glyph-name="n" unicode="n" 
d="M324 864q28 16 66.5 34t80.5 33t84 24.5t78 9.5q54 0 99 -15t77.5 -48t51 -86t18.5 -128v-618l114 -25v-45h-405v45l125 25v600q0 83 -40.5 130.5t-125.5 47.5q-28 0 -59 -3t-61 -7t-56.5 -9.5t-44.5 -9.5v-749l127 -25v-45h-406v45l113 25v800l-113 25v45h268z" />
    <glyph glyph-name="o" unicode="o" 
d="M946 475q0 -239 -107 -367t-333 -128q-212 0 -320 127t-108 368q0 238 108 364t328 126q214 0 323 -123.5t109 -366.5zM766 475q0 97 -13 173.5t-43.5 129t-80.5 80t-123 27.5q-74 0 -122 -27.5t-76 -80t-39 -129t-11 -173.5q0 -98 11 -175t39 -130.5t76 -82t122 -28.5
q73 0 123 28.5t80.5 82t43.5 130.5t13 175z" />
    <glyph glyph-name="p" unicode="p" 
d="M152 870l-107 25v45h264l2 -55q21 18 49.5 32.5t61.5 25t70 16.5t75 6q88 0 158 -31t119 -92.5t74.5 -152t25.5 -208.5q0 -115 -26 -207.5t-78 -158t-130.5 -100.5t-183.5 -35q-51 0 -107.5 5.5t-107.5 16.5q1 -12 2.5 -27.5t2 -32t1 -30.5t0.5 -23v-254l164 -24v-47
h-448v47l119 24v1235zM764 481q0 102 -17 174t-49.5 117.5t-79.5 66.5t-106 21q-48 0 -102.5 -8.5t-92.5 -24.5v-751q42 -8 93 -12.5t102 -4.5q132 0 192 109.5t60 312.5z" />
    <glyph glyph-name="q" unicode="q" 
d="M813 985h70v-1350l104 -24v-47h-399v47l129 24v261q0 38 2 81.5t8 85.5q-45 -35 -111.5 -59t-156.5 -24q-197 0 -291 125.5t-94 361.5q0 115 26 207.5t78.5 157t133 99t188.5 34.5q51 0 110.5 -6t112.5 -17zM254 467q0 -102 17.5 -174.5t50.5 -119t81.5 -68t110.5 -21.5
q24 0 52 2t55.5 6.5t52.5 10.5t43 14v749q-42 8 -97 12.5t-106 4.5q-132 0 -196 -107t-64 -309z" />
    <glyph glyph-name="r" unicode="r" horiz-adv-x="682" 
d="M664 965v-254h-43l-58 110q-28 0 -60 -4t-64 -10.5t-61.5 -15.5t-51.5 -19v-702l161 -25v-45h-446v45l119 25v800l-119 25v45h274l9 -117q23 19 63 43.5t86.5 46.5t93 37t82.5 15h15z" />
    <glyph glyph-name="s" unicode="s" horiz-adv-x="797" 
d="M723 264q0 -63 -19.5 -115.5t-61.5 -90t-108.5 -58t-160.5 -20.5q-47 0 -92.5 5.5t-84.5 13t-68 15.5t-42 13v231h45l49 -131q31 -28 80 -48t115 -20q93 0 143.5 40.5t50.5 125.5q0 50 -21 82.5t-55 54.5t-77.5 36.5t-89 29.5t-89 34t-77.5 49t-55 75t-21 112
q0 64 23 114t64.5 84t99 51.5t126.5 17.5q68 0 133 -9.5t125 -21.5v-205h-47l-42 109q-26 23 -71 35t-96 12q-81 0 -123.5 -40t-42.5 -108q0 -46 21 -75.5t55.5 -50t78.5 -35.5t90 -31t90 -36.5t78.5 -52.5t55.5 -78t21 -114z" />
    <glyph glyph-name="t" unicode="t" horiz-adv-x="569" 
d="M334 -20q-96 0 -143.5 57t-47.5 160v659h-123v45l125 39l101 213h63v-213h215v-84h-215v-641q0 -65 29.5 -98t77.5 -33q37 0 73.5 5t67.5 11v-65q-15 -10 -39.5 -20t-54 -17.5t-62.5 -12.5t-67 -5z" />
    <glyph glyph-name="u" unicode="u" 
d="M313 268q0 -83 37.5 -127.5t122.5 -44.5q56 0 116 7.5t116 23.5v743l-142 25v45h307v-870l119 -25v-45h-274l-8 76q-29 -16 -69 -33t-83.5 -31t-87.5 -23t-80 -9q-54 0 -98 15t-75.5 48t-49 85.5t-17.5 127.5v614l-120 25v45h286v-672z" />
    <glyph glyph-name="v" unicode="v" 
d="M934 874l-377 -894h-74l-387 890l-96 25v45h438v-45l-149 -27l274 -649l262 651l-149 25v45h348v-45z" />
    <glyph glyph-name="w" unicode="w" horiz-adv-x="1479" 
d="M1366 874l-315 -894h-78l-232 620l-229 -620h-74l-325 890l-111 25v45h447v-45l-156 -27l223 -635l227 613h84l226 -617l213 641l-154 25v45h358v-45z" />
    <glyph glyph-name="x" unicode="x" 
d="M889 66l110 -21v-45h-426v45l125 23l-217 333l-254 -335l129 -21v-45h-338v45l109 16l309 408l-272 401l-111 25v45h426v-45l-125 -27l181 -270l208 272l-129 25v45h338v-45l-108 -21l-264 -342z" />
    <glyph glyph-name="y" unicode="y" 
d="M918 874l-367 -933q-32 -81 -65 -151t-73.5 -121.5t-92.5 -81t-121 -29.5q-26 0 -45.5 1t-36.5 3.5t-34 5.5t-38 8v203h47l33 -96q31 -23 86 -23q43 0 78 19t64.5 53.5t53.5 81.5t46 104l26 72l-358 880l-96 25v45h436v-45l-148 -27l254 -657l246 659l-147 25v45h350v-45
z" />
    <glyph glyph-name="z" unicode="z" horiz-adv-x="909" 
d="M55 0v45l516 815h-221q-28 0 -55.5 -2.5t-52 -7t-43.5 -11t-29 -14.5l-31 -135h-47v250h694v-49l-516 -811h275q27 0 57.5 3.5t59 9.5t53 14.5t39.5 19.5l51 197h47l-25 -324h-772z" />
    <glyph glyph-name="braceleft" unicode="{" horiz-adv-x="983" 
d="M662 -274q-65 0 -114 20.5t-81.5 59t-49 92.5t-16.5 122v295q0 63 -14.5 107t-42 72.5t-67.5 42.5t-91 16v45q51 1 91 15t67.5 42.5t42 72.5t14.5 106v294q0 141 65 217t196 76h135v-47h-62q-91 0 -129.5 -54.5t-38.5 -160.5v-330q0 -50 -14.5 -92t-40 -74.5t-61 -54
t-76.5 -30.5v-3q43 -10 78 -31.5t60.5 -54t39.5 -74.5t14 -93v-334q0 -106 38.5 -160.5t129.5 -54.5h62v-47h-135z" />
    <glyph glyph-name="bar" unicode="|" horiz-adv-x="410" 
d="M154 -442v1863h102v-1863h-102z" />
    <glyph glyph-name="braceright" unicode="}" horiz-adv-x="983" 
d="M186 -274v47h62q91 0 129.5 54.5t38.5 160.5v334q0 51 14 93t39.5 74.5t60.5 54t78 31.5v3q-41 9 -76.5 30.5t-61 54t-40 74.5t-14.5 92v330q0 106 -38.5 160.5t-129.5 54.5h-62v47h136q130 0 195 -76t65 -217v-294q0 -62 14.5 -106t42.5 -72.5t67.5 -42.5t90.5 -15v-45
q-51 -2 -90.5 -16t-67.5 -42.5t-42.5 -72.5t-14.5 -107v-295q0 -68 -16.5 -122t-49 -92.5t-81.5 -59t-113 -20.5h-136z" />
    <glyph glyph-name="asciitilde" unicode="~" horiz-adv-x="1108" 
d="M780 502q-46 0 -88 18t-81.5 44.5t-76 58t-71.5 58t-69 44.5t-68 18q-41 0 -70 -14.5t-49 -44.5t-31.5 -75.5t-17.5 -106.5h-101q6 61 19.5 122.5t42.5 111t78.5 80t128.5 30.5q48 0 91 -18t82.5 -45t76.5 -58t71.5 -58t67.5 -45t65 -18q40 0 68 16t47.5 47t31 76
t19.5 103h103q-8 -61 -22.5 -122t-44 -110.5t-78 -80.5t-124.5 -31z" />
    <glyph glyph-name="exclamdown" unicode="&#xa1;" horiz-adv-x="682" 
d="M219 840q0 25 9.5 47t25.5 38.5t38 26t48 9.5q25 0 47.5 -9.5t38.5 -26t25.5 -38.5t9.5 -47q0 -26 -9.5 -48t-25.5 -38t-38.5 -25.5t-47.5 -9.5q-26 0 -48 9.5t-38 25.5t-25.5 38t-9.5 48zM449 -410h-218l62 953h94z" />
    <glyph glyph-name="cent" unicode="&#xa2;" 
d="M536 186q-109 7 -186.5 43.5t-127 100.5t-72.5 153t-23 201q0 121 30.5 210t84.5 148.5t129 90.5t165 36v172h82v-170q70 -3 135 -11t119 -19v-262h-55l-43 165q-31 17 -71 29t-85 17v-799h23q34 0 69.5 2.5t69 7t63 10.5t52.5 13v-60q-23 -18 -55 -31t-68.5 -23
t-75.5 -15.5t-78 -8.5v-186h-82v186zM307 684q0 -77 10.5 -141t36.5 -113.5t70 -82t112 -46.5v789q-110 -14 -169.5 -112t-59.5 -294z" />
    <glyph glyph-name="sterling" unicode="&#xa3;" 
d="M961 154v-154h-838v117q34 31 71.5 63.5t69.5 70t53 81.5t21 98q0 47 -16.5 96t-38.5 103h-162v82h127q-28 65 -47.5 137.5t-19.5 157.5q0 168 104.5 259t312.5 91q43 0 80 -3.5t72 -9t69 -13.5t72 -17v-258h-65l-35 164q-35 20 -84 36.5t-109 16.5q-115 0 -172 -67.5
t-57 -198.5q0 -95 9 -165t20 -130h278v-82h-262q6 -41 11 -82.5t5 -87.5q0 -54 -12 -97.5t-33.5 -80t-50.5 -67.5t-63 -60h690z" />
    <glyph glyph-name="currency" unicode="&#xa4;" 
d="M123 676q0 68 21 128t59 109l-107 107l74 74l104 -109q50 38 110 60t128 22q66 0 127 -22t111 -60l108 109l72 -72l-109 -109q38 -51 60 -111t22 -126q0 -68 -22 -128t-60 -110l109 -106l-72 -72l-108 107q-50 -39 -111 -59.5t-127 -20.5q-68 0 -128 21t-110 59
l-106 -107l-72 72l107 106q-38 50 -59 110t-21 128zM219 676q0 -60 23.5 -113.5t63 -93t93 -63t113.5 -23.5q61 0 114.5 23.5t93.5 63t63.5 93t23.5 113.5q0 61 -23.5 114.5t-63.5 93.5t-93.5 63.5t-114.5 23.5q-60 0 -113.5 -23.5t-93 -63.5t-63 -93.5t-23.5 -114.5z" />
    <glyph glyph-name="yen" unicode="&#xa5;" 
d="M885 393v-82h-279v-231l172 -27v-53h-536v53l172 27v231h-279v82h279v129l-15 35h-264v82h230l-263 623l-100 26v53h453v-53l-131 -26l239 -619l246 619l-123 26v53h336v-53l-104 -26l-265 -623h232v-82h-267l-12 -29v-135h279z" />
    <glyph glyph-name="brokenbar" unicode="&#xa6;" horiz-adv-x="410" 
d="M154 801v620h102v-620h-102zM154 -442v622h102v-622h-102z" />
    <glyph glyph-name="section" unicode="&#xa7;" 
d="M842 29q0 -63 -21 -115.5t-65 -90t-112.5 -58.5t-162.5 -21q-47 0 -94.5 5.5t-88 13.5t-71 15.5t-43.5 12.5v232h45l39 -132q15 -14 38.5 -26t51.5 -21t60 -14.5t65 -5.5q46 0 84 10t65 30.5t41.5 52t14.5 73.5q0 50 -22.5 88t-59.5 68t-84.5 56t-96.5 52.5t-96.5 56
t-84.5 68t-59.5 88t-22.5 115.5q0 51 18.5 93.5t50.5 75t75 55t93 32.5q-41 21 -78.5 47.5t-66 61t-45 78t-16.5 97.5q0 64 23 114t64.5 84t99 51.5t126.5 17.5q68 0 131.5 -7t126.5 -18v-211h-47l-33 109q-13 11 -33 20t-43 15t-49 9t-51 3q-82 0 -124 -40t-42 -108
q0 -47 23 -81t60 -60.5t84.5 -49t97.5 -45.5t97.5 -49.5t84.5 -62t60 -81.5t23 -109q0 -56 -19 -102.5t-53.5 -82.5t-82 -60t-103.5 -36q45 -26 86 -55t72.5 -66.5t50.5 -84.5t19 -107zM719 580q0 40 -17.5 70t-47 54.5t-68 44.5t-80.5 39q-39 -2 -74.5 -14.5t-62.5 -35
t-42.5 -53t-15.5 -67.5q0 -45 17 -77t46.5 -57t67.5 -46.5t80 -44.5q40 5 76 19t63 37.5t42.5 56t15.5 74.5z" />
    <glyph glyph-name="dieresis" unicode="&#xa8;" horiz-adv-x="682" 
d="M618 1194q0 -42 -28 -71.5t-70 -29.5q-21 0 -39 8t-31.5 22t-21.5 32t-8 39q0 42 29 71t71 29t70 -29t28 -71zM262 1194q0 -42 -28 -71.5t-70 -29.5q-21 0 -39 8t-32 22t-22 32t-8 39t8 39t22 31.5t32 21.5t39 8q42 0 70 -29t28 -71z" />
    <glyph glyph-name="copyright" unicode="&#xa9;" horiz-adv-x="1556" 
d="M88 670q0 96 24.5 184.5t69.5 165.5t107.5 140t139.5 108t165 69.5t184 24.5t184.5 -24.5t165.5 -69.5t140 -108t108 -140t69.5 -165.5t24.5 -184.5t-24.5 -184t-69.5 -165t-108 -139.5t-140 -107.5t-165.5 -69.5t-184.5 -24.5q-144 0 -269.5 54t-219 147.5t-147.5 219
t-54 269.5zM158 670q0 -129 48.5 -242t132.5 -197.5t197 -133t242 -48.5t242.5 48.5t198 133t133.5 197.5t49 242q0 86 -22.5 165.5t-63 148.5t-97 126t-126 97.5t-149 62.5t-165.5 22q-129 0 -242 -49t-197 -133t-132.5 -197.5t-48.5 -242.5zM795 258q-99 0 -176.5 28
t-131 80.5t-81 127.5t-27.5 170q0 108 28 187.5t81 131t131 77t178 25.5q81 0 146.5 -9.5t121.5 -20.5l4 -187h-49l-19 105q-42 26 -92.5 38.5t-107.5 12.5q-66 0 -117 -17t-86.5 -58.5t-53.5 -110.5t-18 -172q0 -183 70 -266t199 -83q75 0 129.5 17.5t85.5 42.5l22 119h49
l-4 -199q-51 -16 -126.5 -27.5t-155.5 -11.5z" />
    <glyph glyph-name="ordfeminine" unicode="&#xaa;" horiz-adv-x="565" 
d="M281 1362q47 0 86 -8.5t66.5 -29t43 -53.5t15.5 -81v-352l69 -15v-37h-174l-12 62q-9 -9 -27 -22t-42.5 -24.5t-55 -19.5t-66.5 -8q-41 0 -69 12.5t-46 35t-26 53.5t-8 67q0 56 23 89.5t59.5 51.5t81.5 24t88 7l84 2v80q0 50 -23 80.5t-74 30.5q-29 0 -58 -7.5t-52 -21.5
l-21 -59h-43v122q39 10 86 15.5t95 5.5zM371 1063l-78 -2q-33 -1 -58.5 -4.5t-43 -15.5t-26.5 -34.5t-9 -60.5q0 -54 21 -75t65 -21q40 0 70 11.5t59 27.5v174z" />
    <glyph glyph-name="guillemotleft" unicode="&#xab;" 
d="M117 496l334 356h81l-227 -389l227 -389h-81l-334 356v66zM526 496l335 356h81l-228 -389l228 -389h-81l-335 356v66z" />
    <glyph glyph-name="logicalnot" unicode="&#xac;" horiz-adv-x="1155" 
d="M1055 731v-528h-103v426h-850v102h953z" />
    <glyph glyph-name="registered" unicode="&#xae;" horiz-adv-x="1556" 
d="M88 670q0 96 24.5 184.5t69.5 165.5t107.5 140t139.5 108t165 69.5t184 24.5t184.5 -24.5t165.5 -69.5t140 -108t108 -140t69.5 -165.5t24.5 -184.5t-24.5 -184t-69.5 -165t-108 -139.5t-140 -107.5t-165.5 -69.5t-184.5 -24.5q-144 0 -269.5 54t-219 147.5t-147.5 219
t-54 269.5zM158 670q0 -129 48.5 -242t132.5 -197.5t197 -133t242 -48.5t242.5 48.5t198 133t133.5 197.5t49 242q0 86 -22.5 165.5t-63 148.5t-97 126t-126 97.5t-149 62.5t-165.5 22q-129 0 -242 -49t-197 -133t-132.5 -197.5t-48.5 -242.5zM668 625v-289l114 -17v-43
h-346v43l96 17v688l-104 16v41h330q84 0 143.5 -16t97.5 -45.5t56 -70t18 -89.5q0 -77 -45 -133t-133 -84l213 -307l84 -17v-43h-205l-229 349h-90zM932 858q0 48 -11.5 79t-35.5 49.5t-62 26t-92 7.5h-63v-332h67q55 0 93 9.5t61 29.5t33 52.5t10 78.5z" />
    <glyph glyph-name="macron" unicode="&#xaf;" 
d="M1042 1452h-1059v94h1059v-94z" />
    <glyph glyph-name="degree" unicode="&#xb0;" horiz-adv-x="819" 
d="M98 1051q0 64 24 121t66 99t98.5 66.5t121.5 24.5q64 0 121 -24.5t99 -66.5t66.5 -99t24.5 -121q0 -65 -24.5 -121.5t-66.5 -98.5t-99 -66t-121 -24q-65 0 -121.5 24t-98.5 66t-66 98.5t-24 121.5zM200 1051q0 -44 16 -82t44.5 -66.5t66 -45t81.5 -16.5t82.5 16.5
t66.5 45t44 66.5t16 82t-16 82.5t-44 67t-66.5 45t-82.5 16.5t-81.5 -16.5t-66 -45t-44.5 -67t-16 -82.5z" />
    <glyph glyph-name="plusminus" unicode="&#xb1;" horiz-adv-x="1124" 
d="M612 629v-426h-103v426h-424v102h424v426h103v-426h426v-102h-426zM1038 102v-102h-953v102h953z" />
    <glyph glyph-name="uni00B2" unicode="&#xb2;" horiz-adv-x="614" 
d="M567 535h-499v96q61 56 109.5 100t86.5 82t65 72.5t44.5 72t26 81.5t8.5 100q0 74 -33.5 108.5t-98.5 34.5q-35 0 -64 -10t-50 -23l-21 -98h-55v172q45 11 92 19t98 8q134 0 204.5 -55.5t70.5 -155.5q0 -75 -24 -131t-71.5 -109.5t-116.5 -113.5t-159 -142h387v-108z" />
    <glyph glyph-name="uni00B3" unicode="&#xb3;" horiz-adv-x="614" 
d="M575 754q0 -55 -23 -98t-64.5 -73t-98.5 -45.5t-125 -15.5q-59 0 -114.5 8t-100.5 19l-6 186h55l27 -112q22 -13 58 -23t73 -10q55 0 89.5 11t53.5 33t26 53.5t7 72.5q0 47 -12 77t-33.5 47t-51 24.5t-65.5 9.5l-86 6v65l86 4q68 3 96.5 37.5t28.5 112.5q0 39 -7 65.5
t-23 43t-42.5 23.5t-66.5 7q-32 0 -61.5 -8t-51.5 -21l-20 -102h-55v172q41 10 84.5 18.5t103.5 8.5q63 0 115 -12.5t89.5 -37t58 -62t20.5 -87.5q0 -75 -49 -128t-140 -67q110 -12 167.5 -62.5t57.5 -139.5z" />
    <glyph glyph-name="acute" unicode="&#xb4;" horiz-adv-x="682" 
d="M156 1119v33l196 272h213v-37l-354 -268h-55z" />
    <glyph glyph-name="uni00B5" unicode="&#xb5;" horiz-adv-x="1180" 
d="M816 121q-22 -20 -50.5 -44.5t-62.5 -46t-73.5 -36t-83.5 -14.5q-65 0 -110 23t-70 55q0 -133 -8.5 -262t-25.5 -232h-178v45q6 19 15 62t17 103.5t14 135.5t6 159v801l-140 25v45h306v-652q0 -45 15 -80.5t42 -60.5t65 -38t85 -13q31 0 63 8t62.5 20.5t58 28t48.5 30.5
v687l-142 25v45h307v-870l137 -25v-45h-278z" />
    <glyph glyph-name="paragraph" unicode="&#xb6;" horiz-adv-x="928" 
d="M811 1266v-1524h-94v1524h-170v-1524h-94l2 823q-92 0 -173 23t-142 72t-96.5 124t-35.5 179q0 90 27.5 160t82 118.5t136 74t188.5 25.5h463v-53z" />
    <glyph glyph-name="uni2219" unicode="&#xb7;" horiz-adv-x="512" 
d="M377 678q0 -26 -9.5 -48t-25.5 -38t-38.5 -25.5t-47.5 -9.5q-26 0 -48 9.5t-38 25.5t-25.5 38t-9.5 48q0 25 9.5 47t25.5 38.5t38 26t48 9.5q25 0 47.5 -9.5t38.5 -26t25.5 -38.5t9.5 -47z" />
    <glyph glyph-name="uni2219" unicode="&#x2219;" horiz-adv-x="512" 
d="M377 678q0 -26 -9.5 -48t-25.5 -38t-38.5 -25.5t-47.5 -9.5q-26 0 -48 9.5t-38 25.5t-25.5 38t-9.5 48q0 25 9.5 47t25.5 38.5t38 26t48 9.5q25 0 47.5 -9.5t38.5 -26t25.5 -38.5t9.5 -47z" />
    <glyph glyph-name="cedilla" unicode="&#xb8;" horiz-adv-x="682" 
d="M528 -234q0 -46 -18 -83t-51 -63.5t-78.5 -41t-99.5 -14.5q-32 0 -69.5 5.5t-68.5 16.5v74q9 -3 23.5 -6t31 -5t34 -3.5t31.5 -1.5q60 0 87 29.5t27 74.5q0 32 -15 53.5t-37.5 35t-49 20t-50.5 8.5l41 153h86l-18 -82q91 -9 142.5 -53t51.5 -117z" />
    <glyph glyph-name="uni00B9" unicode="&#xb9;" horiz-adv-x="614" 
d="M375 598l166 -14v-49h-475v49l165 14v625l-161 -58v47l233 134h72v-748z" />
    <glyph glyph-name="ordmasculine" unicode="&#xba;" horiz-adv-x="635" 
d="M598 1069q0 -145 -74 -222t-211 -77q-64 0 -115 19.5t-87 57t-55 93.5t-19 129q0 144 74.5 218.5t207.5 74.5q63 0 114.5 -18.5t88 -55.5t56.5 -92t20 -127zM469 1069q0 58 -7.5 102.5t-25.5 74t-48 44.5t-75 15q-44 0 -72 -15t-45 -44.5t-23.5 -74t-6.5 -102.5
q0 -59 6.5 -104t23.5 -75t45 -45.5t72 -15.5q45 0 75 15.5t48 45.5t25.5 75t7.5 104z" />
    <glyph glyph-name="guillemotright" unicode="&#xbb;" 
d="M907 430l-334 -356h-81l227 389l-227 389h81l334 -356v-66zM498 430l-335 -356h-81l228 389l-228 389h81l335 -356v-66z" />
    <glyph glyph-name="onequarter" unicode="&#xbc;" horiz-adv-x="1536" 
d="M336 0h-102l964 1341h100zM375 598l166 -14v-49h-475v49l165 14v625l-161 -58v47l233 134h72v-748zM1293 160v-159h-137v159h-361v97l391 550h107v-544h101v-103h-101zM1156 652h-2l-277 -389h279v389z" />
    <glyph glyph-name="onehalf" unicode="&#xbd;" horiz-adv-x="1536" 
d="M336 0h-102l964 1341h100zM375 598l166 -14v-49h-475v49l165 14v625l-161 -58v47l233 134h72v-748zM1458 1h-499v96q61 56 109.5 100t86.5 82t65 72.5t44.5 72t26 81.5t8.5 100q0 74 -33.5 108.5t-98.5 34.5q-35 0 -64 -10t-50 -23l-21 -98h-55v172q45 11 92 19t98 8
q134 0 204.5 -55.5t70.5 -155.5q0 -75 -24 -131t-71.5 -109.5t-116.5 -113.5t-159 -142h387v-108z" />
    <glyph glyph-name="threequarters" unicode="&#xbe;" horiz-adv-x="1536" 
d="M336 0h-102l964 1341h100zM606 754q0 -55 -23 -98t-64.5 -73t-98.5 -45.5t-125 -15.5q-59 0 -114.5 8t-100.5 19l-6 186h55l27 -112q22 -13 58 -23t73 -10q55 0 89.5 11t53.5 33t26 53.5t7 72.5q0 47 -12 77t-33.5 47t-51 24.5t-65.5 9.5l-86 6v65l86 4q68 3 96.5 37.5
t28.5 112.5q0 39 -7 65.5t-23 43t-42.5 23.5t-66.5 7q-32 0 -61.5 -8t-51.5 -21l-20 -102h-55v172q41 10 84.5 18.5t103.5 8.5q63 0 115 -12.5t89.5 -37t58 -62t20.5 -87.5q0 -75 -49 -128t-140 -67q110 -12 167.5 -62.5t57.5 -139.5zM1264 160v-159h-137v159h-361v97
l391 550h107v-544h101v-103h-101zM1127 652h-2l-277 -389h279v389z" />
    <glyph glyph-name="questiondown" unicode="&#xbf;" horiz-adv-x="909" 
d="M469 582h80l26 -334l-143 -29q-36 -7 -66 -24.5t-52 -51t-34 -86t-12 -129.5q0 -73 12.5 -124t41 -83t74 -46.5t112.5 -14.5q60 0 109.5 14t84.5 35l35 164h66v-254q-69 -20 -139.5 -31.5t-155.5 -11.5q-212 0 -318 86t-106 254q0 70 16.5 133t54 115t97.5 89.5t147 55.5
l58 13zM379 840q0 25 9.5 47t25.5 38.5t38 26t48 9.5q25 0 47 -9.5t38.5 -26t26 -38.5t9.5 -47q0 -26 -9.5 -48t-26 -38t-38.5 -25.5t-47 -9.5q-26 0 -48 9.5t-38 25.5t-25.5 38t-9.5 48z" />
    <glyph glyph-name="Agrave" unicode="&#xc0;" horiz-adv-x="1479" 
d="M461 53v-53h-441v53l152 27l457 1272h190l475 -1272l170 -27v-53h-567v53l180 27l-133 387h-528l-135 -387zM676 1208l-230 -651h467zM797 1453l-354 268v37h213l196 -272v-33h-55z" />
    <glyph glyph-name="Aacute" unicode="&#xc1;" horiz-adv-x="1479" 
d="M461 53v-53h-441v53l152 27l457 1272h190l475 -1272l170 -27v-53h-567v53l180 27l-133 387h-528l-135 -387zM676 1208l-230 -651h467zM611 1453v33l196 272h213v-37l-354 -268h-55z" />
    <glyph glyph-name="Acircumflex" unicode="&#xc2;" horiz-adv-x="1479" 
d="M461 53v-53h-441v53l152 27l457 1272h190l475 -1272l170 -27v-53h-567v53l180 27l-133 387h-528l-135 -387zM676 1208l-230 -651h467zM395 1453v33l218 273h213l217 -273v-33h-56l-268 183l-268 -183h-56z" />
    <glyph glyph-name="Atilde" unicode="&#xc3;" horiz-adv-x="1479" 
d="M461 53v-53h-441v53l152 27l457 1272h190l475 -1272l170 -27v-53h-567v53l180 27l-133 387h-528l-135 -387zM676 1208l-230 -651h467zM846 1452q-48 0 -88.5 21.5t-76.5 48t-69.5 48t-66.5 21.5q-31 0 -49 -10.5t-28.5 -28t-15 -38.5t-7.5 -42h-52q3 47 13.5 90.5
t33 77.5t58.5 54t90 20q48 0 88.5 -21.5t77 -48t70 -48t65.5 -21.5q30 0 48 10.5t28.5 27.5t15.5 38t8 42h52q-3 -47 -13.5 -90t-33 -77t-58.5 -54t-90 -20z" />
    <glyph glyph-name="Adieresis" unicode="&#xc4;" horiz-adv-x="1479" 
d="M461 53v-53h-441v53l152 27l457 1272h190l475 -1272l170 -27v-53h-567v53l180 27l-133 387h-528l-135 -387zM676 1208l-230 -651h467zM1003 1559q0 -42 -28 -71.5t-70 -29.5q-21 0 -39 8t-31.5 22t-21.5 32t-8 39q0 42 29 71t71 29t70 -29t28 -71zM647 1559
q0 -42 -28 -71.5t-70 -29.5q-21 0 -39 8t-32 22t-22 32t-8 39t8 39t22 31.5t32 21.5t39 8q42 0 70 -29t28 -71z" />
    <glyph glyph-name="Aring" unicode="&#xc5;" horiz-adv-x="1479" 
d="M461 53v-53h-441v53l152 27l457 1272h190l475 -1272l170 -27v-53h-567v53l180 27l-133 387h-528l-135 -387zM676 1208l-230 -651h467zM925 1476q0 -42 -16 -79t-43.5 -64.5t-64.5 -43.5t-79 -16t-79 16t-64.5 43.5t-43.5 64.5t-16 79t16 79t43.5 64.5t64.5 43.5t79 16
t79 -16t64.5 -43.5t43.5 -64.5t16 -79zM845 1476q0 25 -9.5 47.5t-26.5 39.5t-39.5 26.5t-47.5 9.5q-26 0 -48 -9.5t-39 -26.5t-26.5 -39.5t-9.5 -47.5t9.5 -47.5t26.5 -39t39 -26.5t48 -10q25 0 47.5 10t39.5 26.5t26.5 39t9.5 47.5z" />
    <glyph glyph-name="AE" unicode="&#xc6;" horiz-adv-x="1821" 
d="M731 53l152 27v387h-412l-207 -387l158 -27v-53h-402v53l136 27l647 1190l-164 18v53h995v-321h-65l-33 217q-32 4 -77.5 7t-92.5 4.5t-89 2t-65 0.5h-137v-524h281l30 160h64v-412h-64l-30 162h-281v-547h182q62 0 117 1.5t99 3.5t75.5 5t46.5 6l58 248h65l-18 -354
h-969v53zM883 557v674l-363 -674h363z" />
    <glyph glyph-name="Ccedilla" unicode="&#xc7;" horiz-adv-x="1366" 
d="M774 -20q-164 0 -292.5 46t-217 133t-134.5 212.5t-46 283.5q0 180 46.5 312t135 218.5t217.5 128.5t295 42q69 0 130 -4.5t116.5 -11.5t105.5 -16t97 -19l6 -293h-66l-30 174q-70 43 -162.5 66.5t-188.5 23.5q-117 0 -208.5 -32t-154.5 -104.5t-96.5 -191t-33.5 -291.5
q0 -152 33 -264.5t95 -187t151.5 -111.5t203.5 -37q62 0 118.5 8t105 22t87 32.5t64.5 38.5l37 200h65l-6 -315q-42 -12 -96 -23.5t-115 -20.5t-128 -14t-134 -5zM957 -234q0 -46 -18 -83t-51 -63.5t-78.5 -41t-99.5 -14.5q-32 0 -69.5 5.5t-68.5 16.5v74q9 -3 23.5 -6
t31 -5t34 -3.5t31.5 -1.5q60 0 87 29.5t27 74.5q0 32 -15 53.5t-37.5 35t-49 20t-50.5 8.5l41 153h86l-18 -82q91 -9 142.5 -53t51.5 -117z" />
    <glyph glyph-name="Egrave" unicode="&#xc8;" horiz-adv-x="1251" 
d="M59 53l172 27v1182l-172 26v53h1006v-321h-66l-32 217q-32 4 -77.5 7t-92.5 4.5t-89 2t-65 0.5h-219v-524h362l31 160h64v-412h-64l-31 162h-362v-547h264q62 0 117 1.5t99 3.5t75.5 5t46.5 6l57 248h66l-19 -354h-1071v53zM758 1453l-354 268v37h213l196 -272v-33h-55z
" />
    <glyph glyph-name="Eacute" unicode="&#xc9;" horiz-adv-x="1251" 
d="M59 53l172 27v1182l-172 26v53h1006v-321h-66l-32 217q-32 4 -77.5 7t-92.5 4.5t-89 2t-65 0.5h-219v-524h362l31 160h64v-412h-64l-31 162h-362v-547h264q62 0 117 1.5t99 3.5t75.5 5t46.5 6l57 248h66l-19 -354h-1071v53zM470 1453v33l196 272h213v-37l-354 -268h-55z
" />
    <glyph glyph-name="Ecircumflex" unicode="&#xca;" horiz-adv-x="1251" 
d="M59 53l172 27v1182l-172 26v53h1006v-321h-66l-32 217q-32 4 -77.5 7t-92.5 4.5t-89 2t-65 0.5h-219v-524h362l31 160h64v-412h-64l-31 162h-362v-547h264q62 0 117 1.5t99 3.5t75.5 5t46.5 6l57 248h66l-19 -354h-1071v53zM303 1453v33l218 273h213l217 -273v-33h-56
l-268 183l-268 -183h-56z" />
    <glyph glyph-name="Edieresis" unicode="&#xcb;" horiz-adv-x="1251" 
d="M59 53l172 27v1182l-172 26v53h1006v-321h-66l-32 217q-32 4 -77.5 7t-92.5 4.5t-89 2t-65 0.5h-219v-524h362l31 160h64v-412h-64l-31 162h-362v-547h264q62 0 117 1.5t99 3.5t75.5 5t46.5 6l57 248h66l-19 -354h-1071v53zM913 1559q0 -42 -28 -71.5t-70 -29.5
q-21 0 -39 8t-31.5 22t-21.5 32t-8 39q0 42 29 71t71 29t70 -29t28 -71zM557 1559q0 -42 -28 -71.5t-70 -29.5q-21 0 -39 8t-32 22t-22 32t-8 39t8 39t22 31.5t32 21.5t39 8q42 0 70 -29t28 -71z" />
    <glyph glyph-name="Igrave" unicode="&#xcc;" horiz-adv-x="682" 
d="M438 80l172 -27v-53h-536v53l172 27v1182l-172 26v53h536v-53l-172 -26v-1182zM408 1453l-354 268v37h213l196 -272v-33h-55z" />
    <glyph glyph-name="Iacute" unicode="&#xcd;" horiz-adv-x="682" 
d="M438 80l172 -27v-53h-536v53l172 27v1182l-172 26v53h536v-53l-172 -26v-1182zM209 1453v33l196 272h213v-37l-354 -268h-55z" />
    <glyph glyph-name="Icircumflex" unicode="&#xce;" horiz-adv-x="682" 
d="M438 80l172 -27v-53h-536v53l172 27v1182l-172 26v53h536v-53l-172 -26v-1182zM18 1453v33l218 273h213l217 -273v-33h-56l-268 183l-268 -183h-56z" />
    <glyph glyph-name="Idieresis" unicode="&#xcf;" horiz-adv-x="682" 
d="M438 80l172 -27v-53h-536v53l172 27v1182l-172 26v53h536v-53l-172 -26v-1182zM618 1559q0 -42 -28 -71.5t-70 -29.5q-21 0 -39 8t-31.5 22t-21.5 32t-8 39q0 42 29 71t71 29t70 -29t28 -71zM262 1559q0 -42 -28 -71.5t-70 -29.5q-21 0 -39 8t-32 22t-22 32t-8 39t8 39
t22 31.5t32 21.5t39 8q42 0 70 -29t28 -71z" />
    <glyph glyph-name="Eth" unicode="&#xd0;" horiz-adv-x="1479" 
d="M631 1341q162 0 302 -34.5t243 -112.5t162 -204.5t59 -311.5q0 -164 -38 -291t-119 -214t-206.5 -132t-300.5 -45q-57 0 -128 0.5t-141 1.5t-132 1.5t-101 0.5h-172v53l172 27v549h-178v82h178v551l-172 26v53h572zM801 711v-82h-377v-535q30 -2 65 -3t72 -2.5t74.5 -2
t73.5 -0.5q127 0 217.5 36t148.5 108.5t85.5 182t27.5 257.5q0 157 -42 267.5t-120 180.5t-189.5 101.5t-250.5 31.5h-162v-540h377z" />
    <glyph glyph-name="Ntilde" unicode="&#xd1;" horiz-adv-x="1479" 
d="M1155 1262l-180 26v53h457v-53l-172 -26v-1262h-97l-827 1206v-1126l180 -27v-53h-457v53l172 27v1182l-172 26v53h406l690 -993v914zM879 1452q-48 0 -88.5 21.5t-76.5 48t-69.5 48t-66.5 21.5q-31 0 -49 -10.5t-28.5 -28t-15 -38.5t-7.5 -42h-52q3 47 13.5 90.5
t33 77.5t58.5 54t90 20q48 0 88.5 -21.5t77 -48t70 -48t65.5 -21.5q30 0 48 10.5t28.5 27.5t15.5 38t8 42h52q-3 -47 -13.5 -90t-33 -77t-58.5 -54t-90 -20z" />
    <glyph glyph-name="Ograve" unicode="&#xd2;" horiz-adv-x="1479" 
d="M293 672q0 -140 21 -253t72 -193t137 -123.5t216 -43.5t216 43.5t137.5 123.5t72.5 193t21 253q0 139 -21 251t-72.5 190.5t-137.5 120.5t-216 42t-216 -42t-137 -120.5t-72 -190.5t-21 -251zM84 672q0 178 43.5 307t126.5 213t205 124t280 40q153 0 274.5 -40
t206.5 -124t130 -213t45 -307t-45 -308.5t-130 -215.5t-206.5 -126.5t-274.5 -41.5t-274 41.5t-206 126.5t-130 215.5t-45 308.5zM840 1453l-354 268v37h213l196 -272v-33h-55z" />
    <glyph glyph-name="Oacute" unicode="&#xd3;" horiz-adv-x="1479" 
d="M293 672q0 -140 21 -253t72 -193t137 -123.5t216 -43.5t216 43.5t137.5 123.5t72.5 193t21 253q0 139 -21 251t-72.5 190.5t-137.5 120.5t-216 42t-216 -42t-137 -120.5t-72 -190.5t-21 -251zM84 672q0 178 43.5 307t126.5 213t205 124t280 40q153 0 274.5 -40
t206.5 -124t130 -213t45 -307t-45 -308.5t-130 -215.5t-206.5 -126.5t-274.5 -41.5t-274 41.5t-206 126.5t-130 215.5t-45 308.5zM627 1453v33l196 272h213v-37l-354 -268h-55z" />
    <glyph glyph-name="Ocircumflex" unicode="&#xd4;" horiz-adv-x="1479" 
d="M293 672q0 -140 21 -253t72 -193t137 -123.5t216 -43.5t216 43.5t137.5 123.5t72.5 193t21 253q0 139 -21 251t-72.5 190.5t-137.5 120.5t-216 42t-216 -42t-137 -120.5t-72 -190.5t-21 -251zM84 672q0 178 43.5 307t126.5 213t205 124t280 40q153 0 274.5 -40
t206.5 -124t130 -213t45 -307t-45 -308.5t-130 -215.5t-206.5 -126.5t-274.5 -41.5t-274 41.5t-206 126.5t-130 215.5t-45 308.5zM417 1453v33l218 273h213l217 -273v-33h-56l-268 183l-268 -183h-56z" />
    <glyph glyph-name="Otilde" unicode="&#xd5;" horiz-adv-x="1479" 
d="M293 672q0 -140 21 -253t72 -193t137 -123.5t216 -43.5t216 43.5t137.5 123.5t72.5 193t21 253q0 139 -21 251t-72.5 190.5t-137.5 120.5t-216 42t-216 -42t-137 -120.5t-72 -190.5t-21 -251zM84 672q0 178 43.5 307t126.5 213t205 124t280 40q153 0 274.5 -40
t206.5 -124t130 -213t45 -307t-45 -308.5t-130 -215.5t-206.5 -126.5t-274.5 -41.5t-274 41.5t-206 126.5t-130 215.5t-45 308.5zM867 1452q-48 0 -88.5 21.5t-76.5 48t-69.5 48t-66.5 21.5q-31 0 -49 -10.5t-28.5 -28t-15 -38.5t-7.5 -42h-52q3 47 13.5 90.5t33 77.5
t58.5 54t90 20q48 0 88.5 -21.5t77 -48t70 -48t65.5 -21.5q30 0 48 10.5t28.5 27.5t15.5 38t8 42h52q-3 -47 -13.5 -90t-33 -77t-58.5 -54t-90 -20z" />
    <glyph glyph-name="Odieresis" unicode="&#xd6;" horiz-adv-x="1479" 
d="M293 672q0 -140 21 -253t72 -193t137 -123.5t216 -43.5t216 43.5t137.5 123.5t72.5 193t21 253q0 139 -21 251t-72.5 190.5t-137.5 120.5t-216 42t-216 -42t-137 -120.5t-72 -190.5t-21 -251zM84 672q0 178 43.5 307t126.5 213t205 124t280 40q153 0 274.5 -40
t206.5 -124t130 -213t45 -307t-45 -308.5t-130 -215.5t-206.5 -126.5t-274.5 -41.5t-274 41.5t-206 126.5t-130 215.5t-45 308.5zM1013 1559q0 -42 -28 -71.5t-70 -29.5q-21 0 -39 8t-31.5 22t-21.5 32t-8 39q0 42 29 71t71 29t70 -29t28 -71zM657 1559q0 -42 -28 -71.5
t-70 -29.5q-21 0 -39 8t-32 22t-22 32t-8 39t8 39t22 31.5t32 21.5t39 8q42 0 70 -29t28 -71z" />
    <glyph glyph-name="multiply" unicode="&#xd7;" horiz-adv-x="1155" 
d="M578 608l-345 -344l-71 72l344 346l-344 342l74 74l342 -344l346 344l71 -72l-344 -344l344 -346l-71 -72z" />
    <glyph glyph-name="Oslash" unicode="&#xd8;" horiz-adv-x="1479" 
d="M84 672q0 178 43.5 307t126.5 213t205 124t280 40q127 0 232.5 -28t185.5 -85l123 148h115l-170 -205q81 -85 125.5 -211.5t44.5 -302.5q0 -178 -45 -308.5t-130 -215.5t-206.5 -126.5t-274.5 -41.5q-127 0 -230 26.5t-183 83.5l-121 -145h-119l170 205q-84 86 -128 215
t-44 307zM293 672q0 -121 15 -220.5t50 -177.5l715 865q-52 66 -133.5 101.5t-200.5 35.5q-130 0 -216 -42t-137 -120.5t-72 -190.5t-21 -251zM1186 672q0 117 -15 214t-49 173l-712 -866q52 -66 132 -100t197 -34q130 0 216 43.5t137.5 123.5t72.5 193t21 253z" />
    <glyph glyph-name="Ugrave" unicode="&#xd9;" horiz-adv-x="1479" 
d="M1159 1262l-180 26v53h457v-53l-172 -26v-801q0 -92 -23 -178.5t-81 -153.5t-158.5 -108t-254.5 -41q-267 0 -399.5 120.5t-132.5 341.5v820l-172 26v53h536v-53l-172 -26v-805q0 -82 19.5 -149.5t62 -115.5t110 -74t163.5 -26q105 0 180 26t123.5 73t71 114t22.5 148
v809zM844 1453l-354 268v37h213l196 -272v-33h-55z" />
    <glyph glyph-name="Uacute" unicode="&#xda;" horiz-adv-x="1479" 
d="M1159 1262l-180 26v53h457v-53l-172 -26v-801q0 -92 -23 -178.5t-81 -153.5t-158.5 -108t-254.5 -41q-267 0 -399.5 120.5t-132.5 341.5v820l-172 26v53h536v-53l-172 -26v-805q0 -82 19.5 -149.5t62 -115.5t110 -74t163.5 -26q105 0 180 26t123.5 73t71 114t22.5 148
v809zM652 1453v33l196 272h213v-37l-354 -268h-55z" />
    <glyph glyph-name="Ucircumflex" unicode="&#xdb;" horiz-adv-x="1479" 
d="M1159 1262l-180 26v53h457v-53l-172 -26v-801q0 -92 -23 -178.5t-81 -153.5t-158.5 -108t-254.5 -41q-267 0 -399.5 120.5t-132.5 341.5v820l-172 26v53h536v-53l-172 -26v-805q0 -82 19.5 -149.5t62 -115.5t110 -74t163.5 -26q105 0 180 26t123.5 73t71 114t22.5 148
v809zM444 1453v33l218 273h213l217 -273v-33h-56l-268 183l-268 -183h-56z" />
    <glyph glyph-name="Udieresis" unicode="&#xdc;" horiz-adv-x="1479" 
d="M1159 1262l-180 26v53h457v-53l-172 -26v-801q0 -92 -23 -178.5t-81 -153.5t-158.5 -108t-254.5 -41q-267 0 -399.5 120.5t-132.5 341.5v820l-172 26v53h536v-53l-172 -26v-805q0 -82 19.5 -149.5t62 -115.5t110 -74t163.5 -26q105 0 180 26t123.5 73t71 114t22.5 148
v809zM1017 1559q0 -42 -28 -71.5t-70 -29.5q-21 0 -39 8t-31.5 22t-21.5 32t-8 39q0 42 29 71t71 29t70 -29t28 -71zM661 1559q0 -42 -28 -71.5t-70 -29.5q-21 0 -39 8t-32 22t-22 32t-8 39t8 39t22 31.5t32 21.5t39 8q42 0 70 -29t28 -71z" />
    <glyph glyph-name="Yacute" unicode="&#xdd;" horiz-adv-x="1479" 
d="M838 528v-448l213 -27v-53h-619v53l213 27v442l-471 740l-151 26v53h567v-53l-180 -26l385 -619l366 619l-170 26v53h436v-53l-147 -26zM641 1453v33l196 272h213v-37l-354 -268h-55z" />
    <glyph glyph-name="Thorn" unicode="&#xde;" horiz-adv-x="1139" 
d="M858 686q0 80 -17.5 140t-57 100t-103.5 60t-158 20h-98v-660h104q94 0 157.5 24.5t102 69t54.5 107t16 139.5zM565 1083q141 0 235.5 -30.5t151.5 -84t81 -125.5t24 -155q0 -82 -23.5 -158t-79 -134t-148.5 -93t-231 -35h-151v-188l172 -27v-53h-524v53l159 27v1182
l-159 26v53h524v-53l-172 -26v-179h141z" />
    <glyph glyph-name="germandbls" unicode="&#xdf;" 
d="M877 997q-45 -5 -92.5 -11.5t-85.5 -24.5t-62.5 -51t-24.5 -91q0 -64 25 -106.5t63 -76.5t82 -65t82 -72t63 -99t25 -144q0 -63 -17 -114t-53.5 -87t-93.5 -55.5t-137 -19.5q-32 0 -65.5 3.5t-65 9.5t-58 14.5t-44.5 19.5v192h45l33 -94q23 -28 62.5 -47t90.5 -19
q71 0 110.5 40.5t39.5 125.5q0 70 -25 115.5t-62 80t-81 64.5t-81 69t-62 93t-25 137q0 62 19.5 107.5t53 77t79 50.5t98.5 28q0 90 -11.5 150t-35 97t-60 52.5t-86.5 15.5q-43 0 -78.5 -13t-61 -43t-40 -78t-14.5 -118v-1110h-306v45l140 25v991q0 106 27 178.5t75 117.5
t114 65t144 20q87 0 153.5 -23t112 -75.5t68.5 -137.5t23 -209z" />
    <glyph glyph-name="agrave" unicode="&#xe0;" horiz-adv-x="909" 
d="M465 961q64 0 119 -12t95 -41t62.5 -78.5t22.5 -124.5v-635l117 -25v-45h-258l-19 94q-15 -15 -40.5 -35t-61.5 -37.5t-83.5 -29.5t-105.5 -12q-68 0 -114.5 21t-74.5 58.5t-40 89t-12 111.5q0 62 15 107.5t42 76.5t63.5 50.5t79 30.5t90 15t95.5 5l141 4v147
q0 42 -7 76.5t-23.5 59.5t-44.5 39t-70 14q-48 0 -97 -13t-86 -34l-34 -117h-56v205q65 14 134.5 24.5t150.5 10.5zM598 479l-131 -4q-59 -2 -102 -11.5t-71 -32.5t-42 -63t-14 -102q0 -176 143 -176q68 0 117.5 15.5t99.5 39.5v334zM544 1119l-354 268v37h213l196 -272v-33
h-55z" />
    <glyph glyph-name="aacute" unicode="&#xe1;" horiz-adv-x="909" 
d="M465 961q64 0 119 -12t95 -41t62.5 -78.5t22.5 -124.5v-635l117 -25v-45h-258l-19 94q-15 -15 -40.5 -35t-61.5 -37.5t-83.5 -29.5t-105.5 -12q-68 0 -114.5 21t-74.5 58.5t-40 89t-12 111.5q0 62 15 107.5t42 76.5t63.5 50.5t79 30.5t90 15t95.5 5l141 4v147
q0 42 -7 76.5t-23.5 59.5t-44.5 39t-70 14q-48 0 -97 -13t-86 -34l-34 -117h-56v205q65 14 134.5 24.5t150.5 10.5zM598 479l-131 -4q-59 -2 -102 -11.5t-71 -32.5t-42 -63t-14 -102q0 -176 143 -176q68 0 117.5 15.5t99.5 39.5v334zM342 1119v33l196 272h213v-37l-354 -268
h-55z" />
    <glyph glyph-name="acircumflex" unicode="&#xe2;" horiz-adv-x="909" 
d="M465 961q64 0 119 -12t95 -41t62.5 -78.5t22.5 -124.5v-635l117 -25v-45h-258l-19 94q-15 -15 -40.5 -35t-61.5 -37.5t-83.5 -29.5t-105.5 -12q-68 0 -114.5 21t-74.5 58.5t-40 89t-12 111.5q0 62 15 107.5t42 76.5t63.5 50.5t79 30.5t90 15t95.5 5l141 4v147
q0 42 -7 76.5t-23.5 59.5t-44.5 39t-70 14q-48 0 -97 -13t-86 -34l-34 -117h-56v205q65 14 134.5 24.5t150.5 10.5zM598 479l-131 -4q-59 -2 -102 -11.5t-71 -32.5t-42 -63t-14 -102q0 -176 143 -176q68 0 117.5 15.5t99.5 39.5v334zM143 1119v33l218 273h213l217 -273v-33
h-56l-268 183l-268 -183h-56z" />
    <glyph glyph-name="atilde" unicode="&#xe3;" horiz-adv-x="909" 
d="M465 961q64 0 119 -12t95 -41t62.5 -78.5t22.5 -124.5v-635l117 -25v-45h-258l-19 94q-15 -15 -40.5 -35t-61.5 -37.5t-83.5 -29.5t-105.5 -12q-68 0 -114.5 21t-74.5 58.5t-40 89t-12 111.5q0 62 15 107.5t42 76.5t63.5 50.5t79 30.5t90 15t95.5 5l141 4v147
q0 42 -7 76.5t-23.5 59.5t-44.5 39t-70 14q-48 0 -97 -13t-86 -34l-34 -117h-56v205q65 14 134.5 24.5t150.5 10.5zM598 479l-131 -4q-59 -2 -102 -11.5t-71 -32.5t-42 -63t-14 -102q0 -176 143 -176q68 0 117.5 15.5t99.5 39.5v334zM586 1118q-48 0 -88.5 21.5t-76.5 48
t-69.5 48t-66.5 21.5q-31 0 -49 -10.5t-28.5 -28t-15 -38.5t-7.5 -42h-52q3 47 13.5 90.5t33 77.5t58.5 54t90 20q48 0 88.5 -21.5t77 -48t70 -48t65.5 -21.5q30 0 48 10.5t28.5 27.5t15.5 38t8 42h52q-3 -47 -13.5 -90t-33 -77t-58.5 -54t-90 -20z" />
    <glyph glyph-name="adieresis" unicode="&#xe4;" horiz-adv-x="909" 
d="M465 961q64 0 119 -12t95 -41t62.5 -78.5t22.5 -124.5v-635l117 -25v-45h-258l-19 94q-15 -15 -40.5 -35t-61.5 -37.5t-83.5 -29.5t-105.5 -12q-68 0 -114.5 21t-74.5 58.5t-40 89t-12 111.5q0 62 15 107.5t42 76.5t63.5 50.5t79 30.5t90 15t95.5 5l141 4v147
q0 42 -7 76.5t-23.5 59.5t-44.5 39t-70 14q-48 0 -97 -13t-86 -34l-34 -117h-56v205q65 14 134.5 24.5t150.5 10.5zM598 479l-131 -4q-59 -2 -102 -11.5t-71 -32.5t-42 -63t-14 -102q0 -176 143 -176q68 0 117.5 15.5t99.5 39.5v334zM733 1194q0 -42 -28 -71.5t-70 -29.5
q-21 0 -39 8t-31.5 22t-21.5 32t-8 39q0 42 29 71t71 29t70 -29t28 -71zM377 1194q0 -42 -28 -71.5t-70 -29.5q-21 0 -39 8t-32 22t-22 32t-8 39t8 39t22 31.5t32 21.5t39 8q42 0 70 -29t28 -71z" />
    <glyph glyph-name="aring" unicode="&#xe5;" horiz-adv-x="909" 
d="M465 961q64 0 119 -12t95 -41t62.5 -78.5t22.5 -124.5v-635l117 -25v-45h-258l-19 94q-15 -15 -40.5 -35t-61.5 -37.5t-83.5 -29.5t-105.5 -12q-68 0 -114.5 21t-74.5 58.5t-40 89t-12 111.5q0 62 15 107.5t42 76.5t63.5 50.5t79 30.5t90 15t95.5 5l141 4v147
q0 42 -7 76.5t-23.5 59.5t-44.5 39t-70 14q-48 0 -97 -13t-86 -34l-34 -117h-56v205q65 14 134.5 24.5t150.5 10.5zM598 479l-131 -4q-59 -2 -102 -11.5t-71 -32.5t-42 -63t-14 -102q0 -176 143 -176q68 0 117.5 15.5t99.5 39.5v334zM674 1280q0 -42 -16 -79t-43.5 -64.5
t-64.5 -43.5t-79 -16t-79 16t-64.5 43.5t-43.5 64.5t-16 79t16 79t43.5 64.5t64.5 43.5t79 16t79 -16t64.5 -43.5t43.5 -64.5t16 -79zM594 1280q0 25 -9.5 47.5t-26.5 39.5t-39.5 26.5t-47.5 9.5q-26 0 -48 -9.5t-39 -26.5t-26.5 -39.5t-9.5 -47.5t9.5 -47.5t26.5 -39
t39 -26.5t48 -10q25 0 47.5 10t39.5 26.5t26.5 39t9.5 47.5z" />
    <glyph glyph-name="ae" unicode="&#xe6;" horiz-adv-x="1366" 
d="M764 473v-90q1 -62 9 -116t34 -95t75 -64.5t130 -23.5q30 0 63 2.5t66 6.5t64 9t57 11v-56q-23 -15 -54 -28.5t-68 -24.5t-79.5 -17.5t-87.5 -6.5q-115 0 -196 33t-126 96q-27 -24 -61.5 -47t-76.5 -41.5t-92 -29.5t-108 -11q-68 0 -114.5 21t-74.5 58.5t-40 89
t-12 111.5q0 62 15 107.5t42 76.5t63.5 50.5t79 30.5t90 15t95.5 5l141 4v147q0 42 -7 76.5t-23.5 59.5t-44.5 39t-70 14q-48 0 -97 -13t-86 -34l-34 -117h-56v205q65 14 134.5 24.5t150.5 10.5q75 0 136 -16t101 -58q45 40 106 59t138 19q72 0 136 -20t112 -67t76 -126
t28 -197v-82h-534zM381 90q68 0 129.5 20t114.5 48q-6 11 -10.5 29t-8.5 40t-6 45.5t-2 46.5v160l-131 -4q-59 -2 -102 -11.5t-71 -32.5t-42 -63t-14 -102q0 -176 143 -176zM946 885q-56 0 -91.5 -23.5t-55.5 -66.5t-27.5 -104.5t-7.5 -137.5h360q0 76 -9 137.5t-29.5 104.5
t-54.5 66.5t-85 23.5z" />
    <glyph glyph-name="ccedilla" unicode="&#xe7;" horiz-adv-x="909" 
d="M846 57q-26 -19 -62 -33.5t-77 -24t-85.5 -14.5t-86.5 -5q-122 0 -208.5 33.5t-141.5 97.5t-81 156.5t-26 209.5q0 128 33.5 220.5t93.5 152t142.5 87.5t180.5 28q81 0 157 -9.5t138 -21.5v-262h-55l-43 166q-37 21 -89.5 34t-109.5 13q-65 0 -114.5 -23.5t-84 -73.5
t-52 -127t-17.5 -184q0 -90 15 -162.5t53 -123.5t102.5 -79t163.5 -28q34 0 69.5 2.5t69 7t63 10.5t52.5 13v-60zM706 -234q0 -46 -18 -83t-51 -63.5t-78.5 -41t-99.5 -14.5q-32 0 -69.5 5.5t-68.5 16.5v74q9 -3 23.5 -6t31 -5t34 -3.5t31.5 -1.5q60 0 87 29.5t27 74.5
q0 32 -15 53.5t-37.5 35t-49 20t-50.5 8.5l41 153h86l-18 -82q91 -9 142.5 -53t51.5 -117z" />
    <glyph glyph-name="egrave" unicode="&#xe8;" horiz-adv-x="909" 
d="M260 473v-18q0 -73 10.5 -140t42 -118.5t88.5 -82t150 -30.5q30 0 63 2.5t66 6.5t64 9t57 11v-56q-23 -15 -55.5 -28.5t-71.5 -24.5t-83 -17.5t-89 -6.5q-117 0 -197.5 32t-130.5 95t-72 156t-22 214q0 246 103 367t294 121q75 0 140.5 -20t114.5 -67t77.5 -126
t28.5 -197v-82h-578zM477 885q-56 0 -96.5 -23.5t-67 -66.5t-39 -104.5t-12.5 -137.5h402q0 76 -8.5 137.5t-30 104.5t-57.5 66.5t-91 23.5zM594 1119l-354 268v37h213l196 -272v-33h-55z" />
    <glyph glyph-name="eacute" unicode="&#xe9;" horiz-adv-x="909" 
d="M260 473v-18q0 -73 10.5 -140t42 -118.5t88.5 -82t150 -30.5q30 0 63 2.5t66 6.5t64 9t57 11v-56q-23 -15 -55.5 -28.5t-71.5 -24.5t-83 -17.5t-89 -6.5q-117 0 -197.5 32t-130.5 95t-72 156t-22 214q0 246 103 367t294 121q75 0 140.5 -20t114.5 -67t77.5 -126
t28.5 -197v-82h-578zM477 885q-56 0 -96.5 -23.5t-67 -66.5t-39 -104.5t-12.5 -137.5h402q0 76 -8.5 137.5t-30 104.5t-57.5 66.5t-91 23.5zM382 1119v33l196 272h213v-37l-354 -268h-55z" />
    <glyph glyph-name="ecircumflex" unicode="&#xea;" horiz-adv-x="909" 
d="M260 473v-18q0 -73 10.5 -140t42 -118.5t88.5 -82t150 -30.5q30 0 63 2.5t66 6.5t64 9t57 11v-56q-23 -15 -55.5 -28.5t-71.5 -24.5t-83 -17.5t-89 -6.5q-117 0 -197.5 32t-130.5 95t-72 156t-22 214q0 246 103 367t294 121q75 0 140.5 -20t114.5 -67t77.5 -126
t28.5 -197v-82h-578zM477 885q-56 0 -96.5 -23.5t-67 -66.5t-39 -104.5t-12.5 -137.5h402q0 76 -8.5 137.5t-30 104.5t-57.5 66.5t-91 23.5zM151 1119v33l218 273h213l217 -273v-33h-56l-268 183l-268 -183h-56z" />
    <glyph glyph-name="edieresis" unicode="&#xeb;" horiz-adv-x="909" 
d="M260 473v-18q0 -73 10.5 -140t42 -118.5t88.5 -82t150 -30.5q30 0 63 2.5t66 6.5t64 9t57 11v-56q-23 -15 -55.5 -28.5t-71.5 -24.5t-83 -17.5t-89 -6.5q-117 0 -197.5 32t-130.5 95t-72 156t-22 214q0 246 103 367t294 121q75 0 140.5 -20t114.5 -67t77.5 -126
t28.5 -197v-82h-578zM477 885q-56 0 -96.5 -23.5t-67 -66.5t-39 -104.5t-12.5 -137.5h402q0 76 -8.5 137.5t-30 104.5t-57.5 66.5t-91 23.5zM743 1194q0 -42 -28 -71.5t-70 -29.5q-21 0 -39 8t-31.5 22t-21.5 32t-8 39q0 42 29 71t71 29t70 -29t28 -71zM387 1194
q0 -42 -28 -71.5t-70 -29.5q-21 0 -39 8t-32 22t-22 32t-8 39t8 39t22 31.5t32 21.5t39 8q42 0 70 -29t28 -71z" />
    <glyph glyph-name="igrave" unicode="&#xec;" horiz-adv-x="569" 
d="M369 70l161 -25v-45h-487v45l160 25v800l-133 25v45h299v-870zM376 1119l-354 268v37h213l196 -272v-33h-55z" />
    <glyph glyph-name="iacute" unicode="&#xed;" horiz-adv-x="569" 
d="M369 70l161 -25v-45h-487v45l160 25v800l-133 25v45h299v-870zM138 1119v33l196 272h213v-37l-354 -268h-55z" />
    <glyph glyph-name="icircumflex" unicode="&#xee;" horiz-adv-x="569" 
d="M369 70l161 -25v-45h-487v45l160 25v800l-133 25v45h299v-870zM-40 1119v33l218 273h213l217 -273v-33h-56l-268 183l-268 -183h-56z" />
    <glyph glyph-name="idieresis" unicode="&#xef;" horiz-adv-x="569" 
d="M369 70l161 -25v-45h-487v45l160 25v800l-133 25v45h299v-870zM549 1194q0 -42 -28 -71.5t-70 -29.5q-21 0 -39 8t-31.5 22t-21.5 32t-8 39q0 42 29 71t71 29t70 -29t28 -71zM193 1194q0 -42 -28 -71.5t-70 -29.5q-21 0 -39 8t-32 22t-22 32t-8 39t8 39t22 31.5t32 21.5
t39 8q42 0 70 -29t28 -71z" />
    <glyph glyph-name="eth" unicode="&#xf0;" 
d="M229 1102l228 131q-47 34 -100.5 62t-118.5 48v78q86 -21 165 -53.5t150 -79.5l266 156v-94l-194 -115q73 -59 131 -135.5t99.5 -170.5t64 -206.5t24.5 -243.5q0 -8 1 -16.5t1 -18.5q0 -224 -107 -344t-333 -120q-212 0 -320 119t-108 345q0 223 108 341t328 118
q109 0 197 -35q-20 74 -65 155.5t-122 154.5l-295 -172v96zM766 444q0 90 -13 160.5t-43.5 119t-80.5 74t-123 25.5q-74 0 -122 -25.5t-76 -74t-39 -119t-11 -160.5t11 -161.5t39 -121t76 -76t122 -26.5q73 0 123 26.5t80.5 76t43.5 121t13 161.5z" />
    <glyph glyph-name="ntilde" unicode="&#xf1;" 
d="M324 864q28 16 66.5 34t80.5 33t84 24.5t78 9.5q54 0 99 -15t77.5 -48t51 -86t18.5 -128v-618l114 -25v-45h-405v45l125 25v600q0 83 -40.5 130.5t-125.5 47.5q-28 0 -59 -3t-61 -7t-56.5 -9.5t-44.5 -9.5v-749l127 -25v-45h-406v45l113 25v800l-113 25v45h268zM645 1118
q-48 0 -88.5 21.5t-76.5 48t-69.5 48t-66.5 21.5q-31 0 -49 -10.5t-28.5 -28t-15 -38.5t-7.5 -42h-52q3 47 13.5 90.5t33 77.5t58.5 54t90 20q48 0 88.5 -21.5t77 -48t70 -48t65.5 -21.5q30 0 48 10.5t28.5 27.5t15.5 38t8 42h52q-3 -47 -13.5 -90t-33 -77t-58.5 -54
t-90 -20z" />
    <glyph glyph-name="ograve" unicode="&#xf2;" 
d="M946 475q0 -239 -107 -367t-333 -128q-212 0 -320 127t-108 368q0 238 108 364t328 126q214 0 323 -123.5t109 -366.5zM766 475q0 97 -13 173.5t-43.5 129t-80.5 80t-123 27.5q-74 0 -122 -27.5t-76 -80t-39 -129t-11 -173.5q0 -98 11 -175t39 -130.5t76 -82t122 -28.5
q73 0 123 28.5t80.5 82t43.5 130.5t13 175zM603 1119l-354 268v37h213l196 -272v-33h-55z" />
    <glyph glyph-name="oacute" unicode="&#xf3;" 
d="M946 475q0 -239 -107 -367t-333 -128q-212 0 -320 127t-108 368q0 238 108 364t328 126q214 0 323 -123.5t109 -366.5zM766 475q0 97 -13 173.5t-43.5 129t-80.5 80t-123 27.5q-74 0 -122 -27.5t-76 -80t-39 -129t-11 -173.5q0 -98 11 -175t39 -130.5t76 -82t122 -28.5
q73 0 123 28.5t80.5 82t43.5 130.5t13 175zM404 1119v33l196 272h213v-37l-354 -268h-55z" />
    <glyph glyph-name="ocircumflex" unicode="&#xf4;" 
d="M946 475q0 -239 -107 -367t-333 -128q-212 0 -320 127t-108 368q0 238 108 364t328 126q214 0 323 -123.5t109 -366.5zM766 475q0 97 -13 173.5t-43.5 129t-80.5 80t-123 27.5q-74 0 -122 -27.5t-76 -80t-39 -129t-11 -173.5q0 -98 11 -175t39 -130.5t76 -82t122 -28.5
q73 0 123 28.5t80.5 82t43.5 130.5t13 175zM187 1119v33l218 273h213l217 -273v-33h-56l-268 183l-268 -183h-56z" />
    <glyph glyph-name="otilde" unicode="&#xf5;" 
d="M946 475q0 -239 -107 -367t-333 -128q-212 0 -320 127t-108 368q0 238 108 364t328 126q214 0 323 -123.5t109 -366.5zM766 475q0 97 -13 173.5t-43.5 129t-80.5 80t-123 27.5q-74 0 -122 -27.5t-76 -80t-39 -129t-11 -173.5q0 -98 11 -175t39 -130.5t76 -82t122 -28.5
q73 0 123 28.5t80.5 82t43.5 130.5t13 175zM633 1118q-48 0 -88.5 21.5t-76.5 48t-69.5 48t-66.5 21.5q-31 0 -49 -10.5t-28.5 -28t-15 -38.5t-7.5 -42h-52q3 47 13.5 90.5t33 77.5t58.5 54t90 20q48 0 88.5 -21.5t77 -48t70 -48t65.5 -21.5q30 0 48 10.5t28.5 27.5t15.5 38
t8 42h52q-3 -47 -13.5 -90t-33 -77t-58.5 -54t-90 -20z" />
    <glyph glyph-name="odieresis" unicode="&#xf6;" 
d="M946 475q0 -239 -107 -367t-333 -128q-212 0 -320 127t-108 368q0 238 108 364t328 126q214 0 323 -123.5t109 -366.5zM766 475q0 97 -13 173.5t-43.5 129t-80.5 80t-123 27.5q-74 0 -122 -27.5t-76 -80t-39 -129t-11 -173.5q0 -98 11 -175t39 -130.5t76 -82t122 -28.5
q73 0 123 28.5t80.5 82t43.5 130.5t13 175zM786 1194q0 -42 -28 -71.5t-70 -29.5q-21 0 -39 8t-31.5 22t-21.5 32t-8 39q0 42 29 71t71 29t70 -29t28 -71zM430 1194q0 -42 -28 -71.5t-70 -29.5q-21 0 -39 8t-32 22t-22 32t-8 39t8 39t22 31.5t32 21.5t39 8q42 0 70 -29
t28 -71z" />
    <glyph glyph-name="divide" unicode="&#xf7;" horiz-adv-x="1124" 
d="M657 1063q0 -40 -28 -68t-68 -28q-41 0 -69 28t-28 68t28 68t69 28q40 0 68 -28t28 -68zM657 297q0 -40 -28 -68t-68 -28q-41 0 -69 28t-28 68t28 68t69 28q40 0 68 -28t28 -68zM1038 731v-102h-953v102h953z" />
    <glyph glyph-name="oslash" unicode="&#xf8;" 
d="M952 1022l-123 -174q57 -62 87 -155t30 -218q0 -239 -107 -367t-333 -128q-145 0 -242 59l-86 -123h-108l127 178q-60 63 -89.5 158.5t-29.5 222.5q0 238 108 364t328 126q149 0 250 -64l84 121h104zM258 475q0 -75 6.5 -138.5t22.5 -113.5l405 578q-31 42 -76 63
t-110 21q-74 0 -122 -27.5t-76 -80t-39 -129t-11 -173.5zM766 475q0 71 -7.5 131.5t-23.5 108.5l-405 -580q29 -37 71.5 -56.5t104.5 -19.5q73 0 123 28.5t80.5 82t43.5 130.5t13 175z" />
    <glyph glyph-name="ugrave" unicode="&#xf9;" 
d="M313 268q0 -83 37.5 -127.5t122.5 -44.5q56 0 116 7.5t116 23.5v743l-142 25v45h307v-870l119 -25v-45h-274l-8 76q-29 -16 -69 -33t-83.5 -31t-87.5 -23t-80 -9q-54 0 -98 15t-75.5 48t-49 85.5t-17.5 127.5v614l-120 25v45h286v-672zM559 1119l-354 268v37h213
l196 -272v-33h-55z" />
    <glyph glyph-name="uacute" unicode="&#xfa;" 
d="M313 268q0 -83 37.5 -127.5t122.5 -44.5q56 0 116 7.5t116 23.5v743l-142 25v45h307v-870l119 -25v-45h-274l-8 76q-29 -16 -69 -33t-83.5 -31t-87.5 -23t-80 -9q-54 0 -98 15t-75.5 48t-49 85.5t-17.5 127.5v614l-120 25v45h286v-672zM420 1119v33l196 272h213v-37
l-354 -268h-55z" />
    <glyph glyph-name="ucircumflex" unicode="&#xfb;" 
d="M313 268q0 -83 37.5 -127.5t122.5 -44.5q56 0 116 7.5t116 23.5v743l-142 25v45h307v-870l119 -25v-45h-274l-8 76q-29 -16 -69 -33t-83.5 -31t-87.5 -23t-80 -9q-54 0 -98 15t-75.5 48t-49 85.5t-17.5 127.5v614l-120 25v45h286v-672zM185 1119v33l218 273h213l217 -273
v-33h-56l-268 183l-268 -183h-56z" />
    <glyph glyph-name="udieresis" unicode="&#xfc;" 
d="M313 268q0 -83 37.5 -127.5t122.5 -44.5q56 0 116 7.5t116 23.5v743l-142 25v45h307v-870l119 -25v-45h-274l-8 76q-29 -16 -69 -33t-83.5 -31t-87.5 -23t-80 -9q-54 0 -98 15t-75.5 48t-49 85.5t-17.5 127.5v614l-120 25v45h286v-672zM790 1194q0 -42 -28 -71.5
t-70 -29.5q-21 0 -39 8t-31.5 22t-21.5 32t-8 39q0 42 29 71t71 29t70 -29t28 -71zM434 1194q0 -42 -28 -71.5t-70 -29.5q-21 0 -39 8t-32 22t-22 32t-8 39t8 39t22 31.5t32 21.5t39 8q42 0 70 -29t28 -71z" />
    <glyph glyph-name="yacute" unicode="&#xfd;" 
d="M918 874l-367 -933q-32 -81 -65 -151t-73.5 -121.5t-92.5 -81t-121 -29.5q-26 0 -45.5 1t-36.5 3.5t-34 5.5t-38 8v203h47l33 -96q31 -23 86 -23q43 0 78 19t64.5 53.5t53.5 81.5t46 104l26 72l-358 880l-96 25v45h436v-45l-148 -27l254 -657l246 659l-147 25v45h350v-45
zM404 1119v33l196 272h213v-37l-354 -268h-55z" />
    <glyph glyph-name="thorn" unicode="&#xfe;" 
d="M758 481q0 102 -16 174t-47.5 117.5t-77.5 66.5t-105 21q-48 0 -102.5 -8.5t-92.5 -24.5v-751q42 -8 93 -12.5t102 -4.5q66 0 112.5 28t76.5 82t43.5 132.5t13.5 179.5zM152 1352l-138 24v45h303v-336q0 -19 -0.5 -44t-1 -51.5t-2 -53.5t-2.5 -51q21 18 49.5 32.5
t61.5 25t70 16.5t75 6q88 0 158 -31t119 -92.5t74.5 -152t25.5 -208.5q0 -115 -26 -207.5t-78 -158t-130.5 -100.5t-183.5 -35q-51 0 -107.5 5.5t-107.5 16.5q1 -12 2.5 -27.5t2 -32t1 -30.5t0.5 -23v-254l164 -24v-47h-448v47l119 24v1717z" />
    <glyph glyph-name="ydieresis" unicode="&#xff;" 
d="M918 874l-367 -933q-32 -81 -65 -151t-73.5 -121.5t-92.5 -81t-121 -29.5q-26 0 -45.5 1t-36.5 3.5t-34 5.5t-38 8v203h47l33 -96q31 -23 86 -23q43 0 78 19t64.5 53.5t53.5 81.5t46 104l26 72l-358 880l-96 25v45h436v-45l-148 -27l254 -657l246 659l-147 25v45h350v-45
zM813 1194q0 -42 -28 -71.5t-70 -29.5q-21 0 -39 8t-31.5 22t-21.5 32t-8 39q0 42 29 71t71 29t70 -29t28 -71zM457 1194q0 -42 -28 -71.5t-70 -29.5q-21 0 -39 8t-32 22t-22 32t-8 39t8 39t22 31.5t32 21.5t39 8q42 0 70 -29t28 -71z" />
    <glyph glyph-name="Amacron" unicode="&#x100;" horiz-adv-x="1479" 
d="M461 53v-53h-441v53l152 27l457 1272h190l475 -1272l170 -27v-53h-567v53l180 27l-133 387h-528l-135 -387zM676 1208l-230 -651h467zM425 1475v109h628v-109h-628z" />
    <glyph glyph-name="amacron" unicode="&#x101;" horiz-adv-x="909" 
d="M465 961q64 0 119 -12t95 -41t62.5 -78.5t22.5 -124.5v-635l117 -25v-45h-258l-19 94q-15 -15 -40.5 -35t-61.5 -37.5t-83.5 -29.5t-105.5 -12q-68 0 -114.5 21t-74.5 58.5t-40 89t-12 111.5q0 62 15 107.5t42 76.5t63.5 50.5t79 30.5t90 15t95.5 5l141 4v147
q0 42 -7 76.5t-23.5 59.5t-44.5 39t-70 14q-48 0 -97 -13t-86 -34l-34 -117h-56v205q65 14 134.5 24.5t150.5 10.5zM598 479l-131 -4q-59 -2 -102 -11.5t-71 -32.5t-42 -63t-14 -102q0 -176 143 -176q68 0 117.5 15.5t99.5 39.5v334zM151 1141v109h628v-109h-628z" />
    <glyph glyph-name="Abreve" unicode="&#x102;" horiz-adv-x="1479" 
d="M461 53v-53h-441v53l152 27l457 1272h190l475 -1272l170 -27v-53h-567v53l180 27l-133 387h-528l-135 -387zM676 1208l-230 -651h467zM719 1453q-73 0 -126.5 22t-88.5 60.5t-53 89.5t-19 108h74q9 -37 29 -63t48.5 -43t63 -25t72.5 -8q37 0 72 8t63.5 25t48.5 43t29 63
h74q-2 -57 -19.5 -108t-52.5 -89.5t-88.5 -60.5t-126.5 -22z" />
    <glyph glyph-name="abreve" unicode="&#x103;" horiz-adv-x="909" 
d="M465 961q64 0 119 -12t95 -41t62.5 -78.5t22.5 -124.5v-635l117 -25v-45h-258l-19 94q-15 -15 -40.5 -35t-61.5 -37.5t-83.5 -29.5t-105.5 -12q-68 0 -114.5 21t-74.5 58.5t-40 89t-12 111.5q0 62 15 107.5t42 76.5t63.5 50.5t79 30.5t90 15t95.5 5l141 4v147
q0 42 -7 76.5t-23.5 59.5t-44.5 39t-70 14q-48 0 -97 -13t-86 -34l-34 -117h-56v205q65 14 134.5 24.5t150.5 10.5zM598 479l-131 -4q-59 -2 -102 -11.5t-71 -32.5t-42 -63t-14 -102q0 -176 143 -176q68 0 117.5 15.5t99.5 39.5v334zM454 1119q-73 0 -126.5 22t-88.5 60.5
t-53 89.5t-19 108h74q9 -37 29 -63t48.5 -43t63 -25t72.5 -8q37 0 72 8t63.5 25t48.5 43t29 63h74q-2 -57 -19.5 -108t-52.5 -89.5t-88.5 -60.5t-126.5 -22z" />
    <glyph glyph-name="Aogonek" unicode="&#x104;" horiz-adv-x="1479" 
d="M461 53v-53h-441v53l152 27l457 1272h190l475 -1272l170 -27v-53h-567v53l180 27l-133 387h-528l-135 -387zM676 1208l-230 -651h467zM1197 -403q-63 0 -107 17.5t-71.5 47.5t-40 69.5t-12.5 82.5q0 34 8.5 64t21.5 55.5t29 46.5t31 36h109q-7 -10 -16.5 -28.5
t-17.5 -42.5t-14 -51.5t-6 -55.5q0 -74 35.5 -113.5t102.5 -39.5q33 0 63 6.5t53 15.5v-64q-28 -19 -71 -32.5t-97 -13.5z" />
    <glyph glyph-name="aogonek" unicode="&#x105;" horiz-adv-x="909" 
d="M465 961q64 0 119 -12t95 -41t62.5 -78.5t22.5 -124.5v-635l117 -25v-45h-258l-19 94q-15 -15 -40.5 -35t-61.5 -37.5t-83.5 -29.5t-105.5 -12q-68 0 -114.5 21t-74.5 58.5t-40 89t-12 111.5q0 62 15 107.5t42 76.5t63.5 50.5t79 30.5t90 15t95.5 5l141 4v147
q0 42 -7 76.5t-23.5 59.5t-44.5 39t-70 14q-48 0 -97 -13t-86 -34l-34 -117h-56v205q65 14 134.5 24.5t150.5 10.5zM598 479l-131 -4q-59 -2 -102 -11.5t-71 -32.5t-42 -63t-14 -102q0 -176 143 -176q68 0 117.5 15.5t99.5 39.5v334zM762 -403q-63 0 -107 17.5t-71.5 47.5
t-40 69.5t-12.5 82.5q0 34 8.5 64t21.5 55.5t29 46.5t31 36h109q-7 -10 -16.5 -28.5t-17.5 -42.5t-14 -51.5t-6 -55.5q0 -74 35.5 -113.5t102.5 -39.5q33 0 63 6.5t53 15.5v-64q-28 -19 -71 -32.5t-97 -13.5z" />
    <glyph glyph-name="Cacute" unicode="&#x106;" horiz-adv-x="1366" 
d="M774 -20q-164 0 -292.5 46t-217 133t-134.5 212.5t-46 283.5q0 180 46.5 312t135 218.5t217.5 128.5t295 42q69 0 130 -4.5t116.5 -11.5t105.5 -16t97 -19l6 -293h-66l-30 174q-70 43 -162.5 66.5t-188.5 23.5q-117 0 -208.5 -32t-154.5 -104.5t-96.5 -191t-33.5 -291.5
q0 -152 33 -264.5t95 -187t151.5 -111.5t203.5 -37q62 0 118.5 8t105 22t87 32.5t64.5 38.5l37 200h65l-6 -315q-42 -12 -96 -23.5t-115 -20.5t-128 -14t-134 -5zM613 1453v33l196 272h213v-37l-354 -268h-55z" />
    <glyph glyph-name="cacute" unicode="&#x107;" horiz-adv-x="909" 
d="M846 57q-26 -19 -62 -33.5t-77 -24t-85.5 -14.5t-86.5 -5q-122 0 -208.5 33.5t-141.5 97.5t-81 156.5t-26 209.5q0 128 33.5 220.5t93.5 152t142.5 87.5t180.5 28q81 0 157 -9.5t138 -21.5v-262h-55l-43 166q-37 21 -89.5 34t-109.5 13q-65 0 -114.5 -23.5t-84 -73.5
t-52 -127t-17.5 -184q0 -90 15 -162.5t53 -123.5t102.5 -79t163.5 -28q34 0 69.5 2.5t69 7t63 10.5t52.5 13v-60zM366 1119v33l196 272h213v-37l-354 -268h-55z" />
    <glyph glyph-name="Ccircumflex" unicode="&#x108;" horiz-adv-x="1366" 
d="M774 -20q-164 0 -292.5 46t-217 133t-134.5 212.5t-46 283.5q0 180 46.5 312t135 218.5t217.5 128.5t295 42q69 0 130 -4.5t116.5 -11.5t105.5 -16t97 -19l6 -293h-66l-30 174q-70 43 -162.5 66.5t-188.5 23.5q-117 0 -208.5 -32t-154.5 -104.5t-96.5 -191t-33.5 -291.5
q0 -152 33 -264.5t95 -187t151.5 -111.5t203.5 -37q62 0 118.5 8t105 22t87 32.5t64.5 38.5l37 200h65l-6 -315q-42 -12 -96 -23.5t-115 -20.5t-128 -14t-134 -5zM452 1453v33l218 273h213l217 -273v-33h-56l-268 183l-268 -183h-56z" />
    <glyph glyph-name="ccircumflex" unicode="&#x109;" horiz-adv-x="909" 
d="M846 57q-26 -19 -62 -33.5t-77 -24t-85.5 -14.5t-86.5 -5q-122 0 -208.5 33.5t-141.5 97.5t-81 156.5t-26 209.5q0 128 33.5 220.5t93.5 152t142.5 87.5t180.5 28q81 0 157 -9.5t138 -21.5v-262h-55l-43 166q-37 21 -89.5 34t-109.5 13q-65 0 -114.5 -23.5t-84 -73.5
t-52 -127t-17.5 -184q0 -90 15 -162.5t53 -123.5t102.5 -79t163.5 -28q34 0 69.5 2.5t69 7t63 10.5t52.5 13v-60zM188 1119v33l218 273h213l217 -273v-33h-56l-268 183l-268 -183h-56z" />
    <glyph glyph-name="Cdotaccent" unicode="&#x10a;" horiz-adv-x="1366" 
d="M774 -20q-164 0 -292.5 46t-217 133t-134.5 212.5t-46 283.5q0 180 46.5 312t135 218.5t217.5 128.5t295 42q69 0 130 -4.5t116.5 -11.5t105.5 -16t97 -19l6 -293h-66l-30 174q-70 43 -162.5 66.5t-188.5 23.5q-117 0 -208.5 -32t-154.5 -104.5t-96.5 -191t-33.5 -291.5
q0 -152 33 -264.5t95 -187t151.5 -111.5t203.5 -37q62 0 118.5 8t105 22t87 32.5t64.5 38.5l37 200h65l-6 -315q-42 -12 -96 -23.5t-115 -20.5t-128 -14t-134 -5zM877 1581q0 -22 -8.5 -41.5t-23.5 -34.5t-35 -23.5t-42 -8.5t-41.5 8.5t-34.5 23.5t-23.5 34.5t-8.5 41.5
t8.5 42t23.5 35t34.5 23.5t41.5 8.5t42 -8.5t35 -23.5t23.5 -35t8.5 -42z" />
    <glyph glyph-name="cdotaccent" unicode="&#x10b;" horiz-adv-x="909" 
d="M846 57q-26 -19 -62 -33.5t-77 -24t-85.5 -14.5t-86.5 -5q-122 0 -208.5 33.5t-141.5 97.5t-81 156.5t-26 209.5q0 128 33.5 220.5t93.5 152t142.5 87.5t180.5 28q81 0 157 -9.5t138 -21.5v-262h-55l-43 166q-37 21 -89.5 34t-109.5 13q-65 0 -114.5 -23.5t-84 -73.5
t-52 -127t-17.5 -184q0 -90 15 -162.5t53 -123.5t102.5 -79t163.5 -28q34 0 69.5 2.5t69 7t63 10.5t52.5 13v-60zM639 1247q0 -22 -8.5 -41.5t-23.5 -34.5t-35 -23.5t-42 -8.5t-41.5 8.5t-34.5 23.5t-23.5 34.5t-8.5 41.5t8.5 42t23.5 35t34.5 23.5t41.5 8.5t42 -8.5
t35 -23.5t23.5 -35t8.5 -42z" />
    <glyph glyph-name="Ccaron" unicode="&#x10c;" horiz-adv-x="1366" 
d="M774 -20q-164 0 -292.5 46t-217 133t-134.5 212.5t-46 283.5q0 180 46.5 312t135 218.5t217.5 128.5t295 42q69 0 130 -4.5t116.5 -11.5t105.5 -16t97 -19l6 -293h-66l-30 174q-70 43 -162.5 66.5t-188.5 23.5q-117 0 -208.5 -32t-154.5 -104.5t-96.5 -191t-33.5 -291.5
q0 -152 33 -264.5t95 -187t151.5 -111.5t203.5 -37q62 0 118.5 8t105 22t87 32.5t64.5 38.5l37 200h65l-6 -315q-42 -12 -96 -23.5t-115 -20.5t-128 -14t-134 -5zM505 1759l268 -183l268 183h56v-33l-217 -273h-213l-218 273v33h56z" />
    <glyph glyph-name="ccaron" unicode="&#x10d;" horiz-adv-x="909" 
d="M846 57q-26 -19 -62 -33.5t-77 -24t-85.5 -14.5t-86.5 -5q-122 0 -208.5 33.5t-141.5 97.5t-81 156.5t-26 209.5q0 128 33.5 220.5t93.5 152t142.5 87.5t180.5 28q81 0 157 -9.5t138 -21.5v-262h-55l-43 166q-37 21 -89.5 34t-109.5 13q-65 0 -114.5 -23.5t-84 -73.5
t-52 -127t-17.5 -184q0 -90 15 -162.5t53 -123.5t102.5 -79t163.5 -28q34 0 69.5 2.5t69 7t63 10.5t52.5 13v-60zM250 1425l268 -183l268 183h56v-33l-217 -273h-213l-218 273v33h56z" />
    <glyph glyph-name="Dcaron" unicode="&#x10e;" horiz-adv-x="1479" 
d="M1188 680q0 148 -41 255.5t-117.5 177.5t-184.5 104t-241 34h-180v-1157q30 -2 65 -3t72 -2.5t74.5 -2t73.5 -0.5q127 0 217.5 37.5t148.5 112t85.5 185.5t27.5 259zM668 1341q167 0 301.5 -35t229.5 -114t146.5 -205t51.5 -309q0 -164 -42 -291t-127 -214t-214.5 -132
t-304.5 -45q-57 0 -124.5 0.5t-132.5 1.5t-123.5 1.5t-97.5 0.5h-172v53l172 27v1182l-172 26v53h609zM461 1759l268 -183l268 183h56v-33l-217 -273h-213l-218 273v33h56z" />
    <glyph glyph-name="dcaron" unicode="&#x10f;" horiz-adv-x="1324" 
d="M723 70q-44 -35 -109.5 -62.5t-154.5 -27.5q-385 0 -385 481q0 117 25.5 210.5t78.5 159t134 100t192 34.5q51 0 108.5 -6t110.5 -17q-2 11 -3 32.5t-1.5 46t-1 48.5t-0.5 39v244l-158 24v45h324v-1351l116 -25v-45h-264zM254 461q0 -105 18.5 -177t52.5 -116.5t82 -64
t107 -19.5q60 0 113 11.5t90 27.5v743q-42 8 -97 12.5t-106 4.5q-133 0 -196.5 -107t-63.5 -315zM1288 1279q0 -53 -16.5 -96.5t-52.5 -79t-94.5 -62t-142.5 -45.5v63q64 14 101 32.5t56 38t23.5 39t4.5 34.5q0 17 -14.5 29.5t-32 26.5t-32 33.5t-14.5 50.5q0 38 27.5 58.5
t70.5 20.5q23 0 44 -9.5t37 -27.5t25.5 -44.5t9.5 -61.5z" />
    <glyph glyph-name="Dcroat" unicode="&#x110;" horiz-adv-x="1479" 
d="M631 1341q162 0 302 -34.5t243 -112.5t162 -204.5t59 -311.5q0 -164 -38 -291t-119 -214t-206.5 -132t-300.5 -45q-57 0 -128 0.5t-141 1.5t-132 1.5t-101 0.5h-172v53l172 27v549h-178v82h178v551l-172 26v53h572zM801 711v-82h-377v-535q30 -2 65 -3t72 -2.5t74.5 -2
t73.5 -0.5q127 0 217.5 36t148.5 108.5t85.5 182t27.5 257.5q0 157 -42 267.5t-120 180.5t-189.5 101.5t-250.5 31.5h-162v-540h377z" />
    <glyph glyph-name="dcroat" unicode="&#x111;" 
d="M723 70q-44 -35 -109.5 -62.5t-154.5 -27.5q-385 0 -385 481q0 117 25.5 210.5t78.5 159t134 100t192 34.5q51 0 108.5 -6t110.5 -17q-2 11 -3 29.5t-1.5 39t-1 41.5t-0.5 36v24h-275v84h275v156l-158 24v45h324v-225h137v-84h-137v-1042l116 -25v-45h-264zM254 461
q0 -105 18.5 -177t52.5 -116.5t82 -64t107 -19.5q60 0 113 11.5t90 27.5v743q-42 8 -97 12.5t-106 4.5q-133 0 -196.5 -107t-63.5 -315z" />
    <glyph glyph-name="Emacron" unicode="&#x112;" horiz-adv-x="1251" 
d="M59 53l172 27v1182l-172 26v53h1006v-321h-66l-32 217q-32 4 -77.5 7t-92.5 4.5t-89 2t-65 0.5h-219v-524h362l31 160h64v-412h-64l-31 162h-362v-547h264q62 0 117 1.5t99 3.5t75.5 5t46.5 6l57 248h66l-19 -354h-1071v53zM311 1475v109h628v-109h-628z" />
    <glyph glyph-name="emacron" unicode="&#x113;" horiz-adv-x="909" 
d="M260 473v-18q0 -73 10.5 -140t42 -118.5t88.5 -82t150 -30.5q30 0 63 2.5t66 6.5t64 9t57 11v-56q-23 -15 -55.5 -28.5t-71.5 -24.5t-83 -17.5t-89 -6.5q-117 0 -197.5 32t-130.5 95t-72 156t-22 214q0 246 103 367t294 121q75 0 140.5 -20t114.5 -67t77.5 -126
t28.5 -197v-82h-578zM477 885q-56 0 -96.5 -23.5t-67 -66.5t-39 -104.5t-12.5 -137.5h402q0 76 -8.5 137.5t-30 104.5t-57.5 66.5t-91 23.5zM163 1141v109h628v-109h-628z" />
    <glyph glyph-name="Ebreve" unicode="&#x114;" horiz-adv-x="1251" 
d="M59 53l172 27v1182l-172 26v53h1006v-321h-66l-32 217q-32 4 -77.5 7t-92.5 4.5t-89 2t-65 0.5h-219v-524h362l31 160h64v-412h-64l-31 162h-362v-547h264q62 0 117 1.5t99 3.5t75.5 5t46.5 6l57 248h66l-19 -354h-1071v53zM625 1453q-73 0 -126.5 22t-88.5 60.5
t-53 89.5t-19 108h74q9 -37 29 -63t48.5 -43t63 -25t72.5 -8q37 0 72 8t63.5 25t48.5 43t29 63h74q-2 -57 -19.5 -108t-52.5 -89.5t-88.5 -60.5t-126.5 -22z" />
    <glyph glyph-name="ebreve" unicode="&#x115;" horiz-adv-x="909" 
d="M260 473v-18q0 -73 10.5 -140t42 -118.5t88.5 -82t150 -30.5q30 0 63 2.5t66 6.5t64 9t57 11v-56q-23 -15 -55.5 -28.5t-71.5 -24.5t-83 -17.5t-89 -6.5q-117 0 -197.5 32t-130.5 95t-72 156t-22 214q0 246 103 367t294 121q75 0 140.5 -20t114.5 -67t77.5 -126
t28.5 -197v-82h-578zM477 885q-56 0 -96.5 -23.5t-67 -66.5t-39 -104.5t-12.5 -137.5h402q0 76 -8.5 137.5t-30 104.5t-57.5 66.5t-91 23.5zM468 1119q-73 0 -126.5 22t-88.5 60.5t-53 89.5t-19 108h74q9 -37 29 -63t48.5 -43t63 -25t72.5 -8q37 0 72 8t63.5 25t48.5 43
t29 63h74q-2 -57 -19.5 -108t-52.5 -89.5t-88.5 -60.5t-126.5 -22z" />
    <glyph glyph-name="Edotaccent" unicode="&#x116;" horiz-adv-x="1251" 
d="M59 53l172 27v1182l-172 26v53h1006v-321h-66l-32 217q-32 4 -77.5 7t-92.5 4.5t-89 2t-65 0.5h-219v-524h362l31 160h64v-412h-64l-31 162h-362v-547h264q62 0 117 1.5t99 3.5t75.5 5t46.5 6l57 248h66l-19 -354h-1071v53zM744 1581q0 -22 -8.5 -41.5t-23.5 -34.5
t-35 -23.5t-42 -8.5t-41.5 8.5t-34.5 23.5t-23.5 34.5t-8.5 41.5t8.5 42t23.5 35t34.5 23.5t41.5 8.5t42 -8.5t35 -23.5t23.5 -35t8.5 -42z" />
    <glyph glyph-name="edotaccent" unicode="&#x117;" horiz-adv-x="909" 
d="M260 473v-18q0 -73 10.5 -140t42 -118.5t88.5 -82t150 -30.5q30 0 63 2.5t66 6.5t64 9t57 11v-56q-23 -15 -55.5 -28.5t-71.5 -24.5t-83 -17.5t-89 -6.5q-117 0 -197.5 32t-130.5 95t-72 156t-22 214q0 246 103 367t294 121q75 0 140.5 -20t114.5 -67t77.5 -126
t28.5 -197v-82h-578zM477 885q-56 0 -96.5 -23.5t-67 -66.5t-39 -104.5t-12.5 -137.5h402q0 76 -8.5 137.5t-30 104.5t-57.5 66.5t-91 23.5zM582 1247q0 -22 -8.5 -41.5t-23.5 -34.5t-35 -23.5t-42 -8.5t-41.5 8.5t-34.5 23.5t-23.5 34.5t-8.5 41.5t8.5 42t23.5 35
t34.5 23.5t41.5 8.5t42 -8.5t35 -23.5t23.5 -35t8.5 -42z" />
    <glyph glyph-name="Eogonek" unicode="&#x118;" horiz-adv-x="1251" 
d="M59 53l172 27v1182l-172 26v53h1006v-321h-66l-32 217q-32 4 -77.5 7t-92.5 4.5t-89 2t-65 0.5h-219v-524h362l31 160h64v-412h-64l-31 162h-362v-547h264q62 0 117 1.5t99 3.5t75.5 5t46.5 6l57 248h66l-19 -354h-1071v53zM957 -403q-63 0 -107 17.5t-71.5 47.5
t-40 69.5t-12.5 82.5q0 34 8.5 64t21.5 55.5t29 46.5t31 36h109q-7 -10 -16.5 -28.5t-17.5 -42.5t-14 -51.5t-6 -55.5q0 -74 35.5 -113.5t102.5 -39.5q33 0 63 6.5t53 15.5v-64q-28 -19 -71 -32.5t-97 -13.5z" />
    <glyph glyph-name="eogonek" unicode="&#x119;" horiz-adv-x="909" 
d="M260 473v-18q0 -73 10.5 -140t42 -118.5t88.5 -82t150 -30.5q30 0 63 2.5t66 6.5t64 9t57 11v-56q-23 -15 -55.5 -28.5t-71.5 -24.5t-83 -17.5t-89 -6.5q-117 0 -197.5 32t-130.5 95t-72 156t-22 214q0 246 103 367t294 121q75 0 140.5 -20t114.5 -67t77.5 -126
t28.5 -197v-82h-578zM477 885q-56 0 -96.5 -23.5t-67 -66.5t-39 -104.5t-12.5 -137.5h402q0 76 -8.5 137.5t-30 104.5t-57.5 66.5t-91 23.5zM650 -403q-63 0 -107 17.5t-71.5 47.5t-40 69.5t-12.5 82.5q0 34 8.5 64t21.5 55.5t29 46.5t31 36h109q-7 -10 -16.5 -28.5
t-17.5 -42.5t-14 -51.5t-6 -55.5q0 -74 35.5 -113.5t102.5 -39.5q33 0 63 6.5t53 15.5v-64q-28 -19 -71 -32.5t-97 -13.5z" />
    <glyph glyph-name="Ecaron" unicode="&#x11a;" horiz-adv-x="1251" 
d="M59 53l172 27v1182l-172 26v53h1006v-321h-66l-32 217q-32 4 -77.5 7t-92.5 4.5t-89 2t-65 0.5h-219v-524h362l31 160h64v-412h-64l-31 162h-362v-547h264q62 0 117 1.5t99 3.5t75.5 5t46.5 6l57 248h66l-19 -354h-1071v53zM367 1759l268 -183l268 183h56v-33l-217 -273
h-213l-218 273v33h56z" />
    <glyph glyph-name="ecaron" unicode="&#x11b;" horiz-adv-x="909" 
d="M260 473v-18q0 -73 10.5 -140t42 -118.5t88.5 -82t150 -30.5q30 0 63 2.5t66 6.5t64 9t57 11v-56q-23 -15 -55.5 -28.5t-71.5 -24.5t-83 -17.5t-89 -6.5q-117 0 -197.5 32t-130.5 95t-72 156t-22 214q0 246 103 367t294 121q75 0 140.5 -20t114.5 -67t77.5 -126
t28.5 -197v-82h-578zM477 885q-56 0 -96.5 -23.5t-67 -66.5t-39 -104.5t-12.5 -137.5h402q0 76 -8.5 137.5t-30 104.5t-57.5 66.5t-91 23.5zM211 1425l268 -183l268 183h56v-33l-217 -273h-213l-218 273v33h56z" />
    <glyph glyph-name="Gcircumflex" unicode="&#x11c;" horiz-adv-x="1479" 
d="M1284 70q-116 -38 -241 -64t-269 -26q-159 0 -286.5 43.5t-217.5 129t-138 211.5t-48 291q0 352 176.5 526.5t517.5 174.5q130 0 247.5 -16t223.5 -44v-288h-67l-27 166q-69 49 -165.5 75.5t-203.5 26.5q-117 0 -208.5 -32.5t-154.5 -105.5t-96.5 -191.5t-33.5 -289.5
q0 -173 39 -288.5t105.5 -184.5t154 -98t184.5 -29q49 0 97.5 6.5t91 16.5t75.5 22t52 23v381l-172 26v54h495v-54l-131 -26v-436zM451 1453v33l218 273h213l217 -273v-33h-56l-268 183l-268 -183h-56z" />
    <glyph glyph-name="gcircumflex" unicode="&#x11d;" 
d="M870 643q0 -162 -97 -245t-279 -83q-41 0 -82.5 4.5t-69.5 10.5l-63 -131q3 -17 39 -32t90 -15h278q152 0 225.5 -66t73.5 -182q0 -65 -26.5 -127.5t-86 -111t-155.5 -78t-236 -29.5q-107 0 -182 17.5t-122 48.5t-68 72t-21 89q0 33 12.5 62.5t35 57t53.5 53.5t67 52
q-18 6 -41.5 19.5t-44.5 34.5t-35 48.5t-14 61.5l158 178q-158 74 -158 291q0 79 26 139.5t74.5 101t119.5 61t161 20.5q28 0 57 -3t54.5 -6.5t44.5 -8t28 -7.5l221 111l35 -43l-139 -144q34 -38 50.5 -95.5t16.5 -125.5zM829 -127q0 57 -35 89t-106 32h-364
q-21 -18 -38.5 -41.5t-30 -49.5t-19.5 -52.5t-7 -51.5q0 -36 11.5 -65.5t40 -50.5t77.5 -33t123 -12q90 0 155.5 17.5t108.5 49t63.5 74.5t20.5 94zM496 391q109 0 154.5 62.5t45.5 189.5q0 63 -10.5 109.5t-34 76.5t-61.5 45t-92 15q-55 0 -93.5 -15t-63 -45t-35.5 -76.5
t-11 -109.5t11 -110.5t35 -79t62 -47t93 -15.5zM188 1119v33l218 273h213l217 -273v-33h-56l-268 183l-268 -183h-56z" />
    <glyph glyph-name="Gbreve" unicode="&#x11e;" horiz-adv-x="1479" 
d="M1284 70q-116 -38 -241 -64t-269 -26q-159 0 -286.5 43.5t-217.5 129t-138 211.5t-48 291q0 352 176.5 526.5t517.5 174.5q130 0 247.5 -16t223.5 -44v-288h-67l-27 166q-69 49 -165.5 75.5t-203.5 26.5q-117 0 -208.5 -32.5t-154.5 -105.5t-96.5 -191.5t-33.5 -289.5
q0 -173 39 -288.5t105.5 -184.5t154 -98t184.5 -29q49 0 97.5 6.5t91 16.5t75.5 22t52 23v381l-172 26v54h495v-54l-131 -26v-436zM769 1453q-73 0 -126.5 22t-88.5 60.5t-53 89.5t-19 108h74q9 -37 29 -63t48.5 -43t63 -25t72.5 -8q37 0 72 8t63.5 25t48.5 43t29 63h74
q-2 -57 -19.5 -108t-52.5 -89.5t-88.5 -60.5t-126.5 -22z" />
    <glyph glyph-name="gbreve" unicode="&#x11f;" 
d="M870 643q0 -162 -97 -245t-279 -83q-41 0 -82.5 4.5t-69.5 10.5l-63 -131q3 -17 39 -32t90 -15h278q152 0 225.5 -66t73.5 -182q0 -65 -26.5 -127.5t-86 -111t-155.5 -78t-236 -29.5q-107 0 -182 17.5t-122 48.5t-68 72t-21 89q0 33 12.5 62.5t35 57t53.5 53.5t67 52
q-18 6 -41.5 19.5t-44.5 34.5t-35 48.5t-14 61.5l158 178q-158 74 -158 291q0 79 26 139.5t74.5 101t119.5 61t161 20.5q28 0 57 -3t54.5 -6.5t44.5 -8t28 -7.5l221 111l35 -43l-139 -144q34 -38 50.5 -95.5t16.5 -125.5zM829 -127q0 57 -35 89t-106 32h-364
q-21 -18 -38.5 -41.5t-30 -49.5t-19.5 -52.5t-7 -51.5q0 -36 11.5 -65.5t40 -50.5t77.5 -33t123 -12q90 0 155.5 17.5t108.5 49t63.5 74.5t20.5 94zM496 391q109 0 154.5 62.5t45.5 189.5q0 63 -10.5 109.5t-34 76.5t-61.5 45t-92 15q-55 0 -93.5 -15t-63 -45t-35.5 -76.5
t-11 -109.5t11 -110.5t35 -79t62 -47t93 -15.5zM484 1119q-73 0 -126.5 22t-88.5 60.5t-53 89.5t-19 108h74q9 -37 29 -63t48.5 -43t63 -25t72.5 -8q37 0 72 8t63.5 25t48.5 43t29 63h74q-2 -57 -19.5 -108t-52.5 -89.5t-88.5 -60.5t-126.5 -22z" />
    <glyph glyph-name="Gdotaccent" unicode="&#x120;" horiz-adv-x="1479" 
d="M1284 70q-116 -38 -241 -64t-269 -26q-159 0 -286.5 43.5t-217.5 129t-138 211.5t-48 291q0 352 176.5 526.5t517.5 174.5q130 0 247.5 -16t223.5 -44v-288h-67l-27 166q-69 49 -165.5 75.5t-203.5 26.5q-117 0 -208.5 -32.5t-154.5 -105.5t-96.5 -191.5t-33.5 -289.5
q0 -173 39 -288.5t105.5 -184.5t154 -98t184.5 -29q49 0 97.5 6.5t91 16.5t75.5 22t52 23v381l-172 26v54h495v-54l-131 -26v-436zM884 1581q0 -22 -8.5 -41.5t-23.5 -34.5t-35 -23.5t-42 -8.5t-41.5 8.5t-34.5 23.5t-23.5 34.5t-8.5 41.5t8.5 42t23.5 35t34.5 23.5
t41.5 8.5t42 -8.5t35 -23.5t23.5 -35t8.5 -42z" />
    <glyph glyph-name="gdotaccent" unicode="&#x121;" 
d="M870 643q0 -162 -97 -245t-279 -83q-41 0 -82.5 4.5t-69.5 10.5l-63 -131q3 -17 39 -32t90 -15h278q152 0 225.5 -66t73.5 -182q0 -65 -26.5 -127.5t-86 -111t-155.5 -78t-236 -29.5q-107 0 -182 17.5t-122 48.5t-68 72t-21 89q0 33 12.5 62.5t35 57t53.5 53.5t67 52
q-18 6 -41.5 19.5t-44.5 34.5t-35 48.5t-14 61.5l158 178q-158 74 -158 291q0 79 26 139.5t74.5 101t119.5 61t161 20.5q28 0 57 -3t54.5 -6.5t44.5 -8t28 -7.5l221 111l35 -43l-139 -144q34 -38 50.5 -95.5t16.5 -125.5zM829 -127q0 57 -35 89t-106 32h-364
q-21 -18 -38.5 -41.5t-30 -49.5t-19.5 -52.5t-7 -51.5q0 -36 11.5 -65.5t40 -50.5t77.5 -33t123 -12q90 0 155.5 17.5t108.5 49t63.5 74.5t20.5 94zM496 391q109 0 154.5 62.5t45.5 189.5q0 63 -10.5 109.5t-34 76.5t-61.5 45t-92 15q-55 0 -93.5 -15t-63 -45t-35.5 -76.5
t-11 -109.5t11 -110.5t35 -79t62 -47t93 -15.5zM603 1247q0 -22 -8.5 -41.5t-23.5 -34.5t-35 -23.5t-42 -8.5t-41.5 8.5t-34.5 23.5t-23.5 34.5t-8.5 41.5t8.5 42t23.5 35t34.5 23.5t41.5 8.5t42 -8.5t35 -23.5t23.5 -35t8.5 -42z" />
    <glyph glyph-name="Gcommaaccent" unicode="&#x122;" horiz-adv-x="1479" 
d="M1284 70q-116 -38 -241 -64t-269 -26q-159 0 -286.5 43.5t-217.5 129t-138 211.5t-48 291q0 352 176.5 526.5t517.5 174.5q130 0 247.5 -16t223.5 -44v-288h-67l-27 166q-69 49 -165.5 75.5t-203.5 26.5q-117 0 -208.5 -32.5t-154.5 -105.5t-96.5 -191.5t-33.5 -289.5
q0 -173 39 -288.5t105.5 -184.5t154 -98t184.5 -29q49 0 97.5 6.5t91 16.5t75.5 22t52 23v381l-172 26v54h495v-54l-131 -26v-436zM871 -204q0 -48 -14 -84t-41.5 -63t-69.5 -47.5t-99 -37.5v63q56 17 88 40t32 49q0 23 -17 34t-38 21.5t-38 27t-17 50.5q0 38 27.5 60
t70.5 22q23 0 44 -9t37 -26.5t25.5 -42.5t9.5 -57z" />
    <glyph glyph-name="gcommaaccent" unicode="&#x123;" 
d="M870 643q0 -162 -97 -245t-279 -83q-41 0 -82.5 4.5t-69.5 10.5l-63 -131q3 -17 39 -32t90 -15h278q152 0 225.5 -66t73.5 -182q0 -65 -26.5 -127.5t-86 -111t-155.5 -78t-236 -29.5q-107 0 -182 17.5t-122 48.5t-68 72t-21 89q0 33 12.5 62.5t35 57t53.5 53.5t67 52
q-18 6 -41.5 19.5t-44.5 34.5t-35 48.5t-14 61.5l158 178q-158 74 -158 291q0 79 26 139.5t74.5 101t119.5 61t161 20.5q28 0 57 -3t54.5 -6.5t44.5 -8t28 -7.5l221 111l35 -43l-139 -144q34 -38 50.5 -95.5t16.5 -125.5zM829 -127q0 57 -35 89t-106 32h-364
q-21 -18 -38.5 -41.5t-30 -49.5t-19.5 -52.5t-7 -51.5q0 -36 11.5 -65.5t40 -50.5t77.5 -33t123 -12q90 0 155.5 17.5t108.5 49t63.5 74.5t20.5 94zM496 391q109 0 154.5 62.5t45.5 189.5q0 63 -10.5 109.5t-34 76.5t-61.5 45t-92 15q-55 0 -93.5 -15t-63 -45t-35.5 -76.5
t-11 -109.5t11 -110.5t35 -79t62 -47t93 -15.5zM387 1255q0 48 14 84t41.5 63t69.5 47.5t99 37.5v-63q-56 -17 -88 -40t-32 -49q0 -23 17 -34t38 -21.5t38 -27t17 -50.5q0 -38 -27.5 -60t-70.5 -22q-23 0 -44 9t-37 26.5t-25.5 42.5t-9.5 57z" />
    <glyph glyph-name="Hcircumflex" unicode="&#x124;" horiz-adv-x="1479" 
d="M59 0v53l172 27v1182l-172 26v53h537v-53l-172 -26v-527h631v527l-172 26v53h536v-53l-172 -26v-1182l172 -27v-53h-536v53l172 27v565h-631v-565l172 -27v-53h-537zM415 1453v33l218 273h213l217 -273v-33h-56l-268 183l-268 -183h-56z" />
    <glyph glyph-name="hcircumflex" unicode="&#x125;" 
d="M326 1014q0 -14 -0.5 -34t-1 -41.5t-2 -41.5t-3.5 -33q28 16 68 34t83.5 33t87 24.5t79.5 9.5q54 0 99 -15t77.5 -48t51 -86t18.5 -128v-618l114 -25v-45h-405v45l125 25v606q0 83 -40.5 127.5t-125.5 44.5q-28 0 -59.5 -3t-62.5 -7t-58 -9.5t-45 -9.5v-749l127 -25v-45
h-412v45l119 25v1282l-140 24v45h306v-407zM185 1493v33l218 273h213l217 -273v-33h-56l-268 183l-268 -183h-56z" />
    <glyph glyph-name="Hbar" unicode="&#x126;" horiz-adv-x="1479" 
d="M59 0v53l172 27v877h-171v82h171v223l-172 26v53h537v-53l-172 -26v-223h631v223l-172 26v53h536v-53l-172 -26v-223h173v-82h-173v-877l172 -27v-53h-536v53l172 27v565h-631v-565l172 -27v-53h-537zM1055 735v222h-631v-222h631z" />
    <glyph glyph-name="hbar" unicode="&#x127;" 
d="M326 1196h275v-84h-275v-98q0 -14 -0.5 -34t-1 -41.5t-2 -41.5t-3.5 -33q28 16 68 34t83.5 33t87 24.5t79.5 9.5q54 0 99 -15t77.5 -48t51 -86t18.5 -128v-618l114 -25v-45h-405v45l125 25v606q0 83 -40.5 127.5t-125.5 44.5q-28 0 -59.5 -3t-62.5 -7t-58 -9.5t-45 -9.5
v-749l127 -25v-45h-412v45l119 25v1042h-137v84h137v156l-140 24v45h306v-225z" />
    <glyph glyph-name="Itilde" unicode="&#x128;" horiz-adv-x="682" 
d="M438 80l172 -27v-53h-536v53l172 27v1182l-172 26v53h536v-53l-172 -26v-1182zM471 1452q-48 0 -88.5 21.5t-76.5 48t-69.5 48t-66.5 21.5q-31 0 -49 -10.5t-28.5 -28t-15 -38.5t-7.5 -42h-52q3 47 13.5 90.5t33 77.5t58.5 54t90 20q48 0 88.5 -21.5t77 -48t70 -48
t65.5 -21.5q30 0 48 10.5t28.5 27.5t15.5 38t8 42h52q-3 -47 -13.5 -90t-33 -77t-58.5 -54t-90 -20z" />
    <glyph glyph-name="itilde" unicode="&#x129;" horiz-adv-x="569" 
d="M369 70l161 -25v-45h-487v45l160 25v800l-133 25v45h299v-870zM415 1118q-48 0 -88.5 21.5t-76.5 48t-69.5 48t-66.5 21.5q-31 0 -49 -10.5t-28.5 -28t-15 -38.5t-7.5 -42h-52q3 47 13.5 90.5t33 77.5t58.5 54t90 20q48 0 88.5 -21.5t77 -48t70 -48t65.5 -21.5
q30 0 48 10.5t28.5 27.5t15.5 38t8 42h52q-3 -47 -13.5 -90t-33 -77t-58.5 -54t-90 -20z" />
    <glyph glyph-name="Imacron" unicode="&#x12a;" horiz-adv-x="682" 
d="M438 80l172 -27v-53h-536v53l172 27v1182l-172 26v53h536v-53l-172 -26v-1182zM27 1475v109h628v-109h-628z" />
    <glyph glyph-name="imacron" unicode="&#x12b;" horiz-adv-x="569" 
d="M369 70l161 -25v-45h-487v45l160 25v800l-133 25v45h299v-870zM-28 1141v109h628v-109h-628z" />
    <glyph glyph-name="Ibreve" unicode="&#x12c;" horiz-adv-x="682" 
d="M438 80l172 -27v-53h-536v53l172 27v1182l-172 26v53h536v-53l-172 -26v-1182zM341 1453q-73 0 -126.5 22t-88.5 60.5t-53 89.5t-19 108h74q9 -37 29 -63t48.5 -43t63 -25t72.5 -8q37 0 72 8t63.5 25t48.5 43t29 63h74q-2 -57 -19.5 -108t-52.5 -89.5t-88.5 -60.5
t-126.5 -22z" />
    <glyph glyph-name="ibreve" unicode="&#x12d;" horiz-adv-x="569" 
d="M369 70l161 -25v-45h-487v45l160 25v800l-133 25v45h299v-870zM286 1119q-73 0 -126.5 22t-88.5 60.5t-53 89.5t-19 108h74q9 -37 29 -63t48.5 -43t63 -25t72.5 -8q37 0 72 8t63.5 25t48.5 43t29 63h74q-2 -57 -19.5 -108t-52.5 -89.5t-88.5 -60.5t-126.5 -22z" />
    <glyph glyph-name="Iogonek" unicode="&#x12e;" horiz-adv-x="682" 
d="M438 80l172 -27v-53h-536v53l172 27v1182l-172 26v53h536v-53l-172 -26v-1182zM432 -403q-63 0 -107 17.5t-71.5 47.5t-40 69.5t-12.5 82.5q0 34 8.5 64t21.5 55.5t29 46.5t31 36h109q-7 -10 -16.5 -28.5t-17.5 -42.5t-14 -51.5t-6 -55.5q0 -74 35.5 -113.5t102.5 -39.5
q33 0 63 6.5t53 15.5v-64q-28 -19 -71 -32.5t-97 -13.5z" />
    <glyph glyph-name="iogonek" unicode="&#x12f;" horiz-adv-x="569" 
d="M379 1247q0 -22 -8.5 -41.5t-23.5 -34.5t-35 -23.5t-42 -8.5t-41.5 8.5t-34.5 23.5t-23.5 34.5t-8.5 41.5t8.5 42t23.5 35t34.5 23.5t41.5 8.5t42 -8.5t35 -23.5t23.5 -35t8.5 -42zM369 70l161 -25v-45h-487v45l160 25v800l-133 25v45h299v-870zM364 -403
q-63 0 -107 17.5t-71.5 47.5t-40 69.5t-12.5 82.5q0 34 8.5 64t21.5 55.5t29 46.5t31 36h109q-7 -10 -16.5 -28.5t-17.5 -42.5t-14 -51.5t-6 -55.5q0 -74 35.5 -113.5t102.5 -39.5q33 0 63 6.5t53 15.5v-64q-28 -19 -71 -32.5t-97 -13.5z" />
    <glyph glyph-name="Idotaccent" unicode="&#x130;" horiz-adv-x="682" 
d="M438 80l172 -27v-53h-536v53l172 27v1182l-172 26v53h536v-53l-172 -26v-1182zM451 1581q0 -22 -8.5 -41.5t-23.5 -34.5t-35 -23.5t-42 -8.5t-41.5 8.5t-34.5 23.5t-23.5 34.5t-8.5 41.5t8.5 42t23.5 35t34.5 23.5t41.5 8.5t42 -8.5t35 -23.5t23.5 -35t8.5 -42z" />
    <glyph glyph-name="dotlessi" unicode="&#x131;" horiz-adv-x="569" 
d="M369 70l161 -25v-45h-487v45l160 25v800l-133 25v45h299v-870z" />
    <glyph glyph-name="IJ" unicode="&#x132;" horiz-adv-x="1451" 
d="M438 80l172 -27v-53h-536v53l172 27v1182l-172 26v53h536v-53l-172 -26v-1182zM1064 1262l-172 26v53h516v-53l-152 -26v-830q0 -91 -17 -160t-45 -119t-64.5 -83.5t-75.5 -53.5t-78 -28t-72 -8q-65 0 -117.5 8t-89.5 22v244h66l30 -139q19 -23 54 -36t77 -13
q140 0 140 190v1006z" />
    <glyph glyph-name="ij" unicode="&#x133;" horiz-adv-x="1131" 
d="M379 1247q0 -22 -8.5 -41.5t-23.5 -34.5t-35 -23.5t-42 -8.5t-41.5 8.5t-34.5 23.5t-23.5 34.5t-8.5 41.5t8.5 42t23.5 35t34.5 23.5t41.5 8.5t42 -8.5t35 -23.5t23.5 -35t8.5 -42zM369 70l161 -25v-45h-487v45l160 25v800l-133 25v45h299v-870zM955 1247
q0 -22 -8.5 -41.5t-23.5 -34.5t-34.5 -23.5t-41.5 -8.5q-23 0 -42.5 8.5t-34.5 23.5t-23.5 34.5t-8.5 41.5t8.5 42t23.5 35t34.5 23.5t42.5 8.5q22 0 41.5 -8.5t34.5 -23.5t23.5 -35t8.5 -42zM945 -39q0 -106 -21.5 -181.5t-61 -123.5t-94 -70t-120.5 -22q-44 0 -76 5
t-69 13v199h47l27 -109q33 -28 83 -28q59 0 89 63t30 203v960l-141 25v45h307v-979z" />
    <glyph glyph-name="Jcircumflex" unicode="&#x134;" horiz-adv-x="797" 
d="M410 1262l-172 26v53h516v-53l-152 -26v-830q0 -91 -17 -160t-45 -119t-64.5 -83.5t-75.5 -53.5t-78 -28t-72 -8q-65 0 -117.5 8t-89.5 22v244h66l30 -139q19 -23 54 -36t77 -13q140 0 140 190v1006zM180 1453v33l218 273h213l217 -273v-33h-56l-268 183l-268 -183h-56z
" />
    <glyph glyph-name="jcircumflex" unicode="&#x135;" horiz-adv-x="569" 
d="M383 -39q0 -106 -21.5 -181.5t-61 -123.5t-94 -70t-120.5 -22q-44 0 -76 5t-69 13v199h47l27 -109q33 -28 83 -28q59 0 89 63t30 203v960l-141 25v45h307v-979zM-39 1119v33l218 273h213l217 -273v-33h-56l-268 183l-268 -183h-56z" />
    <glyph glyph-name="Kcommaaccent" unicode="&#x136;" horiz-adv-x="1479" 
d="M1353 1341v-53l-155 -26l-458 -448l573 -734l145 -27v-53h-328l-525 678l-181 -145v-453l192 -27v-53h-557v53l172 27v1182l-172 26v53h537v-53l-172 -26v-632l642 632l-133 26v53h420zM879 -204q0 -48 -14 -84t-41.5 -63t-69.5 -47.5t-99 -37.5v63q56 17 88 40t32 49
q0 23 -17 34t-38 21.5t-38 27t-17 50.5q0 38 27.5 60t70.5 22q23 0 44 -9t37 -26.5t25.5 -42.5t9.5 -57z" />
    <glyph glyph-name="kcommaaccent" unicode="&#x137;" 
d="M344 453l385 415l-98 27v45h332v-45l-117 -23l-268 -274l344 -530l102 -23v-45h-385v45l86 25l-258 405l-123 -135v-270l100 -25v-45h-385v45l119 25v1282l-139 24v45h305v-968zM625 -204q0 -48 -14 -84t-41.5 -63t-69.5 -47.5t-99 -37.5v63q56 17 88 40t32 49
q0 23 -17 34t-38 21.5t-38 27t-17 50.5q0 38 27.5 60t70.5 22q23 0 44 -9t37 -26.5t25.5 -42.5t9.5 -57z" />
    <glyph glyph-name="kgreenlandic" unicode="&#x138;" 
d="M344 453l385 415l-98 27v45h332v-45l-117 -23l-268 -274l344 -530l102 -23v-45h-385v45l86 25l-258 405l-123 -135v-270l100 -25v-45h-385v45l119 25v801l-139 24v45h305v-487z" />
    <glyph glyph-name="Lacute" unicode="&#x139;" horiz-adv-x="1251" 
d="M631 1288l-207 -26v-1176h264q125 0 204 7t109 13l62 279h65l-18 -385h-1051v53l172 27v1182l-172 26v53h572v-53zM293 1453v33l196 272h213v-37l-354 -268h-55z" />
    <glyph glyph-name="lacute" unicode="&#x13a;" horiz-adv-x="569" 
d="M367 70l161 -25v-45h-487v45l160 25v1282l-160 24v45h326v-1351zM151 1493v33l196 272h213v-37l-354 -268h-55z" />
    <glyph glyph-name="Lcommaaccent" unicode="&#x13b;" horiz-adv-x="1251" 
d="M631 1288l-207 -26v-1176h264q125 0 204 7t109 13l62 279h65l-18 -385h-1051v53l172 27v1182l-172 26v53h572v-53zM735 -204q0 -48 -14 -84t-41.5 -63t-69.5 -47.5t-99 -37.5v63q56 17 88 40t32 49q0 23 -17 34t-38 21.5t-38 27t-17 50.5q0 38 27.5 60t70.5 22
q23 0 44 -9t37 -26.5t25.5 -42.5t9.5 -57z" />
    <glyph glyph-name="lcommaaccent" unicode="&#x13c;" horiz-adv-x="569" 
d="M367 70l161 -25v-45h-487v45l160 25v1282l-160 24v45h326v-1351zM391 -204q0 -48 -14 -84t-41.5 -63t-69.5 -47.5t-99 -37.5v63q56 17 88 40t32 49q0 23 -17 34t-38 21.5t-38 27t-17 50.5q0 38 27.5 60t70.5 22q23 0 44 -9t37 -26.5t25.5 -42.5t9.5 -57z" />
    <glyph glyph-name="Lcaron" unicode="&#x13d;" horiz-adv-x="1251" 
d="M631 1288l-207 -26v-1176h264q125 0 204 7t109 13l62 279h65l-18 -385h-1051v53l172 27v1182l-172 26v53h572v-53zM1086 1198q0 -53 -16.5 -96.5t-52.5 -79t-94.5 -62t-142.5 -45.5v63q64 14 101 32.5t56 38t23.5 39t4.5 34.5q0 17 -14.5 29.5t-32 26.5t-32 33.5
t-14.5 50.5q0 38 27.5 58.5t70.5 20.5q23 0 44 -9.5t37 -27.5t25.5 -44.5t9.5 -61.5z" />
    <glyph glyph-name="lcaron" unicode="&#x13e;" horiz-adv-x="832" 
d="M397 70l161 -25v-45h-487v45l160 25v1282l-160 24v45h326v-1351zM796 1279q0 -53 -16.5 -96.5t-52.5 -79t-94.5 -62t-142.5 -45.5v63q64 14 101 32.5t56 38t23.5 39t4.5 34.5q0 17 -14.5 29.5t-32 26.5t-32 33.5t-14.5 50.5q0 38 27.5 58.5t70.5 20.5q23 0 44 -9.5
t37 -27.5t25.5 -44.5t9.5 -61.5z" />
    <glyph glyph-name="Ldot" unicode="&#x13f;" horiz-adv-x="1251" 
d="M631 1288l-207 -26v-1176h264q125 0 204 7t109 13l62 279h65l-18 -385h-1051v53l172 27v1182l-172 26v53h572v-53zM919 733q0 -22 -8.5 -41.5t-23.5 -34.5t-35 -23.5t-42 -8.5t-41.5 8.5t-34.5 23.5t-23.5 34.5t-8.5 41.5t8.5 42t23.5 35t34.5 23.5t41.5 8.5t42 -8.5
t35 -23.5t23.5 -35t8.5 -42z" />
    <glyph glyph-name="ldot" unicode="&#x140;" horiz-adv-x="704" 
d="M367 70l161 -25v-45h-487v45l160 25v1282l-160 24v45h326v-1351zM695 733q0 -22 -8.5 -41.5t-23.5 -34.5t-35 -23.5t-42 -8.5t-41.5 8.5t-34.5 23.5t-23.5 34.5t-8.5 41.5t8.5 42t23.5 35t34.5 23.5t41.5 8.5t42 -8.5t35 -23.5t23.5 -35t8.5 -42z" />
    <glyph glyph-name="Lslash" unicode="&#x141;" horiz-adv-x="1251" 
d="M43 518l188 109v635l-172 26v53h572v-53l-207 -26v-525l307 178v-94l-307 -178v-557h264q125 0 204 7t109 13l62 279h65l-18 -385h-1051v53l172 27v452l-188 -110v96z" />
    <glyph glyph-name="lslash" unicode="&#x142;" horiz-adv-x="569" 
d="M20 518l181 103v731l-160 24v45h326v-704l192 112v-94l-192 -112v-553l161 -25v-45h-487v45l160 25v456l-181 -104v96z" />
    <glyph glyph-name="Nacute" unicode="&#x143;" horiz-adv-x="1479" 
d="M1155 1262l-180 26v53h457v-53l-172 -26v-1262h-97l-827 1206v-1126l180 -27v-53h-457v53l172 27v1182l-172 26v53h406l690 -993v914zM659 1453v33l196 272h213v-37l-354 -268h-55z" />
    <glyph glyph-name="nacute" unicode="&#x144;" 
d="M324 864q28 16 66.5 34t80.5 33t84 24.5t78 9.5q54 0 99 -15t77.5 -48t51 -86t18.5 -128v-618l114 -25v-45h-405v45l125 25v600q0 83 -40.5 130.5t-125.5 47.5q-28 0 -59 -3t-61 -7t-56.5 -9.5t-44.5 -9.5v-749l127 -25v-45h-406v45l113 25v800l-113 25v45h268zM413 1119
v33l196 272h213v-37l-354 -268h-55z" />
    <glyph glyph-name="Ncommaaccent" unicode="&#x145;" horiz-adv-x="1479" 
d="M1155 1262l-180 26v53h457v-53l-172 -26v-1262h-97l-827 1206v-1126l180 -27v-53h-457v53l172 27v1182l-172 26v53h406l690 -993v914zM832 -204q0 -48 -14 -84t-41.5 -63t-69.5 -47.5t-99 -37.5v63q56 17 88 40t32 49q0 23 -17 34t-38 21.5t-38 27t-17 50.5q0 38 27.5 60
t70.5 22q23 0 44 -9t37 -26.5t25.5 -42.5t9.5 -57z" />
    <glyph glyph-name="ncommaaccent" unicode="&#x146;" 
d="M324 864q28 16 66.5 34t80.5 33t84 24.5t78 9.5q54 0 99 -15t77.5 -48t51 -86t18.5 -128v-618l114 -25v-45h-405v45l125 25v600q0 83 -40.5 130.5t-125.5 47.5q-28 0 -59 -3t-61 -7t-56.5 -9.5t-44.5 -9.5v-749l127 -25v-45h-406v45l113 25v800l-113 25v45h268zM614 -204
q0 -48 -14 -84t-41.5 -63t-69.5 -47.5t-99 -37.5v63q56 17 88 40t32 49q0 23 -17 34t-38 21.5t-38 27t-17 50.5q0 38 27.5 60t70.5 22q23 0 44 -9t37 -26.5t25.5 -42.5t9.5 -57z" />
    <glyph glyph-name="Ncaron" unicode="&#x147;" horiz-adv-x="1479" 
d="M1155 1262l-180 26v53h457v-53l-172 -26v-1262h-97l-827 1206v-1126l180 -27v-53h-457v53l172 27v1182l-172 26v53h406l690 -993v914zM471 1759l268 -183l268 183h56v-33l-217 -273h-213l-218 273v33h56z" />
    <glyph glyph-name="ncaron" unicode="&#x148;" 
d="M324 864q28 16 66.5 34t80.5 33t84 24.5t78 9.5q54 0 99 -15t77.5 -48t51 -86t18.5 -128v-618l114 -25v-45h-405v45l125 25v600q0 83 -40.5 130.5t-125.5 47.5q-28 0 -59 -3t-61 -7t-56.5 -9.5t-44.5 -9.5v-749l127 -25v-45h-406v45l113 25v800l-113 25v45h268zM246 1425
l268 -183l268 183h56v-33l-217 -273h-213l-218 273v33h56z" />
    <glyph glyph-name="napostrophe" unicode="&#x149;" horiz-adv-x="1237" 
d="M533 864q28 16 66.5 34t80.5 33t84 24.5t78 9.5q54 0 99 -15t77.5 -48t51 -86t18.5 -128v-618l114 -25v-45h-405v45l125 25v600q0 83 -40.5 130.5t-125.5 47.5q-28 0 -59 -3t-61 -7t-56.5 -9.5t-44.5 -9.5v-749l127 -25v-45h-406v45l113 25v800l-113 25v45h268zM307 1259
q0 -59 -16.5 -114.5t-53 -102.5t-94.5 -85t-141 -62v77q91 29 133.5 71t42.5 97q0 18 -10 30.5t-25 22t-32.5 18.5t-32.5 21.5t-25 31t-10 46.5q0 54 34 82.5t87 28.5q28 0 54 -10.5t46 -31t31.5 -51t11.5 -69.5z" />
    <glyph glyph-name="Eng" unicode="&#x14a;" horiz-adv-x="1437" 
d="M1090 950q0 86 -20.5 141t-55 86t-80.5 42.5t-97 11.5q-50 0 -104 -9.5t-107.5 -25.5t-105 -37.5t-96.5 -44.5v-1034l172 -27v-53h-537v53l172 27v1182l-172 26v53h363l2 -140q41 23 98 49t122.5 48.5t134.5 37.5t134 15q102 0 172 -24.5t113.5 -73.5t63 -122.5
t19.5 -171.5v-527q0 -91 -17 -160t-45 -119t-64.5 -83.5t-75.5 -53.5t-78 -28t-72 -8q-65 0 -117.5 8t-89.5 22v244h66l30 -139q19 -23 54 -36t77 -13q69 0 105 48t36 142v694z" />
    <glyph glyph-name="eng" unicode="&#x14b;" horiz-adv-x="1013" 
d="M833 -39q0 -106 -21.5 -181.5t-61 -123.5t-94 -70t-120.5 -22q-44 0 -76 5t-69 13v199h47l27 -109q33 -28 83 -28q59 0 89 63t30 203v760q0 83 -35 130.5t-110 47.5q-24 0 -51.5 -3t-54.5 -7t-50.5 -9.5t-39.5 -9.5v-749l127 -25v-45h-406v45l113 25v800l-113 25v45h268
l9 -76q25 16 60.5 34t74.5 33t78 24.5t72 9.5q49 0 90 -15t71 -48t46.5 -86t16.5 -128v-727z" />
    <glyph glyph-name="Omacron" unicode="&#x14c;" horiz-adv-x="1479" 
d="M293 672q0 -140 21 -253t72 -193t137 -123.5t216 -43.5t216 43.5t137.5 123.5t72.5 193t21 253q0 139 -21 251t-72.5 190.5t-137.5 120.5t-216 42t-216 -42t-137 -120.5t-72 -190.5t-21 -251zM84 672q0 178 43.5 307t126.5 213t205 124t280 40q153 0 274.5 -40
t206.5 -124t130 -213t45 -307t-45 -308.5t-130 -215.5t-206.5 -126.5t-274.5 -41.5t-274 41.5t-206 126.5t-130 215.5t-45 308.5zM425 1475v109h628v-109h-628z" />
    <glyph glyph-name="omacron" unicode="&#x14d;" 
d="M946 475q0 -239 -107 -367t-333 -128q-212 0 -320 127t-108 368q0 238 108 364t328 126q214 0 323 -123.5t109 -366.5zM766 475q0 97 -13 173.5t-43.5 129t-80.5 80t-123 27.5q-74 0 -122 -27.5t-76 -80t-39 -129t-11 -173.5q0 -98 11 -175t39 -130.5t76 -82t122 -28.5
q73 0 123 28.5t80.5 82t43.5 130.5t13 175zM198 1141v109h628v-109h-628z" />
    <glyph glyph-name="Obreve" unicode="&#x14e;" horiz-adv-x="1479" 
d="M293 672q0 -140 21 -253t72 -193t137 -123.5t216 -43.5t216 43.5t137.5 123.5t72.5 193t21 253q0 139 -21 251t-72.5 190.5t-137.5 120.5t-216 42t-216 -42t-137 -120.5t-72 -190.5t-21 -251zM84 672q0 178 43.5 307t126.5 213t205 124t280 40q153 0 274.5 -40
t206.5 -124t130 -213t45 -307t-45 -308.5t-130 -215.5t-206.5 -126.5t-274.5 -41.5t-274 41.5t-206 126.5t-130 215.5t-45 308.5zM739 1453q-73 0 -126.5 22t-88.5 60.5t-53 89.5t-19 108h74q9 -37 29 -63t48.5 -43t63 -25t72.5 -8q37 0 72 8t63.5 25t48.5 43t29 63h74
q-2 -57 -19.5 -108t-52.5 -89.5t-88.5 -60.5t-126.5 -22z" />
    <glyph glyph-name="obreve" unicode="&#x14f;" 
d="M946 475q0 -239 -107 -367t-333 -128q-212 0 -320 127t-108 368q0 238 108 364t328 126q214 0 323 -123.5t109 -366.5zM766 475q0 97 -13 173.5t-43.5 129t-80.5 80t-123 27.5q-74 0 -122 -27.5t-76 -80t-39 -129t-11 -173.5q0 -98 11 -175t39 -130.5t76 -82t122 -28.5
q73 0 123 28.5t80.5 82t43.5 130.5t13 175zM512 1119q-73 0 -126.5 22t-88.5 60.5t-53 89.5t-19 108h74q9 -37 29 -63t48.5 -43t63 -25t72.5 -8q37 0 72 8t63.5 25t48.5 43t29 63h74q-2 -57 -19.5 -108t-52.5 -89.5t-88.5 -60.5t-126.5 -22z" />
    <glyph glyph-name="Ohungarumlaut" unicode="&#x150;" horiz-adv-x="1479" 
d="M293 672q0 -140 21 -253t72 -193t137 -123.5t216 -43.5t216 43.5t137.5 123.5t72.5 193t21 253q0 139 -21 251t-72.5 190.5t-137.5 120.5t-216 42t-216 -42t-137 -120.5t-72 -190.5t-21 -251zM84 672q0 178 43.5 307t126.5 213t205 124t280 40q153 0 274.5 -40
t206.5 -124t130 -213t45 -307t-45 -308.5t-130 -215.5t-206.5 -126.5t-274.5 -41.5t-274 41.5t-206 126.5t-130 215.5t-45 308.5zM465 1453v33l156 272h192v-37l-293 -268h-55zM815 1453v33l156 272h192v-37l-292 -268h-56z" />
    <glyph glyph-name="ohungarumlaut" unicode="&#x151;" 
d="M946 475q0 -239 -107 -367t-333 -128q-212 0 -320 127t-108 368q0 238 108 364t328 126q214 0 323 -123.5t109 -366.5zM766 475q0 97 -13 173.5t-43.5 129t-80.5 80t-123 27.5q-74 0 -122 -27.5t-76 -80t-39 -129t-11 -173.5q0 -98 11 -175t39 -130.5t76 -82t122 -28.5
q73 0 123 28.5t80.5 82t43.5 130.5t13 175zM236 1119v33l156 272h192v-37l-293 -268h-55zM586 1119v33l156 272h192v-37l-292 -268h-56z" />
    <glyph glyph-name="OE" unicode="&#x152;" horiz-adv-x="1821" 
d="M1016 0q-48 0 -87.5 -1t-72.5 -2t-61.5 -2t-55.5 -1q-153 0 -274 39t-206 121.5t-130 211t-45 306.5t43.5 306t126.5 210t205 121t280 39q40 0 75 -1t68 -2.5t64.5 -2.5t65.5 -1h622v-321h-65l-33 217q-32 4 -77.5 7t-92.5 4.5t-89 2t-65 0.5h-137v-524h281l30 160h64
v-412h-64l-30 162h-281v-547h182q62 0 117 1.5t99 3.5t75.5 5t46.5 6l58 248h65l-18 -354h-684zM739 74q29 0 69.5 2.5t72.5 7.5v1173q-32 7 -65 9t-77 2q-130 0 -216 -41t-137 -117.5t-72 -187.5t-21 -250q0 -140 21 -251t72 -188t137 -118t216 -41z" />
    <glyph glyph-name="oe" unicode="&#x153;" horiz-adv-x="1479" 
d="M864 473v-18q0 -73 10 -140t39.5 -118.5t83 -82t140.5 -30.5q27 0 58 2.5t61.5 6.5t60 9t53.5 11v-56q-22 -15 -53 -28.5t-68.5 -24.5t-79 -17.5t-84.5 -6.5q-114 0 -190.5 33t-124.5 98q-99 -131 -305 -131q-193 0 -290 126.5t-97 368.5q0 238 97.5 364t297.5 126
q100 0 175 -34.5t124 -101.5q48 69 121.5 102.5t169.5 33.5q71 0 134 -20t109.5 -67t73.5 -126t27 -197v-82h-543zM465 885q-62 0 -102 -27.5t-63 -80t-32.5 -129t-9.5 -173.5q0 -98 9.5 -175t32.5 -130.5t63 -82t102 -28.5t104 28.5t67.5 82t36.5 130.5t11 175v27
q-2 91 -13.5 162.5t-37.5 120.5t-67 74.5t-101 25.5zM1063 885q-51 0 -88.5 -23.5t-61.5 -66.5t-35.5 -104.5t-11.5 -137.5h367q0 76 -8 137.5t-27.5 104.5t-52 66.5t-82.5 23.5z" />
    <glyph glyph-name="Racute" unicode="&#x154;" horiz-adv-x="1366" 
d="M424 588v-508l203 -27v-53h-555v53l159 27v1182l-172 26v53h579q141 0 235.5 -25t151.5 -71.5t81 -112.5t24 -149q0 -77 -22.5 -137.5t-60.5 -106.5t-88 -76.5t-104 -46.5l363 -536l145 -27v-53h-321l-377 588h-241zM931 969q0 80 -19 134t-59.5 87t-104 47t-153.5 14
h-171v-573h177q92 0 155 16.5t102 52t56 90.5t17 132zM536 1453v33l196 272h213v-37l-354 -268h-55z" />
    <glyph glyph-name="racute" unicode="&#x155;" horiz-adv-x="682" 
d="M664 965v-254h-43l-58 110q-28 0 -60 -4t-64 -10.5t-61.5 -15.5t-51.5 -19v-702l161 -25v-45h-446v45l119 25v800l-119 25v45h274l9 -117q23 19 63 43.5t86.5 46.5t93 37t82.5 15h15zM269 1119v33l196 272h213v-37l-354 -268h-55z" />
    <glyph glyph-name="Rcommaaccent" unicode="&#x156;" horiz-adv-x="1366" 
d="M424 588v-508l203 -27v-53h-555v53l159 27v1182l-172 26v53h579q141 0 235.5 -25t151.5 -71.5t81 -112.5t24 -149q0 -77 -22.5 -137.5t-60.5 -106.5t-88 -76.5t-104 -46.5l363 -536l145 -27v-53h-321l-377 588h-241zM931 969q0 80 -19 134t-59.5 87t-104 47t-153.5 14
h-171v-573h177q92 0 155 16.5t102 52t56 90.5t17 132zM824 -204q0 -48 -14 -84t-41.5 -63t-69.5 -47.5t-99 -37.5v63q56 17 88 40t32 49q0 23 -17 34t-38 21.5t-38 27t-17 50.5q0 38 27.5 60t70.5 22q23 0 44 -9t37 -26.5t25.5 -42.5t9.5 -57z" />
    <glyph glyph-name="rcommaaccent" unicode="&#x157;" horiz-adv-x="682" 
d="M664 965v-254h-43l-58 110q-28 0 -60 -4t-64 -10.5t-61.5 -15.5t-51.5 -19v-702l161 -25v-45h-446v45l119 25v800l-119 25v45h274l9 -117q23 19 63 43.5t86.5 46.5t93 37t82.5 15h15zM351 -204q0 -48 -14 -84t-41.5 -63t-69.5 -47.5t-99 -37.5v63q56 17 88 40t32 49
q0 23 -17 34t-38 21.5t-38 27t-17 50.5q0 38 27.5 60t70.5 22q23 0 44 -9t37 -26.5t25.5 -42.5t9.5 -57z" />
    <glyph glyph-name="Rcaron" unicode="&#x158;" horiz-adv-x="1366" 
d="M424 588v-508l203 -27v-53h-555v53l159 27v1182l-172 26v53h579q141 0 235.5 -25t151.5 -71.5t81 -112.5t24 -149q0 -77 -22.5 -137.5t-60.5 -106.5t-88 -76.5t-104 -46.5l363 -536l145 -27v-53h-321l-377 588h-241zM931 969q0 80 -19 134t-59.5 87t-104 47t-153.5 14
h-171v-573h177q92 0 155 16.5t102 52t56 90.5t17 132zM365 1759l268 -183l268 183h56v-33l-217 -273h-213l-218 273v33h56z" />
    <glyph glyph-name="rcaron" unicode="&#x159;" horiz-adv-x="682" 
d="M664 965v-254h-43l-58 110q-28 0 -60 -4t-64 -10.5t-61.5 -15.5t-51.5 -19v-702l161 -25v-45h-446v45l119 25v800l-119 25v45h274l9 -117q23 19 63 43.5t86.5 46.5t93 37t82.5 15h15zM74 1425l268 -183l268 183h56v-33l-217 -273h-213l-218 273v33h56z" />
    <glyph glyph-name="Sacute" unicode="&#x15a;" horiz-adv-x="1139" 
d="M139 361h65l35 -181q19 -24 53 -45.5t75.5 -38t87.5 -26t90 -9.5q76 0 132 20.5t92.5 56.5t54.5 85t18 107q0 72 -30.5 119t-80 79.5t-112.5 55t-129.5 45.5t-129.5 51t-112.5 71t-80 106.5t-30.5 156.5q0 78 30 141.5t88 108t142.5 68.5t192.5 24q99 0 188 -13t164 -30
v-279h-65l-35 164q-44 32 -108 53t-144 21q-74 0 -127.5 -16t-88.5 -43.5t-52 -65t-17 -80.5q0 -65 30.5 -108t80 -73.5t113 -52.5t130 -45.5t130 -53t113 -75t80 -111t30.5 -161.5q0 -93 -28.5 -168t-86 -128.5t-144 -82t-203.5 -28.5q-62 0 -122 6t-113 16t-98 23t-78 26
v310zM486 1453v33l196 272h213v-37l-354 -268h-55z" />
    <glyph glyph-name="sacute" unicode="&#x15b;" horiz-adv-x="797" 
d="M723 264q0 -63 -19.5 -115.5t-61.5 -90t-108.5 -58t-160.5 -20.5q-47 0 -92.5 5.5t-84.5 13t-68 15.5t-42 13v231h45l49 -131q31 -28 80 -48t115 -20q93 0 143.5 40.5t50.5 125.5q0 50 -21 82.5t-55 54.5t-77.5 36.5t-89 29.5t-89 34t-77.5 49t-55 75t-21 112
q0 64 23 114t64.5 84t99 51.5t126.5 17.5q68 0 133 -9.5t125 -21.5v-205h-47l-42 109q-26 23 -71 35t-96 12q-81 0 -123.5 -40t-42.5 -108q0 -46 21 -75.5t55.5 -50t78.5 -35.5t90 -31t90 -36.5t78.5 -52.5t55.5 -78t21 -114zM301 1119v33l196 272h213v-37l-354 -268h-55z
" />
    <glyph glyph-name="Scircumflex" unicode="&#x15c;" horiz-adv-x="1139" 
d="M139 361h65l35 -181q19 -24 53 -45.5t75.5 -38t87.5 -26t90 -9.5q76 0 132 20.5t92.5 56.5t54.5 85t18 107q0 72 -30.5 119t-80 79.5t-112.5 55t-129.5 45.5t-129.5 51t-112.5 71t-80 106.5t-30.5 156.5q0 78 30 141.5t88 108t142.5 68.5t192.5 24q99 0 188 -13t164 -30
v-279h-65l-35 164q-44 32 -108 53t-144 21q-74 0 -127.5 -16t-88.5 -43.5t-52 -65t-17 -80.5q0 -65 30.5 -108t80 -73.5t113 -52.5t130 -45.5t130 -53t113 -75t80 -111t30.5 -161.5q0 -93 -28.5 -168t-86 -128.5t-144 -82t-203.5 -28.5q-62 0 -122 6t-113 16t-98 23t-78 26
v310zM245 1453v33l218 273h213l217 -273v-33h-56l-268 183l-268 -183h-56z" />
    <glyph glyph-name="scircumflex" unicode="&#x15d;" horiz-adv-x="797" 
d="M723 264q0 -63 -19.5 -115.5t-61.5 -90t-108.5 -58t-160.5 -20.5q-47 0 -92.5 5.5t-84.5 13t-68 15.5t-42 13v231h45l49 -131q31 -28 80 -48t115 -20q93 0 143.5 40.5t50.5 125.5q0 50 -21 82.5t-55 54.5t-77.5 36.5t-89 29.5t-89 34t-77.5 49t-55 75t-21 112
q0 64 23 114t64.5 84t99 51.5t126.5 17.5q68 0 133 -9.5t125 -21.5v-205h-47l-42 109q-26 23 -71 35t-96 12q-81 0 -123.5 -40t-42.5 -108q0 -46 21 -75.5t55.5 -50t78.5 -35.5t90 -31t90 -36.5t78.5 -52.5t55.5 -78t21 -114zM74 1119v33l218 273h213l217 -273v-33h-56
l-268 183l-268 -183h-56z" />
    <glyph glyph-name="Scedilla" unicode="&#x15e;" horiz-adv-x="1139" 
d="M139 361h65l35 -181q19 -24 53 -45.5t75.5 -38t87.5 -26t90 -9.5q76 0 132 20.5t92.5 56.5t54.5 85t18 107q0 72 -30.5 119t-80 79.5t-112.5 55t-129.5 45.5t-129.5 51t-112.5 71t-80 106.5t-30.5 156.5q0 78 30 141.5t88 108t142.5 68.5t192.5 24q99 0 188 -13t164 -30
v-279h-65l-35 164q-44 32 -108 53t-144 21q-74 0 -127.5 -16t-88.5 -43.5t-52 -65t-17 -80.5q0 -65 30.5 -108t80 -73.5t113 -52.5t130 -45.5t130 -53t113 -75t80 -111t30.5 -161.5q0 -93 -28.5 -168t-86 -128.5t-144 -82t-203.5 -28.5q-62 0 -122 6t-113 16t-98 23t-78 26
v310zM748 -234q0 -46 -18 -83t-51 -63.5t-78.5 -41t-99.5 -14.5q-32 0 -69.5 5.5t-68.5 16.5v74q9 -3 23.5 -6t31 -5t34 -3.5t31.5 -1.5q60 0 87 29.5t27 74.5q0 32 -15 53.5t-37.5 35t-49 20t-50.5 8.5l41 153h86l-18 -82q91 -9 142.5 -53t51.5 -117z" />
    <glyph glyph-name="scedilla" unicode="&#x15f;" horiz-adv-x="797" 
d="M723 264q0 -63 -19.5 -115.5t-61.5 -90t-108.5 -58t-160.5 -20.5q-47 0 -92.5 5.5t-84.5 13t-68 15.5t-42 13v231h45l49 -131q31 -28 80 -48t115 -20q93 0 143.5 40.5t50.5 125.5q0 50 -21 82.5t-55 54.5t-77.5 36.5t-89 29.5t-89 34t-77.5 49t-55 75t-21 112
q0 64 23 114t64.5 84t99 51.5t126.5 17.5q68 0 133 -9.5t125 -21.5v-205h-47l-42 109q-26 23 -71 35t-96 12q-81 0 -123.5 -40t-42.5 -108q0 -46 21 -75.5t55.5 -50t78.5 -35.5t90 -31t90 -36.5t78.5 -52.5t55.5 -78t21 -114zM558 -234q0 -46 -18 -83t-51 -63.5t-78.5 -41
t-99.5 -14.5q-32 0 -69.5 5.5t-68.5 16.5v74q9 -3 23.5 -6t31 -5t34 -3.5t31.5 -1.5q60 0 87 29.5t27 74.5q0 32 -15 53.5t-37.5 35t-49 20t-50.5 8.5l41 153h86l-18 -82q91 -9 142.5 -53t51.5 -117z" />
    <glyph glyph-name="Scaron" unicode="&#x160;" horiz-adv-x="1139" 
d="M139 361h65l35 -181q19 -24 53 -45.5t75.5 -38t87.5 -26t90 -9.5q76 0 132 20.5t92.5 56.5t54.5 85t18 107q0 72 -30.5 119t-80 79.5t-112.5 55t-129.5 45.5t-129.5 51t-112.5 71t-80 106.5t-30.5 156.5q0 78 30 141.5t88 108t142.5 68.5t192.5 24q99 0 188 -13t164 -30
v-279h-65l-35 164q-44 32 -108 53t-144 21q-74 0 -127.5 -16t-88.5 -43.5t-52 -65t-17 -80.5q0 -65 30.5 -108t80 -73.5t113 -52.5t130 -45.5t130 -53t113 -75t80 -111t30.5 -161.5q0 -93 -28.5 -168t-86 -128.5t-144 -82t-203.5 -28.5q-62 0 -122 6t-113 16t-98 23t-78 26
v310zM331 1759l268 -183l268 183h56v-33l-217 -273h-213l-218 273v33h56z" />
    <glyph glyph-name="scaron" unicode="&#x161;" horiz-adv-x="797" 
d="M723 264q0 -63 -19.5 -115.5t-61.5 -90t-108.5 -58t-160.5 -20.5q-47 0 -92.5 5.5t-84.5 13t-68 15.5t-42 13v231h45l49 -131q31 -28 80 -48t115 -20q93 0 143.5 40.5t50.5 125.5q0 50 -21 82.5t-55 54.5t-77.5 36.5t-89 29.5t-89 34t-77.5 49t-55 75t-21 112
q0 64 23 114t64.5 84t99 51.5t126.5 17.5q68 0 133 -9.5t125 -21.5v-205h-47l-42 109q-26 23 -71 35t-96 12q-81 0 -123.5 -40t-42.5 -108q0 -46 21 -75.5t55.5 -50t78.5 -35.5t90 -31t90 -36.5t78.5 -52.5t55.5 -78t21 -114zM148 1425l268 -183l268 183h56v-33l-217 -273
h-213l-218 273v33h56z" />
    <glyph glyph-name="Tcommaaccent" unicode="&#x162;" horiz-adv-x="1251" 
d="M837 -234q0 -46 -18 -83t-51 -63.5t-78.5 -41t-99.5 -14.5q-32 0 -69.5 5.5t-68.5 16.5v74q9 -3 23.5 -6t31 -5t34 -3.5t31.5 -1.5q60 0 87 29.5t27 74.5q0 32 -15 53.5t-37.5 35t-49 20t-50.5 8.5l41 153h86l-18 -82q91 -9 142.5 -53t51.5 -117zM315 0v53l213 27v1175
h-51q-131 0 -220 -6t-126 -14l-27 -209h-67v315h1180v-315h-68l-27 209q-18 4 -53.5 7t-82.5 5.5t-102.5 4t-113.5 1.5h-49v-1173l213 -27v-53h-619z" />
    <glyph glyph-name="tcommaaccent" unicode="&#x163;" horiz-adv-x="569" 
d="M558 -234q0 -46 -18 -83t-51 -63.5t-78.5 -41t-99.5 -14.5q-32 0 -69.5 5.5t-68.5 16.5v74q9 -3 23.5 -6t31 -5t34 -3.5t31.5 -1.5q60 0 87 29.5t27 74.5q0 32 -15 53.5t-37.5 35t-49 20t-50.5 8.5l41 153h86l-18 -82q91 -9 142.5 -53t51.5 -117zM334 -20
q-96 0 -143.5 57t-47.5 160v659h-123v45l125 39l101 213h63v-213h215v-84h-215v-641q0 -65 29.5 -98t77.5 -33q37 0 73.5 5t67.5 11v-65q-15 -10 -39.5 -20t-54 -17.5t-62.5 -12.5t-67 -5z" />
    <glyph glyph-name="Tcaron" unicode="&#x164;" horiz-adv-x="1251" 
d="M315 0v53l213 27v1175h-51q-131 0 -220 -6t-126 -14l-27 -209h-67v315h1180v-315h-68l-27 209q-18 4 -53.5 7t-82.5 5.5t-102.5 4t-113.5 1.5h-49v-1173l213 -27v-53h-619zM357 1759l268 -183l268 183h56v-33l-217 -273h-213l-218 273v33h56z" />
    <glyph glyph-name="tcaron" unicode="&#x165;" horiz-adv-x="875" 
d="M334 -20q-96 0 -143.5 57t-47.5 160v659h-123v45l125 39l101 213h63v-213h215v-84h-215v-641q0 -65 29.5 -98t77.5 -33q37 0 73.5 5t67.5 11v-65q-15 -10 -39.5 -20t-54 -17.5t-62.5 -12.5t-67 -5zM839 1304q0 -53 -16.5 -96.5t-52.5 -79t-94.5 -62t-142.5 -45.5v63
q64 14 101 32.5t56 38t23.5 39t4.5 34.5q0 17 -14.5 29.5t-32 26.5t-32 33.5t-14.5 50.5q0 38 27.5 58.5t70.5 20.5q23 0 44 -9.5t37 -27.5t25.5 -44.5t9.5 -61.5z" />
    <glyph glyph-name="Tbar" unicode="&#x166;" horiz-adv-x="1251" 
d="M315 0v53l213 27v549h-321v82h321v544h-51q-131 0 -220 -6t-126 -14l-27 -209h-67v315h1180v-315h-68l-27 209q-18 4 -53.5 7t-82.5 5.5t-102.5 4t-113.5 1.5h-49v-542h324v-82h-324v-549l213 -27v-53h-619z" />
    <glyph glyph-name="tbar" unicode="&#x167;" horiz-adv-x="569" 
d="M334 -20q-96 0 -143.5 57t-47.5 160v300h-120v84h120v275h-123v45l125 39l101 213h63v-213h215v-84h-215v-275h206v-84h-206v-282q0 -65 29.5 -98t77.5 -33q37 0 73.5 5t67.5 11v-65q-15 -10 -39.5 -20t-54 -17.5t-62.5 -12.5t-67 -5z" />
    <glyph glyph-name="Utilde" unicode="&#x168;" horiz-adv-x="1479" 
d="M1159 1262l-180 26v53h457v-53l-172 -26v-801q0 -92 -23 -178.5t-81 -153.5t-158.5 -108t-254.5 -41q-267 0 -399.5 120.5t-132.5 341.5v820l-172 26v53h536v-53l-172 -26v-805q0 -82 19.5 -149.5t62 -115.5t110 -74t163.5 -26q105 0 180 26t123.5 73t71 114t22.5 148
v809zM905 1452q-48 0 -88.5 21.5t-76.5 48t-69.5 48t-66.5 21.5q-31 0 -49 -10.5t-28.5 -28t-15 -38.5t-7.5 -42h-52q3 47 13.5 90.5t33 77.5t58.5 54t90 20q48 0 88.5 -21.5t77 -48t70 -48t65.5 -21.5q30 0 48 10.5t28.5 27.5t15.5 38t8 42h52q-3 -47 -13.5 -90t-33 -77
t-58.5 -54t-90 -20z" />
    <glyph glyph-name="utilde" unicode="&#x169;" 
d="M313 268q0 -83 37.5 -127.5t122.5 -44.5q56 0 116 7.5t116 23.5v743l-142 25v45h307v-870l119 -25v-45h-274l-8 76q-29 -16 -69 -33t-83.5 -31t-87.5 -23t-80 -9q-54 0 -98 15t-75.5 48t-49 85.5t-17.5 127.5v614l-120 25v45h286v-672zM641 1118q-48 0 -88.5 21.5
t-76.5 48t-69.5 48t-66.5 21.5q-31 0 -49 -10.5t-28.5 -28t-15 -38.5t-7.5 -42h-52q3 47 13.5 90.5t33 77.5t58.5 54t90 20q48 0 88.5 -21.5t77 -48t70 -48t65.5 -21.5q30 0 48 10.5t28.5 27.5t15.5 38t8 42h52q-3 -47 -13.5 -90t-33 -77t-58.5 -54t-90 -20z" />
    <glyph glyph-name="Umacron" unicode="&#x16a;" horiz-adv-x="1479" 
d="M1159 1262l-180 26v53h457v-53l-172 -26v-801q0 -92 -23 -178.5t-81 -153.5t-158.5 -108t-254.5 -41q-267 0 -399.5 120.5t-132.5 341.5v820l-172 26v53h536v-53l-172 -26v-805q0 -82 19.5 -149.5t62 -115.5t110 -74t163.5 -26q105 0 180 26t123.5 73t71 114t22.5 148
v809zM455 1475v109h628v-109h-628z" />
    <glyph glyph-name="umacron" unicode="&#x16b;" 
d="M313 268q0 -83 37.5 -127.5t122.5 -44.5q56 0 116 7.5t116 23.5v743l-142 25v45h307v-870l119 -25v-45h-274l-8 76q-29 -16 -69 -33t-83.5 -31t-87.5 -23t-80 -9q-54 0 -98 15t-75.5 48t-49 85.5t-17.5 127.5v614l-120 25v45h286v-672zM198 1141v109h628v-109h-628z" />
    <glyph glyph-name="Ubreve" unicode="&#x16c;" horiz-adv-x="1479" 
d="M1159 1262l-180 26v53h457v-53l-172 -26v-801q0 -92 -23 -178.5t-81 -153.5t-158.5 -108t-254.5 -41q-267 0 -399.5 120.5t-132.5 341.5v820l-172 26v53h536v-53l-172 -26v-805q0 -82 19.5 -149.5t62 -115.5t110 -74t163.5 -26q105 0 180 26t123.5 73t71 114t22.5 148
v809zM782 1453q-73 0 -126.5 22t-88.5 60.5t-53 89.5t-19 108h74q9 -37 29 -63t48.5 -43t63 -25t72.5 -8q37 0 72 8t63.5 25t48.5 43t29 63h74q-2 -57 -19.5 -108t-52.5 -89.5t-88.5 -60.5t-126.5 -22z" />
    <glyph glyph-name="ubreve" unicode="&#x16d;" 
d="M313 268q0 -83 37.5 -127.5t122.5 -44.5q56 0 116 7.5t116 23.5v743l-142 25v45h307v-870l119 -25v-45h-274l-8 76q-29 -16 -69 -33t-83.5 -31t-87.5 -23t-80 -9q-54 0 -98 15t-75.5 48t-49 85.5t-17.5 127.5v614l-120 25v45h286v-672zM512 1119q-73 0 -126.5 22
t-88.5 60.5t-53 89.5t-19 108h74q9 -37 29 -63t48.5 -43t63 -25t72.5 -8q37 0 72 8t63.5 25t48.5 43t29 63h74q-2 -57 -19.5 -108t-52.5 -89.5t-88.5 -60.5t-126.5 -22z" />
    <glyph glyph-name="Uring" unicode="&#x16e;" horiz-adv-x="1479" 
d="M1159 1262l-180 26v53h457v-53l-172 -26v-801q0 -92 -23 -178.5t-81 -153.5t-158.5 -108t-254.5 -41q-267 0 -399.5 120.5t-132.5 341.5v820l-172 26v53h536v-53l-172 -26v-805q0 -82 19.5 -149.5t62 -115.5t110 -74t163.5 -26q105 0 180 26t123.5 73t71 114t22.5 148
v809zM989 1614q0 -42 -16 -79t-43.5 -64.5t-64.5 -43.5t-79 -16t-79 16t-64.5 43.5t-43.5 64.5t-16 79t16 79t43.5 64.5t64.5 43.5t79 16t79 -16t64.5 -43.5t43.5 -64.5t16 -79zM909 1614q0 25 -9.5 47.5t-26.5 39.5t-39.5 26.5t-47.5 9.5q-26 0 -48 -9.5t-39 -26.5
t-26.5 -39.5t-9.5 -47.5t9.5 -47.5t26.5 -39t39 -26.5t48 -10q25 0 47.5 10t39.5 26.5t26.5 39t9.5 47.5z" />
    <glyph glyph-name="uring" unicode="&#x16f;" 
d="M313 268q0 -83 37.5 -127.5t122.5 -44.5q56 0 116 7.5t116 23.5v743l-142 25v45h307v-870l119 -25v-45h-274l-8 76q-29 -16 -69 -33t-83.5 -31t-87.5 -23t-80 -9q-54 0 -98 15t-75.5 48t-49 85.5t-17.5 127.5v614l-120 25v45h286v-672zM715 1280q0 -42 -16 -79
t-43.5 -64.5t-64.5 -43.5t-79 -16t-79 16t-64.5 43.5t-43.5 64.5t-16 79t16 79t43.5 64.5t64.5 43.5t79 16t79 -16t64.5 -43.5t43.5 -64.5t16 -79zM635 1280q0 25 -9.5 47.5t-26.5 39.5t-39.5 26.5t-47.5 9.5q-26 0 -48 -9.5t-39 -26.5t-26.5 -39.5t-9.5 -47.5t9.5 -47.5
t26.5 -39t39 -26.5t48 -10q25 0 47.5 10t39.5 26.5t26.5 39t9.5 47.5z" />
    <glyph glyph-name="Uhungarumlaut" unicode="&#x170;" horiz-adv-x="1479" 
d="M1159 1262l-180 26v53h457v-53l-172 -26v-801q0 -92 -23 -178.5t-81 -153.5t-158.5 -108t-254.5 -41q-267 0 -399.5 120.5t-132.5 341.5v820l-172 26v53h536v-53l-172 -26v-805q0 -82 19.5 -149.5t62 -115.5t110 -74t163.5 -26q105 0 180 26t123.5 73t71 114t22.5 148
v809zM508 1453v33l156 272h192v-37l-293 -268h-55zM858 1453v33l156 272h192v-37l-292 -268h-56z" />
    <glyph glyph-name="uhungarumlaut" unicode="&#x171;" 
d="M313 268q0 -83 37.5 -127.5t122.5 -44.5q56 0 116 7.5t116 23.5v743l-142 25v45h307v-870l119 -25v-45h-274l-8 76q-29 -16 -69 -33t-83.5 -31t-87.5 -23t-80 -9q-54 0 -98 15t-75.5 48t-49 85.5t-17.5 127.5v614l-120 25v45h286v-672zM227 1119v33l156 272h192v-37
l-293 -268h-55zM577 1119v33l156 272h192v-37l-292 -268h-56z" />
    <glyph glyph-name="Uogonek" unicode="&#x172;" horiz-adv-x="1479" 
d="M1159 1262l-180 26v53h457v-53l-172 -26v-801q0 -92 -23 -178.5t-81 -153.5t-158.5 -108t-254.5 -41q-267 0 -399.5 120.5t-132.5 341.5v820l-172 26v53h536v-53l-172 -26v-805q0 -82 19.5 -149.5t62 -115.5t110 -74t163.5 -26q105 0 180 26t123.5 73t71 114t22.5 148
v809zM914 -408q-63 0 -107 17.5t-71.5 47.5t-40 69.5t-12.5 82.5q0 34 8.5 64t21.5 55.5t29 46.5t31 36h109q-7 -10 -16.5 -28.5t-17.5 -42.5t-14 -51.5t-6 -55.5q0 -74 35.5 -113.5t102.5 -39.5q33 0 63 6.5t53 15.5v-64q-28 -19 -71 -32.5t-97 -13.5z" />
    <glyph glyph-name="uogonek" unicode="&#x173;" 
d="M313 268q0 -83 37.5 -127.5t122.5 -44.5q56 0 116 7.5t116 23.5v743l-142 25v45h307v-870l119 -25v-45h-274l-8 76q-29 -16 -69 -33t-83.5 -31t-87.5 -23t-80 -9q-54 0 -98 15t-75.5 48t-49 85.5t-17.5 127.5v614l-120 25v45h286v-672zM857 -403q-63 0 -107 17.5
t-71.5 47.5t-40 69.5t-12.5 82.5q0 34 8.5 64t21.5 55.5t29 46.5t31 36h109q-7 -10 -16.5 -28.5t-17.5 -42.5t-14 -51.5t-6 -55.5q0 -74 35.5 -113.5t102.5 -39.5q33 0 63 6.5t53 15.5v-64q-28 -19 -71 -32.5t-97 -13.5z" />
    <glyph glyph-name="Wcircumflex" unicode="&#x174;" horiz-adv-x="1933" 
d="M1812 1262l-438 -1293h-53l-348 924l-357 -924h-53l-444 1293l-117 26v53h512v-53l-197 -26l319 -945l361 930h45l348 -930l304 945l-209 26v53h444v-53zM678 1453v33l218 273h213l217 -273v-33h-56l-268 183l-268 -183h-56z" />
    <glyph glyph-name="wcircumflex" unicode="&#x175;" horiz-adv-x="1479" 
d="M1366 874l-315 -894h-78l-232 620l-229 -620h-74l-325 890l-111 25v45h447v-45l-156 -27l223 -635l227 613h84l226 -617l213 641l-154 25v45h358v-45zM446 1119v33l218 273h213l217 -273v-33h-56l-268 183l-268 -183h-56z" />
    <glyph glyph-name="Ycircumflex" unicode="&#x176;" horiz-adv-x="1479" 
d="M838 528v-448l213 -27v-53h-619v53l213 27v442l-471 740l-151 26v53h567v-53l-180 -26l385 -619l366 619l-170 26v53h436v-53l-147 -26zM415 1453v33l218 273h213l217 -273v-33h-56l-268 183l-268 -183h-56z" />
    <glyph glyph-name="ycircumflex" unicode="&#x177;" 
d="M918 874l-367 -933q-32 -81 -65 -151t-73.5 -121.5t-92.5 -81t-121 -29.5q-26 0 -45.5 1t-36.5 3.5t-34 5.5t-38 8v203h47l33 -96q31 -23 86 -23q43 0 78 19t64.5 53.5t53.5 81.5t46 104l26 72l-358 880l-96 25v45h436v-45l-148 -27l254 -657l246 659l-147 25v45h350v-45
zM211 1119v33l218 273h213l217 -273v-33h-56l-268 183l-268 -183h-56z" />
    <glyph glyph-name="Ydieresis" unicode="&#x178;" horiz-adv-x="1479" 
d="M838 528v-448l213 -27v-53h-619v53l213 27v442l-471 740l-151 26v53h567v-53l-180 -26l385 -619l366 619l-170 26v53h436v-53l-147 -26zM1028 1559q0 -42 -28 -71.5t-70 -29.5q-21 0 -39 8t-31.5 22t-21.5 32t-8 39q0 42 29 71t71 29t70 -29t28 -71zM672 1559
q0 -42 -28 -71.5t-70 -29.5q-21 0 -39 8t-32 22t-22 32t-8 39t8 39t22 31.5t32 21.5t39 8q42 0 70 -29t28 -71z" />
    <glyph glyph-name="Zacute" unicode="&#x179;" horiz-adv-x="1251" 
d="M98 94l752 1161h-250q-131 0 -217 -6t-123 -14l-31 -211h-69v317h913v-86l-757 -1171h290q65 0 129.5 3.5t119.5 9t96 11t59 9.5l59 256h70l-27 -373h-1014v94zM514 1453v33l196 272h213v-37l-354 -268h-55z" />
    <glyph glyph-name="zacute" unicode="&#x17a;" horiz-adv-x="909" 
d="M55 0v45l516 815h-221q-28 0 -55.5 -2.5t-52 -7t-43.5 -11t-29 -14.5l-31 -135h-47v250h694v-49l-516 -811h275q27 0 57.5 3.5t59 9.5t53 14.5t39.5 19.5l51 197h47l-25 -324h-772zM336 1119v33l196 272h213v-37l-354 -268h-55z" />
    <glyph glyph-name="Zdotaccent" unicode="&#x17b;" horiz-adv-x="1251" 
d="M98 94l752 1161h-250q-131 0 -217 -6t-123 -14l-31 -211h-69v317h913v-86l-757 -1171h290q65 0 129.5 3.5t119.5 9t96 11t59 9.5l59 256h70l-27 -373h-1014v94zM737 1581q0 -22 -8.5 -41.5t-23.5 -34.5t-35 -23.5t-42 -8.5t-41.5 8.5t-34.5 23.5t-23.5 34.5t-8.5 41.5
t8.5 42t23.5 35t34.5 23.5t41.5 8.5t42 -8.5t35 -23.5t23.5 -35t8.5 -42z" />
    <glyph glyph-name="zdotaccent" unicode="&#x17c;" horiz-adv-x="909" 
d="M55 0v45l516 815h-221q-28 0 -55.5 -2.5t-52 -7t-43.5 -11t-29 -14.5l-31 -135h-47v250h694v-49l-516 -811h275q27 0 57.5 3.5t59 9.5t53 14.5t39.5 19.5l51 197h47l-25 -324h-772zM573 1247q0 -22 -8.5 -41.5t-23.5 -34.5t-35 -23.5t-42 -8.5t-41.5 8.5t-34.5 23.5
t-23.5 34.5t-8.5 41.5t8.5 42t23.5 35t34.5 23.5t41.5 8.5t42 -8.5t35 -23.5t23.5 -35t8.5 -42z" />
    <glyph glyph-name="Zcaron" unicode="&#x17d;" horiz-adv-x="1251" 
d="M98 94l752 1161h-250q-131 0 -217 -6t-123 -14l-31 -211h-69v317h913v-86l-757 -1171h290q65 0 129.5 3.5t119.5 9t96 11t59 9.5l59 256h70l-27 -373h-1014v94zM363 1759l268 -183l268 183h56v-33l-217 -273h-213l-218 273v33h56z" />
    <glyph glyph-name="zcaron" unicode="&#x17e;" horiz-adv-x="909" 
d="M55 0v45l516 815h-221q-28 0 -55.5 -2.5t-52 -7t-43.5 -11t-29 -14.5l-31 -135h-47v250h694v-49l-516 -811h275q27 0 57.5 3.5t59 9.5t53 14.5t39.5 19.5l51 197h47l-25 -324h-772zM189 1425l268 -183l268 183h56v-33l-217 -273h-213l-218 273v33h56z" />
    <glyph glyph-name="longs" unicode="&#x17f;" horiz-adv-x="569" 
d="M354 78l163 -33v-45h-468v45l139 33v932q0 106 21.5 186.5t62 135t99 82.5t131.5 28q45 0 80 -5.5t63 -13.5v-205h-49l-45 123q-16 10 -35 15.5t-47 5.5q-35 0 -57 -15.5t-35 -48t-18 -82.5t-5 -120v-1018z" />
    <glyph glyph-name="florin" unicode="&#x192;" 
d="M219 -285l137 987h-161l8 50l166 34l32 232q11 79 39 142.5t71.5 108.5t101 69t126.5 24q91 0 154 -19v-182h-47l-33 96q-31 23 -86 23q-43 0 -70 -21t-44 -58t-27 -88t-19 -112l-30 -215h249l-14 -84h-248l-143 -987h-162z" />
    <glyph glyph-name="Aringacute" unicode="&#x1fa;" horiz-adv-x="1479" 
d="M461 53v-53h-441v53l152 27l457 1272h190l475 -1272l170 -27v-53h-567v53l180 27l-133 387h-528l-135 -387zM676 1208l-230 -651h467zM925 1476q0 -42 -16 -79t-43.5 -64.5t-64.5 -43.5t-79 -16t-79 16t-64.5 43.5t-43.5 64.5t-16 79t16 79t43.5 64.5t64.5 43.5t79 16
t79 -16t64.5 -43.5t43.5 -64.5t16 -79zM845 1476q0 25 -9.5 47.5t-26.5 39.5t-39.5 26.5t-47.5 9.5q-26 0 -48 -9.5t-39 -26.5t-26.5 -39.5t-9.5 -47.5t9.5 -47.5t26.5 -39t39 -26.5t48 -10q25 0 47.5 10t39.5 26.5t26.5 39t9.5 47.5zM626 1705v33l196 272h213v-37
l-354 -268h-55z" />
    <glyph glyph-name="aringacute" unicode="&#x1fb;" horiz-adv-x="909" 
d="M465 961q64 0 119 -12t95 -41t62.5 -78.5t22.5 -124.5v-635l117 -25v-45h-258l-19 94q-15 -15 -40.5 -35t-61.5 -37.5t-83.5 -29.5t-105.5 -12q-68 0 -114.5 21t-74.5 58.5t-40 89t-12 111.5q0 62 15 107.5t42 76.5t63.5 50.5t79 30.5t90 15t95.5 5l141 4v147
q0 42 -7 76.5t-23.5 59.5t-44.5 39t-70 14q-48 0 -97 -13t-86 -34l-34 -117h-56v205q65 14 134.5 24.5t150.5 10.5zM598 479l-131 -4q-59 -2 -102 -11.5t-71 -32.5t-42 -63t-14 -102q0 -176 143 -176q68 0 117.5 15.5t99.5 39.5v334zM674 1280q0 -42 -16 -79t-43.5 -64.5
t-64.5 -43.5t-79 -16t-79 16t-64.5 43.5t-43.5 64.5t-16 79t16 79t43.5 64.5t64.5 43.5t79 16t79 -16t64.5 -43.5t43.5 -64.5t16 -79zM594 1280q0 25 -9.5 47.5t-26.5 39.5t-39.5 26.5t-47.5 9.5q-26 0 -48 -9.5t-39 -26.5t-26.5 -39.5t-9.5 -47.5t9.5 -47.5t26.5 -39
t39 -26.5t48 -10q25 0 47.5 10t39.5 26.5t26.5 39t9.5 47.5zM352 1530v33l196 272h213v-37l-354 -268h-55z" />
    <glyph glyph-name="AEacute" unicode="&#x1fc;" horiz-adv-x="1821" 
d="M731 53l152 27v387h-412l-207 -387l158 -27v-53h-402v53l136 27l647 1190l-164 18v53h995v-321h-65l-33 217q-32 4 -77.5 7t-92.5 4.5t-89 2t-65 0.5h-137v-524h281l30 160h64v-412h-64l-30 162h-281v-547h182q62 0 117 1.5t99 3.5t75.5 5t46.5 6l58 248h65l-18 -354
h-969v53zM883 557v674l-363 -674h363zM988 1453v33l196 272h213v-37l-354 -268h-55z" />
    <glyph glyph-name="aeacute" unicode="&#x1fd;" horiz-adv-x="1366" 
d="M764 473v-90q1 -62 9 -116t34 -95t75 -64.5t130 -23.5q30 0 63 2.5t66 6.5t64 9t57 11v-56q-23 -15 -54 -28.5t-68 -24.5t-79.5 -17.5t-87.5 -6.5q-115 0 -196 33t-126 96q-27 -24 -61.5 -47t-76.5 -41.5t-92 -29.5t-108 -11q-68 0 -114.5 21t-74.5 58.5t-40 89
t-12 111.5q0 62 15 107.5t42 76.5t63.5 50.5t79 30.5t90 15t95.5 5l141 4v147q0 42 -7 76.5t-23.5 59.5t-44.5 39t-70 14q-48 0 -97 -13t-86 -34l-34 -117h-56v205q65 14 134.5 24.5t150.5 10.5q75 0 136 -16t101 -58q45 40 106 59t138 19q72 0 136 -20t112 -67t76 -126
t28 -197v-82h-534zM381 90q68 0 129.5 20t114.5 48q-6 11 -10.5 29t-8.5 40t-6 45.5t-2 46.5v160l-131 -4q-59 -2 -102 -11.5t-71 -32.5t-42 -63t-14 -102q0 -176 143 -176zM946 885q-56 0 -91.5 -23.5t-55.5 -66.5t-27.5 -104.5t-7.5 -137.5h360q0 76 -9 137.5t-29.5 104.5
t-54.5 66.5t-85 23.5zM571 1119v33l196 272h213v-37l-354 -268h-55z" />
    <glyph glyph-name="Oslashacute" unicode="&#x1fe;" horiz-adv-x="1479" 
d="M84 672q0 178 43.5 307t126.5 213t205 124t280 40q127 0 232.5 -28t185.5 -85l123 148h115l-170 -205q81 -85 125.5 -211.5t44.5 -302.5q0 -178 -45 -308.5t-130 -215.5t-206.5 -126.5t-274.5 -41.5q-127 0 -230 26.5t-183 83.5l-121 -145h-119l170 205q-84 86 -128 215
t-44 307zM293 672q0 -121 15 -220.5t50 -177.5l715 865q-52 66 -133.5 101.5t-200.5 35.5q-130 0 -216 -42t-137 -120.5t-72 -190.5t-21 -251zM1186 672q0 117 -15 214t-49 173l-712 -866q52 -66 132 -100t197 -34q130 0 216 43.5t137.5 123.5t72.5 193t21 253zM627 1453v33
l196 272h213v-37l-354 -268h-55z" />
    <glyph glyph-name="oslashacute" unicode="&#x1ff;" 
d="M952 1022l-123 -174q57 -62 87 -155t30 -218q0 -239 -107 -367t-333 -128q-145 0 -242 59l-86 -123h-108l127 178q-60 63 -89.5 158.5t-29.5 222.5q0 238 108 364t328 126q149 0 250 -64l84 121h104zM258 475q0 -75 6.5 -138.5t22.5 -113.5l405 578q-31 42 -76 63
t-110 21q-74 0 -122 -27.5t-76 -80t-39 -129t-11 -173.5zM766 475q0 71 -7.5 131.5t-23.5 108.5l-405 -580q29 -37 71.5 -56.5t104.5 -19.5q73 0 123 28.5t80.5 82t43.5 130.5t13 175zM404 1119v33l196 272h213v-37l-354 -268h-55z" />
    <glyph glyph-name="Scommaaccent" unicode="&#x218;" horiz-adv-x="1139" 
d="M726 -204q0 -48 -14 -84t-41.5 -63t-69.5 -47.5t-99 -37.5v63q56 17 88 40t32 49q0 23 -17 34t-38 21.5t-38 27t-17 50.5q0 38 27.5 60t70.5 22q23 0 44 -9t37 -26.5t25.5 -42.5t9.5 -57zM139 361h65l35 -181q19 -24 53 -45.5t75.5 -38t87.5 -26t90 -9.5q76 0 132 20.5
t92.5 56.5t54.5 85t18 107q0 72 -30.5 119t-80 79.5t-112.5 55t-129.5 45.5t-129.5 51t-112.5 71t-80 106.5t-30.5 156.5q0 78 30 141.5t88 108t142.5 68.5t192.5 24q99 0 188 -13t164 -30v-279h-65l-35 164q-44 32 -108 53t-144 21q-74 0 -127.5 -16t-88.5 -43.5t-52 -65
t-17 -80.5q0 -65 30.5 -108t80 -73.5t113 -52.5t130 -45.5t130 -53t113 -75t80 -111t30.5 -161.5q0 -93 -28.5 -168t-86 -128.5t-144 -82t-203.5 -28.5q-62 0 -122 6t-113 16t-98 23t-78 26v310z" />
    <glyph glyph-name="scommaaccent" unicode="&#x219;" horiz-adv-x="797" 
d="M416 -204q0 -48 -14 -84t-41.5 -63t-69.5 -47.5t-99 -37.5v63q56 17 88 40t32 49q0 23 -17 34t-38 21.5t-38 27t-17 50.5q0 38 27.5 60t70.5 22q23 0 44 -9t37 -26.5t25.5 -42.5t9.5 -57zM723 264q0 -63 -19.5 -115.5t-61.5 -90t-108.5 -58t-160.5 -20.5q-47 0 -92.5 5.5
t-84.5 13t-68 15.5t-42 13v231h45l49 -131q31 -28 80 -48t115 -20q93 0 143.5 40.5t50.5 125.5q0 50 -21 82.5t-55 54.5t-77.5 36.5t-89 29.5t-89 34t-77.5 49t-55 75t-21 112q0 64 23 114t64.5 84t99 51.5t126.5 17.5q68 0 133 -9.5t125 -21.5v-205h-47l-42 109
q-26 23 -71 35t-96 12q-81 0 -123.5 -40t-42.5 -108q0 -46 21 -75.5t55.5 -50t78.5 -35.5t90 -31t90 -36.5t78.5 -52.5t55.5 -78t21 -114z" />
    <glyph glyph-name="uni021A" unicode="&#x21a;" horiz-adv-x="1251" 
d="M726 -204q0 -48 -14 -84t-41.5 -63t-69.5 -47.5t-99 -37.5v63q56 17 88 40t32 49q0 23 -17 34t-38 21.5t-38 27t-17 50.5q0 38 27.5 60t70.5 22q23 0 44 -9t37 -26.5t25.5 -42.5t9.5 -57zM315 0v53l213 27v1175h-51q-131 0 -220 -6t-126 -14l-27 -209h-67v315h1180v-315
h-68l-27 209q-18 4 -53.5 7t-82.5 5.5t-102.5 4t-113.5 1.5h-49v-1173l213 -27v-53h-619z" />
    <glyph glyph-name="uni021B" unicode="&#x21b;" horiz-adv-x="569" 
d="M416 -204q0 -48 -14 -84t-41.5 -63t-69.5 -47.5t-99 -37.5v63q56 17 88 40t32 49q0 23 -17 34t-38 21.5t-38 27t-17 50.5q0 38 27.5 60t70.5 22q23 0 44 -9t37 -26.5t25.5 -42.5t9.5 -57zM334 -20q-96 0 -143.5 57t-47.5 160v659h-123v45l125 39l101 213h63v-213h215v-84
h-215v-641q0 -65 29.5 -98t77.5 -33q37 0 73.5 5t67.5 11v-65q-15 -10 -39.5 -20t-54 -17.5t-62.5 -12.5t-67 -5z" />
    <glyph glyph-name="circumflex" unicode="&#x2c6;" horiz-adv-x="682" 
d="M18 1119v33l218 273h213l217 -273v-33h-56l-268 183l-268 -183h-56z" />
    <glyph glyph-name="caron" unicode="&#x2c7;" horiz-adv-x="682" 
d="M74 1425l268 -183l268 183h56v-33l-217 -273h-213l-218 273v33h56z" />
    <glyph glyph-name="uni02C9" unicode="&#x2c9;" horiz-adv-x="682" 
d="M27 1141v109h628v-109h-628z" />
    <glyph glyph-name="breve" unicode="&#x2d8;" horiz-adv-x="682" 
d="M340 1119q-73 0 -126.5 22t-88.5 60.5t-53 89.5t-19 108h74q9 -37 29 -63t48.5 -43t63 -25t72.5 -8q37 0 72 8t63.5 25t48.5 43t29 63h74q-2 -57 -19.5 -108t-52.5 -89.5t-88.5 -60.5t-126.5 -22z" />
    <glyph glyph-name="dotaccent" unicode="&#x2d9;" horiz-adv-x="682" 
d="M452 1247q0 -22 -8.5 -41.5t-23.5 -34.5t-35 -23.5t-42 -8.5t-41.5 8.5t-34.5 23.5t-23.5 34.5t-8.5 41.5t8.5 42t23.5 35t34.5 23.5t41.5 8.5t42 -8.5t35 -23.5t23.5 -35t8.5 -42z" />
    <glyph glyph-name="ring" unicode="&#x2da;" horiz-adv-x="682" 
d="M543 1280q0 -42 -16 -79t-43.5 -64.5t-64.5 -43.5t-79 -16t-79 16t-64.5 43.5t-43.5 64.5t-16 79t16 79t43.5 64.5t64.5 43.5t79 16t79 -16t64.5 -43.5t43.5 -64.5t16 -79zM463 1280q0 25 -9.5 47.5t-26.5 39.5t-39.5 26.5t-47.5 9.5q-26 0 -48 -9.5t-39 -26.5
t-26.5 -39.5t-9.5 -47.5t9.5 -47.5t26.5 -39t39 -26.5t48 -10q25 0 47.5 10t39.5 26.5t26.5 39t9.5 47.5z" />
    <glyph glyph-name="ogonek" unicode="&#x2db;" horiz-adv-x="682" 
d="M356 -403q-63 0 -107 17.5t-71.5 47.5t-40 69.5t-12.5 82.5q0 34 8.5 64t21.5 55.5t29 46.5t31 36h109q-7 -10 -16.5 -28.5t-17.5 -42.5t-14 -51.5t-6 -55.5q0 -74 35.5 -113.5t102.5 -39.5q33 0 63 6.5t53 15.5v-64q-28 -19 -71 -32.5t-97 -13.5z" />
    <glyph glyph-name="tilde" unicode="&#x2dc;" horiz-adv-x="682" 
d="M471 1118q-48 0 -88.5 21.5t-76.5 48t-69.5 48t-66.5 21.5q-31 0 -49 -10.5t-28.5 -28t-15 -38.5t-7.5 -42h-52q3 47 13.5 90.5t33 77.5t58.5 54t90 20q48 0 88.5 -21.5t77 -48t70 -48t65.5 -21.5q30 0 48 10.5t28.5 27.5t15.5 38t8 42h52q-3 -47 -13.5 -90t-33 -77
t-58.5 -54t-90 -20z" />
    <glyph glyph-name="hungarumlaut" unicode="&#x2dd;" horiz-adv-x="682" 
d="M-8 1119v33l156 272h192v-37l-293 -268h-55zM342 1119v33l156 272h192v-37l-292 -268h-56z" />
    <glyph glyph-name="tonos" unicode="&#x384;" horiz-adv-x="682" 
d="M215 1119v33l69 292h187v-37l-201 -288h-55z" />
    <glyph glyph-name="dieresistonos" unicode="&#x385;" horiz-adv-x="682" 
d="M265 1119v33l49 322h187v-37l-181 -318h-55zM630 1212q0 -38 -25 -64.5t-63 -26.5q-37 0 -63.5 26.5t-26.5 64.5t26.5 64t63.5 26q38 0 63 -26t25 -64zM230 1212q0 -38 -25.5 -64.5t-62.5 -26.5q-38 0 -64.5 26.5t-26.5 64.5t26.5 64t64.5 26q37 0 62.5 -26t25.5 -64z
" />
    <glyph glyph-name="Alphatonos" unicode="&#x386;" horiz-adv-x="1479" 
d="M461 53v-53h-441v53l152 27l457 1272h190l475 -1272l170 -27v-53h-567v53l180 27l-133 387h-528l-135 -387zM676 1208l-230 -651h467zM111 1028v33l69 292h187v-37l-201 -288h-55z" />
    <glyph glyph-name="anoteleia" unicode="&#x387;" horiz-adv-x="569" 
d="M377 678q0 -26 -9.5 -48t-25.5 -38t-38.5 -25.5t-47.5 -9.5q-26 0 -48 9.5t-38 25.5t-25.5 38t-9.5 48q0 25 9.5 47t25.5 38.5t38 26t48 9.5q25 0 47.5 -9.5t38.5 -26t25.5 -38.5t9.5 -47z" />
    <glyph glyph-name="Epsilontonos" unicode="&#x388;" horiz-adv-x="1421" 
d="M229 53l172 27v1182l-172 26v53h1006v-321h-66l-32 217q-32 4 -77.5 7t-92.5 4.5t-89 2t-65 0.5h-219v-524h362l31 160h64v-412h-64l-31 162h-362v-547h264q62 0 117 1.5t99 3.5t75.5 5t46.5 6l57 248h66l-19 -354h-1071v53zM-72 1017v33l69 292h187v-37l-201 -288h-55z
" />
    <glyph glyph-name="Etatonos" unicode="&#x389;" horiz-adv-x="1655" 
d="M229 0v53l172 27v1182l-172 26v53h537v-53l-172 -26v-527h631v527l-172 26v53h536v-53l-172 -26v-1182l172 -27v-53h-536v53l172 27v565h-631v-565l172 -27v-53h-537zM-72 1017v33l69 292h187v-37l-201 -288h-55z" />
    <glyph glyph-name="Iotatonos" unicode="&#x38a;" horiz-adv-x="842" 
d="M598 80l172 -27v-53h-536v53l172 27v1182l-172 26v53h536v-53l-172 -26v-1182zM-72 1017v33l69 292h187v-37l-201 -288h-55z" />
    <glyph glyph-name="Omicrontonos" unicode="&#x38c;" horiz-adv-x="1479" 
d="M293 672q0 -140 21 -253t72 -193t137 -123.5t216 -43.5t216 43.5t137.5 123.5t72.5 193t21 253q0 139 -21 251t-72.5 190.5t-137.5 120.5t-216 42t-216 -42t-137 -120.5t-72 -190.5t-21 -251zM84 672q0 178 43.5 307t126.5 213t205 124t280 40q153 0 274.5 -40
t206.5 -124t130 -213t45 -307t-45 -308.5t-130 -215.5t-206.5 -126.5t-274.5 -41.5t-274 41.5t-206 126.5t-130 215.5t-45 308.5zM-60 1017v33l69 292h187v-37l-201 -288h-55z" />
    <glyph glyph-name="Upsilontonos" unicode="&#x38e;" horiz-adv-x="1671" 
d="M1030 528v-448l213 -27v-53h-619v53l213 27v442l-471 740l-151 26v53h567v-53l-180 -26l385 -619l366 619l-170 26v53h436v-53l-147 -26zM-67 1017v33l69 292h187v-37l-201 -288h-55z" />
    <glyph glyph-name="Omegatonos" unicode="&#x38f;" horiz-adv-x="1522" 
d="M762 1276q-130 0 -216 -35t-137 -97.5t-72 -150t-21 -192.5q0 -87 19.5 -165t62 -139t109.5 -101.5t162 -52.5l27 -343h-569l-19 330h66l57 -144q15 -3 43.5 -6t66 -5t82 -3.5t92.5 -1.5h72l-10 101q-103 16 -189 59.5t-148.5 111.5t-97.5 158.5t-35 200.5
q0 139 43.5 243.5t126.5 173.5t205 103.5t280 34.5q157 0 279.5 -34.5t205.5 -103.5t126.5 -173.5t43.5 -243.5q0 -110 -35 -200.5t-97.5 -158.5t-148.5 -111.5t-189 -59.5l-10 -101h72q48 0 92.5 1.5t82 3.5t66 5t43.5 6l57 144h66l-19 -330h-569l27 343q95 12 162 52.5
t109.5 101.5t62 139t19.5 165q0 105 -21 192.5t-72 150t-137 97.5t-216 35zM-60 1017v33l69 292h187v-37l-201 -288h-55z" />
    <glyph glyph-name="iotadieresistonos" unicode="&#x390;" horiz-adv-x="551" 
d="M344 214q0 -65 23.5 -97.5t61.5 -32.5q30 0 59 5t54 11v-65q-14 -10 -35 -20t-47 -17.5t-55 -12.5t-59 -5q-85 0 -126.5 57t-41.5 160v673l-133 25v45h299v-726zM205 1119v33l49 322h187v-37l-181 -318h-55zM570 1212q0 -38 -25 -64.5t-63 -26.5q-37 0 -63.5 26.5
t-26.5 64.5t26.5 64t63.5 26q38 0 63 -26t25 -64zM170 1212q0 -38 -25.5 -64.5t-62.5 -26.5q-38 0 -64.5 26.5t-26.5 64.5t26.5 64t64.5 26q37 0 62.5 -26t25.5 -64z" />
    <glyph glyph-name="Alpha" unicode="&#x391;" horiz-adv-x="1479" 
d="M461 53v-53h-441v53l152 27l457 1272h190l475 -1272l170 -27v-53h-567v53l180 27l-133 387h-528l-135 -387zM676 1208l-230 -651h467z" />
    <glyph glyph-name="Beta" unicode="&#x392;" horiz-adv-x="1366" 
d="M958 1016q0 59 -17.5 103t-56.5 73.5t-101 44t-152 14.5h-207v-507h219q93 0 154 19.5t96.5 55t50 85.5t14.5 112zM1059 382q0 70 -22.5 121t-70 84.5t-122.5 50t-180 16.5h-240v-564q46 -2 96 -3q43 -2 95 -2.5t103 -0.5q94 0 159 21t105.5 59.5t58.5 93.5t18 124zM59 0
v53l172 27v1182l-172 26v53h613q141 0 235 -21.5t151 -62.5t81 -99.5t24 -131.5q0 -63 -20.5 -115t-57 -91.5t-87.5 -66t-111 -39.5q87 -9 157.5 -35t119.5 -67.5t75.5 -98.5t26.5 -127q0 -87 -29.5 -159.5t-92.5 -124t-162 -80t-239 -28.5q-112 0 -223 3t-205 3h-256z" />
    <glyph glyph-name="Gamma" unicode="&#x393;" horiz-adv-x="1184" 
d="M631 0h-572v53l172 26v1182l-172 27v53h1041l18 -385h-65l-62 279q-30 6 -109 13t-204 7h-254v-1176l207 -26v-53z" />
    <glyph glyph-name="Delta" unicode="&#x394;" horiz-adv-x="1317" 
d="M1240 0h-1161l-1 80l477 1272h190l495 -1272v-80zM606 1196l-400 -1087h806z" />
    <glyph glyph-name="Epsilon" unicode="&#x395;" horiz-adv-x="1251" 
d="M59 53l172 27v1182l-172 26v53h1006v-321h-66l-32 217q-32 4 -77.5 7t-92.5 4.5t-89 2t-65 0.5h-219v-524h362l31 160h64v-412h-64l-31 162h-362v-547h264q62 0 117 1.5t99 3.5t75.5 5t46.5 6l57 248h66l-19 -354h-1071v53z" />
    <glyph glyph-name="Zeta" unicode="&#x396;" horiz-adv-x="1251" 
d="M98 94l752 1161h-250q-131 0 -217 -6t-123 -14l-31 -211h-69v317h913v-86l-757 -1171h290q65 0 129.5 3.5t119.5 9t96 11t59 9.5l59 256h70l-27 -373h-1014v94z" />
    <glyph glyph-name="Eta" unicode="&#x397;" horiz-adv-x="1479" 
d="M59 0v53l172 27v1182l-172 26v53h537v-53l-172 -26v-527h631v527l-172 26v53h536v-53l-172 -26v-1182l172 -27v-53h-536v53l172 27v565h-631v-565l172 -27v-53h-537z" />
    <glyph glyph-name="Theta" unicode="&#x398;" horiz-adv-x="1479" 
d="M293 672q0 -140 21 -253t72 -193t137 -123.5t216 -43.5t216 43.5t137.5 123.5t72.5 193t21 253q0 139 -21 251t-72.5 190.5t-137.5 120.5t-216 42t-216 -42t-137 -120.5t-72 -190.5t-21 -251zM84 672q0 178 43.5 307t126.5 213t205 124t280 40q153 0 274.5 -40
t206.5 -124t130 -213t45 -307t-45 -308.5t-130 -215.5t-206.5 -126.5t-274.5 -41.5t-274 41.5t-206 126.5t-130 215.5t-45 308.5zM558 610l-31 -142h-64v412h64l31 -140h362l31 140h64v-412h-64l-31 142h-362z" />
    <glyph glyph-name="Iota" unicode="&#x399;" horiz-adv-x="682" 
d="M438 80l172 -27v-53h-536v53l172 27v1182l-172 26v53h536v-53l-172 -26v-1182z" />
    <glyph glyph-name="Kappa" unicode="&#x39a;" horiz-adv-x="1479" 
d="M1353 1341v-53l-155 -26l-458 -448l573 -734l145 -27v-53h-328l-525 678l-181 -145v-453l192 -27v-53h-557v53l172 27v1182l-172 26v53h537v-53l-172 -26v-632l642 632l-133 26v53h420z" />
    <glyph glyph-name="Lambda" unicode="&#x39b;" horiz-adv-x="1485" 
d="M281 80l180 -27v-53h-441v53l145 27l464 1272h190l475 -1272l170 -27v-53h-567v53l180 27l-395 1117z" />
    <glyph glyph-name="Mu" unicode="&#x39c;" horiz-adv-x="1821" 
d="M862 0h-35l-491 1153v-1073l180 -27v-53h-457v53l172 27v1182l-172 26v53h406l436 -1020l476 1020h384v-53l-172 -26v-1182l172 -27v-53h-544v53l180 27v1073z" />
    <glyph glyph-name="Nu" unicode="&#x39d;" horiz-adv-x="1479" 
d="M1155 1262l-180 26v53h457v-53l-172 -26v-1262h-97l-827 1206v-1126l180 -27v-53h-457v53l172 27v1182l-172 26v53h406l690 -993v914z" />
    <glyph glyph-name="Xi" unicode="&#x39e;" horiz-adv-x="1317" 
d="M745 170q62 0 117 1.5t99 3.5t75.5 5t46.5 6l57 188h66l-19 -374h-1058l-19 374h66l57 -188q15 -3 51 -6t85 -5t108 -3.5t121 -1.5h147zM602 1181q-23 0 -65 -0.5t-89 -2t-93 -4.5t-77 -7l-52 -157h-66l20 331h957l20 -331h-66l-52 157q-32 4 -77.5 7t-92.5 4.5t-89 2
t-65 0.5h-113zM450 610l-31 -142h-64v412h64l31 -140h416l31 140h64v-412h-64l-31 142h-416z" />
    <glyph glyph-name="Omicron" unicode="&#x39f;" horiz-adv-x="1479" 
d="M293 672q0 -140 21 -253t72 -193t137 -123.5t216 -43.5t216 43.5t137.5 123.5t72.5 193t21 253q0 139 -21 251t-72.5 190.5t-137.5 120.5t-216 42t-216 -42t-137 -120.5t-72 -190.5t-21 -251zM84 672q0 178 43.5 307t126.5 213t205 124t280 40q153 0 274.5 -40
t206.5 -124t130 -213t45 -307t-45 -308.5t-130 -215.5t-206.5 -126.5t-274.5 -41.5t-274 41.5t-206 126.5t-130 215.5t-45 308.5z" />
    <glyph glyph-name="Pi" unicode="&#x3a0;" horiz-adv-x="1479" 
d="M59 0v53l172 27v1182l-172 26v53h1360v-53l-172 -26v-1182l172 -27v-53h-536v53l172 27v1171h-631v-1171l172 -27v-53h-537z" />
    <glyph glyph-name="Rho" unicode="&#x3a1;" horiz-adv-x="1139" 
d="M858 944q0 80 -17.5 138t-57 95.5t-103.5 55.5t-158 18h-98v-635h104q94 0 157.5 22.5t102 64.5t54.5 103t16 138zM424 526v-446l213 -27v-53h-565v53l159 27v1182l-172 26v53h506q141 0 235.5 -30.5t151.5 -84t81 -125.5t24 -155q0 -82 -23.5 -158t-79 -134t-148.5 -93
t-231 -35h-151z" />
    <glyph glyph-name="Sigma" unicode="&#x3a3;" horiz-adv-x="1192" 
d="M678 748v-51l-403 -527h261q62 0 131.5 1.5t130.5 3.5t107 5t61 6l57 188h66l-19 -374h-990v74l438 572l-430 616v79h921v-321h-66l-42 217q-32 4 -75 7t-86.5 4.5t-82.5 2t-62 0.5h-266z" />
    <glyph glyph-name="Tau" unicode="&#x3a4;" horiz-adv-x="1251" 
d="M315 0v53l213 27v1175h-51q-131 0 -220 -6t-126 -14l-27 -209h-67v315h1180v-315h-68l-27 209q-18 4 -53.5 7t-82.5 5.5t-102.5 4t-113.5 1.5h-49v-1173l213 -27v-53h-619z" />
    <glyph glyph-name="Upsilon" unicode="&#x3a5;" horiz-adv-x="1479" 
d="M838 528v-448l213 -27v-53h-619v53l213 27v442l-471 740l-151 26v53h567v-53l-180 -26l385 -619l366 619l-170 26v53h436v-53l-147 -26z" />
    <glyph glyph-name="Phi" unicode="&#x3a6;" horiz-adv-x="1497" 
d="M839 80l172 -27v-53h-526v53l172 27v142h-113q-92 0 -163.5 19.5t-125.5 53.5t-90.5 80t-59.5 98t-33 108t-10 111q0 83 24 163t81 142.5t151.5 101t235.5 38.5h103v125l-172 26v53h526v-53l-172 -26v-125h104q141 0 235.5 -38.5t151.5 -101t81 -142.5t24 -163
q0 -55 -10 -111t-33 -108t-59.5 -98t-90.5 -80t-125.5 -53.5t-163.5 -19.5h-114v-142zM906 300q94 0 157.5 32t102 86t54.5 124.5t16 147.5q0 80 -17.5 147.5t-57 117t-103.5 77.5t-158 28h-61v-760h67zM261 690q0 -77 16 -147.5t54.5 -124.5t101.5 -86t158 -32h66v760h-60
q-94 0 -158 -28t-103.5 -77.5t-57 -117t-17.5 -147.5z" />
    <glyph glyph-name="Chi" unicode="&#x3a7;" horiz-adv-x="1479" 
d="M317 80l166 -27v-53h-438v53l148 27l456 606l-389 576l-151 26v53h553v-53l-170 -26l278 -414l311 414l-166 26v53h439v-53l-148 -26l-377 -502l461 -680l152 -27v-53h-553v53l170 27l-352 520z" />
    <glyph glyph-name="Psi" unicode="&#x3a8;" horiz-adv-x="1511" 
d="M846 80l182 -27v-53h-546v53l182 27v426q-145 0 -246.5 25.5t-166 77.5t-94 132t-29.5 190v331l-122 26v53h314v-415q0 -171 82 -255.5t262 -85.5v677l-182 26v53h546v-53l-182 -26v-677q181 1 263.5 85t82.5 256v415h314v-53l-122 -26v-331q0 -110 -29.5 -190t-94 -132
t-167 -77.5t-247.5 -25.5v-426z" />
    <glyph glyph-name="Omega" unicode="&#x3a9;" horiz-adv-x="1522" 
d="M761 1276q-130 0 -216 -35t-137 -97.5t-72 -150t-21 -192.5q0 -87 19.5 -165t62 -139t109.5 -101.5t162 -52.5l27 -343h-569l-19 330h66l57 -144q15 -3 43.5 -6t66 -5t82 -3.5t92.5 -1.5h72l-10 101q-103 16 -189 59.5t-148.5 111.5t-97.5 158.5t-35 200.5
q0 139 43.5 243.5t126.5 173.5t205 103.5t280 34.5q157 0 279.5 -34.5t205.5 -103.5t126.5 -173.5t43.5 -243.5q0 -110 -35 -200.5t-97.5 -158.5t-148.5 -111.5t-189 -59.5l-10 -101h72q48 0 92.5 1.5t82 3.5t66 5t43.5 6l57 144h66l-19 -330h-569l27 343q95 12 162 52.5
t109.5 101.5t62 139t19.5 165q0 105 -21 192.5t-72 150t-137 97.5t-216 35z" />
    <glyph glyph-name="Iotadieresis" unicode="&#x3aa;" horiz-adv-x="682" 
d="M438 80l172 -27v-53h-536v53l172 27v1182l-172 26v53h536v-53l-172 -26v-1182zM618 1559q0 -42 -28 -71.5t-70 -29.5q-21 0 -39 8t-31.5 22t-21.5 32t-8 39q0 42 29 71t71 29t70 -29t28 -71zM262 1559q0 -42 -28 -71.5t-70 -29.5q-21 0 -39 8t-32 22t-22 32t-8 39t8 39
t22 31.5t32 21.5t39 8q42 0 70 -29t28 -71z" />
    <glyph glyph-name="Upsilondieresis" unicode="&#x3ab;" horiz-adv-x="1479" 
d="M838 528v-448l213 -27v-53h-619v53l213 27v442l-471 740l-151 26v53h567v-53l-180 -26l385 -619l366 619l-170 26v53h436v-53l-147 -26zM1017 1559q0 -42 -28 -71.5t-70 -29.5q-21 0 -39 8t-31.5 22t-21.5 32t-8 39q0 42 29 71t71 29t70 -29t28 -71zM661 1559
q0 -42 -28 -71.5t-70 -29.5q-21 0 -39 8t-32 22t-22 32t-8 39t8 39t22 31.5t32 21.5t39 8q42 0 70 -29t28 -71z" />
    <glyph glyph-name="alphatonos" unicode="&#x3ac;" horiz-adv-x="1073" 
d="M1024 45v-45h-212q-11 35 -21 72t-18.5 73t-15 69t-11.5 60h-6q-35 -66 -68 -120t-72 -92.5t-89.5 -60t-119.5 -21.5q-73 0 -131 30t-98.5 89.5t-62 148t-21.5 205.5q0 127 28 223t79 160.5t123 97t161 32.5q64 0 114.5 -15.5t89.5 -49t68.5 -86t52.5 -125.5h6l70 250
h157v-40q-18 -29 -39 -74.5t-43.5 -101t-46 -118t-46.5 -123.5q29 -126 60.5 -232.5t63.5 -190.5zM724 463q-13 112 -33 192t-49.5 131.5t-68.5 75.5t-89 24q-115 0 -170 -112.5t-55 -320.5q0 -184 47 -279.5t125 -95.5q57 0 100 32t77.5 85.5t62 123t53.5 144.5zM448 1119
v33l69 292h187v-37l-201 -288h-55z" />
    <glyph glyph-name="epsilontonos" unicode="&#x3ad;" horiz-adv-x="860" 
d="M801 70q-58 -38 -145 -64t-199 -26q-98 0 -169 21t-117.5 59.5t-69 91.5t-22.5 117q0 52 18.5 92t49.5 69t71.5 48t84.5 28v7q-39 13 -72.5 31.5t-58 44t-39 59t-14.5 77.5q0 65 33.5 111t88 74.5t123.5 41.5t140 13q65 0 137 -9.5t132 -26.5l-1 -196h-48l-57 113
q-12 7 -31.5 14.5t-42 13.5t-47.5 9.5t-49 3.5q-35 0 -72 -7.5t-67.5 -26.5t-50 -52t-19.5 -83q0 -42 11.5 -72.5t29.5 -51.5t39.5 -34t42.5 -19q21 2 55 4t68.5 3.5t63 2.5t38.5 1h32v-96h-32q-10 0 -39 1t-65.5 3t-74 4.5t-64.5 4.5q-24 -7 -49 -20.5t-45.5 -36.5
t-33.5 -56t-13 -78q0 -35 13 -70t43 -62.5t78.5 -44.5t119.5 -17q50 0 92 4.5t78 11.5t67 16.5t58 18.5v-65zM417 1119v33l69 292h187v-37l-201 -288h-55z" />
    <glyph glyph-name="etatonos" unicode="&#x3ae;" horiz-adv-x="1071" 
d="M32 940h288l9 -95q36 21 78 42.5t86 38.5t87.5 28t82.5 11q58 0 106 -16t82 -50t52.5 -86t18.5 -125v-618q0 -84 4.5 -159t10.5 -135.5t13.5 -104t13.5 -62.5v-45h-175q-9 49 -15 107.5t-10 122.5t-6 131t-2 133v612q0 88 -41 133t-134 45q-31 0 -65 -6.5t-67.5 -16.5
t-64 -22t-53.5 -22v-781h-166v870l-133 25v45zM459 1119v33l69 292h187v-37l-201 -288h-55z" />
    <glyph glyph-name="iotatonos" unicode="&#x3af;" horiz-adv-x="551" 
d="M344 214q0 -65 23.5 -97.5t61.5 -32.5q30 0 59 5t54 11v-65q-14 -10 -35 -20t-47 -17.5t-55 -12.5t-59 -5q-85 0 -126.5 57t-41.5 160v673l-133 25v45h299v-726zM194 1119v33l69 292h187v-37l-201 -288h-55z" />
    <glyph glyph-name="upsilondieresistonos" unicode="&#x3b0;" horiz-adv-x="1014" 
d="M514 -20q-101 0 -171 27t-113.5 73.5t-63 109.5t-19.5 135v545l-120 25v45h286v-658q0 -45 12 -84.5t37 -69t63 -46t90 -16.5q68 0 113.5 25.5t73 75t39 123.5t11.5 171q0 174 -25.5 282t-92.5 148l-1 73q70 -15 126 -49.5t94.5 -93t59 -143t20.5 -198.5q0 -122 -29 -215
t-83.5 -156.5t-132 -96t-174.5 -32.5zM425 1119v33l49 322h187v-37l-181 -318h-55zM790 1212q0 -38 -25 -64.5t-63 -26.5q-37 0 -63.5 26.5t-26.5 64.5t26.5 64t63.5 26q38 0 63 -26t25 -64zM390 1212q0 -38 -25.5 -64.5t-62.5 -26.5q-38 0 -64.5 26.5t-26.5 64.5t26.5 64
t64.5 26q37 0 62.5 -26t25.5 -64z" />
    <glyph glyph-name="alpha" unicode="&#x3b1;" horiz-adv-x="1073" 
d="M1024 45v-45h-212q-11 35 -21 72t-18.5 73t-15 69t-11.5 60h-6q-35 -66 -68 -120t-72 -92.5t-89.5 -60t-119.5 -21.5q-73 0 -131 30t-98.5 89.5t-62 148t-21.5 205.5q0 127 28 223t79 160.5t123 97t161 32.5q64 0 114.5 -15.5t89.5 -49t68.5 -86t52.5 -125.5h6l70 250
h157v-40q-18 -29 -39 -74.5t-43.5 -101t-46 -118t-46.5 -123.5q29 -126 60.5 -232.5t63.5 -190.5zM724 463q-13 112 -33 192t-49.5 131.5t-68.5 75.5t-89 24q-115 0 -170 -112.5t-55 -320.5q0 -184 47 -279.5t125 -95.5q57 0 100 32t77.5 85.5t62 123t53.5 144.5z" />
    <glyph glyph-name="beta" unicode="&#x3b2;" horiz-adv-x="1042" 
d="M298 -436h-166v1377q0 141 30 237t84 154.5t129.5 84t166.5 25.5q86 0 153.5 -24t114 -68t71 -108t24.5 -143q0 -75 -20 -133t-53.5 -99.5t-77 -67.5t-90.5 -36v-10q67 -14 121 -41t92 -70.5t58 -105t20 -144.5q0 -100 -27 -177t-77 -129t-123 -79t-164 -27
q-89 0 -154.5 16.5t-111.5 36.5v-469zM735 1096q0 60 -11.5 109t-35 84t-60.5 54t-88 19q-56 0 -101 -19.5t-76.5 -68t-48 -130.5t-16.5 -207v-831q53 -17 117.5 -27.5t136.5 -10.5q109 0 168.5 78t59.5 243q0 75 -16.5 133.5t-53 99.5t-94.5 64t-141 26v78q71 2 120.5 22
t80.5 58t45 94.5t14 131.5z" />
    <glyph glyph-name="gamma" unicode="&#x3b3;" horiz-adv-x="905" 
d="M-3 895v45h218q35 -78 72 -174t73 -198t68.5 -203.5t58.5 -190.5h8l170 408q13 30 23.5 60.5t18.5 59t12.5 53.5t4.5 44q0 41 -23 65t-47 31v45h193q7 -11 9 -33t2 -43q0 -51 -23.5 -123t-63.5 -160l-248 -563q6 -36 11.5 -93.5t9 -121t6 -124.5t2.5 -104l-159 -11
l-46 29q0 40 2.5 89.5t7.5 102.5t12 106t16 101q-39 114 -82 240t-87 245t-86 222.5t-78 173.5z" />
    <glyph glyph-name="delta" unicode="&#x3b4;" horiz-adv-x="965" 
d="M251 1188q0 58 23 103t64.5 76t99 47.5t126.5 16.5q68 0 130.5 -10t115.5 -21v-205h-47l-42 109q-53 47 -155 47q-81 0 -123.5 -40t-42.5 -108q0 -37 16.5 -70.5t46.5 -67.5t72.5 -70.5t95.5 -79.5q64 -53 112.5 -105t80.5 -107.5t48 -117.5t16 -135q0 -110 -26.5 -197
t-77.5 -148t-126 -93t-172 -32q-95 0 -171 26.5t-129 79t-81 131t-28 182.5q0 105 29 184.5t79 137t116.5 95t142.5 57.5q-44 39 -79.5 76t-61 75t-39 78.5t-13.5 85.5zM249 391q0 -76 14.5 -137t44.5 -104.5t74.5 -67t104.5 -23.5q109 0 168 89.5t59 273.5q0 60 -11 112
t-34 98t-58 87.5t-82 81.5q-7 5 -13 10l-12 10q-49 -17 -95 -45t-81.5 -77t-57 -123.5t-21.5 -184.5z" />
    <glyph glyph-name="epsilon" unicode="&#x3b5;" horiz-adv-x="860" 
d="M801 70q-58 -38 -145 -64t-199 -26q-98 0 -169 21t-117.5 59.5t-69 91.5t-22.5 117q0 52 18.5 92t49.5 69t71.5 48t84.5 28v7q-39 13 -72.5 31.5t-58 44t-39 59t-14.5 77.5q0 65 33.5 111t88 74.5t123.5 41.5t140 13q65 0 137 -9.5t132 -26.5l-1 -196h-48l-57 113
q-12 7 -31.5 14.5t-42 13.5t-47.5 9.5t-49 3.5q-35 0 -72 -7.5t-67.5 -26.5t-50 -52t-19.5 -83q0 -42 11.5 -72.5t29.5 -51.5t39.5 -34t42.5 -19q21 2 55 4t68.5 3.5t63 2.5t38.5 1h32v-96h-32q-10 0 -39 1t-65.5 3t-74 4.5t-64.5 4.5q-24 -7 -49 -20.5t-45.5 -36.5
t-33.5 -56t-13 -78q0 -35 13 -70t43 -62.5t78.5 -44.5t119.5 -17q50 0 92 4.5t78 11.5t67 16.5t58 18.5v-65z" />
    <glyph glyph-name="zeta" unicode="&#x3b6;" horiz-adv-x="848" 
d="M802 -82q0 -53 -18 -94t-54 -74.5t-90.5 -60.5t-127.5 -51v65q33 13 61 28.5t48.5 35t31.5 43.5t11 55q0 58 -52 87t-154 49q-101 20 -171.5 51.5t-114.5 76.5t-63.5 105.5t-19.5 138.5q0 84 24.5 170t67 171.5t99 169t119.5 163t129.5 153.5t129.5 140v4l-505 -78v114
q93 6 182 13t170 14.5t151 15t124 15.5v-68q-104 -124 -195.5 -242t-159.5 -237t-107 -242t-39 -256q0 -66 20 -109.5t56 -72t86.5 -45.5t112.5 -32q123 -29 185.5 -78.5t62.5 -137.5z" />
    <glyph glyph-name="eta" unicode="&#x3b7;" horiz-adv-x="1071" 
d="M32 940h288l9 -95q36 21 78 42.5t86 38.5t87.5 28t82.5 11q58 0 106 -16t82 -50t52.5 -86t18.5 -125v-618q0 -84 4.5 -159t10.5 -135.5t13.5 -104t13.5 -62.5v-45h-175q-9 49 -15 107.5t-10 122.5t-6 131t-2 133v612q0 88 -41 133t-134 45q-31 0 -65 -6.5t-67.5 -16.5
t-64 -22t-53.5 -22v-781h-166v870l-133 25v45z" />
    <glyph glyph-name="theta" unicode="&#x3b8;" horiz-adv-x="981" 
d="M894 710q0 -177 -23.5 -313t-73.5 -228.5t-127.5 -140.5t-185.5 -48q-101 0 -174.5 47.5t-121 140t-70 228.5t-22.5 314q0 175 22.5 310t70.5 226.5t123 138.5t180 47q202 0 302 -183.5t100 -538.5zM484 1352q-66 0 -106 -40.5t-62.5 -117.5t-30.5 -189t-9 -255h438
q-2 143 -13.5 255t-37.5 189t-69.5 117.5t-109.5 40.5zM484 59q65 0 108.5 41t69.5 118.5t37.5 189.5t13.5 254h-437q1 -142 9.5 -254t31 -189.5t62.5 -118.5t105 -41z" />
    <glyph glyph-name="iota" unicode="&#x3b9;" horiz-adv-x="551" 
d="M344 214q0 -65 23.5 -97.5t61.5 -32.5q30 0 59 5t54 11v-65q-14 -10 -35 -20t-47 -17.5t-55 -12.5t-59 -5q-85 0 -126.5 57t-41.5 160v673l-133 25v45h299v-726z" />
    <glyph glyph-name="kappa" unicode="&#x3ba;" horiz-adv-x="1032" 
d="M324 453l434 487h185v-45l-117 -23l-264 -278l340 -526l102 -23v-45h-256l-292 474l-132 -110v-364h-166v871l-119 24v45h285v-487z" />
    <glyph glyph-name="lambda" unicode="&#x3bb;" horiz-adv-x="993" 
d="M549 764q-9 -25 -26 -67.5t-36.5 -89.5t-38.5 -92t-31 -74l-189 -441h-174v33l430 953l-45 138q-33 102 -75.5 163t-98.5 61q-16 0 -30.5 -3.5t-26.5 -8.5l-40 -83h-49v170q29 8 68 13.5t80 5.5q52 0 90.5 -17.5t69 -53.5t55.5 -90.5t50 -128.5l334 -1005q16 -48 49 -70
t67 -32v-45h-196z" />
    <glyph glyph-name="mu" unicode="&#x3bc;" horiz-adv-x="1098" 
d="M895 940v-870l119 -25v-45h-274l-8 86q-29 -20 -60.5 -39t-65 -34t-69.5 -24t-72 -9q-48 0 -79 13.5t-54 33.5v-465h-166v1378h166v-672q0 -83 40.5 -127.5t125.5 -44.5q56 0 116 12.5t116 32.5v799h165z" />
    <glyph glyph-name="nu" unicode="&#x3bd;" horiz-adv-x="926" 
d="M670 550q34 76 51.5 141t17.5 103q0 44 -24.5 68t-53.5 33v45h198q7 -12 13 -32.5t6 -46.5q0 -38 -15 -90.5t-44 -113.5l-322 -677h-71l-350 890l-71 25v45h233l276 -736z" />
    <glyph glyph-name="xi" unicode="&#x3be;" horiz-adv-x="913" 
d="M584 802q18 2 40 4t43.5 3.5t39.5 2.5t28 1h32v-106h-32q-10 0 -26.5 1.5t-37 3.5t-42.5 4t-43 4q-158 -51 -235.5 -130.5t-77.5 -200.5q0 -66 24.5 -107.5t69 -68.5t107.5 -44t140 -34q124 -27 188.5 -78t64.5 -139q0 -53 -18 -94t-54 -74.5t-90.5 -60.5t-127.5 -51v65
q33 13 61 28.5t48.5 35t31.5 43.5t11 55q0 29 -13 50.5t-39 37.5t-64.5 27.5t-89.5 20.5q-109 20 -190.5 47.5t-135.5 69t-80.5 99.5t-26.5 139q0 78 35 139.5t91.5 109.5t128 83t144.5 59v11q-43 12 -90.5 36t-87 58.5t-65.5 80.5t-26 103q0 51 23.5 97.5t73 86.5t127 72.5
t184.5 56.5v3l-488 -26v97q35 0 84 -0.5t105.5 0t117.5 1t120.5 1.5t114.5 2.5t100 3.5v-86q-37 -7 -80.5 -18.5t-87.5 -28.5t-85.5 -41t-73.5 -56.5t-51.5 -74.5t-19.5 -95q0 -50 18.5 -90t48 -69t65 -46.5t68.5 -23.5z" />
    <glyph glyph-name="omicron" unicode="&#x3bf;" 
d="M946 475q0 -239 -107 -367t-333 -128q-212 0 -320 127t-108 368q0 238 108 364t328 126q214 0 323 -123.5t109 -366.5zM766 475q0 97 -13 173.5t-43.5 129t-80.5 80t-123 27.5q-74 0 -122 -27.5t-76 -80t-39 -129t-11 -173.5q0 -98 11 -175t39 -130.5t76 -82t122 -28.5
q73 0 123 28.5t80.5 82t43.5 130.5t13 175z" />
    <glyph glyph-name="pi" unicode="&#x3c0;" horiz-adv-x="1034" 
d="M363 856l-37 -458q-13 -162 -23.5 -257t-22.5 -141h-183v45q29 30 50 57.5t36 64t25 88t17 129.5l42 472h-134l-48 -128h-57l21 212h954v-84h-188v-642q0 -65 24 -97.5t62 -32.5q24 0 43 5t39 11v-65q-24 -20 -66 -37.5t-90 -17.5q-178 0 -178 217v659h-286z" />
    <glyph glyph-name="rho" unicode="&#x3c1;" horiz-adv-x="1022" 
d="M132 561q0 105 26 180.5t73 124t112 72t143 23.5q88 0 170 -32.5t145 -98t100.5 -165t37.5 -233.5q0 -120 -34 -205.5t-90 -140t-128.5 -80.5t-148.5 -26q-77 0 -134 12.5t-107 29.5v-458h-165v997zM514 60q124 0 187 92.5t63 266.5q0 125 -24.5 209.5t-63.5 136
t-87.5 73.5t-96.5 22q-92 0 -143.5 -67.5t-51.5 -217.5v-472q50 -20 100 -31.5t117 -11.5z" />
    <glyph glyph-name="sigma1" unicode="&#x3c2;" horiz-adv-x="811" 
d="M508 892q-57 0 -103.5 -39.5t-79 -107.5t-50 -159.5t-17.5 -195.5q0 -66 22.5 -108t63.5 -69t98 -44t126 -34q111 -27 167 -77.5t56 -138.5q0 -53 -18 -94t-54 -74.5t-90.5 -60.5t-127.5 -52v66q33 13 61 28.5t48.5 35t31.5 44t11 56.5q0 57 -46.5 86t-139.5 48
q-99 20 -172.5 47.5t-122.5 69t-73 99.5t-24 139q0 130 35 241.5t94.5 193t138 127.5t165.5 46q66 0 124.5 -9.5t114.5 -24.5v-217h-55l-43 129q-23 17 -58 33t-83 16z" />
    <glyph glyph-name="sigma" unicode="&#x3c3;" horiz-adv-x="1104" 
d="M1016 1048h57l-18 -192h-291v-7q23 -20 56 -56t63 -87.5t51.5 -118.5t21.5 -149q0 -105 -30 -190t-86.5 -144.5t-136.5 -91.5t-180 -32q-101 0 -183.5 35t-140.5 99.5t-89.5 155.5t-31.5 203q0 106 35 192t103 147t167.5 94.5t227.5 33.5h349zM533 59q53 0 97.5 24
t76.5 72.5t49.5 120.5t17.5 168q0 82 -11 148t-29 117t-40 87.5t-44 59.5q-92 0 -164.5 -25t-123 -75t-77.5 -126t-27 -179q0 -104 22.5 -178.5t61 -122t88 -69.5t103.5 -22z" />
    <glyph glyph-name="tau" unicode="&#x3c4;" horiz-adv-x="823" 
d="M150 856l-48 -128h-57l21 212h712v-84h-294v-642q0 -71 29 -100.5t75 -29.5q24 0 55.5 5.5t52.5 10.5v-65q-12 -10 -32.5 -19.5t-45.5 -17.5t-52.5 -13t-53.5 -5q-88 0 -141 53.5t-53 163.5v659h-168z" />
    <glyph glyph-name="upsilon" unicode="&#x3c5;" horiz-adv-x="1014" 
d="M514 -20q-101 0 -171 27t-113.5 73.5t-63 109.5t-19.5 135v545l-120 25v45h286v-658q0 -45 12 -84.5t37 -69t63 -46t90 -16.5q68 0 113.5 25.5t73 75t39 123.5t11.5 171q0 174 -25.5 282t-92.5 148l-1 73q70 -15 126 -49.5t94.5 -93t59 -143t20.5 -198.5q0 -122 -29 -215
t-83.5 -156.5t-132 -96t-174.5 -32.5z" />
    <glyph glyph-name="phi" unicode="&#x3c6;" horiz-adv-x="1182" 
d="M644 -436h-106v420q-110 8 -195 39t-144 89t-89.5 145t-30.5 209q0 124 24 211.5t69.5 146.5t113 92t154.5 48l-1 -73q-54 -20 -88.5 -55.5t-54.5 -87.5t-28 -120.5t-8 -155.5q0 -100 17.5 -173t52 -122.5t87 -78.5t121.5 -40v612q0 60 12.5 114t40.5 94.5t72.5 64
t109.5 23.5q157 0 243 -120.5t86 -353.5q0 -121 -33 -212.5t-93.5 -154.5t-145 -98t-186.5 -44v-419zM923 478q0 110 -13 187.5t-36 126t-53.5 71t-65.5 22.5q-52 0 -81.5 -52.5t-29.5 -162.5v-610q68 10 120 38.5t87.5 79t53.5 124.5t18 176z" />
    <glyph glyph-name="chi" unicode="&#x3c7;" horiz-adv-x="909" 
d="M747 -436q-6 4 -14 15.5t-17 28t-18.5 35.5t-17.5 39l-214 483q-33 -65 -72 -144t-78.5 -160t-76 -158t-63.5 -139h-178v33q22 41 51.5 96t63.5 117.5t70 130.5t72 135t69.5 131t62.5 120l-229 480q-11 24 -27.5 39.5t-35.5 25.5t-38 15t-36 8v45h183q12 -8 27 -32.5
t27 -53.5l188 -437q27 54 58.5 119t64.5 134t64.5 138t58.5 132h175v-39q-38 -67 -82 -148t-89 -166.5t-88.5 -170t-80.5 -158.5l266 -561q22 -47 47.5 -65t59.5 -23v-45h-153z" />
    <glyph glyph-name="psi" unicode="&#x3c8;" horiz-adv-x="1282" 
d="M695 60q75 4 127.5 23.5t85.5 51t47.5 73.5t14.5 92v640h286v-45l-121 -25v-550q0 -69 -21.5 -128.5t-72.5 -104.5t-135.5 -72.5t-210.5 -31.5v-419h-106v418q-130 4 -215 31.5t-135.5 72.5t-71 105t-20.5 129v550l-120 25v45h286v-640q0 -49 14.5 -91.5t47.5 -74
t85.5 -51t128.5 -23.5v1172h106v-1172z" />
    <glyph glyph-name="omega" unicode="&#x3c9;" horiz-adv-x="1348" 
d="M1087 418q0 100 -19 178.5t-54 137t-83.5 98t-106.5 62.5v66q91 -15 171.5 -54.5t141 -106t96 -160.5t35.5 -218q0 -90 -19 -170.5t-59 -140.5t-102.5 -95t-150.5 -35q-59 0 -102 17.5t-73.5 45t-49.5 61t-31 64.5h-8q-12 -31 -31.5 -64.5t-50 -61t-73.5 -45t-102 -17.5
q-87 0 -150.5 35t-105 95t-61 140.5t-19.5 170.5q0 123 35 217t95 160.5t141 106.5t173 55v-66q-59 -23 -107 -62.5t-83 -98t-54 -137t-19 -178.5q0 -60 10.5 -120t34 -108t62 -78t94.5 -30q30 0 57.5 15t50.5 42.5t39.5 67t24.5 89.5q-3 20 -9 54t-12 72t-10.5 74t-4.5 60
v52h166v-52q0 -24 -4 -57.5t-10 -69.5t-12.5 -71t-11.5 -62q17 -100 61 -154.5t104 -54.5q56 0 94 29t60.5 76.5t32 106.5t9.5 119z" />
    <glyph glyph-name="iotadieresis" unicode="&#x3ca;" horiz-adv-x="551" 
d="M344 214q0 -65 23.5 -97.5t61.5 -32.5q30 0 59 5t54 11v-65q-14 -10 -35 -20t-47 -17.5t-55 -12.5t-59 -5q-85 0 -126.5 57t-41.5 160v673l-133 25v45h299v-726zM540 1194q0 -42 -28 -71.5t-70 -29.5q-21 0 -39 8t-31.5 22t-21.5 32t-8 39q0 42 29 71t71 29t70 -29
t28 -71zM184 1194q0 -42 -28 -71.5t-70 -29.5q-21 0 -39 8t-32 22t-22 32t-8 39t8 39t22 31.5t32 21.5t39 8q42 0 70 -29t28 -71z" />
    <glyph glyph-name="upsilondieresis" unicode="&#x3cb;" horiz-adv-x="1014" 
d="M514 -20q-101 0 -171 27t-113.5 73.5t-63 109.5t-19.5 135v545l-120 25v45h286v-658q0 -45 12 -84.5t37 -69t63 -46t90 -16.5q68 0 113.5 25.5t73 75t39 123.5t11.5 171q0 174 -25.5 282t-92.5 148l-1 73q70 -15 126 -49.5t94.5 -93t59 -143t20.5 -198.5q0 -122 -29 -215
t-83.5 -156.5t-132 -96t-174.5 -32.5zM785 1194q0 -42 -28 -71.5t-70 -29.5q-21 0 -39 8t-31.5 22t-21.5 32t-8 39q0 42 29 71t71 29t70 -29t28 -71zM429 1194q0 -42 -28 -71.5t-70 -29.5q-21 0 -39 8t-32 22t-22 32t-8 39t8 39t22 31.5t32 21.5t39 8q42 0 70 -29t28 -71z
" />
    <glyph glyph-name="omicrontonos" unicode="&#x3cc;" 
d="M946 475q0 -239 -107 -367t-333 -128q-212 0 -320 127t-108 368q0 238 108 364t328 126q214 0 323 -123.5t109 -366.5zM766 475q0 97 -13 173.5t-43.5 129t-80.5 80t-123 27.5q-74 0 -122 -27.5t-76 -80t-39 -129t-11 -173.5q0 -98 11 -175t39 -130.5t76 -82t122 -28.5
q73 0 123 28.5t80.5 82t43.5 130.5t13 175zM440 1119v33l69 292h187v-37l-201 -288h-55z" />
    <glyph glyph-name="upsilontonos" unicode="&#x3cd;" horiz-adv-x="1014" 
d="M514 -20q-101 0 -171 27t-113.5 73.5t-63 109.5t-19.5 135v545l-120 25v45h286v-658q0 -45 12 -84.5t37 -69t63 -46t90 -16.5q68 0 113.5 25.5t73 75t39 123.5t11.5 171q0 174 -25.5 282t-92.5 148l-1 73q70 -15 126 -49.5t94.5 -93t59 -143t20.5 -198.5q0 -122 -29 -215
t-83.5 -156.5t-132 -96t-174.5 -32.5zM433 1119v33l69 292h187v-37l-201 -288h-55z" />
    <glyph glyph-name="omegatonos" unicode="&#x3ce;" horiz-adv-x="1348" 
d="M1087 418q0 100 -19 178.5t-54 137t-83.5 98t-106.5 62.5v66q91 -15 171.5 -54.5t141 -106t96 -160.5t35.5 -218q0 -90 -19 -170.5t-59 -140.5t-102.5 -95t-150.5 -35q-59 0 -102 17.5t-73.5 45t-49.5 61t-31 64.5h-8q-12 -31 -31.5 -64.5t-50 -61t-73.5 -45t-102 -17.5
q-87 0 -150.5 35t-105 95t-61 140.5t-19.5 170.5q0 123 35 217t95 160.5t141 106.5t173 55v-66q-59 -23 -107 -62.5t-83 -98t-54 -137t-19 -178.5q0 -60 10.5 -120t34 -108t62 -78t94.5 -30q30 0 57.5 15t50.5 42.5t39.5 67t24.5 89.5q-3 20 -9 54t-12 72t-10.5 74t-4.5 60
v52h166v-52q0 -24 -4 -57.5t-10 -69.5t-12.5 -71t-11.5 -62q17 -100 61 -154.5t104 -54.5q56 0 94 29t60.5 76.5t32 106.5t9.5 119zM599 1119v33l69 292h187v-37l-201 -288h-55z" />
    <glyph glyph-name="uni0400" unicode="&#x400;" horiz-adv-x="1251" 
d="M59 53l172 27v1182l-172 26v53h1006v-321h-66l-32 217q-32 4 -77.5 7t-92.5 4.5t-89 2t-65 0.5h-219v-524h362l31 160h64v-412h-64l-31 162h-362v-547h264q62 0 117 1.5t99 3.5t75.5 5t46.5 6l57 248h66l-19 -354h-1071v53zM758 1453l-354 268v37h213l196 -272v-33h-55z
" />
    <glyph glyph-name="afii10023" unicode="&#x401;" horiz-adv-x="1251" 
d="M59 53l172 27v1182l-172 26v53h1006v-321h-66l-32 217q-32 4 -77.5 7t-92.5 4.5t-89 2t-65 0.5h-219v-524h362l31 160h64v-412h-64l-31 162h-362v-547h264q62 0 117 1.5t99 3.5t75.5 5t46.5 6l57 248h66l-19 -354h-1071v53zM905 1565q0 -42 -28 -71.5t-70 -29.5
q-21 0 -39 8t-31.5 22t-21.5 32t-8 39q0 42 29 71t71 29t70 -29t28 -71zM549 1565q0 -42 -28 -71.5t-70 -29.5q-21 0 -39 8t-32 22t-22 32t-8 39t8 39t22 31.5t32 21.5t39 8q42 0 70 -29t28 -71z" />
    <glyph glyph-name="afii10051" unicode="&#x402;" horiz-adv-x="1540" 
d="M1153 491q0 138 -58.5 209.5t-195.5 71.5q-54 0 -112 -8t-106 -19v-665l163 -27v-53h-529v53l173 27v1175h-51q-65 0 -114 -1.5t-85.5 -4.5t-62.5 -6.5t-44 -7.5l-27 -209h-67v315h1096v-315h-68l-27 209q-37 8 -113.5 13t-194.5 5h-49v-423q30 11 65.5 22t73 20
t75.5 14.5t74 5.5q98 0 169 -22t117 -69.5t68 -122t22 -179.5v-483q0 -91 -17 -160t-45 -119t-64.5 -83.5t-75.5 -53.5t-78 -28t-72 -8q-65 0 -117.5 8t-89.5 22v244h66l30 -139q19 -23 54 -36t77 -13q140 0 140 190v651z" />
    <glyph glyph-name="afii10052" unicode="&#x403;" horiz-adv-x="1184" 
d="M631 0h-572v53l172 26v1182l-172 27v53h1041l18 -385h-65l-62 279q-30 6 -109 13t-204 7h-254v-1176l207 -26v-53zM497 1453v33l196 272h213v-37l-354 -268h-55z" />
    <glyph glyph-name="afii10053" unicode="&#x404;" horiz-adv-x="1352" 
d="M877 645h-584q1 -149 34.5 -259.5t95.5 -183.5t151 -109t202 -36q62 0 118.5 8t105 22t87 32.5t64.5 38.5l37 200h65l-6 -315q-42 -12 -96 -23.5t-115 -20.5t-128 -14t-134 -5q-164 0 -292.5 46t-217 133t-134.5 212.5t-46 283.5q0 180 46.5 312t135 218.5t217.5 128.5
t295 42q69 0 130 -4.5t116.5 -11.5t105.5 -16t97 -19l6 -293h-66l-30 174q-70 43 -162.5 66.5t-188.5 23.5q-110 0 -197.5 -28t-150.5 -92t-99.5 -167.5t-43.5 -253.5h582v-90z" />
    <glyph glyph-name="afii10054" unicode="&#x405;" horiz-adv-x="1139" 
d="M139 361h65l35 -181q19 -24 53 -45.5t75.5 -38t87.5 -26t90 -9.5q76 0 132 20.5t92.5 56.5t54.5 85t18 107q0 72 -30.5 119t-80 79.5t-112.5 55t-129.5 45.5t-129.5 51t-112.5 71t-80 106.5t-30.5 156.5q0 78 30 141.5t88 108t142.5 68.5t192.5 24q99 0 188 -13t164 -30
v-279h-65l-35 164q-44 32 -108 53t-144 21q-74 0 -127.5 -16t-88.5 -43.5t-52 -65t-17 -80.5q0 -65 30.5 -108t80 -73.5t113 -52.5t130 -45.5t130 -53t113 -75t80 -111t30.5 -161.5q0 -93 -28.5 -168t-86 -128.5t-144 -82t-203.5 -28.5q-62 0 -122 6t-113 16t-98 23t-78 26
v310z" />
    <glyph glyph-name="afii10055" unicode="&#x406;" horiz-adv-x="682" 
d="M438 80l172 -27v-53h-536v53l172 27v1182l-172 26v53h536v-53l-172 -26v-1182z" />
    <glyph glyph-name="afii10056" unicode="&#x407;" horiz-adv-x="682" 
d="M438 80l172 -27v-53h-536v53l172 27v1182l-172 26v53h536v-53l-172 -26v-1182zM618 1565q0 -42 -28 -71.5t-70 -29.5q-21 0 -39 8t-31.5 22t-21.5 32t-8 39q0 42 29 71t71 29t70 -29t28 -71zM262 1565q0 -42 -28 -71.5t-70 -29.5q-21 0 -39 8t-32 22t-22 32t-8 39t8 39
t22 31.5t32 21.5t39 8q42 0 70 -29t28 -71z" />
    <glyph glyph-name="afii10057" unicode="&#x408;" horiz-adv-x="797" 
d="M410 1262l-172 26v53h516v-53l-152 -26v-830q0 -91 -17 -160t-45 -119t-64.5 -83.5t-75.5 -53.5t-78 -28t-72 -8q-65 0 -117.5 8t-89.5 22v244h66l30 -139q19 -23 54 -36t77 -13q140 0 140 190v1006z" />
    <glyph glyph-name="afii10058" unicode="&#x409;" horiz-adv-x="1786" 
d="M840 1251h-276l-27 -311q-21 -242 -48.5 -422t-68.5 -299.5t-99.5 -179t-141.5 -59.5q-45 0 -84.5 12t-68.5 35l-7 217h45l47 -89q15 -19 35.5 -28t43.5 -9q42 0 77.5 42.5t66 140t56 257.5t45.5 395l27 309l-172 26v53h956v-53l-213 -27v-516h201q138 0 231 -31t149 -83
t79.5 -120.5t23.5 -143.5q0 -76 -24.5 -142.5t-81.5 -116.5t-151.5 -79t-235.5 -29h-556v53l172 26v1172zM1517 363q0 69 -16 123t-54.5 91.5t-102 57.5t-157.5 20h-154v-565h148q94 0 158 16t103.5 49.5t57 85t17.5 122.5z" />
    <glyph glyph-name="afii10059" unicode="&#x40a;" horiz-adv-x="1786" 
d="M746 1288v53h537v-53l-170 -27v-516h121q138 0 231 -31t149 -83t79.5 -120.5t23.5 -143.5q0 -76 -24.5 -142.5t-81.5 -116.5t-151.5 -79t-235.5 -29h-476v53l172 26v566h-496v-565l172 -27v-53h-537v53l172 27v1182l-172 26v53h537v-53l-172 -26v-527h496v527zM1517 363
q0 69 -16 123t-54.5 91.5t-102 57.5t-157.5 20h-74v-565h68q94 0 158 16t103.5 49.5t57 85t17.5 122.5z" />
    <glyph glyph-name="afii10060" unicode="&#x40b;" horiz-adv-x="1518" 
d="M315 0v53l173 27v1175h-51q-65 0 -114 -1.5t-85.5 -4.5t-62.5 -6.5t-44 -7.5l-27 -209h-67v315h1094v-315h-68l-27 209q-37 8 -112.5 13t-193.5 5h-49v-423q30 11 65.5 22t73 20t75.5 14.5t74 5.5q98 0 167.5 -21.5t113.5 -68.5t64.5 -121t20.5 -179v-423l152 -26v-53
h-476v53l132 26v415q0 69 -12.5 121t-41 87t-75 52.5t-115.5 17.5q-54 0 -112 -8t-106 -19v-665l163 -27v-53h-529z" />
    <glyph glyph-name="afii10061" unicode="&#x40c;" horiz-adv-x="1366" 
d="M1315 1341v-53l-155 -26l-425 -452l493 -730l145 -27v-53h-338l-440 670l-171 -153v-437l192 -27v-53h-557v53l172 27v1182l-172 26v53h537v-53l-172 -26v-637l599 637l-128 26v53h420zM587 1453v33l196 272h213v-37l-354 -268h-55z" />
    <glyph glyph-name="uni040D" unicode="&#x40d;" horiz-adv-x="1479" 
d="M752 1449l-354 268v37h213l196 -272v-33h-55zM1155 1262l-180 26v53h457v-53l-172 -26v-1262h-97l-827 1206v-1126l180 -27v-53h-457v53l172 27v1182l-172 26v53h406l690 -993v914z" />
    <glyph glyph-name="afii10062" unicode="&#x40e;" horiz-adv-x="1450" 
d="M216 1262l-151 26v53h557v-53l-170 -26l395 -692l356 692l-150 26v53h396v-53l-127 -26l-439 -828q-58 -110 -107.5 -194.5t-100.5 -142.5t-108.5 -87.5t-132.5 -29.5q-45 0 -89 12t-73 31l-9 241h45l49 -97q17 -23 44.5 -36t55.5 -13q36 0 69.5 15t67 47t67.5 81.5
t70 119.5zM780 1456q-111 0 -181.5 22t-111 60.5t-56.5 89.5t-18 108h164q6 -103 58 -156t145 -53t145 53t58 156h164q-2 -57 -18 -108t-56.5 -89.5t-111 -60.5t-181.5 -22z" />
    <glyph glyph-name="afii10145" unicode="&#x40f;" horiz-adv-x="1479" 
d="M59 0v53l172 27v1182l-172 26v53h537v-53l-172 -26v-1172h631v1172l-172 26v53h536v-53l-172 -26v-1182l172 -27v-53h-575l-69 -436h-65l-70 436h-581z" />
    <glyph glyph-name="afii10017" unicode="&#x410;" horiz-adv-x="1479" 
d="M461 53v-53h-441v53l152 27l457 1272h190l475 -1272l170 -27v-53h-567v53l180 27l-133 387h-528l-135 -387zM676 1208l-230 -651h467z" />
    <glyph glyph-name="afii10018" unicode="&#x411;" horiz-adv-x="1176" 
d="M575 745q138 0 231 -30t148.5 -81.5t79 -119t23.5 -142.5q0 -76 -24 -143.5t-81 -118.5t-151.5 -80.5t-235.5 -29.5h-506v53l172 26v1182l-159 27v53h901l13 -309h-65l-57 203q-15 3 -43 6.5t-65.5 6.5t-82 5t-92.5 2h-157v-510h151zM858 363q0 69 -16 123t-54.5 91.5
t-102 57.5t-157.5 20h-104v-565h98q94 0 158 16t103.5 49.5t57 85t17.5 122.5z" />
    <glyph glyph-name="afii10019" unicode="&#x412;" horiz-adv-x="1366" 
d="M958 1016q0 59 -17.5 103t-56.5 73.5t-101 44t-152 14.5h-207v-507h219q93 0 154 19.5t96.5 55t50 85.5t14.5 112zM1059 382q0 70 -22.5 121t-70 84.5t-122.5 50t-180 16.5h-240v-564q46 -2 96 -3q43 -2 95 -2.5t103 -0.5q94 0 159 21t105.5 59.5t58.5 93.5t18 124zM59 0
v53l172 27v1182l-172 26v53h613q141 0 235 -21.5t151 -62.5t81 -99.5t24 -131.5q0 -63 -20.5 -115t-57 -91.5t-87.5 -66t-111 -39.5q87 -9 157.5 -35t119.5 -67.5t75.5 -98.5t26.5 -127q0 -87 -29.5 -159.5t-92.5 -124t-162 -80t-239 -28.5q-112 0 -223 3t-205 3h-256z" />
    <glyph glyph-name="afii10020" unicode="&#x413;" horiz-adv-x="1184" 
d="M631 0h-572v53l172 26v1182l-172 27v53h1041l18 -385h-65l-62 279q-30 6 -109 13t-204 7h-254v-1176l207 -26v-53z" />
    <glyph glyph-name="afii10021" unicode="&#x414;" horiz-adv-x="1397" 
d="M975 90v1161h-404q0 -171 -21 -334.5t-56 -313t-82 -280t-98 -233.5h661zM193 0l-97 -436h-65l-17 496l176 20q57 108 107.5 240t89 283t60.5 317t22 342l-172 26v53h1042v-53l-172 -26v-1182l180 -20l-17 -496h-65l-97 436h-975z" />
    <glyph glyph-name="afii10022" unicode="&#x415;" horiz-adv-x="1251" 
d="M59 53l172 27v1182l-172 26v53h1006v-321h-66l-32 217q-32 4 -77.5 7t-92.5 4.5t-89 2t-65 0.5h-219v-524h362l31 160h64v-412h-64l-31 162h-362v-547h264q62 0 117 1.5t99 3.5t75.5 5t46.5 6l57 248h66l-19 -354h-1071v53z" />
    <glyph glyph-name="afii10024" unicode="&#x416;" horiz-adv-x="1835" 
d="M821 543l-147 133l-378 -676h-296v53l121 27l430 736l-364 446l-136 26v53h352v-53l-84 -26l502 -626v626l-132 26v53h457v-53l-132 -26v-626l502 626l-84 26v53h352v-53l-136 -26l-364 -446l430 -736l121 -27v-53h-296l-376 676l-149 -133v-463l152 -27v-53h-477v53
l132 27v463z" />
    <glyph glyph-name="afii10025" unicode="&#x417;" horiz-adv-x="1026" 
d="M933 365q0 -91 -34 -162.5t-96.5 -121t-150.5 -75.5t-196 -26q-95 0 -184.5 12t-163.5 31l-11 282h66l43 -188q16 -10 43.5 -20t60 -17.5t65.5 -12t62 -4.5q88 0 144.5 23t89.5 64.5t45.5 99t12.5 125.5q0 78 -22 129.5t-60.5 83t-90 46t-110.5 17.5l-143 8v82l143 9
q56 3 101.5 20.5t77.5 50.5t49 81t17 113q0 130 -52.5 194t-177.5 64q-28 0 -58.5 -4.5t-59 -12t-53.5 -17t-41 -19.5l-33 -164h-66v258q70 18 145.5 30.5t169.5 12.5q100 0 180 -20t136 -61t85.5 -103t29.5 -146q0 -63 -20 -117.5t-59 -97t-96 -71t-130 -39.5
q174 -21 258 -104.5t84 -232.5z" />
    <glyph glyph-name="afii10026" unicode="&#x418;" horiz-adv-x="1479" 
d="M59 0v53l172 27v1182l-172 26v53h537v-53l-172 -26v-969l631 929v40l-172 26v53h536v-53l-172 -26v-1182l172 -27v-53h-536v53l172 27v982l-631 -929v-53l172 -27v-53h-537z" />
    <glyph glyph-name="afii10027" unicode="&#x419;" horiz-adv-x="1479" 
d="M59 0v53l172 27v1182l-172 26v53h537v-53l-172 -26v-969l631 929v40l-172 26v53h536v-53l-172 -26v-1182l172 -27v-53h-536v53l172 27v982l-631 -929v-53l172 -27v-53h-537zM742 1456q-111 0 -181.5 22t-111 60.5t-56.5 89.5t-18 108h164q6 -103 58 -156t145 -53t145 53
t58 156h164q-2 -57 -18 -108t-56.5 -89.5t-111 -60.5t-181.5 -22z" />
    <glyph glyph-name="afii10028" unicode="&#x41a;" horiz-adv-x="1366" 
d="M1315 1341v-53l-155 -26l-425 -452l493 -730l145 -27v-53h-338l-440 670l-171 -153v-437l192 -27v-53h-557v53l172 27v1182l-172 26v53h537v-53l-172 -26v-637l599 637l-128 26v53h420z" />
    <glyph glyph-name="afii10029" unicode="&#x41b;" horiz-adv-x="1389" 
d="M179 -20q-45 0 -84.5 12t-68.5 35l-7 217h45l47 -89q15 -19 35.5 -28t43.5 -9q42 0 77.5 42.5t66 140t56 257.5t45.5 395l27 309l-172 26v53h1040v-53l-172 -26v-1182l172 -27v-53h-536v53l172 27v1171h-402l-27 -311q-21 -242 -48.5 -422t-68.5 -299.5t-99.5 -179
t-141.5 -59.5z" />
    <glyph glyph-name="afii10030" unicode="&#x41c;" horiz-adv-x="1821" 
d="M862 0h-35l-491 1153v-1073l180 -27v-53h-457v53l172 27v1182l-172 26v53h406l436 -1020l476 1020h384v-53l-172 -26v-1182l172 -27v-53h-544v53l180 27v1073z" />
    <glyph glyph-name="afii10031" unicode="&#x41d;" horiz-adv-x="1479" 
d="M59 0v53l172 27v1182l-172 26v53h537v-53l-172 -26v-527h631v527l-172 26v53h536v-53l-172 -26v-1182l172 -27v-53h-536v53l172 27v565h-631v-565l172 -27v-53h-537z" />
    <glyph glyph-name="afii10032" unicode="&#x41e;" horiz-adv-x="1479" 
d="M293 672q0 -140 21 -253t72 -193t137 -123.5t216 -43.5t216 43.5t137.5 123.5t72.5 193t21 253q0 139 -21 251t-72.5 190.5t-137.5 120.5t-216 42t-216 -42t-137 -120.5t-72 -190.5t-21 -251zM84 672q0 178 43.5 307t126.5 213t205 124t280 40q153 0 274.5 -40
t206.5 -124t130 -213t45 -307t-45 -308.5t-130 -215.5t-206.5 -126.5t-274.5 -41.5t-274 41.5t-206 126.5t-130 215.5t-45 308.5z" />
    <glyph glyph-name="afii10033" unicode="&#x41f;" horiz-adv-x="1479" 
d="M59 0v53l172 27v1182l-172 26v53h1360v-53l-172 -26v-1182l172 -27v-53h-536v53l172 27v1171h-631v-1171l172 -27v-53h-537z" />
    <glyph glyph-name="afii10034" unicode="&#x420;" horiz-adv-x="1139" 
d="M858 944q0 80 -17.5 138t-57 95.5t-103.5 55.5t-158 18h-98v-635h104q94 0 157.5 22.5t102 64.5t54.5 103t16 138zM424 526v-446l213 -27v-53h-565v53l159 27v1182l-172 26v53h506q141 0 235.5 -30.5t151.5 -84t81 -125.5t24 -155q0 -82 -23.5 -158t-79 -134t-148.5 -93
t-231 -35h-151z" />
    <glyph glyph-name="afii10035" unicode="&#x421;" horiz-adv-x="1366" 
d="M774 -20q-164 0 -292.5 46t-217 133t-134.5 212.5t-46 283.5q0 180 46.5 312t135 218.5t217.5 128.5t295 42q69 0 130 -4.5t116.5 -11.5t105.5 -16t97 -19l6 -293h-66l-30 174q-70 43 -162.5 66.5t-188.5 23.5q-117 0 -208.5 -32t-154.5 -104.5t-96.5 -191t-33.5 -291.5
q0 -152 33 -264.5t95 -187t151.5 -111.5t203.5 -37q62 0 118.5 8t105 22t87 32.5t64.5 38.5l37 200h65l-6 -315q-42 -12 -96 -23.5t-115 -20.5t-128 -14t-134 -5z" />
    <glyph glyph-name="afii10036" unicode="&#x422;" horiz-adv-x="1251" 
d="M315 0v53l213 27v1175h-51q-131 0 -220 -6t-126 -14l-27 -209h-67v315h1180v-315h-68l-27 209q-18 4 -53.5 7t-82.5 5.5t-102.5 4t-113.5 1.5h-49v-1173l213 -27v-53h-619z" />
    <glyph glyph-name="afii10037" unicode="&#x423;" horiz-adv-x="1450" 
d="M216 1262l-151 26v53h557v-53l-170 -26l395 -692l356 692l-150 26v53h396v-53l-127 -26l-439 -828q-58 -110 -107.5 -194.5t-100.5 -142.5t-108.5 -87.5t-132.5 -29.5q-45 0 -89 12t-73 31l-9 241h45l49 -97q17 -23 44.5 -36t55.5 -13q36 0 69.5 15t67 47t67.5 81.5
t70 119.5z" />
    <glyph glyph-name="afii10038" unicode="&#x424;" horiz-adv-x="1618" 
d="M905 80l172 -27v-53h-536v53l172 27v142h-97q-102 0 -181 19.5t-138.5 53.5t-100 80t-66 98t-36.5 108t-11 111t11.5 109.5t37.5 104t67.5 92t102 73.5t141 48.5t184.5 17.5h86v125l-172 26v53h536v-53l-172 -26v-125h87q104 0 184.5 -17.5t141 -48.5t102 -73.5t67.5 -92
t37.5 -104t11.5 -109.5t-11 -111t-36.5 -108t-66 -98t-100 -80t-138.5 -53.5t-181 -19.5h-98v-142zM954 300q109 0 183 32t118 86t63 124.5t19 147.5q0 80 -20 147.5t-66 117t-120.5 77.5t-183.5 28h-42v-760h49zM282 690q0 -77 19 -147.5t63 -124.5t117.5 -86t183.5 -32h48
v760h-41q-109 0 -183.5 -28t-120.5 -77.5t-66 -117t-20 -147.5z" />
    <glyph glyph-name="afii10039" unicode="&#x425;" horiz-adv-x="1479" 
d="M317 80l166 -27v-53h-438v53l148 27l456 606l-389 576l-151 26v53h553v-53l-170 -26l278 -414l311 414l-166 26v53h439v-53l-148 -26l-377 -502l461 -680l152 -27v-53h-553v53l170 27l-352 520z" />
    <glyph glyph-name="afii10040" unicode="&#x426;" horiz-adv-x="1479" 
d="M1247 80l180 -20l-17 -496h-65l-107 436h-1179v53l172 27v1182l-172 26v53h537v-53l-172 -26v-1172h631v1172l-172 26v53h536v-53l-172 -26v-1182z" />
    <glyph glyph-name="afii10041" unicode="&#x427;" horiz-adv-x="1331" 
d="M1272 0h-556v53l192 27v449q-27 -10 -68.5 -23.5t-89.5 -26t-99 -21.5t-97 -9q-103 0 -175.5 24t-118 74.5t-66.5 128.5t-21 186v400l-152 26v53h516v-53l-172 -26v-399q0 -75 13 -130.5t43.5 -91.5t81 -54t124.5 -18q36 0 74.5 4.5t76 11.5t71 15t59.5 14v648l-172 26
v53h536v-53l-172 -26v-1182l172 -27v-53z" />
    <glyph glyph-name="afii10042" unicode="&#x428;" horiz-adv-x="2066" 
d="M59 0v53l172 27v1182l-172 26v53h537v-53l-172 -26v-1172h513v1172l-172 26v53h536v-53l-172 -26v-1172h514v1172l-172 26v53h536v-53l-172 -26v-1182l172 -27v-53h-1948z" />
    <glyph glyph-name="afii10043" unicode="&#x429;" horiz-adv-x="2066" 
d="M1835 80l180 -20l-17 -496h-65l-107 436h-1767v53l172 27v1182l-172 26v53h537v-53l-172 -26v-1172h513v1172l-172 26v53h536v-53l-172 -26v-1172h514v1172l-172 26v53h536v-53l-172 -26v-1182z" />
    <glyph glyph-name="afii10044" unicode="&#x42a;" horiz-adv-x="1446" 
d="M1378 371q0 -76 -24 -143.5t-81 -118t-151.5 -80t-235.5 -29.5h-506v53l172 26v1176h-51q-131 -2 -220 -7t-126 -13l-27 -209h-67v315h897v-53l-213 -27v-516h151q138 0 231 -30.5t148.5 -81.5t79 -119t23.5 -143zM1179 363q0 69 -16 123t-54.5 91.5t-102 57.5t-157.5 20
h-104v-565h98q94 0 158 16t103.5 49.5t57 85t17.5 122.5z" />
    <glyph glyph-name="afii10045" unicode="&#x42b;" horiz-adv-x="1786" 
d="M908 363q0 69 -16 123t-54.5 91.5t-102 57.5t-157.5 20h-154v-565h148q94 0 158 16t103.5 49.5t57 85t17.5 122.5zM625 745q138 0 231 -31t149 -83t79.5 -120.5t23.5 -143.5q0 -76 -24.5 -142.5t-81.5 -116.5t-151.5 -79t-235.5 -29h-556v53l172 26v1182l-159 27v53h565
v-53l-213 -27v-516h201zM1552 80l172 -27v-53h-536v53l172 27v1182l-172 26v53h536v-53l-172 -26v-1182z" />
    <glyph glyph-name="afii10046" unicode="&#x42c;" horiz-adv-x="1176" 
d="M908 363q0 69 -16 123t-54.5 91.5t-102 57.5t-157.5 20h-154v-565h148q94 0 158 16t103.5 49.5t57 85t17.5 122.5zM625 745q138 0 231 -31t149 -83t79.5 -120.5t23.5 -143.5q0 -76 -24.5 -142.5t-81.5 -116.5t-151.5 -79t-235.5 -29h-556v53l172 26v1182l-159 27v53h565
v-53l-213 -27v-516h201z" />
    <glyph glyph-name="afii10047" unicode="&#x42d;" horiz-adv-x="1352" 
d="M578 -20q-136 0 -255 19t-204 44l-6 315h65l37 -200q53 -41 144.5 -71t216.5 -30q112 0 200 36.5t150 110t95.5 184t35.5 257.5h-580v90h580q-6 152 -38.5 255.5t-91 167t-143 91t-194.5 27.5q-96 0 -188.5 -23.5t-162.5 -66.5l-30 -174h-66l6 293q47 10 97 19t105.5 16
t116.5 11.5t130 4.5q166 0 291 -40t209 -123.5t126.5 -213.5t42.5 -310q0 -158 -46 -285.5t-134 -217t-216.5 -138t-292.5 -48.5z" />
    <glyph glyph-name="afii10048" unicode="&#x42e;" horiz-adv-x="2105" 
d="M424 735h367q7 161 51 278.5t122 193.5t189 112.5t252 36.5q144 0 258 -40t193.5 -124t122 -213t42.5 -307t-42.5 -308.5t-122 -215.5t-193.5 -126.5t-258 -41.5q-141 0 -253 40t-191.5 121.5t-123.5 207t-47 296.5h-366v-565l172 -27v-53h-537v53l172 27v1182l-172 26
v53h537v-53l-172 -26v-527zM999 672q0 -140 19 -253t65.5 -193t125 -123.5t196.5 -43.5t196.5 43.5t125 123.5t66 193t19.5 253q0 139 -19.5 251t-66 190.5t-125 120.5t-196.5 42t-196.5 -42t-125 -120.5t-65.5 -190.5t-19 -251z" />
    <glyph glyph-name="afii10049" unicode="&#x42f;" horiz-adv-x="1366" 
d="M653 588l-324 -588h-321v53l151 27l306 534q-54 16 -102 47t-83 77t-55.5 107t-20.5 138q0 83 27 149t87 112.5t157 71.5t238 25h594v-53l-172 -26v-1182l159 -27v-53h-555v53l203 27v508h-289zM403 969q0 -77 17 -132t56 -90.5t102 -52t155 -16.5h209v573h-186
q-90 0 -156.5 -14t-110 -47t-65 -87t-21.5 -134z" />
    <glyph glyph-name="afii10065" unicode="&#x430;" horiz-adv-x="909" 
d="M465 961q64 0 119 -12t95 -41t62.5 -78.5t22.5 -124.5v-635l117 -25v-45h-258l-19 94q-15 -15 -40.5 -35t-61.5 -37.5t-83.5 -29.5t-105.5 -12q-68 0 -114.5 21t-74.5 58.5t-40 89t-12 111.5q0 62 15 107.5t42 76.5t63.5 50.5t79 30.5t90 15t95.5 5l141 4v147
q0 42 -7 76.5t-23.5 59.5t-44.5 39t-70 14q-48 0 -97 -13t-86 -34l-34 -117h-56v205q65 14 134.5 24.5t150.5 10.5zM598 479l-131 -4q-59 -2 -102 -11.5t-71 -32.5t-42 -63t-14 -102q0 -176 143 -176q68 0 117.5 15.5t99.5 39.5v334z" />
    <glyph glyph-name="afii10066" unicode="&#x431;" horiz-adv-x="1042" 
d="M96 578q0 176 20.5 316t72 240.5t138 160.5t218.5 76q62 7 118.5 13.5t101 16.5t74.5 25t41 40h50q-3 -79 -28 -123.5t-73.5 -69.5t-120.5 -36t-169 -23q-108 -13 -170 -41t-95 -80t-44.5 -133t-17.5 -200h7q15 42 42.5 79.5t68 65t92.5 44t116 16.5q212 0 319 -124.5
t107 -365.5q0 -239 -107 -367t-333 -128q-212 0 -320 146.5t-108 451.5zM784 475q0 97 -13 173.5t-43.5 129t-80.5 80t-123 27.5q-74 0 -122 -27.5t-76 -80t-39 -129t-11 -173.5q0 -98 14.5 -175t44.5 -130.5t77 -82t112 -28.5q73 0 123 28.5t80.5 82t43.5 130.5t13 175z
" />
    <glyph glyph-name="afii10067" unicode="&#x432;" horiz-adv-x="967" 
d="M37 0v45l125 25v800l-125 25v45h402q91 0 165.5 -9.5t127.5 -35t82 -69.5t29 -113q0 -96 -54.5 -148t-154.5 -75v-8q127 -14 195 -65t68 -153q0 -68 -23 -117.5t-74.5 -82t-134.5 -48.5t-203 -16h-425zM447 80q65 0 115.5 8.5t85 30t52 58t17.5 91.5q0 52 -18.5 86.5
t-54.5 54t-89 27.5t-121 8h-106v-364h119zM328 524h106q68 0 112.5 12t70.5 35t36 55.5t10 73.5q0 81 -55.5 120.5t-177.5 39.5h-102v-336z" />
    <glyph glyph-name="afii10068" unicode="&#x433;" horiz-adv-x="840" 
d="M787 672h-55l-43 166q-35 6 -88.5 12.5t-110.5 6.5h-162v-787l154 -25v-45h-445v45l125 25v800l-125 25v45h750v-268z" />
    <glyph glyph-name="afii10069" unicode="&#x434;" horiz-adv-x="1042" 
d="M232 895v45h732v-45l-114 -25v-800l146 -16l-17 -450h-65l-87 396h-658l-87 -396h-65l-17 450l148 19q39 74 73.5 164t62.5 191.5t47 213t27 228.5zM253 83h431v787h-240q-7 -116 -24 -226.5t-42 -211t-57 -189t-68 -160.5z" />
    <glyph glyph-name="afii10070" unicode="&#x435;" horiz-adv-x="909" 
d="M260 473v-18q0 -73 10.5 -140t42 -118.5t88.5 -82t150 -30.5q30 0 63 2.5t66 6.5t64 9t57 11v-56q-23 -15 -55.5 -28.5t-71.5 -24.5t-83 -17.5t-89 -6.5q-117 0 -197.5 32t-130.5 95t-72 156t-22 214q0 246 103 367t294 121q75 0 140.5 -20t114.5 -67t77.5 -126
t28.5 -197v-82h-578zM477 885q-56 0 -96.5 -23.5t-67 -66.5t-39 -104.5t-12.5 -137.5h402q0 76 -8.5 137.5t-30 104.5t-57.5 66.5t-91 23.5z" />
    <glyph glyph-name="afii10072" unicode="&#x436;" horiz-adv-x="1415" 
d="M630 371l-128 102l-288 -473h-222v45l76 23l330 519l-254 285l-101 23v45h306v-45l-88 -27l369 -414v416l-85 25v45h325v-45l-84 -25v-416l369 414l-88 27v45h306v-45l-101 -23l-254 -285l330 -519l76 -23v-45h-222l-288 473l-128 -102v-301l84 -25v-45h-325v45l85 25
v301z" />
    <glyph glyph-name="afii10073" unicode="&#x437;" horiz-adv-x="809" 
d="M545 486q43 -7 78.5 -25.5t61.5 -45.5t40.5 -61t14.5 -72q0 -148 -103 -225t-313 -77q-39 0 -80 6t-77 15.5t-65 22.5t-44 27v60q41 -12 100 -19.5t121 -7.5q83 0 137.5 15t86.5 41t44.5 61.5t12.5 76.5q0 43 -17 74t-45 51t-64.5 30t-75.5 10h-120v83h121q49 0 84 14
t58 37.5t34 55t11 67.5q0 91 -44.5 138t-150.5 47q-41 0 -85 -13t-73 -34l-36 -136h-55v232q56 12 118.5 21.5t137.5 9.5q189 0 275 -61t86 -191q0 -81 -48 -136.5t-126 -84.5v-6z" />
    <glyph glyph-name="afii10074" unicode="&#x438;" horiz-adv-x="1096" 
d="M162 870l-125 25v45h405v-45l-114 -25v-591l440 476v115l-125 25v45h405v-45l-114 -25v-800l114 -25v-45h-405v45l125 25v572l-440 -476v-96l114 -25v-45h-405v45l125 25v800z" />
    <glyph glyph-name="afii10075" unicode="&#x439;" horiz-adv-x="1096" 
d="M162 870l-125 25v45h405v-45l-114 -25v-591l440 476v115l-125 25v45h405v-45l-114 -25v-800l114 -25v-45h-405v45l125 25v572l-440 -476v-96l114 -25v-45h-405v45l125 25v800zM544 1122q-111 0 -181.5 22t-111 60.5t-56.5 89.5t-18 108h164q6 -103 58 -156t145 -53
t145 53t58 156h164q-2 -57 -18 -108t-56.5 -89.5t-111 -60.5t-181.5 -22z" />
    <glyph glyph-name="afii10076" unicode="&#x43a;" horiz-adv-x="995" 
d="M162 870l-125 25v45h405v-45l-114 -25v-416l384 414l-98 27v45h332v-45l-117 -23l-268 -274l344 -530l92 -23v-45h-375v45l86 25l-258 405l-122 -104v-301l114 -25v-45h-405v45l125 25v800z" />
    <glyph glyph-name="afii10077" unicode="&#x43b;" horiz-adv-x="1022" 
d="M145 86q21 0 40 26t38.5 87t40 160.5t43.5 245.5l42 265l-131 25v45h756v-45l-114 -25v-800l114 -25v-45h-405v45l125 25v787h-255l-43 -279q-21 -136 -41.5 -246.5t-49 -188.5t-71 -120.5t-106.5 -42.5q-33 0 -60.5 10.5t-41.5 22.5l-6 163h45l31 -53q6 -11 19.5 -24
t29.5 -13z" />
    <glyph glyph-name="afii10078" unicode="&#x43c;" horiz-adv-x="1296" 
d="M162 870l-115 25v45h333l270 -681l276 681h322v-45l-114 -25v-800l114 -25v-45h-385v45l105 25v749l-332 -819h-54l-324 816v-746l94 -25v-45h-305v45l115 25v800z" />
    <glyph glyph-name="afii10079" unicode="&#x43d;" horiz-adv-x="1096" 
d="M162 870l-125 25v45h405v-45l-114 -25v-348h440v348l-125 25v45h405v-45l-114 -25v-800l114 -25v-45h-405v45l125 25v369h-440v-369l114 -25v-45h-405v45l125 25v800z" />
    <glyph glyph-name="afii10080" unicode="&#x43e;" 
d="M946 475q0 -239 -107 -367t-333 -128q-212 0 -320 127t-108 368q0 238 108 364t328 126q214 0 323 -123.5t109 -366.5zM766 475q0 97 -13 173.5t-43.5 129t-80.5 80t-123 27.5q-74 0 -122 -27.5t-76 -80t-39 -129t-11 -173.5q0 -98 11 -175t39 -130.5t76 -82t122 -28.5
q73 0 123 28.5t80.5 82t43.5 130.5t13 175z" />
    <glyph glyph-name="afii10081" unicode="&#x43f;" horiz-adv-x="1096" 
d="M162 870l-125 25v45h1011v-45l-114 -25v-800l114 -25v-45h-405v45l125 25v787h-440v-787l114 -25v-45h-405v45l125 25v800z" />
    <glyph glyph-name="afii10082" unicode="&#x440;" 
d="M152 870l-107 25v45h264l2 -55q21 18 49.5 32.5t61.5 25t70 16.5t75 6q88 0 158 -31t119 -92.5t74.5 -152t25.5 -208.5q0 -115 -26 -207.5t-78 -158t-130.5 -100.5t-183.5 -35q-51 0 -107.5 5.5t-107.5 16.5q1 -12 2.5 -27.5t2 -32t1 -30.5t0.5 -23v-254l164 -24v-47
h-448v47l119 24v1235zM764 481q0 102 -17 174t-49.5 117.5t-79.5 66.5t-106 21q-48 0 -102.5 -8.5t-92.5 -24.5v-751q42 -8 93 -12.5t102 -4.5q132 0 192 109.5t60 312.5z" />
    <glyph glyph-name="afii10083" unicode="&#x441;" horiz-adv-x="909" 
d="M846 57q-26 -19 -62 -33.5t-77 -24t-85.5 -14.5t-86.5 -5q-122 0 -208.5 33.5t-141.5 97.5t-81 156.5t-26 209.5q0 128 33.5 220.5t93.5 152t142.5 87.5t180.5 28q81 0 157 -9.5t138 -21.5v-262h-55l-43 166q-37 21 -89.5 34t-109.5 13q-65 0 -114.5 -23.5t-84 -73.5
t-52 -127t-17.5 -184q0 -90 15 -162.5t53 -123.5t102.5 -79t163.5 -28q34 0 69.5 2.5t69 7t63 10.5t52.5 13v-60z" />
    <glyph glyph-name="afii10084" unicode="&#x442;" horiz-adv-x="895" 
d="M865 940v-268h-55l-43 166q-35 6 -88.5 12.5t-110.5 6.5h-38v-787l134 -25v-45h-445v45l145 25v787h-37q-57 0 -110.5 -6.5t-88.5 -12.5l-43 -166h-55v268h835z" />
    <glyph glyph-name="afii10085" unicode="&#x443;" 
d="M918 874l-367 -933q-32 -81 -65 -151t-73.5 -121.5t-92.5 -81t-121 -29.5q-26 0 -45.5 1t-36.5 3.5t-34 5.5t-38 8v203h47l33 -96q31 -23 86 -23q43 0 78 19t64.5 53.5t53.5 81.5t46 104l26 72l-358 880l-96 25v45h436v-45l-148 -27l254 -657l246 659l-147 25v45h350v-45
z" />
    <glyph glyph-name="afii10086" unicode="&#x444;" horiz-adv-x="1327" 
d="M900 -20q-41 0 -85.5 13t-74.5 30q1 -12 2.5 -32t2 -42t1 -40.5t0.5 -27.5v-246l124 -24v-47h-406v47l119 24v245q0 45 1 89.5t3 79.5q-15 -11 -34.5 -23t-44 -22t-53.5 -17t-63 -7q-317 0 -317 481q0 117 22 210.5t65.5 159t109.5 100t154 34.5q41 0 84.5 -12t77.5 -26
q0 13 -1 37.5t-2 51t-1.5 52t-0.5 40.5v244l-115 24v45h278v-343q0 -12 -0.5 -41.5t-1.5 -59.5q-1 -35 -1 -76q35 25 87 44.5t115 19.5q144 0 225.5 -123.5t81.5 -360.5q0 -115 -23 -207.5t-67.5 -158t-110 -100.5t-151.5 -35zM255 461q0 -105 13 -178.5t37.5 -120t59 -67.5
t76.5 -21q44 0 79.5 10.5t62.5 25.5v749q-32 10 -65.5 15t-70.5 5q-95 0 -143.5 -105t-48.5 -313zM1074 481q0 102 -13 176t-37 121t-58.5 69.5t-78.5 22.5q-35 0 -73.5 -8.5t-67.5 -22.5v-746q11 -6 27 -11.5t35 -9.5t39.5 -6.5t39.5 -2.5q98 0 142.5 107.5t44.5 310.5z
" />
    <glyph glyph-name="afii10087" unicode="&#x445;" 
d="M889 66l110 -21v-45h-426v45l125 23l-217 333l-254 -335l129 -21v-45h-338v45l109 16l309 408l-272 401l-111 25v45h426v-45l-125 -27l181 -270l208 272l-129 25v45h338v-45l-108 -21l-264 -342z" />
    <glyph glyph-name="afii10088" unicode="&#x446;" horiz-adv-x="1096" 
d="M37 0v45l125 25v800l-125 25v45h405v-45l-114 -25v-787h440v787l-125 25v45h405v-45l-114 -25v-800l116 -16l-17 -450h-65l-97 396h-834z" />
    <glyph glyph-name="afii10089" unicode="&#x447;" horiz-adv-x="1030" 
d="M322 552q0 -29 9.5 -55t27.5 -45.5t45 -30.5t62 -11q56 0 117 9.5t118 23.5v427l-125 25v45h405v-45l-114 -25v-800l114 -25v-45h-405v45l125 25v317q-35 -17 -73.5 -34t-78 -30.5t-79.5 -21.5t-79 -8q-69 0 -114.5 22.5t-72 58.5t-37.5 82t-11 93v321l-125 25v45h405
v-45l-114 -25v-318z" />
    <glyph glyph-name="afii10090" unicode="&#x448;" horiz-adv-x="1577" 
d="M35 0v45l125 25v800l-125 25v45h405v-45l-114 -25v-787h378v787l-125 25v45h405v-45l-114 -25v-787h377v787l-125 25v45h405v-45l-114 -25v-800l125 -25v-45h-1503z" />
    <glyph glyph-name="afii10091" unicode="&#x449;" horiz-adv-x="1577" 
d="M35 0v45l125 25v800l-125 25v45h405v-45l-114 -25v-787h378v787l-125 25v45h405v-45l-114 -25v-787h377v787l-125 25v45h405v-45l-114 -25v-800l116 -16l-17 -480h-65l-97 426h-1315z" />
    <glyph glyph-name="afii10092" unicode="&#x44a;" horiz-adv-x="1059" 
d="M597 940v-45l-125 -25v-346h99q112 0 192 -15t132 -45.5t76.5 -78t24.5 -112.5q0 -71 -21.5 -122.5t-72 -85t-132.5 -49.5t-202 -16h-387v45l125 25v787q-50 -1 -93.5 -3t-78.5 -7l-43 -175h-55v268h561zM553 80q62 0 111 8.5t82.5 30t51.5 58t18 91.5q0 52 -17 86.5
t-50 54t-82.5 27.5t-113.5 8h-81v-364h81z" />
    <glyph glyph-name="afii10093" unicode="&#x44b;" horiz-adv-x="1376" 
d="M429 80q62 0 111 8.5t82.5 30t51.5 58t18 91.5q0 52 -17 86.5t-50 54t-82.5 27.5t-113.5 8h-101v-364h101zM453 940v-45l-125 -25v-346h119q112 0 192 -15t132 -45.5t76.5 -78t24.5 -112.5q0 -71 -21.5 -122.5t-72 -85t-132.5 -49.5t-202 -16h-407v45l125 25v800l-125 25
v45h416zM1048 870l-125 25v45h405v-45l-114 -25v-800l114 -25v-45h-405v45l125 25v800z" />
    <glyph glyph-name="afii10094" unicode="&#x44c;" horiz-adv-x="934" 
d="M429 80q62 0 111 8.5t82.5 30t51.5 58t18 91.5q0 52 -17 86.5t-50 54t-82.5 27.5t-113.5 8h-101v-364h101zM453 940v-45l-125 -25v-346h119q112 0 192 -15t132 -45.5t76.5 -78t24.5 -112.5q0 -71 -21.5 -122.5t-72 -85t-132.5 -49.5t-202 -16h-407v45l125 25v800l-125 25
v45h416z" />
    <glyph glyph-name="afii10095" unicode="&#x44d;" horiz-adv-x="879" 
d="M218 526h402q-7 180 -68.5 269.5t-183.5 89.5q-52 0 -99 -13t-79 -34l-40 -166h-55v262q62 12 130 21.5t149 9.5q97 0 176 -27.5t135 -86t86 -150t30 -219.5q0 -117 -30.5 -210.5t-91 -158t-152 -99t-212.5 -34.5q-84 0 -149 21.5t-97 49.5v60q46 -13 104 -20t126 -7
q87 0 147 25.5t97.5 72.5t55.5 113.5t21 147.5h-402v83z" />
    <glyph glyph-name="afii10096" unicode="&#x44e;" horiz-adv-x="1530" 
d="M1452 475q0 -239 -107 -367t-333 -128q-205 0 -312 117t-115 342h-258v-369l114 -25v-45h-405v45l125 25v800l-125 25v45h405v-45l-114 -25v-348h258q10 216 118 329.5t317 113.5q214 0 323 -123.5t109 -366.5zM1272 475q0 97 -13 173.5t-43.5 129t-80.5 80t-123 27.5
q-74 0 -122 -27.5t-76 -80t-39 -129t-11 -173.5q0 -98 11 -175t39 -130.5t76 -82t122 -28.5q73 0 123 28.5t80.5 82t43.5 130.5t13 175z" />
    <glyph glyph-name="afii10097" unicode="&#x44f;" horiz-adv-x="942" 
d="M234 0h-228v45l81 23l223 366q-100 23 -155.5 89t-55.5 162q0 72 29 120.5t81.5 78.5t126 43t161.5 13h408v-45l-125 -25v-800l125 -25v-45h-414v45l123 26v333h-146zM614 860h-102q-122 0 -177.5 -45.5t-55.5 -134.5q0 -41 10.5 -76.5t36 -62t67 -42t104.5 -15.5h117
v376z" />
    <glyph glyph-name="uni0450" unicode="&#x450;" horiz-adv-x="909" 
d="M526 1097l-354 268v37h213l196 -272v-33h-55zM260 473v-18q0 -73 10.5 -140t42 -118.5t88.5 -82t150 -30.5q30 0 63 2.5t66 6.5t64 9t57 11v-56q-23 -15 -55.5 -28.5t-71.5 -24.5t-83 -17.5t-89 -6.5q-117 0 -197.5 32t-130.5 95t-72 156t-22 214q0 246 103 367t294 121
q75 0 140.5 -20t114.5 -67t77.5 -126t28.5 -197v-82h-578zM477 885q-56 0 -96.5 -23.5t-67 -66.5t-39 -104.5t-12.5 -137.5h402q0 76 -8.5 137.5t-30 104.5t-57.5 66.5t-91 23.5z" />
    <glyph glyph-name="afii10071" unicode="&#x451;" horiz-adv-x="909" 
d="M260 473v-18q0 -73 10.5 -140t42 -118.5t88.5 -82t150 -30.5q30 0 63 2.5t66 6.5t64 9t57 11v-56q-23 -15 -55.5 -28.5t-71.5 -24.5t-83 -17.5t-89 -6.5q-117 0 -197.5 32t-130.5 95t-72 156t-22 214q0 246 103 367t294 121q75 0 140.5 -20t114.5 -67t77.5 -126
t28.5 -197v-82h-578zM477 885q-56 0 -96.5 -23.5t-67 -66.5t-39 -104.5t-12.5 -137.5h402q0 76 -8.5 137.5t-30 104.5t-57.5 66.5t-91 23.5zM771 1194q0 -42 -28 -71.5t-70 -29.5q-21 0 -39 8t-31.5 22t-21.5 32t-8 39q0 42 29 71t71 29t70 -29t28 -71zM415 1194
q0 -42 -28 -71.5t-70 -29.5q-21 0 -39 8t-32 22t-22 32t-8 39t8 39t22 31.5t32 21.5t39 8q42 0 70 -29t28 -71z" />
    <glyph glyph-name="afii10099" unicode="&#x452;" horiz-adv-x="989" 
d="M22 1192h138v160l-140 24v45h306v-229h261v-83h-261v-115q0 -14 -0.5 -34t-1 -41.5t-2 -41.5t-3.5 -33q28 16 68 34t83.5 33t87 24.5t79.5 9.5q54 0 99 -15t77.5 -48t51 -86t18.5 -128v-707q0 -106 -21.5 -181.5t-61 -123.5t-94 -70t-120.5 -22q-44 0 -76 5t-69 13v199
h47l27 -109q33 -28 83 -28q59 0 89 63t30 203v746q0 83 -40.5 127.5t-125.5 44.5q-28 0 -59.5 -3t-62.5 -7t-58 -9.5t-45 -9.5v-729l127 -25v-45h-412v45l119 25v1039h-138v83z" />
    <glyph glyph-name="afii10100" unicode="&#x453;" horiz-adv-x="840" 
d="M787 672h-55l-43 166q-35 6 -88.5 12.5t-110.5 6.5h-162v-787l154 -25v-45h-445v45l125 25v800l-125 25v45h750v-268zM283 1119v33l196 272h213v-37l-354 -268h-55z" />
    <glyph glyph-name="afii10101" unicode="&#x454;" horiz-adv-x="879" 
d="M846 57q-26 -19 -62 -33.5t-77 -24t-85.5 -14.5t-86.5 -5q-122 0 -208.5 33.5t-141.5 97.5t-81 156.5t-26 209.5q0 128 33.5 220.5t93.5 152t142.5 87.5t180.5 28q81 0 157 -9.5t138 -21.5v-262h-55l-43 166q-37 21 -89.5 34t-109.5 13q-121 0 -189.5 -84.5t-77.5 -268.5
h342v-80h-343q2 -84 18.5 -152t54.5 -116t101.5 -74t159.5 -26q34 0 69.5 2.5t69 7t63 10.5t52.5 13v-60z" />
    <glyph glyph-name="afii10102" unicode="&#x455;" horiz-adv-x="797" 
d="M723 264q0 -63 -19.5 -115.5t-61.5 -90t-108.5 -58t-160.5 -20.5q-47 0 -92.5 5.5t-84.5 13t-68 15.5t-42 13v231h45l49 -131q31 -28 80 -48t115 -20q93 0 143.5 40.5t50.5 125.5q0 50 -21 82.5t-55 54.5t-77.5 36.5t-89 29.5t-89 34t-77.5 49t-55 75t-21 112
q0 64 23 114t64.5 84t99 51.5t126.5 17.5q68 0 133 -9.5t125 -21.5v-205h-47l-42 109q-26 23 -71 35t-96 12q-81 0 -123.5 -40t-42.5 -108q0 -46 21 -75.5t55.5 -50t78.5 -35.5t90 -31t90 -36.5t78.5 -52.5t55.5 -78t21 -114z" />
    <glyph glyph-name="afii10103" unicode="&#x456;" horiz-adv-x="569" 
d="M369 70l161 -25v-45h-487v45l160 25v800l-133 25v45h299v-870zM398 1247q0 -22 -8.5 -41.5t-23.5 -34.5t-35 -23.5t-42 -8.5t-41.5 8.5t-34.5 23.5t-23.5 34.5t-8.5 41.5t8.5 42t23.5 35t34.5 23.5t41.5 8.5t42 -8.5t35 -23.5t23.5 -35t8.5 -42z" />
    <glyph glyph-name="afii10104" unicode="&#x457;" horiz-adv-x="569" 
d="M369 70l161 -25v-45h-487v45l160 25v800l-133 25v45h299v-870zM564 1194q0 -42 -28 -71.5t-70 -29.5q-21 0 -39 8t-31.5 22t-21.5 32t-8 39q0 42 29 71t71 29t70 -29t28 -71zM208 1194q0 -42 -28 -71.5t-70 -29.5q-21 0 -39 8t-32 22t-22 32t-8 39t8 39t22 31.5t32 21.5
t39 8q42 0 70 -29t28 -71z" />
    </font>
</defs>
</svg>
