<?xml version="1.0" standalone="no"?>
<!DOCTYPE svg PUBLIC "-//W3C//DTD SVG 1.1//EN" "http://www.w3.org/Graphics/SVG/1.1/DTD/svg11.dtd" >
<svg>
<metadata>
Created by FontForge 20110222 at Mon Jun 27 20:33:57 2011
 By Application Server
Copyright (c) 2007 Red Hat, Inc. All rights reserved. LIBERATION is a trademark of Red Hat, Inc.
</metadata>
<defs>
<font id="LiberationMono-BoldItalic" horiz-adv-x="1229" >
  <font-face 
    font-family="Liberation Mono"
    font-weight="700"
    font-style="italic"
    font-stretch="normal"
    units-per-em="2048"
    panose-1="2 7 7 9 2 2 5 9 4 4"
    ascent="1638"
    descent="-410"
    x-height="1082"
    cap-height="1349"
    bbox="-193 -615 1429 1705"
    underline-thickness="205"
    underline-position="-375"
    slope="-12"
    unicode-range="U+0020-FB02"
  />
<missing-glyph 
d="M68 0v1365h544v-1365h-544zM136 68h408v1229h-408v-1229z" />
    <glyph glyph-name=".notdef" 
d="M68 0v1365h544v-1365h-544zM136 68h408v1229h-408v-1229z" />
    <glyph glyph-name=".null" horiz-adv-x="0" 
 />
    <glyph glyph-name="nonmarkingreturn" horiz-adv-x="682" 
 />
    <glyph glyph-name="uni00A0" unicode=" " 
 />
    <glyph glyph-name="uni00A0" unicode="&#xa0;" 
 />
    <glyph glyph-name="exclam" unicode="!" 
d="M708 426h-230l147 923h294zM363 0l52 270h288l-52 -270h-288z" />
    <glyph glyph-name="quotedbl" unicode="&#x22;" 
d="M1001 844h-199l88 641h275zM545 844h-199l88 641h273z" />
    <glyph glyph-name="numbersign" unicode="#" 
d="M1008 835l-132 -324h237l-29 -149h-270l-148 -362h-155l149 362h-309l-148 -362h-153l148 362h-174l29 149h206l133 324h-227l29 148h259l150 366h153l-149 -366h308l150 366h153l-149 -366h185l-29 -148h-217zM545 835l-133 -324h309l133 324h-309z" />
    <glyph glyph-name="dollar" unicode="$" 
d="M1123 393q-16 -85 -57.5 -154.5t-110 -120t-165 -80t-223.5 -34.5l-34 -175h-109l33 172q-113 4 -192 31t-129 76t-73 119.5t-23 161.5l265 47q-1 -48 6.5 -87.5t29 -68.5t59 -47.5t97.5 -24.5l76 391q-2 2 -13.5 4.5t-15.5 2.5q-66 16 -128 38.5t-110 58t-77.5 88
t-29.5 129.5q0 44 10 91q18 91 63 156.5t112.5 108.5t153.5 65t185 26l26 134h109l-26 -134q105 -4 176.5 -28t116 -67.5t65.5 -107t25 -147.5l-272 -39q3 172 -149 193l-69 -352q5 -2 10.5 -2t10.5 -2q73 -18 142.5 -40.5t124 -59.5t87.5 -92t33 -138q0 -21 -2.5 -44
t-7.5 -48zM685 1175q-54 -4 -91.5 -18t-63 -35.5t-39.5 -49t-20 -57.5q-4 -19 -4 -38q0 -31 12 -51.5t32.5 -35t48.5 -25t61 -22.5zM863 389q4 19 4 39q0 36 -15 59t-41 39t-60 26.5t-73 22.5l-72 -367q108 7 174 50t83 131z" />
    <glyph glyph-name="percent" unicode="%" 
d="M131 0h-175l1195 1353h177zM451 1361q48 0 90 -10.5t73 -36t48.5 -67.5t17.5 -106q0 -50 -12 -116q-18 -96 -53.5 -161t-82 -105t-102 -57.5t-115.5 -17.5q-50 0 -93 12t-74 39t-48.5 70.5t-17.5 106.5q0 50 12 113q19 99 54 163.5t81.5 103t103 54t118.5 15.5zM492 1025
q6 29 8.5 53.5t2.5 44.5q0 57 -21 80t-60 23q-56 0 -93 -45.5t-59 -155.5q-5 -28 -8 -51t-3 -43q0 -57 21.5 -82t63.5 -25q50 0 88.5 46.5t59.5 154.5zM971 665q48 0 90 -10.5t73 -36t49 -68t18 -106.5q0 -50 -12 -115q-19 -96 -54 -161t-81.5 -105t-102 -57.5t-115.5 -17.5
q-50 0 -93 12t-74 39t-48.5 70.5t-17.5 106.5q0 50 12 113q19 99 54 163.5t81.5 103t102.5 54t118 15.5zM1013 329q6 29 8.5 53.5t2.5 44.5q0 57 -21 80t-60 23q-56 0 -93 -45.5t-59 -155.5q-5 -28 -8 -51t-3 -43q0 -57 21.5 -82t63.5 -25q50 0 88.5 46.5t59.5 154.5z" />
    <glyph glyph-name="ampersand" unicode="&#x26;" 
d="M-9 369q14 70 49.5 131.5t86.5 113.5t114 93.5t131 71.5q-13 42 -20 87.5t-7 91.5q0 23 2 45t6 43q12 63 42.5 119.5t82 99t125 67.5t172.5 25q65 0 118 -15t91 -44t58.5 -70.5t20.5 -95.5q0 -27 -6 -59q-13 -69 -55 -123.5t-102 -98.5t-133 -80.5t-148 -68.5
q31 -82 68.5 -156t87.5 -146q54 77 96.5 157.5t74.5 166.5l198 -27q-42 -112 -102.5 -223.5t-136.5 -211.5q35 -37 75.5 -55t79.5 -18q23 0 50 4.5t46 12.5l-38 -196q-22 -11 -49.5 -16t-49.5 -5q-49 0 -90 9.5t-75 25t-62 36.5t-51 44q-36 -24 -79 -46.5t-91 -39.5
t-101.5 -27t-111.5 -10q-100 0 -171.5 21.5t-117 60.5t-67 93t-21.5 119q0 23 2.5 46t7.5 48zM612 239q-57 82 -106.5 172t-85.5 188q-33 -17 -63 -40t-55 -51.5t-42.5 -62.5t-24.5 -72q-3 -14 -4 -27t-1 -26q0 -34 10 -63t31.5 -50t54.5 -32.5t78 -11.5q31 0 60.5 7
t56 17.5t50 24.5t41.5 27zM842 1071q3 17 3 31q0 42 -25.5 67.5t-78.5 25.5q-74 0 -120.5 -41.5t-59.5 -109.5q-3 -14 -4 -28.5t-1 -29.5q0 -33 5.5 -65.5t15.5 -61.5q50 21 94.5 42.5t80 46.5t59.5 55.5t31 67.5z" />
    <glyph glyph-name="quotesingle" unicode="'" 
d="M773 844h-199l88 641h273z" />
    <glyph glyph-name="parenleft" unicode="(" 
d="M453 -425q-74 148 -111 295.5t-37 310.5q0 82 9.5 168.5t27.5 181.5q28 143 69.5 267.5t100.5 240t136 225t176 220.5h281q-102 -116 -181 -229t-138 -229t-100 -238.5t-67 -257.5q-17 -91 -26 -174t-9 -163q0 -161 37 -311.5t113 -306.5h-281z" />
    <glyph glyph-name="parenright" unicode=")" 
d="M119 -425q103 117 182 229.5t138 228.5t100 238.5t67 258.5q17 90 26 173t9 163q0 162 -37 312t-114 306h281q37 -74 65 -147.5t46.5 -147.5t28 -151t9.5 -158t-9 -167.5t-28 -181.5q-27 -142 -69 -267.5t-101 -241.5t-136.5 -226t-176.5 -221h-281z" />
    <glyph glyph-name="asterisk" unicode="*" 
d="M836 1209l255 104l30 -197l-262 -61l145 -213l-208 -121l-97 252l-198 -252l-162 123l231 211l-238 61l106 197l219 -104l35 274h215z" />
    <glyph glyph-name="plus" unicode="+" 
d="M726 569v-408h-226v408h-399v224h399v408h226v-408h402v-224h-402z" />
    <glyph glyph-name="comma" unicode="," 
d="M82 -363l298 662h315l-440 -662h-173z" />
    <glyph glyph-name="uni00AD" unicode="-" 
d="M299 409l47 244h580l-47 -244h-580z" />
    <glyph glyph-name="uni00AD" unicode="&#xad;" 
d="M299 409l47 244h580l-47 -244h-580z" />
    <glyph glyph-name="period" unicode="." 
d="M365 0l59 305h289l-59 -305h-289z" />
    <glyph glyph-name="slash" unicode="/" 
d="M-20 -20l1113 1504h228l-1109 -1504h-232z" />
    <glyph glyph-name="zero" unicode="0" 
d="M1137 675q-37 -191 -101.5 -323.5t-147.5 -215t-181.5 -119.5t-204.5 -37q-85 0 -156.5 23.5t-123 74.5t-80 132.5t-28.5 197.5q0 58 7 124.5t22 142.5q39 201 102.5 335t145.5 214t180.5 113t208.5 33q82 0 153 -21t123.5 -69.5t82 -129t29.5 -198.5q0 -119 -31 -277z
M855 675q36 184 36 288q0 52 -10.5 88t-30.5 58t-48.5 31.5t-65.5 9.5q-59 0 -105 -23t-83 -78t-67 -146.5t-57 -227.5q-17 -91 -26 -160t-9 -122q0 -105 41 -148.5t117 -43.5q55 0 100 23.5t82.5 79t68.5 146.5t57 225zM511 555l48 249h215l-48 -249h-215z" />
    <glyph glyph-name="one" unicode="1" 
d="M44 0l41 209h389l173 891q-27 -40 -74 -75.5t-106 -61.5t-125.5 -41.5t-132.5 -15.5l42 214q74 0 141.5 17t126 47.5t107 72.5t84.5 92h266l-221 -1140h323l-41 -209h-993z" />
    <glyph glyph-name="two" unicode="2" 
d="M18 0l38 195q69 105 154.5 190t174.5 155.5t175 129.5t156 112.5t116.5 104.5t57.5 105q3 18 3 35q0 56 -39.5 87.5t-118.5 31.5q-90 0 -147 -48.5t-90 -145.5l-280 16q26 83 71.5 156t113.5 128t160.5 86.5t212.5 31.5q101 0 177.5 -22t127.5 -61t77 -93.5t26 -119.5
q0 -36 -7 -70q-17 -89 -70.5 -162.5t-127 -138t-159 -122.5t-166.5 -114t-150 -113.5t-109 -122.5h654l-45 -231h-986z" />
    <glyph glyph-name="three" unicode="3" 
d="M1093 376q-18 -90 -65 -164t-122 -126t-175.5 -80.5t-224.5 -28.5q-129 0 -214.5 29t-137.5 77.5t-73.5 112t-21.5 133.5v19.5t1 19.5l290 25q-5 -91 42 -139.5t157 -48.5q50 0 93.5 12.5t77.5 36.5t56.5 59t31.5 80q2 9 3 18t1 17q0 45 -24.5 73.5t-61.5 44t-81 21
t-82 5.5h-98l44 227h92q42 0 88.5 7.5t87.5 27.5t71.5 54t40.5 87q3 18 3 34q0 62 -44 99.5t-126 37.5q-87 0 -150 -40.5t-89 -128.5l-277 20q31 99 87.5 169.5t131 115.5t163 66.5t182.5 21.5q109 0 188 -23t130 -63t75 -93.5t24 -114.5q0 -17 -2 -33t-5 -33
q-11 -57 -38.5 -107.5t-72.5 -91.5t-107.5 -71t-143.5 -45l-1 -4q74 -9 127.5 -32t88 -57t50.5 -77t16 -90q0 -29 -6 -59z" />
    <glyph glyph-name="four" unicode="4" 
d="M931 287l-56 -287h-268l56 287h-641l41 211l760 851h314l-166 -853h188l-40 -209h-188zM783 907q3 17 9.5 44.5t13 56.5t13.5 55.5t12 41.5q-7 -11 -22.5 -31.5t-33.5 -44t-36.5 -46.5t-33.5 -40l-407 -447h405z" />
    <glyph glyph-name="five" unicode="5" 
d="M1106 454q-19 -100 -70 -187t-129 -150.5t-182.5 -100t-232.5 -36.5q-115 0 -196 27.5t-132 75.5t-74 113t-23 140v16l286 23q1 -33 10 -64t30 -55t56 -38.5t89 -14.5q53 0 98.5 16t81.5 47t61 77t37 105q6 30 6 58q0 79 -47.5 125t-137.5 46q-70 0 -120.5 -26.5
t-88.5 -64.5h-274l197 763h847l-40 -209h-592l-87 -326q50 37 119 63.5t154 26.5q89 0 157 -24.5t114 -69.5t70 -108t24 -140q0 -50 -11 -108z" />
    <glyph glyph-name="six" unicode="6" 
d="M1097 446q-20 -101 -66.5 -186.5t-118.5 -147.5t-167.5 -97t-212.5 -35q-100 0 -176 31.5t-127 91t-76.5 145t-25.5 194.5q0 106 24 230q34 177 94 308t143 218t189 129.5t232 42.5q84 0 150 -17.5t112 -56.5t72 -100.5t32 -149.5l-272 -37q-5 74 -44.5 106.5t-98.5 32.5
q-114 0 -199 -108.5t-126 -317.5q60 75 147.5 115t188.5 40q80 0 142.5 -22.5t105.5 -64t66 -101.5t23 -135q0 -26 -3 -52.5t-8 -55.5zM813 438q4 17 5.5 33.5t1.5 31.5q0 76 -42 121.5t-128 45.5q-37 0 -76.5 -12t-73 -37t-59 -63t-35.5 -90q-4 -18 -5.5 -35.5t-1.5 -34.5
q0 -42 11 -78.5t32 -63.5t52 -42t72 -15q47 0 87.5 17t72.5 48.5t54.5 75.5t32.5 98z" />
    <glyph glyph-name="seven" unicode="7" 
d="M1206 1126q-129 -139 -240 -274.5t-199.5 -273.5t-150.5 -281.5t-92 -296.5h-293q30 152 95.5 297t158.5 284t209.5 273t248.5 264h-700l45 231h961z" />
    <glyph glyph-name="eight" unicode="8" 
d="M1089 382q-16 -85 -60.5 -158.5t-117 -127.5t-173.5 -85t-232 -31q-114 0 -196.5 23.5t-136 65.5t-79 100t-25.5 127q0 41 9 84q14 71 49 128t83 98t104.5 66.5t113.5 34.5l1 4q-98 23 -149.5 89t-51.5 153q0 29 6 59q15 79 58 144.5t111.5 113t161 74t207.5 26.5
q107 0 185 -21t128.5 -58.5t74.5 -89.5t24 -115q0 -18 -2 -37t-6 -39q-10 -50 -36.5 -98t-67.5 -88.5t-94 -69.5t-115 -41l-1 -4q52 -8 95 -28.5t74 -53t48 -76t17 -97.5q0 -37 -7 -72zM884 995q2 14 3.5 27t1.5 25q0 27 -8 50.5t-26 40t-47.5 26t-73.5 9.5q-52 0 -89.5 -14
t-63.5 -38t-41.5 -56.5t-22.5 -69.5q-2 -13 -3.5 -25.5t-1.5 -26.5q0 -26 7 -50.5t24 -43t47 -30t75 -11.5q60 0 100 18t64.5 45.5t36.5 60.5t18 63zM803 405q6 27 6 55q0 30 -9 57.5t-30 48t-57 33t-90 12.5q-60 0 -104.5 -18t-74.5 -48t-47.5 -67.5t-25.5 -76.5
q-7 -34 -7 -68t9.5 -63t31.5 -49t56.5 -31.5t85.5 -11.5q63 0 107 17.5t74 48t48 72t27 89.5z" />
    <glyph glyph-name="nine" unicode="9" 
d="M1136 697q-34 -176 -95 -310t-145.5 -224.5t-191.5 -136.5t-233 -46q-91 0 -159.5 19t-115 59t-72 103t-30.5 150l272 37q5 -75 43.5 -111t107.5 -36q113 0 199.5 105t128.5 313q-28 -39 -67 -69t-84 -50t-94 -30.5t-97 -10.5q-78 0 -139 23.5t-103.5 67t-64.5 105.5
t-22 139q0 56 12 119q21 107 71 191.5t124.5 143.5t172 90.5t213.5 31.5q194 0 295 -105t101 -320q0 -110 -27 -248zM875 879q4 20 6 39t2 37q0 42 -10 77.5t-30.5 61.5t-51.5 41t-73 15q-47 0 -87.5 -17.5t-72.5 -49t-54.5 -75.5t-32.5 -97q-7 -32 -7 -66q0 -38 10 -70.5
t30 -56t50 -37t71 -13.5q39 0 79 13t74.5 39.5t60.5 66t36 92.5z" />
    <glyph glyph-name="colon" unicode=":" 
d="M365 0l59 305h289l-59 -305h-289zM517 780l59 305h289l-59 -305h-289z" />
    <glyph glyph-name="uni037E" unicode=";" 
d="M526 780l59 305h289l-59 -305h-289zM150 -363l298 662h315l-440 -662h-173z" />
    <glyph glyph-name="uni037E" unicode="&#x37e;" 
d="M526 780l59 305h289l-59 -305h-289zM150 -363l298 662h315l-440 -662h-173z" />
    <glyph glyph-name="less" unicode="&#x3c;" 
d="M101 516v322l1027 391v-228l-833 -325l833 -324v-227z" />
    <glyph glyph-name="equal" unicode="=" 
d="M101 842v223h1027v-223h-1027zM101 291v221h1027v-221h-1027z" />
    <glyph glyph-name="greater" unicode="&#x3e;" 
d="M101 125v227l832 324l-832 325v228l1027 -391v-322z" />
    <glyph glyph-name="question" unicode="?" 
d="M1200 986q-16 -80 -57.5 -138t-96.5 -103t-115.5 -81.5t-114.5 -74.5t-94.5 -81t-54.5 -102h-267q16 64 45 114t65.5 89.5t78.5 70.5t84.5 58.5t82.5 53t72.5 52.5t55 58.5t30.5 71.5q3 17 3 31q0 60 -48.5 99.5t-142.5 39.5q-51 0 -97 -15.5t-84 -43.5t-66.5 -68
t-43.5 -88l-283 12q29 89 81.5 167t129 136t177.5 92t226 34q107 0 189 -22.5t138 -63t85 -98t29 -128.5q0 -37 -7 -72zM313 0l52 270h289l-52 -270h-289z" />
    <glyph glyph-name="at" unicode="@" 
d="M1231 755q-28 -144 -72 -263.5t-100 -205.5t-122 -134t-138 -48q-25 0 -46.5 5.5t-37 18.5t-24.5 33.5t-9 50.5q0 11 1 23t4 26q0 2 1.5 9t3.5 14.5t3.5 14.5t2.5 10h-6q-22 -39 -52.5 -76t-65.5 -65.5t-75 -46t-82 -17.5q-46 0 -77.5 18t-51 49t-28.5 73.5t-9 91.5
q0 36 4 74.5t12 78.5q15 76 41 151t61.5 143t78.5 126.5t92.5 101t103 66.5t109.5 24q37 0 62.5 -13t41 -36t22 -54.5t4.5 -69.5h5l63 151h135l-198 -507q-16 -42 -31 -82.5t-28 -77t-22 -67t-13 -51.5q-3 -18 -3 -30q0 -25 11 -31.5t28 -6.5q38 0 76 38t73 107t66 166.5
t54 215.5q21 108 21 205q0 88 -18 161.5t-54 126.5t-90.5 82.5t-128.5 29.5q-118 0 -222 -66t-189 -180.5t-147 -268.5t-96 -329q-13 -65 -19 -124.5t-6 -114.5q0 -99 20.5 -178.5t60.5 -135.5t100 -86t138 -30q59 0 112 12.5t102 33.5t95 50t91 62l52 -97q-51 -37 -106 -71
t-115.5 -60.5t-126.5 -42t-139 -15.5q-102 0 -181 36.5t-132.5 105.5t-81.5 167.5t-28 222.5q0 61 7 127t21 138q41 209 117 386.5t181.5 307.5t236.5 203t281 73q104 0 179.5 -37.5t124.5 -104.5t72.5 -157.5t23.5 -197.5q0 -112 -24 -232zM802 784q10 50 10 89
q0 106 -81 106q-51 0 -99 -45t-89.5 -115.5t-72.5 -157t-48 -170.5q-8 -41 -13 -80t-5 -72q0 -48 13.5 -78.5t48.5 -30.5q37 0 74 25t72.5 72.5t69 115t62.5 152.5q7 19 16 45t17 53t15 51.5t10 39.5z" />
    <glyph glyph-name="A" unicode="A" 
d="M1124 0h-294l-28 330h-456l-156 -330h-295l705 1349h344zM737 1167q-4 -10 -14.5 -35t-24.5 -57t-31 -69.5t-34 -73.5l-182 -380h332l-34 380q-3 36 -5 73.5t-3.5 69.5t-2.5 57t-1 35z" />
    <glyph glyph-name="B" unicode="B" 
d="M1156 385q-20 -103 -72 -176t-125 -119.5t-162 -68t-183 -21.5h-582l262 1349h525q91 0 162.5 -16t121 -48t75.5 -81.5t26 -115.5q0 -18 -2 -37.5t-6 -40.5q-22 -115 -103.5 -193.5t-223.5 -107.5q145 -16 219.5 -81.5t74.5 -174.5q0 -34 -7 -68zM892 970q5 28 5 47
q0 61 -37.5 87t-103.5 26h-209l-62 -319h211q164 0 196 159zM864 410q5 28 5 47q0 38 -14 64t-38 42t-56.5 23t-68.5 7h-250l-72 -374h257q40 0 78 9t69.5 30.5t55 58.5t34.5 93z" />
    <glyph glyph-name="C" unicode="C" 
d="M407 681q-21 -109 -21 -195q0 -134 51.5 -204t157.5 -70q45 0 85.5 18t76.5 50.5t67.5 77.5t58.5 98l263 -52q-51 -99 -112.5 -177.5t-136 -133t-161.5 -84t-189 -29.5q-122 0 -210 32.5t-144.5 93.5t-83 148t-26.5 195t24 232q33 167 92 295t146 216t203 133t261 45
q104 0 179 -29t125.5 -80.5t78.5 -123t38 -156.5l-285 -66q-4 48 -16.5 89t-34.5 71t-53.5 46.5t-72.5 16.5q-136 0 -226.5 -115.5t-134.5 -341.5z" />
    <glyph glyph-name="D" unicode="D" 
d="M1177 685q-33 -168 -97.5 -296t-157.5 -214.5t-212 -130.5t-259 -44h-421l262 1349h361q133 0 235 -27.5t171 -84t104.5 -143t35.5 -205.5q0 -94 -22 -204zM880 685q18 93 18 164q0 144 -73.5 208t-220.5 64h-61l-174 -893h102q162 0 263 114.5t146 342.5z" />
    <glyph glyph-name="E" unicode="E" 
d="M32 0l262 1349h968l-44 -228h-673l-63 -324h612l-44 -228h-612l-67 -341h714l-44 -228h-1009z" />
    <glyph glyph-name="F" unicode="F" 
d="M575 1121l-75 -384h621l-44 -228h-621l-99 -509h-295l262 1349h939l-44 -228h-644z" />
    <glyph glyph-name="G" unicode="G" 
d="M1059 185q-44 -32 -102 -68t-126 -66.5t-145 -50.5t-160 -20q-114 0 -197.5 34.5t-137.5 97.5t-80.5 151.5t-26.5 196.5q0 52 6 107t17 114q33 167 90.5 295.5t143 216t199.5 132.5t259 45q100 0 170 -27t116 -76.5t70.5 -118.5t32.5 -153l-284 -54q-8 100 -45.5 148.5
t-101.5 48.5q-72 0 -128 -29.5t-98 -87t-72.5 -143t-52.5 -197.5q-21 -111 -21 -198q0 -131 49.5 -199t152.5 -68q38 0 73 8.5t64 20t51 24t34 21.5l46 235h-274l42 218h544z" />
    <glyph glyph-name="H" unicode="H" 
d="M691 0l112 574h-363l-112 -574h-295l262 1349h295l-103 -531h363l103 531h295l-262 -1349h-295z" />
    <glyph glyph-name="I" unicode="I" 
d="M314 1349h916l-44 -228h-316l-174 -893h316l-44 -228h-916l44 228h316l174 893h-316z" />
    <glyph glyph-name="J" unicode="J" 
d="M455 -20q-190 0 -285.5 101.5t-95.5 288.5q0 8 0.5 16t0.5 16l299 43q-3 -118 31 -176t97 -58q73 0 127.5 59t75.5 169l132 679h-301l45 231h595l-175 -903q-21 -107 -68.5 -193.5t-118 -147t-161 -93t-198.5 -32.5z" />
    <glyph glyph-name="K" unicode="K" 
d="M776 0l-215 557l-154 -142l-81 -415h-295l262 1349h295l-116 -599l552 599h343l-572 -579l329 -770h-348z" />
    <glyph glyph-name="L" unicode="L" 
d="M106 0l262 1349h295l-218 -1121h616l-44 -228h-911z" />
    <glyph glyph-name="M" unicode="M" 
d="M803 0l169 868q10 51 35 151.5t39 149.5q-108 -272 -141 -341l-215 -468h-218l-35 468q-4 61 -8 201l-2 140q-28 -220 -44 -301l-169 -868h-220l262 1349h347l38 -499q2 -33 2 -47q0 -43 -9 -184q16 47 45 125.5t40 104.5l233 500h335l-262 -1349h-222z" />
    <glyph glyph-name="N" unicode="N" 
d="M643 0l-188 1010q-5 -72 -12 -138q-3 -28 -6.5 -58t-7 -58.5t-7 -54t-7.5 -45.5l-128 -656h-257l262 1349h337l192 -1037q5 67 12 133q6 57 13.5 119.5t17.5 112.5l130 672h257l-262 -1349h-346z" />
    <glyph glyph-name="O" unicode="O" 
d="M1184 679q-67 -345 -241.5 -522t-436.5 -177q-213 0 -322.5 115.5t-109.5 344.5q0 54 6 113.5t19 125.5q67 345 241 518t436 173q212 0 322.5 -113t110.5 -340q0 -54 -6 -113t-19 -125zM885 679q24 123 24 213q0 246 -178 246q-121 0 -204.5 -114.5t-128.5 -344.5
q-24 -121 -24 -213q0 -126 44.5 -190t132.5 -64q121 0 205 118.5t129 348.5z" />
    <glyph glyph-name="P" unicode="P" 
d="M1216 923q-18 -91 -64 -172.5t-120.5 -142.5t-178.5 -96.5t-237 -35.5h-197l-93 -476h-295l262 1349h480q117 0 202.5 -22t141.5 -63.5t83 -101.5t27 -136q0 -24 -3 -50t-8 -53zM918 918q6 30 6 55q0 79 -57.5 113t-170.5 34h-152l-81 -417h160q132 0 203.5 54.5
t91.5 160.5z" />
    <glyph glyph-name="Q" unicode="Q" 
d="M1184 679q-56 -288 -185.5 -458t-324.5 -221q9 -55 29.5 -91t49.5 -57t67.5 -29.5t83.5 -8.5q29 0 61.5 4t63.5 9l-39 -202q-57 -12 -117 -20t-130 -8q-95 0 -160.5 29t-108.5 81.5t-65.5 125.5t-32.5 160q-150 32 -226 144t-76 302q0 54 6 114t19 126q67 345 241 518
t436 173q212 0 322.5 -113t110.5 -340q0 -54 -6 -113t-19 -125zM885 679q24 123 24 213q0 246 -178 246q-121 0 -204.5 -114.5t-128.5 -344.5q-24 -121 -24 -213q0 -126 44.5 -190t132.5 -64q121 0 205 118.5t129 348.5z" />
    <glyph glyph-name="R" unicode="R" 
d="M790 0l-190 515h-173l-100 -515h-295l262 1349h494q230 0 344 -78.5t114 -227.5q0 -22 -2.5 -45.5t-7.5 -48.5q-14 -74 -46.5 -134t-78.5 -105.5t-103.5 -78t-121.5 -50.5l236 -581h-332zM937 937q2 13 3.5 24t1.5 22q0 76 -59.5 106.5t-169.5 30.5h-168l-73 -376h176
q132 0 201.5 49.5t87.5 143.5z" />
    <glyph glyph-name="S" unicode="S" 
d="M1136 391q-17 -88 -66 -163.5t-128.5 -130.5t-189.5 -86t-250 -31q-117 0 -208.5 25t-155 74t-97.5 121.5t-37 166.5l293 37q5 -94 67 -148.5t189 -54.5q60 0 109.5 9t87 29t62.5 53.5t34 81.5q3 15 3 29q0 45 -28 74t-71 49t-95.5 33.5t-100.5 26.5q-61 17 -126.5 40.5
t-119.5 60.5t-89 91.5t-35 135.5q0 34 8 77q19 98 75 169.5t136 118t176.5 69t196.5 22.5q224 0 333 -88.5t110 -274.5l-292 -29q-4 91 -52 137t-145 46q-63 0 -107.5 -12.5t-73.5 -34t-45 -49t-22 -57.5q-3 -15 -3 -29q0 -39 22 -65t58 -44.5t81.5 -31.5t93.5 -26
q45 -12 93 -26.5t93.5 -33.5t86 -44.5t71 -59.5t48.5 -78t18 -101q0 -18 -2 -37.5t-6 -40.5z" />
    <glyph glyph-name="T" unicode="T" 
d="M875 1121l-218 -1121h-295l218 1121h-406l44 228h1107l-44 -228h-406z" />
    <glyph glyph-name="U" unicode="U" 
d="M490 -20q-90 0 -161 18t-121 59t-76.5 108t-26.5 165q0 88 22 198l159 821h295l-159 -818q-10 -50 -14.5 -90.5t-4.5 -73.5q0 -85 34 -120.5t106 -35.5q50 0 90.5 17.5t73 56.5t56.5 102t42 154l157 808h295l-156 -806q-31 -156 -87 -263.5t-134 -174t-176.5 -96
t-213.5 -29.5z" />
    <glyph glyph-name="V" unicode="V" 
d="M661 0h-299l-202 1349h308l83 -775q5 -45 9 -92t7 -86q4 -46 6 -88q18 41 38 86q17 38 39.5 85.5t46.5 94.5l382 775h305z" />
    <glyph glyph-name="W" unicode="W" 
d="M913 0h-248l-12 267q-1 19 -3 45t-3.5 55.5t-3 61t-2.5 61.5q-3 70 -6 146q-33 -77 -64 -147q-13 -30 -27 -61.5t-27 -61t-24.5 -55t-20.5 -44.5l-118 -267h-248l51 1349h259l-46 -695q-2 -39 -8.5 -85t-12.5 -87q-7 -48 -15 -94q13 36 30 76q14 35 33 78.5t40 89.5
l165 339h195l33 -339q5 -57 6 -110t1 -88v-46q1 0 7.5 27t16 67t22 86.5t24.5 85.5l219 695h259z" />
    <glyph glyph-name="X" unicode="X" 
d="M814 0l-207 493l-400 -493h-312l597 711l-294 638h312l180 -430l345 430h310l-552 -638l331 -711h-310z" />
    <glyph glyph-name="Y" unicode="Y" 
d="M764 556l-108 -556h-294l108 556l-310 793h309l190 -566l414 566h309z" />
    <glyph glyph-name="Z" unicode="Z" 
d="M1033 0h-1051l41 209l847 909h-595l45 231h934l-40 -205l-848 -913h712z" />
    <glyph glyph-name="bracketleft" unicode="[" 
d="M185 -425l371 1909h602l-36 -190h-336l-297 -1528h336l-38 -191h-602z" />
    <glyph glyph-name="backslash" unicode="\" 
d="M799 -20l-525 1504h228l529 -1504h-232z" />
    <glyph glyph-name="bracketright" unicode="]" 
d="M66 -425l38 191h336l297 1528h-336l36 190h602l-371 -1909h-602z" />
    <glyph glyph-name="asciicircum" unicode="^" 
d="M917 514l-180 752l-470 -752h-227l565 895h322l219 -895h-229z" />
    <glyph glyph-name="underscore" unicode="_" 
d="M-153 -220l19 96h1238l-19 -96h-1238z" />
    <glyph glyph-name="grave" unicode="`" 
d="M812 1184l-295 231l8 43h258l205 -243l-6 -31h-170z" />
    <glyph glyph-name="a" unicode="a" 
d="M330 -20q-134 0 -206.5 62t-72.5 180q0 39 9 84q19 96 63.5 161.5t108.5 106t144 59t169 19.5l224 4l10 55q5 24 7.5 45t2.5 39q0 69 -31.5 97t-85.5 28q-31 0 -58 -7t-49.5 -24.5t-40.5 -47t-32 -74.5l-290 14q25 71 67 129.5t105 101.5t148.5 66.5t196.5 23.5
q173 0 262.5 -72.5t89.5 -213.5q0 -46 -11 -104l-76 -392q-5 -25 -8 -46.5t-3 -38.5q0 -37 15.5 -56t53.5 -19q32 0 63 6l-29 -152q-26 -6 -47 -11t-41.5 -8t-43.5 -5t-53 -2q-95 0 -137 41.5t-42 122.5q0 10 0.5 20t1.5 21h-6q-38 -50 -78.5 -89.5t-86.5 -67t-98.5 -42
t-114.5 -14.5zM738 501l-134 -2q-45 -1 -85 -6.5t-72.5 -23t-55 -51t-33.5 -90.5q-6 -30 -6 -54q0 -98 96 -98q54 0 100.5 23t83 60.5t61.5 86.5t35 100z" />
    <glyph glyph-name="b" unicode="b" 
d="M35 0q8 34 23 95.5t31 140.5l242 1248h281l-76 -394q-5 -25 -10.5 -52t-10.5 -52t-9.5 -44.5t-6.5 -29.5h2q34 53 76.5 89.5t89 59t95 32.5t93.5 10q78 0 134.5 -25.5t93 -73t54 -113.5t17.5 -147q0 -47 -5.5 -98t-16.5 -106q-24 -121 -70 -223.5t-110.5 -177.5
t-146.5 -117t-177 -42q-46 0 -88 10.5t-77.5 34t-62 60.5t-40.5 91h-4q-4 -21 -10.5 -48t-14 -53t-14 -46.5t-10.5 -28.5h-272zM426 547q-16 -83 -16 -148q0 -64 14 -108t36 -70t50 -37.5t56 -11.5q96 0 167 92t106 276q18 96 18 166q0 108 -39.5 157t-109.5 49
q-36 0 -76.5 -17t-79 -58.5t-72 -112t-54.5 -177.5z" />
    <glyph glyph-name="c" unicode="c" 
d="M515 -20q-107 0 -186.5 28t-132 80t-78 125.5t-25.5 164.5q0 37 4 76t12 81q26 135 81.5 240.5t136 178t184 110.5t226.5 38q104 0 180 -27.5t125.5 -75.5t73.5 -113t24 -140v-5l-286 -14q5 83 -33.5 132.5t-126.5 49.5q-113 0 -183 -93t-105 -270q-18 -91 -18 -161
q0 -213 166 -213q80 0 144.5 50.5t96.5 150.5l279 -13q-24 -75 -73 -143.5t-120 -121t-163 -84t-203 -31.5z" />
    <glyph glyph-name="d" unicode="d" 
d="M712 0q-1 8 0.5 28.5t4.5 46.5t6.5 53t7.5 48h-4q-37 -54 -77 -91t-84 -60.5t-92 -34t-101 -10.5q-75 0 -131 26.5t-92.5 75t-54.5 116.5t-18 151q0 45 5 92t15 98q24 123 68 226t107.5 177.5t146 116t183.5 41.5q45 0 88 -10t79 -32.5t63 -59t40 -89.5h2q2 10 5.5 29.5
t7.5 44.5t9 52t10 52l77 397h281l-242 -1248q-16 -79 -24.5 -140.5t-13.5 -95.5h-272zM805 546q16 83 16 147q0 63 -13.5 104.5t-36 66t-50 35t-56.5 10.5q-46 0 -87.5 -21t-77 -65.5t-63.5 -114.5t-47 -169q-18 -91 -18 -161q0 -103 37.5 -154.5t109.5 -51.5q35 0 76 18
t81 61t74 115t55 180z" />
    <glyph glyph-name="e" unicode="e" 
d="M517 -20q-99 0 -179 25t-136.5 75t-87 126.5t-30.5 178.5q0 37 4.5 77t12.5 84q30 155 95.5 261t152 171.5t187.5 94.5t203 29q104 0 179.5 -29.5t124.5 -84t73 -131.5t24 -172q0 -45 -5 -92t-15 -98l-1 -8h-734q-10 -50 -10 -99t11.5 -89.5t35.5 -69.5t60.5 -45
t85.5 -16q37 0 72 8t65.5 23.5t55 40t40.5 57.5l260 -23q-27 -46 -72.5 -98t-112 -95.5t-155.5 -72t-204 -28.5zM701 925q-43 0 -86.5 -14.5t-81 -46t-67 -81.5t-45.5 -120h460q2 15 3 29t1 28q0 102 -51 153.5t-133 51.5z" />
    <glyph glyph-name="f" unicode="f" 
d="M721 892l-173 -892h-280l173 892h-256l37 190h256l16 83q12 62 41.5 124t86.5 112t145 81.5t217 31.5q102 0 183 -9t139 -19l-36 -184q-62 8 -132 13.5t-142 5.5q-58 0 -97.5 -13t-65.5 -36.5t-41 -57t-23 -75.5l-11 -57h443l-37 -190h-443z" />
    <glyph glyph-name="g" unicode="g" 
d="M427 -434q-99 0 -172.5 21.5t-121.5 60t-72 92t-25 117.5l288 33q2 -65 41.5 -103t104.5 -38q42 0 82.5 14.5t75 48t61 89t42.5 136.5q6 28 12.5 58.5t11.5 56.5q6 30 12 59h-2q-69 -105 -164.5 -152t-202.5 -47q-75 0 -130 24.5t-91 69.5t-53.5 109t-17.5 144
q0 85 20 191q24 125 68.5 226t108 173t146 111t182.5 39q46 0 89 -10.5t78.5 -33.5t62 -59.5t39.5 -87.5h5q5 21 11.5 48.5t13.5 53t13.5 45.5t9.5 27h266q-8 -36 -23 -101t-31 -149l-156 -799q-23 -118 -73.5 -205.5t-125.5 -145.5t-171.5 -87t-211.5 -29zM834 556
q15 78 15 136q0 61 -14 102t-36 66t-50 35.5t-56 10.5q-46 0 -87.5 -20.5t-77 -64t-63.5 -110.5t-46 -161q-16 -79 -16 -143q0 -102 39.5 -151t112.5 -49q35 0 75.5 15t79 54.5t71.5 107t53 172.5z" />
    <glyph glyph-name="h" unicode="h" 
d="M483 866q81 124 178 180t216 56q75 0 127 -19.5t84 -54.5t46 -84.5t14 -108.5q0 -35 -4 -72t-12 -77l-133 -686h-280l121 621q7 36 11 68t4 60q0 69 -30 105.5t-106 36.5q-51 0 -97 -22.5t-83.5 -64t-65 -99t-41.5 -126.5l-113 -579h-281l288 1484h281l-78 -405
q-6 -32 -13.5 -64.5t-14.5 -61t-13 -51.5t-9 -36h4z" />
    <glyph glyph-name="i" unicode="i" 
d="M726 190h353l-37 -190h-1029l37 190h395l136 702h-290l37 190h571zM656 1277l40 207h281l-40 -207h-281z" />
    <glyph glyph-name="j" unicode="j" 
d="M756 -13q-21 -109 -74.5 -187t-127 -128t-161 -73.5t-176.5 -23.5q-41 0 -81.5 3.5t-77 9.5t-67.5 13.5t-53 16.5l41 210q42 -11 108.5 -22.5t147.5 -11.5q43 0 81.5 8.5t70 32.5t55.5 66t37 109l171 882h-354l37 190h636zM726 1277l40 207h281l-40 -207h-281z" />
    <glyph glyph-name="k" unicode="k" 
d="M759 0l-194 490l-137 -84l-79 -406h-281l288 1484h281l-165 -850l473 448h302l-462 -422l281 -660h-307z" />
    <glyph glyph-name="l" unicode="l" 
d="M726 190h353l-37 -190h-1029l37 190h395l215 1104h-290l36 190h571z" />
    <glyph glyph-name="m" unicode="m" 
d="M396 0l128 658q11 60 17 103t6 74q0 48 -14.5 68t-44.5 20q-25 0 -50 -24.5t-48 -69t-43 -107.5t-35 -140l-113 -582h-229l165 851q7 34 13.5 71.5t12 71t9.5 57.5t4 31h209q0 -5 -3 -25.5t-7 -47t-9 -54.5t-9 -48h2q21 39 45.5 74.5t55.5 62.5t69 42.5t84 15.5
q88 0 122.5 -48t33.5 -148h2q27 47 55.5 83.5t61.5 61.5t71.5 38t85.5 13q88 0 128 -46t40 -146q0 -39 -5.5 -85.5t-16.5 -103.5l-140 -721h-228l128 658q11 60 17 103t6 74q0 48 -14.5 68t-44.5 20q-51 0 -96 -80.5t-76 -241.5l-117 -601h-228z" />
    <glyph glyph-name="n" unicode="n" 
d="M719 0l120 619q15 74 15 127q0 75 -32 110.5t-101 35.5q-51 0 -97 -22.5t-84.5 -64t-66 -99t-41.5 -126.5l-113 -580h-281l163 840q7 35 13.5 72t12 70.5t9 60t4.5 39.5h268q0 -12 -3 -38.5t-7 -58.5t-9 -64t-9 -54h4q80 123 177.5 179.5t215.5 56.5q141 0 206 -71.5
t65 -201.5q0 -65 -15 -143l-134 -687h-280z" />
    <glyph glyph-name="o" unicode="o" 
d="M1137 542q-24 -124 -75 -227t-130 -177.5t-186.5 -116t-244.5 -41.5q-109 0 -189.5 28.5t-132.5 81t-77.5 127t-25.5 166.5q0 38 4 77.5t12 81.5q24 121 74 223.5t128 177.5t185.5 117t245.5 42q118 0 200 -27.5t133.5 -77.5t74.5 -121t23 -157q0 -42 -5 -85.5t-14 -91.5
zM843 542q10 51 15 94t5 79q0 101 -41 147.5t-130 46.5q-62 0 -110.5 -21.5t-85.5 -66.5t-63.5 -114t-45.5 -165q-18 -94 -18 -164q0 -107 42 -156.5t124 -49.5q62 0 111 21.5t86.5 66.5t64.5 115t46 167z" />
    <glyph glyph-name="p" unicode="p" 
d="M517 1082q1 -7 -0.5 -28t-4 -47t-6.5 -53t-8 -48h4q37 54 80 91.5t88.5 61t92.5 34t93 10.5q75 0 131 -27t92.5 -76t54.5 -117.5t18 -151.5q0 -44 -4.5 -90.5t-14.5 -97.5q-24 -123 -68 -226t-108 -178t-146.5 -117t-183.5 -42q-45 0 -88 10t-79 32.5t-62.5 59
t-40.5 89.5h-2q-2 -10 -5.5 -29.5t-7.5 -44.5t-9 -52t-10 -52l-82 -418h-281l247 1271q16 79 24.5 140.5t13.5 95.5h272zM424 536q-16 -83 -16 -146t13.5 -105t36 -67.5t50.5 -36t56 -10.5q46 0 87.5 21t77 66t64 115.5t47.5 169.5q9 46 13 85.5t4 74.5q0 104 -37.5 156
t-109.5 52q-35 0 -76 -18t-81 -61t-74 -115.5t-55 -180.5z" />
    <glyph glyph-name="q" unicode="q" 
d="M1194 1082q-8 -34 -23 -95.5t-31 -140.5l-247 -1271h-281l82 418q5 25 10.5 52t10.5 52t9 44.5t6 29.5h-2q-34 -53 -76.5 -89.5t-89 -59t-95 -32.5t-93.5 -10q-78 0 -134.5 25.5t-92.5 72.5t-53.5 113t-17.5 147q0 48 5.5 98.5t16.5 106.5q23 121 69 223.5t110.5 177.5
t146.5 117t177 42q46 0 87.5 -10.5t76 -34t61.5 -61t43 -91.5h4q4 21 11 48t14 53t13.5 47t10.5 28h272zM803 536q16 83 16 148t-14 108.5t-36 69.5t-50 37.5t-56 11.5q-96 0 -166.5 -92t-105.5 -276q-19 -95 -19 -167q0 -108 39.5 -156.5t109.5 -48.5q36 0 76.5 17
t79.5 58.5t72 112t54 177.5z" />
    <glyph glyph-name="r" unicode="r" 
d="M1141 848q-45 8 -95.5 13.5t-112.5 5.5q-84 0 -154.5 -34t-124.5 -92.5t-90.5 -136.5t-53.5 -166l-85 -438h-280l136 701q14 76 19.5 152.5t5.5 136.5q0 29 -1 52.5t-2 39.5h271q2 -26 4 -58.5t2 -68.5q0 -26 -1 -52t-3 -49h4q32 57 69.5 103t86 78t109.5 49.5t139 17.5
q56 0 109.5 -5t93.5 -12z" />
    <glyph glyph-name="s" unicode="s" 
d="M1060 316q-15 -78 -59.5 -140t-115 -105.5t-165 -67t-209.5 -23.5q-103 0 -183 15t-136 49.5t-87.5 89.5t-36.5 136l255 37q3 -45 18.5 -73t43.5 -43t68.5 -20t93.5 -5q48 0 90.5 5.5t75.5 19t55 38t29 61.5q8 42 -11.5 66.5t-59 40t-94.5 27t-118 26.5q-58 14 -114 32
t-99.5 47t-70.5 72t-27 107q0 15 1.5 32t5.5 35q15 77 56.5 137.5t107.5 103t156 65t201 22.5q88 0 161 -16.5t126 -52t83 -90.5t31 -133l-254 -26q0 39 -12.5 64.5t-36.5 40.5t-58 20.5t-76 5.5q-100 0 -155 -25.5t-67 -85.5q-7 -37 9.5 -59t51 -36.5t84 -25t107.5 -25.5
q65 -14 126.5 -32.5t109.5 -49t77 -76.5t29 -115q0 -35 -7 -70z" />
    <glyph glyph-name="t" unicode="t" 
d="M396 892h-167l37 190h181l143 282h176l-55 -282h385l-37 -190h-385l-103 -530q-4 -22 -7.5 -43t-3.5 -40q0 -22 6.5 -40.5t23 -32t46 -21t74.5 -7.5q64 0 129 7t131 20l-36 -186q-39 -6 -76.5 -12t-77 -10.5t-83 -7t-94.5 -2.5q-100 0 -164 19.5t-101 52t-51 75.5t-14 90
q0 28 4 56t9 56z" />
    <glyph glyph-name="u" unicode="u" 
d="M521 1082l-118 -607q-12 -63 -12 -115q0 -78 30 -124t99 -46q43 0 85.5 22.5t78.5 64t63.5 99t40.5 126.5l112 580h281l-163 -840q-7 -34 -13.5 -71.5t-11.5 -71t-9 -60t-5 -39.5h-268q1 12 4 38.5t7.5 58.5t9.5 64t9 54h-5q-80 -123 -175 -179t-199 -56q-74 0 -125.5 20
t-83.5 56t-46.5 86t-14.5 111q0 67 15 142l133 687h281z" />
    <glyph glyph-name="v" unicode="v" 
d="M669 0h-336l-197 1082h297l88 -622q4 -30 7 -63.5t6 -66.5t5.5 -64t4.5 -56q11 24 25.5 54.5t30.5 63.5t33 66t33 63l338 625h294z" />
    <glyph glyph-name="w" unicode="w" 
d="M923 0h-244l-51 471q-3 27 -4.5 46t-2.5 32q-1 15 -1 24q-3 -9 -9 -23q-5 -12 -14.5 -32t-25.5 -51l-239 -467h-243l27 1082h228l-35 -607q-3 -48 -8 -107.5t-17 -118.5q8 17 17 36q8 17 17.5 37.5t20.5 40.5l233 454h193l51 -455q2 -20 3.5 -39.5t2.5 -36.5q1 -19 1 -37
q12 60 30 117.5t35 108.5l209 607h226z" />
    <glyph glyph-name="x" unicode="x" 
d="M769 0l-186 392l-340 -392h-299l515 559l-286 523h303l173 -354l308 354h305l-488 -520l300 -562h-305z" />
    <glyph glyph-name="y" unicode="y" 
d="M626 -57q-56 -95 -109.5 -164.5t-111 -114.5t-123 -67t-145.5 -22q-44 0 -92 3t-87 10l39 200q10 -2 23 -3t26.5 -2.5t27 -2t23.5 -0.5q41 0 74.5 9t64 30t60 56t60.5 88l27 48l-240 1071h297l88 -527q2 -11 5.5 -37t7 -59.5t7.5 -70.5t7.5 -70.5t6 -59.5t2.5 -37
q5 11 16.5 36.5t26.5 58t32 68.5t32.5 69t28 59.5t18.5 38.5l283 531h294z" />
    <glyph glyph-name="z" unicode="z" 
d="M33 0l39 199l702 680h-529l39 203h849l-39 -201l-698 -676h616l-40 -205h-939z" />
    <glyph glyph-name="braceleft" unicode="{" 
d="M530 -425q-118 0 -181 58.5t-63 163.5q0 34 8 77l63 328q4 20 5.5 37t1.5 33q0 43 -13.5 73t-38 49t-60 27.5t-79.5 9.5l38 195q53 2 97.5 14.5t80 39.5t60 70.5t36.5 106.5l63 328q29 147 121.5 223t231.5 76h327l-36 -190h-188q-91 0 -142 -52t-71 -157l-59 -301
q-10 -51 -34.5 -93.5t-59 -74.5t-76.5 -53.5t-86 -30.5v-4q35 -9 65 -26t52 -42.5t34 -58.5t12 -73q0 -13 -1 -25.5t-4 -26.5l-59 -301q-4 -21 -6 -40t-2 -36q0 -67 33.5 -100t106.5 -33h188l-38 -191h-327z" />
    <glyph glyph-name="bar" unicode="|" 
d="M483 -455v1939h262v-1939h-262z" />
    <glyph glyph-name="braceright" unicode="}" 
d="M-4 -425l38 191h188q91 0 141.5 51.5t70.5 157.5l59 301q10 51 34 92.5t58.5 74t76.5 54t87 31.5v4q-35 8 -65 25t-51.5 42.5t-34 59t-12.5 73.5q0 13 1.5 25.5t3.5 26.5l59 301q5 21 6.5 40.5t1.5 36.5q0 66 -33.5 99t-105.5 33h-188l36 190h327q118 0 182 -55t64 -162
q0 -38 -9 -82l-63 -328q-4 -20 -6 -37.5t-2 -33.5q0 -85 51.5 -121.5t140.5 -38.5l-38 -195q-52 -1 -97 -13t-80 -39t-60 -70.5t-37 -106.5l-63 -328q-13 -69 -44.5 -124.5t-77 -94t-104.5 -59.5t-128 -21h-327z" />
    <glyph glyph-name="asciitilde" unicode="~" 
d="M861 516q-75 0 -143 21t-138 47q-62 23 -114 35t-98 12q-39 0 -74 -6t-67.5 -17.5t-64.5 -27.5t-66 -37l41 213q58 38 130.5 61t156.5 23q41 0 80.5 -6.5t78 -17t75 -24t71.5 -26.5q42 -16 93 -29.5t99 -13.5q68 0 136.5 25t128.5 67l-42 -219q-36 -22 -69.5 -37.5
t-67.5 -25t-69.5 -13.5t-76.5 -4z" />
    <glyph glyph-name="exclamdown" unicode="&#xa1;" 
d="M522 653h230l-147 -923h-294zM867 1079l-53 -270h-288l53 270h288z" />
    <glyph glyph-name="cent" unicode="&#xa2;" 
d="M673 324q129 44 179 196l281 -12q-81 -233 -319 -332q-81 -34 -179 -45l-37 -191h-162l37 189q-182 18 -277 122q-89 98 -89 266q0 75 18.5 166t67 185.5t119.5 163.5q146 140 368 164l36 184h162l-36 -184q170 -19 261 -118q85 -91 85 -233v-6l-285 -14q3 136 -98 177z
M511 323l132 680q-181 -54 -237 -336q-14 -71 -14 -127q0 -175 119 -217z" />
    <glyph glyph-name="sterling" unicode="&#xa3;" 
d="M1146 363q-27 -73 -70 -139t-101.5 -115.5t-131.5 -79t-160 -29.5h-704l40 205q44 22 81.5 48t67.5 61.5t52.5 83.5t35.5 114l15 82h-188l34 170h178l38 198q18 92 56.5 167.5t100.5 129t148 82.5t200 29q96 0 160 -20.5t104.5 -58.5t60 -91.5t26.5 -120.5l-242 -47
q-7 77 -41 112t-100 35q-91 0 -142 -57.5t-75 -182.5l-34 -175h286l-34 -170h-286l-15 -80q-12 -59 -33 -105.5t-51.5 -83t-69.5 -64.5t-87 -52h390q104 0 167 49.5t98 143.5z" />
    <glyph glyph-name="currency" unicode="&#xa4;" 
d="M207 684q12 60 38 116t65 105l-107 133l187 156l105 -133q54 28 113 43.5t119 15.5t112.5 -15t94.5 -44l161 135l128 -158l-162 -135q26 -61 26 -135q0 -40 -9 -84q-12 -60 -37.5 -114.5t-62.5 -102.5l108 -133l-189 -160l-107 135q-112 -59 -232 -59q-60 0 -113.5 14.5
t-95.5 42.5l-162 -137l-126 158l161 137q-11 30 -17.5 63.5t-6.5 69.5q0 43 9 86zM433 686q-4 -17 -4 -39q0 -36 12.5 -67t35.5 -54t55 -36t70 -13q43 0 84 16.5t74.5 45t57.5 66.5t32 81q4 19 4 41q0 36 -12.5 67t-35.5 53.5t-54 35t-69 12.5q-43 0 -84.5 -16.5t-75 -45
t-57.5 -66.5t-33 -81z" />
    <glyph glyph-name="yen" unicode="&#xa5;" 
d="M840 691h276l-28 -146h-338l-32 -162h338l-28 -147h-338l-46 -236h-272l46 236h-336l28 147h336l32 162h-336l28 146h276l-256 658h289l186 -536l398 536h289z" />
    <glyph glyph-name="brokenbar" unicode="&#xa6;" 
d="M483 676v778h262v-778h-262zM483 -455v779h262v-779h-262z" />
    <glyph glyph-name="section" unicode="&#xa7;" 
d="M813 1485q87 0 160.5 -15.5t127 -48.5t83.5 -85t31 -125l-243 -25q-1 34 -15.5 58.5t-40 40t-60.5 23t-76 7.5q-112 0 -170.5 -29.5t-70.5 -94.5q-8 -39 9.5 -65.5t53 -45.5t84 -32.5t103.5 -26.5q74 -18 138.5 -38.5t113.5 -51.5t77 -74t28 -106q0 -27 -6 -59
q-9 -44 -30 -84.5t-53 -75t-74 -61.5t-92 -42q63 -31 100.5 -77.5t37.5 -119.5q0 -27 -6 -59q-15 -78 -56.5 -141.5t-110 -108.5t-164.5 -69.5t-220 -24.5q-103 0 -183.5 15t-137.5 49t-89 89t-37 135l244 37q2 -45 19 -75t48 -48t73.5 -25t95.5 -7q122 0 191 32.5t85 112.5
q3 17 3 30q0 36 -19.5 59.5t-58 41.5t-94.5 33t-129 33q-55 14 -111.5 33.5t-103 50t-76 74.5t-29.5 107q0 12 1 25t4 27q19 98 89 161t174 95q-30 14 -56.5 34t-45.5 46t-30 58t-11 69q0 12 1 24.5t4 26.5q14 74 55.5 132t107.5 98.5t156 61.5t201 21zM895 658q3 17 3 30
q0 30 -15.5 52t-47 39.5t-80.5 31t-117 27.5q-95 -11 -152 -47.5t-71 -105.5q-7 -39 12 -65.5t55.5 -45t86 -32t103.5 -26.5q42 2 79 10.5t67 25.5t50 43t27 63z" />
    <glyph glyph-name="dieresis" unicode="&#xa8;" 
d="M845 1219l43 219h227l-43 -219h-227zM421 1219l43 219h224l-43 -219h-224z" />
    <glyph glyph-name="copyright" unicode="&#xa9;" 
d="M628 333q-90 0 -156.5 32t-110 89t-65 136t-21.5 173q0 98 21.5 176t64.5 133.5t108 85t152 29.5q67 0 116.5 -18t85.5 -47.5t60.5 -67t40.5 -76.5l-138 -43q-23 60 -61.5 93.5t-101.5 33.5q-50 0 -87 -21t-61 -60t-35.5 -94.5t-11.5 -123.5q0 -69 13 -125t38.5 -96.5
t62.5 -62.5t86 -22q34 0 60.5 12t47 33t36 49t27.5 60l129 -42q-15 -46 -40 -88.5t-61.5 -75.5t-85.5 -52.5t-113 -19.5zM1197 761q0 -187 -45.5 -323.5t-124.5 -225.5t-185.5 -131.5t-227.5 -42.5q-120 0 -226 42.5t-185.5 131.5t-125.5 225.5t-46 323.5t46 323.5t125 225
t185 131.5t227 43t227.5 -43t185.5 -131.5t124.5 -225t45.5 -323.5zM1071 761q0 159 -35 273.5t-96.5 189t-145 109.5t-180.5 35q-96 0 -178.5 -35t-144 -109.5t-96.5 -189t-35 -273.5q0 -160 35 -275t96.5 -189t144 -109t178.5 -35q97 0 180.5 35t145 109t96.5 189t35 275z
" />
    <glyph glyph-name="ordfeminine" unicode="&#xaa;" 
d="M465 643q-97 0 -150.5 45t-53.5 130q0 27 6 57q14 69 49 115t85.5 74t111.5 40.5t127 13.5l170 2l9 48q2 14 3.5 25t1.5 22q0 52 -28 71t-69 19q-24 0 -46.5 -4.5t-42 -16.5t-35.5 -33t-26 -54l-217 11q18 49 51.5 91.5t82.5 74t113.5 49.5t143.5 18q65 0 117.5 -12.5
t89.5 -38.5t57 -65t20 -92q0 -29 -6 -62l-53 -273q-4 -19 -6 -34t-2 -28q0 -24 10 -36.5t35 -12.5q5 0 13 0.5t16.5 1.5t16 1.5t11.5 1.5l-24 -125q-35 -10 -72 -15.5t-68 -5.5q-81 0 -120 42t-31 112h-3q-54 -74 -126 -115.5t-161 -41.5zM576 794q40 0 75 17t62 43.5
t45 59.5t24 65l6 31l-106 -3q-36 -1 -68 -5t-57.5 -16t-43.5 -34.5t-26 -60.5q-9 -47 12 -72t77 -25z" />
    <glyph glyph-name="guillemotleft" unicode="&#xab;" 
d="M779 141l-185 361l13 71l328 367h238l-7 -37l-326 -366l186 -361l-7 -35h-240zM312 141l-187 361l13 71l330 367h236l-7 -37l-326 -366l186 -361l-7 -35h-238z" />
    <glyph glyph-name="logicalnot" unicode="&#xac;" 
d="M887 141v428h-803v224h1027v-652h-224z" />
    <glyph glyph-name="registered" unicode="&#xae;" 
d="M1197 761q0 -187 -45.5 -323.5t-124.5 -225.5t-185.5 -131.5t-227.5 -42.5q-120 0 -226 42.5t-185.5 131.5t-125.5 225.5t-46 323.5t46 323.5t125 225t185 131.5t227 43t227.5 -43t185.5 -131.5t124.5 -225t45.5 -323.5zM789 343l-190 329h-116v-329h-151v831h307
q142 0 217.5 -63t75.5 -174q0 -102 -50.5 -167t-135.5 -84l218 -343h-175zM781 935q0 69 -47.5 98t-128.5 29h-122v-280h134q80 0 122 39t42 114zM1071 761q0 159 -35 273.5t-96.5 189t-145 109.5t-180.5 35q-96 0 -178.5 -35t-144 -109.5t-96.5 -189t-35 -273.5
q0 -160 35 -275t96.5 -189t144 -109t178.5 -35q97 0 180.5 35t145 109t96.5 189t35 275z" />
    <glyph glyph-name="macron" unicode="&#xaf;" 
d="M172 1452l19 96h1238l-19 -96h-1238z" />
    <glyph glyph-name="degree" unicode="&#xb0;" 
d="M935 1110q0 -66 -25.5 -123.5t-69 -100t-102 -67t-124.5 -24.5t-124.5 24.5t-102 67t-68.5 100t-25 123.5q0 67 25 124.5t68.5 100t102 66.5t124.5 24t124.5 -24t102 -66.5t69 -100t25.5 -124.5zM777 1110q0 35 -12.5 65.5t-34.5 53t-51.5 35t-64.5 12.5t-65 -12.5
t-52.5 -35t-35.5 -53t-13 -65.5q0 -34 13 -64.5t35.5 -53.5t52.5 -36.5t65 -13.5t64.5 13.5t51.5 36.5t34.5 53.5t12.5 64.5z" />
    <glyph glyph-name="plusminus" unicode="&#xb1;" 
d="M726 707v-341h-224v341h-401v223h401v340h224v-340h402v-223h-402zM101 0v223h1027v-223h-1027z" />
    <glyph glyph-name="uni00B2" unicode="&#xb2;" 
d="M281 563l28 142q42 63 95 110t109.5 85t112 69t101 61.5t76.5 63t39 72.5q3 17 3 32q0 35 -18.5 55t-60.5 20q-51 0 -83.5 -28.5t-49.5 -86.5l-227 6q18 54 52 101t83.5 82t113 55t140.5 20q74 0 127.5 -14.5t88.5 -40t52 -61.5t17 -80q0 -23 -5 -51
q-12 -61 -46.5 -108.5t-82 -85t-102.5 -68.5t-106 -60.5t-93.5 -60t-66.5 -67.5h425l-32 -162h-690z" />
    <glyph glyph-name="uni00B3" unicode="&#xb3;" 
d="M1012 799q-23 -116 -123.5 -182t-262.5 -66q-93 0 -153.5 18.5t-96 49t-49.5 70.5t-14 82v12t1 12l224 15q-4 -54 23 -82t90 -28q57 0 94 28t48 85q7 36 -4.5 57.5t-33.5 32.5t-50 14.5t-54 3.5h-66l29 148h60q27 0 54.5 4.5t51 16.5t40.5 32.5t23 51.5q9 46 -13 72
t-73 26q-49 0 -84.5 -26.5t-50.5 -78.5l-215 14q19 60 56.5 105t88.5 75t112.5 45t127.5 15q71 0 124 -14t87.5 -38.5t51.5 -58t17 -72.5q0 -9 -1 -18.5t-3 -19.5q-14 -75 -67.5 -128t-150.5 -72v-2q89 -11 127.5 -54t38.5 -103q0 -23 -4 -42z" />
    <glyph glyph-name="acute" unicode="&#xb4;" 
d="M492 1184l6 31l299 243h258l-8 -43l-385 -231h-170z" />
    <glyph glyph-name="uni00B5" unicode="&#xb5;" 
d="M729 0q1 12 3 34t5 48.5t7 53.5t8 48h-3q-57 -99 -128.5 -151.5t-157.5 -52.5q-52 0 -90.5 24t-53.5 66h-4q-4 -32 -9 -59.5t-10 -55.5l-72 -371h-281l291 1498h281l-117 -605q-6 -33 -9.5 -63t-3.5 -56q0 -76 32.5 -120.5t109.5 -44.5q50 0 94.5 22.5t81 63t63.5 98
t40 127.5l112 578h281l-163 -840q-6 -34 -12.5 -70.5t-12 -70t-9.5 -60.5t-5 -41h-268z" />
    <glyph glyph-name="paragraph" unicode="&#xb6;" 
d="M1113 1206l-297 -1530h-156l297 1530h-195l-297 -1530h-155l186 958q-69 0 -125 16.5t-95.5 49.5t-61 82t-21.5 115q0 43 9 92q17 84 55 150.5t94.5 113t130 71.5t161.5 25h629l-28 -143h-131z" />
    <glyph glyph-name="periodcentered" unicode="&#xb7;" 
d="M446 417l59 305h288l-59 -305h-288z" />
    <glyph glyph-name="cedilla" unicode="&#xb8;" 
d="M338 -255q-7 -39 -29 -74t-62.5 -60.5t-101.5 -40.5t-146 -15q-46 0 -100 6l23 118q23 -5 44 -6t38 -1q75 0 109.5 18.5t41.5 50.5q7 35 -18 52t-91 17h-25.5t-26.5 -2l106 192h143l-60 -102q81 -5 120 -36t39 -83q0 -8 -1 -16.5t-3 -17.5z" />
    <glyph glyph-name="uni00B9" unicode="&#xb9;" 
d="M279 563l28 142h236l103 530q-18 -26 -49 -47t-67 -36t-72.5 -23.5t-64.5 -8.5l30 154q33 0 70 9t73 26.5t68.5 42.5t55.5 58h204l-137 -705h220l-28 -142h-670z" />
    <glyph glyph-name="ordmasculine" unicode="&#xba;" 
d="M1101 1043q-17 -88 -56.5 -162t-99.5 -126.5t-139.5 -82t-175.5 -29.5q-78 0 -137 21t-98.5 59.5t-60 93.5t-20.5 122q0 25 3 50.5t8 53.5q17 87 55.5 160t97 126t137 82.5t175.5 29.5q84 0 145 -21t100.5 -59t58 -91t18.5 -118q0 -26 -3 -53t-8 -56zM871 1043
q12 62 12 103q0 74 -32 102.5t-91 28.5q-37 0 -69.5 -11.5t-58.5 -38.5t-46 -72t-33 -112q-6 -29 -8.5 -54t-2.5 -46q0 -39 8.5 -65.5t24.5 -43t37.5 -23.5t47.5 -7q38 0 70.5 11.5t59.5 39t47.5 73.5t33.5 115z" />
    <glyph glyph-name="guillemotright" unicode="&#xbb;" 
d="M54 141l7 35l326 361l-182 366l7 37h238l184 -367l-13 -71l-327 -361h-240zM523 141l7 35l326 361l-182 366l7 37h236l186 -367l-13 -71l-329 -361h-238z" />
    <glyph glyph-name="onequarter" unicode="&#xbc;" 
d="M322 1159q-18 -26 -49 -43.5t-64.5 -28t-62.5 -15t-42 -4.5l32 165q18 0 47.5 6t63 19.5t66.5 35.5t56 55h181l-148 -760h-191zM201 0h-162l1000 1349h161zM1033 162l-31 -160h-191l31 160h-341l29 149l409 452h211l-87 -450h82l-30 -151h-82zM935 606
q-9 -13 -26.5 -36.5t-37 -48.5t-37 -47.5t-28.5 -34.5l-111 -126h177l38 198q11 54 25 95z" />
    <glyph glyph-name="onehalf" unicode="&#xbd;" 
d="M323 1159q-18 -26 -49 -43.5t-64.5 -28t-62.5 -15t-42 -4.5l32 165q18 0 47.5 6t63 19.5t66.5 35.5t56 55h181l-148 -760h-191zM186 0h-162l1000 1349h161zM553 1l28 143q40 62 86 105.5t93 75t91.5 56t81 49t61.5 53t33 69.5q3 19 2.5 35.5t-7.5 29t-20.5 19.5t-36.5 7
q-30 0 -50 -10t-34 -26.5t-23 -37.5t-16 -44l-178 10q15 45 39 87.5t63 76t94.5 54t132.5 20.5q114 0 169.5 -43.5t55.5 -121.5q0 -12 -1.5 -24t-3.5 -26q-12 -61 -44 -106t-74 -79.5t-90 -61.5t-93 -51.5t-81.5 -49.5t-55.5 -56h350l-30 -153h-542z" />
    <glyph glyph-name="threequarters" unicode="&#xbe;" 
d="M640 793q-10 -54 -39 -96t-71.5 -70.5t-98 -43t-120.5 -14.5q-126 0 -187.5 53t-61.5 176v3l210 26q-1 -6 -1 -12v-11q0 -48 16 -73t54 -25q41 0 66 25t36 79q3 14 3 26q0 23 -9 37t-25 22t-38 11t-48 3h-41l25 131h37q68 0 99.5 24t42.5 80q2 10 3 18.5t1 16.5
q0 52 -52 52q-44 0 -66.5 -28t-37.5 -82l-192 12q38 114 117.5 171t209.5 57q58 0 100 -12t69 -33.5t40 -51t13 -64.5q0 -22 -4 -42q-13 -66 -54 -107t-116 -67l-1 -6q66 -15 96 -52.5t30 -89.5q0 -11 -1.5 -21.5t-3.5 -21.5zM277 0h-162l1000 1349h161zM1072 162l-31 -160
h-191l31 160h-341l29 149l409 452h211l-87 -450h82l-30 -151h-82zM974 606q-9 -13 -26.5 -36.5t-37 -48.5t-37 -47.5t-28.5 -34.5l-111 -126h177l38 198q11 54 25 95z" />
    <glyph glyph-name="questiondown" unicode="&#xbf;" 
d="M38 96q12 60 38.5 107t63 85.5t79.5 70t87.5 60t87.5 55.5t78.5 57.5t61.5 65.5t36 79h267q-21 -85 -64.5 -146t-97.5 -106.5t-111.5 -80.5t-107.5 -69.5t-86.5 -73.5t-46.5 -92q-3 -16 -3 -31q0 -60 48.5 -99.5t142.5 -39.5q51 0 97 15.5t84.5 43.5t67 68t43.5 88
l282 -12q-28 -88 -81 -166.5t-129.5 -136.5t-177.5 -92t-226 -34q-106 0 -188 22t-138.5 62.5t-85.5 98t-29 127.5q0 34 8 74zM924 1082l-52 -270h-289l52 270h289z" />
    <glyph glyph-name="Agrave" unicode="&#xc0;" 
d="M1124 0h-294l-28 330h-456l-156 -330h-295l705 1349h344zM737 1167q-4 -10 -14.5 -35t-24.5 -57t-31 -69.5t-34 -73.5l-182 -380h332l-34 380q-3 36 -5 73.5t-3.5 69.5t-2.5 57t-1 35zM766 1427l-295 231l8 43h258l205 -243l-6 -31h-170z" />
    <glyph glyph-name="Aacute" unicode="&#xc1;" 
d="M1124 0h-294l-28 330h-456l-156 -330h-295l705 1349h344zM737 1167q-4 -10 -14.5 -35t-24.5 -57t-31 -69.5t-34 -73.5l-182 -380h332l-34 380q-3 36 -5 73.5t-3.5 69.5t-2.5 57t-1 35zM632 1428l6 31l299 243h258l-8 -43l-385 -231h-170z" />
    <glyph glyph-name="Acircumflex" unicode="&#xc2;" 
d="M1124 0h-294l-28 330h-456l-156 -330h-295l705 1349h344zM737 1167q-4 -10 -14.5 -35t-24.5 -57t-31 -69.5t-34 -73.5l-182 -380h332l-34 380q-3 36 -5 73.5t-3.5 69.5t-2.5 57t-1 35zM1160 1455l-5 -28h-159l-177 134h-4l-237 -134h-160l5 28l307 250h229z" />
    <glyph glyph-name="Atilde" unicode="&#xc3;" 
d="M1124 0h-294l-28 330h-456l-156 -330h-295l705 1349h344zM737 1167q-4 -10 -14.5 -35t-24.5 -57t-31 -69.5t-34 -73.5l-182 -380h332l-34 380q-3 36 -5 73.5t-3.5 69.5t-2.5 57t-1 35zM952 1422q-44 0 -85 17.5t-79 39t-72 39t-64 17.5q-26 0 -44.5 -7t-32 -21t-24 -35
t-19.5 -50h-137q7 27 17 58.5t25 63t35.5 60.5t49.5 51.5t66.5 36t86.5 13.5q45 0 87 -17.5t79.5 -39t70.5 -39t62 -17.5q50 0 75.5 28t45.5 85h135q-10 -41 -27.5 -90.5t-49 -92t-80 -71.5t-121.5 -29z" />
    <glyph glyph-name="Adieresis" unicode="&#xc4;" 
d="M1124 0h-294l-28 330h-456l-156 -330h-295l705 1349h344zM737 1167q-4 -10 -14.5 -35t-24.5 -57t-31 -69.5t-34 -73.5l-182 -380h332l-34 380q-3 36 -5 73.5t-3.5 69.5t-2.5 57t-1 35zM889 1445l43 219h227l-43 -219h-227zM465 1445l43 219h224l-43 -219h-224z" />
    <glyph glyph-name="Aring" unicode="&#xc5;" 
d="M1124 0h-294l-28 330h-456l-156 -330h-295l705 1349h344zM737 1167q-4 -10 -14.5 -35t-24.5 -57t-31 -69.5t-34 -73.5l-182 -380h332l-34 380q-3 36 -5 73.5t-3.5 69.5t-2.5 57t-1 35zM1041 1479q-7 -39 -29 -75t-57.5 -64t-84.5 -44.5t-110 -16.5q-54 0 -93 13t-64.5 35
t-37.5 51.5t-12 62.5q0 9 1 18.5t3 19.5q8 39 29.5 75t57 63.5t84.5 44t110 16.5q54 0 93 -13t64.5 -34.5t37.5 -51t12 -62.5q0 -9 -1 -18.5t-3 -19.5zM902 1479q2 12 -1 25t-13 23t-28.5 16.5t-46.5 6.5q-56 0 -84.5 -23t-33.5 -48q-3 -13 0.5 -25.5t14 -22.5t29 -16.5
t46.5 -6.5t49 6.5t35 16.5t22 22.5t11 25.5z" />
    <glyph glyph-name="AE" unicode="&#xc6;" 
d="M586 387h-253l-177 -387h-261l634 1349h804l-39 -202h-309l-69 -355h297l-39 -200h-297l-76 -390h348l-39 -202h-599zM735 1152h-58q-7 -16 -18 -42.5t-23 -55.5t-24 -56.5t-20 -45.5l-169 -366h202z" />
    <glyph glyph-name="Ccedilla" unicode="&#xc7;" 
d="M407 681q-21 -109 -21 -195q0 -134 51.5 -204t157.5 -70q45 0 85.5 18t76.5 50.5t67.5 77.5t58.5 98l263 -52q-51 -99 -112.5 -177.5t-136 -133t-161.5 -84t-189 -29.5q-122 0 -210 32.5t-144.5 93.5t-83 148t-26.5 195t24 232q33 167 92 295t146 216t203 133t261 45
q104 0 179 -29t125.5 -80.5t78.5 -123t38 -156.5l-285 -66q-4 48 -16.5 89t-34.5 71t-53.5 46.5t-72.5 16.5q-136 0 -226.5 -115.5t-134.5 -341.5zM692 -255q-7 -39 -29 -74t-62.5 -60.5t-101.5 -40.5t-146 -15q-46 0 -100 6l23 118q23 -5 44 -6t38 -1q75 0 109.5 18.5
t41.5 50.5q7 35 -18 52t-91 17h-25.5t-26.5 -2l106 192h143l-60 -102q81 -5 120 -36t39 -83q0 -8 -1 -16.5t-3 -17.5z" />
    <glyph glyph-name="Egrave" unicode="&#xc8;" 
d="M32 0l262 1349h968l-44 -228h-673l-63 -324h612l-44 -228h-612l-67 -341h714l-44 -228h-1009zM788 1428l-295 231l8 43h258l205 -243l-6 -31h-170z" />
    <glyph glyph-name="Eacute" unicode="&#xc9;" 
d="M32 0l262 1349h968l-44 -228h-673l-63 -324h612l-44 -228h-612l-67 -341h714l-44 -228h-1009zM630 1428l6 31l299 243h258l-8 -43l-385 -231h-170z" />
    <glyph glyph-name="Ecircumflex" unicode="&#xca;" 
d="M32 0l262 1349h968l-44 -228h-673l-63 -324h612l-44 -228h-612l-67 -341h714l-44 -228h-1009zM1160 1455l-5 -28h-159l-177 134h-4l-237 -134h-160l5 28l307 250h229z" />
    <glyph glyph-name="Edieresis" unicode="&#xcb;" 
d="M32 0l262 1349h968l-44 -228h-673l-63 -324h612l-44 -228h-612l-67 -341h714l-44 -228h-1009zM909 1445l43 219h227l-43 -219h-227zM485 1445l43 219h224l-43 -219h-224z" />
    <glyph glyph-name="Igrave" unicode="&#xcc;" 
d="M314 1349h916l-44 -228h-316l-174 -893h316l-44 -228h-916l44 228h316l174 893h-316zM778 1428l-295 231l8 43h258l205 -243l-6 -31h-170z" />
    <glyph glyph-name="Iacute" unicode="&#xcd;" 
d="M314 1349h916l-44 -228h-316l-174 -893h316l-44 -228h-916l44 228h316l174 893h-316zM642 1428l6 31l299 243h258l-8 -43l-385 -231h-170z" />
    <glyph glyph-name="Icircumflex" unicode="&#xce;" 
d="M314 1349h916l-44 -228h-316l-174 -893h316l-44 -228h-916l44 228h316l174 893h-316zM1160 1455l-5 -28h-159l-177 134h-4l-237 -134h-160l5 28l307 250h229z" />
    <glyph glyph-name="Idieresis" unicode="&#xcf;" 
d="M314 1349h916l-44 -228h-316l-174 -893h316l-44 -228h-916l44 228h316l174 893h-316zM889 1445l43 219h227l-43 -219h-227zM465 1445l43 219h224l-43 -219h-224z" />
    <glyph glyph-name="Eth" unicode="&#xd0;" 
d="M1190 685q-33 -168 -97.5 -296t-157.5 -214.5t-212 -130.5t-259 -44h-421l110 564h-134l42 219h134l110 566h361q133 0 235 -27.5t171 -84t104.5 -143t35.5 -205.5q0 -94 -22 -204zM893 685q18 93 18 164q0 144 -73.5 208t-220.5 64h-61l-66 -338h207l-42 -219h-207
l-66 -336h102q162 0 263 114.5t146 342.5z" />
    <glyph glyph-name="Ntilde" unicode="&#xd1;" 
d="M643 0l-188 1010q-5 -72 -12 -138q-3 -28 -6.5 -58t-7 -58.5t-7 -54t-7.5 -45.5l-128 -656h-257l262 1349h337l192 -1037q5 67 12 133q6 57 13.5 119.5t17.5 112.5l130 672h257l-262 -1349h-346zM952 1422q-44 0 -85 17.5t-79 39t-72 39t-64 17.5q-26 0 -44.5 -7t-32 -21
t-24 -35t-19.5 -50h-137q7 27 17 58.5t25 63t35.5 60.5t49.5 51.5t66.5 36t86.5 13.5q45 0 87 -17.5t79.5 -39t70.5 -39t62 -17.5q50 0 75.5 28t45.5 85h135q-10 -41 -27.5 -90.5t-49 -92t-80 -71.5t-121.5 -29z" />
    <glyph glyph-name="Ograve" unicode="&#xd2;" 
d="M1184 679q-67 -345 -241.5 -522t-436.5 -177q-213 0 -322.5 115.5t-109.5 344.5q0 54 6 113.5t19 125.5q67 345 241 518t436 173q212 0 322.5 -113t110.5 -340q0 -54 -6 -113t-19 -125zM885 679q24 123 24 213q0 246 -178 246q-121 0 -204.5 -114.5t-128.5 -344.5
q-24 -121 -24 -213q0 -126 44.5 -190t132.5 -64q121 0 205 118.5t129 348.5zM773 1428l-295 231l8 43h258l205 -243l-6 -31h-170z" />
    <glyph glyph-name="Oacute" unicode="&#xd3;" 
d="M1184 679q-67 -345 -241.5 -522t-436.5 -177q-213 0 -322.5 115.5t-109.5 344.5q0 54 6 113.5t19 125.5q67 345 241 518t436 173q212 0 322.5 -113t110.5 -340q0 -54 -6 -113t-19 -125zM885 679q24 123 24 213q0 246 -178 246q-121 0 -204.5 -114.5t-128.5 -344.5
q-24 -121 -24 -213q0 -126 44.5 -190t132.5 -64q121 0 205 118.5t129 348.5zM637 1428l6 31l299 243h258l-8 -43l-385 -231h-170z" />
    <glyph glyph-name="Ocircumflex" unicode="&#xd4;" 
d="M1184 679q-67 -345 -241.5 -522t-436.5 -177q-213 0 -322.5 115.5t-109.5 344.5q0 54 6 113.5t19 125.5q67 345 241 518t436 173q212 0 322.5 -113t110.5 -340q0 -54 -6 -113t-19 -125zM885 679q24 123 24 213q0 246 -178 246q-121 0 -204.5 -114.5t-128.5 -344.5
q-24 -121 -24 -213q0 -126 44.5 -190t132.5 -64q121 0 205 118.5t129 348.5zM1160 1455l-5 -28h-159l-177 134h-4l-237 -134h-160l5 28l307 250h229z" />
    <glyph glyph-name="Otilde" unicode="&#xd5;" 
d="M1184 679q-67 -345 -241.5 -522t-436.5 -177q-213 0 -322.5 115.5t-109.5 344.5q0 54 6 113.5t19 125.5q67 345 241 518t436 173q212 0 322.5 -113t110.5 -340q0 -54 -6 -113t-19 -125zM885 679q24 123 24 213q0 246 -178 246q-121 0 -204.5 -114.5t-128.5 -344.5
q-24 -121 -24 -213q0 -126 44.5 -190t132.5 -64q121 0 205 118.5t129 348.5zM952 1422q-44 0 -85 17.5t-79 39t-72 39t-64 17.5q-26 0 -44.5 -7t-32 -21t-24 -35t-19.5 -50h-137q7 27 17 58.5t25 63t35.5 60.5t49.5 51.5t66.5 36t86.5 13.5q45 0 87 -17.5t79.5 -39t70.5 -39
t62 -17.5q50 0 75.5 28t45.5 85h135q-10 -41 -27.5 -90.5t-49 -92t-80 -71.5t-121.5 -29z" />
    <glyph glyph-name="Odieresis" unicode="&#xd6;" 
d="M1184 679q-67 -345 -241.5 -522t-436.5 -177q-213 0 -322.5 115.5t-109.5 344.5q0 54 6 113.5t19 125.5q67 345 241 518t436 173q212 0 322.5 -113t110.5 -340q0 -54 -6 -113t-19 -125zM885 679q24 123 24 213q0 246 -178 246q-121 0 -204.5 -114.5t-128.5 -344.5
q-24 -121 -24 -213q0 -126 44.5 -190t132.5 -64q121 0 205 118.5t129 348.5zM892 1445l43 219h227l-43 -219h-227zM468 1445l43 219h224l-43 -219h-224z" />
    <glyph glyph-name="multiply" unicode="&#xd7;" 
d="M102 326l356 358l-352 352l158 156l352 -350l352 352l158 -158l-352 -354l352 -350l-158 -160l-352 354l-356 -358z" />
    <glyph glyph-name="Oslash" unicode="&#xd8;" 
d="M1184 679q-67 -345 -241.5 -522t-436.5 -177q-215 0 -326 119l-133 -142l-100 75l165 176q-39 96 -39 231q0 54 6.5 114t19.5 126q67 345 241 518t436 173q213 0 323 -115l134 142l99 -75l-164 -173q20 -49 30.5 -107t10.5 -127q0 -53 -6 -111.5t-19 -124.5zM885 679
q11 55 16.5 103t6.5 90l-514 -546q41 -114 157 -114q121 0 205 118.5t129 348.5zM398 679q-11 -55 -17 -103t-7 -90l513 545q-39 107 -156 107q-121 0 -204.5 -114.5t-128.5 -344.5z" />
    <glyph glyph-name="Ugrave" unicode="&#xd9;" 
d="M490 -20q-90 0 -161 18t-121 59t-76.5 108t-26.5 165q0 88 22 198l159 821h295l-159 -818q-10 -50 -14.5 -90.5t-4.5 -73.5q0 -85 34 -120.5t106 -35.5q50 0 90.5 17.5t73 56.5t56.5 102t42 154l157 808h295l-156 -806q-31 -156 -87 -263.5t-134 -174t-176.5 -96
t-213.5 -29.5zM762 1428l-295 231l8 43h258l205 -243l-6 -31h-170z" />
    <glyph glyph-name="Uacute" unicode="&#xda;" 
d="M490 -20q-90 0 -161 18t-121 59t-76.5 108t-26.5 165q0 88 22 198l159 821h295l-159 -818q-10 -50 -14.5 -90.5t-4.5 -73.5q0 -85 34 -120.5t106 -35.5q50 0 90.5 17.5t73 56.5t56.5 102t42 154l157 808h295l-156 -806q-31 -156 -87 -263.5t-134 -174t-176.5 -96
t-213.5 -29.5zM625 1428l6 31l299 243h258l-8 -43l-385 -231h-170z" />
    <glyph glyph-name="Ucircumflex" unicode="&#xdb;" 
d="M490 -20q-90 0 -161 18t-121 59t-76.5 108t-26.5 165q0 88 22 198l159 821h295l-159 -818q-10 -50 -14.5 -90.5t-4.5 -73.5q0 -85 34 -120.5t106 -35.5q50 0 90.5 17.5t73 56.5t56.5 102t42 154l157 808h295l-156 -806q-31 -156 -87 -263.5t-134 -174t-176.5 -96
t-213.5 -29.5zM1160 1455l-5 -28h-159l-177 134h-4l-237 -134h-160l5 28l307 250h229z" />
    <glyph glyph-name="Udieresis" unicode="&#xdc;" 
d="M490 -20q-90 0 -161 18t-121 59t-76.5 108t-26.5 165q0 88 22 198l159 821h295l-159 -818q-10 -50 -14.5 -90.5t-4.5 -73.5q0 -85 34 -120.5t106 -35.5q50 0 90.5 17.5t73 56.5t56.5 102t42 154l157 808h295l-156 -806q-31 -156 -87 -263.5t-134 -174t-176.5 -96
t-213.5 -29.5zM889 1445l43 219h227l-43 -219h-227zM465 1445l43 219h224l-43 -219h-224z" />
    <glyph glyph-name="Yacute" unicode="&#xdd;" 
d="M764 556l-108 -556h-294l108 556l-310 793h309l190 -566l414 566h309zM640 1428l6 31l299 243h258l-8 -43l-385 -231h-170z" />
    <glyph glyph-name="Thorn" unicode="&#xde;" 
d="M1191 693q-16 -84 -62 -162.5t-121 -139.5t-179 -98t-237 -37h-215l-50 -256h-295l262 1349h295l-45 -235h203q117 0 202.5 -24t141 -67.5t82.5 -104t27 -134.5q0 -43 -9 -91zM893 689q2 12 3.5 23.5t1.5 22.5q0 76 -55.5 123t-169.5 47h-170l-86 -440h178
q66 0 117.5 18.5t88.5 49t60 71t32 85.5z" />
    <glyph glyph-name="germandbls" unicode="&#xdf;" 
d="M1134 312q-14 -73 -48.5 -134t-90 -105t-133.5 -68.5t-180 -24.5q-71 0 -134 10t-120 33l41 206q22 -11 50 -21.5t57 -19t58.5 -13.5t54.5 -5q81 0 125 34.5t55 91.5q8 43 -7.5 75t-43.5 60t-63.5 54t-66 57.5t-51.5 70.5t-21 93q0 13 1 26.5t4 27.5q9 46 32 80.5
t53.5 63.5t64 54t63.5 51.5t52.5 57.5t30.5 71q3 15 3 30q0 52 -39 82.5t-117 30.5q-103 0 -169.5 -63.5t-93.5 -204.5l-197 -1013h-281l196 1007q21 111 68.5 199.5t120.5 150t172.5 94.5t225.5 33q101 0 173.5 -21t120 -57.5t70 -86t22.5 -106.5q0 -16 -2 -31.5t-5 -32.5
q-10 -54 -35 -96.5t-56.5 -76.5t-66 -61t-64 -49.5t-50 -43t-24.5 -40.5q-5 -26 11.5 -48.5t44.5 -47t62.5 -53t64 -64.5t49.5 -82t20 -106q0 -34 -7 -69z" />
    <glyph glyph-name="agrave" unicode="&#xe0;" 
d="M330 -20q-134 0 -206.5 62t-72.5 180q0 39 9 84q19 96 63.5 161.5t108.5 106t144 59t169 19.5l224 4l10 55q5 24 7.5 45t2.5 39q0 69 -31.5 97t-85.5 28q-31 0 -58 -7t-49.5 -24.5t-40.5 -47t-32 -74.5l-290 14q25 71 67 129.5t105 101.5t148.5 66.5t196.5 23.5
q173 0 262.5 -72.5t89.5 -213.5q0 -46 -11 -104l-76 -392q-5 -25 -8 -46.5t-3 -38.5q0 -37 15.5 -56t53.5 -19q32 0 63 6l-29 -152q-26 -6 -47 -11t-41.5 -8t-43.5 -5t-53 -2q-95 0 -137 41.5t-42 122.5q0 10 0.5 20t1.5 21h-6q-38 -50 -78.5 -89.5t-86.5 -67t-98.5 -42
t-114.5 -14.5zM738 501l-134 -2q-45 -1 -85 -6.5t-72.5 -23t-55 -51t-33.5 -90.5q-6 -30 -6 -54q0 -98 96 -98q54 0 100.5 23t83 60.5t61.5 86.5t35 100zM698 1184l-295 231l8 43h258l205 -243l-6 -31h-170z" />
    <glyph glyph-name="aacute" unicode="&#xe1;" 
d="M330 -20q-134 0 -206.5 62t-72.5 180q0 39 9 84q19 96 63.5 161.5t108.5 106t144 59t169 19.5l224 4l10 55q5 24 7.5 45t2.5 39q0 69 -31.5 97t-85.5 28q-31 0 -58 -7t-49.5 -24.5t-40.5 -47t-32 -74.5l-290 14q25 71 67 129.5t105 101.5t148.5 66.5t196.5 23.5
q173 0 262.5 -72.5t89.5 -213.5q0 -46 -11 -104l-76 -392q-5 -25 -8 -46.5t-3 -38.5q0 -37 15.5 -56t53.5 -19q32 0 63 6l-29 -152q-26 -6 -47 -11t-41.5 -8t-43.5 -5t-53 -2q-95 0 -137 41.5t-42 122.5q0 10 0.5 20t1.5 21h-6q-38 -50 -78.5 -89.5t-86.5 -67t-98.5 -42
t-114.5 -14.5zM738 501l-134 -2q-45 -1 -85 -6.5t-72.5 -23t-55 -51t-33.5 -90.5q-6 -30 -6 -54q0 -98 96 -98q54 0 100.5 23t83 60.5t61.5 86.5t35 100zM569 1184l6 31l299 243h258l-8 -43l-385 -231h-170z" />
    <glyph glyph-name="acircumflex" unicode="&#xe2;" 
d="M330 -20q-134 0 -206.5 62t-72.5 180q0 39 9 84q19 96 63.5 161.5t108.5 106t144 59t169 19.5l224 4l10 55q5 24 7.5 45t2.5 39q0 69 -31.5 97t-85.5 28q-31 0 -58 -7t-49.5 -24.5t-40.5 -47t-32 -74.5l-290 14q25 71 67 129.5t105 101.5t148.5 66.5t196.5 23.5
q173 0 262.5 -72.5t89.5 -213.5q0 -46 -11 -104l-76 -392q-5 -25 -8 -46.5t-3 -38.5q0 -37 15.5 -56t53.5 -19q32 0 63 6l-29 -152q-26 -6 -47 -11t-41.5 -8t-43.5 -5t-53 -2q-95 0 -137 41.5t-42 122.5q0 10 0.5 20t1.5 21h-6q-38 -50 -78.5 -89.5t-86.5 -67t-98.5 -42
t-114.5 -14.5zM738 501l-134 -2q-45 -1 -85 -6.5t-72.5 -23t-55 -51t-33.5 -90.5q-6 -30 -6 -54q0 -98 96 -98q54 0 100.5 23t83 60.5t61.5 86.5t35 100zM1095 1211l-5 -28h-159l-177 134h-4l-237 -134h-160l5 28l307 250h229z" />
    <glyph glyph-name="atilde" unicode="&#xe3;" 
d="M330 -20q-134 0 -206.5 62t-72.5 180q0 39 9 84q19 96 63.5 161.5t108.5 106t144 59t169 19.5l224 4l10 55q5 24 7.5 45t2.5 39q0 69 -31.5 97t-85.5 28q-31 0 -58 -7t-49.5 -24.5t-40.5 -47t-32 -74.5l-290 14q25 71 67 129.5t105 101.5t148.5 66.5t196.5 23.5
q173 0 262.5 -72.5t89.5 -213.5q0 -46 -11 -104l-76 -392q-5 -25 -8 -46.5t-3 -38.5q0 -37 15.5 -56t53.5 -19q32 0 63 6l-29 -152q-26 -6 -47 -11t-41.5 -8t-43.5 -5t-53 -2q-95 0 -137 41.5t-42 122.5q0 10 0.5 20t1.5 21h-6q-38 -50 -78.5 -89.5t-86.5 -67t-98.5 -42
t-114.5 -14.5zM738 501l-134 -2q-45 -1 -85 -6.5t-72.5 -23t-55 -51t-33.5 -90.5q-6 -30 -6 -54q0 -98 96 -98q54 0 100.5 23t83 60.5t61.5 86.5t35 100zM898 1183q-44 0 -85 17.5t-79 39t-72 39t-64 17.5q-26 0 -44.5 -7t-32 -21t-24 -35t-19.5 -50h-137q7 27 17 58.5
t25 63t35.5 60.5t49.5 51.5t66.5 36t86.5 13.5q45 0 87 -17.5t79.5 -39t70.5 -39t62 -17.5q50 0 75.5 28t45.5 85h135q-10 -41 -27.5 -90.5t-49 -92t-80 -71.5t-121.5 -29z" />
    <glyph glyph-name="adieresis" unicode="&#xe4;" 
d="M330 -20q-134 0 -206.5 62t-72.5 180q0 39 9 84q19 96 63.5 161.5t108.5 106t144 59t169 19.5l224 4l10 55q5 24 7.5 45t2.5 39q0 69 -31.5 97t-85.5 28q-31 0 -58 -7t-49.5 -24.5t-40.5 -47t-32 -74.5l-290 14q25 71 67 129.5t105 101.5t148.5 66.5t196.5 23.5
q173 0 262.5 -72.5t89.5 -213.5q0 -46 -11 -104l-76 -392q-5 -25 -8 -46.5t-3 -38.5q0 -37 15.5 -56t53.5 -19q32 0 63 6l-29 -152q-26 -6 -47 -11t-41.5 -8t-43.5 -5t-53 -2q-95 0 -137 41.5t-42 122.5q0 10 0.5 20t1.5 21h-6q-38 -50 -78.5 -89.5t-86.5 -67t-98.5 -42
t-114.5 -14.5zM738 501l-134 -2q-45 -1 -85 -6.5t-72.5 -23t-55 -51t-33.5 -90.5q-6 -30 -6 -54q0 -98 96 -98q54 0 100.5 23t83 60.5t61.5 86.5t35 100zM829 1219l43 219h227l-43 -219h-227zM405 1219l43 219h224l-43 -219h-224z" />
    <glyph glyph-name="aring" unicode="&#xe5;" 
d="M330 -20q-134 0 -206.5 62t-72.5 180q0 39 9 84q19 96 63.5 161.5t108.5 106t144 59t169 19.5l224 4l10 55q5 24 7.5 45t2.5 39q0 69 -31.5 97t-85.5 28q-31 0 -58 -7t-49.5 -24.5t-40.5 -47t-32 -74.5l-290 14q25 71 67 129.5t105 101.5t148.5 66.5t196.5 23.5
q173 0 262.5 -72.5t89.5 -213.5q0 -46 -11 -104l-76 -392q-5 -25 -8 -46.5t-3 -38.5q0 -37 15.5 -56t53.5 -19q32 0 63 6l-29 -152q-26 -6 -47 -11t-41.5 -8t-43.5 -5t-53 -2q-95 0 -137 41.5t-42 122.5q0 10 0.5 20t1.5 21h-6q-38 -50 -78.5 -89.5t-86.5 -67t-98.5 -42
t-114.5 -14.5zM738 501l-134 -2q-45 -1 -85 -6.5t-72.5 -23t-55 -51t-33.5 -90.5q-6 -30 -6 -54q0 -98 96 -98q54 0 100.5 23t83 60.5t61.5 86.5t35 100zM1005 1348q-7 -39 -29 -75t-57.5 -64t-84.5 -44.5t-110 -16.5q-54 0 -93 13t-64.5 35t-37.5 51.5t-12 62.5q0 9 1 18.5
t3 19.5q8 39 29.5 75t57 63.5t84.5 44t110 16.5q54 0 93 -13t64.5 -34.5t37.5 -51t12 -62.5q0 -9 -1 -18.5t-3 -19.5zM866 1348q2 12 -1 25t-13 23t-28.5 16.5t-46.5 6.5q-56 0 -84.5 -23t-33.5 -48q-3 -13 0.5 -25.5t14 -22.5t29 -16.5t46.5 -6.5t49 6.5t35 16.5t22 22.5
t11 25.5z" />
    <glyph glyph-name="ae" unicode="&#xe6;" 
d="M688 484v-2q-15 -73 -15 -137q0 -41 7 -75t21 -58.5t36.5 -38t52.5 -13.5q60 0 99.5 38t68.5 103l169 -45q-21 -45 -52 -93.5t-75.5 -89t-104 -67t-136.5 -26.5q-54 0 -95.5 12t-71 39.5t-47 72t-23.5 108.5q-30 -49 -67 -91.5t-81.5 -73.5t-95.5 -49t-109 -18
q-101 0 -153 58t-52 164q0 23 2.5 48t7.5 52q21 107 62.5 176t95.5 109t116.5 56t124.5 17l148 4l11 55q9 44 9 80q0 56 -21 88.5t-65 32.5q-49 0 -82 -37t-55 -110l-204 17q20 64 51 120.5t76.5 99t106.5 67.5t141 25q91 0 145 -35t75 -104q59 74 128 106.5t145 32.5
q69 0 117 -23t78 -65.5t43.5 -101.5t13.5 -131q0 -57 -7.5 -121t-21.5 -133l-8 -43h-509zM182 299q-6 -28 -6 -55q0 -35 13 -58.5t45 -23.5q45 0 85.5 27t73 69t54.5 92t31 95l11 54l-103 -3q-37 -1 -69 -9t-58 -29.5t-45.5 -59.5t-31.5 -99zM934 924q-21 0 -50 -13
t-59 -43.5t-57 -81t-44 -126.5h301q4 31 6 58t2 51q0 75 -22.5 115t-76.5 40z" />
    <glyph glyph-name="ccedilla" unicode="&#xe7;" 
d="M515 -20q-107 0 -186.5 28t-132 80t-78 125.5t-25.5 164.5q0 37 4 76t12 81q26 135 81.5 240.5t136 178t184 110.5t226.5 38q104 0 180 -27.5t125.5 -75.5t73.5 -113t24 -140v-5l-286 -14q5 83 -33.5 132.5t-126.5 49.5q-113 0 -183 -93t-105 -270q-18 -91 -18 -161
q0 -213 166 -213q80 0 144.5 50.5t96.5 150.5l279 -13q-24 -75 -73 -143.5t-120 -121t-163 -84t-203 -31.5zM675 -255q-7 -39 -29 -74t-62.5 -60.5t-101.5 -40.5t-146 -15q-46 0 -100 6l23 118q23 -5 44 -6t38 -1q75 0 109.5 18.5t41.5 50.5q7 35 -18 52t-91 17h-25.5
t-26.5 -2l106 192h143l-60 -102q81 -5 120 -36t39 -83q0 -8 -1 -16.5t-3 -17.5z" />
    <glyph glyph-name="egrave" unicode="&#xe8;" 
d="M517 -20q-99 0 -179 25t-136.5 75t-87 126.5t-30.5 178.5q0 37 4.5 77t12.5 84q30 155 95.5 261t152 171.5t187.5 94.5t203 29q104 0 179.5 -29.5t124.5 -84t73 -131.5t24 -172q0 -45 -5 -92t-15 -98l-1 -8h-734q-10 -50 -10 -99t11.5 -89.5t35.5 -69.5t60.5 -45
t85.5 -16q37 0 72 8t65.5 23.5t55 40t40.5 57.5l260 -23q-27 -46 -72.5 -98t-112 -95.5t-155.5 -72t-204 -28.5zM701 925q-43 0 -86.5 -14.5t-81 -46t-67 -81.5t-45.5 -120h460q2 15 3 29t1 28q0 102 -51 153.5t-133 51.5zM733 1184l-295 231l8 43h258l205 -243l-6 -31h-170
z" />
    <glyph glyph-name="eacute" unicode="&#xe9;" 
d="M517 -20q-99 0 -179 25t-136.5 75t-87 126.5t-30.5 178.5q0 37 4.5 77t12.5 84q30 155 95.5 261t152 171.5t187.5 94.5t203 29q104 0 179.5 -29.5t124.5 -84t73 -131.5t24 -172q0 -45 -5 -92t-15 -98l-1 -8h-734q-10 -50 -10 -99t11.5 -89.5t35.5 -69.5t60.5 -45
t85.5 -16q37 0 72 8t65.5 23.5t55 40t40.5 57.5l260 -23q-27 -46 -72.5 -98t-112 -95.5t-155.5 -72t-204 -28.5zM701 925q-43 0 -86.5 -14.5t-81 -46t-67 -81.5t-45.5 -120h460q2 15 3 29t1 28q0 102 -51 153.5t-133 51.5zM603 1184l6 31l299 243h258l-8 -43l-385 -231h-170
z" />
    <glyph glyph-name="ecircumflex" unicode="&#xea;" 
d="M517 -20q-99 0 -179 25t-136.5 75t-87 126.5t-30.5 178.5q0 37 4.5 77t12.5 84q30 155 95.5 261t152 171.5t187.5 94.5t203 29q104 0 179.5 -29.5t124.5 -84t73 -131.5t24 -172q0 -45 -5 -92t-15 -98l-1 -8h-734q-10 -50 -10 -99t11.5 -89.5t35.5 -69.5t60.5 -45
t85.5 -16q37 0 72 8t65.5 23.5t55 40t40.5 57.5l260 -23q-27 -46 -72.5 -98t-112 -95.5t-155.5 -72t-204 -28.5zM701 925q-43 0 -86.5 -14.5t-81 -46t-67 -81.5t-45.5 -120h460q2 15 3 29t1 28q0 102 -51 153.5t-133 51.5zM1120 1211l-5 -28h-159l-177 134h-4l-237 -134
h-160l5 28l307 250h229z" />
    <glyph glyph-name="edieresis" unicode="&#xeb;" 
d="M517 -20q-99 0 -179 25t-136.5 75t-87 126.5t-30.5 178.5q0 37 4.5 77t12.5 84q30 155 95.5 261t152 171.5t187.5 94.5t203 29q104 0 179.5 -29.5t124.5 -84t73 -131.5t24 -172q0 -45 -5 -92t-15 -98l-1 -8h-734q-10 -50 -10 -99t11.5 -89.5t35.5 -69.5t60.5 -45
t85.5 -16q37 0 72 8t65.5 23.5t55 40t40.5 57.5l260 -23q-27 -46 -72.5 -98t-112 -95.5t-155.5 -72t-204 -28.5zM701 925q-43 0 -86.5 -14.5t-81 -46t-67 -81.5t-45.5 -120h460q2 15 3 29t1 28q0 102 -51 153.5t-133 51.5zM853 1219l43 219h227l-43 -219h-227zM429 1219
l43 219h224l-43 -219h-224z" />
    <glyph glyph-name="igrave" unicode="&#xec;" 
d="M726 190h353l-37 -190h-1029l37 190h395l136 702h-290l37 190h571zM745 1184l-295 231l8 43h258l205 -243l-6 -31h-170z" />
    <glyph glyph-name="iacute" unicode="&#xed;" 
d="M726 190h353l-37 -190h-1029l37 190h395l136 702h-290l37 190h571zM596 1184l6 31l299 243h258l-8 -43l-385 -231h-170z" />
    <glyph glyph-name="icircumflex" unicode="&#xee;" 
d="M726 190h353l-37 -190h-1029l37 190h395l136 702h-290l37 190h571zM1123 1211l-5 -28h-159l-177 134h-4l-237 -134h-160l5 28l307 250h229z" />
    <glyph glyph-name="idieresis" unicode="&#xef;" 
d="M726 190h353l-37 -190h-1029l37 190h395l136 702h-290l37 190h571zM886 1219l43 219h227l-43 -219h-227zM462 1219l43 219h224l-43 -219h-224z" />
    <glyph glyph-name="eth" unicode="&#xf0;" 
d="M961 1266q87 -109 140 -243.5t53 -294.5q0 -92 -19 -187l-1 -4q-24 -122 -74.5 -224.5t-129.5 -176.5t-187 -115t-245 -41q-112 0 -194.5 27t-137 76t-81 118t-26.5 153q0 29 3.5 60.5t9.5 64.5q21 107 69 198.5t125.5 158.5t184.5 105t245 38q35 0 69.5 -5t60.5 -15
q-19 66 -42 116t-56 101l-255 -102l-47 155l201 79q-48 46 -106 90t-118 86h293q36 -20 72 -43t70 -51l270 109l53 -154zM829 477q7 36 10.5 68t3.5 59q0 94 -43 138t-137 44q-125 0 -195.5 -75.5t-100.5 -233.5q-13 -65 -13 -118q0 -98 44.5 -143.5t131.5 -45.5
q62 0 110.5 17.5t85.5 55t62 95.5t41 139z" />
    <glyph glyph-name="ntilde" unicode="&#xf1;" 
d="M719 0l120 619q15 74 15 127q0 75 -32 110.5t-101 35.5q-51 0 -97 -22.5t-84.5 -64t-66 -99t-41.5 -126.5l-113 -580h-281l163 840q7 35 13.5 72t12 70.5t9 60t4.5 39.5h268q0 -12 -3 -38.5t-7 -58.5t-9 -64t-9 -54h4q80 123 177.5 179.5t215.5 56.5q141 0 206 -71.5
t65 -201.5q0 -65 -15 -143l-134 -687h-280zM916 1183q-44 0 -85 17.5t-79 39t-72 39t-64 17.5q-26 0 -44.5 -7t-32 -21t-24 -35t-19.5 -50h-137q7 27 17 58.5t25 63t35.5 60.5t49.5 51.5t66.5 36t86.5 13.5q45 0 87 -17.5t79.5 -39t70.5 -39t62 -17.5q50 0 75.5 28t45.5 85
h135q-10 -41 -27.5 -90.5t-49 -92t-80 -71.5t-121.5 -29z" />
    <glyph glyph-name="ograve" unicode="&#xf2;" 
d="M1137 542q-24 -124 -75 -227t-130 -177.5t-186.5 -116t-244.5 -41.5q-109 0 -189.5 28.5t-132.5 81t-77.5 127t-25.5 166.5q0 38 4 77.5t12 81.5q24 121 74 223.5t128 177.5t185.5 117t245.5 42q118 0 200 -27.5t133.5 -77.5t74.5 -121t23 -157q0 -42 -5 -85.5t-14 -91.5
zM843 542q10 51 15 94t5 79q0 101 -41 147.5t-130 46.5q-62 0 -110.5 -21.5t-85.5 -66.5t-63.5 -114t-45.5 -165q-18 -94 -18 -164q0 -107 42 -156.5t124 -49.5q62 0 111 21.5t86.5 66.5t64.5 115t46 167zM742 1184l-295 231l8 43h258l205 -243l-6 -31h-170z" />
    <glyph glyph-name="oacute" unicode="&#xf3;" 
d="M1137 542q-24 -124 -75 -227t-130 -177.5t-186.5 -116t-244.5 -41.5q-109 0 -189.5 28.5t-132.5 81t-77.5 127t-25.5 166.5q0 38 4 77.5t12 81.5q24 121 74 223.5t128 177.5t185.5 117t245.5 42q118 0 200 -27.5t133.5 -77.5t74.5 -121t23 -157q0 -42 -5 -85.5t-14 -91.5
zM843 542q10 51 15 94t5 79q0 101 -41 147.5t-130 46.5q-62 0 -110.5 -21.5t-85.5 -66.5t-63.5 -114t-45.5 -165q-18 -94 -18 -164q0 -107 42 -156.5t124 -49.5q62 0 111 21.5t86.5 66.5t64.5 115t46 167zM593 1184l6 31l299 243h258l-8 -43l-385 -231h-170z" />
    <glyph glyph-name="ocircumflex" unicode="&#xf4;" 
d="M1137 542q-24 -124 -75 -227t-130 -177.5t-186.5 -116t-244.5 -41.5q-109 0 -189.5 28.5t-132.5 81t-77.5 127t-25.5 166.5q0 38 4 77.5t12 81.5q24 121 74 223.5t128 177.5t185.5 117t245.5 42q118 0 200 -27.5t133.5 -77.5t74.5 -121t23 -157q0 -42 -5 -85.5t-14 -91.5
zM843 542q10 51 15 94t5 79q0 101 -41 147.5t-130 46.5q-62 0 -110.5 -21.5t-85.5 -66.5t-63.5 -114t-45.5 -165q-18 -94 -18 -164q0 -107 42 -156.5t124 -49.5q62 0 111 21.5t86.5 66.5t64.5 115t46 167zM1113 1211l-5 -28h-159l-177 134h-4l-237 -134h-160l5 28l307 250
h229z" />
    <glyph glyph-name="otilde" unicode="&#xf5;" 
d="M1137 542q-24 -124 -75 -227t-130 -177.5t-186.5 -116t-244.5 -41.5q-109 0 -189.5 28.5t-132.5 81t-77.5 127t-25.5 166.5q0 38 4 77.5t12 81.5q24 121 74 223.5t128 177.5t185.5 117t245.5 42q118 0 200 -27.5t133.5 -77.5t74.5 -121t23 -157q0 -42 -5 -85.5t-14 -91.5
zM843 542q10 51 15 94t5 79q0 101 -41 147.5t-130 46.5q-62 0 -110.5 -21.5t-85.5 -66.5t-63.5 -114t-45.5 -165q-18 -94 -18 -164q0 -107 42 -156.5t124 -49.5q62 0 111 21.5t86.5 66.5t64.5 115t46 167zM906 1183q-44 0 -85 17.5t-79 39t-72 39t-64 17.5q-26 0 -44.5 -7
t-32 -21t-24 -35t-19.5 -50h-137q7 27 17 58.5t25 63t35.5 60.5t49.5 51.5t66.5 36t86.5 13.5q45 0 87 -17.5t79.5 -39t70.5 -39t62 -17.5q50 0 75.5 28t45.5 85h135q-10 -41 -27.5 -90.5t-49 -92t-80 -71.5t-121.5 -29z" />
    <glyph glyph-name="odieresis" unicode="&#xf6;" 
d="M1137 542q-24 -124 -75 -227t-130 -177.5t-186.5 -116t-244.5 -41.5q-109 0 -189.5 28.5t-132.5 81t-77.5 127t-25.5 166.5q0 38 4 77.5t12 81.5q24 121 74 223.5t128 177.5t185.5 117t245.5 42q118 0 200 -27.5t133.5 -77.5t74.5 -121t23 -157q0 -42 -5 -85.5t-14 -91.5
zM843 542q10 51 15 94t5 79q0 101 -41 147.5t-130 46.5q-62 0 -110.5 -21.5t-85.5 -66.5t-63.5 -114t-45.5 -165q-18 -94 -18 -164q0 -107 42 -156.5t124 -49.5q62 0 111 21.5t86.5 66.5t64.5 115t46 167zM845 1219l43 219h227l-43 -219h-227zM421 1219l43 219h224l-43 -219
h-224z" />
    <glyph glyph-name="divide" unicode="&#xf7;" 
d="M495 961v233h239v-233h-239zM101 569v224h1027v-224h-1027zM495 170v233h239v-233h-239z" />
    <glyph glyph-name="oslash" unicode="&#xf8;" 
d="M1137 542q-24 -124 -75 -227t-130 -177.5t-186.5 -116t-244.5 -41.5q-103 0 -179.5 25t-129.5 72l-104 -97l-81 78l116 107q-47 90 -47 217q0 77 16 160q24 121 74 223.5t128 177.5t185.5 117t245.5 42q107 0 184 -22.5t128 -64.5l97 89l82 -78l-106 -98q24 -44 35 -97
t11 -113q0 -42 -5 -85.5t-14 -90.5zM843 542q9 45 13.5 84t6.5 72l-475 -439q38 -87 147 -87q62 0 111 21.5t86.5 66.5t64.5 115t46 167zM387 542q-16 -84 -18 -148l472 438q-38 77 -149 77q-62 0 -110.5 -21.5t-85.5 -66.5t-63.5 -114t-45.5 -165z" />
    <glyph glyph-name="ugrave" unicode="&#xf9;" 
d="M521 1082l-118 -607q-12 -63 -12 -115q0 -78 30 -124t99 -46q43 0 85.5 22.5t78.5 64t63.5 99t40.5 126.5l112 580h281l-163 -840q-7 -34 -13.5 -71.5t-11.5 -71t-9 -60t-5 -39.5h-268q1 12 4 38.5t7.5 58.5t9.5 64t9 54h-5q-80 -123 -175 -179t-199 -56q-74 0 -125.5 20
t-83.5 56t-46.5 86t-14.5 111q0 67 15 142l133 687h281zM718 1184l-295 231l8 43h258l205 -243l-6 -31h-170z" />
    <glyph glyph-name="uacute" unicode="&#xfa;" 
d="M521 1082l-118 -607q-12 -63 -12 -115q0 -78 30 -124t99 -46q43 0 85.5 22.5t78.5 64t63.5 99t40.5 126.5l112 580h281l-163 -840q-7 -34 -13.5 -71.5t-11.5 -71t-9 -60t-5 -39.5h-268q1 12 4 38.5t7.5 58.5t9.5 64t9 54h-5q-80 -123 -175 -179t-199 -56q-74 0 -125.5 20
t-83.5 56t-46.5 86t-14.5 111q0 67 15 142l133 687h281zM582 1184l6 31l299 243h258l-8 -43l-385 -231h-170z" />
    <glyph glyph-name="ucircumflex" unicode="&#xfb;" 
d="M521 1082l-118 -607q-12 -63 -12 -115q0 -78 30 -124t99 -46q43 0 85.5 22.5t78.5 64t63.5 99t40.5 126.5l112 580h281l-163 -840q-7 -34 -13.5 -71.5t-11.5 -71t-9 -60t-5 -39.5h-268q1 12 4 38.5t7.5 58.5t9.5 64t9 54h-5q-80 -123 -175 -179t-199 -56q-74 0 -125.5 20
t-83.5 56t-46.5 86t-14.5 111q0 67 15 142l133 687h281zM1113 1211l-5 -28h-159l-177 134h-4l-237 -134h-160l5 28l307 250h229z" />
    <glyph glyph-name="udieresis" unicode="&#xfc;" 
d="M521 1082l-118 -607q-12 -63 -12 -115q0 -78 30 -124t99 -46q43 0 85.5 22.5t78.5 64t63.5 99t40.5 126.5l112 580h281l-163 -840q-7 -34 -13.5 -71.5t-11.5 -71t-9 -60t-5 -39.5h-268q1 12 4 38.5t7.5 58.5t9.5 64t9 54h-5q-80 -123 -175 -179t-199 -56q-74 0 -125.5 20
t-83.5 56t-46.5 86t-14.5 111q0 67 15 142l133 687h281zM845 1219l43 219h227l-43 -219h-227zM421 1219l43 219h224l-43 -219h-224z" />
    <glyph glyph-name="yacute" unicode="&#xfd;" 
d="M626 -57q-56 -95 -109.5 -164.5t-111 -114.5t-123 -67t-145.5 -22q-44 0 -92 3t-87 10l39 200q10 -2 23 -3t26.5 -2.5t27 -2t23.5 -0.5q41 0 74.5 9t64 30t60 56t60.5 88l27 48l-240 1071h297l88 -527q2 -11 5.5 -37t7 -59.5t7.5 -70.5t7.5 -70.5t6 -59.5t2.5 -37
q5 11 16.5 36.5t26.5 58t32 68.5t32.5 69t28 59.5t18.5 38.5l283 531h294zM599 1184l6 31l299 243h258l-8 -43l-385 -231h-170z" />
    <glyph glyph-name="thorn" unicode="&#xfe;" 
d="M326 1484h281l-80 -412q-5 -30 -12 -60t-12 -54q-6 -28 -12 -54h4q75 100 165.5 149.5t193.5 49.5q75 0 130.5 -25.5t92 -73t54.5 -114.5t18 -150q0 -90 -21 -195q-24 -125 -69.5 -229t-110 -178.5t-147.5 -116t-183 -41.5q-40 0 -80.5 10t-76 32.5t-64 59t-45.5 90.5h-6
q0 -5 -2.5 -25t-7 -46.5t-9.5 -56t-10 -54.5l-81 -415h-281zM845 545q18 92 18 161q0 97 -37 149.5t-119 52.5q-42 0 -85 -20t-81.5 -64t-70 -115t-51.5 -172q-8 -42 -11.5 -77.5t-3.5 -66.5q0 -59 12 -101t33.5 -68.5t50.5 -39t62 -12.5q109 0 178.5 94.5t104.5 278.5z" />
    <glyph glyph-name="ydieresis" unicode="&#xff;" 
d="M626 -57q-56 -95 -109.5 -164.5t-111 -114.5t-123 -67t-145.5 -22q-44 0 -92 3t-87 10l39 200q10 -2 23 -3t26.5 -2.5t27 -2t23.5 -0.5q41 0 74.5 9t64 30t60 56t60.5 88l27 48l-240 1071h297l88 -527q2 -11 5.5 -37t7 -59.5t7.5 -70.5t7.5 -70.5t6 -59.5t2.5 -37
q5 11 16.5 36.5t26.5 58t32 68.5t32.5 69t28 59.5t18.5 38.5l283 531h294zM850 1219l43 219h227l-43 -219h-227zM426 1219l43 219h224l-43 -219h-224z" />
    <glyph glyph-name="Amacron" unicode="&#x100;" 
d="M1124 0h-294l-28 330h-456l-156 -330h-295l705 1349h344zM737 1167q-4 -10 -14.5 -35t-24.5 -57t-31 -69.5t-34 -73.5l-182 -380h332l-34 380q-3 36 -5 73.5t-3.5 69.5t-2.5 57t-1 35zM523 1638h612l-32 -168h-612z" />
    <glyph glyph-name="amacron" unicode="&#x101;" 
d="M330 -20q-134 0 -206.5 62t-72.5 180q0 39 9 84q19 96 63.5 161.5t108.5 106t144 59t169 19.5l224 4l10 55q5 24 7.5 45t2.5 39q0 69 -31.5 97t-85.5 28q-31 0 -58 -7t-49.5 -24.5t-40.5 -47t-32 -74.5l-290 14q25 71 67 129.5t105 101.5t148.5 66.5t196.5 23.5
q173 0 262.5 -72.5t89.5 -213.5q0 -46 -11 -104l-76 -392q-5 -25 -8 -46.5t-3 -38.5q0 -37 15.5 -56t53.5 -19q32 0 63 6l-29 -152q-26 -6 -47 -11t-41.5 -8t-43.5 -5t-53 -2q-95 0 -137 41.5t-42 122.5q0 10 0.5 20t1.5 21h-6q-38 -50 -78.5 -89.5t-86.5 -67t-98.5 -42
t-114.5 -14.5zM738 501l-134 -2q-45 -1 -85 -6.5t-72.5 -23t-55 -51t-33.5 -90.5q-6 -30 -6 -54q0 -98 96 -98q54 0 100.5 23t83 60.5t61.5 86.5t35 100zM462 1371h612l-32 -168h-612z" />
    <glyph glyph-name="Abreve" unicode="&#x102;" 
d="M1124 0h-294l-28 330h-456l-156 -330h-295l705 1349h344zM737 1167q-4 -10 -14.5 -35t-24.5 -57t-31 -69.5t-34 -73.5l-182 -380h332l-34 380q-3 36 -5 73.5t-3.5 69.5t-2.5 57t-1 35zM784 1427q-148 0 -224 61.5t-76 175.5v20t2 21h163q-4 -63 39 -92t128 -29
q88 0 138 29t76 92h164q-42 -132 -142.5 -205t-267.5 -73z" />
    <glyph glyph-name="abreve" unicode="&#x103;" 
d="M330 -20q-134 0 -206.5 62t-72.5 180q0 39 9 84q19 96 63.5 161.5t108.5 106t144 59t169 19.5l224 4l10 55q5 24 7.5 45t2.5 39q0 69 -31.5 97t-85.5 28q-31 0 -58 -7t-49.5 -24.5t-40.5 -47t-32 -74.5l-290 14q25 71 67 129.5t105 101.5t148.5 66.5t196.5 23.5
q173 0 262.5 -72.5t89.5 -213.5q0 -46 -11 -104l-76 -392q-5 -25 -8 -46.5t-3 -38.5q0 -37 15.5 -56t53.5 -19q32 0 63 6l-29 -152q-26 -6 -47 -11t-41.5 -8t-43.5 -5t-53 -2q-95 0 -137 41.5t-42 122.5q0 10 0.5 20t1.5 21h-6q-38 -50 -78.5 -89.5t-86.5 -67t-98.5 -42
t-114.5 -14.5zM738 501l-134 -2q-45 -1 -85 -6.5t-72.5 -23t-55 -51t-33.5 -90.5q-6 -30 -6 -54q0 -98 96 -98q54 0 100.5 23t83 60.5t61.5 86.5t35 100zM718 1183q-148 0 -224 61.5t-76 175.5v20t2 21h163q-4 -63 39 -92t128 -29q88 0 138 29t76 92h164
q-42 -132 -142.5 -205t-267.5 -73z" />
    <glyph glyph-name="Aogonek" unicode="&#x104;" 
d="M1124 0h-294l-28 330h-456l-156 -330h-295l705 1349h344zM737 1167q-4 -10 -14.5 -35t-24.5 -57t-31 -69.5t-34 -73.5l-182 -380h332l-34 380q-3 36 -5 73.5t-3.5 69.5t-2.5 57t-1 35zM891 -414q-91 0 -146.5 39.5t-55.5 117.5q0 23 4 43q9 48 33 88.5t54 71.5t62 52.5
t57 33.5h153q-72 -42 -115.5 -99.5t-54.5 -110.5q-8 -42 11.5 -67.5t64.5 -25.5q31 0 59 7t58 20l-26 -137q-69 -33 -158 -33z" />
    <glyph glyph-name="aogonek" unicode="&#x105;" 
d="M330 -20q-134 0 -206.5 62t-72.5 180q0 39 9 84q19 96 63.5 161.5t108.5 106t144 59t169 19.5l224 4l10 55q5 24 7.5 45t2.5 39q0 69 -31.5 97t-85.5 28q-31 0 -58 -7t-49.5 -24.5t-40.5 -47t-32 -74.5l-290 14q25 71 67 129.5t105 101.5t148.5 66.5t196.5 23.5
q173 0 262.5 -72.5t89.5 -213.5q0 -46 -11 -104l-76 -392q-5 -25 -8 -46.5t-3 -38.5q0 -37 15.5 -56t53.5 -19q32 0 63 6l-29 -152q-26 -6 -47 -11t-41.5 -8t-43.5 -5t-53 -2q-95 0 -137 41.5t-42 122.5q0 10 0.5 20t1.5 21h-6q-38 -50 -78.5 -89.5t-86.5 -67t-98.5 -42
t-114.5 -14.5zM738 501l-134 -2q-45 -1 -85 -6.5t-72.5 -23t-55 -51t-33.5 -90.5q-6 -30 -6 -54q0 -98 96 -98q54 0 100.5 23t83 60.5t61.5 86.5t35 100zM832 -425q-91 0 -146.5 39.5t-55.5 117.5q0 23 4 43q9 48 33 88.5t54 71.5t62 52.5t57 33.5h153q-72 -42 -115.5 -99.5
t-54.5 -110.5q-8 -42 11.5 -67.5t64.5 -25.5q31 0 59 7t58 20l-26 -137q-69 -33 -158 -33z" />
    <glyph glyph-name="Cacute" unicode="&#x106;" 
d="M407 681q-21 -109 -21 -195q0 -134 51.5 -204t157.5 -70q45 0 85.5 18t76.5 50.5t67.5 77.5t58.5 98l263 -52q-51 -99 -112.5 -177.5t-136 -133t-161.5 -84t-189 -29.5q-122 0 -210 32.5t-144.5 93.5t-83 148t-26.5 195t24 232q33 167 92 295t146 216t203 133t261 45
q104 0 179 -29t125.5 -80.5t78.5 -123t38 -156.5l-285 -66q-4 48 -16.5 89t-34.5 71t-53.5 46.5t-72.5 16.5q-136 0 -226.5 -115.5t-134.5 -341.5zM671 1428l6 31l299 243h258l-8 -43l-385 -231h-170z" />
    <glyph glyph-name="cacute" unicode="&#x107;" 
d="M515 -20q-107 0 -186.5 28t-132 80t-78 125.5t-25.5 164.5q0 37 4 76t12 81q26 135 81.5 240.5t136 178t184 110.5t226.5 38q104 0 180 -27.5t125.5 -75.5t73.5 -113t24 -140v-5l-286 -14q5 83 -33.5 132.5t-126.5 49.5q-113 0 -183 -93t-105 -270q-18 -91 -18 -161
q0 -213 166 -213q80 0 144.5 50.5t96.5 150.5l279 -13q-24 -75 -73 -143.5t-120 -121t-163 -84t-203 -31.5zM594 1184l6 31l299 243h258l-8 -43l-385 -231h-170z" />
    <glyph glyph-name="Ccircumflex" unicode="&#x108;" 
d="M407 681q-21 -109 -21 -195q0 -134 51.5 -204t157.5 -70q45 0 85.5 18t76.5 50.5t67.5 77.5t58.5 98l263 -52q-51 -99 -112.5 -177.5t-136 -133t-161.5 -84t-189 -29.5q-122 0 -210 32.5t-144.5 93.5t-83 148t-26.5 195t24 232q33 167 92 295t146 216t203 133t261 45
q104 0 179 -29t125.5 -80.5t78.5 -123t38 -156.5l-285 -66q-4 48 -16.5 89t-34.5 71t-53.5 46.5t-72.5 16.5q-136 0 -226.5 -115.5t-134.5 -341.5zM1180 1455l-5 -28h-159l-177 134h-4l-237 -134h-160l5 28l307 250h229z" />
    <glyph glyph-name="ccircumflex" unicode="&#x109;" 
d="M515 -20q-107 0 -186.5 28t-132 80t-78 125.5t-25.5 164.5q0 37 4 76t12 81q26 135 81.5 240.5t136 178t184 110.5t226.5 38q104 0 180 -27.5t125.5 -75.5t73.5 -113t24 -140v-5l-286 -14q5 83 -33.5 132.5t-126.5 49.5q-113 0 -183 -93t-105 -270q-18 -91 -18 -161
q0 -213 166 -213q80 0 144.5 50.5t96.5 150.5l279 -13q-24 -75 -73 -143.5t-120 -121t-163 -84t-203 -31.5zM1113 1211l-5 -28h-159l-177 134h-4l-237 -134h-160l5 28l307 250h229z" />
    <glyph glyph-name="Cdotaccent" unicode="&#x10a;" 
d="M407 681q-21 -109 -21 -195q0 -134 51.5 -204t157.5 -70q45 0 85.5 18t76.5 50.5t67.5 77.5t58.5 98l263 -52q-51 -99 -112.5 -177.5t-136 -133t-161.5 -84t-189 -29.5q-122 0 -210 32.5t-144.5 93.5t-83 148t-26.5 195t24 232q33 167 92 295t146 216t203 133t261 45
q104 0 179 -29t125.5 -80.5t78.5 -123t38 -156.5l-285 -66q-4 48 -16.5 89t-34.5 71t-53.5 46.5t-72.5 16.5q-136 0 -226.5 -115.5t-134.5 -341.5zM675 1431l41 207h281l-41 -207h-281z" />
    <glyph glyph-name="cdotaccent" unicode="&#x10b;" 
d="M515 -20q-107 0 -186.5 28t-132 80t-78 125.5t-25.5 164.5q0 37 4 76t12 81q26 135 81.5 240.5t136 178t184 110.5t226.5 38q104 0 180 -27.5t125.5 -75.5t73.5 -113t24 -140v-5l-286 -14q5 83 -33.5 132.5t-126.5 49.5q-113 0 -183 -93t-105 -270q-18 -91 -18 -161
q0 -213 166 -213q80 0 144.5 50.5t96.5 150.5l279 -13q-24 -75 -73 -143.5t-120 -121t-163 -84t-203 -31.5zM635 1277l41 207h281l-41 -207h-281z" />
    <glyph glyph-name="Ccaron" unicode="&#x10c;" 
d="M407 681q-21 -109 -21 -195q0 -134 51.5 -204t157.5 -70q45 0 85.5 18t76.5 50.5t67.5 77.5t58.5 98l263 -52q-51 -99 -112.5 -177.5t-136 -133t-161.5 -84t-189 -29.5q-122 0 -210 32.5t-144.5 93.5t-83 148t-26.5 195t24 232q33 167 92 295t146 216t203 133t261 45
q104 0 179 -29t125.5 -80.5t78.5 -123t38 -156.5l-285 -66q-4 48 -16.5 89t-34.5 71t-53.5 46.5t-72.5 16.5q-136 0 -226.5 -115.5t-134.5 -341.5zM922 1427h-229l-210 249l6 29h160l185 -134h4l229 134h159l-6 -29z" />
    <glyph glyph-name="ccaron" unicode="&#x10d;" 
d="M515 -20q-107 0 -186.5 28t-132 80t-78 125.5t-25.5 164.5q0 37 4 76t12 81q26 135 81.5 240.5t136 178t184 110.5t226.5 38q104 0 180 -27.5t125.5 -75.5t73.5 -113t24 -140v-5l-286 -14q5 83 -33.5 132.5t-126.5 49.5q-113 0 -183 -93t-105 -270q-18 -91 -18 -161
q0 -213 166 -213q80 0 144.5 50.5t96.5 150.5l279 -13q-24 -75 -73 -143.5t-120 -121t-163 -84t-203 -31.5zM854 1183h-229l-210 249l6 29h160l185 -134h4l229 134h159l-6 -29z" />
    <glyph glyph-name="Dcaron" unicode="&#x10e;" 
d="M1177 685q-33 -168 -97.5 -296t-157.5 -214.5t-212 -130.5t-259 -44h-421l262 1349h361q133 0 235 -27.5t171 -84t104.5 -143t35.5 -205.5q0 -94 -22 -204zM880 685q18 93 18 164q0 144 -73.5 208t-220.5 64h-61l-174 -893h102q162 0 263 114.5t146 342.5zM875 1427h-229
l-210 249l6 29h160l185 -134h4l229 134h159l-6 -29z" />
    <glyph glyph-name="dcaron" unicode="&#x10f;" 
d="M535 0q-1 8 0.5 28.5t4.5 46.5t6.5 53t7.5 48h-4q-37 -54 -73.5 -91t-73.5 -60.5t-76 -34t-81 -10.5q-59 0 -104 25.5t-75 72t-45 111.5t-15 145q0 96 21 205q24 123 66 226t99 177.5t128.5 116t153.5 41.5q38 0 72 -10t62.5 -32.5t50.5 -59t35 -89.5h2q2 10 5.5 29.5
t7.5 44.5t9 52t10 52l77 397h271l-242 -1248q-16 -79 -24.5 -140.5t-13.5 -95.5h-262zM628 546q19 98 19 169q0 56 -10 93t-25.5 59.5t-35 32t-38.5 9.5q-31 0 -63 -21t-61.5 -65.5t-55.5 -114.5t-45 -169q-21 -106 -21 -183q0 -92 26.5 -138t73.5 -46q24 0 56 18t65 61
t63.5 115t51.5 180zM1085 1129l7 33l91 322h231l-7 -37l-183 -318h-139z" />
    <glyph glyph-name="Dcroat" unicode="&#x110;" 
d="M1190 685q-33 -168 -97.5 -296t-157.5 -214.5t-212 -130.5t-259 -44h-421l110 564h-134l42 219h134l110 566h361q133 0 235 -27.5t171 -84t104.5 -143t35.5 -205.5q0 -94 -22 -204zM893 685q18 93 18 164q0 144 -73.5 208t-220.5 64h-61l-66 -338h207l-42 -219h-207
l-66 -336h102q162 0 263 114.5t146 342.5z" />
    <glyph glyph-name="dcroat" unicode="&#x111;" 
d="M1333 1180h-133l-183 -944q-16 -79 -24.5 -140.5t-13.5 -95.5h-272q-1 8 0.5 28.5t4.5 46.5t6.5 53t7.5 48h-4q-37 -54 -77 -91t-84 -60.5t-92 -34t-101 -10.5q-76 0 -132 25.5t-93 72t-55.5 112.5t-18.5 148q0 43 5 89t15 96q24 123 67.5 223.5t106.5 172t145 110.5
t183 39q45 0 88 -10t79 -32.5t62.5 -59t39.5 -89.5h2q2 10 6.5 34.5t10 55.5t11.5 63t11 57l18 93h-282l33 169h282l26 135h281l-26 -135h133zM797 530q16 80 16 142t-14 101.5t-37 62.5t-51.5 32t-57.5 9q-46 0 -87 -18.5t-75.5 -60t-62 -109t-46.5 -166.5
q-9 -45 -13 -83.5t-4 -71.5q0 -102 38.5 -149t110.5 -47q35 0 75.5 15.5t79.5 55.5t73 109.5t55 177.5z" />
    <glyph glyph-name="Emacron" unicode="&#x112;" 
d="M32 0l262 1349h968l-44 -228h-673l-63 -324h612l-44 -228h-612l-67 -341h714l-44 -228h-1009zM539 1638h612l-32 -168h-612z" />
    <glyph glyph-name="emacron" unicode="&#x113;" 
d="M517 -20q-99 0 -179 25t-136.5 75t-87 126.5t-30.5 178.5q0 37 4.5 77t12.5 84q30 155 95.5 261t152 171.5t187.5 94.5t203 29q104 0 179.5 -29.5t124.5 -84t73 -131.5t24 -172q0 -45 -5 -92t-15 -98l-1 -8h-734q-10 -50 -10 -99t11.5 -89.5t35.5 -69.5t60.5 -45
t85.5 -16q37 0 72 8t65.5 23.5t55 40t40.5 57.5l260 -23q-27 -46 -72.5 -98t-112 -95.5t-155.5 -72t-204 -28.5zM701 925q-43 0 -86.5 -14.5t-81 -46t-67 -81.5t-45.5 -120h460q2 15 3 29t1 28q0 102 -51 153.5t-133 51.5zM471 1371h612l-32 -168h-612z" />
    <glyph glyph-name="Ebreve" unicode="&#x114;" 
d="M32 0l262 1349h968l-44 -228h-673l-63 -324h612l-44 -228h-612l-67 -341h714l-44 -228h-1009zM784 1427q-148 0 -224 61.5t-76 175.5v20t2 21h163q-4 -63 39 -92t128 -29q88 0 138 29t76 92h164q-42 -132 -142.5 -205t-267.5 -73z" />
    <glyph glyph-name="ebreve" unicode="&#x115;" 
d="M517 -20q-99 0 -179 25t-136.5 75t-87 126.5t-30.5 178.5q0 37 4.5 77t12.5 84q30 155 95.5 261t152 171.5t187.5 94.5t203 29q104 0 179.5 -29.5t124.5 -84t73 -131.5t24 -172q0 -45 -5 -92t-15 -98l-1 -8h-734q-10 -50 -10 -99t11.5 -89.5t35.5 -69.5t60.5 -45
t85.5 -16q37 0 72 8t65.5 23.5t55 40t40.5 57.5l260 -23q-27 -46 -72.5 -98t-112 -95.5t-155.5 -72t-204 -28.5zM701 925q-43 0 -86.5 -14.5t-81 -46t-67 -81.5t-45.5 -120h460q2 15 3 29t1 28q0 102 -51 153.5t-133 51.5zM741 1183q-148 0 -224 61.5t-76 175.5v20t2 21h163
q-4 -63 39 -92t128 -29q88 0 138 29t76 92h164q-42 -132 -142.5 -205t-267.5 -73z" />
    <glyph glyph-name="Edotaccent" unicode="&#x116;" 
d="M32 0l262 1349h968l-44 -228h-673l-63 -324h612l-44 -228h-612l-67 -341h714l-44 -228h-1009zM645 1431l41 207h281l-41 -207h-281z" />
    <glyph glyph-name="edotaccent" unicode="&#x117;" 
d="M517 -20q-99 0 -179 25t-136.5 75t-87 126.5t-30.5 178.5q0 37 4.5 77t12.5 84q30 155 95.5 261t152 171.5t187.5 94.5t203 29q104 0 179.5 -29.5t124.5 -84t73 -131.5t24 -172q0 -45 -5 -92t-15 -98l-1 -8h-734q-10 -50 -10 -99t11.5 -89.5t35.5 -69.5t60.5 -45
t85.5 -16q37 0 72 8t65.5 23.5t55 40t40.5 57.5l260 -23q-27 -46 -72.5 -98t-112 -95.5t-155.5 -72t-204 -28.5zM701 925q-43 0 -86.5 -14.5t-81 -46t-67 -81.5t-45.5 -120h460q2 15 3 29t1 28q0 102 -51 153.5t-133 51.5zM618 1277l41 207h281l-41 -207h-281z" />
    <glyph glyph-name="Eogonek" unicode="&#x118;" 
d="M32 0l262 1349h968l-44 -228h-673l-63 -324h612l-44 -228h-612l-67 -341h714l-44 -228h-1009zM800 -425q-91 0 -146.5 39.5t-55.5 117.5q0 23 4 43q9 48 33 88.5t54 71.5t62 52.5t57 33.5h153q-72 -42 -115.5 -99.5t-54.5 -110.5q-8 -42 11.5 -67.5t64.5 -25.5q31 0 59 7
t58 20l-26 -137q-69 -33 -158 -33z" />
    <glyph glyph-name="eogonek" unicode="&#x119;" 
d="M517 -20q-99 0 -179 25t-136.5 75t-87 126.5t-30.5 178.5q0 37 4.5 77t12.5 84q30 155 95.5 261t152 171.5t187.5 94.5t203 29q104 0 179.5 -29.5t124.5 -84t73 -131.5t24 -172q0 -45 -5 -92t-15 -98l-1 -8h-734q-10 -50 -10 -99t11.5 -89.5t35.5 -69.5t60.5 -45
t85.5 -16q37 0 72 8t65.5 23.5t55 40t40.5 57.5l260 -23q-27 -46 -72.5 -98t-112 -95.5t-155.5 -72t-204 -28.5zM701 925q-43 0 -86.5 -14.5t-81 -46t-67 -81.5t-45.5 -120h460q2 15 3 29t1 28q0 102 -51 153.5t-133 51.5zM531 -425q-91 0 -146.5 39.5t-55.5 117.5
q0 23 4 43q9 48 33 88.5t54 71.5t62 52.5t57 33.5h153q-72 -42 -115.5 -99.5t-54.5 -110.5q-8 -42 11.5 -67.5t64.5 -25.5q31 0 59 7t58 20l-26 -137q-69 -33 -158 -33z" />
    <glyph glyph-name="Ecaron" unicode="&#x11a;" 
d="M32 0l262 1349h968l-44 -228h-673l-63 -324h612l-44 -228h-612l-67 -341h714l-44 -228h-1009zM916 1427h-229l-210 249l6 29h160l185 -134h4l229 134h159l-6 -29z" />
    <glyph glyph-name="ecaron" unicode="&#x11b;" 
d="M517 -20q-99 0 -179 25t-136.5 75t-87 126.5t-30.5 178.5q0 37 4.5 77t12.5 84q30 155 95.5 261t152 171.5t187.5 94.5t203 29q104 0 179.5 -29.5t124.5 -84t73 -131.5t24 -172q0 -45 -5 -92t-15 -98l-1 -8h-734q-10 -50 -10 -99t11.5 -89.5t35.5 -69.5t60.5 -45
t85.5 -16q37 0 72 8t65.5 23.5t55 40t40.5 57.5l260 -23q-27 -46 -72.5 -98t-112 -95.5t-155.5 -72t-204 -28.5zM701 925q-43 0 -86.5 -14.5t-81 -46t-67 -81.5t-45.5 -120h460q2 15 3 29t1 28q0 102 -51 153.5t-133 51.5zM851 1183h-229l-210 249l6 29h160l185 -134h4
l229 134h159l-6 -29z" />
    <glyph glyph-name="Gcircumflex" unicode="&#x11c;" 
d="M1059 185q-44 -32 -102 -68t-126 -66.5t-145 -50.5t-160 -20q-114 0 -197.5 34.5t-137.5 97.5t-80.5 151.5t-26.5 196.5q0 52 6 107t17 114q33 167 90.5 295.5t143 216t199.5 132.5t259 45q100 0 170 -27t116 -76.5t70.5 -118.5t32.5 -153l-284 -54q-8 100 -45.5 148.5
t-101.5 48.5q-72 0 -128 -29.5t-98 -87t-72.5 -143t-52.5 -197.5q-21 -111 -21 -198q0 -131 49.5 -199t152.5 -68q38 0 73 8.5t64 20t51 24t34 21.5l46 235h-274l42 218h544zM1160 1455l-5 -28h-159l-177 134h-4l-237 -134h-160l5 28l307 250h229z" />
    <glyph glyph-name="gcircumflex" unicode="&#x11d;" 
d="M427 -434q-99 0 -172.5 21.5t-121.5 60t-72 92t-25 117.5l288 33q2 -65 41.5 -103t104.5 -38q42 0 82.5 14.5t75 48t61 89t42.5 136.5q6 28 12.5 58.5t11.5 56.5q6 30 12 59h-2q-69 -105 -164.5 -152t-202.5 -47q-75 0 -130 24.5t-91 69.5t-53.5 109t-17.5 144
q0 85 20 191q24 125 68.5 226t108 173t146 111t182.5 39q46 0 89 -10.5t78.5 -33.5t62 -59.5t39.5 -87.5h5q5 21 11.5 48.5t13.5 53t13.5 45.5t9.5 27h266q-8 -36 -23 -101t-31 -149l-156 -799q-23 -118 -73.5 -205.5t-125.5 -145.5t-171.5 -87t-211.5 -29zM834 556
q15 78 15 136q0 61 -14 102t-36 66t-50 35.5t-56 10.5q-46 0 -87.5 -20.5t-77 -64t-63.5 -110.5t-46 -161q-16 -79 -16 -143q0 -102 39.5 -151t112.5 -49q35 0 75.5 15t79 54.5t71.5 107t53 172.5zM1104 1211l-5 -28h-159l-177 134h-4l-237 -134h-160l5 28l307 250h229z" />
    <glyph glyph-name="Gbreve" unicode="&#x11e;" 
d="M1059 185q-44 -32 -102 -68t-126 -66.5t-145 -50.5t-160 -20q-114 0 -197.5 34.5t-137.5 97.5t-80.5 151.5t-26.5 196.5q0 52 6 107t17 114q33 167 90.5 295.5t143 216t199.5 132.5t259 45q100 0 170 -27t116 -76.5t70.5 -118.5t32.5 -153l-284 -54q-8 100 -45.5 148.5
t-101.5 48.5q-72 0 -128 -29.5t-98 -87t-72.5 -143t-52.5 -197.5q-21 -111 -21 -198q0 -131 49.5 -199t152.5 -68q38 0 73 8.5t64 20t51 24t34 21.5l46 235h-274l42 218h544zM787 1427q-148 0 -224 61.5t-76 175.5v20t2 21h163q-4 -63 39 -92t128 -29q88 0 138 29t76 92h164
q-42 -132 -142.5 -205t-267.5 -73z" />
    <glyph glyph-name="gbreve" unicode="&#x11f;" 
d="M427 -434q-99 0 -172.5 21.5t-121.5 60t-72 92t-25 117.5l288 33q2 -65 41.5 -103t104.5 -38q42 0 82.5 14.5t75 48t61 89t42.5 136.5q6 28 12.5 58.5t11.5 56.5q6 30 12 59h-2q-69 -105 -164.5 -152t-202.5 -47q-75 0 -130 24.5t-91 69.5t-53.5 109t-17.5 144
q0 85 20 191q24 125 68.5 226t108 173t146 111t182.5 39q46 0 89 -10.5t78.5 -33.5t62 -59.5t39.5 -87.5h5q5 21 11.5 48.5t13.5 53t13.5 45.5t9.5 27h266q-8 -36 -23 -101t-31 -149l-156 -799q-23 -118 -73.5 -205.5t-125.5 -145.5t-171.5 -87t-211.5 -29zM834 556
q15 78 15 136q0 61 -14 102t-36 66t-50 35.5t-56 10.5q-46 0 -87.5 -20.5t-77 -64t-63.5 -110.5t-46 -161q-16 -79 -16 -143q0 -102 39.5 -151t112.5 -49q35 0 75.5 15t79 54.5t71.5 107t53 172.5zM728 1183q-148 0 -224 61.5t-76 175.5v20t2 21h163q-4 -63 39 -92t128 -29
q88 0 138 29t76 92h164q-42 -132 -142.5 -205t-267.5 -73z" />
    <glyph glyph-name="Gdotaccent" unicode="&#x120;" 
d="M1059 185q-44 -32 -102 -68t-126 -66.5t-145 -50.5t-160 -20q-114 0 -197.5 34.5t-137.5 97.5t-80.5 151.5t-26.5 196.5q0 52 6 107t17 114q33 167 90.5 295.5t143 216t199.5 132.5t259 45q100 0 170 -27t116 -76.5t70.5 -118.5t32.5 -153l-284 -54q-8 100 -45.5 148.5
t-101.5 48.5q-72 0 -128 -29.5t-98 -87t-72.5 -143t-52.5 -197.5q-21 -111 -21 -198q0 -131 49.5 -199t152.5 -68q38 0 73 8.5t64 20t51 24t34 21.5l46 235h-274l42 218h544zM655 1431l41 207h281l-41 -207h-281z" />
    <glyph glyph-name="gdotaccent" unicode="&#x121;" 
d="M427 -434q-99 0 -172.5 21.5t-121.5 60t-72 92t-25 117.5l288 33q2 -65 41.5 -103t104.5 -38q42 0 82.5 14.5t75 48t61 89t42.5 136.5q6 28 12.5 58.5t11.5 56.5q6 30 12 59h-2q-69 -105 -164.5 -152t-202.5 -47q-75 0 -130 24.5t-91 69.5t-53.5 109t-17.5 144
q0 85 20 191q24 125 68.5 226t108 173t146 111t182.5 39q46 0 89 -10.5t78.5 -33.5t62 -59.5t39.5 -87.5h5q5 21 11.5 48.5t13.5 53t13.5 45.5t9.5 27h266q-8 -36 -23 -101t-31 -149l-156 -799q-23 -118 -73.5 -205.5t-125.5 -145.5t-171.5 -87t-211.5 -29zM834 556
q15 78 15 136q0 61 -14 102t-36 66t-50 35.5t-56 10.5q-46 0 -87.5 -20.5t-77 -64t-63.5 -110.5t-46 -161q-16 -79 -16 -143q0 -102 39.5 -151t112.5 -49q35 0 75.5 15t79 54.5t71.5 107t53 172.5zM606 1277l41 207h281l-41 -207h-281z" />
    <glyph glyph-name="Gcommaaccent" unicode="&#x122;" 
d="M1059 185q-44 -32 -102 -68t-126 -66.5t-145 -50.5t-160 -20q-114 0 -197.5 34.5t-137.5 97.5t-80.5 151.5t-26.5 196.5q0 52 6 107t17 114q33 167 90.5 295.5t143 216t199.5 132.5t259 45q100 0 170 -27t116 -76.5t70.5 -118.5t32.5 -153l-284 -54q-8 100 -45.5 148.5
t-101.5 48.5q-72 0 -128 -29.5t-98 -87t-72.5 -143t-52.5 -197.5q-21 -111 -21 -198q0 -131 49.5 -199t152.5 -68q38 0 73 8.5t64 20t51 24t34 21.5l46 235h-274l42 218h544zM242 -453l6 33l152 322h257l-7 -37l-243 -318h-165z" />
    <glyph glyph-name="gcommaaccent" unicode="&#x123;" 
d="M427 -434q-99 0 -172.5 21.5t-121.5 60t-72 92t-25 117.5l288 33q2 -65 41.5 -103t104.5 -38q42 0 82.5 14.5t75 48t61 89t42.5 136.5q6 28 12.5 58.5t11.5 56.5q6 30 12 59h-2q-69 -105 -164.5 -152t-202.5 -47q-75 0 -130 24.5t-91 69.5t-53.5 109t-17.5 144
q0 85 20 191q24 125 68.5 226t108 173t146 111t182.5 39q46 0 89 -10.5t78.5 -33.5t62 -59.5t39.5 -87.5h5q5 21 11.5 48.5t13.5 53t13.5 45.5t9.5 27h266q-8 -36 -23 -101t-31 -149l-156 -799q-23 -118 -73.5 -205.5t-125.5 -145.5t-171.5 -87t-211.5 -29zM834 556
q15 78 15 136q0 61 -14 102t-36 66t-50 35.5t-56 10.5q-46 0 -87.5 -20.5t-77 -64t-63.5 -110.5t-46 -161q-16 -79 -16 -143q0 -102 39.5 -151t112.5 -49q35 0 75.5 15t79 54.5t71.5 107t53 172.5zM989 1566l-6 -33l-152 -322h-257l8 37l242 318h165z" />
    <glyph glyph-name="Hcircumflex" unicode="&#x124;" 
d="M691 0l112 574h-363l-112 -574h-295l262 1349h295l-103 -531h363l103 531h295l-262 -1349h-295zM1159 1455l-5 -28h-159l-177 134h-4l-237 -134h-160l5 28l307 250h229z" />
    <glyph glyph-name="hcircumflex" unicode="&#x125;" 
d="M483 866q81 124 178 180t216 56q75 0 127 -19.5t84 -54.5t46 -84.5t14 -108.5q0 -35 -4 -72t-12 -77l-133 -686h-280l121 621q7 36 11 68t4 60q0 69 -30 105.5t-106 36.5q-51 0 -97 -22.5t-83.5 -64t-65 -99t-41.5 -126.5l-113 -579h-281l262 1349h281l-52 -270
q-6 -32 -13.5 -64.5t-14.5 -61t-13 -51.5t-9 -36h4zM1161 1455l-6 -28h-159l-177 134h-4l-237 -134h-160l6 28l306 250h229z" />
    <glyph glyph-name="Hbar" unicode="&#x126;" 
d="M691 0l112 574h-363l-112 -574h-295l195 1004h-136l33 168h136l34 177h295l-34 -177h363l34 177h295l-34 -177h135l-33 -168h-135l-195 -1004h-295zM850 818l36 186h-363l-36 -186h363z" />
    <glyph glyph-name="hbar" unicode="&#x127;" 
d="M476 826q80 123 177.5 179.5t215.5 56.5q76 0 128 -19.5t84 -55t46 -84.5t14 -109q0 -35 -4 -72t-12 -76l-126 -646h-280l113 581q15 72 15 128q0 68 -30 105t-106 37q-51 0 -97 -22.5t-83.5 -64t-65 -99t-41.5 -126.5l-105 -539h-281l229 1180h-134l33 169h134l26 135
h281l-26 -135h300l-33 -169h-300l-27 -141q-6 -32 -13.5 -64.5t-14.5 -61t-12.5 -51.5t-8.5 -36h4z" />
    <glyph glyph-name="Itilde" unicode="&#x128;" 
d="M314 1349h916l-44 -228h-316l-174 -893h316l-44 -228h-916l44 228h316l174 893h-316zM952 1422q-44 0 -85 17.5t-79 39t-72 39t-64 17.5q-26 0 -44.5 -7t-32 -21t-24 -35t-19.5 -50h-137q7 27 17 58.5t25 63t35.5 60.5t49.5 51.5t66.5 36t86.5 13.5q45 0 87 -17.5
t79.5 -39t70.5 -39t62 -17.5q50 0 75.5 28t45.5 85h135q-10 -41 -27.5 -90.5t-49 -92t-80 -71.5t-121.5 -29z" />
    <glyph glyph-name="itilde" unicode="&#x129;" 
d="M726 190h353l-37 -190h-1029l37 190h395l136 702h-290l37 190h571zM907 1183q-44 0 -85 17.5t-79 39t-72 39t-64 17.5q-26 0 -44.5 -7t-32 -21t-24 -35t-19.5 -50h-137q7 27 17 58.5t25 63t35.5 60.5t49.5 51.5t66.5 36t86.5 13.5q45 0 87 -17.5t79.5 -39t70.5 -39
t62 -17.5q50 0 75.5 28t45.5 85h135q-10 -41 -27.5 -90.5t-49 -92t-80 -71.5t-121.5 -29z" />
    <glyph glyph-name="Imacron" unicode="&#x12a;" 
d="M314 1349h916l-44 -228h-316l-174 -893h316l-44 -228h-916l44 228h316l174 893h-316zM523 1638h612l-32 -168h-612z" />
    <glyph glyph-name="imacron" unicode="&#x12b;" 
d="M726 190h353l-37 -190h-1029l37 190h395l136 702h-290l37 190h571zM477 1371h612l-32 -168h-612z" />
    <glyph glyph-name="Ibreve" unicode="&#x12c;" 
d="M314 1349h916l-44 -228h-316l-174 -893h316l-44 -228h-916l44 228h316l174 893h-316zM784 1427q-148 0 -224 61.5t-76 175.5v20t2 21h163q-4 -63 39 -92t128 -29q88 0 138 29t76 92h164q-42 -132 -142.5 -205t-267.5 -73z" />
    <glyph glyph-name="ibreve" unicode="&#x12d;" 
d="M726 190h353l-37 -190h-1029l37 190h395l136 702h-290l37 190h571zM757 1183q-148 0 -224 61.5t-76 175.5v20t2 21h163q-4 -63 39 -92t128 -29q88 0 138 29t76 92h164q-42 -132 -142.5 -205t-267.5 -73z" />
    <glyph glyph-name="Iogonek" unicode="&#x12e;" 
d="M314 1349h916l-44 -228h-316l-174 -893h316l-44 -228h-916l44 228h316l174 893h-316zM482 -425q-91 0 -146.5 39.5t-55.5 117.5q0 23 4 43q9 48 33 88.5t54 71.5t62 52.5t57 33.5h153q-72 -42 -115.5 -99.5t-54.5 -110.5q-8 -42 11.5 -67.5t64.5 -25.5q31 0 59 7t58 20
l-26 -137q-69 -33 -158 -33z" />
    <glyph glyph-name="iogonek" unicode="&#x12f;" 
d="M726 190h353l-37 -190h-1029l37 190h395l136 702h-290l37 190h571zM656 1277l40 207h281l-40 -207h-281zM525 -425q-91 0 -146.5 39.5t-55.5 117.5q0 23 4 43q9 48 33 88.5t54 71.5t62 52.5t57 33.5h153q-72 -42 -115.5 -99.5t-54.5 -110.5q-8 -42 11.5 -67.5t64.5 -25.5
q31 0 59 7t58 20l-26 -137q-69 -33 -158 -33z" />
    <glyph glyph-name="Idotaccent" unicode="&#x130;" 
d="M314 1349h916l-44 -228h-316l-174 -893h316l-44 -228h-916l44 228h316l174 893h-316zM645 1431l41 207h281l-41 -207h-281z" />
    <glyph glyph-name="dotlessi" unicode="&#x131;" 
d="M726 190h353l-37 -190h-1029l37 190h395l136 702h-290l37 190h571z" />
    <glyph glyph-name="IJ" unicode="&#x132;" 
d="M230 1349h284l-262 -1349h-284zM675 -20q-155 0 -227 69.5t-72 218.5q0 43 6 92l271 38q-2 -20 -3 -37t-1 -32q0 -36 5.5 -58.5t15.5 -36t24.5 -18.5t32.5 -5q46 0 73 47t48 156l137 704h-254l45 231h540l-175 -903q-21 -107 -58.5 -193.5t-94.5 -147t-134.5 -93
t-178.5 -32.5z" />
    <glyph glyph-name="ij" unicode="&#x133;" 
d="M346 0h-281l210 1082h281zM313 1277l40 207h281l-40 -207h-281zM945 -13q-21 -109 -74.5 -187t-127 -128t-161 -73.5t-176.5 -23.5q-41 0 -81.5 3.5t-77 9.5t-67.5 13.5t-53 16.5l41 210q42 -11 108.5 -22.5t147.5 -11.5q43 0 81.5 8.5t70 32.5t55.5 66t37 109l208 1072
h282zM915 1277l40 207h281l-40 -207h-281z" />
    <glyph glyph-name="Jcircumflex" unicode="&#x134;" 
d="M455 -20q-190 0 -285.5 101.5t-95.5 288.5q0 8 0.5 16t0.5 16l299 43q-3 -118 31 -176t97 -58q73 0 127.5 59t75.5 169l132 679h-301l45 231h595l-175 -903q-21 -107 -68.5 -193.5t-118 -147t-161 -93t-198.5 -32.5zM1280 1455l-5 -28h-159l-177 134h-4l-237 -134h-160
l5 28l307 250h229z" />
    <glyph glyph-name="jcircumflex" unicode="&#x135;" 
d="M756 -13q-21 -109 -74.5 -187t-127 -128t-161 -73.5t-176.5 -23.5q-41 0 -81.5 3.5t-77 9.5t-67.5 13.5t-53 16.5l41 210q42 -11 108.5 -22.5t147.5 -11.5q43 0 81.5 8.5t70 32.5t55.5 66t37 109l171 882h-354l37 190h636zM1155 1211l-5 -28h-159l-177 134h-4l-237 -134
h-160l5 28l307 250h229z" />
    <glyph glyph-name="Kcommaaccent" unicode="&#x136;" 
d="M776 0l-215 557l-154 -142l-81 -415h-295l262 1349h295l-116 -599l552 599h343l-572 -579l329 -770h-348zM242 -453l6 33l152 322h257l-7 -37l-243 -318h-165z" />
    <glyph glyph-name="kcommaaccent" unicode="&#x137;" 
d="M759 0l-194 490l-137 -84l-79 -406h-281l288 1484h281l-165 -850l473 448h302l-462 -422l281 -660h-307zM242 -453l6 33l152 322h257l-7 -37l-243 -318h-165z" />
    <glyph glyph-name="kgreenlandic" unicode="&#x138;" 
d="M759 0l-198 470l-137 -84l-75 -386h-281l210 1082h281l-91 -468l477 468h302l-466 -442l285 -640h-307z" />
    <glyph glyph-name="Lacute" unicode="&#x139;" 
d="M106 0l262 1349h295l-218 -1121h616l-44 -228h-911zM442 1429l6 31l299 243h258l-8 -43l-385 -231h-170z" />
    <glyph glyph-name="lacute" unicode="&#x13a;" 
d="M726 190h353l-37 -190h-1029l37 190h395l188 969h-290l37 190h571zM669 1431l6 31l299 243h258l-8 -43l-385 -231h-170z" />
    <glyph glyph-name="Lcommaaccent" unicode="&#x13b;" 
d="M106 0l262 1349h295l-218 -1121h616l-44 -228h-911zM252 -453l6 33l152 322h257l-7 -37l-243 -318h-165z" />
    <glyph glyph-name="lcommaaccent" unicode="&#x13c;" 
d="M726 190h353l-37 -190h-1029l37 190h395l215 1104h-290l36 190h571zM242 -453l6 33l152 322h257l-7 -37l-243 -318h-165z" />
    <glyph glyph-name="Lcaron" unicode="&#x13d;" 
d="M106 0l262 1349h295l-218 -1121h616l-44 -228h-911zM843 994l6 33l152 322h257l-7 -37l-243 -318h-165z" />
    <glyph glyph-name="lcaron" unicode="&#x13e;" 
d="M677 190h353l-37 -190h-1029l37 190h395l215 1104h-290l36 190h571zM969 1129l7 33l151 322h257l-7 -37l-243 -318h-165z" />
    <glyph glyph-name="Ldot" unicode="&#x13f;" 
d="M106 0l262 1349h295l-218 -1121h616l-44 -228h-911zM668 593l41 207h281l-41 -207h-281z" />
    <glyph glyph-name="ldot" unicode="&#x140;" 
d="M726 190h353l-37 -190h-1029l37 190h395l215 1104h-290l36 190h571zM898 593l41 207h281l-41 -207h-281z" />
    <glyph glyph-name="Lslash" unicode="&#x141;" 
d="M244 657l134 692h295l-105 -539l271 128l57 -181l-372 -177l-69 -352h616l-44 -228h-911l83 426l-137 -64l-61 181z" />
    <glyph glyph-name="lslash" unicode="&#x142;" 
d="M874 950l234 121l53 -155l-327 -168l-108 -558h353l-37 -190h-1029l37 190h395l77 397l-218 -112l-55 154l312 160l99 505h-290l36 190h571z" />
    <glyph glyph-name="Nacute" unicode="&#x143;" 
d="M643 0l-188 1010q-5 -72 -12 -138q-3 -28 -6.5 -58t-7 -58.5t-7 -54t-7.5 -45.5l-128 -656h-257l262 1349h337l192 -1037q5 67 12 133q6 57 13.5 119.5t17.5 112.5l130 672h257l-262 -1349h-346zM662 1429l6 31l299 243h258l-8 -43l-385 -231h-170z" />
    <glyph glyph-name="nacute" unicode="&#x144;" 
d="M719 0l120 619q15 74 15 127q0 75 -32 110.5t-101 35.5q-51 0 -97 -22.5t-84.5 -64t-66 -99t-41.5 -126.5l-113 -580h-281l163 840q7 35 13.5 72t12 70.5t9 60t4.5 39.5h268q0 -12 -3 -38.5t-7 -58.5t-9 -64t-9 -54h4q80 123 177.5 179.5t215.5 56.5q141 0 206 -71.5
t65 -201.5q0 -65 -15 -143l-134 -687h-280zM629 1184l6 31l299 243h258l-8 -43l-385 -231h-170z" />
    <glyph glyph-name="Ncommaaccent" unicode="&#x145;" 
d="M643 0l-188 1010q-5 -72 -12 -138q-3 -28 -6.5 -58t-7 -58.5t-7 -54t-7.5 -45.5l-128 -656h-257l262 1349h337l192 -1037q5 67 12 133q6 57 13.5 119.5t17.5 112.5l130 672h257l-262 -1349h-346zM211 -453l6 33l152 322h257l-7 -37l-243 -318h-165z" />
    <glyph glyph-name="ncommaaccent" unicode="&#x146;" 
d="M719 0l120 619q15 74 15 127q0 75 -32 110.5t-101 35.5q-51 0 -97 -22.5t-84.5 -64t-66 -99t-41.5 -126.5l-113 -580h-281l163 840q7 35 13.5 72t12 70.5t9 60t4.5 39.5h268q0 -12 -3 -38.5t-7 -58.5t-9 -64t-9 -54h4q80 123 177.5 179.5t215.5 56.5q141 0 206 -71.5
t65 -201.5q0 -65 -15 -143l-134 -687h-280zM215 -453l6 33l152 322h257l-7 -37l-243 -318h-165z" />
    <glyph glyph-name="Ncaron" unicode="&#x147;" 
d="M643 0l-188 1010q-5 -72 -12 -138q-3 -28 -6.5 -58t-7 -58.5t-7 -54t-7.5 -45.5l-128 -656h-257l262 1349h337l192 -1037q5 67 12 133q6 57 13.5 119.5t17.5 112.5l130 672h257l-262 -1349h-346zM900 1427h-229l-210 249l6 29h160l185 -134h4l229 134h159l-6 -29z" />
    <glyph glyph-name="ncaron" unicode="&#x148;" 
d="M719 0l120 619q15 74 15 127q0 75 -32 110.5t-101 35.5q-51 0 -97 -22.5t-84.5 -64t-66 -99t-41.5 -126.5l-113 -580h-281l163 840q7 35 13.5 72t12 70.5t9 60t4.5 39.5h268q0 -12 -3 -38.5t-7 -58.5t-9 -64t-9 -54h4q80 123 177.5 179.5t215.5 56.5q141 0 206 -71.5
t65 -201.5q0 -65 -15 -143l-134 -687h-280zM858 1183h-229l-210 249l6 29h160l185 -134h4l229 134h159l-6 -29z" />
    <glyph glyph-name="napostrophe" unicode="&#x149;" 
d="M800 0l120 619q15 77 15 131q0 73 -28 107.5t-85 34.5q-43 0 -85.5 -22.5t-78.5 -64t-63.5 -99t-41.5 -126.5l-113 -580h-281l163 840q7 35 13.5 72t12 70.5t9 60t4.5 39.5h268q0 -12 -3 -38.5t-7 -58.5t-9 -64t-9 -54h4q81 124 175 180t198 56q129 0 190 -70.5
t61 -200.5q0 -65 -15 -145l-134 -687h-280zM88 995l7 33l151 322h257l-7 -37l-243 -318h-165z" />
    <glyph glyph-name="Eng" unicode="&#x14a;" 
d="M665 -20q-70 0 -118.5 18.5t-79 52t-46 80.5t-20.5 103l223 68q5 -58 20 -79t49 -21q23 0 42.5 14t36 46.5t31 84.5t29.5 128l73 373q10 50 15 89.5t5 70.5q0 76 -31 104t-94 28q-30 0 -64.5 -15t-70 -42.5t-70 -66.5t-64 -87t-52 -103.5t-34.5 -116.5l-138 -709h-295
l201 1032q7 37 15.5 83t16.5 91t15 83t10 60h288q-2 -22 -6 -53.5t-9.5 -66l-11 -69t-11.5 -62.5h4q41 65 92.5 115.5t107.5 85t113 52.5t108 18q137 0 206.5 -71t69.5 -227q0 -89 -22 -202l-71 -367q-24 -122 -62.5 -219t-94.5 -164.5t-132 -103t-174 -35.5z" />
    <glyph glyph-name="eng" unicode="&#x14b;" 
d="M839 619q15 74 15 127q0 75 -32 110.5t-101 35.5q-51 0 -97 -22.5t-84.5 -64t-66 -99t-41.5 -126.5l-113 -580h-281l163 840q7 35 13.5 72t12 70.5t9 60t4.5 39.5h268q0 -12 -3 -38.5t-7 -58.5t-9 -64t-9 -54h4q80 123 177.5 179.5t215.5 56.5q141 0 206 -71.5t65 -201.5
q0 -65 -15 -143l-159 -815q-12 -65 -39 -119t-69 -94t-101 -62t-136 -22q-56 0 -97 2.5t-71 6.5l39 198q12 -2 25 -3t25 -1q39 0 65 8t43.5 27t28.5 50t20 77z" />
    <glyph glyph-name="Omacron" unicode="&#x14c;" 
d="M1184 679q-67 -345 -241.5 -522t-436.5 -177q-213 0 -322.5 115.5t-109.5 344.5q0 54 6 113.5t19 125.5q67 345 241 518t436 173q212 0 322.5 -113t110.5 -340q0 -54 -6 -113t-19 -125zM885 679q24 123 24 213q0 246 -178 246q-121 0 -204.5 -114.5t-128.5 -344.5
q-24 -121 -24 -213q0 -126 44.5 -190t132.5 -64q121 0 205 118.5t129 348.5zM523 1638h612l-32 -168h-612z" />
    <glyph glyph-name="omacron" unicode="&#x14d;" 
d="M1137 542q-24 -124 -75 -227t-130 -177.5t-186.5 -116t-244.5 -41.5q-109 0 -189.5 28.5t-132.5 81t-77.5 127t-25.5 166.5q0 38 4 77.5t12 81.5q24 121 74 223.5t128 177.5t185.5 117t245.5 42q118 0 200 -27.5t133.5 -77.5t74.5 -121t23 -157q0 -42 -5 -85.5t-14 -91.5
zM843 542q10 51 15 94t5 79q0 101 -41 147.5t-130 46.5q-62 0 -110.5 -21.5t-85.5 -66.5t-63.5 -114t-45.5 -165q-18 -94 -18 -164q0 -107 42 -156.5t124 -49.5q62 0 111 21.5t86.5 66.5t64.5 115t46 167zM471 1371h612l-32 -168h-612z" />
    <glyph glyph-name="Obreve" unicode="&#x14e;" 
d="M1184 679q-67 -345 -241.5 -522t-436.5 -177q-213 0 -322.5 115.5t-109.5 344.5q0 54 6 113.5t19 125.5q67 345 241 518t436 173q212 0 322.5 -113t110.5 -340q0 -54 -6 -113t-19 -125zM885 679q24 123 24 213q0 246 -178 246q-121 0 -204.5 -114.5t-128.5 -344.5
q-24 -121 -24 -213q0 -126 44.5 -190t132.5 -64q121 0 205 118.5t129 348.5zM784 1427q-148 0 -224 61.5t-76 175.5v20t2 21h163q-4 -63 39 -92t128 -29q88 0 138 29t76 92h164q-42 -132 -142.5 -205t-267.5 -73z" />
    <glyph glyph-name="obreve" unicode="&#x14f;" 
d="M1137 542q-24 -124 -75 -227t-130 -177.5t-186.5 -116t-244.5 -41.5q-109 0 -189.5 28.5t-132.5 81t-77.5 127t-25.5 166.5q0 38 4 77.5t12 81.5q24 121 74 223.5t128 177.5t185.5 117t245.5 42q118 0 200 -27.5t133.5 -77.5t74.5 -121t23 -157q0 -42 -5 -85.5t-14 -91.5
zM843 542q10 51 15 94t5 79q0 101 -41 147.5t-130 46.5q-62 0 -110.5 -21.5t-85.5 -66.5t-63.5 -114t-45.5 -165q-18 -94 -18 -164q0 -107 42 -156.5t124 -49.5q62 0 111 21.5t86.5 66.5t64.5 115t46 167zM737 1183q-148 0 -224 61.5t-76 175.5v20t2 21h163q-4 -63 39 -92
t128 -29q88 0 138 29t76 92h164q-42 -132 -142.5 -205t-267.5 -73z" />
    <glyph glyph-name="Ohungarumlaut" unicode="&#x150;" 
d="M1184 679q-67 -345 -241.5 -522t-436.5 -177q-213 0 -322.5 115.5t-109.5 344.5q0 54 6 113.5t19 125.5q67 345 241 518t436 173q212 0 322.5 -113t110.5 -340q0 -54 -6 -113t-19 -125zM885 679q24 123 24 213q0 246 -178 246q-121 0 -204.5 -114.5t-128.5 -344.5
q-24 -121 -24 -213q0 -126 44.5 -190t132.5 -64q121 0 205 118.5t129 348.5zM615 1426h-142l6 34l273 245h235l-8 -43zM1021 1426h-142l6 34l273 245h235l-8 -43z" />
    <glyph glyph-name="ohungarumlaut" unicode="&#x151;" 
d="M1137 542q-24 -124 -75 -227t-130 -177.5t-186.5 -116t-244.5 -41.5q-109 0 -189.5 28.5t-132.5 81t-77.5 127t-25.5 166.5q0 38 4 77.5t12 81.5q24 121 74 223.5t128 177.5t185.5 117t245.5 42q118 0 200 -27.5t133.5 -77.5t74.5 -121t23 -157q0 -42 -5 -85.5t-14 -91.5
zM843 542q10 51 15 94t5 79q0 101 -41 147.5t-130 46.5q-62 0 -110.5 -21.5t-85.5 -66.5t-63.5 -114t-45.5 -165q-18 -94 -18 -164q0 -107 42 -156.5t124 -49.5q62 0 111 21.5t86.5 66.5t64.5 115t46 167zM587 1182h-142l6 34l273 245h235l-8 -43zM993 1182h-142l6 34
l273 245h235l-8 -43z" />
    <glyph glyph-name="OE" unicode="&#x152;" 
d="M494 0q-24 -2 -42.5 -3.5t-36.5 -1.5q-199 0 -293.5 101t-94.5 310q0 121 30 275q35 180 90.5 308t133 209t177 119t223.5 38q39 0 88 -6h558l-39 -202h-313l-69 -355h287l-39 -200h-287l-76 -390h354l-39 -202h-612zM454 190q14 0 39.5 1t45.5 5l186 957q-18 3 -43 4.5
t-39 1.5q-52 0 -98.5 -21t-87.5 -75t-75.5 -146.5t-62.5 -235.5q-15 -77 -22 -138.5t-7 -111.5q0 -67 12 -113.5t33.5 -74.5t52 -40.5t66.5 -12.5z" />
    <glyph glyph-name="oe" unicode="&#x153;" 
d="M721 484q-8 -41 -12 -77t-4 -68q0 -79 25 -124t78 -45q51 0 83.5 33t59.5 98l169 -45q-20 -45 -49.5 -93.5t-71.5 -89t-98 -67t-128 -26.5q-182 0 -227 183q-60 -93 -135.5 -138t-166.5 -45q-115 0 -178.5 80.5t-63.5 246.5q0 51 6.5 109.5t19.5 125.5q55 279 167 419.5
t274 140.5q187 0 232 -177q63 94 137.5 135.5t155.5 41.5q65 0 109.5 -22.5t73 -64t41 -99.5t12.5 -129q0 -115 -29 -260l-8 -43h-472zM523 542q13 66 19 117.5t6 91.5q0 47 -7.5 78.5t-21 50t-32.5 26.5t-41 8q-32 0 -60.5 -17.5t-54.5 -60.5t-49.5 -114.5t-44.5 -179.5
q-14 -72 -20.5 -127t-6.5 -97q0 -43 6.5 -71.5t17.5 -46t26.5 -25t34.5 -7.5q32 0 64 16.5t61 59t55.5 115t47.5 183.5zM948 914q-21 0 -47 -8.5t-52 -35.5t-50 -77t-42 -133h264q5 39 8 71t3 58q0 69 -20 97t-64 28z" />
    <glyph glyph-name="Racute" unicode="&#x154;" 
d="M790 0l-190 515h-173l-100 -515h-295l262 1349h494q230 0 344 -78.5t114 -227.5q0 -22 -2.5 -45.5t-7.5 -48.5q-14 -74 -46.5 -134t-78.5 -105.5t-103.5 -78t-121.5 -50.5l236 -581h-332zM937 937q2 13 3.5 24t1.5 22q0 76 -59.5 106.5t-169.5 30.5h-168l-73 -376h176
q132 0 201.5 49.5t87.5 143.5zM612 1429l6 31l299 243h258l-8 -43l-385 -231h-170z" />
    <glyph glyph-name="racute" unicode="&#x155;" 
d="M1141 848q-45 8 -95.5 13.5t-112.5 5.5q-84 0 -154.5 -34t-124.5 -92.5t-90.5 -136.5t-53.5 -166l-85 -438h-280l136 701q14 76 19.5 152.5t5.5 136.5q0 29 -1 52.5t-2 39.5h271q2 -26 4 -58.5t2 -68.5q0 -26 -1 -52t-3 -49h4q32 57 69.5 103t86 78t109.5 49.5t139 17.5
q56 0 109.5 -5t93.5 -12zM581 1184l6 31l299 243h258l-8 -43l-385 -231h-170z" />
    <glyph glyph-name="Rcommaaccent" unicode="&#x156;" 
d="M790 0l-190 515h-173l-100 -515h-295l262 1349h494q230 0 344 -78.5t114 -227.5q0 -22 -2.5 -45.5t-7.5 -48.5q-14 -74 -46.5 -134t-78.5 -105.5t-103.5 -78t-121.5 -50.5l236 -581h-332zM937 937q2 13 3.5 24t1.5 22q0 76 -59.5 106.5t-169.5 30.5h-168l-73 -376h176
q132 0 201.5 49.5t87.5 143.5zM239 -453l6 33l152 322h257l-7 -37l-243 -318h-165z" />
    <glyph glyph-name="rcommaaccent" unicode="&#x157;" 
d="M1141 848q-45 8 -95.5 13.5t-112.5 5.5q-84 0 -154.5 -34t-124.5 -92.5t-90.5 -136.5t-53.5 -166l-85 -438h-280l136 701q14 76 19.5 152.5t5.5 136.5q0 29 -1 52.5t-2 39.5h271q2 -26 4 -58.5t2 -68.5q0 -26 -1 -52t-3 -49h4q32 57 69.5 103t86 78t109.5 49.5t139 17.5
q56 0 109.5 -5t93.5 -12zM-30 -453l6 33l152 322h257l-7 -37l-243 -318h-165z" />
    <glyph glyph-name="Rcaron" unicode="&#x158;" 
d="M790 0l-190 515h-173l-100 -515h-295l262 1349h494q230 0 344 -78.5t114 -227.5q0 -22 -2.5 -45.5t-7.5 -48.5q-14 -74 -46.5 -134t-78.5 -105.5t-103.5 -78t-121.5 -50.5l236 -581h-332zM937 937q2 13 3.5 24t1.5 22q0 76 -59.5 106.5t-169.5 30.5h-168l-73 -376h176
q132 0 201.5 49.5t87.5 143.5zM885 1427h-229l-210 249l6 29h160l185 -134h4l229 134h159l-6 -29z" />
    <glyph glyph-name="rcaron" unicode="&#x159;" 
d="M1141 848q-45 8 -95.5 13.5t-112.5 5.5q-84 0 -154.5 -34t-124.5 -92.5t-90.5 -136.5t-53.5 -166l-85 -438h-280l136 701q14 76 19.5 152.5t5.5 136.5q0 29 -1 52.5t-2 39.5h271q2 -26 4 -58.5t2 -68.5q0 -26 -1 -52t-3 -49h4q32 57 69.5 103t86 78t109.5 49.5t139 17.5
q56 0 109.5 -5t93.5 -12zM878 1183h-229l-210 249l6 29h160l185 -134h4l229 134h159l-6 -29z" />
    <glyph glyph-name="Sacute" unicode="&#x15a;" 
d="M1136 391q-17 -88 -66 -163.5t-128.5 -130.5t-189.5 -86t-250 -31q-117 0 -208.5 25t-155 74t-97.5 121.5t-37 166.5l293 37q5 -94 67 -148.5t189 -54.5q60 0 109.5 9t87 29t62.5 53.5t34 81.5q3 15 3 29q0 45 -28 74t-71 49t-95.5 33.5t-100.5 26.5q-61 17 -126.5 40.5
t-119.5 60.5t-89 91.5t-35 135.5q0 34 8 77q19 98 75 169.5t136 118t176.5 69t196.5 22.5q224 0 333 -88.5t110 -274.5l-292 -29q-4 91 -52 137t-145 46q-63 0 -107.5 -12.5t-73.5 -34t-45 -49t-22 -57.5q-3 -15 -3 -29q0 -39 22 -65t58 -44.5t81.5 -31.5t93.5 -26
q45 -12 93 -26.5t93.5 -33.5t86 -44.5t71 -59.5t48.5 -78t18 -101q0 -18 -2 -37.5t-6 -40.5zM660 1429l6 31l299 243h258l-8 -43l-385 -231h-170z" />
    <glyph glyph-name="sacute" unicode="&#x15b;" 
d="M1060 316q-15 -78 -59.5 -140t-115 -105.5t-165 -67t-209.5 -23.5q-103 0 -183 15t-136 49.5t-87.5 89.5t-36.5 136l255 37q3 -45 18.5 -73t43.5 -43t68.5 -20t93.5 -5q48 0 90.5 5.5t75.5 19t55 38t29 61.5q8 42 -11.5 66.5t-59 40t-94.5 27t-118 26.5q-58 14 -114 32
t-99.5 47t-70.5 72t-27 107q0 15 1.5 32t5.5 35q15 77 56.5 137.5t107.5 103t156 65t201 22.5q88 0 161 -16.5t126 -52t83 -90.5t31 -133l-254 -26q0 39 -12.5 64.5t-36.5 40.5t-58 20.5t-76 5.5q-100 0 -155 -25.5t-67 -85.5q-7 -37 9.5 -59t51 -36.5t84 -25t107.5 -25.5
q65 -14 126.5 -32.5t109.5 -49t77 -76.5t29 -115q0 -35 -7 -70zM578 1184l6 31l299 243h258l-8 -43l-385 -231h-170z" />
    <glyph glyph-name="Scircumflex" unicode="&#x15c;" 
d="M1136 391q-17 -88 -66 -163.5t-128.5 -130.5t-189.5 -86t-250 -31q-117 0 -208.5 25t-155 74t-97.5 121.5t-37 166.5l293 37q5 -94 67 -148.5t189 -54.5q60 0 109.5 9t87 29t62.5 53.5t34 81.5q3 15 3 29q0 45 -28 74t-71 49t-95.5 33.5t-100.5 26.5q-61 17 -126.5 40.5
t-119.5 60.5t-89 91.5t-35 135.5q0 34 8 77q19 98 75 169.5t136 118t176.5 69t196.5 22.5q224 0 333 -88.5t110 -274.5l-292 -29q-4 91 -52 137t-145 46q-63 0 -107.5 -12.5t-73.5 -34t-45 -49t-22 -57.5q-3 -15 -3 -29q0 -39 22 -65t58 -44.5t81.5 -31.5t93.5 -26
q45 -12 93 -26.5t93.5 -33.5t86 -44.5t71 -59.5t48.5 -78t18 -101q0 -18 -2 -37.5t-6 -40.5zM1164 1455l-5 -28h-159l-177 134h-4l-237 -134h-160l5 28l307 250h229z" />
    <glyph glyph-name="scircumflex" unicode="&#x15d;" 
d="M1060 316q-15 -78 -59.5 -140t-115 -105.5t-165 -67t-209.5 -23.5q-103 0 -183 15t-136 49.5t-87.5 89.5t-36.5 136l255 37q3 -45 18.5 -73t43.5 -43t68.5 -20t93.5 -5q48 0 90.5 5.5t75.5 19t55 38t29 61.5q8 42 -11.5 66.5t-59 40t-94.5 27t-118 26.5q-58 14 -114 32
t-99.5 47t-70.5 72t-27 107q0 15 1.5 32t5.5 35q15 77 56.5 137.5t107.5 103t156 65t201 22.5q88 0 161 -16.5t126 -52t83 -90.5t31 -133l-254 -26q0 39 -12.5 64.5t-36.5 40.5t-58 20.5t-76 5.5q-100 0 -155 -25.5t-67 -85.5q-7 -37 9.5 -59t51 -36.5t84 -25t107.5 -25.5
q65 -14 126.5 -32.5t109.5 -49t77 -76.5t29 -115q0 -35 -7 -70zM1128 1211l-5 -28h-159l-177 134h-4l-237 -134h-160l5 28l307 250h229z" />
    <glyph glyph-name="Scedilla" unicode="&#x15e;" 
d="M670 -255q-7 -39 -29 -74t-62.5 -60.5t-101.5 -40.5t-146 -15q-46 0 -100 6l23 118q23 -5 44 -6t38 -1q75 0 109.5 18.5t41.5 50.5q7 35 -18 52t-91 17h-25.5t-26.5 -2l106 192h143l-60 -102q81 -5 120 -36t39 -83q0 -8 -1 -16.5t-3 -17.5zM1136 391q-17 -88 -66 -163.5
t-128.5 -130.5t-189.5 -86t-250 -31q-117 0 -208.5 25t-155 74t-97.5 121.5t-37 166.5l293 37q5 -94 67 -148.5t189 -54.5q60 0 109.5 9t87 29t62.5 53.5t34 81.5q3 15 3 29q0 45 -28 74t-71 49t-95.5 33.5t-100.5 26.5q-61 17 -126.5 40.5t-119.5 60.5t-89 91.5t-35 135.5
q0 34 8 77q19 98 75 169.5t136 118t176.5 69t196.5 22.5q224 0 333 -88.5t110 -274.5l-292 -29q-4 91 -52 137t-145 46q-63 0 -107.5 -12.5t-73.5 -34t-45 -49t-22 -57.5q-3 -15 -3 -29q0 -39 22 -65t58 -44.5t81.5 -31.5t93.5 -26q45 -12 93 -26.5t93.5 -33.5t86 -44.5
t71 -59.5t48.5 -78t18 -101q0 -18 -2 -37.5t-6 -40.5z" />
    <glyph glyph-name="scedilla" unicode="&#x15f;" 
d="M680 -255q-7 -39 -29 -74t-62.5 -60.5t-101.5 -40.5t-146 -15q-46 0 -100 6l23 118q23 -5 44 -6t38 -1q75 0 109.5 18.5t41.5 50.5q7 35 -18 52t-91 17h-25.5t-26.5 -2l106 192h143l-60 -102q81 -5 120 -36t39 -83q0 -8 -1 -16.5t-3 -17.5zM1060 316q-15 -78 -59.5 -140
t-115 -105.5t-165 -67t-209.5 -23.5q-103 0 -183 15t-136 49.5t-87.5 89.5t-36.5 136l255 37q3 -45 18.5 -73t43.5 -43t68.5 -20t93.5 -5q48 0 90.5 5.5t75.5 19t55 38t29 61.5q8 42 -11.5 66.5t-59 40t-94.5 27t-118 26.5q-58 14 -114 32t-99.5 47t-70.5 72t-27 107
q0 15 1.5 32t5.5 35q15 77 56.5 137.5t107.5 103t156 65t201 22.5q88 0 161 -16.5t126 -52t83 -90.5t31 -133l-254 -26q0 39 -12.5 64.5t-36.5 40.5t-58 20.5t-76 5.5q-100 0 -155 -25.5t-67 -85.5q-7 -37 9.5 -59t51 -36.5t84 -25t107.5 -25.5q65 -14 126.5 -32.5
t109.5 -49t77 -76.5t29 -115q0 -35 -7 -70z" />
    <glyph glyph-name="Scaron" unicode="&#x160;" 
d="M1136 391q-17 -88 -66 -163.5t-128.5 -130.5t-189.5 -86t-250 -31q-117 0 -208.5 25t-155 74t-97.5 121.5t-37 166.5l293 37q5 -94 67 -148.5t189 -54.5q60 0 109.5 9t87 29t62.5 53.5t34 81.5q3 15 3 29q0 45 -28 74t-71 49t-95.5 33.5t-100.5 26.5q-61 17 -126.5 40.5
t-119.5 60.5t-89 91.5t-35 135.5q0 34 8 77q19 98 75 169.5t136 118t176.5 69t196.5 22.5q224 0 333 -88.5t110 -274.5l-292 -29q-4 91 -52 137t-145 46q-63 0 -107.5 -12.5t-73.5 -34t-45 -49t-22 -57.5q-3 -15 -3 -29q0 -39 22 -65t58 -44.5t81.5 -31.5t93.5 -26
q45 -12 93 -26.5t93.5 -33.5t86 -44.5t71 -59.5t48.5 -78t18 -101q0 -18 -2 -37.5t-6 -40.5zM905 1427h-229l-210 249l6 29h160l185 -134h4l229 134h159l-6 -29z" />
    <glyph glyph-name="scaron" unicode="&#x161;" 
d="M1060 316q-15 -78 -59.5 -140t-115 -105.5t-165 -67t-209.5 -23.5q-103 0 -183 15t-136 49.5t-87.5 89.5t-36.5 136l255 37q3 -45 18.5 -73t43.5 -43t68.5 -20t93.5 -5q48 0 90.5 5.5t75.5 19t55 38t29 61.5q8 42 -11.5 66.5t-59 40t-94.5 27t-118 26.5q-58 14 -114 32
t-99.5 47t-70.5 72t-27 107q0 15 1.5 32t5.5 35q15 77 56.5 137.5t107.5 103t156 65t201 22.5q88 0 161 -16.5t126 -52t83 -90.5t31 -133l-254 -26q0 39 -12.5 64.5t-36.5 40.5t-58 20.5t-76 5.5q-100 0 -155 -25.5t-67 -85.5q-7 -37 9.5 -59t51 -36.5t84 -25t107.5 -25.5
q65 -14 126.5 -32.5t109.5 -49t77 -76.5t29 -115q0 -35 -7 -70zM863 1183h-229l-210 249l6 29h160l185 -134h4l229 134h159l-6 -29z" />
    <glyph glyph-name="Tcommaaccent" unicode="&#x162;" 
d="M670 -255q-7 -39 -29 -74t-62.5 -60.5t-101.5 -40.5t-146 -15q-46 0 -100 6l23 118q23 -5 44 -6t38 -1q75 0 109.5 18.5t41.5 50.5q7 35 -18 52t-91 17h-25.5t-26.5 -2l106 192h143l-60 -102q81 -5 120 -36t39 -83q0 -8 -1 -16.5t-3 -17.5zM875 1121l-218 -1121h-295
l218 1121h-406l44 228h1107l-44 -228h-406z" />
    <glyph glyph-name="tcommaaccent" unicode="&#x163;" 
d="M680 -255q-7 -39 -29 -74t-62.5 -60.5t-101.5 -40.5t-146 -15q-46 0 -100 6l23 118q23 -5 44 -6t38 -1q75 0 109.5 18.5t41.5 50.5q7 35 -18 52t-91 17h-25.5t-26.5 -2l106 192h143l-60 -102q81 -5 120 -36t39 -83q0 -8 -1 -16.5t-3 -17.5zM396 892h-167l37 190h181
l143 282h176l-55 -282h385l-37 -190h-385l-103 -530q-4 -22 -7.5 -43t-3.5 -40q0 -22 6.5 -40.5t23 -32t46 -21t74.5 -7.5q64 0 129 7t131 20l-36 -186q-39 -6 -76.5 -12t-77 -10.5t-83 -7t-94.5 -2.5q-100 0 -164 19.5t-101 52t-51 75.5t-14 90q0 28 4 56t9 56z" />
    <glyph glyph-name="Tcaron" unicode="&#x164;" 
d="M875 1121l-218 -1121h-295l218 1121h-406l44 228h1107l-44 -228h-406zM905 1427h-229l-210 249l6 29h160l185 -134h4l229 134h159l-6 -29z" />
    <glyph glyph-name="tcaron" unicode="&#x165;" 
d="M287 892h-167l37 190h181l143 282h176l-55 -282h385l-37 -190h-385l-103 -530q-4 -22 -7.5 -43t-3.5 -40q0 -22 6.5 -40.5t23 -32t46 -21t74.5 -7.5q64 0 129 7t131 20l-36 -186q-39 -6 -76.5 -12t-77 -10.5t-83 -7t-94.5 -2.5q-100 0 -164 19.5t-101 52t-51 75.5t-14 90
q0 28 4 56t9 56zM999 1129l7 33l151 322h257l-7 -37l-243 -318h-165z" />
    <glyph glyph-name="Tbar" unicode="&#x166;" 
d="M875 1121l-67 -345h228l-37 -190h-228l-114 -586h-295l114 586h-227l37 190h227l67 345h-405l44 228h1106l-44 -228h-406z" />
    <glyph glyph-name="tbar" unicode="&#x167;" 
d="M331 492h-165l37 190h165l40 210h-165l37 190h181l143 282h176l-55 -282h385l-37 -190h-385l-40 -210h385l-37 -190h-385l-26 -130q-4 -22 -7.5 -43t-3.5 -40q0 -22 6.5 -40.5t23 -32t46 -21t74.5 -7.5q64 0 129 7t131 20l-36 -186q-39 -6 -76.5 -12t-77 -10.5t-83 -7
t-94.5 -2.5q-100 0 -164 19.5t-101 52t-51 75.5t-14 90q0 28 4 56t9 56z" />
    <glyph glyph-name="Utilde" unicode="&#x168;" 
d="M490 -20q-90 0 -161 18t-121 59t-76.5 108t-26.5 165q0 88 22 198l159 821h295l-159 -818q-10 -50 -14.5 -90.5t-4.5 -73.5q0 -85 34 -120.5t106 -35.5q50 0 90.5 17.5t73 56.5t56.5 102t42 154l157 808h295l-156 -806q-31 -156 -87 -263.5t-134 -174t-176.5 -96
t-213.5 -29.5zM952 1422q-44 0 -85 17.5t-79 39t-72 39t-64 17.5q-26 0 -44.5 -7t-32 -21t-24 -35t-19.5 -50h-137q7 27 17 58.5t25 63t35.5 60.5t49.5 51.5t66.5 36t86.5 13.5q45 0 87 -17.5t79.5 -39t70.5 -39t62 -17.5q50 0 75.5 28t45.5 85h135q-10 -41 -27.5 -90.5
t-49 -92t-80 -71.5t-121.5 -29z" />
    <glyph glyph-name="utilde" unicode="&#x169;" 
d="M521 1082l-118 -607q-12 -63 -12 -115q0 -78 30 -124t99 -46q43 0 85.5 22.5t78.5 64t63.5 99t40.5 126.5l112 580h281l-163 -840q-7 -34 -13.5 -71.5t-11.5 -71t-9 -60t-5 -39.5h-268q1 12 4 38.5t7.5 58.5t9.5 64t9 54h-5q-80 -123 -175 -179t-199 -56q-74 0 -125.5 20
t-83.5 56t-46.5 86t-14.5 111q0 67 15 142l133 687h281zM907 1183q-44 0 -85 17.5t-79 39t-72 39t-64 17.5q-26 0 -44.5 -7t-32 -21t-24 -35t-19.5 -50h-137q7 27 17 58.5t25 63t35.5 60.5t49.5 51.5t66.5 36t86.5 13.5q45 0 87 -17.5t79.5 -39t70.5 -39t62 -17.5
q50 0 75.5 28t45.5 85h135q-10 -41 -27.5 -90.5t-49 -92t-80 -71.5t-121.5 -29z" />
    <glyph glyph-name="Umacron" unicode="&#x16a;" 
d="M490 -20q-90 0 -161 18t-121 59t-76.5 108t-26.5 165q0 88 22 198l159 821h295l-159 -818q-10 -50 -14.5 -90.5t-4.5 -73.5q0 -85 34 -120.5t106 -35.5q50 0 90.5 17.5t73 56.5t56.5 102t42 154l157 808h295l-156 -806q-31 -156 -87 -263.5t-134 -174t-176.5 -96
t-213.5 -29.5zM523 1638h612l-32 -168h-612z" />
    <glyph glyph-name="umacron" unicode="&#x16b;" 
d="M521 1082l-118 -607q-12 -63 -12 -115q0 -78 30 -124t99 -46q43 0 85.5 22.5t78.5 64t63.5 99t40.5 126.5l112 580h281l-163 -840q-7 -34 -13.5 -71.5t-11.5 -71t-9 -60t-5 -39.5h-268q1 12 4 38.5t7.5 58.5t9.5 64t9 54h-5q-80 -123 -175 -179t-199 -56q-74 0 -125.5 20
t-83.5 56t-46.5 86t-14.5 111q0 67 15 142l133 687h281zM471 1371h612l-32 -168h-612z" />
    <glyph glyph-name="Ubreve" unicode="&#x16c;" 
d="M490 -20q-90 0 -161 18t-121 59t-76.5 108t-26.5 165q0 88 22 198l159 821h295l-159 -818q-10 -50 -14.5 -90.5t-4.5 -73.5q0 -85 34 -120.5t106 -35.5q50 0 90.5 17.5t73 56.5t56.5 102t42 154l157 808h295l-156 -806q-31 -156 -87 -263.5t-134 -174t-176.5 -96
t-213.5 -29.5zM784 1427q-148 0 -224 61.5t-76 175.5v20t2 21h163q-4 -63 39 -92t128 -29q88 0 138 29t76 92h164q-42 -132 -142.5 -205t-267.5 -73z" />
    <glyph glyph-name="ubreve" unicode="&#x16d;" 
d="M521 1082l-118 -607q-12 -63 -12 -115q0 -78 30 -124t99 -46q43 0 85.5 22.5t78.5 64t63.5 99t40.5 126.5l112 580h281l-163 -840q-7 -34 -13.5 -71.5t-11.5 -71t-9 -60t-5 -39.5h-268q1 12 4 38.5t7.5 58.5t9.5 64t9 54h-5q-80 -123 -175 -179t-199 -56q-74 0 -125.5 20
t-83.5 56t-46.5 86t-14.5 111q0 67 15 142l133 687h281zM737 1183q-148 0 -224 61.5t-76 175.5v20t2 21h163q-4 -63 39 -92t128 -29q88 0 138 29t76 92h164q-42 -132 -142.5 -205t-267.5 -73z" />
    <glyph glyph-name="Uring" unicode="&#x16e;" 
d="M490 -20q-90 0 -161 18t-121 59t-76.5 108t-26.5 165q0 88 22 198l159 821h295l-159 -818q-10 -50 -14.5 -90.5t-4.5 -73.5q0 -85 34 -120.5t106 -35.5q50 0 90.5 17.5t73 56.5t56.5 102t42 154l157 808h295l-156 -806q-31 -156 -87 -263.5t-134 -174t-176.5 -96
t-213.5 -29.5zM1044 1506q-7 -39 -29 -75t-57.5 -64t-84.5 -44.5t-110 -16.5q-54 0 -93 13t-64.5 35t-37.5 51.5t-12 62.5q0 9 1 18.5t3 19.5q8 39 29.5 75t57 63.5t84.5 44t110 16.5q54 0 93 -13t64.5 -34.5t37.5 -51t12 -62.5q0 -9 -1 -18.5t-3 -19.5zM905 1506
q2 12 -1 25t-13 23t-28.5 16.5t-46.5 6.5q-56 0 -84.5 -23t-33.5 -48q-3 -13 0.5 -25.5t14 -22.5t29 -16.5t46.5 -6.5t49 6.5t35 16.5t22 22.5t11 25.5z" />
    <glyph glyph-name="uring" unicode="&#x16f;" 
d="M521 1082l-118 -607q-12 -63 -12 -115q0 -78 30 -124t99 -46q43 0 85.5 22.5t78.5 64t63.5 99t40.5 126.5l112 580h281l-163 -840q-7 -34 -13.5 -71.5t-11.5 -71t-9 -60t-5 -39.5h-268q1 12 4 38.5t7.5 58.5t9.5 64t9 54h-5q-80 -123 -175 -179t-199 -56q-74 0 -125.5 20
t-83.5 56t-46.5 86t-14.5 111q0 67 15 142l133 687h281zM1013 1348q-7 -39 -29 -75t-57.5 -64t-84.5 -44.5t-110 -16.5q-54 0 -93 13t-64.5 35t-37.5 51.5t-12 62.5q0 9 1 18.5t3 19.5q8 39 29.5 75t57 63.5t84.5 44t110 16.5q54 0 93 -13t64.5 -34.5t37.5 -51t12 -62.5
q0 -9 -1 -18.5t-3 -19.5zM874 1348q2 12 -1 25t-13 23t-28.5 16.5t-46.5 6.5q-56 0 -84.5 -23t-33.5 -48q-3 -13 0.5 -25.5t14 -22.5t29 -16.5t46.5 -6.5t49 6.5t35 16.5t22 22.5t11 25.5z" />
    <glyph glyph-name="Uhungarumlaut" unicode="&#x170;" 
d="M490 -20q-90 0 -161 18t-121 59t-76.5 108t-26.5 165q0 88 22 198l159 821h295l-159 -818q-10 -50 -14.5 -90.5t-4.5 -73.5q0 -85 34 -120.5t106 -35.5q50 0 90.5 17.5t73 56.5t56.5 102t42 154l157 808h295l-156 -806q-31 -156 -87 -263.5t-134 -174t-176.5 -96
t-213.5 -29.5zM578 1426h-142l6 34l273 245h235l-8 -43zM984 1426h-142l6 34l273 245h235l-8 -43z" />
    <glyph glyph-name="uhungarumlaut" unicode="&#x171;" 
d="M521 1082l-118 -607q-12 -63 -12 -115q0 -78 30 -124t99 -46q43 0 85.5 22.5t78.5 64t63.5 99t40.5 126.5l112 580h281l-163 -840q-7 -34 -13.5 -71.5t-11.5 -71t-9 -60t-5 -39.5h-268q1 12 4 38.5t7.5 58.5t9.5 64t9 54h-5q-80 -123 -175 -179t-199 -56q-74 0 -125.5 20
t-83.5 56t-46.5 86t-14.5 111q0 67 15 142l133 687h281zM528 1182h-142l6 34l273 245h235l-8 -43zM934 1182h-142l6 34l273 245h235l-8 -43z" />
    <glyph glyph-name="Uogonek" unicode="&#x172;" 
d="M490 -20q-90 0 -161 18t-121 59t-76.5 108t-26.5 165q0 88 22 198l159 821h295l-159 -818q-10 -50 -14.5 -90.5t-4.5 -73.5q0 -85 34 -120.5t106 -35.5q50 0 90.5 17.5t73 56.5t56.5 102t42 154l157 808h295l-156 -806q-31 -156 -87 -263.5t-134 -174t-176.5 -96
t-213.5 -29.5zM528 -425q-91 0 -146.5 39.5t-55.5 117.5q0 23 4 43q9 48 33 88.5t54 71.5t62 52.5t57 33.5h153q-72 -42 -115.5 -99.5t-54.5 -110.5q-8 -42 11.5 -67.5t64.5 -25.5q31 0 59 7t58 20l-26 -137q-69 -33 -158 -33z" />
    <glyph glyph-name="uogonek" unicode="&#x173;" 
d="M521 1082l-118 -607q-12 -63 -12 -115q0 -78 30 -124t99 -46q43 0 85.5 22.5t78.5 64t63.5 99t40.5 126.5l112 580h281l-163 -840q-7 -34 -13.5 -71.5t-11.5 -71t-9 -60t-5 -39.5h-268q1 12 4 38.5t7.5 58.5t9.5 64t9 54h-5q-80 -123 -175 -179t-199 -56q-74 0 -125.5 20
t-83.5 56t-46.5 86t-14.5 111q0 67 15 142l133 687h281zM758 -425q-91 0 -146.5 39.5t-55.5 117.5q0 23 4 43q9 48 33 88.5t54 71.5t62 52.5t57 33.5h153q-72 -42 -115.5 -99.5t-54.5 -110.5q-8 -42 11.5 -67.5t64.5 -25.5q31 0 59 7t58 20l-26 -137q-69 -33 -158 -33z" />
    <glyph glyph-name="Wcircumflex" unicode="&#x174;" 
d="M913 0h-248l-12 267q-1 19 -3 45t-3.5 55.5t-3 61t-2.5 61.5q-3 70 -6 146q-33 -77 -64 -147q-13 -30 -27 -61.5t-27 -61t-24.5 -55t-20.5 -44.5l-118 -267h-248l51 1349h259l-46 -695q-2 -39 -8.5 -85t-12.5 -87q-7 -48 -15 -94q13 36 30 76q14 35 33 78.5t40 89.5
l165 339h195l33 -339q5 -57 6 -110t1 -88v-46q1 0 7.5 27t16 67t22 86.5t24.5 85.5l219 695h259zM1160 1455l-5 -28h-159l-177 134h-4l-237 -134h-160l5 28l307 250h229z" />
    <glyph glyph-name="wcircumflex" unicode="&#x175;" 
d="M923 0h-244l-51 471q-3 27 -4.5 46t-2.5 32q-1 15 -1 24q-3 -9 -9 -23q-5 -12 -14.5 -32t-25.5 -51l-239 -467h-243l27 1082h228l-35 -607q-3 -48 -8 -107.5t-17 -118.5q8 17 17 36q8 17 17.5 37.5t20.5 40.5l233 454h193l51 -455q2 -20 3.5 -39.5t2.5 -36.5q1 -19 1 -37
q12 60 30 117.5t35 108.5l209 607h226zM1113 1211l-5 -28h-159l-177 134h-4l-237 -134h-160l5 28l307 250h229z" />
    <glyph glyph-name="Ycircumflex" unicode="&#x176;" 
d="M764 556l-108 -556h-294l108 556l-310 793h309l190 -566l414 566h309zM1160 1455l-5 -28h-159l-177 134h-4l-237 -134h-160l5 28l307 250h229z" />
    <glyph glyph-name="ycircumflex" unicode="&#x177;" 
d="M626 -57q-56 -95 -109.5 -164.5t-111 -114.5t-123 -67t-145.5 -22q-44 0 -92 3t-87 10l39 200q10 -2 23 -3t26.5 -2.5t27 -2t23.5 -0.5q41 0 74.5 9t64 30t60 56t60.5 88l27 48l-240 1071h297l88 -527q2 -11 5.5 -37t7 -59.5t7.5 -70.5t7.5 -70.5t6 -59.5t2.5 -37
q5 11 16.5 36.5t26.5 58t32 68.5t32.5 69t28 59.5t18.5 38.5l283 531h294zM1113 1211l-5 -28h-159l-177 134h-4l-237 -134h-160l5 28l307 250h229z" />
    <glyph glyph-name="Ydieresis" unicode="&#x178;" 
d="M764 556l-108 -556h-294l108 556l-310 793h309l190 -566l414 566h309zM889 1445l43 219h227l-43 -219h-227zM465 1445l43 219h224l-43 -219h-224z" />
    <glyph glyph-name="Zacute" unicode="&#x179;" 
d="M1033 0h-1051l41 209l847 909h-595l45 231h934l-40 -205l-848 -913h712zM642 1429l6 31l299 243h258l-8 -43l-385 -231h-170z" />
    <glyph glyph-name="zacute" unicode="&#x17a;" 
d="M33 0l39 199l702 680h-529l39 203h849l-39 -201l-698 -676h616l-40 -205h-939zM577 1184l6 31l299 243h258l-8 -43l-385 -231h-170z" />
    <glyph glyph-name="Zdotaccent" unicode="&#x17b;" 
d="M1033 0h-1051l41 209l847 909h-595l45 231h934l-40 -205l-848 -913h712zM658 1431l41 207h281l-41 -207h-281z" />
    <glyph glyph-name="zdotaccent" unicode="&#x17c;" 
d="M33 0l39 199l702 680h-529l39 203h849l-39 -201l-698 -676h616l-40 -205h-939zM612 1277l41 207h281l-41 -207h-281z" />
    <glyph glyph-name="Zcaron" unicode="&#x17d;" 
d="M1033 0h-1051l41 209l847 909h-595l45 231h934l-40 -205l-848 -913h712zM915 1427h-229l-210 249l6 29h160l185 -134h4l229 134h159l-6 -29z" />
    <glyph glyph-name="zcaron" unicode="&#x17e;" 
d="M33 0l39 199l702 680h-529l39 203h849l-39 -201l-698 -676h616l-40 -205h-939zM859 1183h-229l-210 249l6 29h160l185 -134h4l229 134h159l-6 -29z" />
    <glyph glyph-name="longs" unicode="&#x17f;" 
d="M494 1165q12 62 41.5 124t86.5 112t145 81.5t217 31.5q102 0 183 -9t139 -19l-36 -184q-62 8 -132 13.5t-142 5.5q-58 0 -97.5 -13t-65.5 -36.5t-41 -57t-23 -75.5l-221 -1139h-280z" />
    <glyph glyph-name="florin" unicode="&#x192;" 
d="M1186 1158q-9 3 -25.5 7t-37 7t-43.5 5.5t-45 2.5q-44 0 -74.5 -7.5t-51.5 -23.5t-35.5 -40t-26.5 -56l-41 -107h302l-73 -190h-303l-462 -1181h-281l462 1181h-208l74 190h208l53 135q23 62 58 114.5t88.5 91.5t129 61t178.5 22q35 0 70.5 -3t67.5 -8.5t57.5 -11.5
t39.5 -12z" />
    <glyph glyph-name="Aringacute" unicode="&#x1fa;" 
d="M988 1218q-14 -72 -73 -127l209 -1091h-294l-37 263h-466l-137 -263h-295l633 1090q-14 19 -21 42t-7 48q0 10 1 19t3 19q8 39 29.5 75t57 63.5t84 44t109.5 16.5q54 0 93 -13t64.5 -35t38 -51.5t12.5 -62.5q0 -9 -1 -18t-3 -19zM703 992q-4 -9 -13.5 -30t-23 -48.5
t-29 -59t-31.5 -62.5l-163 -307h321l-42 307q-4 31 -7.5 62.5t-6 59t-4 48.5t-1.5 30zM689 1459l6 31l273 215h258l-8 -43l-379 -203h-150zM849 1218q2 12 -1 25t-13 23t-28.5 16.5t-46.5 6.5q-56 0 -84.5 -23t-33.5 -48q-3 -13 0.5 -25.5t14 -22.5t29 -16.5t46.5 -6.5
q29 0 49.5 6.5t35 16.5t22 23t10.5 25z" />
    <glyph glyph-name="aringacute" unicode="&#x1fb;" 
d="M330 -20q-134 0 -206.5 62t-72.5 180q0 39 9 84q19 96 63.5 161.5t108.5 106t144 59t169 19.5l224 4l10 55q5 24 7.5 45t2.5 39q0 69 -31.5 97t-85.5 28q-31 0 -58 -7t-49.5 -24.5t-40.5 -47t-32 -74.5l-290 14q25 71 67 129.5t105 101.5t148.5 66.5t196.5 23.5
q173 0 262.5 -72.5t89.5 -213.5q0 -46 -11 -104l-76 -392q-5 -25 -8 -46.5t-3 -38.5q0 -37 15.5 -56t53.5 -19q32 0 63 6l-29 -152q-26 -6 -47 -11t-41.5 -8t-43.5 -5t-53 -2q-95 0 -137 41.5t-42 122.5q0 10 0.5 20t1.5 21h-6q-38 -50 -78.5 -89.5t-86.5 -67t-98.5 -42
t-114.5 -14.5zM738 501l-134 -2q-45 -1 -85 -6.5t-72.5 -23t-55 -51t-33.5 -90.5q-6 -30 -6 -54q0 -98 96 -98q54 0 100.5 23t83 60.5t61.5 86.5t35 100zM975 1201q-7 -39 -29 -75t-57.5 -64t-84.5 -44.5t-110 -16.5q-54 0 -93 13t-64.5 35t-37.5 51.5t-12 62.5q0 9 1 18.5
t3 19.5q8 39 29.5 75t57 63.5t84.5 44t110 16.5q54 0 93 -13t64.5 -34.5t37.5 -51t12 -62.5q0 -9 -1 -18.5t-3 -19.5zM836 1201q2 12 -1 25t-13 23t-28.5 16.5t-46.5 6.5q-56 0 -84.5 -23t-33.5 -48q-3 -13 0.5 -25.5t14 -22.5t29 -16.5t46.5 -6.5t49 6.5t35 16.5t22 22.5
t11 25.5zM656 1431l6 31l299 243h258l-8 -43l-385 -231h-170z" />
    <glyph glyph-name="AEacute" unicode="&#x1fc;" 
d="M586 387h-253l-177 -387h-261l634 1349h804l-39 -202h-309l-69 -355h297l-39 -200h-297l-76 -390h348l-39 -202h-599zM735 1152h-58q-7 -16 -18 -42.5t-23 -55.5t-24 -56.5t-20 -45.5l-169 -366h202zM785 1429l6 31l299 243h258l-8 -43l-385 -231h-170z" />
    <glyph glyph-name="aeacute" unicode="&#x1fd;" 
d="M688 484v-2q-15 -73 -15 -137q0 -41 7 -75t21 -58.5t36.5 -38t52.5 -13.5q60 0 99.5 38t68.5 103l169 -45q-21 -45 -52 -93.5t-75.5 -89t-104 -67t-136.5 -26.5q-54 0 -95.5 12t-71 39.5t-47 72t-23.5 108.5q-30 -49 -67 -91.5t-81.5 -73.5t-95.5 -49t-109 -18
q-101 0 -153 58t-52 164q0 23 2.5 48t7.5 52q21 107 62.5 176t95.5 109t116.5 56t124.5 17l148 4l11 55q9 44 9 80q0 56 -21 88.5t-65 32.5q-49 0 -82 -37t-55 -110l-204 17q20 64 51 120.5t76.5 99t106.5 67.5t141 25q91 0 145 -35t75 -104q59 74 128 106.5t145 32.5
q69 0 117 -23t78 -65.5t43.5 -101.5t13.5 -131q0 -57 -7.5 -121t-21.5 -133l-8 -43h-509zM182 299q-6 -28 -6 -55q0 -35 13 -58.5t45 -23.5q45 0 85.5 27t73 69t54.5 92t31 95l11 54l-103 -3q-37 -1 -69 -9t-58 -29.5t-45.5 -59.5t-31.5 -99zM934 924q-21 0 -50 -13
t-59 -43.5t-57 -81t-44 -126.5h301q4 31 6 58t2 51q0 75 -22.5 115t-76.5 40zM602 1184l6 31l299 243h258l-8 -43l-385 -231h-170z" />
    <glyph glyph-name="Oslashacute" unicode="&#x1fe;" 
d="M1184 679q-67 -345 -241.5 -522t-436.5 -177q-215 0 -326 119l-133 -142l-100 75l165 176q-39 96 -39 231q0 54 6.5 114t19.5 126q67 345 241 518t436 173q213 0 323 -115l134 142l99 -75l-164 -173q20 -49 30.5 -107t10.5 -127q0 -53 -6 -111.5t-19 -124.5zM885 679
q11 55 16.5 103t6.5 90l-514 -546q41 -114 157 -114q121 0 205 118.5t129 348.5zM398 679q-11 -55 -17 -103t-7 -90l513 545q-39 107 -156 107q-121 0 -204.5 -114.5t-128.5 -344.5zM640 1429l6 31l299 243h258l-8 -43l-385 -231h-170z" />
    <glyph glyph-name="oslashacute" unicode="&#x1ff;" 
d="M1137 542q-24 -124 -75 -227t-130 -177.5t-186.5 -116t-244.5 -41.5q-103 0 -179.5 25t-129.5 72l-104 -97l-81 78l116 107q-47 90 -47 217q0 77 16 160q24 121 74 223.5t128 177.5t185.5 117t245.5 42q107 0 184 -22.5t128 -64.5l97 89l82 -78l-106 -98q24 -44 35 -97
t11 -113q0 -42 -5 -85.5t-14 -90.5zM843 542q9 45 13.5 84t6.5 72l-475 -439q38 -87 147 -87q62 0 111 21.5t86.5 66.5t64.5 115t46 167zM387 542q-16 -84 -18 -148l472 438q-38 77 -149 77q-62 0 -110.5 -21.5t-85.5 -66.5t-63.5 -114t-45.5 -165zM592 1184l6 31l299 243
h258l-8 -43l-385 -231h-170z" />
    <glyph glyph-name="Scommaaccent" unicode="&#x218;" 
d="M1136 391q-17 -88 -66 -163.5t-128.5 -130.5t-189.5 -86t-250 -31q-117 0 -208.5 25t-155 74t-97.5 121.5t-37 166.5l293 37q5 -94 67 -148.5t189 -54.5q60 0 109.5 9t87 29t62.5 53.5t34 81.5q3 15 3 29q0 45 -28 74t-71 49t-95.5 33.5t-100.5 26.5q-61 17 -126.5 40.5
t-119.5 60.5t-89 91.5t-35 135.5q0 34 8 77q19 98 75 169.5t136 118t176.5 69t196.5 22.5q224 0 333 -88.5t110 -274.5l-292 -29q-4 91 -52 137t-145 46q-63 0 -107.5 -12.5t-73.5 -34t-45 -49t-22 -57.5q-3 -15 -3 -29q0 -39 22 -65t58 -44.5t81.5 -31.5t93.5 -26
q45 -12 93 -26.5t93.5 -33.5t86 -44.5t71 -59.5t48.5 -78t18 -101q0 -18 -2 -37.5t-6 -40.5zM202 -453l6 33l152 322h257l-7 -37l-243 -318h-165z" />
    <glyph glyph-name="scommaaccent" unicode="&#x219;" 
d="M1060 316q-15 -78 -59.5 -140t-115 -105.5t-165 -67t-209.5 -23.5q-103 0 -183 15t-136 49.5t-87.5 89.5t-36.5 136l255 37q3 -45 18.5 -73t43.5 -43t68.5 -20t93.5 -5q48 0 90.5 5.5t75.5 19t55 38t29 61.5q8 42 -11.5 66.5t-59 40t-94.5 27t-118 26.5q-58 14 -114 32
t-99.5 47t-70.5 72t-27 107q0 15 1.5 32t5.5 35q15 77 56.5 137.5t107.5 103t156 65t201 22.5q88 0 161 -16.5t126 -52t83 -90.5t31 -133l-254 -26q0 39 -12.5 64.5t-36.5 40.5t-58 20.5t-76 5.5q-100 0 -155 -25.5t-67 -85.5q-7 -37 9.5 -59t51 -36.5t84 -25t107.5 -25.5
q65 -14 126.5 -32.5t109.5 -49t77 -76.5t29 -115q0 -35 -7 -70zM247 -453l6 33l152 322h257l-7 -37l-243 -318h-165z" />
    <glyph glyph-name="uni021A" unicode="&#x21a;" 
d="M202 -453l6 33l152 322h257l-7 -37l-243 -318h-165zM875 1121l-218 -1121h-295l218 1121h-406l44 228h1107l-44 -228h-406z" />
    <glyph glyph-name="uni021B" unicode="&#x21b;" 
d="M247 -453l6 33l152 322h257l-7 -37l-243 -318h-165zM396 892h-167l37 190h181l143 282h176l-55 -282h385l-37 -190h-385l-103 -530q-4 -22 -7.5 -43t-3.5 -40q0 -22 6.5 -40.5t23 -32t46 -21t74.5 -7.5q64 0 129 7t131 20l-36 -186q-39 -6 -76.5 -12t-77 -10.5t-83 -7
t-94.5 -2.5q-100 0 -164 19.5t-101 52t-51 75.5t-14 90q0 28 4 56t9 56z" />
    <glyph glyph-name="circumflex" unicode="&#x2c6;" 
d="M1113 1211l-5 -28h-159l-177 134h-4l-237 -134h-160l5 28l307 250h229z" />
    <glyph glyph-name="caron" unicode="&#x2c7;" 
d="M858 1183h-229l-210 249l6 29h160l185 -134h4l229 134h159l-6 -29z" />
    <glyph glyph-name="uni02C9" unicode="&#x2c9;" 
d="M469 1371h612l-32 -168h-612z" />
    <glyph glyph-name="breve" unicode="&#x2d8;" 
d="M737 1183q-148 0 -224 61.5t-76 175.5v20t2 21h163q-4 -63 39 -92t128 -29q88 0 138 29t76 92h164q-42 -132 -142.5 -205t-267.5 -73z" />
    <glyph glyph-name="dotaccent" unicode="&#x2d9;" 
d="M615 1277l41 207h281l-41 -207h-281z" />
    <glyph glyph-name="ring" unicode="&#x2da;" 
d="M1013 1348q-7 -39 -29 -75t-57.5 -64t-84.5 -44.5t-110 -16.5q-54 0 -93 13t-64.5 35t-37.5 51.5t-12 62.5q0 9 1 18.5t3 19.5q8 39 29.5 75t57 63.5t84.5 44t110 16.5q54 0 93 -13t64.5 -34.5t37.5 -51t12 -62.5q0 -9 -1 -18.5t-3 -19.5zM874 1348q2 12 -1 25t-13 23
t-28.5 16.5t-46.5 6.5q-56 0 -84.5 -23t-33.5 -48q-3 -13 0.5 -25.5t14 -22.5t29 -16.5t46.5 -6.5t49 6.5t35 16.5t22 22.5t11 25.5z" />
    <glyph glyph-name="ogonek" unicode="&#x2db;" 
d="M469 -425q-91 0 -146.5 39.5t-55.5 117.5q0 23 4 43q9 48 33 88.5t54 71.5t62 52.5t57 33.5h153q-72 -42 -115.5 -99.5t-54.5 -110.5q-8 -42 11.5 -67.5t64.5 -25.5q31 0 59 7t58 20l-26 -137q-69 -33 -158 -33z" />
    <glyph glyph-name="tilde" unicode="&#x2dc;" 
d="M906 1183q-44 0 -85 17.5t-79 39t-72 39t-64 17.5q-26 0 -44.5 -7t-32 -21t-24 -35t-19.5 -50h-137q7 27 17 58.5t25 63t35.5 60.5t49.5 51.5t66.5 36t86.5 13.5q45 0 87 -17.5t79.5 -39t70.5 -39t62 -17.5q50 0 75.5 28t45.5 85h135q-10 -41 -27.5 -90.5t-49 -92
t-80 -71.5t-121.5 -29z" />
    <glyph glyph-name="hungarumlaut" unicode="&#x2dd;" 
d="M267 1182h-142l6 34l273 245h235l-8 -43zM673 1182h-142l6 34l273 245h235l-8 -43z" />
    <glyph glyph-name="tonos" unicode="&#x384;" 
d="M603 1201l7 33l116 322h257l-7 -37l-268 -318h-105z" />
    <glyph glyph-name="dieresistonos" unicode="&#x385;" 
d="M644 1201l7 33l136 398h237l-7 -37l-258 -394h-115zM383 1231l43 222h200l-43 -222h-200zM915 1231l43 222h200l-43 -222h-200z" />
    <glyph glyph-name="Alphatonos" unicode="&#x386;" 
d="M1124 0h-294l-28 330h-456l-156 -330h-295l705 1349h344zM737 1167q-4 -10 -14.5 -35t-24.5 -57t-31 -69.5t-34 -73.5l-182 -380h332l-34 380q-3 36 -5 73.5t-3.5 69.5t-2.5 57t-1 35zM91 995l7 33l116 322h257l-7 -37l-268 -318h-105z" />
    <glyph glyph-name="anoteleia" unicode="&#x387;" 
d="M446 417l59 305h288l-59 -305h-288z" />
    <glyph glyph-name="Epsilontonos" unicode="&#x388;" 
d="M222 0l262 1349h808l-45 -228h-513l-63 -324h452l-44 -228h-452l-66 -341h554l-44 -228h-849zM33 994l7 33l116 322h257l-7 -37l-268 -318h-105z" />
    <glyph glyph-name="Etatonos" unicode="&#x389;" 
d="M785 0l111 574h-283l-111 -574h-280l262 1349h280l-103 -531h283l103 531h280l-262 -1349h-280zM33 994l7 33l116 322h257l-7 -37l-268 -318h-105z" />
    <glyph glyph-name="Iotatonos" unicode="&#x38a;" 
d="M439 1349h916l-44 -228h-316l-174 -893h316l-44 -228h-916l44 228h316l174 893h-316zM34 995l7 33l116 322h257l-7 -37l-268 -318h-105z" />
    <glyph glyph-name="Omicrontonos" unicode="&#x38c;" 
d="M1227 679q-33 -172 -92 -303t-140 -219t-183 -132.5t-222 -44.5q-192 0 -293.5 113t-101.5 337q0 111 27 249q34 173 93 302.5t140 215.5t183 129.5t222 43.5q191 0 292.5 -110t101.5 -331q0 -110 -27 -250zM928 679q27 138 27 234q0 114 -35.5 169.5t-104.5 55.5
q-98 0 -173.5 -114.5t-120.5 -344.5q-13 -68 -19.5 -126t-6.5 -107q0 -116 35.5 -175t104.5 -59q98 0 173 118.5t120 348.5zM33 994l7 33l116 322h257l-7 -37l-268 -318h-105z" />
    <glyph glyph-name="Upsilontonos" unicode="&#x38e;" 
d="M877 446l-86 -446h-286l86 446l-157 903h287l70 -602l308 602h287zM33 994l7 33l116 322h257l-7 -37l-268 -318h-105z" />
    <glyph glyph-name="Omegatonos" unicode="&#x38f;" 
d="M33 994l7 33l116 322h257l-7 -37l-268 -318h-105zM781 1143q-53 0 -96 -24t-76.5 -65t-57.5 -94t-40 -111t-23.5 -116.5t-7.5 -110.5q0 -45 2 -86.5t8.5 -80t18 -76t30.5 -75.5l-59 -304h-435l44 228h86q26 0 51.5 -2t45.5 -4l45 -5q-67 80 -91 186.5t-24 234.5
q0 162 49.5 297t134.5 231.5t198 150t241 53.5q88 0 161 -28t126 -82.5t82.5 -136t29.5 -189.5q0 -106 -24 -207t-70 -192.5t-113 -172t-152 -145.5q27 2 54 5q23 2 51.5 4t54.5 2h92l-44 -228h-455l59 304q121 115 188 258.5t67 327.5q0 66 -11.5 113.5t-32 78.5t-48 46
t-59.5 15z" />
    <glyph glyph-name="iotadieresistonos" unicode="&#x390;" 
d="M693 -20q-93 0 -157 19.5t-104 55.5t-57.5 86t-17.5 111q0 28 3.5 57t9.5 60l101 523h-284l37 190h564l-140 -724q-7 -32 -7 -63q0 -108 104 -108q57 0 108.5 29t94.5 79l135 -127q-37 -43 -78.5 -77.5t-89 -59t-102.5 -38t-120 -13.5zM631 1201l7 33l136 398h237l-7 -37
l-258 -394h-115zM370 1231l43 222h200l-43 -222h-200zM902 1231l43 222h200l-43 -222h-200z" />
    <glyph glyph-name="Alpha" unicode="&#x391;" 
d="M1124 0h-294l-28 330h-456l-156 -330h-295l705 1349h344zM737 1167q-4 -10 -14.5 -35t-24.5 -57t-31 -69.5t-34 -73.5l-182 -380h332l-34 380q-3 36 -5 73.5t-3.5 69.5t-2.5 57t-1 35z" />
    <glyph glyph-name="Beta" unicode="&#x392;" 
d="M1156 385q-20 -103 -72 -176t-125 -119.5t-162 -68t-183 -21.5h-582l262 1349h525q91 0 162.5 -16t121 -48t75.5 -81.5t26 -115.5q0 -18 -2 -37.5t-6 -40.5q-22 -115 -103.5 -193.5t-223.5 -107.5q145 -16 219.5 -81.5t74.5 -174.5q0 -34 -7 -68zM892 970q5 28 5 47
q0 61 -37.5 87t-103.5 26h-209l-62 -319h211q164 0 196 159zM864 410q5 28 5 47q0 38 -14 64t-38 42t-56.5 23t-68.5 7h-250l-72 -374h257q40 0 78 9t69.5 30.5t55 58.5t34.5 93z" />
    <glyph glyph-name="Gamma" unicode="&#x393;" 
d="M1301 1349l-44 -228h-672l-218 -1120h-295l262 1348h967z" />
    <glyph glyph-name="Delta" unicode="&#x394;" 
d="M-43 226l646 1123h345l203 -1123l-44 -226h-1194zM860 244l-102 618q-6 41 -10 90t-6.5 92.5t-4 75.5t-1.5 39q-3 -7 -17 -39.5t-33.5 -76.5t-42.5 -93t-44 -90l-340 -616h601z" />
    <glyph glyph-name="Epsilon" unicode="&#x395;" 
d="M32 0l262 1349h968l-44 -228h-673l-63 -324h612l-44 -228h-612l-67 -341h714l-44 -228h-1009z" />
    <glyph glyph-name="Zeta" unicode="&#x396;" 
d="M1033 0h-1051l41 209l847 909h-595l45 231h934l-40 -205l-848 -913h712z" />
    <glyph glyph-name="Eta" unicode="&#x397;" 
d="M691 0l112 574h-363l-112 -574h-295l262 1349h295l-103 -531h363l103 531h295l-262 -1349h-295z" />
    <glyph glyph-name="Theta" unicode="&#x398;" 
d="M840 787l-42 -214h-355l42 214h355zM1194 679q-33 -172 -96 -303t-150.5 -219t-199 -132.5t-242.5 -44.5q-215 0 -328 117.5t-113 349.5q0 105 24 232q33 173 95.5 302.5t150.5 215.5t199 129.5t242 43.5q214 0 328 -115t114 -345q0 -103 -24 -231zM905 679
q21 108 21 191q0 136 -51 202t-144 66q-60 0 -114.5 -29t-100 -86.5t-81 -143.5t-57.5 -200q-11 -54 -15.5 -101.5t-4.5 -89.5q0 -137 50 -206.5t143 -69.5q121 0 215 118.5t139 348.5z" />
    <glyph glyph-name="Iota" unicode="&#x399;" 
d="M314 1349h916l-44 -228h-316l-174 -893h316l-44 -228h-916l44 228h316l174 893h-316z" />
    <glyph glyph-name="Kappa" unicode="&#x39a;" 
d="M776 0l-215 557l-154 -142l-81 -415h-295l262 1349h295l-116 -599l552 599h343l-572 -579l329 -770h-348z" />
    <glyph glyph-name="Lambda" unicode="&#x39b;" 
d="M-85 0l705 1349h304l180 -1349h-304l-80 865q-2 28 -4 70t-2 79v22.5t1 18.5q-6 -18 -15.5 -43t-21 -51.5t-22.5 -52t-20 -43.5l-416 -865h-305z" />
    <glyph glyph-name="Mu" unicode="&#x39c;" 
d="M803 0l169 868q10 51 35 151.5t39 149.5q-108 -272 -141 -341l-215 -468h-218l-35 468q-4 61 -8 201l-2 140q-28 -220 -44 -301l-169 -868h-220l262 1349h347l38 -499q2 -33 2 -47q0 -43 -9 -184q16 47 45 125.5t40 104.5l233 500h335l-262 -1349h-222z" />
    <glyph glyph-name="Nu" unicode="&#x39d;" 
d="M643 0l-188 1010q-5 -72 -12 -138q-3 -28 -6.5 -58t-7 -58.5t-7 -54t-7.5 -45.5l-128 -656h-257l262 1349h337l192 -1037q5 67 12 133q6 57 13.5 119.5t17.5 112.5l130 672h257l-262 -1349h-346z" />
    <glyph glyph-name="Xi" unicode="&#x39e;" 
d="M245 1105l47 244h959l-47 -244h-959zM10 0l47 244h999l-47 -244h-999zM1021 808l-44 -228h-709l44 228h709z" />
    <glyph glyph-name="Omicron" unicode="&#x39f;" 
d="M1184 679q-67 -345 -241.5 -522t-436.5 -177q-213 0 -322.5 115.5t-109.5 344.5q0 54 6 113.5t19 125.5q67 345 241 518t436 173q212 0 322.5 -113t110.5 -340q0 -54 -6 -113t-19 -125zM885 679q24 123 24 213q0 246 -178 246q-121 0 -204.5 -114.5t-128.5 -344.5
q-24 -121 -24 -213q0 -126 44.5 -190t132.5 -64q121 0 205 118.5t129 348.5z" />
    <glyph glyph-name="Pi" unicode="&#x3a0;" 
d="M691 0l215 1105h-363l-215 -1105h-295l262 1349h953l-262 -1349h-295z" />
    <glyph glyph-name="Rho" unicode="&#x3a1;" 
d="M1216 923q-18 -91 -64 -172.5t-120.5 -142.5t-178.5 -96.5t-237 -35.5h-197l-93 -476h-295l262 1349h480q117 0 202.5 -22t141.5 -63.5t83 -101.5t27 -136q0 -24 -3 -50t-8 -53zM918 918q6 30 6 55q0 79 -57.5 113t-170.5 34h-152l-81 -417h160q132 0 203.5 54.5
t91.5 160.5z" />
    <glyph glyph-name="Sigma" unicode="&#x3a3;" 
d="M-5 0l45 234l551 477l-362 405l45 233h979l-47 -244h-642l297 -327l-26 -134l-472 -400h736l-47 -244h-1057z" />
    <glyph glyph-name="Tau" unicode="&#x3a4;" 
d="M875 1121l-218 -1121h-295l218 1121h-406l44 228h1107l-44 -228h-406z" />
    <glyph glyph-name="Upsilon" unicode="&#x3a5;" 
d="M764 556l-108 -556h-294l108 556l-310 793h309l190 -566l414 566h309z" />
    <glyph glyph-name="Phi" unicode="&#x3a6;" 
d="M995 700q5 26 7.5 50t2.5 45q0 51 -13 88t-35 61.5t-52 36t-64 11.5h-19l-116 -595h26q42 0 83.5 20.5t76.5 59.5t62 95t41 128zM389 -11l40 209h-24q-88 0 -158 28t-118.5 78.5t-74 121.5t-25.5 156q0 59 12 122q23 119 75.5 210t127.5 152.5t168.5 93t198.5 31.5h12
l32 168h238l-32 -168h12q90 0 162.5 -23t124 -68.5t79 -112.5t27.5 -156q0 -29 -3 -60.5t-10 -66.5q-21 -110 -73 -202.5t-126 -160t-166.5 -105.5t-196.5 -38h-24l-40 -209h-238zM297 700q-10 -50 -10 -97q0 -99 43 -152.5t112 -53.5h26l116 595h-19q-41 0 -82.5 -17
t-77.5 -53t-64.5 -91t-43.5 -131z" />
    <glyph glyph-name="Chi" unicode="&#x3a7;" 
d="M814 0l-207 493l-400 -493h-312l597 711l-294 638h312l180 -430l345 430h310l-552 -638l331 -711h-310z" />
    <glyph glyph-name="Psi" unicode="&#x3a8;" 
d="M706 397l-77 -397h-239l77 397h-10q-181 0 -269 87.5t-88 258.5q0 39 5 82t14 91l84 433h239l-85 -437q-15 -76 -15 -131q0 -91 40.5 -127t118.5 -36h9l142 731h239l-142 -731h9q51 0 91.5 14.5t72 48.5t55 90.5t39.5 140.5l85 437h239l-84 -433q-49 -253 -184 -386
t-356 -133h-10z" />
    <glyph glyph-name="Omega" unicode="&#x3a9;" 
d="M731 1143q-53 0 -105 -23t-97 -70.5t-80 -121t-55 -174.5q-14 -73 -14 -132q0 -91 30 -166.5t89 -151.5l-59 -304h-495l44 228h116q26 0 56 -1.5t56 -3.5l60 -6q-85 80 -130 184.5t-45 236.5q0 38 4 78t12 82q27 141 94 248t157 179t195.5 108.5t210.5 36.5
q92 0 173.5 -28t142.5 -82.5t97 -136t36 -189.5q0 -32 -3.5 -66t-10.5 -70q-37 -189 -136.5 -333.5t-248.5 -247.5l64 6q27 2 58.5 3.5t57.5 1.5h112l-44 -228h-495l59 304q59 51 105 101t80.5 104t58 114.5t37.5 130.5q8 38 11 72t3 64q0 66 -15 113.5t-42 78.5t-64 46
t-80 15z" />
    <glyph glyph-name="Iotadieresis" unicode="&#x3aa;" 
d="M314 1349h916l-44 -228h-316l-174 -893h316l-44 -228h-916l44 228h316l174 893h-316zM889 1445l43 219h227l-43 -219h-227zM465 1445l43 219h224l-43 -219h-224z" />
    <glyph glyph-name="Upsilondieresis" unicode="&#x3ab;" 
d="M764 556l-108 -556h-294l108 556l-310 793h309l190 -566l414 566h309zM889 1445l43 219h227l-43 -219h-227zM465 1445l43 219h224l-43 -219h-224z" />
    <glyph glyph-name="alphatonos" unicode="&#x3ac;" 
d="M791 237q-37 -56 -78.5 -103t-91 -81.5t-108.5 -53.5t-131 -19q-335 0 -335 351q0 45 5.5 96.5t16.5 108.5q56 284 196.5 425t360.5 141q73 0 128 -19.5t94 -54t62.5 -81t34.5 -100.5h3q22 55 54 118.5t66 116.5h265q-35 -47 -75 -113.5t-77.5 -138.5t-69 -144
t-49.5 -130q-9 -97 -9 -191q0 -102 10 -194.5t27 -170.5h-270q-7 32 -12 65t-8 64.5t-4 59t-1 48.5h-4zM365 539q-23 -118 -23 -192q0 -91 32.5 -132.5t100.5 -41.5q39 0 81 22.5t82.5 68.5t77.5 115.5t65 162.5q3 42 3 81q0 60 -8.5 112.5t-27 90.5t-49 60t-74.5 22
q-48 0 -87.5 -20t-71.5 -64t-56.5 -114t-44.5 -171zM663 1201l7 33l116 322h257l-7 -37l-268 -318h-105z" />
    <glyph glyph-name="epsilontonos" unicode="&#x3ad;" 
d="M558 168q56 0 108 13.5t98.5 35t88 50t75.5 58.5l136 -140q-40 -34 -93.5 -70t-122.5 -66t-152.5 -49.5t-183.5 -19.5q-109 0 -190.5 19t-135.5 53t-81 82.5t-27 106.5q0 28 6 56q11 57 47.5 103.5t88.5 79.5t115 53t127 25l1 2q-54 5 -99.5 23t-79 45.5t-52.5 64.5
t-19 80q0 22 4 39q12 63 55.5 116t114.5 91.5t166.5 60.5t212.5 22q156 0 262 -49t161 -140l-205 -123q-16 28 -41 52.5t-58 42.5t-73 28t-85 10q-106 0 -170 -33.5t-75 -88.5q-9 -43 16.5 -72t76.5 -46t124.5 -24t161.5 -7l-35 -177q-93 0 -171.5 -9.5t-138 -29t-96 -50
t-44.5 -72.5q-13 -69 36 -107.5t146 -38.5zM683 1201l7 33l116 322h257l-7 -37l-268 -318h-105z" />
    <glyph glyph-name="etatonos" unicode="&#x3ae;" 
d="M642 -424l204 1053q15 78 15 129q0 74 -32 104t-98 30q-53 0 -100 -20.5t-85.5 -60.5t-66 -97.5t-42.5 -132.5l-113 -581h-282l165 851q8 39 11 76.5t3 70.5q0 24 -1.5 45.5t-3.5 38.5h269q5 -22 7.5 -46.5t2.5 -50.5q0 -48 -8 -88h3q36 47 75.5 85t86.5 64.5t104 41
t129 14.5q139 0 206 -58t67 -186q0 -60 -15 -137l-222 -1145h-279zM683 1201l7 33l116 322h257l-7 -37l-268 -318h-105z" />
    <glyph glyph-name="iotatonos" unicode="&#x3af;" 
d="M693 -20q-93 0 -157 19.5t-104 55.5t-57.5 86t-17.5 111q0 28 3.5 57t9.5 60l101 523h-284l37 190h564l-140 -724q-7 -32 -7 -63q0 -108 104 -108q57 0 108.5 29t94.5 79l135 -127q-37 -43 -78.5 -77.5t-89 -59t-102.5 -38t-120 -13.5zM633 1201l7 33l116 322h257l-7 -37
l-268 -318h-105z" />
    <glyph glyph-name="upsilondieresistonos" unicode="&#x3b0;" 
d="M1129 571q-27 -136 -77.5 -245.5t-128 -186.5t-182.5 -118t-241 -41q-201 0 -297.5 76t-96.5 237q0 64 15 140l126 649h281l-121 -622q-12 -60 -12 -106q0 -83 38.5 -125t123.5 -42q59 0 104.5 23t81 73.5t62.5 129.5t49 190q15 80 15 166q0 47 -3.5 92t-10 85.5t-15 75
t-17.5 60.5h286q16 -52 28 -130t12 -170q0 -51 -4.5 -104t-15.5 -107zM629 1201l7 33l136 398h237l-7 -37l-258 -394h-115zM368 1231l43 222h200l-43 -222h-200zM900 1231l43 222h200l-43 -222h-200z" />
    <glyph glyph-name="alpha" unicode="&#x3b1;" 
d="M791 237q-37 -56 -78.5 -103t-91 -81.5t-108.5 -53.5t-131 -19q-335 0 -335 351q0 45 5.5 96.5t16.5 108.5q56 284 196.5 425t360.5 141q73 0 128 -19.5t94 -54t62.5 -81t34.5 -100.5h3q22 55 54 118.5t66 116.5h265q-35 -47 -75 -113.5t-77.5 -138.5t-69 -144
t-49.5 -130q-9 -97 -9 -191q0 -102 10 -194.5t27 -170.5h-270q-7 32 -12 65t-8 64.5t-4 59t-1 48.5h-4zM365 539q-23 -118 -23 -192q0 -91 32.5 -132.5t100.5 -41.5q39 0 81 22.5t82.5 68.5t77.5 115.5t65 162.5q3 42 3 81q0 60 -8.5 112.5t-27 90.5t-49 60t-74.5 22
q-48 0 -87.5 -20t-71.5 -64t-56.5 -114t-44.5 -171z" />
    <glyph glyph-name="beta" unicode="&#x3b2;" 
d="M1145 405q-17 -88 -57 -165.5t-104.5 -135.5t-155 -91t-209.5 -33q-100 0 -169 27.5t-116 66.5h-9q-6 -57 -13 -103t-18 -99l-58 -297h-282l283 1452q46 237 191.5 347t392.5 110q190 0 282.5 -70.5t92.5 -198.5q0 -19 -2 -39t-6 -41q-14 -73 -42.5 -128.5t-66 -96.5
t-81.5 -69t-89 -46q45 -10 88.5 -31.5t78.5 -57.5t56.5 -87.5t21.5 -121.5q0 -42 -9 -92zM873 419q6 30 6 59q0 44 -15.5 80.5t-49.5 62.5t-86 40.5t-126 14.5l39 198q124 22 190.5 79t85.5 156q5 28 5 48q0 55 -32 89.5t-109 34.5q-54 0 -97 -15.5t-76 -50t-57 -90
t-39 -134.5l-143 -736q19 -17 44.5 -32t55.5 -26.5t63.5 -18t67.5 -6.5q58 0 103.5 17.5t79.5 50t56.5 78t33.5 101.5z" />
    <glyph glyph-name="gamma" unicode="&#x3b3;" 
d="M542 442q1 -6 2 -24.5t2.5 -43.5t2.5 -54t1 -57q0 -22 -0.5 -41t-2.5 -34q10 31 25 67.5t30.5 72t31 67t26.5 52.5l339 635h295l-610 -1028q-32 -55 -61.5 -110t-56 -113.5t-50.5 -121.5t-47 -133h-290q45 134 92.5 240.5t92.5 194.5l-223 1071h298z" />
    <glyph glyph-name="delta" unicode="&#x3b4;" 
d="M846 487q9 51 9 96q0 50 -10 94t-27.5 83.5t-40.5 75t-49 67.5q-72 -24 -133 -62t-109.5 -90.5t-82 -119.5t-49.5 -150q-5 -26 -7.5 -50.5t-2.5 -47.5q0 -46 11 -84.5t34 -65.5t58 -42t84 -15q70 0 123 23.5t91.5 64.5t63 98.5t37.5 124.5zM871 1294q-13 0 -32.5 1
t-40.5 2t-40.5 2t-32.5 2l266 -293q75 -83 116.5 -176t41.5 -210q0 -33 -3 -67.5t-11 -71.5q-21 -108 -74.5 -200.5t-135.5 -159.5t-190 -105t-237 -38q-109 0 -192.5 25.5t-140 74t-85.5 118.5t-29 159q0 29 3.5 60t9.5 64q22 110 75.5 196t129.5 152t170 113.5t196 80.5
l-251 314l28 147h853l-36 -190h-358z" />
    <glyph glyph-name="epsilon" unicode="&#x3b5;" 
d="M558 168q56 0 108 13.5t98.5 35t88 50t75.5 58.5l136 -140q-40 -34 -93.5 -70t-122.5 -66t-152.5 -49.5t-183.5 -19.5q-109 0 -190.5 19t-135.5 53t-81 82.5t-27 106.5q0 28 6 56q11 57 47.5 103.5t88.5 79.5t115 53t127 25l1 2q-54 5 -99.5 23t-79 45.5t-52.5 64.5
t-19 80q0 22 4 39q12 63 55.5 116t114.5 91.5t166.5 60.5t212.5 22q156 0 262 -49t161 -140l-205 -123q-16 28 -41 52.5t-58 42.5t-73 28t-85 10q-106 0 -170 -33.5t-75 -88.5q-9 -43 16.5 -72t76.5 -46t124.5 -24t161.5 -7l-35 -177q-93 0 -171.5 -9.5t-138 -29t-96 -50
t-44.5 -72.5q-13 -69 36 -107.5t146 -38.5z" />
    <glyph glyph-name="zeta" unicode="&#x3b6;" 
d="M441 422q-6 -28 -6 -51q0 -37 15.5 -62t48.5 -43t83.5 -32t119.5 -30q71 -16 128 -36.5t97.5 -49.5t62.5 -68.5t22 -92.5q0 -28 -6 -59q-8 -42 -26.5 -85.5t-40.5 -84t-45 -74.5t-40 -55l-169 74q12 15 25 33.5t25.5 38.5t22 41t13.5 42q5 28 -3 47.5t-37 36.5t-82.5 33
t-139.5 36q-85 20 -155.5 44.5t-121 60.5t-78 85.5t-27.5 119.5q0 19 1.5 38.5t6.5 41.5q17 85 60.5 169t107.5 165.5t143.5 160t167 153t179.5 143.5t181 132l1 7q-12 -1 -39 -2t-59.5 -2l-65 -2t-54.5 -1h-345l36 190h831l-36 -190q-87 -63 -176.5 -133t-174 -144.5
t-161 -151.5t-136.5 -153t-100.5 -149.5t-53.5 -140.5z" />
    <glyph glyph-name="eta" unicode="&#x3b7;" 
d="M642 -424l204 1053q15 78 15 129q0 74 -32 104t-98 30q-53 0 -100 -20.5t-85.5 -60.5t-66 -97.5t-42.5 -132.5l-113 -581h-282l165 851q8 39 11 76.5t3 70.5q0 24 -1.5 45.5t-3.5 38.5h269q5 -22 7.5 -46.5t2.5 -50.5q0 -48 -8 -88h3q36 47 75.5 85t86.5 64.5t104 41
t129 14.5q139 0 206 -58t67 -186q0 -60 -15 -137l-222 -1145h-279z" />
    <glyph glyph-name="theta" unicode="&#x3b8;" 
d="M1134 733q-37 -190 -98 -331.5t-142 -235.5t-180.5 -140t-213.5 -46q-85 0 -152.5 28.5t-114.5 85.5t-72 144t-25 204q0 130 31 291q73 374 236 562t395 188q370 0 370 -440q0 -137 -34 -310zM536 162q39 0 81 23.5t82.5 79t77.5 148.5t66 231h-417q-12 -69 -17.5 -125.5
t-5.5 -103.5q0 -70 11 -118.5t29.5 -78.5t42.5 -43t50 -13zM765 1300q-39 0 -80.5 -22.5t-81.5 -76.5t-76 -143.5t-65 -223.5h418q12 68 17.5 123.5t5.5 101.5q0 68 -11 114t-29.5 74t-43.5 40.5t-54 12.5z" />
    <glyph glyph-name="iota" unicode="&#x3b9;" 
d="M693 -20q-93 0 -157 19.5t-104 55.5t-57.5 86t-17.5 111q0 28 3.5 57t9.5 60l101 523h-284l37 190h564l-140 -724q-7 -32 -7 -63q0 -108 104 -108q57 0 108.5 29t94.5 79l135 -127q-37 -43 -78.5 -77.5t-89 -59t-102.5 -38t-120 -13.5z" />
    <glyph glyph-name="kappa" unicode="&#x3ba;" 
d="M759 0l-198 470l-137 -84l-75 -386h-281l210 1082h281l-91 -468l477 468h302l-466 -442l285 -640h-307z" />
    <glyph glyph-name="lambda" unicode="&#x3bb;" 
d="M1061 0h-294l-50 461q-3 28 -6 63.5t-5.5 72t-4 70.5t-1.5 60v17.5t1 14.5q-12 -27 -34 -70.5t-47.5 -91t-51 -93t-44.5 -75.5l-265 -429h-297l670 1006l-8 23q-14 69 -26 116.5t-27 77.5t-36.5 43t-53.5 13q-20 0 -48.5 -5.5t-48.5 -13.5l-10 194q32 11 83.5 20.5
t108.5 9.5q81 0 134.5 -21.5t89 -66.5t57 -115.5t36.5 -168.5z" />
    <glyph glyph-name="mu" unicode="&#x3bc;" 
d="M734 0q1 12 3 34t5 48.5t7 53.5t8 48h-3q-57 -99 -128.5 -151.5t-157.5 -52.5q-52 0 -90.5 24t-53.5 66h-4q-4 -32 -9 -59.5t-10 -55.5l-74 -380h-281l293 1507h281l-117 -605q-6 -33 -9.5 -63t-3.5 -56q0 -76 32.5 -120.5t109.5 -44.5q50 0 94.5 22.5t81 63t63.5 98
t40 127.5l112 578h281l-163 -840q-6 -34 -12.5 -70.5t-12 -70t-9.5 -60.5t-5 -41h-268z" />
    <glyph glyph-name="nu" unicode="&#x3bd;" 
d="M1159 846q-19 -99 -72 -208t-128 -219.5t-166.5 -217.5t-187.5 -201h-267l-193 1082h297l110 -843q72 80 126 154t93 146.5t65 146t41 151.5q13 68 13 124q0 35 -4 65t-11 56h280q8 -25 13 -53t5 -61q0 -26 -3.5 -56.5t-10.5 -65.5z" />
    <glyph glyph-name="xi" unicode="&#x3be;" 
d="M427 423q-2 -12 -3.5 -23t-1.5 -22q0 -40 16.5 -67.5t49 -46.5t80 -31.5t108.5 -22.5q72 -12 133.5 -31t106.5 -48.5t70.5 -72t25.5 -101.5q0 -28 -6 -59q-8 -42 -26.5 -85.5t-40.5 -84t-45 -74.5t-40 -55l-169 74q12 15 25 33.5t25.5 38.5t22 41t13.5 42q6 33 -7.5 56
t-49 40.5t-95 32t-144.5 32.5q-74 15 -140 35.5t-115.5 53t-78 80.5t-28.5 120q0 19 1.5 39t6.5 42q15 76 58 147t116 130t176.5 101.5t238.5 61.5l2 7q-69 4 -130.5 20t-108 43t-74 65t-27.5 86q0 16 3 32q11 57 53 98t97.5 70t116.5 46.5t109 26.5l2 8q-8 -1 -28.5 -1.5
t-48 -1t-59 -1.5t-60.5 -1.5t-53 -1t-36 -0.5h-96l36 190h797l-35 -185q-100 -7 -188 -21t-155 -38t-109.5 -61t-53.5 -92q-10 -51 15.5 -83.5t77.5 -52t127.5 -29.5t165.5 -15l-37 -191q-118 -16 -219 -36.5t-177.5 -53.5t-126 -82t-63.5 -121z" />
    <glyph glyph-name="omicron" unicode="&#x3bf;" 
d="M1137 542q-24 -124 -75 -227t-130 -177.5t-186.5 -116t-244.5 -41.5q-109 0 -189.5 28.5t-132.5 81t-77.5 127t-25.5 166.5q0 38 4 77.5t12 81.5q24 121 74 223.5t128 177.5t185.5 117t245.5 42q118 0 200 -27.5t133.5 -77.5t74.5 -121t23 -157q0 -42 -5 -85.5t-14 -91.5
zM843 542q10 51 15 94t5 79q0 101 -41 147.5t-130 46.5q-62 0 -110.5 -21.5t-85.5 -66.5t-63.5 -114t-45.5 -165q-18 -94 -18 -164q0 -107 42 -156.5t124 -49.5q62 0 111 21.5t86.5 66.5t64.5 115t46 167z" />
    <glyph glyph-name="pi" unicode="&#x3c0;" 
d="M1083 892l-114 -589q-4 -20 -6 -35.5t-2 -28.5q0 -35 16 -49t51 -14q18 0 37 3.5t33 7.5l-4 -174q-47 -15 -99.5 -24t-109.5 -9q-113 0 -163 48.5t-50 138.5q0 23 3 47t8 51l121 627h-243l-24 -124q-25 -130 -51 -239t-54 -202t-58.5 -173t-63.5 -154h-287
q34 76 66.5 157.5t62.5 173.5t58 198t52 231l25 132q-22 0 -48.5 -2t-53.5 -6.5t-52 -11.5t-45 -17l39 198q17 7 39.5 12.5t47.5 9t51 5.5t49 2h979l-37 -190h-173z" />
    <glyph glyph-name="rho" unicode="&#x3c1;" 
d="M1124 516q-23 -118 -73.5 -216.5t-120.5 -169.5t-155.5 -110.5t-179.5 -39.5q-88 0 -151.5 37.5t-102.5 99.5h-11q-2 -15 -5 -38.5t-6 -49t-6 -49t-6 -39.5l-72 -366h-295l196 1006q23 119 75.5 215.5t130.5 164.5t178.5 105t219.5 37q91 0 165 -28t126.5 -82t81 -133
t28.5 -181q0 -38 -4.5 -78.5t-12.5 -84.5zM832 526q10 51 15 96t5 83q0 98 -35 151t-112 53q-55 0 -99.5 -23t-78.5 -66.5t-58.5 -106t-39.5 -141.5l-53 -272q38 -59 92.5 -92.5t114.5 -33.5q40 0 78 25t71 70.5t58.5 110.5t41.5 146z" />
    <glyph glyph-name="sigma1" unicode="&#x3c2;" 
d="M407 475q-6 -30 -6 -56q0 -43 16 -74.5t47 -55t76.5 -40.5t104.5 -32q74 -18 137 -37t110 -47t73.5 -69.5t26.5 -104.5q0 -34 -7 -69q-8 -39 -28.5 -82t-46 -82.5t-51.5 -73t-44 -53.5l-164 74q14 16 28 34.5t26.5 38t22 40t13.5 41.5q8 37 -10 62t-57 43t-97 31.5
t-132 28.5q-60 12 -117.5 32.5t-102 57.5t-72 94t-27.5 142q0 56 13 120q11 59 36 131t64.5 145.5t94 143.5t125.5 124t158.5 87t192.5 33q65 0 119 -13t98.5 -36t79.5 -54.5t61 -67.5l-176 -156q-18 23 -40.5 46t-51 41.5t-63.5 30.5t-77 12q-72 0 -131 -41.5t-104 -105.5
t-74.5 -139.5t-43.5 -143.5z" />
    <glyph glyph-name="sigma" unicode="&#x3c3;" 
d="M1114 458q-20 -105 -70.5 -193t-129 -151t-183 -98.5t-232.5 -35.5q-108 0 -190 26.5t-137 76.5t-83 123t-28 167q0 72 16 151q28 144 92.5 249t159 174t215 102t260.5 33h522l-37 -190h-135q-20 0 -52 2t-70 4l-1 -4q37 -62 65.5 -142.5t28.5 -179.5q0 -27 -2.5 -55.5
t-8.5 -58.5zM827 492q8 44 12 84t4 78q0 72 -11.5 131.5t-29.5 106.5h-54q-60 0 -119.5 -22.5t-110.5 -68t-89.5 -114.5t-56.5 -163q-15 -76 -15 -137q0 -108 44.5 -161.5t127.5 -53.5q57 0 105 22t86 63.5t65 100.5t42 134z" />
    <glyph glyph-name="tau" unicode="&#x3c4;" 
d="M448 892q-39 0 -79 -3t-75.5 -8.5t-63 -12t-41.5 -13.5l39 198q14 6 36 11.5t48 9.5t53.5 6t50.5 2h759l-37 -190h-345l-112 -580q-6 -30 -6 -52q0 -49 26.5 -66t77.5 -17q9 0 23 0.5t29.5 2t30 3t22.5 2.5l-36 -183q-18 -5 -43.5 -9t-53 -7t-55 -5t-49.5 -2
q-138 0 -201.5 46.5t-63.5 144.5q0 36 9 81l124 641h-67z" />
    <glyph glyph-name="upsilon" unicode="&#x3c5;" 
d="M1129 571q-27 -136 -77.5 -245.5t-128 -186.5t-182.5 -118t-241 -41q-201 0 -297.5 76t-96.5 237q0 64 15 140l126 649h281l-121 -622q-12 -60 -12 -106q0 -83 38.5 -125t123.5 -42q59 0 104.5 23t81 73.5t62.5 129.5t49 190q15 80 15 166q0 47 -3.5 92t-10 85.5t-15 75
t-17.5 60.5h286q16 -52 28 -130t12 -170q0 -51 -4.5 -104t-15.5 -107z" />
    <glyph glyph-name="phi" unicode="&#x3c6;" 
d="M1192 565q-29 -151 -87 -258.5t-135 -177.5t-170 -105.5t-192 -41.5l-80 -407h-218l79 405q-84 4 -151.5 29.5t-115 73.5t-73 119t-25.5 167q0 79 18 175q26 133 75 229.5t116.5 163t150.5 107t176 62.5l-14 -179q-54 -13 -97.5 -48t-77 -86.5t-57 -115t-37.5 -133.5
q-9 -45 -13 -84t-4 -73q0 -106 41.5 -160t123.5 -60l104 535q39 198 144.5 300t269.5 102q64 0 114 -24.5t84 -70t52 -111.5t18 -149q0 -42 -4.5 -88t-14.5 -96zM957 567q13 64 18.5 115.5t5.5 92.5q0 81 -20.5 118t-55.5 37q-57 0 -95.5 -54.5t-62.5 -176.5l-104 -533
q122 6 199 106t115 295z" />
    <glyph glyph-name="chi" unicode="&#x3c7;" 
d="M371 1104q56 0 94 -14.5t65.5 -50.5t49 -96t45.5 -152l15 -60q2 -6 5 -19t6.5 -29.5t6.5 -33.5t5 -31q8 14 20 33.5t24.5 39.5t23.5 38t18 28l218 325h297l-509 -690l255 -816h-300l-111 432q-4 15 -9.5 40t-11 52.5t-9.5 53.5t-6 44q-8 -17 -23 -43t-31 -52.5t-31.5 -51
t-24.5 -38.5l-299 -437h-300l613 829l-72 243q-23 76 -40.5 125t-35 77t-37 38.5t-46.5 10.5q-41 0 -84 -16l-3 191q32 11 89 20.5t133 9.5z" />
    <glyph glyph-name="psi" unicode="&#x3c8;" 
d="M655 176q51 1 90 15.5t68 49t51 91.5t38 142l118 608h241l-121 -624q-24 -122 -65.5 -211.5t-105 -148t-150 -88t-200.5 -30.5l-79 -405h-224l79 405q-180 2 -267.5 79t-87.5 239q0 36 4.5 75.5t12.5 84.5l121 624h241l-118 -607q-15 -79 -15 -135q0 -45 10 -75.5
t28.5 -49.5t46 -28t62.5 -10l226 1163h222z" />
    <glyph glyph-name="omega" unicode="&#x3c9;" 
d="M765 -20q-101 0 -152.5 68t-53.5 189h-5q-48 -121 -126.5 -189t-179.5 -68q-107 0 -167.5 85t-60.5 246q0 46 5.5 97.5t16.5 108.5q21 108 62 206.5t100 176.5t136.5 131.5t171.5 71.5l-2 -174q-43 -12 -78.5 -47.5t-63.5 -90.5t-49.5 -126t-37.5 -153
q-12 -60 -17.5 -108.5t-5.5 -86.5q0 -75 19.5 -109.5t51.5 -34.5q26 0 51 27t46.5 72.5t40 106.5t31.5 130l43 222h223l-43 -222q-11 -54 -16.5 -103.5t-5.5 -91.5q0 -64 14.5 -102.5t46.5 -38.5q24 0 49 19.5t48 60.5t44 105t39 154q12 61 18.5 115.5t6.5 102.5
q0 80 -21.5 132t-70.5 67l64 174q68 -14 117.5 -49.5t81.5 -88t47 -119t15 -143.5q0 -91 -19 -186q-25 -128 -67 -228t-96 -168.5t-118 -104.5t-133 -36z" />
    <glyph glyph-name="iotadieresis" unicode="&#x3ca;" 
d="M693 -20q-93 0 -157 19.5t-104 55.5t-57.5 86t-17.5 111q0 28 3.5 57t9.5 60l101 523h-284l37 190h564l-140 -724q-7 -32 -7 -63q0 -108 104 -108q57 0 108.5 29t94.5 79l135 -127q-37 -43 -78.5 -77.5t-89 -59t-102.5 -38t-120 -13.5zM817 1219l43 219h227l-43 -219
h-227zM393 1219l43 219h224l-43 -219h-224z" />
    <glyph glyph-name="upsilondieresis" unicode="&#x3cb;" 
d="M1129 571q-27 -136 -77.5 -245.5t-128 -186.5t-182.5 -118t-241 -41q-201 0 -297.5 76t-96.5 237q0 64 15 140l126 649h281l-121 -622q-12 -60 -12 -106q0 -83 38.5 -125t123.5 -42q59 0 104.5 23t81 73.5t62.5 129.5t49 190q15 80 15 166q0 47 -3.5 92t-10 85.5t-15 75
t-17.5 60.5h286q16 -52 28 -130t12 -170q0 -51 -4.5 -104t-15.5 -107zM817 1219l43 219h227l-43 -219h-227zM393 1219l43 219h224l-43 -219h-224z" />
    <glyph glyph-name="omicrontonos" unicode="&#x3cc;" 
d="M1137 542q-24 -124 -75 -227t-130 -177.5t-186.5 -116t-244.5 -41.5q-109 0 -189.5 28.5t-132.5 81t-77.5 127t-25.5 166.5q0 38 4 77.5t12 81.5q24 121 74 223.5t128 177.5t185.5 117t245.5 42q118 0 200 -27.5t133.5 -77.5t74.5 -121t23 -157q0 -42 -5 -85.5t-14 -91.5
zM843 542q10 51 15 94t5 79q0 101 -41 147.5t-130 46.5q-62 0 -110.5 -21.5t-85.5 -66.5t-63.5 -114t-45.5 -165q-18 -94 -18 -164q0 -107 42 -156.5t124 -49.5q62 0 111 21.5t86.5 66.5t64.5 115t46 167zM663 1201l7 33l116 322h257l-7 -37l-268 -318h-105z" />
    <glyph glyph-name="upsilontonos" unicode="&#x3cd;" 
d="M1129 571q-27 -136 -77.5 -245.5t-128 -186.5t-182.5 -118t-241 -41q-201 0 -297.5 76t-96.5 237q0 64 15 140l126 649h281l-121 -622q-12 -60 -12 -106q0 -83 38.5 -125t123.5 -42q59 0 104.5 23t81 73.5t62.5 129.5t49 190q15 80 15 166q0 47 -3.5 92t-10 85.5t-15 75
t-17.5 60.5h286q16 -52 28 -130t12 -170q0 -51 -4.5 -104t-15.5 -107zM633 1201l7 33l116 322h257l-7 -37l-268 -318h-105z" />
    <glyph glyph-name="omegatonos" unicode="&#x3ce;" 
d="M765 -20q-101 0 -152.5 68t-53.5 189h-5q-48 -121 -126.5 -189t-179.5 -68q-107 0 -167.5 85t-60.5 246q0 46 5.5 97.5t16.5 108.5q21 108 62 206.5t100 176.5t136.5 131.5t171.5 71.5l-2 -174q-43 -12 -78.5 -47.5t-63.5 -90.5t-49.5 -126t-37.5 -153
q-12 -60 -17.5 -108.5t-5.5 -86.5q0 -75 19.5 -109.5t51.5 -34.5q26 0 51 27t46.5 72.5t40 106.5t31.5 130l43 222h223l-43 -222q-11 -54 -16.5 -103.5t-5.5 -91.5q0 -64 14.5 -102.5t46.5 -38.5q24 0 49 19.5t48 60.5t44 105t39 154q12 61 18.5 115.5t6.5 102.5
q0 80 -21.5 132t-70.5 67l64 174q68 -14 117.5 -49.5t81.5 -88t47 -119t15 -143.5q0 -91 -19 -186q-25 -128 -67 -228t-96 -168.5t-118 -104.5t-133 -36zM658 1201l7 33l116 322h257l-7 -37l-268 -318h-105z" />
    <glyph glyph-name="uni0400" unicode="&#x400;" 
d="M32 0l262 1349h968l-44 -228h-673l-63 -324h612l-44 -228h-612l-67 -341h714l-44 -228h-1009zM788 1428l-295 231l8 43h258l205 -243l-6 -31h-170z" />
    <glyph glyph-name="afii10023" unicode="&#x401;" 
d="M32 0l262 1349h968l-44 -228h-673l-63 -324h612l-44 -228h-612l-67 -341h714l-44 -228h-1009zM889 1445l43 219h227l-43 -219h-227zM465 1445l43 219h224l-43 -219h-224z" />
    <glyph glyph-name="afii10051" unicode="&#x402;" 
d="M782 -20q-70 0 -118.5 18.5t-79 52t-46 80.5t-20.5 103l223 68q5 -58 19.5 -79t45.5 -21q18 0 32 13t26 41t23 71.5t23 103.5l7 37q8 42 12.5 74.5t4.5 58.5q0 57 -24 80.5t-80 23.5q-63 0 -132 -18t-138 -46l-125 -641h-265l218 1121h-275l44 228h846l-44 -228h-306
l-58 -296q40 21 84.5 39t90.5 32t91 22t87 8q125 0 186.5 -59t61.5 -192q0 -77 -19 -175l-14 -74q-42 -215 -136.5 -330.5t-244.5 -115.5z" />
    <glyph glyph-name="afii10052" unicode="&#x403;" 
d="M1301 1349l-44 -228h-672l-218 -1120h-295l262 1348h967zM680 1429l6 31l299 243h258l-8 -43l-385 -231h-170z" />
    <glyph glyph-name="afii10053" unicode="&#x404;" 
d="M385 568q-2 -20 -3 -39.5t-1 -37.5q0 -136 53.5 -207.5t160.5 -71.5q45 0 85.5 18t76.5 50.5t67.5 77.5t58.5 98l263 -52q-51 -99 -112.5 -177.5t-136 -133t-161.5 -84t-189 -29.5q-122 0 -210 32.5t-144.5 93.5t-83 148t-26.5 195t24 232q33 167 92 295t146 216t203 133
t261 45q104 0 179 -29t125.5 -80.5t78.5 -123t38 -156.5l-285 -66q-4 48 -16.5 89t-34.5 71t-53.5 46.5t-72.5 16.5q-118 0 -203 -86.5t-135 -255.5h393l-45 -228h-393z" />
    <glyph glyph-name="afii10054" unicode="&#x405;" 
d="M1136 391q-17 -88 -66 -163.5t-128.5 -130.5t-189.5 -86t-250 -31q-117 0 -208.5 25t-155 74t-97.5 121.5t-37 166.5l293 37q5 -94 67 -148.5t189 -54.5q60 0 109.5 9t87 29t62.5 53.5t34 81.5q3 15 3 29q0 45 -28 74t-71 49t-95.5 33.5t-100.5 26.5q-61 17 -126.5 40.5
t-119.5 60.5t-89 91.5t-35 135.5q0 34 8 77q19 98 75 169.5t136 118t176.5 69t196.5 22.5q224 0 333 -88.5t110 -274.5l-292 -29q-4 91 -52 137t-145 46q-63 0 -107.5 -12.5t-73.5 -34t-45 -49t-22 -57.5q-3 -15 -3 -29q0 -39 22 -65t58 -44.5t81.5 -31.5t93.5 -26
q45 -12 93 -26.5t93.5 -33.5t86 -44.5t71 -59.5t48.5 -78t18 -101q0 -18 -2 -37.5t-6 -40.5z" />
    <glyph glyph-name="afii10055" unicode="&#x406;" 
d="M314 1349h916l-44 -228h-316l-174 -893h316l-44 -228h-916l44 228h316l174 893h-316z" />
    <glyph glyph-name="afii10056" unicode="&#x407;" 
d="M314 1349h916l-44 -228h-316l-174 -893h316l-44 -228h-916l44 228h316l174 893h-316zM889 1445l43 219h227l-43 -219h-227zM465 1445l43 219h224l-43 -219h-224z" />
    <glyph glyph-name="afii10057" unicode="&#x408;" 
d="M455 -20q-190 0 -285.5 101.5t-95.5 288.5q0 8 0.5 16t0.5 16l299 43q-3 -118 31 -176t97 -58q73 0 127.5 59t75.5 169l132 679h-301l45 231h595l-175 -903q-21 -107 -68.5 -193.5t-118 -147t-161 -93t-198.5 -32.5z" />
    <glyph glyph-name="afii10058" unicode="&#x409;" 
d="M1191 416q-18 -90 -62 -166.5t-110 -132t-151.5 -86.5t-185.5 -31h-218l221 1135h-136l-177 -708q-25 -101 -58 -183t-79 -139.5t-107 -89t-142 -31.5q-27 0 -50 4.5t-36 12.5l44 227q8 -4 22.5 -5.5t29.5 -1.5q23 0 45 12.5t42.5 41.5t40 78.5t38.5 122.5l220 873h566
l-103 -531h13q78 0 141 -21t107.5 -61t69 -97.5t24.5 -130.5q0 -44 -9 -92zM965 412q3 17 5 32.5t2 29.5q0 76 -40.5 114t-106.5 38h-17l-84 -431h23q80 0 138.5 53.5t79.5 163.5z" />
    <glyph glyph-name="afii10059" unicode="&#x40a;" 
d="M1183 416q-19 -97 -65.5 -174t-116.5 -131t-161 -82.5t-199 -28.5h-212l121 620h-227l-121 -620h-230l262 1349h230l-103 -531h227l103 531h230l-103 -531h14q174 0 267.5 -80t93.5 -225q0 -23 -2.5 -47t-7.5 -50zM959 412q3 14 4 26.5t1 25.5q0 71 -43 114t-128 43h-13
l-80 -411h19q103 0 162 53t78 149z" />
    <glyph glyph-name="afii10060" unicode="&#x40b;" 
d="M653 1121l-57 -294q40 21 84 39t90 32t91 22t87 8q125 0 187 -58.5t62 -192.5q0 -38 -5 -82t-15 -95l-97 -500h-254l91 470q8 42 12.5 74.5t4.5 58.5q0 57 -24 80.5t-80 23.5q-63 0 -132.5 -19.5t-139.5 -54.5l-123 -633h-265l218 1121h-275l44 228h846l-44 -228h-306z
" />
    <glyph glyph-name="afii10061" unicode="&#x40c;" 
d="M295 1349h294l-106 -549q27 0 59 12t72 41.5t88.5 78.5t106.5 123l233 294h305l-308 -375q-29 -35 -63 -71t-66.5 -67t-59 -54t-40.5 -32l309 -750h-331l-226 603q-12 -7 -28 -13t-33.5 -10.5t-34 -7t-28.5 -2.5l-111 -570h-294zM667 1429l6 31l299 243h258l-8 -43
l-385 -231h-170z" />
    <glyph glyph-name="uni040D" unicode="&#x40d;" 
d="M797 1425l-295 231l8 43h258l205 -243l-6 -31h-170zM643 0l-188 1010q-5 -72 -12 -138q-3 -28 -6.5 -58t-7 -58.5t-7 -54t-7.5 -45.5l-128 -656h-257l262 1349h337l192 -1037q5 67 12 133q6 57 13.5 119.5t17.5 112.5l130 672h257l-262 -1349h-346z" />
    <glyph glyph-name="afii10062" unicode="&#x40e;" 
d="M699 318q-55 -84 -107 -147t-109 -105.5t-124 -64t-153 -21.5q-31 0 -65.5 4t-66.5 12t-60.5 19t-48.5 25l130 246q34 -18 70.5 -30t80.5 -12q35 0 64.5 10t58.5 33.5t59.5 61t66.5 91.5l11 17l-343 892h307l219 -647l387 647h299zM795 1414q-105 0 -174 15.5t-109.5 44
t-57 69t-16.5 89.5q0 36 6 73h224q-2 -13 -3 -24t-1 -21q0 -36 11 -56.5t32 -31.5t50.5 -14t65.5 -3q42 0 75 4.5t59 19.5t45 45t32 81h224q-15 -64 -43 -118t-80.5 -92t-134.5 -59.5t-205 -21.5z" />
    <glyph glyph-name="afii10145" unicode="&#x40f;" 
d="M302 -425l83 425h-352l262 1349h295l-215 -1105h363l215 1105h295l-262 -1349h-351l-83 -425h-250z" />
    <glyph glyph-name="afii10017" unicode="&#x410;" 
d="M1124 0h-294l-28 330h-456l-156 -330h-295l705 1349h344zM737 1167q-4 -10 -14.5 -35t-24.5 -57t-31 -69.5t-34 -73.5l-182 -380h332l-34 380q-3 36 -5 73.5t-3.5 69.5t-2.5 57t-1 35z" />
    <glyph glyph-name="afii10018" unicode="&#x411;" 
d="M1155 416q-18 -90 -65.5 -166.5t-123 -132t-179.5 -86.5t-234 -31h-520l262 1349h946l-44 -227h-651l-59 -304h257q213 0 317 -81t104 -226q0 -23 -2.5 -46.5t-7.5 -48.5zM856 412q4 19 4 39q0 72 -62 106t-184 34h-171l-70 -361h177q140 0 213.5 43t92.5 139z" />
    <glyph glyph-name="afii10019" unicode="&#x412;" 
d="M1156 385q-20 -103 -72 -176t-125 -119.5t-162 -68t-183 -21.5h-582l262 1349h525q91 0 162.5 -16t121 -48t75.5 -81.5t26 -115.5q0 -18 -2 -37.5t-6 -40.5q-22 -115 -103.5 -193.5t-223.5 -107.5q145 -16 219.5 -81.5t74.5 -174.5q0 -34 -7 -68zM892 970q5 28 5 47
q0 61 -37.5 87t-103.5 26h-209l-62 -319h211q164 0 196 159zM864 410q5 28 5 47q0 38 -14 64t-38 42t-56.5 23t-68.5 7h-250l-72 -374h257q40 0 78 9t69.5 30.5t55 58.5t34.5 93z" />
    <glyph glyph-name="afii10020" unicode="&#x413;" 
d="M1301 1349l-44 -228h-672l-218 -1120h-295l262 1348h967z" />
    <glyph glyph-name="afii10021" unicode="&#x414;" 
d="M964 224h175l-123 -632h-240l79 408h-704l-79 -408h-240l123 632h127q44 50 83 107t75.5 128.5t71.5 160.5t69 204l158 525h643zM719 224l175 901h-191l-96 -334q-49 -172 -109.5 -312.5t-146.5 -254.5h368z" />
    <glyph glyph-name="afii10022" unicode="&#x415;" 
d="M32 0l262 1349h968l-44 -228h-673l-63 -324h612l-44 -228h-612l-67 -341h714l-44 -228h-1009z" />
    <glyph glyph-name="afii10024" unicode="&#x416;" 
d="M398 0l112 578q-4 0 -12.5 3t-17.5 6.5t-17 7.5t-11 7l-296 -602h-256l392 714q-31 41 -53.5 109.5t-30.5 148.5l-38 377h240l27 -314q6 -64 14.5 -109.5t22 -76t32 -47t43.5 -24.5l111 571h223l-111 -571q28 8 53.5 24.5t50.5 46.5t51.5 75.5t56.5 110.5l149 314h240
l-184 -377q-39 -81 -88.5 -149t-95.5 -109l114 -714h-256l-62 602q-4 -2 -14 -6t-20.5 -8t-20 -7t-13.5 -3l-112 -578h-223z" />
    <glyph glyph-name="afii10025" unicode="&#x417;" 
d="M497 -20q-223 0 -350.5 93t-158.5 265l282 93q9 -55 29 -96.5t53 -69.5t79.5 -42.5t109.5 -14.5q60 0 109.5 13.5t86 38.5t60 60t31.5 77q3 18 3 33q0 72 -72.5 107t-224.5 35h-69l44 227h69q151 0 232 46.5t98 134.5q3 18 3 34q0 64 -50.5 101t-139.5 37
q-59 0 -107.5 -17.5t-88 -48t-70.5 -71t-55 -85.5l-256 61q97 184 256.5 281t367.5 97q98 0 179 -21.5t138.5 -60.5t89 -93.5t31.5 -121.5q0 -14 -1 -27.5t-4 -27.5q-12 -64 -42.5 -116t-75 -92.5t-102 -68.5t-123.5 -44q57 -9 105 -29t83 -51.5t54.5 -74t19.5 -95.5
q0 -29 -6 -61q-17 -87 -69 -161.5t-133 -128.5t-186.5 -84.5t-228.5 -30.5z" />
    <glyph glyph-name="afii10026" unicode="&#x418;" 
d="M31 0l262 1349h257l-130 -672q-10 -50 -26 -112.5t-33 -119.5q-19 -66 -40 -133l594 1037h337l-262 -1349h-257l128 656q4 20 10 45.5t13.5 54t16 58.5t16.5 58q19 66 40 138l-580 -1010h-346z" />
    <glyph glyph-name="afii10027" unicode="&#x419;" 
d="M31 0l262 1349h257l-130 -672q-10 -50 -26 -112.5t-33 -119.5q-19 -66 -40 -133l594 1037h337l-262 -1349h-257l128 656q4 20 10 45.5t13.5 54t16 58.5t16.5 58q19 66 40 138l-580 -1010h-346zM785 1414q-105 0 -174 15.5t-109.5 44t-57 69t-16.5 89.5q0 36 6 73h224
q-2 -13 -3 -24t-1 -21q0 -36 11 -56.5t32 -31.5t50.5 -14t65.5 -3q42 0 75 4.5t59 19.5t45 45t32 81h224q-15 -64 -43 -118t-80.5 -92t-134.5 -59.5t-205 -21.5z" />
    <glyph glyph-name="afii10028" unicode="&#x41a;" 
d="M295 1349h294l-106 -549q27 0 59 12t72 41.5t88.5 78.5t106.5 123l233 294h305l-308 -375q-29 -35 -63 -71t-66.5 -67t-59 -54t-40.5 -32l309 -750h-331l-226 603q-12 -7 -28 -13t-33.5 -10.5t-34 -7t-28.5 -2.5l-111 -570h-294z" />
    <glyph glyph-name="afii10029" unicode="&#x41b;" 
d="M922 1105h-209l-123 -378q-47 -144 -89.5 -255t-85 -193.5t-86.5 -139t-93 -91t-104.5 -49.5t-122.5 -15q-27 0 -57 4.5t-43 12.5l48 247q8 -4 23 -5.5t23 -1.5q23 0 45 8.5t44.5 32.5t47.5 66t54.5 109.5t64.5 163t77 225.5l165 503h752l-262 -1349h-284z" />
    <glyph glyph-name="afii10030" unicode="&#x41c;" 
d="M803 0l169 868q10 51 35 151.5t39 149.5q-108 -272 -141 -341l-215 -468h-218l-35 468q-4 61 -8 201l-2 140q-28 -220 -44 -301l-169 -868h-220l262 1349h347l38 -499q2 -33 2 -47q0 -43 -9 -184q16 47 45 125.5t40 104.5l233 500h335l-262 -1349h-222z" />
    <glyph glyph-name="afii10031" unicode="&#x41d;" 
d="M691 0l112 574h-363l-112 -574h-295l262 1349h295l-103 -531h363l103 531h295l-262 -1349h-295z" />
    <glyph glyph-name="afii10032" unicode="&#x41e;" 
d="M1184 679q-67 -345 -241.5 -522t-436.5 -177q-213 0 -322.5 115.5t-109.5 344.5q0 54 6 113.5t19 125.5q67 345 241 518t436 173q212 0 322.5 -113t110.5 -340q0 -54 -6 -113t-19 -125zM885 679q24 123 24 213q0 246 -178 246q-121 0 -204.5 -114.5t-128.5 -344.5
q-24 -121 -24 -213q0 -126 44.5 -190t132.5 -64q121 0 205 118.5t129 348.5z" />
    <glyph glyph-name="afii10033" unicode="&#x41f;" 
d="M691 0l215 1105h-363l-215 -1105h-295l262 1349h953l-262 -1349h-295z" />
    <glyph glyph-name="afii10034" unicode="&#x420;" 
d="M1216 923q-18 -91 -64 -172.5t-120.5 -142.5t-178.5 -96.5t-237 -35.5h-197l-93 -476h-295l262 1349h480q117 0 202.5 -22t141.5 -63.5t83 -101.5t27 -136q0 -24 -3 -50t-8 -53zM918 918q6 30 6 55q0 79 -57.5 113t-170.5 34h-152l-81 -417h160q132 0 203.5 54.5
t91.5 160.5z" />
    <glyph glyph-name="afii10035" unicode="&#x421;" 
d="M407 681q-21 -109 -21 -195q0 -134 51.5 -204t157.5 -70q45 0 85.5 18t76.5 50.5t67.5 77.5t58.5 98l263 -52q-51 -99 -112.5 -177.5t-136 -133t-161.5 -84t-189 -29.5q-122 0 -210 32.5t-144.5 93.5t-83 148t-26.5 195t24 232q33 167 92 295t146 216t203 133t261 45
q104 0 179 -29t125.5 -80.5t78.5 -123t38 -156.5l-285 -66q-4 48 -16.5 89t-34.5 71t-53.5 46.5t-72.5 16.5q-136 0 -226.5 -115.5t-134.5 -341.5z" />
    <glyph glyph-name="afii10036" unicode="&#x422;" 
d="M875 1121l-218 -1121h-295l218 1121h-406l44 228h1107l-44 -228h-406z" />
    <glyph glyph-name="afii10037" unicode="&#x423;" 
d="M699 318q-55 -84 -107 -147t-109 -105.5t-124 -64t-153 -21.5q-31 0 -65.5 4t-66.5 12t-60.5 19t-48.5 25l130 246q34 -18 70.5 -30t80.5 -12q35 0 64.5 10t58.5 33.5t59.5 61t66.5 91.5l11 17l-343 892h307l219 -647l387 647h299z" />
    <glyph glyph-name="afii10038" unicode="&#x424;" 
d="M995 700q5 26 7.5 50t2.5 45q0 51 -13 88t-35 61.5t-52 36t-64 11.5h-19l-116 -595h26q42 0 83.5 20.5t76.5 59.5t62 95t41 128zM389 -11l40 209h-24q-88 0 -158 28t-118.5 78.5t-74 121.5t-25.5 156q0 59 12 122q23 119 75.5 210t127.5 152.5t168.5 93t198.5 31.5h12
l32 168h238l-32 -168h12q90 0 162.5 -23t124 -68.5t79 -112.5t27.5 -156q0 -29 -3 -60.5t-10 -66.5q-21 -110 -73 -202.5t-126 -160t-166.5 -105.5t-196.5 -38h-24l-40 -209h-238zM297 700q-10 -50 -10 -97q0 -99 43 -152.5t112 -53.5h26l116 595h-19q-41 0 -82.5 -17
t-77.5 -53t-64.5 -91t-43.5 -131z" />
    <glyph glyph-name="afii10039" unicode="&#x425;" 
d="M814 0l-207 493l-400 -493h-312l597 711l-294 638h312l180 -430l345 430h310l-552 -638l331 -711h-310z" />
    <glyph glyph-name="afii10040" unicode="&#x426;" 
d="M791 -425l83 425h-841l262 1349h295l-215 -1105h318l215 1105h295l-215 -1105h183l-130 -669h-250z" />
    <glyph glyph-name="afii10041" unicode="&#x427;" 
d="M691 0l95 487q-38 -14 -83 -25.5t-92 -20t-95 -13t-93 -4.5q-73 0 -130.5 17.5t-96.5 54t-59.5 94t-20.5 137.5q0 77 19 172l87 450h284l-83 -429q-13 -65 -13 -118q0 -82 36.5 -120.5t116.5 -38.5q54 0 123.5 6t135.5 27l131 673h295l-262 -1349h-295z" />
    <glyph glyph-name="afii10042" unicode="&#x428;" 
d="M-16 0l262 1349h241l-218 -1125h167l218 1125h235l-218 -1125h167l218 1125h241l-262 -1349h-1051z" />
    <glyph glyph-name="afii10043" unicode="&#x429;" 
d="M-16 0l262 1349h241l-218 -1125h167l218 1125h235l-218 -1125h167l218 1125h241l-222 -1145h88l-123 -629h-222l83 425h-917z" />
    <glyph glyph-name="afii10044" unicode="&#x42a;" 
d="M698 838q116 0 205 -23t149 -66t91 -104t31 -138q0 -20 -2 -40t-6 -41q-18 -90 -69 -168t-133 -135.5t-193 -90t-249 -32.5h-369l218 1121h-256l44 228h551l-99 -511h87zM867 422q2 12 3.5 23t1.5 22q0 72 -54.5 113t-168.5 41h-80l-78 -401h79q125 0 201.5 53t95.5 149z
" />
    <glyph glyph-name="afii10045" unicode="&#x42b;" 
d="M236 1349h250l-103 -531h54q174 0 267.5 -80t93.5 -225q0 -23 -2.5 -47t-7.5 -50q-19 -97 -65.5 -174t-116.5 -131t-161 -82.5t-199 -28.5h-272zM544 412q3 17 5 33.5t2 31.5q0 66 -36 105t-117 39h-53l-80 -411h59q51 0 88 13.5t63.5 39.5t43 63.5t25.5 85.5zM1045 0
h-250l262 1349h250z" />
    <glyph glyph-name="afii10046" unicode="&#x42c;" 
d="M1156 421q-18 -90 -67.5 -167.5t-129 -133.5t-189 -88t-247.5 -32h-491l262 1349h295l-101 -521h218q115 0 201 -22t143.5 -63.5t86 -100.5t28.5 -134q0 -42 -9 -87zM857 417q4 19 4 39q0 145 -245 145h-172l-72 -371h178q140 0 215 49.5t92 137.5z" />
    <glyph glyph-name="afii10047" unicode="&#x42d;" 
d="M461 568l45 228h393q3 38 3 71q0 134 -52 202.5t-157 68.5q-41 0 -79 -16.5t-71.5 -46.5t-61.5 -71t-51 -89l-259 66q43 85 98.5 156.5t126 123t157 80.5t189.5 29q234 0 347 -116t113 -337q0 -54 -6.5 -112.5t-19.5 -123.5q-30 -158 -88 -287t-146 -221t-207 -142.5
t-271 -50.5q-102 0 -178 29.5t-128.5 84t-83.5 133t-43 177.5l283 52q6 -53 20 -98t37 -77.5t56.5 -50.5t78.5 -18q121 0 209.5 91.5t138.5 264.5h-393z" />
    <glyph glyph-name="afii10048" unicode="&#x42e;" 
d="M659.5 1221.5q126.5 148.5 293.5 148.5q136 0 207 -95.5t71 -290.5q0 -65 -8.5 -140.5t-25.5 -162.5q-32 -166 -81.5 -296.5t-115 -220.5t-145 -137t-172.5 -47q-138 0 -207 103t-69 293q0 96 18 213h-99l-114 -589h-231l262 1349h231l-112 -575h99q72 299 198.5 447.5z
M959 681q42 215 42 330q0 85 -21.5 124t-64.5 39q-37 0 -69 -28t-60.5 -87.5t-54.5 -153t-52 -224.5q-21 -109 -31 -192t-10 -144q0 -170 82 -170q71 0 130 122.5t109 383.5z" />
    <glyph glyph-name="afii10049" unicode="&#x42f;" 
d="M-104 0l462 581q-49 16 -88.5 41.5t-68 61t-44 81t-15.5 100.5q0 20 1.5 40.5t6.5 43.5q38 194 189 297t415 103h494l-262 -1349h-295l100 515h-173l-390 -515h-332zM445 937q-2 -13 -3.5 -24.5t-1.5 -22.5q0 -72 52.5 -109t167.5 -37h176l73 376h-168q-62 0 -112.5 -9.5
t-88 -31t-61.5 -56.5t-34 -86z" />
    <glyph glyph-name="afii10065" unicode="&#x430;" 
d="M330 -20q-134 0 -206.5 62t-72.5 180q0 39 9 84q19 96 63.5 161.5t108.5 106t144 59t169 19.5l224 4l10 55q5 24 7.5 45t2.5 39q0 69 -31.5 97t-85.5 28q-31 0 -58 -7t-49.5 -24.5t-40.5 -47t-32 -74.5l-290 14q25 71 67 129.5t105 101.5t148.5 66.5t196.5 23.5
q173 0 262.5 -72.5t89.5 -213.5q0 -46 -11 -104l-76 -392q-5 -25 -8 -46.5t-3 -38.5q0 -37 15.5 -56t53.5 -19q32 0 63 6l-29 -152q-26 -6 -47 -11t-41.5 -8t-43.5 -5t-53 -2q-95 0 -137 41.5t-42 122.5q0 10 0.5 20t1.5 21h-6q-38 -50 -78.5 -89.5t-86.5 -67t-98.5 -42
t-114.5 -14.5zM738 501l-134 -2q-45 -1 -85 -6.5t-72.5 -23t-55 -51t-33.5 -90.5q-6 -30 -6 -54q0 -98 96 -98q54 0 100.5 23t83 60.5t61.5 86.5t35 100z" />
    <glyph glyph-name="afii10066" unicode="&#x431;" 
d="M850 501q16 80 16 140q0 55 -12.5 92t-35 59.5t-53.5 32t-69 9.5q-51 0 -98.5 -16.5t-87 -55t-70.5 -102.5t-50 -159q-8 -37 -11 -68.5t-3 -59.5q0 -58 13.5 -96.5t37.5 -61.5t55.5 -33t67.5 -10q52 0 98 15t85 52.5t68.5 101t48.5 160.5zM780 1027q383 0 383 -351
q0 -77 -18 -172q-26 -132 -80.5 -230.5t-135 -164t-185.5 -97.5t-231 -32q-97 0 -174.5 23t-131.5 73t-83 129t-29 192q0 53 6 112t20 127q37 192 97 331t149 235t212 154t286 86q60 11 113.5 19.5t104.5 16t100 13.5t99 11l-46 -235q-91 -9 -185 -20.5t-185 -28.5
q-86 -16 -155 -32.5t-124.5 -40.5t-99 -58t-78 -85t-60.5 -121.5t-48 -167.5q36 71 83 129t106.5 99t131.5 63.5t158 22.5z" />
    <glyph glyph-name="afii10067" unicode="&#x432;" 
d="M739 1082q86 0 162.5 -10t134.5 -35t92 -67.5t34 -107.5q0 -12 -1.5 -24.5t-3.5 -26.5q-10 -52 -37.5 -93t-66.5 -70t-87 -47.5t-99 -27.5l-1 -7q50 -6 92.5 -20.5t73 -38.5t47.5 -58.5t17 -81.5q0 -25 -6 -55q-31 -157 -165.5 -234.5t-353.5 -77.5h-538l210 1082h496z
M349 175h187q66 0 113.5 8t79.5 26t50 46t26 67q2 11 3 21t1 19q0 62 -53.5 87.5t-172.5 25.5h-176zM491 907l-50 -260h168q64 0 108.5 7.5t73 23t44 40.5t22.5 60q3 17 3 31q0 51 -44 74.5t-144 23.5h-181z" />
    <glyph glyph-name="afii10068" unicode="&#x433;" 
d="M1173 1082l-37 -190h-543l-173 -892h-282l210 1082h825z" />
    <glyph glyph-name="afii10069" unicode="&#x434;" 
d="M830 892h-172q-44 -138 -85.5 -249t-80 -197.5t-73 -149.5t-65.5 -106h340zM154 0l-79 -408h-245l116 598h125q39 47 80 114t88.5 170.5t103.5 251t124 356.5h674l-173 -892h146l-116 -598h-245l79 408h-678z" />
    <glyph glyph-name="afii10070" unicode="&#x435;" 
d="M517 -20q-99 0 -179 25t-136.5 75t-87 126.5t-30.5 178.5q0 37 4.5 77t12.5 84q30 155 95.5 261t152 171.5t187.5 94.5t203 29q104 0 179.5 -29.5t124.5 -84t73 -131.5t24 -172q0 -45 -5 -92t-15 -98l-1 -8h-734q-10 -50 -10 -99t11.5 -89.5t35.5 -69.5t60.5 -45
t85.5 -16q37 0 72 8t65.5 23.5t55 40t40.5 57.5l260 -23q-27 -46 -72.5 -98t-112 -95.5t-155.5 -72t-204 -28.5zM701 925q-43 0 -86.5 -14.5t-81 -46t-67 -81.5t-45.5 -120h460q2 15 3 29t1 28q0 102 -51 153.5t-133 51.5z" />
    <glyph glyph-name="afii10072" unicode="&#x436;" 
d="M496 474q-13 0 -22 2.5t-15.5 5.5t-12.5 6.5t-13 6.5l-289 -495h-247l371 581q-7 7 -18 22.5t-22 37.5t-21.5 50t-17.5 60l-72 331h244l40 -237q18 -106 51 -155.5t76 -51.5l86 444h212l-86 -444q43 2 95.5 51.5t111.5 155.5l132 237h244l-200 -331q-20 -33 -41.5 -61
t-41 -49.5t-36 -37t-26.5 -22.5l145 -581h-247l-97 495q-15 -5 -30 -13t-41 -8l-92 -474h-212z" />
    <glyph glyph-name="afii10073" unicode="&#x437;" 
d="M479 -20q-208 0 -313 80.5t-117 227.5l250 44q2 -39 18.5 -69.5t45 -51.5t67 -32t84.5 -11q51 0 93.5 10.5t74.5 29t52 45t26 58.5q3 17 3 31q0 40 -23 65t-65 39.5t-100 19.5t-128 5l34 177q74 0 136.5 6.5t110 23t77 45t38.5 73.5q11 60 -35.5 93.5t-140.5 33.5
q-41 0 -82 -6.5t-76.5 -23t-62.5 -44.5t-41 -70l-232 22q27 75 77 131.5t120 94t158 56.5t191 19q96 0 171 -17t126 -48t77.5 -74.5t26.5 -97.5q0 -11 -1 -22t-3 -22q-11 -56 -38.5 -98.5t-67 -73.5t-89 -51t-103.5 -31v-2q49 -5 92 -21t74.5 -43t50 -64.5t18.5 -84.5
q0 -20 -5 -48q-13 -69 -55 -128.5t-112.5 -103t-170.5 -68t-231 -24.5z" />
    <glyph glyph-name="afii10074" unicode="&#x438;" 
d="M505 1082l-92 -476q-4 -23 -14 -63t-21.5 -83t-22.5 -81.5t-18 -59.5l574 763h285l-210 -1082h-260l105 540q4 19 11.5 49t16.5 62t18.5 62t16.5 50l-561 -763h-300l210 1082h262z" />
    <glyph glyph-name="afii10075" unicode="&#x439;" 
d="M505 1082l-92 -476q-4 -23 -14 -63t-21.5 -83t-22.5 -81.5t-18 -59.5l574 763h285l-210 -1082h-260l105 540q4 19 11.5 49t16.5 62t18.5 62t16.5 50l-561 -763h-300l210 1082h262zM740 1184q-105 0 -174 15.5t-109.5 44t-57 69t-16.5 89.5q0 36 6 73h224q-2 -13 -3 -24
t-1 -21q0 -36 11 -56.5t32 -31.5t50.5 -14t65.5 -3q42 0 75 4.5t59 19.5t45 45t32 81h224q-15 -64 -43 -118t-80.5 -92t-134.5 -59.5t-205 -21.5z" />
    <glyph glyph-name="afii10076" unicode="&#x43a;" 
d="M243 1082h282l-86 -444q52 0 91.5 8.5t74 29.5t69.5 56t78 89l210 261h286l-310 -381q-24 -29 -44.5 -50t-38.5 -36.5t-34.5 -27.5t-32.5 -22l269 -565h-302l-200 470q-26 -8 -67 -16.5t-87 -8.5l-86 -445h-282z" />
    <glyph glyph-name="afii10077" unicode="&#x43b;" 
d="M704 0l173 892h-246q-61 -184 -109 -323t-89.5 -240.5t-80 -168.5t-81 -107t-93 -56.5t-115.5 -16.5q-14 0 -36.5 1t-45.5 3t-42 4.5t-27 4.5l37 191q11 -4 29 -6.5t37 -2.5q29 0 53 12.5t48.5 47.5t52.5 98t65 163.5t85.5 244.5t113.5 341h763l-210 -1082h-282z" />
    <glyph glyph-name="afii10078" unicode="&#x43c;" 
d="M612 0h-193l-57 915q-2 -29 -6 -64.5t-8.5 -70.5t-9.5 -67t-10 -55l-128 -658h-206l210 1082h327l36 -541q1 -15 1.5 -32.5t0.5 -36.5q0 -31 -1 -64t-2.5 -65.5t-3 -63t-3.5 -54.5q11 32 24.5 73.5t28.5 84.5t30.5 84t30.5 74l241 541h321l-210 -1082h-206l128 658
q4 22 12.5 55.5t18 70t19.5 72t18 61.5z" />
    <glyph glyph-name="afii10079" unicode="&#x43d;" 
d="M1196 1082l-210 -1082h-282l90 463h-389l-90 -463h-282l210 1082h282l-83 -428h389l83 428h282z" />
    <glyph glyph-name="afii10080" unicode="&#x43e;" 
d="M1137 542q-24 -124 -75 -227t-130 -177.5t-186.5 -116t-244.5 -41.5q-109 0 -189.5 28.5t-132.5 81t-77.5 127t-25.5 166.5q0 38 4 77.5t12 81.5q24 121 74 223.5t128 177.5t185.5 117t245.5 42q118 0 200 -27.5t133.5 -77.5t74.5 -121t23 -157q0 -42 -5 -85.5t-14 -91.5
zM843 542q10 51 15 94t5 79q0 101 -41 147.5t-130 46.5q-62 0 -110.5 -21.5t-85.5 -66.5t-63.5 -114t-45.5 -165q-18 -94 -18 -164q0 -107 42 -156.5t124 -49.5q62 0 111 21.5t86.5 66.5t64.5 115t46 167z" />
    <glyph glyph-name="afii10081" unicode="&#x43f;" 
d="M1196 1082l-210 -1082h-282l173 892h-389l-173 -892h-282l210 1082h953z" />
    <glyph glyph-name="afii10082" unicode="&#x440;" 
d="M517 1082q1 -7 -0.5 -28t-4 -47t-6.5 -53t-8 -48h4q37 54 80 91.5t88.5 61t92.5 34t93 10.5q75 0 131 -27t92.5 -76t54.5 -117.5t18 -151.5q0 -44 -4.5 -90.5t-14.5 -97.5q-24 -123 -68 -226t-108 -178t-146.5 -117t-183.5 -42q-45 0 -88 10t-79 32.5t-62.5 59
t-40.5 89.5h-2q-2 -10 -5.5 -29.5t-7.5 -44.5t-9 -52t-10 -52l-82 -418h-281l247 1271q16 79 24.5 140.5t13.5 95.5h272zM424 536q-16 -83 -16 -146t13.5 -105t36 -67.5t50.5 -36t56 -10.5q46 0 87.5 21t77 66t64 115.5t47.5 169.5q9 46 13 85.5t4 74.5q0 104 -37.5 156
t-109.5 52q-35 0 -76 -18t-81 -61t-74 -115.5t-55 -180.5z" />
    <glyph glyph-name="afii10083" unicode="&#x441;" 
d="M515 -20q-107 0 -186.5 28t-132 80t-78 125.5t-25.5 164.5q0 37 4 76t12 81q26 135 81.5 240.5t136 178t184 110.5t226.5 38q104 0 180 -27.5t125.5 -75.5t73.5 -113t24 -140v-5l-286 -14q5 83 -33.5 132.5t-126.5 49.5q-113 0 -183 -93t-105 -270q-18 -91 -18 -161
q0 -213 166 -213q80 0 144.5 50.5t96.5 150.5l279 -13q-24 -75 -73 -143.5t-120 -121t-163 -84t-203 -31.5z" />
    <glyph glyph-name="afii10084" unicode="&#x442;" 
d="M215 1082h1008l-37 -190h-363l-173 -892h-282l173 892h-363z" />
    <glyph glyph-name="afii10085" unicode="&#x443;" 
d="M626 -57q-56 -95 -109.5 -164.5t-111 -114.5t-123 -67t-145.5 -22q-44 0 -92 3t-87 10l39 200q10 -2 23 -3t26.5 -2.5t27 -2t23.5 -0.5q41 0 74.5 9t64 30t60 56t60.5 88l27 48l-240 1071h297l88 -527q2 -11 5.5 -37t7 -59.5t7.5 -70.5t7.5 -70.5t6 -59.5t2.5 -37
q5 11 16.5 36.5t26.5 58t32 68.5t32.5 69t28 59.5t18.5 38.5l283 531h294z" />
    <glyph glyph-name="afii10086" unicode="&#x444;" 
d="M288 542q-7 -37 -10.5 -69t-3.5 -61q0 -60 13 -103t35.5 -72.5t52 -47.5t62.5 -27l147 755q-49 -12 -94.5 -37t-84 -69t-69 -110t-48.5 -159zM323 -425l80 409q-82 8 -149.5 37t-116.5 80t-76 123.5t-27 167.5q0 69 15 150q25 128 77.5 226.5t127 168t167.5 110t198 51.5
l75 386h207l-75 -386q85 -9 153.5 -39t116.5 -81t73.5 -122.5t25.5 -163.5q0 -69 -15 -150q-25 -132 -80 -232t-130 -169.5t-167 -108.5t-193 -48l-80 -409h-207zM941 542q15 75 15 133q0 57 -12.5 98t-34.5 70t-52.5 47t-65.5 27l-147 -755q45 11 90 36t85 69.5t72 111.5
t50 163z" />
    <glyph glyph-name="afii10087" unicode="&#x445;" 
d="M769 0l-186 392l-340 -392h-299l515 559l-286 523h303l173 -354l308 354h305l-488 -520l300 -562h-305z" />
    <glyph glyph-name="afii10088" unicode="&#x446;" 
d="M34 0l210 1082h282l-173 -892h357l173 892h282l-173 -892h146l-116 -598h-245l79 408h-822z" />
    <glyph glyph-name="afii10089" unicode="&#x447;" 
d="M496 1082l-75 -386q-2 -12 -3.5 -23t-1.5 -22q0 -48 30 -79.5t103 -31.5q37 0 69.5 3t65 9t65.5 14.5t70 18.5l96 497h281l-210 -1082h-281l81 415q-46 -15 -91.5 -30.5t-95 -27.5t-104 -20t-119.5 -8q-126 0 -190 60.5t-64 169.5q0 40 9 85l85 438h280z" />
    <glyph glyph-name="afii10090" unicode="&#x448;" 
d="M-26 0l210 1082h220l-175 -901h205l175 901h220l-175 -901h206l175 901h220l-210 -1082h-1071z" />
    <glyph glyph-name="afii10091" unicode="&#x449;" 
d="M-26 0l210 1082h220l-175 -901h205l175 901h220l-175 -901h206l175 901h220l-175 -901h69l-114 -589h-213l79 408h-927z" />
    <glyph glyph-name="afii10092" unicode="&#x44a;" 
d="M732 646q208 0 310.5 -57t102.5 -183q0 -17 -1.5 -34.5t-5.5 -37.5q-15 -77 -55.5 -138.5t-107 -105t-158.5 -67t-210 -23.5h-431l173 892h-273l37 190h555l-84 -436h148zM492 173h88q69 0 117.5 11t80 31.5t49 50t24.5 66.5q2 10 3 18.5t1 16.5q0 56 -50 80.5t-166 24.5
h-89z" />
    <glyph glyph-name="afii10093" unicode="&#x44b;" 
d="M414 647q94 0 161 -15t110 -44t63 -73t20 -101q0 -40 -9 -85q-14 -73 -48 -133.5t-91 -104t-138.5 -67.5t-192.5 -24h-295l210 1082h242l-84 -435h52zM270 173h32q58 0 95.5 10t60.5 29.5t35 48.5t19 66q6 29 6 52q0 24 -8 42t-26 29.5t-48 17t-75 5.5h-33zM764 0
l210 1082h261l-210 -1082h-261z" />
    <glyph glyph-name="afii10094" unicode="&#x44c;" 
d="M687 646q209 0 316 -58t107 -185q0 -34 -7 -69q-15 -77 -57 -138.5t-110.5 -105t-162 -67t-211.5 -23.5h-530l210 1082h282l-84 -436h247zM348 173h187q69 0 119 11t83.5 32t52.5 51t26 67q3 18 3 32q0 58 -53.5 82t-171.5 24h-188z" />
    <glyph glyph-name="afii10095" unicode="&#x44d;" 
d="M67 360l285 13q-7 -100 37 -150.5t124 -50.5q58 0 101.5 18.5t76.5 54t55.5 88t38.5 120.5h-309l37 190h309q4 23 5.5 45t1.5 42q0 84 -38 131.5t-130 47.5q-88 0 -145.5 -49.5t-86.5 -132.5l-280 14q29 76 78 142t117.5 114.5t155.5 76.5t192 28q208 0 316.5 -104
t108.5 -300q0 -38 -4.5 -78.5t-12.5 -84.5q-24 -124 -76 -226.5t-130.5 -175.5t-182.5 -113t-233 -40q-106 0 -183.5 28.5t-128.5 77.5t-75.5 113t-24.5 135v13t1 13z" />
    <glyph glyph-name="afii10096" unicode="&#x44e;" 
d="M332 654h133q34 114 82 198t107 139.5t128 83t145 27.5q63 0 115.5 -22t89.5 -67t57.5 -112.5t20.5 -159.5q0 -45 -5 -94.5t-16 -106.5q-27 -139 -73.5 -244t-108.5 -175.5t-137.5 -105.5t-161.5 -35q-140 0 -216 89t-76 261q0 31 2.5 64.5t7.5 68.5h-131l-90 -463h-240
l210 1082h240zM674 540q-14 -72 -20.5 -126t-6.5 -94q0 -45 7.5 -73.5t20 -45t30 -22.5t38.5 -6q30 0 58 14t54.5 54t51 112t46.5 187q15 76 22 132.5t7 98.5q0 41 -6.5 68t-18.5 42.5t-28.5 21.5t-36.5 6q-30 0 -59.5 -14.5t-57 -55t-53 -112.5t-48.5 -187z" />
    <glyph glyph-name="afii10097" unicode="&#x44f;" 
d="M591 435l-357 -435h-307l414 471q-40 10 -73.5 28.5t-58 46.5t-38 65.5t-13.5 85.5q0 32 8 75q15 79 58.5 137.5t112 96.5t161 57t205.5 19h493l-210 -1082h-282l85 435h-198zM882 907h-198q-102 0 -160.5 -36.5t-73.5 -114.5q-2 -10 -3 -19.5t-1 -17.5q0 -112 164 -112
h214z" />
    <glyph glyph-name="uni0450" unicode="&#x450;" 
d="M726 1218l-295 231l8 43h258l205 -243l-6 -31h-170zM517 -20q-99 0 -179 25t-136.5 75t-87 126.5t-30.5 178.5q0 37 4.5 77t12.5 84q30 155 95.5 261t152 171.5t187.5 94.5t203 29q104 0 179.5 -29.5t124.5 -84t73 -131.5t24 -172q0 -45 -5 -92t-15 -98l-1 -8h-734
q-10 -50 -10 -99t11.5 -89.5t35.5 -69.5t60.5 -45t85.5 -16q37 0 72 8t65.5 23.5t55 40t40.5 57.5l260 -23q-27 -46 -72.5 -98t-112 -95.5t-155.5 -72t-204 -28.5zM701 925q-43 0 -86.5 -14.5t-81 -46t-67 -81.5t-45.5 -120h460q2 15 3 29t1 28q0 102 -51 153.5t-133 51.5z
" />
    <glyph glyph-name="afii10071" unicode="&#x451;" 
d="M517 -20q-99 0 -179 25t-136.5 75t-87 126.5t-30.5 178.5q0 37 4.5 77t12.5 84q30 155 95.5 261t152 171.5t187.5 94.5t203 29q104 0 179.5 -29.5t124.5 -84t73 -131.5t24 -172q0 -45 -5 -92t-15 -98l-1 -8h-734q-10 -50 -10 -99t11.5 -89.5t35.5 -69.5t60.5 -45
t85.5 -16q37 0 72 8t65.5 23.5t55 40t40.5 57.5l260 -23q-27 -46 -72.5 -98t-112 -95.5t-155.5 -72t-204 -28.5zM701 925q-43 0 -86.5 -14.5t-81 -46t-67 -81.5t-45.5 -120h460q2 15 3 29t1 28q0 102 -51 153.5t-133 51.5zM845 1219l43 219h227l-43 -219h-227zM421 1219
l43 219h224l-43 -219h-224z" />
    <glyph glyph-name="afii10099" unicode="&#x452;" 
d="M629 -425q-56 0 -97 2.5t-71 6.5l39 198q12 -2 25 -3t25 -1q39 0 65 8t43.5 27t28.5 50t20 77l122 626q8 38 12 72t4 63q0 70 -29.5 110t-104.5 40q-51 0 -97 -22.5t-83.5 -64t-65 -99t-41.5 -126.5l-105 -539h-281l229 1179h-133l33 170h133l26 135h281l-26 -135h300
l-33 -170h-300l-27 -140q-6 -32 -13.5 -64.5t-14.5 -61t-12.5 -51.5t-8.5 -36h4q80 123 177.5 179.5t215.5 56.5q76 0 128 -19.5t84 -55t46 -84.5t14 -109q0 -35 -4 -72t-12 -76l-151 -774q-12 -65 -39 -119t-69 -94t-101 -62t-136 -22z" />
    <glyph glyph-name="afii10100" unicode="&#x453;" 
d="M1173 1082l-37 -190h-543l-173 -892h-282l210 1082h825zM639 1184l6 31l299 243h258l-8 -43l-385 -231h-170z" />
    <glyph glyph-name="afii10101" unicode="&#x454;" 
d="M572 172q80 0 144.5 50.5t96.5 150.5l279 -13q-24 -75 -73 -143.5t-120 -121t-163 -84t-203 -31.5q-107 0 -186.5 28t-132 80t-78 125.5t-25.5 164.5q0 37 4 76t12 81q26 135 81.5 240.5t136 178t184 110.5t226.5 38q104 0 179.5 -27.5t125.5 -75t74 -112.5t24 -140v-6
l-286 -14q5 83 -33.5 132.5t-126.5 49.5q-57 0 -100 -18.5t-75 -53t-53.5 -84t-36.5 -110.5h309l-37 -190h-309q-9 -55 -9 -100q0 -88 39.5 -134.5t131.5 -46.5z" />
    <glyph glyph-name="afii10102" unicode="&#x455;" 
d="M1060 316q-15 -78 -59.5 -140t-115 -105.5t-165 -67t-209.5 -23.5q-103 0 -183 15t-136 49.5t-87.5 89.5t-36.5 136l255 37q3 -45 18.5 -73t43.5 -43t68.5 -20t93.5 -5q48 0 90.5 5.5t75.5 19t55 38t29 61.5q8 42 -11.5 66.5t-59 40t-94.5 27t-118 26.5q-58 14 -114 32
t-99.5 47t-70.5 72t-27 107q0 15 1.5 32t5.5 35q15 77 56.5 137.5t107.5 103t156 65t201 22.5q88 0 161 -16.5t126 -52t83 -90.5t31 -133l-254 -26q0 39 -12.5 64.5t-36.5 40.5t-58 20.5t-76 5.5q-100 0 -155 -25.5t-67 -85.5q-7 -37 9.5 -59t51 -36.5t84 -25t107.5 -25.5
q65 -14 126.5 -32.5t109.5 -49t77 -76.5t29 -115q0 -35 -7 -70z" />
    <glyph glyph-name="afii10103" unicode="&#x456;" 
d="M726 190h353l-37 -190h-1029l37 190h395l136 702h-290l37 190h571zM656 1277l41 207h281l-41 -207h-281z" />
    <glyph glyph-name="afii10104" unicode="&#x457;" 
d="M726 190h353l-37 -190h-1029l37 190h395l136 702h-290l37 190h571zM886 1219l43 219h227l-43 -219h-227zM462 1219l43 219h224l-43 -219h-224z" />
    <glyph glyph-name="afii10105" unicode="&#x458;" 
d="M756 -13q-21 -109 -74.5 -187t-127 -128t-161 -73.5t-176.5 -23.5q-41 0 -81.5 3.5t-77 9.5t-67.5 13.5t-53 16.5l41 210q42 -11 108.5 -22.5t147.5 -11.5q43 0 81.5 8.5t70 32.5t55.5 66t37 109l171 882h-354l37 190h636zM726 1277l40 207h281l-40 -207h-281z" />
    <glyph glyph-name="afii10106" unicode="&#x459;" 
d="M493 892l-127 -450q-41 -145 -77.5 -235t-80 -140.5t-100 -68.5t-138.5 -18q-23 0 -39 3t-33 8l33 170q18 -8 47 -8q28 0 49 12t42 48t43.5 102.5t53.5 175.5l168 591h540l-84 -436h52q94 0 161 -15t110 -44t63 -73t20 -101q0 -40 -9 -85q-14 -73 -48 -133.5t-91 -103.5
t-138.5 -67t-192.5 -24h-295l173 892h-102zM698 173h32q58 0 95.5 10t60 29.5t34.5 48t19 65.5q6 30 6 53q0 24 -8 41.5t-26 29t-48 17t-74 5.5h-33z" />
    <glyph glyph-name="afii10107" unicode="&#x45a;" 
d="M842 646q94 0 161 -15t110 -44t63 -73t20 -101q0 -40 -9 -85q-14 -73 -48 -133.5t-91 -103.5t-138.5 -67t-192.5 -24h-295l92 474h-193l-92 -474h-242l210 1082h242l-84 -436h193l84 435h242l-84 -435h52zM698 173h32q58 0 95.5 10t60 29.5t34.5 48t19 65.5q6 30 6 53
q0 24 -8 41.5t-26 29t-48 17t-74 5.5h-33z" />
    <glyph glyph-name="afii10108" unicode="&#x45b;" 
d="M476 826q80 123 177.5 179.5t215.5 56.5q76 0 128 -19.5t84 -55t46 -84.5t14 -109q0 -35 -4 -72t-12 -76l-126 -646h-280l113 581q15 72 15 128q0 68 -30 105t-106 37q-51 0 -97 -22.5t-83.5 -64t-65 -99t-41.5 -126.5l-105 -539h-281l229 1180h-134l33 169h134l26 135
h281l-26 -135h300l-33 -169h-300l-27 -141q-6 -32 -13.5 -64.5t-14.5 -61t-12.5 -51.5t-8.5 -36h4z" />
    <glyph glyph-name="afii10109" unicode="&#x45c;" 
d="M243 1082h282l-86 -444q52 0 91.5 8.5t74 29.5t69.5 56t78 89l210 261h286l-310 -381q-24 -29 -44.5 -50t-38.5 -36.5t-34.5 -27.5t-32.5 -22l269 -565h-302l-200 470q-26 -8 -67 -16.5t-87 -8.5l-86 -445h-282zM592 1184l6 31l299 243h258l-8 -43l-385 -231h-170z" />
    <glyph glyph-name="uni045D" unicode="&#x45d;" 
d="M715 1218l-295 231l8 43h258l205 -243l-6 -31h-170zM505 1082l-92 -476q-4 -23 -14 -63t-21.5 -83t-22.5 -81.5t-18 -59.5l574 763h285l-210 -1082h-260l105 540q4 19 11.5 49t16.5 62t18.5 62t16.5 50l-561 -763h-300l210 1082h262z" />
    <glyph glyph-name="afii10110" unicode="&#x45e;" 
d="M626 -57q-56 -95 -109.5 -164.5t-111 -114.5t-123 -67t-145.5 -22q-44 0 -92 3t-87 10l39 200q10 -2 23 -3t26.5 -2.5t27 -2t23.5 -0.5q41 0 74.5 9t64 30t60 56t60.5 88l27 48l-240 1071h297l88 -527q2 -11 5.5 -37t7 -59.5t7.5 -70.5t7.5 -70.5t6 -59.5t2.5 -37
q5 11 16.5 36.5t26.5 58t32 68.5t32.5 69t28 59.5t18.5 38.5l283 531h294zM752 1184q-105 0 -174 15.5t-109.5 44t-57 69t-16.5 89.5q0 36 6 73h224q-2 -13 -3 -24t-1 -21q0 -36 11 -56.5t32 -31.5t50.5 -14t65.5 -3q42 0 75 4.5t59 19.5t45 45t32 81h224q-15 -64 -43 -118
t-80.5 -92t-134.5 -59.5t-205 -21.5z" />
    <glyph glyph-name="afii10193" unicode="&#x45f;" 
d="M387 0h-354l210 1082h282l-173 -891h389l173 891h282l-210 -1082h-354l-79 -408h-245z" />
    <glyph glyph-name="afii10050" unicode="&#x490;" 
d="M1050 1349l69 356h250l-113 -584h-651l-218 -1120h-295l262 1348h696z" />
    <glyph glyph-name="afii10098" unicode="&#x491;" 
d="M905 1082l80 408h245l-117 -598h-540l-173 -892h-282l210 1082h577z" />
    <glyph glyph-name="Wgrave" unicode="&#x1e80;" 
d="M913 0h-248l-12 267q-1 19 -3 45t-3.5 55.5t-3 61t-2.5 61.5q-3 70 -6 146q-33 -77 -64 -147q-13 -30 -27 -61.5t-27 -61t-24.5 -55t-20.5 -44.5l-118 -267h-248l51 1349h259l-46 -695q-2 -39 -8.5 -85t-12.5 -87q-7 -48 -15 -94q13 36 30 76q14 35 33 78.5t40 89.5
l165 339h195l33 -339q5 -57 6 -110t1 -88v-46q1 0 7.5 27t16 67t22 86.5t24.5 85.5l219 695h259zM781 1429l-295 231l8 43h258l205 -243l-6 -31h-170z" />
    <glyph glyph-name="wgrave" unicode="&#x1e81;" 
d="M923 0h-244l-51 471q-3 27 -4.5 46t-2.5 32q-1 15 -1 24q-3 -9 -9 -23q-5 -12 -14.5 -32t-25.5 -51l-239 -467h-243l27 1082h228l-35 -607q-3 -48 -8 -107.5t-17 -118.5q8 17 17 36q8 17 17.5 37.5t20.5 40.5l233 454h193l51 -455q2 -20 3.5 -39.5t2.5 -36.5q1 -19 1 -37
q12 60 30 117.5t35 108.5l209 607h226zM692 1184l-295 231l8 43h258l205 -243l-6 -31h-170z" />
    <glyph glyph-name="Wacute" unicode="&#x1e82;" 
d="M913 0h-248l-12 267q-1 19 -3 45t-3.5 55.5t-3 61t-2.5 61.5q-3 70 -6 146q-33 -77 -64 -147q-13 -30 -27 -61.5t-27 -61t-24.5 -55t-20.5 -44.5l-118 -267h-248l51 1349h259l-46 -695q-2 -39 -8.5 -85t-12.5 -87q-7 -48 -15 -94q13 36 30 76q14 35 33 78.5t40 89.5
l165 339h195l33 -339q5 -57 6 -110t1 -88v-46q1 0 7.5 27t16 67t22 86.5t24.5 85.5l219 695h259zM643 1431l6 31l299 243h258l-8 -43l-385 -231h-170z" />
    <glyph glyph-name="wacute" unicode="&#x1e83;" 
d="M923 0h-244l-51 471q-3 27 -4.5 46t-2.5 32q-1 15 -1 24q-3 -9 -9 -23q-5 -12 -14.5 -32t-25.5 -51l-239 -467h-243l27 1082h228l-35 -607q-3 -48 -8 -107.5t-17 -118.5q8 17 17 36q8 17 17.5 37.5t20.5 40.5l233 454h193l51 -455q2 -20 3.5 -39.5t2.5 -36.5q1 -19 1 -37
q12 60 30 117.5t35 108.5l209 607h226zM586 1184l6 31l299 243h258l-8 -43l-385 -231h-170z" />
    <glyph glyph-name="Wdieresis" unicode="&#x1e84;" 
d="M913 0h-248l-12 267q-1 19 -3 45t-3.5 55.5t-3 61t-2.5 61.5q-3 70 -6 146q-33 -77 -64 -147q-13 -30 -27 -61.5t-27 -61t-24.5 -55t-20.5 -44.5l-118 -267h-248l51 1349h259l-46 -695q-2 -39 -8.5 -85t-12.5 -87q-7 -48 -15 -94q13 36 30 76q14 35 33 78.5t40 89.5
l165 339h195l33 -339q5 -57 6 -110t1 -88v-46q1 0 7.5 27t16 67t22 86.5t24.5 85.5l219 695h259zM890 1446l43 219h227l-43 -219h-227zM466 1446l43 219h224l-43 -219h-224z" />
    <glyph glyph-name="wdieresis" unicode="&#x1e85;" 
d="M923 0h-244l-51 471q-3 27 -4.5 46t-2.5 32q-1 15 -1 24q-3 -9 -9 -23q-5 -12 -14.5 -32t-25.5 -51l-239 -467h-243l27 1082h228l-35 -607q-3 -48 -8 -107.5t-17 -118.5q8 17 17 36q8 17 17.5 37.5t20.5 40.5l233 454h193l51 -455q2 -20 3.5 -39.5t2.5 -36.5q1 -19 1 -37
q12 60 30 117.5t35 108.5l209 607h226zM846 1219l43 219h227l-43 -219h-227zM422 1219l43 219h224l-43 -219h-224z" />
    <glyph glyph-name="Ygrave" unicode="&#x1ef2;" 
d="M764 556l-108 -556h-294l108 556l-310 793h309l190 -566l414 566h309zM780 1431l-295 231l8 43h258l205 -243l-6 -31h-170z" />
    <glyph glyph-name="ygrave" unicode="&#x1ef3;" 
d="M626 -57q-56 -95 -109.5 -164.5t-111 -114.5t-123 -67t-145.5 -22q-44 0 -92 3t-87 10l39 200q10 -2 23 -3t26.5 -2.5t27 -2t23.5 -0.5q41 0 74.5 9t64 30t60 56t60.5 88l27 48l-240 1071h297l88 -527q2 -11 5.5 -37t7 -59.5t7.5 -70.5t7.5 -70.5t6 -59.5t2.5 -37
q5 11 16.5 36.5t26.5 58t32 68.5t32.5 69t28 59.5t18.5 38.5l283 531h294zM753 1184l-295 231l8 43h258l205 -243l-6 -31h-170z" />
    <glyph glyph-name="uni2010" unicode="&#x2010;" 
d="M299 409l47 244h580l-47 -244h-580z" />
    <glyph glyph-name="uni2011" unicode="&#x2011;" 
d="M299 409l47 244h580l-47 -244h-580z" />
    <glyph glyph-name="endash" unicode="&#x2013;" 
d="M138 418l40 203h904l-40 -203h-904z" />
    <glyph glyph-name="emdash" unicode="&#x2014;" 
d="M-34 418l40 203h1248l-40 -203h-1248z" />
    <glyph glyph-name="afii00208" unicode="&#x2015;" 
d="M-34 418l40 203h1248l-40 -203h-1248z" />
    <glyph glyph-name="underscoredbl" unicode="&#x2017;" 
d="M-153 -220l19 96h1238l-19 -96h-1238zM-193 -425l19 96h1238l-19 -96h-1238z" />
    <glyph glyph-name="quoteleft" unicode="&#x2018;" 
d="M1044 1484l-289 -622h-325l431 622h183z" />
    <glyph glyph-name="quoteright" unicode="&#x2019;" 
d="M432 862l289 622h325l-431 -622h-183z" />
    <glyph glyph-name="quotesinglbase" unicode="&#x201a;" 
d="M143 -363l290 622h325l-432 -622h-183z" />
    <glyph glyph-name="quotereversed" unicode="&#x201b;" 
d="M742 862l-191 622h325l49 -622h-183z" />
    <glyph glyph-name="quotedblleft" unicode="&#x201c;" 
d="M814 1484l-289 -622h-325l431 622h183zM1273 1484l-289 -622h-325l431 622h183z" />
    <glyph glyph-name="quotedblright" unicode="&#x201d;" 
d="M660 862l289 622h325l-431 -622h-183zM201 862l289 622h325l-431 -622h-183z" />
    <glyph glyph-name="quotedblbase" unicode="&#x201e;" 
d="M421 -364l290 622h325l-432 -622h-183zM-38 -364l290 622h325l-432 -622h-183z" />
    <glyph glyph-name="dagger" unicode="&#x2020;" 
d="M795 960l-250 -1173h-155l206 1173l-348 -27l40 204l336 -29l45 376h255l-101 -376l349 29l-40 -204z" />
    <glyph glyph-name="daggerdbl" unicode="&#x2021;" 
d="M598 980l-345 -27l40 204l334 -29l53 356h215l-85 -356l367 29l-40 -204l-356 27l-93 -345l-40 -342l365 27l-39 -204l-355 29l-53 -356h-215l85 356l-346 -29l39 204l336 -27l92 342z" />
    <glyph glyph-name="bullet" unicode="&#x2022;" 
d="M934 681q-12 -61 -45.5 -114.5t-81.5 -93.5t-106 -63.5t-119 -23.5q-53 0 -97 18t-75.5 50.5t-49 76t-17.5 94.5q0 14 1 28t4 28q12 61 45.5 114.5t80.5 93t104.5 62.5t117.5 23q54 0 98.5 -18t77 -50t50.5 -75t18 -94q0 -27 -6 -56z" />
    <glyph glyph-name="ellipsis" unicode="&#x2026;" 
d="M816 0l59 305h258l-59 -305h-258zM386 0l59 305h256l-59 -305h-256zM-46 0l59 305h258l-59 -305h-258z" />
    <glyph glyph-name="perthousand" unicode="&#x2030;" 
d="M142 429h-160l718 599h162zM405 1411q39 0 72 -9t58 -30.5t39 -58t14 -90.5q0 -46 -12 -108q-16 -84 -45.5 -142t-68 -93t-84 -50.5t-93.5 -15.5q-40 0 -74 10t-58.5 33t-38.5 60t-14 91q0 47 12 107q17 87 46 144t67 91t83.5 47.5t96.5 13.5zM426 1115q12 62 12 96
q0 42 -15 57t-44 15q-19 0 -36 -7.5t-31.5 -26.5t-27 -51.5t-22.5 -82.5q-10 -49 -10 -84q0 -48 17 -66t44 -18q15 0 31 7.5t31 27t28 52t23 81.5zM506 597q39 0 72 -9t58 -30.5t39 -58t14 -90.5q0 -46 -12 -108q-16 -84 -45.5 -142t-68 -93t-84 -50.5t-93.5 -15.5
q-40 0 -74 10t-58.5 33t-38.5 60t-14 91q0 47 12 107q17 87 46 144t67 91t83.5 47.5t96.5 13.5zM527 301q12 62 12 96q0 42 -15 57t-44 15q-19 0 -36 -7.5t-31.5 -26.5t-27 -51.5t-22.5 -82.5q-10 -49 -10 -84q0 -48 17 -66t44 -18q15 0 31 7.5t31 27t28 52t23 81.5z
M1011 597q39 0 72 -9t58 -30.5t39 -58t14 -90.5q0 -46 -12 -108q-16 -84 -45.5 -142t-68 -93t-84 -50.5t-93.5 -15.5q-40 0 -74 10t-58.5 33t-38.5 60t-14 91q0 47 12 107q17 87 46 144t67 91t83.5 47.5t96.5 13.5zM1032 301q12 62 12 96q0 42 -15 57t-44 15q-19 0 -36 -7.5
t-31.5 -26.5t-27 -51.5t-22.5 -82.5q-10 -49 -10 -84q0 -48 17 -66t44 -18q15 0 31 7.5t31 27t28 52t23 81.5z" />
    <glyph glyph-name="minute" unicode="&#x2032;" 
d="M773 844h-199l88 641h273z" />
    <glyph glyph-name="second" unicode="&#x2033;" 
d="M1001 844h-199l88 641h275zM545 844h-199l88 641h273z" />
    <glyph glyph-name="guilsinglleft" unicode="&#x2039;" 
d="M536 141l-187 361l13 71l330 367h236l-7 -37l-326 -366l186 -361l-7 -35h-238z" />
    <glyph glyph-name="guilsinglright" unicode="&#x203a;" 
d="M298 141l7 35l326 361l-182 366l7 37h236l186 -367l-13 -71l-329 -361h-238z" />
    <glyph glyph-name="exclamdbl" unicode="&#x203c;" 
d="M422 426h-230l147 923h294zM77 0l52 270h288l-52 -270h-288zM992 426h-230l147 923h294zM647 0l52 270h288l-52 -270h-288z" />
    <glyph glyph-name="uni203E" unicode="&#x203e;" 
d="M172 1452l19 96h1238l-19 -96h-1238z" />
    <glyph glyph-name="uni2215" unicode="&#x2044;" 
d="M224 0h-162l1000 1349h161z" />
    <glyph glyph-name="uni2215" unicode="&#x2215;" 
d="M224 0h-162l1000 1349h161z" />
    <glyph glyph-name="uni207F" unicode="&#x207f;" 
d="M746 519l75 384q4 22 6 40t2 33q0 45 -20 63t-65 18q-62 0 -108 -48t-63 -139l-68 -351h-178l99 511q4 20 8 43t7 43t5.5 34.5t2.5 18.5h166q0 -3 -1 -16.5t-3 -30.5t-4.5 -34.5t-4.5 -29.5h3q41 56 94.5 89.5t137.5 33.5q91 0 135.5 -36.5t44.5 -116.5q0 -17 -2 -36
t-6 -40l-84 -433h-179z" />
    <glyph glyph-name="franc" unicode="&#x20a3;" 
d="M579 1141l-66 -336h637l-40 -208h-637l-37 -190h314l-29 -149h-314l-50 -258h-285l50 258h-140l29 149h140l183 942h955l-40 -208h-670z" />
    </font>
</defs>
</svg>
