<?xml version="1.0" standalone="no"?>
<!DOCTYPE svg PUBLIC "-//W3C//DTD SVG 1.1//EN" "http://www.w3.org/Graphics/SVG/1.1/DTD/svg11.dtd" >
<svg>
<metadata>
Created by FontForge 20110222 at Mon Jun 27 20:33:40 2011
 By Application Server
Copyright 2010 Oracle and/or its affiliates
</metadata>
<defs>
<font id="LiberationSansNarrow-Italic" horiz-adv-x="934" >
  <font-face 
    font-family="Liberation Sans Narrow"
    font-weight="400"
    font-style="italic"
    font-stretch="condensed"
    units-per-em="2048"
    panose-1="2 11 6 6 2 2 2 10 2 4"
    ascent="1638"
    descent="-410"
    x-height="1082"
    cap-height="1409"
    bbox="-458 -621 2048 2077"
    underline-thickness="150"
    underline-position="-142"
    slope="-12"
    unicode-range="U+0020-F005"
  />
<missing-glyph horiz-adv-x="467" 
d="M42 0v1365h340v-1365h-340zM85 68h255v1229h-255v-1229z" />
    <glyph glyph-name=".notdef" horiz-adv-x="467" 
d="M42 0v1365h340v-1365h-340zM85 68h255v1229h-255v-1229z" />
    <glyph glyph-name="glyph1" horiz-adv-x="0" 
 />
    <glyph glyph-name="glyph2" horiz-adv-x="467" 
 />
    <glyph glyph-name="space" unicode=" " horiz-adv-x="467" 
 />
    <glyph glyph-name="space" unicode="&#xa0;" horiz-adv-x="467" 
 />
    <glyph glyph-name="exclam" unicode="!" horiz-adv-x="467" 
d="M270 397h-121l141 1012h161zM63 0l33 201h159l-33 -201h-159z" />
    <glyph glyph-name="quotedbl" unicode="&#x22;" horiz-adv-x="596" 
d="M571 966h-116l52 443h151zM269 966h-116l52 443h151z" />
    <glyph glyph-name="numbersign" unicode="#" 
d="M759 885l-64 -369h214v-108h-232l-73 -408h-90l71 408h-298l-69 -408h-90l69 408h-165v108h184l64 369h-206v108h224l73 408h91l-72 -408h297l72 408h91l-73 -408h173v-108h-191zM373 885l-65 -369h296l64 369h-295z" />
    <glyph glyph-name="dollar" unicode="$" 
d="M879 425q0 -93 -29 -166.5t-85 -125t-137 -80t-185 -32.5l-26 -161h-93l26 163q-165 14 -251.5 104t-108.5 249l134 37q10 -55 29 -98.5t49 -74t72.5 -48t98.5 -22.5l79 493q-62 21 -117.5 47.5t-97 67t-65.5 98.5t-24 142q0 93 34.5 161.5t92.5 114t134 68t158 23.5
l20 131h94l-23 -137q68 -10 120.5 -35.5t89 -64t59.5 -87t32 -105.5l-127 -45q-18 81 -66 130.5t-130 63.5l-70 -441q58 -19 114 -48t100.5 -72.5t71.5 -104.5t27 -145zM727 413q0 47 -13.5 81t-38 59t-59 44t-76.5 35l-73 -463q60 4 108 19.5t81.5 45t52 73.5t18.5 106z
M298 1018q0 -40 11.5 -69t34.5 -51.5t57 -39.5t76 -33l67 415q-66 -3 -112.5 -21t-76 -47t-43.5 -68.5t-14 -85.5z" />
    <glyph glyph-name="percent" unicode="%" horiz-adv-x="1493" 
d="M348 0h-135l973 1409h136zM447 1421q43 0 81.5 -16t68 -52.5t46 -95.5t16.5 -144q0 -37 -3.5 -83.5t-11.5 -94.5q-20 -126 -56.5 -206t-80 -125.5t-90 -62.5t-84.5 -17q-45 0 -84 18t-68 56.5t-45 98.5t-16 144q0 37 3 82.5t11 91.5q21 131 57 211t79.5 123.5t90 57.5
t86.5 14zM446 1313q-30 0 -59 -11.5t-54.5 -45t-46.5 -93.5t-37 -158q-16 -106 -16 -178q0 -98 27 -144t76 -46q29 0 56.5 12.5t53 46.5t46.5 94t36 155q17 111 17 186q0 96 -25.5 139t-73.5 43zM1208 885q43 0 82 -16t68 -52.5t46 -95.5t17 -144q0 -37 -4 -83.5t-11 -94.5
q-20 -126 -56.5 -206t-80 -125.5t-90 -62.5t-84.5 -17q-45 0 -84 18t-68 56.5t-45.5 98.5t-16.5 144q0 37 3.5 82.5t10.5 91.5q21 131 57.5 211t80 123.5t89.5 57.5t86 14zM1208 777q-30 0 -59 -11.5t-54.5 -45t-47 -93.5t-36.5 -158q-16 -106 -16 -178q0 -98 27 -144
t76 -46q29 0 56 12.5t52.5 46.5t47 94t36.5 155q17 111 17 186q0 96 -25.5 139t-73.5 43z" />
    <glyph glyph-name="ampersand" unicode="&#x26;" horiz-adv-x="1120" 
d="M1023 684q-22 -61 -47.5 -123.5t-54.5 -124t-63 -119.5t-73 -109q33 -38 74 -58.5t79 -20.5q26 0 47 3.5t45 12.5l-11 -135q-25 -11 -48 -16.5t-54 -5.5q-61 0 -117.5 31.5t-105.5 90.5q-67 -60 -149 -95t-184 -35q-87 0 -150 30t-104 81t-60.5 118.5t-19.5 141.5
q0 90 23 157.5t67.5 120t110.5 95t151 82.5q-10 51 -16.5 109t-6.5 121q0 83 22 153t64 120.5t103 79t138 28.5q57 0 104 -19t80.5 -53.5t52 -82.5t18.5 -107q0 -60 -16 -107t-44 -85.5t-66.5 -69.5t-84 -58t-95.5 -51l-102 -50q15 -53 32.5 -104.5t38.5 -103t48 -104
t59 -107.5q33 46 62 97.5t54 106t48 110.5t43 110zM371 111q73 0 133.5 27t112.5 74q-35 53 -65.5 112t-57 119.5t-47.5 120t-35 111.5q-58 -28 -104 -58t-77.5 -67t-48 -84.5t-16.5 -111.5q0 -54 14 -98.5t40.5 -76.5t64.5 -50t86 -18zM485 1041q0 -45 4.5 -90.5
t11.5 -87.5l121 55q57 26 99 58t66.5 73t24.5 99q0 33 -10 60t-27.5 46.5t-42 30.5t-55.5 11q-43 0 -78.5 -16t-60.5 -48t-39 -79.5t-14 -111.5z" />
    <glyph glyph-name="quotesingle" unicode="'" horiz-adv-x="322" 
d="M282 966h-116l52 443h152z" />
    <glyph glyph-name="parenleft" unicode="(" horiz-adv-x="559" 
d="M701 1484q-233 -250 -353.5 -553t-120.5 -669q0 -190 41.5 -362t128.5 -324h-143q-90 152 -132.5 329.5t-42.5 372.5q0 181 30 350t90 321.5t150 287t209 247.5h143z" />
    <glyph glyph-name="parenright" unicode=")" horiz-adv-x="559" 
d="M-163 -424q233 250 353.5 553t120.5 669q0 190 -41.5 362t-128.5 324h143q90 -152 132.5 -329.5t42.5 -372.5q0 -181 -30 -350t-90 -321.5t-150 -287t-209 -247.5h-143z" />
    <glyph glyph-name="asterisk" unicode="*" horiz-adv-x="653" 
d="M445 1114l216 103l37 -132l-231 -73l152 -250l-98 -72l-123 258l-128 -256l-97 72l155 248l-230 73l37 134l219 -107l-10 297h112z" />
    <glyph glyph-name="plus" unicode="+" horiz-adv-x="981" 
d="M575 608v-428h-121v428h-347v146h347v428h121v-428h348v-146h-348z" />
    <glyph glyph-name="comma" unicode="," horiz-adv-x="467" 
d="M245 51q-8 -53 -19 -96.5t-25 -81t-31 -70.5t-39 -65h-101q47 65 78 131t41 131h-72l35 219h160z" />
    <glyph glyph-name="hyphen" unicode="-" horiz-adv-x="559" 
d="M86 464l25 160h410l-25 -160h-410z" />
    <glyph glyph-name="hyphen" unicode="&#xad;" horiz-adv-x="559" 
d="M86 464l25 160h410l-25 -160h-410z" />
    <glyph glyph-name="period" unicode="." horiz-adv-x="467" 
d="M66 0l35 219h160l-35 -219h-160z" />
    <glyph glyph-name="slash" unicode="/" horiz-adv-x="467" 
d="M-95 -20l577 1504h129l-574 -1504h-132z" />
    <glyph glyph-name="zero" unicode="0" 
d="M600 1430q66 0 125 -27.5t102 -84.5t68 -145t25 -209q0 -63 -4.5 -139.5t-18.5 -159.5q-33 -203 -87 -335.5t-121.5 -210t-144.5 -108.5t-154 -31q-68 0 -126 30t-100.5 90t-66.5 151t-24 214q0 33 1 64.5t3.5 64.5t6.5 70t10 81q22 142 55 247.5t72.5 182t85.5 126
t94 78t99 40t100 11.5zM403 127q62 0 114.5 27t96.5 91.5t78.5 171.5t59.5 268q14 85 19.5 157t5.5 131q0 155 -49 233t-138 78q-62 0 -114.5 -27t-96.5 -91.5t-78 -171.5t-60 -268q-14 -85 -19.5 -157t-5.5 -131q0 -155 49 -233t138 -78z" />
    <glyph glyph-name="one" unicode="1" 
d="M43 0l25 153h294l171 1070l-296 -223l29 180l309 229h136l-200 -1256h281l-24 -153h-725z" />
    <glyph glyph-name="two" unicode="2" 
d="M-10 0l20 127q45 93 100.5 166t116.5 132.5t123 108.5l122 94q59 46 110 91t89.5 96t60.5 111.5t22 136.5q0 51 -13.5 91.5t-38.5 69t-60 43.5t-77 15q-89 0 -155.5 -59.5t-97.5 -178.5l-139 37q20 76 53.5 140t82.5 110.5t115 72.5t150 26q73 0 134.5 -25t106 -71.5
t69.5 -111t25 -144.5q0 -85 -24 -157t-65 -133.5t-95 -115.5t-114 -104l-123 -98q-62 -48 -119 -98t-105.5 -103.5t-81.5 -115.5h596l-24 -153h-764z" />
    <glyph glyph-name="three" unicode="3" 
d="M464 795q30 0 64 4t67 14.5t63.5 30.5t53.5 51.5t37 77t14 108.5q0 44 -12 81t-35.5 63.5t-57 41.5t-77.5 15q-98 0 -168 -61t-98 -172l-146 14q48 186 157 276.5t263 90.5q76 0 137 -23.5t104 -68t66 -108t23 -144.5q0 -78 -21 -141.5t-60 -110.5t-95 -76.5t-126 -40.5
v-4q107 -26 167 -104.5t60 -201.5q0 -87 -26 -165t-77 -136t-128.5 -92t-181.5 -34q-93 0 -162 32.5t-116 84.5t-74.5 115.5t-39.5 125.5l135 48q10 -46 31 -91.5t54 -82.5t79 -60t106 -23q61 0 106.5 20.5t76.5 57t47 87t16 110.5t-17.5 104t-48 73t-72.5 43.5t-91 14.5
h-102l25 156h80z" />
    <glyph glyph-name="four" unicode="4" 
d="M694 319l-51 -319h-148l51 319h-535l22 140l671 950h164l-151 -948h154l-23 -142h-154zM677 1157l-491 -696h383z" />
    <glyph glyph-name="five" unicode="5" 
d="M281 1409h657l-24 -153h-522l-94 -447q16 16 38 32t51 29t63.5 21t75.5 8q73 0 134.5 -26.5t106.5 -77t70 -123.5t25 -166q0 -119 -29 -216t-86 -166t-140.5 -106.5t-192.5 -37.5q-87 0 -151 25t-108.5 69t-73 104t-43.5 131l133 43q9 -40 26.5 -80.5t47 -72.5t73.5 -52
t104 -20q64 0 116.5 22t90 67t57.5 112.5t20 157.5q0 67 -17 117t-45 83t-66 49.5t-80 16.5q-79 0 -134 -28.5t-97 -72.5h-145z" />
    <glyph glyph-name="six" unicode="6" 
d="M438 -20q-81 0 -145 36t-108 100.5t-67.5 153.5t-23.5 194q0 55 4.5 121.5t14.5 129.5q30 188 82 323.5t119 222.5t146.5 128t163.5 41q56 0 105 -15.5t89.5 -49.5t70 -86.5t45.5 -127.5l-136 -36q-20 81 -67 125t-114 44q-64 0 -120.5 -35t-103.5 -105t-83 -174.5
t-58 -243.5q49 90 124 137.5t168 47.5q68 0 125.5 -26.5t99.5 -76t66 -119.5t24 -156q0 -111 -29.5 -211t-84.5 -176t-132.5 -121t-174.5 -45zM236 421q0 -61 13.5 -115t40 -94.5t64.5 -63.5t87 -23q58 0 107 30.5t84 84t54.5 126t19.5 156.5q0 115 -49 182.5t-140 67.5
q-44 0 -94 -18.5t-91.5 -60t-68.5 -108.5t-27 -164z" />
    <glyph glyph-name="seven" unicode="7" 
d="M963 1263l-144 -207q-69 -100 -129 -197t-112 -195t-94.5 -202.5t-74.5 -218.5t-52 -243h-154q31 191 90 356t138 316t175 294l203 290h-635l24 153h788z" />
    <glyph glyph-name="eight" unicode="8" 
d="M577 1429q79 0 143 -24t109.5 -68t70 -106.5t24.5 -139.5q0 -69 -18.5 -130t-52.5 -108t-82.5 -78t-108.5 -42l-1 -4q41 -15 75.5 -41t59 -63.5t38 -85.5t13.5 -107q0 -97 -27.5 -179.5t-82 -143t-136.5 -95t-191 -34.5q-93 0 -162 28.5t-114 79.5t-67.5 120.5
t-22.5 151.5q0 97 27.5 166t70 116t95 74t100.5 40v4q-75 38 -116 113.5t-41 178.5q0 87 27.5 157t78 118.5t124.5 75t167 26.5zM540 811q71 0 116 26.5t71 67t35.5 89t9.5 93.5q0 98 -54 152.5t-158 54.5q-50 0 -92.5 -15.5t-74 -47.5t-48.5 -81t-17 -117q0 -40 10.5 -79.5
t35.5 -71t65.5 -51.5t100.5 -20zM464 672q-67 0 -117.5 -23t-83.5 -64.5t-50 -99.5t-17 -129q0 -51 14 -95t42 -76t71.5 -50t102.5 -18q57 0 106 20.5t85.5 60.5t58 99.5t21.5 138.5q0 44 -12.5 86.5t-40 75.5t-72 53.5t-108.5 20.5z" />
    <glyph glyph-name="nine" unicode="9" 
d="M736 684q-51 -94 -120 -148.5t-158 -54.5q-80 0 -140.5 33t-101.5 88t-61.5 127.5t-20.5 151.5q0 113 30 213t86 174.5t134 118t175 43.5q78 0 141 -31t107 -91.5t68.5 -148.5t24.5 -202q0 -27 -2 -61t-4.5 -70.5t-7 -74.5t-9.5 -72q-30 -188 -83 -321t-119.5 -217
t-144.5 -122.5t-159 -38.5q-132 0 -208 72t-106 205l130 45q20 -85 68 -131t123 -46q66 0 121 37t100.5 108.5t79.5 175.5t57 238zM759 1017q0 58 -14 107t-41 84.5t-64 55.5t-84 20q-59 0 -109 -27.5t-86.5 -79t-56.5 -127t-20 -171.5q0 -63 14 -111t39 -80t60.5 -48.5
t78.5 -16.5q41 0 84.5 17t81.5 52t67 88.5t41 126.5q10 61 9 110z" />
    <glyph glyph-name="colon" unicode=":" horiz-adv-x="467" 
d="M206 875l34 207h160l-34 -207h-160zM66 0l34 207h160l-33 -207h-161z" />
    <glyph glyph-name="semicolon" unicode=";" horiz-adv-x="467" 
d="M246 51q-8 -53 -19 -96.5t-25 -81t-31.5 -70.5t-38.5 -65h-101q47 65 78 131t41 131h-72l33 207h160zM218 875l32 207h160l-32 -207h-160z" />
    <glyph glyph-name="semicolon" unicode="&#x37e;" horiz-adv-x="467" 
d="M246 51q-8 -53 -19 -96.5t-25 -81t-31.5 -70.5t-38.5 -65h-101q47 65 78 131t41 131h-72l33 207h160zM218 875l32 207h160l-32 -207h-160z" />
    <glyph glyph-name="less" unicode="&#x3c;" horiz-adv-x="981" 
d="M107 571v205l817 418v-154l-704 -366l704 -367v-153z" />
    <glyph glyph-name="equal" unicode="=" horiz-adv-x="981" 
d="M107 856v148h816v-148h-816zM107 344v148h816v-148h-816z" />
    <glyph glyph-name="greater" unicode="&#x3e;" horiz-adv-x="981" 
d="M107 154v153l704 367l-704 366v154l817 -418v-205z" />
    <glyph glyph-name="question" unicode="?" 
d="M575 1430q83 0 148.5 -27t111 -75t70 -113t24.5 -142q0 -97 -25 -165.5t-64.5 -119t-89.5 -87.5l-99 -72q-34 -24 -66.5 -49.5t-59 -55t-45 -65.5t-25.5 -82h-143q11 78 37.5 134.5t63 99t79.5 74.5l84 61q39 27 75 55.5t64 63.5t44.5 80.5t16.5 106.5q0 48 -15.5 88.5
t-44 69t-68 44.5t-87.5 16q-115 0 -189.5 -70t-105.5 -192l-136 40q22 84 58 154t89.5 120.5t127 79t170.5 28.5zM245 0l32 201h160l-32 -201h-160z" />
    <glyph glyph-name="at" unicode="@" horiz-adv-x="1704" 
d="M1586 755q0 -144 -27.5 -263.5t-76 -205.5t-115.5 -134t-147 -48q-46 0 -78.5 13.5t-52.5 37t-29.5 55.5t-9.5 70q0 15 1 36.5t1 33.5h-5q-20 -45 -48 -89.5t-66 -79t-86 -56t-106 -21.5q-69 0 -120 29t-84.5 80.5t-50 122t-16.5 153.5q0 120 29.5 230.5t83.5 195
t129.5 135.5t169.5 51q49 0 88.5 -13.5t69.5 -37.5t52 -57.5t37 -73.5h5l32 160h127l-95 -506q-16 -84 -23 -144t-7 -109q0 -48 17.5 -71t48.5 -23q51 0 95 40.5t76.5 111.5t51 167t18.5 208q0 129 -34.5 240t-100 192t-163.5 127t-225 46q-110 0 -203 -32t-168.5 -90
t-132.5 -138.5t-95.5 -176.5t-58 -205t-19.5 -225q0 -141 35 -260t102.5 -204.5t167.5 -133.5t229 -48q86 0 160.5 16.5t137 40.5t112 52.5t84.5 52.5l45 -112q-41 -30 -96 -61.5t-123 -57.5t-148.5 -42.5t-171.5 -16.5q-156 0 -277 57.5t-203.5 160.5t-126 245t-43.5 311
q0 139 26 267t74 238t118 200t158 154t192.5 99t222.5 35q165 0 284.5 -59t198 -159t116 -232t37.5 -279zM1089 747q0 50 -14 92t-39.5 72t-62 46.5t-82.5 16.5q-70 0 -123.5 -42.5t-89 -111.5t-54 -155.5t-18.5 -173.5q0 -120 39 -188t120 -68q57 0 106 31t88.5 82
t68 117.5t42.5 136.5q7 36 13 76t6 69z" />
    <glyph glyph-name="A" unicode="A" horiz-adv-x="1120" 
d="M870 0l-62 412h-523l-197 -412h-171l695 1409h178l240 -1409h-160zM714 1034q-7 41 -13 80t-10 71.5t-7 54t-3 25.5q-2 -4 -11 -26l-24 -55l-34 -72l-37 -79l-222 -472h432z" />
    <glyph glyph-name="B" unicode="B" horiz-adv-x="1120" 
d="M275 1409h419q85 0 153 -22t116 -63.5t74 -101.5t26 -135q0 -146 -70.5 -230.5t-207.5 -113.5q58 -12 102.5 -39.5t74.5 -67.5t45 -90t15 -107q0 -83 -18.5 -148t-52.5 -114t-79.5 -82.5t-99 -54.5t-113 -30.5t-119.5 -9.5h-488zM337 810h271q148 0 219.5 65t71.5 193
q0 95 -56 141.5t-163 46.5h-272zM232 153h302q64 0 124 12t106 44t74 88t28 145q0 107 -65.5 163t-187.5 56h-300z" />
    <glyph glyph-name="C" unicode="C" horiz-adv-x="1212" 
d="M1113 337q-40 -73 -90 -138t-114.5 -113.5t-147 -77t-187.5 -28.5q-121 0 -212 46t-150.5 125.5t-89 187t-29.5 230.5q0 124 22 236t63 207.5t100 173t133 131.5t161.5 83.5t186.5 29.5q106 0 185.5 -29.5t136 -77.5t90.5 -110t50 -128l-147 -55q-12 47 -38 90.5
t-65.5 78t-94 55t-125.5 20.5q-120 0 -213.5 -53.5t-158 -148t-98.5 -224t-34 -282.5q0 -94 21.5 -173t63.5 -136.5t105.5 -89.5t146.5 -32q74 0 135.5 24.5t112.5 65t92 93t72 108.5z" />
    <glyph glyph-name="D" unicode="D" horiz-adv-x="1212" 
d="M610 1409q121 0 222 -39.5t173.5 -117.5t112.5 -193.5t40 -267.5q0 -133 -26 -243t-72.5 -198t-110.5 -153.5t-140 -109.5t-162 -65.5t-176 -21.5h-419l223 1409h335zM232 153h233q120 0 219 44t169 126.5t108 201t38 268.5q0 120 -30 207t-82.5 144t-124.5 84.5
t-156 27.5h-198z" />
    <glyph glyph-name="E" unicode="E" horiz-adv-x="1120" 
d="M52 0l223 1409h861l-25 -156h-703l-73 -452h655l-25 -154h-654l-78 -491h737l-25 -156h-893z" />
    <glyph glyph-name="F" unicode="F" horiz-adv-x="1026" 
d="M408 1253l-84 -524h653l-26 -158h-652l-91 -571h-156l224 1409h829l-25 -156h-672z" />
    <glyph glyph-name="G" unicode="G" horiz-adv-x="1307" 
d="M1140 210q-46 -48 -99.5 -90t-118.5 -73t-142.5 -49t-170.5 -18q-133 0 -232 43.5t-164 121.5t-97.5 187t-32.5 241q0 188 48.5 345.5t138.5 271t218 177t287 63.5q107 0 185.5 -27t133.5 -73t89 -106t52 -126l-159 -54q-12 47 -35 88.5t-60 73t-90.5 50t-125.5 18.5
q-126 0 -223 -52.5t-163.5 -146t-100.5 -221t-34 -277.5q0 -97 22 -178t67.5 -139.5t115.5 -91.5t165 -33q75 0 136.5 15t111 37.5t86.5 50.5t62 53l42 254h-346l27 160h489z" />
    <glyph glyph-name="H" unicode="H" horiz-adv-x="1212" 
d="M837 0l104 653h-629l-104 -653h-156l224 1409h157l-95 -596h628l95 596h153l-225 -1409h-152z" />
    <glyph glyph-name="I" unicode="I" horiz-adv-x="467" 
d="M66 0l225 1409h157l-225 -1409h-157z" />
    <glyph glyph-name="J" unicode="J" horiz-adv-x="840" 
d="M313 -20q-130 0 -213 93t-104 270l138 33q19 -117 64.5 -179t127.5 -62q49 0 85.5 22t62.5 62t42.5 96.5t27.5 124.5l129 813h-239l25 156h394l-158 -986q-16 -100 -45 -182t-74.5 -140t-110 -89.5t-152.5 -31.5z" />
    <glyph glyph-name="K" unicode="K" horiz-adv-x="1120" 
d="M838 0l-387 674l-156 -129l-87 -545h-156l223 1409h157l-111 -691l114 129l546 562h200l-614 -630l456 -779h-185z" />
    <glyph glyph-name="L" unicode="L" 
d="M52 0l224 1409h156l-199 -1253h584l-25 -156h-740z" />
    <glyph glyph-name="M" unicode="M" horiz-adv-x="1399" 
d="M1034 0l148 928l17 104l17 97q9 51 19 99q-20 -52 -42 -103l-39 -92q-20 -48 -38 -85l-449 -948h-102l-152 948q-5 30 -11 78l-10 92l-12 110l-14 -111l-14 -98l-13 -91l-148 -928h-139l224 1409h193l155 -977q2 -15 7 -48.5t9 -68.5q5 -40 10 -88l33 84l29 71l24 58
l453 969h210l-224 -1409h-141z" />
    <glyph glyph-name="N" unicode="N" horiz-adv-x="1212" 
d="M809 0l-435 1210q-5 -46 -11 -94l-11 -88q-6 -46 -13 -85l-148 -943h-139l223 1409h174l438 -1215q5 43 10 91l11 91q7 51 16 102l148 931h141l-224 -1409h-180z" />
    <glyph glyph-name="O" unicode="O" horiz-adv-x="1307" 
d="M770 1430q118 0 209 -42.5t153.5 -119.5t95 -183t32.5 -234q-1 -49 -4.5 -101.5t-11.5 -100.5q-25 -154 -83 -277.5t-144 -210.5t-196 -134t-239 -47q-123 0 -215 43.5t-153 122t-92 187.5t-31 240q0 46 3.5 94t12.5 97q25 150 82 273t143 210.5t197 135t241 47.5z
M762 1276q-107 0 -191 -37t-146 -107t-102 -171t-61 -229q-7 -43 -10.5 -86.5t-3.5 -82.5q0 -107 23 -187.5t67 -134t107.5 -80t143.5 -26.5q108 0 192.5 37.5t146 108t102 171t60.5 225.5q7 42 10.5 87t3.5 83q0 107 -24 187.5t-68.5 134t-107.5 80.5t-142 27z" />
    <glyph glyph-name="P" unicode="P" horiz-adv-x="1120" 
d="M699 1409q95 0 170.5 -27t129 -77t82 -122.5t28.5 -162.5q0 -110 -32 -197.5t-92.5 -148t-147 -93t-194.5 -32.5h-348l-87 -549h-156l223 1409h424zM320 700h317q157 0 235 78t78 233q0 65 -18.5 111t-52 76t-80.5 44t-105 14h-286z" />
    <glyph glyph-name="Q" unicode="Q" horiz-adv-x="1307" 
d="M761 1430q118 0 209.5 -42.5t154 -119.5t95 -183t32.5 -234q-1 -49 -4.5 -101.5t-11.5 -100.5q-22 -138 -72 -252.5t-122 -199.5t-165 -138.5t-203 -70.5q7 -66 22 -110.5t37.5 -71.5t52 -38.5t66.5 -11.5q23 0 51.5 4t49.5 9l-15 -134q-31 -11 -65 -16.5t-74 -5.5
q-70 0 -118.5 25.5t-80.5 73t-50 116t-27 155.5q-110 9 -192.5 56.5t-137.5 124.5t-82.5 181.5t-27.5 227.5q0 46 3.5 94t11.5 97q25 150 82.5 273t143 210.5t196.5 135t241 47.5zM754 1276q-107 0 -191 -37t-146 -107t-102 -171t-61 -229q-7 -43 -10.5 -86.5t-3.5 -82.5
q0 -107 23 -187.5t66.5 -134t107 -80t144.5 -26.5q108 0 192 37.5t145.5 108t102.5 171t61 225.5q7 42 10 87t3 83q0 107 -23.5 187.5t-68 134t-107.5 80.5t-142 27z" />
    <glyph glyph-name="R" unicode="R" horiz-adv-x="1212" 
d="M861 0l-199 585h-361l-93 -585h-156l223 1409h502q85 0 155.5 -25.5t121 -73.5t78.5 -116.5t28 -154.5q0 -188 -88.5 -298t-261.5 -139l220 -602h-169zM702 736q148 0 223.5 75.5t75.5 212.5q0 112 -61 172t-182 60h-350l-83 -520h377z" />
    <glyph glyph-name="S" unicode="S" horiz-adv-x="1120" 
d="M505 -20q-107 0 -186.5 23.5t-135.5 69t-89 112t-46 153.5l145 37q11 -62 33.5 -108t61 -76.5t95 -45.5t134.5 -15q80 0 144 13.5t108.5 45t68.5 82t24 125.5q0 51 -14 87t-48.5 64.5t-93 54t-147.5 55.5q-72 24 -135.5 53.5t-111 73t-75.5 105.5t-28 152q0 105 39 178.5
t104 120.5t149 68.5t175 21.5q99 0 173 -22t126 -61.5t83.5 -94.5t43.5 -120l-142 -51q-12 48 -34 86t-56.5 64.5t-82.5 40.5t-112 14q-85 0 -144 -17.5t-95.5 -49t-53 -75t-16.5 -94.5q0 -54 17 -89.5t51.5 -60.5t87.5 -45.5t125 -44.5q71 -24 139 -53t120 -73.5t84 -110.5
t32 -165q0 -206 -127.5 -317t-389.5 -111z" />
    <glyph glyph-name="T" unicode="T" horiz-adv-x="1026" 
d="M704 1253l-200 -1253h-156l200 1253h-397l25 156h949l-24 -156h-397z" />
    <glyph glyph-name="U" unicode="U" horiz-adv-x="1212" 
d="M536 -20q-85 0 -160 27t-131 83t-88 141t-32 200q0 21 2 48.5t4.5 55.5t6 54.5t6.5 45.5l123 774h157l-133 -843q-6 -36 -10 -74.5t-4 -68.5q0 -74 20.5 -128t56.5 -89.5t86 -53t109 -17.5q71 0 132 22t110 70t84 125.5t52 188.5l137 868h156l-139 -879
q-23 -141 -70 -244.5t-117 -171.5t-160 -101t-198 -33z" />
    <glyph glyph-name="V" unicode="V" horiz-adv-x="1120" 
d="M555 0h-162l-248 1409h159l163 -992q6 -45 10.5 -89.5t8.5 -79.5q5 -41 9 -80l34 78l35 80l40 91l476 992h170z" />
    <glyph glyph-name="W" unicode="W" horiz-adv-x="1585" 
d="M1153 0h-183l-58 895q-1 19 -2 43t-2.5 50.5t-2.5 53.5l-2 53l-4 124l-40 -124l-37 -107q-19 -55 -34 -93l-344 -895h-182l-117 1409h162l64 -895q4 -63 7 -124l4 -112q2 -58 3 -110l47 136l21 60l21 60l22 58l19 50l340 877h150l62 -877q2 -22 3.5 -50t2.5 -57.5
t2.5 -60t1.5 -59.5l4 -137q1 0 13 34l29 87l40 113l42 112l347 895h165z" />
    <glyph glyph-name="X" unicode="X" horiz-adv-x="1120" 
d="M819 0l-248 606l-430 -606h-173l536 746l-279 663h164l221 -551l389 551h173l-491 -676l301 -733h-163z" />
    <glyph glyph-name="Y" unicode="Y" horiz-adv-x="1120" 
d="M644 584l-93 -584h-156l94 584l-314 825h160l251 -674l459 674h176z" />
    <glyph glyph-name="Z" unicode="Z" horiz-adv-x="1026" 
d="M887 0h-920l22 143l865 1110h-628l25 156h822l-22 -139l-865 -1114h726z" />
    <glyph glyph-name="bracketleft" unicode="[" horiz-adv-x="467" 
d="M-32 -425l304 1909h334l-21 -129h-191l-264 -1651h192l-21 -129h-333z" />
    <glyph glyph-name="backslash" unicode="\" horiz-adv-x="467" 
d="M263 -20l-143 1504h121l146 -1504h-124z" />
    <glyph glyph-name="bracketright" unicode="]" horiz-adv-x="467" 
d="M-139 -425l21 129h190l264 1651h-192l21 129h334l-304 -1909h-334z" />
    <glyph glyph-name="asciicircum" unicode="^" horiz-adv-x="788" 
d="M670 673l-253 633l-251 -633h-133l302 736h166l303 -736h-134z" />
    <glyph glyph-name="underscore" unicode="_" 
d="M-131 -250v76h966v-76h-966z" />
    <glyph glyph-name="grave" unicode="`" horiz-adv-x="559" 
d="M338 1201l-231 278l4 29h169l132 -287l-2 -20h-72z" />
    <glyph glyph-name="a" unicode="a" 
d="M865 6q-24 -7 -51.5 -11.5t-53.5 -4.5q-76 0 -111 38.5t-35 114.5q0 15 1.5 32.5t2.5 31.5h-5q-29 -53 -59.5 -95t-67.5 -71.5t-83 -45t-107 -15.5q-64 0 -112 25t-80.5 66.5t-49 95.5t-16.5 111q0 81 19 140t52.5 101t78 68.5t95 41.5t104.5 21t106 7l190 3l6 36
q4 25 7 48t3 43q0 91 -43.5 134.5t-120.5 43.5q-40 0 -75 -7.5t-62.5 -27t-48.5 -53t-34 -84.5l-146 29q16 62 43 113.5t71 88.5t107.5 57.5t152.5 20.5q73 0 129.5 -22t95 -61t58.5 -93t20 -119q0 -31 -4.5 -74.5t-10.5 -82.5l-61 -378q-4 -22 -6.5 -45t-2.5 -43
q0 -37 16 -55t50 -18q12 0 25 2t25 5zM663 536l-163 -4q-33 -1 -68 -4t-69 -12.5t-65 -25.5t-54 -43.5t-36.5 -66.5t-13.5 -94q0 -32 9 -62.5t27 -54t44.5 -38t62.5 -14.5q71 0 124.5 30t91 74t59.5 95.5t29 94.5z" />
    <glyph glyph-name="b" unicode="b" 
d="M610 1102q66 0 116.5 -25t85 -71t52.5 -111.5t18 -146.5q0 -50 -3.5 -109.5t-13.5 -122.5q-22 -142 -58 -243.5t-87 -166.5t-116.5 -95.5t-146.5 -30.5q-101 0 -164 52t-90 146h-2q-4 -26 -10 -56l-11 -55q-5 -26 -9 -44.5t-5 -22.5h-142q2 9 6 30l10 52l12 66
q6 36 12 75l201 1261h147l-68 -423q-4 -29 -9 -55t-9 -45l-9 -40h3q30 47 60.5 81t65.5 56.5t75 33t89 10.5zM567 963q-52 0 -99 -19t-87.5 -65.5t-71 -125.5t-49.5 -199q-16 -98 -16 -177q0 -64 14 -113.5t40 -83t62.5 -50.5t80.5 -17q51 0 92 18.5t74 64t58.5 122
t43.5 192.5q19 121 19 206q0 123 -38.5 185t-122.5 62z" />
    <glyph glyph-name="c" unicode="c" horiz-adv-x="840" 
d="M385 122q46 0 82.5 16.5t65.5 46.5t51 72.5t38 94.5l128 -49q-23 -75 -56.5 -134.5t-79 -101.5t-103.5 -64.5t-130 -22.5q-84 0 -146 31t-101.5 86.5t-59 131.5t-19.5 166q0 40 3 87t10 92q18 111 46.5 193t63 140.5t75.5 96.5t84 59.5t87.5 30t88.5 8.5q73 0 128 -23
t94 -65t60.5 -100.5t25.5 -129.5l-145 -25q-2 45 -13.5 82t-32.5 63.5t-51.5 41.5t-70.5 15q-57 0 -102 -20t-80.5 -65t-61 -117.5t-43.5 -177.5q-7 -48 -11 -101t-4 -91q0 -127 42.5 -197t136.5 -70z" />
    <glyph glyph-name="d" unicode="d" 
d="M329 -21q-66 0 -116.5 25t-85 71t-52.5 111.5t-18 146.5q0 45 3.5 107t13.5 125q22 142 58 243.5t87 166.5t116.5 95.5t146.5 30.5q101 0 164.5 -52t89.5 -146h4q2 10 5.5 33t7 48.5t7 48.5t3.5 32l68 419h147l-201 -1261q-7 -39 -12 -75l-9 -66q-4 -30 -6 -52l-4 -30
h-141q0 20 4.5 64t12.5 96h-4q-30 -47 -60.5 -81t-65 -56.5t-74.5 -33t-89 -10.5zM371 118q52 0 99.5 19t88 65.5t71 125.5t49.5 199q16 98 16 177q0 65 -14 114t-40 82.5t-62.5 50.5t-80.5 17q-50 0 -91.5 -18.5t-75 -64t-58.5 -122t-43 -192.5q-19 -121 -19 -206
q0 -123 38 -185t122 -62z" />
    <glyph glyph-name="e" unicode="e" 
d="M210 503q-4 -28 -5.5 -56.5t-1.5 -56.5q0 -133 54.5 -204t163.5 -71q46 0 84 14.5t68.5 39t54 57t39.5 68.5l113 -63q-20 -45 -50 -89.5t-73.5 -80.5t-105 -58.5t-147.5 -22.5q-82 0 -146.5 28.5t-109.5 83t-68 133.5t-23 180q0 158 34.5 287t96.5 220t146 140.5
t183 49.5q90 0 156.5 -29t110.5 -81t66 -124.5t22 -159.5q0 -21 -1.5 -46t-4 -52t-6 -54.5t-8.5 -52.5h-642zM722 641q2 20 2.5 37.5t0.5 34.5q0 66 -15 114.5t-42 80t-64.5 46.5t-83.5 15q-39 0 -82.5 -14.5t-83.5 -51.5t-73 -100.5t-51 -161.5h492z" />
    <glyph glyph-name="f" unicode="f" horiz-adv-x="467" 
d="M356 951l-152 -951h-147l151 951h-124l21 131h125l19 122q10 59 25.5 110t44.5 89t75 59.5t116 21.5q26 0 54 -3t48 -9l-21 -137q-7 2 -16.5 3t-20.5 2.5t-20.5 2t-17.5 0.5q-31 0 -52 -11t-34.5 -32t-21.5 -51.5t-15 -69.5l-15 -97h173l-22 -131h-173z" />
    <glyph glyph-name="g" unicode="g" 
d="M326 -425q-76 0 -133 18.5t-96 51.5t-61.5 79.5t-32.5 102.5l134 42q14 -76 62 -116.5t130 -40.5q59 0 104 18.5t77.5 56.5t54 97.5t34.5 142.5l9 56l9 56l10 62h-1q-23 -40 -49 -78t-59.5 -67t-78 -46.5t-103.5 -17.5q-65 0 -116.5 27.5t-87.5 76t-55.5 116t-19.5 147.5
q0 49 4.5 103.5t14.5 117.5q41 261 139 391t267 130q47 0 89 -13.5t75 -40t57 -64.5t35 -86h2q4 25 10 56t12 59l10 47q5 20 7 23h140q-2 -9 -6 -30l-9 -52q-6 -30 -12 -66l-13 -76l-132 -827q-17 -107 -47.5 -191.5t-80.5 -143.5t-121.5 -90t-171.5 -31zM212 373
q0 -121 43 -184.5t127 -63.5q44 0 89.5 23t86.5 73t73 129t50 191q7 42 10.5 86.5t3.5 76.5q0 67 -15 116.5t-41.5 82.5t-62.5 49t-78 16q-51 0 -92.5 -18.5t-74.5 -63t-57.5 -119t-42.5 -187.5q-9 -59 -14 -113t-5 -94z" />
    <glyph glyph-name="h" unicode="h" 
d="M314 897q28 47 57.5 85t65 64.5t78.5 40.5t98 14q121 0 182.5 -73t61.5 -211q0 -36 -5.5 -81t-11.5 -83l-104 -653h-149l103 645q7 39 11 79.5t4 70.5q0 79 -34.5 123t-112.5 44q-52 0 -98.5 -25.5t-84 -72t-64 -112t-40.5 -146.5l-96 -606h-147l236 1484h148l-62 -386
q-5 -33 -11 -66t-12 -60.5t-10 -47.5t-5 -27h2z" />
    <glyph glyph-name="i" unicode="i" horiz-adv-x="373" 
d="M235 1312l28 172h148l-28 -172h-148zM27 0l172 1082h148l-173 -1082h-147z" />
    <glyph glyph-name="j" unicode="j" horiz-adv-x="373" 
d="M237 1312l27 172h148l-28 -172h-147zM-82 -425q-28 0 -56 4.5t-50 9.5l19 136q11 -2 31.5 -5t36.5 -3q48 0 73 42t39 134l189 1189h148l-195 -1216q-10 -62 -26 -115t-43 -92t-67.5 -61.5t-98.5 -22.5z" />
    <glyph glyph-name="k" unicode="k" horiz-adv-x="840" 
d="M591 0l-219 502l-138 -124l-59 -378h-147l236 1484h148l-147 -917l167 190l296 325h183l-435 -465l275 -617h-160z" />
    <glyph glyph-name="l" unicode="l" horiz-adv-x="373" 
d="M27 0l236 1484h148l-237 -1484h-147z" />
    <glyph glyph-name="m" unicode="m" horiz-adv-x="1399" 
d="M541 0l102 634q3 20 7 44t6.5 48t4.5 45.5t2 36.5q0 75 -31 114.5t-101 39.5q-47 0 -89.5 -25.5t-76 -72t-58 -113t-36.5 -147.5l-96 -604h-147l136 851q6 34 11 71l9 72l8 57q3 24 4 31h139q0 -5 -3 -27l-6 -51l-6 -58q-4 -29 -8 -49h3q25 47 51 85t57 64.5t69.5 40.5
t86.5 14q99 0 157.5 -59.5t69.5 -172.5q26 50 54 92t62 73.5t75.5 49t93.5 17.5q111 0 170.5 -73t59.5 -211q0 -36 -5.5 -81t-11.5 -83l-104 -653h-146l101 634q3 20 7 44t7 48t5 45.5t2 36.5q0 75 -31 114.5t-102 39.5q-47 0 -89 -25t-75.5 -71t-58.5 -112t-36 -147
l-97 -607h-146z" />
    <glyph glyph-name="n" unicode="n" 
d="M588 0l103 645q7 39 11 79.5t4 70.5q0 79 -34.5 123t-112.5 44q-52 0 -98.5 -25.5t-84 -72t-64.5 -112t-40 -146.5l-97 -606h-147l136 851q6 34 11 71l9 72l8 57q3 24 4 31h139q0 -5 -3 -27l-6 -51l-6 -58q-4 -29 -8 -49h3q28 47 57.5 85t65 64.5t78.5 40.5t98 14
q121 0 182.5 -73t61.5 -211q0 -36 -5.5 -81t-11.5 -83l-105 -653h-148z" />
    <glyph glyph-name="o" unicode="o" 
d="M881 683q0 -52 -5 -104.5t-17 -111.5q-25 -132 -68.5 -225t-102.5 -151t-131 -84.5t-154 -26.5q-79 0 -143 29.5t-109.5 86t-70.5 138t-25 185.5q1 47 4.5 97t13.5 104q24 126 65.5 216.5t99 149.5t130 87t158.5 28q87 0 153 -28t111 -82t68 -131.5t23 -176.5zM728 683
q0 77 -14 131t-40.5 88.5t-64 50.5t-84.5 16q-43 0 -87 -12.5t-84 -50.5t-73 -108t-55 -186q-11 -55 -15 -104.5t-4 -91.5q0 -82 15.5 -140t43 -94t64.5 -52.5t82 -16.5q44 0 87 12t81.5 50.5t71 109.5t54.5 188q11 60 15.5 110t6.5 100z" />
    <glyph glyph-name="p" unicode="p" 
d="M454 -20q-101 0 -164.5 52t-89.5 146h-4q0 -2 -1.5 -19.5t-4.5 -43.5l-8 -57q-5 -31 -10 -60l-67 -423h-147l204 1286q7 39 12 75t8.5 65.5t5.5 50.5t3 30h137q0 -8 -1 -26t-3 -40.5t-4.5 -47.5t-5.5 -47h3q30 47 60.5 81t65.5 56.5t75 33t90 10.5q66 0 116.5 -25t85 -71
t52.5 -111.5t18 -146.5q0 -50 -4 -109.5t-13 -122.5q-22 -142 -58.5 -243.5t-87 -166.5t-116.5 -95.5t-147 -30.5zM565 963q-52 0 -99.5 -19t-87.5 -65.5t-71 -125.5t-50 -199q-16 -98 -15 -177q0 -64 14 -113.5t39.5 -83t62 -50.5t81.5 -17q51 0 92 18.5t74 64t58.5 122
t43.5 192.5q19 121 19 206q0 123 -38.5 185t-122.5 62z" />
    <glyph glyph-name="q" unicode="q" 
d="M329 -21q-66 0 -116.5 25t-85 71t-52.5 111.5t-18 146.5q0 45 3.5 107t13.5 125q22 142 58 243.5t87 166.5t116.5 95.5t146.5 30.5q101 0 164.5 -52t89.5 -146h4q4 25 10 55.5t12 57.5l10 50q5 22 9 30h142q-4 -17 -18 -89t-36 -206l-195 -1226h-148l70 439q4 26 8.5 52
t8.5 47q4 25 9 47h-3q-30 -47 -60.5 -81t-65.5 -56.5t-75 -33t-89 -10.5zM371 118q52 0 99.5 19t88 65.5t71 125.5t49.5 199q16 98 16 177q0 65 -14 114t-40 82.5t-62.5 50.5t-80.5 17q-50 0 -91.5 -18.5t-75 -64t-58.5 -122t-43 -192.5q-19 -121 -19 -206q0 -123 38 -185
t122 -62z" />
    <glyph glyph-name="r" unicode="r" horiz-adv-x="559" 
d="M589 938q-14 5 -33.5 9t-40.5 4q-52 0 -94 -37t-73.5 -94t-52 -125.5t-29.5 -130.5l-91 -564h-147l133 830q6 35 11 70l8 68l9 62l7 52h139q-2 -22 -6 -52l-8 -61l-7 -59q-4 -29 -7 -49h3q25 62 50 107.5t52 75t58 44t68 14.5q9 0 19.5 -1.5t21.5 -3.5t21 -4.5t16 -4.5z
" />
    <glyph glyph-name="s" unicode="s" horiz-adv-x="840" 
d="M744 317q0 -85 -28 -148.5t-79 -105.5t-124 -62.5t-164 -20.5q-76 0 -133.5 16t-99 46.5t-69 76t-43.5 104.5l121 56q12 -40 31.5 -71.5t47.5 -53t67 -32.5t91 -11t96 10.5t75.5 33.5t49 59t17.5 87q0 40 -15.5 68.5t-43.5 50t-69 40t-91 37.5q-53 21 -101 46t-84.5 60
t-58 82.5t-21.5 111.5q0 82 29 139.5t78.5 93.5t115.5 52.5t140 16.5q67 0 123 -14t98 -44.5t69 -79t37 -117.5l-134 -25q-18 79 -68 114t-135 35q-43 0 -81.5 -8t-67 -26t-45.5 -47t-17 -70t16 -68.5t44 -48.5t68 -38l89 -35q47 -18 95 -42t86.5 -59.5t63 -86t24.5 -122.5z
" />
    <glyph glyph-name="t" unicode="t" horiz-adv-x="467" 
d="M368 4q-30 -9 -66.5 -16.5t-75.5 -7.5q-70 0 -110 51t-40 135q0 32 4.5 68.5t8.5 61.5l103 655h-103l22 131h104l86 242h99l-39 -242h164l-21 -131h-164l-103 -645q-3 -20 -6.5 -49t-3.5 -46q0 -42 17.5 -65t56.5 -23q21 0 39.5 3.5t42.5 10.5z" />
    <glyph glyph-name="u" unicode="u" 
d="M340 1082l-103 -645q-7 -39 -11 -79.5t-4 -70.5q0 -79 34.5 -123t112.5 -44q52 0 98.5 25.5t84.5 72t64.5 112t39.5 146.5l97 606h147l-136 -851q-6 -34 -11 -71l-9 -72l-8 -57q-3 -24 -4 -31h-139q0 5 3 27l6 51q3 28 7 57.5t7 49.5h-3q-28 -47 -57.5 -85t-65 -64.5
t-78.5 -40.5t-98 -14q-121 0 -182 73t-61 211q0 36 5 81t12 83l104 653h148z" />
    <glyph glyph-name="v" unicode="v" horiz-adv-x="840" 
d="M416 0h-175l-149 1082h153l83 -704l5 -54q3 -31 5.5 -65t4.5 -65.5t4 -52.5l21 53l26 64l28 64l23 54l315 706h160z" />
    <glyph glyph-name="w" unicode="w" horiz-adv-x="1212" 
d="M875 0h-171l-30 698q-1 20 -2 59l-2 79q-1 47 -1 98l-30 -89l-27 -79l-26 -72l-257 -694h-170l-75 1082h145l33 -735q1 -12 2 -39.5t1.5 -58t1.5 -59t1 -41.5q12 36 25 71q11 30 21.5 63t19.5 56l280 743h158l36 -743q2 -54 3.5 -104t1.5 -86q12 36 25 71l24 64l22 63
l274 735h144z" />
    <glyph glyph-name="x" unicode="x" horiz-adv-x="840" 
d="M579 0l-171 444l-312 -444h-163l403 556l-216 526h155l158 -421l287 421h169l-385 -524l231 -558h-156z" />
    <glyph glyph-name="y" unicode="y" horiz-adv-x="840" 
d="M411 0q-45 -95 -87 -173t-88 -134t-99.5 -87t-123.5 -31q-27 0 -55.5 3.5t-52.5 10.5l25 134q14 -3 31.5 -5.5t31.5 -2.5q78 0 137.5 64t117.5 186l22 47l-178 1070h150l92 -598q5 -32 10 -74l11 -84l9 -76q4 -36 4 -54q8 22 22 54l29 66l33 74l32 72l277 620h163z" />
    <glyph glyph-name="z" unicode="z" horiz-adv-x="840" 
d="M-36 0l22 137l654 806h-493l22 139h676l-22 -137l-656 -806h557l-22 -139h-738z" />
    <glyph glyph-name="braceleft" unicode="{" horiz-adv-x="561" 
d="M300 -425q-48 0 -85.5 19t-62.5 52t-37.5 79t-12.5 100q0 12 0.5 27.5t1.5 31.5t2.5 31.5t3.5 26.5l46 287q7 44 7 77q0 83 -38 119.5t-108 40.5l21 127q42 2 77 16t62 42t46 72t29 106l57 362q23 143 85 218t178 75h111l-20 -129h-52q-40 0 -68.5 -13t-48.5 -39
t-33 -66.5t-22 -96.5l-57 -356q-8 -50 -27 -92t-45 -74t-59 -54t-68 -32v-2q57 -17 90 -67t33 -128q0 -27 -5 -59l-50 -319l-4 -31q-2 -17 -3 -33.5t-2.5 -31.5t-1.5 -26q-2 -60 27.5 -95.5t92.5 -35.5h39l-20 -129h-79z" />
    <glyph glyph-name="bar" unicode="|" horiz-adv-x="436" 
d="M175 -454v1938h136v-1938h-136z" />
    <glyph glyph-name="braceright" unicode="}" horiz-adv-x="561" 
d="M253 1484q48 0 85.5 -19t62.5 -52t37.5 -79t12.5 -100q0 -12 -0.5 -27.5t-1.5 -31.5t-2.5 -31.5t-3.5 -26.5l-46 -287q-7 -43 -7 -77q0 -83 38 -119.5t108 -40.5l-21 -127q-42 -2 -77 -16t-62 -42t-46 -72t-29 -106l-57 -362q-23 -143 -85 -218t-179 -75h-110l20 129h52
q40 0 68.5 13t48.5 39t33 66.5t22 96.5l57 356q8 50 27 92t45 74t59 54t68 32v2q-57 17 -90 67t-33 128q0 28 5 59l50 319l4 32q2 16 3 32l2 32q1 15 1 26q2 60 -27 95.5t-92 35.5h-40l21 129h79z" />
    <glyph glyph-name="asciitilde" unicode="~" horiz-adv-x="981" 
d="M717 553q-57 0 -116.5 22t-119.5 48q-106 45 -178 45q-31 0 -57.5 -6t-51 -17.5t-47.5 -27.5t-47 -37v143q41 38 95 61t121 23q34 0 66 -6.5t63.5 -16.5t62.5 -23l61 -26l37 -15q21 -8 42 -15t42 -11t40 -4q57 0 107 25t93 67v-149q-25 -22 -49.5 -37.5t-50 -25
t-53 -13.5t-60.5 -4z" />
    <glyph glyph-name="exclamdown" unicode="&#xa1;" horiz-adv-x="559" 
d="M233 686h121l-141 -1012h-161zM439 1083l-32 -201h-159l32 201h159z" />
    <glyph glyph-name="cent" unicode="&#xa2;" 
d="M506 283q133 29 190 225l128 -49q-94 -308 -341 -323l-27 -167h-102l28 173q-190 35 -238 260q-14 69 -14 129q0 126 15 215.5t41 169.5t58.5 137.5t70.5 96.5q99 100 244 107l24 152h102l-24 -158q162 -29 215 -197q16 -52 19 -114l-145 -25q-7 157 -113 193zM404 285
l132 828q-83 -13 -127 -70q-101 -127 -125 -407q-4 -53 -4 -91q0 -224 124 -260z" />
    <glyph glyph-name="sterling" unicode="&#xa3;" 
d="M882 310q-30 -152 -112.5 -231t-205.5 -79h-574l24 154q80 46 127.5 124.5t67.5 202.5l23 144h-152l20 129h153l45 280q15 92 42.5 165.5t72.5 124.5t108.5 78.5t147.5 27.5q57 0 107.5 -15t89 -44.5t64.5 -72t36 -98.5l-134 -50q-16 64 -62.5 98t-106.5 34
q-93 0 -145 -57.5t-72 -182.5l-46 -288h335l-21 -129h-334l-22 -147q-8 -55 -25.5 -105t-42.5 -92t-56 -74.5t-68 -53.5h380q84 0 137 42.5t75 138.5z" />
    <glyph glyph-name="currency" unicode="&#xa4;" 
d="M135 684q0 71 17 134.5t47 117.5l-82 100l86 103l81 -101q44 39 96 60.5t112 21.5q58 0 110 -21t96 -59l79 97l86 -105l-79 -96q30 -54 48 -117.5t18 -134.5t-18.5 -135t-49.5 -117l82 -100l-83 -105l-83 101q-44 -37 -96 -57.5t-110 -20.5q-59 0 -111.5 21t-95.5 59
l-86 -105l-83 105l83 102q-30 54 -47 117.5t-17 134.5zM262 686q0 -58 18 -109t49.5 -89t73 -60t89.5 -22q47 0 88.5 22t73.5 60t50 89t18 109t-18 109t-50 89.5t-73.5 60.5t-88.5 22q-48 0 -89.5 -22t-73 -60.5t-49.5 -89.5t-18 -109z" />
    <glyph glyph-name="yen" unicode="&#xa5;" 
d="M611 709h263l-20 -125h-314l-24 -154h314l-21 -127h-314l-48 -303h-146l48 303h-312l20 127h313l26 154h-314l20 125h262l-234 700h159l201 -647l410 647h168z" />
    <glyph glyph-name="brokenbar" unicode="&#xa6;" horiz-adv-x="436" 
d="M175 707v778h136v-778h-136zM175 -455v779h136v-779h-136z" />
    <glyph glyph-name="section" unicode="&#xa7;" 
d="M828 673q0 -61 -15.5 -108t-45 -81.5t-71 -58t-92.5 -37.5q47 -36 77.5 -89.5t30.5 -133.5q0 -85 -28 -148.5t-79.5 -105.5t-125 -62.5t-165.5 -20.5q-75 0 -132 16t-98 46.5t-68.5 76t-43.5 104.5l121 56q12 -40 31.5 -71.5t47.5 -53t67 -32.5t91 -11t96 10.5t75.5 33.5
t49 59t17.5 87q0 40 -16 69.5t-44.5 52t-68.5 41t-89 36.5q-53 20 -101.5 48t-85 67t-58 91t-21.5 119q0 61 16.5 108t46.5 81.5t72 58t91 36.5q-49 38 -79.5 92.5t-30.5 132.5q0 82 29 139.5t79 93.5t118 52.5t144 16.5q65 0 119.5 -14t95.5 -44.5t68 -79t37 -117.5
l-134 -25q-18 79 -67 114t-125 35q-48 0 -88.5 -8.5t-70 -27.5t-46 -50t-16.5 -77q0 -36 16.5 -63.5t45 -50t68 -41t85.5 -36.5q47 -18 94.5 -43t87 -62.5t64 -91.5t24.5 -129zM226 688q0 -47 20.5 -81.5t52 -60t72 -44.5t80.5 -34q47 2 89 14t74.5 35.5t51.5 59.5t19 85
q0 48 -20 82.5t-53.5 60t-78.5 44.5t-96 37q-46 -3 -85 -18t-67 -40.5t-43.5 -61t-15.5 -78.5z" />
    <glyph glyph-name="dieresis" unicode="&#xa8;" horiz-adv-x="559" 
d="M427 1219l29 184h142l-29 -184h-142zM112 1219l29 184h143l-28 -184h-144z" />
    <glyph glyph-name="copyright" unicode="&#xa9;" horiz-adv-x="1237" 
d="M1237 707q0 -100 -21.5 -192.5t-60 -173t-92 -146t-119.5 -112.5t-142 -73t-158 -26q-81 0 -156.5 26t-141.5 73t-120.5 112.5t-93 146t-59.5 173t-21 192.5t21 192t59.5 172.5t93 146.5t120.5 113t141 73t157 26q123 0 231 -57t188.5 -155t127 -229.5t46.5 -281.5z
M1162 707q0 130 -41 244t-111.5 199.5t-164 135t-201.5 49.5q-107 0 -200 -49.5t-163 -135t-110.5 -199.5t-40.5 -244q0 -131 40.5 -245.5t110.5 -200t163.5 -134.5t199.5 -49q107 0 201 49t164.5 134.5t111.5 200t41 245.5zM653 279q-83 0 -144 32t-101 89t-59.5 136
t-19.5 173q0 98 19.5 176t59.5 133.5t99.5 85t140.5 29.5q61 0 107 -18t78.5 -47.5t55.5 -67t37 -76.5l-93 -33q-10 26 -25.5 51t-38 44t-52 30.5t-68.5 11.5q-57 0 -97 -23t-66.5 -64.5t-39 -100.5t-12.5 -131t14 -132t41 -103t68 -67t96 -24q40 0 71 13.5t54 36t39 50.5
t27 56l95 -35q-18 -43 -42 -83.5t-57.5 -72t-79.5 -50.5t-107 -19z" />
    <glyph glyph-name="ordfeminine" unicode="&#xaa;" horiz-adv-x="621" 
d="M655 670q-14 -6 -29.5 -9.5t-33.5 -3.5q-30 0 -51 8.5t-34.5 23.5t-20 34.5t-6.5 41.5q0 6 1 19t2 21h-3q-22 -35 -45.5 -63.5t-50.5 -48.5t-59 -31t-70 -11q-44 0 -78 15.5t-57 43t-35 65.5t-12 83q0 78 26 126.5t68 76.5t95.5 39t108.5 12l147 4l10 60q5 30 5 53
q0 53 -28 77.5t-77 24.5q-27 0 -51 -6.5t-43.5 -22.5t-34 -42t-21.5 -64l-108 17q11 49 30.5 89t51.5 69t76 45t102 16q104 0 161 -53.5t57 -145.5q0 -7 -1 -18l-2 -23q-1 -11 -2.5 -22.5t-2.5 -20.5l-44 -275q-5 -31 -4 -53q0 -29 9 -42t30 -13q10 0 19.5 2.5t16.5 5.5z
M503 1024l-114 -4q-35 -1 -69.5 -7.5t-61 -23t-43 -46.5t-16.5 -78q0 -20 5 -38.5t16 -33t28 -23t40 -8.5q38 0 73 17.5t62.5 47t46 67.5t25.5 78z" />
    <glyph glyph-name="guillemotleft" unicode="&#xab;" 
d="M671 141l-219 365l10 63l336 371h129l-4 -37l-337 -372l220 -367l-4 -23h-131zM280 141l-218 365l10 63l335 371h128l-4 -38l-334 -372l217 -367l-4 -22h-130z" />
    <glyph glyph-name="logicalnot" unicode="&#xac;" horiz-adv-x="981" 
d="M779 180v428h-697v146h816v-574h-119z" />
    <glyph glyph-name="registered" unicode="&#xae;" horiz-adv-x="1237" 
d="M1237 707q0 -100 -21.5 -192.5t-60 -173t-92 -146t-119.5 -112.5t-142 -73t-158 -26q-81 0 -156.5 26t-141.5 73t-120.5 112.5t-93 146t-59.5 173t-21 192.5t21 192t59.5 172.5t93 146.5t120.5 113t141 73t157 26q123 0 231 -57t188.5 -155t127 -229.5t46.5 -281.5z
M1162 707q0 130 -41 244t-111.5 199.5t-164 135t-201.5 49.5q-107 0 -200 -49.5t-163 -135t-110.5 -199.5t-40.5 -244q0 -131 40.5 -245.5t110.5 -200t163.5 -134.5t199.5 -49q107 0 201 49t164.5 134.5t111.5 200t41 245.5zM809 289l-163 336h-132v-336h-104v831h252
q116 0 178 -63t62 -174q0 -102 -43 -163.5t-112 -80.5l181 -350h-119zM798 881q0 69 -39 105t-106 36h-139v-301h149q66 0 100.5 42.5t34.5 117.5z" />
    <glyph glyph-name="macron" unicode="&#xaf;" horiz-adv-x="559" 
d="M567 1503h-575v117h575v-117z" />
    <glyph glyph-name="degree" unicode="&#xb0;" horiz-adv-x="819" 
d="M770 1145q0 -59 -22.5 -111t-61.5 -90.5t-91.5 -61t-111.5 -22.5t-111 22.5t-91 61t-62 90.5t-23 111q0 60 23 112t62 90.5t91 60.5t111 22t111.5 -22t91.5 -60.5t61.5 -90.5t22.5 -112zM661 1145q0 38 -13.5 70.5t-37.5 57t-56.5 38.5t-70.5 14q-37 0 -69.5 -14
t-56.5 -38.5t-38 -57t-14 -70.5q0 -37 14 -69.5t38 -57t56.5 -39t69.5 -14.5q38 0 70.5 14.5t56.5 39t37.5 57t13.5 69.5z" />
    <glyph glyph-name="plusminus" unicode="&#xb1;" horiz-adv-x="1124" 
d="M636 680v-395h-147v395h-424v145h424v394h147v-394h424v-145h-424zM65 0v145h995v-145h-995z" />
    <glyph glyph-name="uni00B2" unicode="&#xb2;" horiz-adv-x="559" 
d="M25 563l14 103q24 46 53.5 83.5t62 68.5t66.5 57l67 50l80 58q37 28 66 59t46 67.5t17 82.5q0 51 -28 87t-81 36q-26 0 -50.5 -9t-44.5 -27t-35 -44.5t-21 -60.5l-103 15q11 52 32 95t53 73.5t76 47t98 16.5q52 0 92 -17t67 -46t41.5 -68t14.5 -84q0 -66 -23 -118
t-59.5 -94.5t-82.5 -77.5l-93 -68q-29 -20 -56.5 -41t-52 -42t-43.5 -43.5t-32 -45.5h368l-17 -113h-492z" />
    <glyph glyph-name="uni00B3" unicode="&#xb3;" horiz-adv-x="559" 
d="M272 1049h47q25 0 54 6t53.5 23.5t41 47.5t16.5 78t-27 79.5t-74 31.5q-56 0 -95.5 -35t-55.5 -100l-102 25q15 58 39 99t57.5 67t75 38t89.5 12q47 0 85 -15.5t65 -43t41.5 -64.5t14.5 -80q0 -179 -179 -223v-2q32 -7 56.5 -23.5t42 -39.5t26.5 -52t9 -61
q0 -64 -20.5 -113.5t-56.5 -83.5t-84 -51.5t-104 -17.5q-69 0 -113.5 22t-72 56.5t-40.5 75.5t-18 80l106 16q3 -31 13 -58t27.5 -46.5t43 -30.5t59.5 -11q30 0 57 9.5t47 30t32 51.5t12 74q0 35 -13 58t-32.5 37t-43.5 19.5t-46 5.5h-50z" />
    <glyph glyph-name="acute" unicode="&#xb4;" horiz-adv-x="559" 
d="M143 1201l3 20l207 287h178l-4 -29l-307 -278h-77z" />
    <glyph glyph-name="uni00B5" unicode="&#xb5;" horiz-adv-x="1180" 
d="M-1 -425l293 1507h181l-134 -686q-5 -29 -8 -54t-3 -47q0 -48 11 -81.5t32 -54.5t51 -30.5t68 -9.5q57 0 106.5 25t89 71t67.5 111t42 146l118 610h180l-157 -807q-5 -23 -7 -45.5t-2 -36.5q0 -37 15 -54.5t42 -17.5q11 0 28 3l28 5l-22 -129q-29 -8 -57 -14t-66 -6
q-74 0 -105 48.5t-31 140.5h-2q-65 -95 -141 -142t-168 -47q-62 0 -107 21t-68 58l-94 -484h-180z" />
    <glyph glyph-name="paragraph" unicode="&#xb6;" horiz-adv-x="901" 
d="M776 1307v-1571h-91v1571h-178v-1571h-93v958q-66 0 -120 22.5t-93.5 66.5t-61 111t-21.5 155q0 84 20.5 150.5t59.5 113t95.5 71.5t127.5 25h461v-102h-106z" />
    <glyph glyph-name="periodcentered" unicode="&#xb7;" horiz-adv-x="559" 
d="M162 446l42 220h192l-42 -220h-192z" />
    <glyph glyph-name="periodcentered" unicode="&#x2219;" horiz-adv-x="559" 
d="M162 446l42 220h192l-42 -220h-192z" />
    <glyph glyph-name="cedilla" unicode="&#xb8;" horiz-adv-x="559" 
d="M261 -96q66 -5 99 -41t33 -95q0 -45 -13.5 -81t-43.5 -60.5t-77.5 -38t-113.5 -13.5q-23 0 -45 2t-42 5l17 91q39 -6 73 -6q75 0 105.5 22t30.5 67q0 31 -22.5 51.5t-75.5 20.5h-24q-12 0 -23 -2l82 174h88z" />
    <glyph glyph-name="uni00B9" unicode="&#xb9;" horiz-adv-x="559" 
d="M50 563l16 107h173l97 609l-188 -138l22 131l194 137h101l-118 -739h176l-17 -107h-456z" />
    <glyph glyph-name="ordmasculine" unicode="&#xba;" horiz-adv-x="612" 
d="M330 651q-62 0 -109 21.5t-77.5 61t-45.5 94.5t-15 122q0 29 2.5 62.5t7.5 65.5q15 94 44.5 161t72 110t97 63t118.5 20q63 0 109.5 -21.5t77 -61t46 -94.5t15.5 -122q0 -29 -3 -62.5t-8 -65.5q-15 -94 -44.5 -161t-72 -110t-96.5 -63t-119 -20zM420 1325
q-34 0 -64.5 -9.5t-56.5 -36.5t-46.5 -75t-34.5 -125q-8 -42 -11.5 -76t-3.5 -65q0 -49 9.5 -83.5t26.5 -56t41 -31t54 -9.5q35 0 65.5 10t57 38t47 78t35.5 129q7 42 11.5 77t4.5 64q0 94 -35.5 132.5t-99.5 38.5z" />
    <glyph glyph-name="guillemotright" unicode="&#xbb;" 
d="M525 141h-130l6 39l336 367l-216 372l3 21h128l218 -371l-10 -63zM135 141h-131l6 39l336 367l-216 372l3 21h129l216 -371l-10 -63z" />
    <glyph glyph-name="onequarter" unicode="&#xbc;" horiz-adv-x="1401" 
d="M85 563l16 107h173l97 609l-188 -138l22 131l194 137h101l-118 -739h176l-17 -107h-456zM499 0h-126l945 1409h127zM1333 179l-28 -178h-108l29 178h-332l17 111l397 557h132l-89 -555h103l-18 -113h-103zM1313 714q-7 -13 -19 -32l-26 -38l-24 -36q-12 -18 -20 -29
l-201 -287h221l46 289q2 14 5 33t7 38l6 36q3 17 5 26z" />
    <glyph glyph-name="onehalf" unicode="&#xbd;" horiz-adv-x="1401" 
d="M36 563l16 107h173l97 609l-188 -138l22 131l194 137h101l-118 -739h176l-17 -107h-456zM449 0h-126l945 1409h127zM932 1l14 103q24 46 53.5 83.5t62 68.5t66.5 57l67 50l80 58q37 28 66 59t46 67.5t17 82.5q0 51 -28 87t-81 36q-26 0 -50.5 -9t-44.5 -27t-35 -44.5
t-21 -60.5l-103 15q11 52 32 95t53 73.5t76 47t98 16.5q52 0 92 -17t67 -46t41.5 -68t14.5 -84q0 -66 -23 -118t-59.5 -94.5t-82.5 -77.5l-93 -68q-29 -20 -56.5 -41t-52 -42t-43.5 -43.5t-32 -45.5h368l-17 -113h-492z" />
    <glyph glyph-name="threequarters" unicode="&#xbe;" horiz-adv-x="1401" 
d="M355 1049h47q25 0 54 6t53.5 23.5t41 47.5t16.5 78t-27 79.5t-74 31.5q-56 0 -95.5 -35t-55.5 -100l-102 25q15 58 39 99t57.5 67t75 38t89.5 12q47 0 85 -15.5t65 -43t41.5 -64.5t14.5 -80q0 -179 -179 -223v-2q32 -7 56.5 -23.5t42 -39.5t26.5 -52t9 -61
q0 -64 -20.5 -113.5t-56.5 -83.5t-84 -51.5t-104 -17.5q-69 0 -113.5 22t-72 56.5t-40.5 75.5t-18 80l106 16q3 -31 13 -58t27.5 -46.5t43 -30.5t59.5 -11q30 0 57 9.5t47 30t32 51.5t12 74q0 35 -13 58t-32.5 37t-43.5 19.5t-46 5.5h-50zM499 0h-126l945 1409h127z
M1333 179l-28 -178h-108l29 178h-332l17 111l397 557h132l-89 -555h103l-18 -113h-103zM1313 714q-7 -13 -19 -32l-26 -38l-24 -36q-12 -18 -20 -29l-201 -287h221l46 289q2 14 5 33t7 38l6 36q3 17 5 26z" />
    <glyph glyph-name="questiondown" unicode="&#xbf;" horiz-adv-x="1026" 
d="M408 -347q-82 0 -148 27t-111.5 75t-70.5 113t-25 142q0 97 25 165.5t65 119t89 87.5l99 72l67 50q33 25 59 54.5t44.5 65.5t25.5 82h144q-11 -78 -37.5 -134.5t-63 -99t-78.5 -74.5l-85 -61q-39 -27 -75.5 -55.5t-64.5 -63.5t-44 -80t-16 -107q0 -48 15.5 -88.5
t43.5 -69t67.5 -44.5t88.5 -16q115 0 189.5 70t105.5 192l135 -40q-22 -84 -57.5 -154t-89.5 -120.5t-126.5 -79t-170.5 -28.5zM737 1083l-32 -201h-160l32 201h160z" />
    <glyph glyph-name="Agrave" unicode="&#xc0;" horiz-adv-x="1120" 
d="M888 0l-62 412h-523l-197 -412h-171l695 1409h178l240 -1409h-160zM732 1034q-7 41 -13 80t-10 71.5t-7 54t-3 25.5q-2 -4 -11 -26l-24 -55l-34 -72l-37 -79l-222 -472h432zM828 1530l-240 217l4 29h170l142 -226l-3 -20h-73z" />
    <glyph glyph-name="Aacute" unicode="&#xc1;" horiz-adv-x="1120" 
d="M888 0l-62 412h-523l-197 -412h-171l695 1409h178l240 -1409h-160zM732 1034q-7 41 -13 80t-10 71.5t-7 54t-3 25.5q-2 -4 -11 -26l-24 -55l-34 -72l-37 -79l-222 -472h432zM695 1530l2 20l214 226h170l-4 -29l-289 -217h-93z" />
    <glyph glyph-name="Acircumflex" unicode="&#xc2;" horiz-adv-x="1120" 
d="M888 0l-62 412h-523l-197 -412h-171l695 1409h178l240 -1409h-160zM732 1034q-7 41 -13 80t-10 71.5t-7 54t-3 25.5q-2 -4 -11 -26l-24 -55l-34 -72l-37 -79l-222 -472h432zM1042 1550l-3 -20h-78l-157 139h-2l-212 -139h-93l3 20l230 240h167z" />
    <glyph glyph-name="Atilde" unicode="&#xc3;" horiz-adv-x="1120" 
d="M888 0l-62 412h-523l-197 -412h-171l695 1409h178l240 -1409h-160zM732 1034q-7 41 -13 80t-10 71.5t-7 54t-3 25.5q-2 -4 -11 -26l-24 -55l-34 -72l-37 -79l-222 -472h432zM913 1530q-34 0 -65 20t-59.5 44.5t-54.5 44.5t-51 20q-22 0 -39 -9.5t-29.5 -26.5t-22.5 -40.5
t-18 -52.5h-82q11 45 26.5 92.5t39 86.5t57.5 64t83 25q36 0 67 -20t59 -44.5t53.5 -44.5t49.5 -20q22 0 39 10t29.5 27t22.5 40.5t18 51.5h83q-11 -44 -26.5 -91.5t-38.5 -86.5t-57.5 -64.5t-83.5 -25.5z" />
    <glyph glyph-name="Adieresis" unicode="&#xc4;" horiz-adv-x="1120" 
d="M888 0l-62 412h-523l-197 -412h-171l695 1409h178l240 -1409h-160zM732 1034q-7 41 -13 80t-10 71.5t-7 54t-3 25.5q-2 -4 -11 -26l-24 -55l-34 -72l-37 -79l-222 -472h432zM876 1530l29 184h142l-29 -184h-142zM562 1530l28 184h144l-29 -184h-143z" />
    <glyph glyph-name="Aring" unicode="&#xc5;" horiz-adv-x="1120" 
d="M870 0l-62 412h-523l-197 -412h-171l695 1409h178l240 -1409h-160zM714 1034q-7 41 -13 80t-10 71.5t-7 54t-3 25.5q-2 -4 -11 -26l-24 -55l-34 -72l-37 -79l-222 -472h432zM976 1546q0 -50 -15.5 -94t-42.5 -77t-63 -52t-77 -19t-77 19t-63 52t-42.5 77t-15.5 94
t15.5 94t42.5 76.5t63 51.5t77 19t77 -19t63 -51.5t42.5 -76.5t15.5 -94zM888 1546q0 29 -8 53.5t-23 42.5t-35 28t-44 10q-23 0 -43.5 -10t-35 -28t-23.5 -42.5t-9 -53.5q0 -28 9 -53t23.5 -44t35 -29.5t43.5 -10.5q24 0 44 10.5t35 29.5t23 44t8 53z" />
    <glyph glyph-name="AE" unicode="&#xc6;" horiz-adv-x="1679" 
d="M708 0l66 412h-445l-229 -412h-166l786 1409h975l-25 -156h-606l-72 -452h557l-25 -154h-557l-77 -491h639l-25 -156h-796zM909 1262h-124q-1 -3 -9.5 -20.5t-21.5 -42.5l-28 -54l-28 -55l-24 -44q-10 -19 -13 -24l-251 -461h388z" />
    <glyph glyph-name="Ccedilla" unicode="&#xc7;" horiz-adv-x="1212" 
d="M1113 337q-40 -73 -90 -138t-114.5 -113.5t-147 -77t-187.5 -28.5q-121 0 -212 46t-150.5 125.5t-89 187t-29.5 230.5q0 124 22 236t63 207.5t100 173t133 131.5t161.5 83.5t186.5 29.5q106 0 185.5 -29.5t136 -77.5t90.5 -110t50 -128l-147 -55q-12 47 -38 90.5
t-65.5 78t-94 55t-125.5 20.5q-120 0 -213.5 -53.5t-158 -148t-98.5 -224t-34 -282.5q0 -94 21.5 -173t63.5 -136.5t105.5 -89.5t146.5 -32q74 0 135.5 24.5t112.5 65t92 93t72 108.5zM651 -96q66 -5 99 -41t33 -95q0 -45 -13.5 -81t-43.5 -60.5t-77.5 -38t-113.5 -13.5
q-23 0 -45 2t-42 5l17 91q39 -6 73 -6q75 0 105.5 22t30.5 67q0 31 -22.5 51.5t-75.5 20.5h-24q-12 0 -23 -2l82 174h88z" />
    <glyph glyph-name="Egrave" unicode="&#xc8;" horiz-adv-x="1120" 
d="M52 0l223 1409h861l-25 -156h-703l-73 -452h655l-25 -154h-654l-78 -491h737l-25 -156h-893zM822 1530l-240 217l4 29h170l142 -226l-3 -20h-73z" />
    <glyph glyph-name="Eacute" unicode="&#xc9;" horiz-adv-x="1120" 
d="M52 0l223 1409h861l-25 -156h-703l-73 -452h655l-25 -154h-654l-78 -491h737l-25 -156h-893zM679 1530l2 20l214 226h170l-4 -29l-289 -217h-93z" />
    <glyph glyph-name="Ecircumflex" unicode="&#xca;" horiz-adv-x="1120" 
d="M52 0l223 1409h861l-25 -156h-703l-73 -452h655l-25 -154h-654l-78 -491h737l-25 -156h-893zM1051 1550l-3 -20h-78l-157 139h-2l-212 -139h-93l3 20l230 240h167z" />
    <glyph glyph-name="Edieresis" unicode="&#xcb;" horiz-adv-x="1120" 
d="M52 0l223 1409h861l-25 -156h-703l-73 -452h655l-25 -154h-654l-78 -491h737l-25 -156h-893zM863 1530l29 184h142l-29 -184h-142zM549 1530l28 184h144l-29 -184h-143z" />
    <glyph glyph-name="Igrave" unicode="&#xcc;" horiz-adv-x="467" 
d="M66 0l225 1409h157l-225 -1409h-157zM389 1530l-240 217l4 29h170l142 -226l-3 -20h-73z" />
    <glyph glyph-name="Iacute" unicode="&#xcd;" horiz-adv-x="467" 
d="M66 0l225 1409h157l-225 -1409h-157zM317 1530l2 20l214 226h170l-4 -29l-289 -217h-93z" />
    <glyph glyph-name="Icircumflex" unicode="&#xce;" horiz-adv-x="467" 
d="M66 0l225 1409h157l-225 -1409h-157zM639 1550l-3 -20h-78l-157 139h-2l-212 -139h-93l3 20l230 240h167z" />
    <glyph glyph-name="Idieresis" unicode="&#xcf;" horiz-adv-x="467" 
d="M66 0l225 1409h157l-225 -1409h-157zM457 1530l29 184h142l-29 -184h-142zM143 1530l28 184h144l-29 -184h-143z" />
    <glyph glyph-name="Eth" unicode="&#xd0;" horiz-adv-x="1212" 
d="M626 1409q121 0 222 -39.5t173.5 -117.5t112.5 -193.5t40 -267.5q0 -133 -25 -243t-69.5 -198t-107 -153.5t-137.5 -109.5t-159 -65.5t-174 -21.5h-450l102 647h-126l24 154h127l96 608h351zM335 801h333l-25 -154h-332l-79 -494h249q120 0 219 44t169 126.5t108 201
t38 268.5q0 120 -29.5 207t-82 144t-125 84.5t-155.5 27.5h-215z" />
    <glyph glyph-name="Ntilde" unicode="&#xd1;" horiz-adv-x="1212" 
d="M809 0l-435 1210q-5 -46 -11 -94l-11 -88q-6 -46 -13 -85l-148 -943h-139l223 1409h174l438 -1215q5 43 10 91l11 91q7 51 16 102l148 931h141l-224 -1409h-180zM961 1530q-34 0 -65 20t-59.5 44.5t-54.5 44.5t-51 20q-22 0 -39 -9.5t-29.5 -26.5t-22.5 -40.5t-18 -52.5
h-82q11 45 26.5 92.5t39 86.5t57.5 64t83 25q36 0 67 -20t59 -44.5t53.5 -44.5t49.5 -20q22 0 39 10t29.5 27t22.5 40.5t18 51.5h83q-11 -44 -26.5 -91.5t-38.5 -86.5t-57.5 -64.5t-83.5 -25.5z" />
    <glyph glyph-name="Ograve" unicode="&#xd2;" horiz-adv-x="1307" 
d="M770 1430q118 0 209 -42.5t153.5 -119.5t95 -183t32.5 -234q-1 -49 -4.5 -101.5t-11.5 -100.5q-25 -154 -83 -277.5t-144 -210.5t-196 -134t-239 -47q-123 0 -215 43.5t-153 122t-92 187.5t-31 240q0 46 3.5 94t12.5 97q25 150 82 273t143 210.5t197 135t241 47.5z
M762 1276q-107 0 -191 -37t-146 -107t-102 -171t-61 -229q-7 -43 -10.5 -86.5t-3.5 -82.5q0 -107 23 -187.5t67 -134t107.5 -80t143.5 -26.5q108 0 192.5 37.5t146 108t102 171t60.5 225.5q7 42 10.5 87t3.5 83q0 107 -24 187.5t-68.5 134t-107.5 80.5t-142 27zM855 1530
l-240 217l4 29h170l142 -226l-3 -20h-73z" />
    <glyph glyph-name="Oacute" unicode="&#xd3;" horiz-adv-x="1307" 
d="M770 1430q118 0 209 -42.5t153.5 -119.5t95 -183t32.5 -234q-1 -49 -4.5 -101.5t-11.5 -100.5q-25 -154 -83 -277.5t-144 -210.5t-196 -134t-239 -47q-123 0 -215 43.5t-153 122t-92 187.5t-31 240q0 46 3.5 94t12.5 97q25 150 82 273t143 210.5t197 135t241 47.5z
M762 1276q-107 0 -191 -37t-146 -107t-102 -171t-61 -229q-7 -43 -10.5 -86.5t-3.5 -82.5q0 -107 23 -187.5t67 -134t107.5 -80t143.5 -26.5q108 0 192.5 37.5t146 108t102 171t60.5 225.5q7 42 10.5 87t3.5 83q0 107 -24 187.5t-68.5 134t-107.5 80.5t-142 27zM769 1530
l2 20l214 226h170l-4 -29l-289 -217h-93z" />
    <glyph glyph-name="Ocircumflex" unicode="&#xd4;" horiz-adv-x="1307" 
d="M770 1430q118 0 209 -42.5t153.5 -119.5t95 -183t32.5 -234q-1 -49 -4.5 -101.5t-11.5 -100.5q-25 -154 -83 -277.5t-144 -210.5t-196 -134t-239 -47q-123 0 -215 43.5t-153 122t-92 187.5t-31 240q0 46 3.5 94t12.5 97q25 150 82 273t143 210.5t197 135t241 47.5z
M762 1276q-107 0 -191 -37t-146 -107t-102 -171t-61 -229q-7 -43 -10.5 -86.5t-3.5 -82.5q0 -107 23 -187.5t67 -134t107.5 -80t143.5 -26.5q108 0 192.5 37.5t146 108t102 171t60.5 225.5q7 42 10.5 87t3.5 83q0 107 -24 187.5t-68.5 134t-107.5 80.5t-142 27zM1110 1550
l-3 -20h-78l-157 139h-2l-212 -139h-93l3 20l230 240h167z" />
    <glyph glyph-name="Otilde" unicode="&#xd5;" horiz-adv-x="1307" 
d="M770 1430q118 0 209 -42.5t153.5 -119.5t95 -183t32.5 -234q-1 -49 -4.5 -101.5t-11.5 -100.5q-25 -154 -83 -277.5t-144 -210.5t-196 -134t-239 -47q-123 0 -215 43.5t-153 122t-92 187.5t-31 240q0 46 3.5 94t12.5 97q25 150 82 273t143 210.5t197 135t241 47.5z
M762 1276q-107 0 -191 -37t-146 -107t-102 -171t-61 -229q-7 -43 -10.5 -86.5t-3.5 -82.5q0 -107 23 -187.5t67 -134t107.5 -80t143.5 -26.5q108 0 192.5 37.5t146 108t102 171t60.5 225.5q7 42 10.5 87t3.5 83q0 107 -24 187.5t-68.5 134t-107.5 80.5t-142 27zM1012 1530
q-34 0 -65 20t-59.5 44.5t-54.5 44.5t-51 20q-22 0 -39 -9.5t-29.5 -26.5t-22.5 -40.5t-18 -52.5h-82q11 45 26.5 92.5t39 86.5t57.5 64t83 25q36 0 67 -20t59 -44.5t53.5 -44.5t49.5 -20q22 0 39 10t29.5 27t22.5 40.5t18 51.5h83q-11 -44 -26.5 -91.5t-38.5 -86.5
t-57.5 -64.5t-83.5 -25.5z" />
    <glyph glyph-name="Odieresis" unicode="&#xd6;" horiz-adv-x="1307" 
d="M770 1430q118 0 209 -42.5t153.5 -119.5t95 -183t32.5 -234q-1 -49 -4.5 -101.5t-11.5 -100.5q-25 -154 -83 -277.5t-144 -210.5t-196 -134t-239 -47q-123 0 -215 43.5t-153 122t-92 187.5t-31 240q0 46 3.5 94t12.5 97q25 150 82 273t143 210.5t197 135t241 47.5z
M762 1276q-107 0 -191 -37t-146 -107t-102 -171t-61 -229q-7 -43 -10.5 -86.5t-3.5 -82.5q0 -107 23 -187.5t67 -134t107.5 -80t143.5 -26.5q108 0 192.5 37.5t146 108t102 171t60.5 225.5q7 42 10.5 87t3.5 83q0 107 -24 187.5t-68.5 134t-107.5 80.5t-142 27zM934 1530
l29 184h142l-29 -184h-142zM620 1530l28 184h144l-29 -184h-143z" />
    <glyph glyph-name="multiply" unicode="&#xd7;" horiz-adv-x="981" 
d="M141 330l290 354l-288 352l85 103l287 -353l287 351l86 -105l-287 -348l289 -352l-84 -105l-289 353l-292 -355z" />
    <glyph glyph-name="Oslash" unicode="&#xd8;" horiz-adv-x="1307" 
d="M1168 1205q42 -72 63 -161.5t21 -192.5q-1 -49 -4.5 -101.5t-11.5 -100.5q-25 -154 -83.5 -277.5t-144 -210.5t-196 -134t-238.5 -47q-107 0 -189.5 32t-143.5 92l-132 -157h-155l213 254q-43 75 -63.5 168.5t-20.5 203.5q0 46 3.5 94t11.5 97q25 150 82.5 273t143 210.5
t196.5 135t241 47.5q104 0 187 -33t145 -94l137 163h157zM754 1276q-107 0 -191 -37t-146 -107t-102 -171t-61 -229q-7 -43 -10.5 -86.5t-3.5 -82.5q0 -136 37 -231l714 850q-89 94 -237 94zM1095 847q0 133 -37 227l-714 -848q43 -46 102.5 -68.5t134.5 -22.5
q108 0 192 37.5t145.5 108t102.5 171t61 225.5q7 42 10 87t3 83z" />
    <glyph glyph-name="Ugrave" unicode="&#xd9;" horiz-adv-x="1212" 
d="M536 -20q-85 0 -160 27t-131 83t-88 141t-32 200q0 21 2 48.5t4.5 55.5t6 54.5t6.5 45.5l123 774h157l-133 -843q-6 -36 -10 -74.5t-4 -68.5q0 -74 20.5 -128t56.5 -89.5t86 -53t109 -17.5q71 0 132 22t110 70t84 125.5t52 188.5l137 868h156l-139 -879
q-23 -141 -70 -244.5t-117 -171.5t-160 -101t-198 -33zM867 1530l-240 217l4 29h170l142 -226l-3 -20h-73z" />
    <glyph glyph-name="Uacute" unicode="&#xda;" horiz-adv-x="1212" 
d="M536 -20q-85 0 -160 27t-131 83t-88 141t-32 200q0 21 2 48.5t4.5 55.5t6 54.5t6.5 45.5l123 774h157l-133 -843q-6 -36 -10 -74.5t-4 -68.5q0 -74 20.5 -128t56.5 -89.5t86 -53t109 -17.5q71 0 132 22t110 70t84 125.5t52 188.5l137 868h156l-139 -879
q-23 -141 -70 -244.5t-117 -171.5t-160 -101t-198 -33zM728 1530l2 20l214 226h170l-4 -29l-289 -217h-93z" />
    <glyph glyph-name="Ucircumflex" unicode="&#xdb;" horiz-adv-x="1212" 
d="M536 -20q-85 0 -160 27t-131 83t-88 141t-32 200q0 21 2 48.5t4.5 55.5t6 54.5t6.5 45.5l123 774h157l-133 -843q-6 -36 -10 -74.5t-4 -68.5q0 -74 20.5 -128t56.5 -89.5t86 -53t109 -17.5q71 0 132 22t110 70t84 125.5t52 188.5l137 868h156l-139 -879
q-23 -141 -70 -244.5t-117 -171.5t-160 -101t-198 -33zM1094 1550l-3 -20h-78l-157 139h-2l-212 -139h-93l3 20l230 240h167z" />
    <glyph glyph-name="Udieresis" unicode="&#xdc;" horiz-adv-x="1212" 
d="M536 -20q-85 0 -160 27t-131 83t-88 141t-32 200q0 21 2 48.5t4.5 55.5t6 54.5t6.5 45.5l123 774h157l-133 -843q-6 -36 -10 -74.5t-4 -68.5q0 -74 20.5 -128t56.5 -89.5t86 -53t109 -17.5q71 0 132 22t110 70t84 125.5t52 188.5l137 868h156l-139 -879
q-23 -141 -70 -244.5t-117 -171.5t-160 -101t-198 -33zM904 1530l29 184h142l-29 -184h-142zM590 1530l28 184h144l-29 -184h-143z" />
    <glyph glyph-name="Yacute" unicode="&#xdd;" horiz-adv-x="1120" 
d="M644 584l-93 -584h-156l94 584l-314 825h160l251 -674l459 674h176zM654 1530l2 20l214 226h170l-4 -29l-289 -217h-93z" />
    <glyph glyph-name="Thorn" unicode="&#xde;" horiz-adv-x="1120" 
d="M181 0h-156l224 1409h157l-40 -252h268q99 0 175.5 -27t128.5 -77t79.5 -122.5t27.5 -162.5q0 -110 -32.5 -197.5t-93 -148t-147 -93t-194.5 -32.5h-348zM255 448h317q157 0 235.5 78t78.5 233q0 65 -18.5 111t-52.5 76t-81 44t-104 14h-286z" />
    <glyph glyph-name="germandbls" unicode="&#xdf;" horiz-adv-x="1026" 
d="M28 0l164 1027q39 237 146 347t287 110q78 0 137.5 -23t100 -62.5t61.5 -91.5t21 -111q0 -65 -19 -111.5t-47.5 -82t-60.5 -62.5l-62 -52q-28 -25 -46.5 -51t-18.5 -60q0 -36 17 -68t42.5 -64t55.5 -66t55.5 -74t42.5 -88.5t17 -108.5q0 -76 -21.5 -138t-64 -106.5
t-105 -68.5t-144.5 -24q-34 0 -69 4t-67 11.5t-60 17.5t-48 22l46 143q37 -21 89 -37.5t113 -16.5q48 0 83.5 14t58.5 39t34 60t11 77q0 49 -17 87.5t-42.5 72t-54.5 64.5t-54.5 65t-42 73t-16.5 89q0 64 18 106.5t46 73.5t60.5 54.5t60.5 50t46.5 60.5t18.5 85
q0 32 -12 60.5t-35 50t-57 34t-78 12.5q-55 0 -100.5 -17.5t-80.5 -56t-60 -99.5t-39 -149l-162 -1021h-148z" />
    <glyph glyph-name="agrave" unicode="&#xe0;" 
d="M871 6q-24 -7 -51.5 -11.5t-53.5 -4.5q-76 0 -111 38.5t-35 114.5q0 15 1.5 32.5t2.5 31.5h-5q-29 -53 -59.5 -95t-67.5 -71.5t-83 -45t-107 -15.5q-64 0 -112 25t-80.5 66.5t-49 95.5t-16.5 111q0 81 19 140t52.5 101t78 68.5t95 41.5t104.5 21t106 7l190 3l6 36
q4 25 7 48t3 43q0 91 -43.5 134.5t-120.5 43.5q-40 0 -75 -7.5t-62.5 -27t-48.5 -53t-34 -84.5l-146 29q16 62 43 113.5t71 88.5t107.5 57.5t152.5 20.5q73 0 129.5 -22t95 -61t58.5 -93t20 -119q0 -31 -4.5 -74.5t-10.5 -82.5l-61 -378q-4 -22 -6.5 -45t-2.5 -43
q0 -37 16 -55t50 -18q12 0 25 2t25 5zM669 536l-163 -4q-33 -1 -68 -4t-69 -12.5t-65 -25.5t-54 -43.5t-36.5 -66.5t-13.5 -94q0 -32 9 -62.5t27 -54t44.5 -38t62.5 -14.5q71 0 124.5 30t91 74t59.5 95.5t29 94.5zM679 1201l-231 278l4 29h169l132 -287l-2 -20h-72z" />
    <glyph glyph-name="aacute" unicode="&#xe1;" 
d="M871 6q-24 -7 -51.5 -11.5t-53.5 -4.5q-76 0 -111 38.5t-35 114.5q0 15 1.5 32.5t2.5 31.5h-5q-29 -53 -59.5 -95t-67.5 -71.5t-83 -45t-107 -15.5q-64 0 -112 25t-80.5 66.5t-49 95.5t-16.5 111q0 81 19 140t52.5 101t78 68.5t95 41.5t104.5 21t106 7l190 3l6 36
q4 25 7 48t3 43q0 91 -43.5 134.5t-120.5 43.5q-40 0 -75 -7.5t-62.5 -27t-48.5 -53t-34 -84.5l-146 29q16 62 43 113.5t71 88.5t107.5 57.5t152.5 20.5q73 0 129.5 -22t95 -61t58.5 -93t20 -119q0 -31 -4.5 -74.5t-10.5 -82.5l-61 -378q-4 -22 -6.5 -45t-2.5 -43
q0 -37 16 -55t50 -18q12 0 25 2t25 5zM669 536l-163 -4q-33 -1 -68 -4t-69 -12.5t-65 -25.5t-54 -43.5t-36.5 -66.5t-13.5 -94q0 -32 9 -62.5t27 -54t44.5 -38t62.5 -14.5q71 0 124.5 30t91 74t59.5 95.5t29 94.5zM508 1201l3 20l207 287h178l-4 -29l-307 -278h-77z" />
    <glyph glyph-name="acircumflex" unicode="&#xe2;" 
d="M871 6q-24 -7 -51.5 -11.5t-53.5 -4.5q-76 0 -111 38.5t-35 114.5q0 15 1.5 32.5t2.5 31.5h-5q-29 -53 -59.5 -95t-67.5 -71.5t-83 -45t-107 -15.5q-64 0 -112 25t-80.5 66.5t-49 95.5t-16.5 111q0 81 19 140t52.5 101t78 68.5t95 41.5t104.5 21t106 7l190 3l6 36
q4 25 7 48t3 43q0 91 -43.5 134.5t-120.5 43.5q-40 0 -75 -7.5t-62.5 -27t-48.5 -53t-34 -84.5l-146 29q16 62 43 113.5t71 88.5t107.5 57.5t152.5 20.5q73 0 129.5 -22t95 -61t58.5 -93t20 -119q0 -31 -4.5 -74.5t-10.5 -82.5l-61 -378q-4 -22 -6.5 -45t-2.5 -43
q0 -37 16 -55t50 -18q12 0 25 2t25 5zM669 536l-163 -4q-33 -1 -68 -4t-69 -12.5t-65 -25.5t-54 -43.5t-36.5 -66.5t-13.5 -94q0 -32 9 -62.5t27 -54t44.5 -38t62.5 -14.5q71 0 124.5 30t91 74t59.5 95.5t29 94.5zM873 1221l-3 -20h-76l-152 169h-2l-217 -169h-95l3 20
l235 270h167z" />
    <glyph glyph-name="atilde" unicode="&#xe3;" 
d="M871 6q-24 -7 -51.5 -11.5t-53.5 -4.5q-76 0 -111 38.5t-35 114.5q0 15 1.5 32.5t2.5 31.5h-5q-29 -53 -59.5 -95t-67.5 -71.5t-83 -45t-107 -15.5q-64 0 -112 25t-80.5 66.5t-49 95.5t-16.5 111q0 81 19 140t52.5 101t78 68.5t95 41.5t104.5 21t106 7l190 3l6 36
q4 25 7 48t3 43q0 91 -43.5 134.5t-120.5 43.5q-40 0 -75 -7.5t-62.5 -27t-48.5 -53t-34 -84.5l-146 29q16 62 43 113.5t71 88.5t107.5 57.5t152.5 20.5q73 0 129.5 -22t95 -61t58.5 -93t20 -119q0 -31 -4.5 -74.5t-10.5 -82.5l-61 -378q-4 -22 -6.5 -45t-2.5 -43
q0 -37 16 -55t50 -18q12 0 25 2t25 5zM669 536l-163 -4q-33 -1 -68 -4t-69 -12.5t-65 -25.5t-54 -43.5t-36.5 -66.5t-13.5 -94q0 -32 9 -62.5t27 -54t44.5 -38t62.5 -14.5q71 0 124.5 30t91 74t59.5 95.5t29 94.5zM741 1201q-34 0 -65.5 18.5t-60 41t-54.5 41t-51 18.5
q-45 0 -72.5 -31t-44.5 -88h-74q11 45 27 92.5t39.5 86.5t57.5 64t82 25q36 0 67.5 -18.5t59.5 -41t53.5 -41t49.5 -18.5q44 0 72 31.5t44 87.5h75q-11 -44 -26 -91.5t-38.5 -86.5t-57.5 -64.5t-83 -25.5z" />
    <glyph glyph-name="adieresis" unicode="&#xe4;" 
d="M871 6q-24 -7 -51.5 -11.5t-53.5 -4.5q-76 0 -111 38.5t-35 114.5q0 15 1.5 32.5t2.5 31.5h-5q-29 -53 -59.5 -95t-67.5 -71.5t-83 -45t-107 -15.5q-64 0 -112 25t-80.5 66.5t-49 95.5t-16.5 111q0 81 19 140t52.5 101t78 68.5t95 41.5t104.5 21t106 7l190 3l6 36
q4 25 7 48t3 43q0 91 -43.5 134.5t-120.5 43.5q-40 0 -75 -7.5t-62.5 -27t-48.5 -53t-34 -84.5l-146 29q16 62 43 113.5t71 88.5t107.5 57.5t152.5 20.5q73 0 129.5 -22t95 -61t58.5 -93t20 -119q0 -31 -4.5 -74.5t-10.5 -82.5l-61 -378q-4 -22 -6.5 -45t-2.5 -43
q0 -37 16 -55t50 -18q12 0 25 2t25 5zM669 536l-163 -4q-33 -1 -68 -4t-69 -12.5t-65 -25.5t-54 -43.5t-36.5 -66.5t-13.5 -94q0 -32 9 -62.5t27 -54t44.5 -38t62.5 -14.5q71 0 124.5 30t91 74t59.5 95.5t29 94.5zM693 1219l29 184h142l-29 -184h-142zM378 1219l29 184h143
l-28 -184h-144z" />
    <glyph glyph-name="aring" unicode="&#xe5;" 
d="M871 6q-24 -7 -51.5 -11.5t-53.5 -4.5q-76 0 -111 38.5t-35 114.5q0 15 1.5 32.5t2.5 31.5h-5q-29 -53 -59.5 -95t-67.5 -71.5t-83 -45t-107 -15.5q-64 0 -112 25t-80.5 66.5t-49 95.5t-16.5 111q0 81 19 140t52.5 101t78 68.5t95 41.5t104.5 21t106 7l190 3l6 36
q4 25 7 48t3 43q0 91 -43.5 134.5t-120.5 43.5q-40 0 -75 -7.5t-62.5 -27t-48.5 -53t-34 -84.5l-146 29q16 62 43 113.5t71 88.5t107.5 57.5t152.5 20.5q73 0 129.5 -22t95 -61t58.5 -93t20 -119q0 -31 -4.5 -74.5t-10.5 -82.5l-61 -378q-4 -22 -6.5 -45t-2.5 -43
q0 -37 16 -55t50 -18q12 0 25 2t25 5zM669 536l-163 -4q-33 -1 -68 -4t-69 -12.5t-65 -25.5t-54 -43.5t-36.5 -66.5t-13.5 -94q0 -32 9 -62.5t27 -54t44.5 -38t62.5 -14.5q71 0 124.5 30t91 74t59.5 95.5t29 94.5zM851 1410q0 -50 -15.5 -94t-42.5 -77t-63 -52t-77 -19
t-77 19t-63 52t-42.5 77t-15.5 94t15.5 94t42.5 76.5t63 51.5t77 19t77 -19t63 -51.5t42.5 -76.5t15.5 -94zM763 1410q0 29 -8 53.5t-23 42.5t-35 28t-44 10q-23 0 -43.5 -10t-35 -28t-23.5 -42.5t-9 -53.5q0 -28 9 -53t23.5 -44t35 -29.5t43.5 -10.5q24 0 44 10.5t35 29.5
t23 44t8 53z" />
    <glyph glyph-name="ae" unicode="&#xe6;" horiz-adv-x="1493" 
d="M811 503q-4 -28 -5.5 -56.5t-2.5 -56.5q0 -133 50.5 -204t150.5 -71q42 0 76 14.5t62 39t49 57t36 68.5l113 -63q-20 -45 -48 -89.5t-69.5 -80.5t-99 -58.5t-138.5 -22.5q-124 0 -201.5 70t-106.5 198q-32 -56 -71 -105t-87 -85t-106.5 -57t-128.5 -21q-66 0 -114 25
t-80 66.5t-48 95.5t-16 111q0 81 20 140t54 101t79.5 68.5t97.5 41.5t107 21t109 7l195 3l6 36q4 25 6.5 48t2.5 43q0 91 -44.5 134.5t-125.5 43.5q-43 0 -79 -7.5t-64.5 -27t-50.5 -53t-36 -84.5l-146 29q16 62 44.5 113.5t74 88.5t111.5 57.5t158 20.5q100 0 164 -43
t103 -115q48 75 119.5 116.5t163.5 41.5q85 0 148 -29t105 -81t63 -124.5t21 -159.5q0 -21 -1.5 -46t-4 -52t-5.5 -54.5t-8 -52.5h-602zM667 534l-169 -4q-34 -1 -70 -4t-71.5 -12t-67 -25t-55 -43t-37.5 -66t-14 -94q0 -37 10 -68.5t28 -53.5t43.5 -34.5t58.5 -12.5
q73 0 131 31.5t99 79.5t66.5 106t33.5 111zM1281 641q2 20 3 37.5t1 34.5q0 66 -13.5 114.5t-38.5 80t-59.5 46.5t-76.5 15q-37 0 -76.5 -14.5t-76 -51.5t-66.5 -100.5t-47 -161.5h450z" />
    <glyph glyph-name="ccedilla" unicode="&#xe7;" horiz-adv-x="840" 
d="M385 122q46 0 82.5 16.5t65.5 46.5t51 72.5t38 94.5l128 -49q-23 -75 -56.5 -134.5t-79 -101.5t-103.5 -64.5t-130 -22.5q-84 0 -146 31t-101.5 86.5t-59 131.5t-19.5 166q0 40 3 87t10 92q18 111 46.5 193t63 140.5t75.5 96.5t84 59.5t87.5 30t88.5 8.5q73 0 128 -23
t94 -65t60.5 -100.5t25.5 -129.5l-145 -25q-2 45 -13.5 82t-32.5 63.5t-51.5 41.5t-70.5 15q-57 0 -102 -20t-80.5 -65t-61 -117.5t-43.5 -177.5q-7 -48 -11 -101t-4 -91q0 -127 42.5 -197t136.5 -70zM395 -96q66 -5 99 -41t33 -95q0 -45 -13.5 -81t-43.5 -60.5t-77.5 -38
t-113.5 -13.5q-23 0 -45 2t-42 5l17 91q39 -6 73 -6q75 0 105.5 22t30.5 67q0 31 -22.5 51.5t-75.5 20.5h-24q-12 0 -23 -2l82 174h88z" />
    <glyph glyph-name="egrave" unicode="&#xe8;" 
d="M210 503q-4 -28 -5.5 -56.5t-1.5 -56.5q0 -133 54.5 -204t163.5 -71q46 0 84 14.5t68.5 39t54 57t39.5 68.5l113 -63q-20 -45 -50 -89.5t-73.5 -80.5t-105 -58.5t-147.5 -22.5q-82 0 -146.5 28.5t-109.5 83t-68 133.5t-23 180q0 158 34.5 287t96.5 220t146 140.5
t183 49.5q90 0 156.5 -29t110.5 -81t66 -124.5t22 -159.5q0 -21 -1.5 -46t-4 -52t-6 -54.5t-8.5 -52.5h-642zM722 641q2 20 2.5 37.5t0.5 34.5q0 66 -15 114.5t-42 80t-64.5 46.5t-83.5 15q-39 0 -82.5 -14.5t-83.5 -51.5t-73 -100.5t-51 -161.5h492zM636 1201l-231 278
l4 29h169l132 -287l-2 -20h-72z" />
    <glyph glyph-name="eacute" unicode="&#xe9;" 
d="M210 503q-4 -28 -5.5 -56.5t-1.5 -56.5q0 -133 54.5 -204t163.5 -71q46 0 84 14.5t68.5 39t54 57t39.5 68.5l113 -63q-20 -45 -50 -89.5t-73.5 -80.5t-105 -58.5t-147.5 -22.5q-82 0 -146.5 28.5t-109.5 83t-68 133.5t-23 180q0 158 34.5 287t96.5 220t146 140.5
t183 49.5q90 0 156.5 -29t110.5 -81t66 -124.5t22 -159.5q0 -21 -1.5 -46t-4 -52t-6 -54.5t-8.5 -52.5h-642zM722 641q2 20 2.5 37.5t0.5 34.5q0 66 -15 114.5t-42 80t-64.5 46.5t-83.5 15q-39 0 -82.5 -14.5t-83.5 -51.5t-73 -100.5t-51 -161.5h492zM501 1201l3 20l207 287
h178l-4 -29l-307 -278h-77z" />
    <glyph glyph-name="ecircumflex" unicode="&#xea;" 
d="M210 503q-4 -28 -5.5 -56.5t-1.5 -56.5q0 -133 54.5 -204t163.5 -71q46 0 84 14.5t68.5 39t54 57t39.5 68.5l113 -63q-20 -45 -50 -89.5t-73.5 -80.5t-105 -58.5t-147.5 -22.5q-82 0 -146.5 28.5t-109.5 83t-68 133.5t-23 180q0 158 34.5 287t96.5 220t146 140.5
t183 49.5q90 0 156.5 -29t110.5 -81t66 -124.5t22 -159.5q0 -21 -1.5 -46t-4 -52t-6 -54.5t-8.5 -52.5h-642zM722 641q2 20 2.5 37.5t0.5 34.5q0 66 -15 114.5t-42 80t-64.5 46.5t-83.5 15q-39 0 -82.5 -14.5t-83.5 -51.5t-73 -100.5t-51 -161.5h492zM866 1221l-3 -20h-76
l-152 169h-2l-217 -169h-95l3 20l235 270h167z" />
    <glyph glyph-name="edieresis" unicode="&#xeb;" 
d="M210 503q-4 -28 -5.5 -56.5t-1.5 -56.5q0 -133 54.5 -204t163.5 -71q46 0 84 14.5t68.5 39t54 57t39.5 68.5l113 -63q-20 -45 -50 -89.5t-73.5 -80.5t-105 -58.5t-147.5 -22.5q-82 0 -146.5 28.5t-109.5 83t-68 133.5t-23 180q0 158 34.5 287t96.5 220t146 140.5
t183 49.5q90 0 156.5 -29t110.5 -81t66 -124.5t22 -159.5q0 -21 -1.5 -46t-4 -52t-6 -54.5t-8.5 -52.5h-642zM722 641q2 20 2.5 37.5t0.5 34.5q0 66 -15 114.5t-42 80t-64.5 46.5t-83.5 15q-39 0 -82.5 -14.5t-83.5 -51.5t-73 -100.5t-51 -161.5h492zM668 1219l29 184h142
l-29 -184h-142zM353 1219l29 184h143l-28 -184h-144z" />
    <glyph glyph-name="igrave" unicode="&#xec;" horiz-adv-x="467" 
d="M73 0l172 1082h148l-173 -1082h-147zM334 1201l-231 278l4 29h169l132 -287l-2 -20h-72z" />
    <glyph glyph-name="iacute" unicode="&#xed;" horiz-adv-x="467" 
d="M73 0l172 1082h148l-173 -1082h-147zM230 1201l3 20l207 287h178l-4 -29l-307 -278h-77z" />
    <glyph glyph-name="icircumflex" unicode="&#xee;" horiz-adv-x="467" 
d="M73 0l172 1082h148l-173 -1082h-147zM589 1221l-3 -20h-76l-152 169h-2l-217 -169h-95l3 20l235 270h167z" />
    <glyph glyph-name="idieresis" unicode="&#xef;" horiz-adv-x="467" 
d="M73 0l172 1082h148l-173 -1082h-147zM420 1219l29 184h142l-29 -184h-142zM105 1219l29 184h143l-28 -184h-144z" />
    <glyph glyph-name="eth" unicode="&#xf0;" 
d="M513 1328q-39 45 -77.5 82.5t-82.5 73.5h144q33 -20 65.5 -46.5t62.5 -55.5l216 102l-16 -108l-139 -67q39 -57 72 -118.5t56.5 -132t36.5 -152t13 -178.5q0 -27 -1 -59t-4 -65.5t-6.5 -66t-8.5 -59.5q-24 -132 -62 -225.5t-92.5 -153t-125.5 -87t-161 -27.5
q-86 0 -151.5 31.5t-109 87.5t-65.5 132.5t-22 166.5q0 30 2.5 64t7.5 66q33 214 141 330t290 116q28 0 58.5 -6.5t58.5 -19.5t53 -33q24 -19 42 -46q-7 54 -19.5 106.5t-30.5 100.5t-39.5 91t-46.5 77l-223 -113l17 120zM494 846q-57 0 -102.5 -19t-80 -59.5t-58 -105
t-37.5 -156.5q-5 -32 -7.5 -63t-2.5 -55q0 -130 51.5 -200t147.5 -70q48 0 90 14.5t77 49t62 93t45 145.5q4 17 8 42.5t8 55t6.5 60t2.5 57.5q0 36 -13 73.5t-39.5 68t-66 50t-91.5 19.5z" />
    <glyph glyph-name="ntilde" unicode="&#xf1;" 
d="M588 0l103 645q7 39 11 79.5t4 70.5q0 79 -34.5 123t-112.5 44q-52 0 -98.5 -25.5t-84 -72t-64.5 -112t-40 -146.5l-97 -606h-147l136 851q6 34 11 71l9 72l8 57q3 24 4 31h139q0 -5 -3 -27l-6 -51l-6 -58q-4 -29 -8 -49h3q28 47 57.5 85t65 64.5t78.5 40.5t98 14
q121 0 182.5 -73t61.5 -211q0 -36 -5.5 -81t-11.5 -83l-105 -653h-148zM742 1201q-34 0 -65.5 18.5t-60 41t-54.5 41t-51 18.5q-45 0 -72.5 -31t-44.5 -88h-74q11 45 27 92.5t39.5 86.5t57.5 64t82 25q36 0 67.5 -18.5t59.5 -41t53.5 -41t49.5 -18.5q44 0 72 31.5t44 87.5
h75q-11 -44 -26 -91.5t-38.5 -86.5t-57.5 -64.5t-83 -25.5z" />
    <glyph glyph-name="ograve" unicode="&#xf2;" 
d="M887 683q0 -52 -5 -104.5t-17 -111.5q-25 -132 -68.5 -225t-102.5 -151t-131 -84.5t-154 -26.5q-79 0 -143 29.5t-109.5 86t-70.5 138t-25 185.5q1 47 4.5 97t13.5 104q24 126 65.5 216.5t99 149.5t130 87t158.5 28q87 0 153 -28t111 -82t68 -131.5t23 -176.5zM734 683
q0 77 -14 131t-40.5 88.5t-64 50.5t-84.5 16q-43 0 -87 -12.5t-84 -50.5t-73 -108t-55 -186q-11 -55 -15 -104.5t-4 -91.5q0 -82 15.5 -140t43 -94t64.5 -52.5t82 -16.5q44 0 87 12t81.5 50.5t71 109.5t54.5 188q11 60 15.5 110t6.5 100zM646 1201l-231 278l4 29h169
l132 -287l-2 -20h-72z" />
    <glyph glyph-name="oacute" unicode="&#xf3;" 
d="M887 683q0 -52 -5 -104.5t-17 -111.5q-25 -132 -68.5 -225t-102.5 -151t-131 -84.5t-154 -26.5q-79 0 -143 29.5t-109.5 86t-70.5 138t-25 185.5q1 47 4.5 97t13.5 104q24 126 65.5 216.5t99 149.5t130 87t158.5 28q87 0 153 -28t111 -82t68 -131.5t23 -176.5zM734 683
q0 77 -14 131t-40.5 88.5t-64 50.5t-84.5 16q-43 0 -87 -12.5t-84 -50.5t-73 -108t-55 -186q-11 -55 -15 -104.5t-4 -91.5q0 -82 15.5 -140t43 -94t64.5 -52.5t82 -16.5q44 0 87 12t81.5 50.5t71 109.5t54.5 188q11 60 15.5 110t6.5 100zM501 1201l3 20l207 287h178l-4 -29
l-307 -278h-77z" />
    <glyph glyph-name="ocircumflex" unicode="&#xf4;" 
d="M887 683q0 -52 -5 -104.5t-17 -111.5q-25 -132 -68.5 -225t-102.5 -151t-131 -84.5t-154 -26.5q-79 0 -143 29.5t-109.5 86t-70.5 138t-25 185.5q1 47 4.5 97t13.5 104q24 126 65.5 216.5t99 149.5t130 87t158.5 28q87 0 153 -28t111 -82t68 -131.5t23 -176.5zM734 683
q0 77 -14 131t-40.5 88.5t-64 50.5t-84.5 16q-43 0 -87 -12.5t-84 -50.5t-73 -108t-55 -186q-11 -55 -15 -104.5t-4 -91.5q0 -82 15.5 -140t43 -94t64.5 -52.5t82 -16.5q44 0 87 12t81.5 50.5t71 109.5t54.5 188q11 60 15.5 110t6.5 100zM875 1221l-3 -20h-76l-152 169h-2
l-217 -169h-95l3 20l235 270h167z" />
    <glyph glyph-name="otilde" unicode="&#xf5;" 
d="M887 683q0 -52 -5 -104.5t-17 -111.5q-25 -132 -68.5 -225t-102.5 -151t-131 -84.5t-154 -26.5q-79 0 -143 29.5t-109.5 86t-70.5 138t-25 185.5q1 47 4.5 97t13.5 104q24 126 65.5 216.5t99 149.5t130 87t158.5 28q87 0 153 -28t111 -82t68 -131.5t23 -176.5zM734 683
q0 77 -14 131t-40.5 88.5t-64 50.5t-84.5 16q-43 0 -87 -12.5t-84 -50.5t-73 -108t-55 -186q-11 -55 -15 -104.5t-4 -91.5q0 -82 15.5 -140t43 -94t64.5 -52.5t82 -16.5q44 0 87 12t81.5 50.5t71 109.5t54.5 188q11 60 15.5 110t6.5 100zM712 1201q-34 0 -65.5 18.5t-60 41
t-54.5 41t-51 18.5q-45 0 -72.5 -31t-44.5 -88h-74q11 45 27 92.5t39.5 86.5t57.5 64t82 25q36 0 67.5 -18.5t59.5 -41t53.5 -41t49.5 -18.5q44 0 72 31.5t44 87.5h75q-11 -44 -26 -91.5t-38.5 -86.5t-57.5 -64.5t-83 -25.5z" />
    <glyph glyph-name="odieresis" unicode="&#xf6;" 
d="M887 683q0 -52 -5 -104.5t-17 -111.5q-25 -132 -68.5 -225t-102.5 -151t-131 -84.5t-154 -26.5q-79 0 -143 29.5t-109.5 86t-70.5 138t-25 185.5q1 47 4.5 97t13.5 104q24 126 65.5 216.5t99 149.5t130 87t158.5 28q87 0 153 -28t111 -82t68 -131.5t23 -176.5zM734 683
q0 77 -14 131t-40.5 88.5t-64 50.5t-84.5 16q-43 0 -87 -12.5t-84 -50.5t-73 -108t-55 -186q-11 -55 -15 -104.5t-4 -91.5q0 -82 15.5 -140t43 -94t64.5 -52.5t82 -16.5q44 0 87 12t81.5 50.5t71 109.5t54.5 188q11 60 15.5 110t6.5 100zM680 1219l29 184h142l-29 -184h-142
zM365 1219l29 184h143l-28 -184h-144z" />
    <glyph glyph-name="divide" unicode="&#xf7;" horiz-adv-x="1124" 
d="M495 958v183h168v-183h-168zM82 608v146h995v-146h-995zM495 223v183h168v-183h-168z" />
    <glyph glyph-name="oslash" unicode="&#xf8;" horiz-adv-x="1026" 
d="M165 145q-30 53 -46 121t-16 153q1 47 4.5 97t13.5 104q24 126 65.5 216.5t99 149.5t130 87t158.5 28q133 0 219 -67l57 82h137l-119 -169q61 -103 60 -264q0 -52 -4.5 -104.5t-16.5 -111.5q-25 -132 -68.5 -224t-102.5 -149.5t-131.5 -83t-154.5 -25.5q-126 0 -211 71
l-66 -94h-137zM254 416q0 -73 13 -127l442 627q-26 27 -60.5 40t-76.5 13q-43 0 -87 -12.5t-83.5 -50.5t-72.5 -108t-55 -186q-11 -55 -15.5 -104.5t-4.5 -91.5zM776 683q0 66 -12 117l-442 -627q27 -29 61.5 -42t75.5 -13q44 0 87.5 11.5t82 48.5t71 107.5t54.5 187.5
q11 60 15.5 110t6.5 100z" />
    <glyph glyph-name="ugrave" unicode="&#xf9;" 
d="M340 1082l-103 -645q-7 -39 -11 -79.5t-4 -70.5q0 -79 34.5 -123t112.5 -44q52 0 98.5 25.5t84.5 72t64.5 112t39.5 146.5l97 606h147l-136 -851q-6 -34 -11 -71l-9 -72l-8 -57q-3 -24 -4 -31h-139q0 5 3 27l6 51q3 28 7 57.5t7 49.5h-3q-28 -47 -57.5 -85t-65 -64.5
t-78.5 -40.5t-98 -14q-121 0 -182 73t-61 211q0 36 5 81t12 83l104 653h148zM660 1201l-231 278l4 29h169l132 -287l-2 -20h-72z" />
    <glyph glyph-name="uacute" unicode="&#xfa;" 
d="M340 1082l-103 -645q-7 -39 -11 -79.5t-4 -70.5q0 -79 34.5 -123t112.5 -44q52 0 98.5 25.5t84.5 72t64.5 112t39.5 146.5l97 606h147l-136 -851q-6 -34 -11 -71l-9 -72l-8 -57q-3 -24 -4 -31h-139q0 5 3 27l6 51q3 28 7 57.5t7 49.5h-3q-28 -47 -57.5 -85t-65 -64.5
t-78.5 -40.5t-98 -14q-121 0 -182 73t-61 211q0 36 5 81t12 83l104 653h148zM509 1201l3 20l207 287h178l-4 -29l-307 -278h-77z" />
    <glyph glyph-name="ucircumflex" unicode="&#xfb;" 
d="M340 1082l-103 -645q-7 -39 -11 -79.5t-4 -70.5q0 -79 34.5 -123t112.5 -44q52 0 98.5 25.5t84.5 72t64.5 112t39.5 146.5l97 606h147l-136 -851q-6 -34 -11 -71l-9 -72l-8 -57q-3 -24 -4 -31h-139q0 5 3 27l6 51q3 28 7 57.5t7 49.5h-3q-28 -47 -57.5 -85t-65 -64.5
t-78.5 -40.5t-98 -14q-121 0 -182 73t-61 211q0 36 5 81t12 83l104 653h148zM887 1221l-3 -20h-76l-152 169h-2l-217 -169h-95l3 20l235 270h167z" />
    <glyph glyph-name="udieresis" unicode="&#xfc;" 
d="M340 1082l-103 -645q-7 -39 -11 -79.5t-4 -70.5q0 -79 34.5 -123t112.5 -44q52 0 98.5 25.5t84.5 72t64.5 112t39.5 146.5l97 606h147l-136 -851q-6 -34 -11 -71l-9 -72l-8 -57q-3 -24 -4 -31h-139q0 5 3 27l6 51q3 28 7 57.5t7 49.5h-3q-28 -47 -57.5 -85t-65 -64.5
t-78.5 -40.5t-98 -14q-121 0 -182 73t-61 211q0 36 5 81t12 83l104 653h148zM700 1219l29 184h142l-29 -184h-142zM385 1219l29 184h143l-28 -184h-144z" />
    <glyph glyph-name="yacute" unicode="&#xfd;" horiz-adv-x="840" 
d="M411 0q-45 -95 -87 -173t-88 -134t-99.5 -87t-123.5 -31q-27 0 -55.5 3.5t-52.5 10.5l25 134q14 -3 31.5 -5.5t31.5 -2.5q78 0 137.5 64t117.5 186l22 47l-178 1070h150l92 -598q5 -32 10 -74l11 -84l9 -76q4 -36 4 -54q8 22 22 54l29 66l33 74l32 72l277 620h163z
M471 1201l3 20l207 287h178l-4 -29l-307 -278h-77z" />
    <glyph glyph-name="thorn" unicode="&#xfe;" 
d="M454 -20q-101 0 -164.5 52t-89.5 146h-4l-3 -28q-2 -18 -5 -42t-7 -52.5t-9 -57.5l-67 -423h-147l304 1909h148l-68 -423q-4 -29 -10 -55l-9 -45l-9 -40h3q30 47 60.5 81t65.5 56.5t75 33t90 10.5q66 0 116.5 -25t85 -71t52.5 -111.5t18 -146.5q0 -50 -4 -109.5
t-13 -122.5q-22 -142 -58.5 -243.5t-87 -166.5t-116.5 -95.5t-147 -30.5zM565 963q-52 0 -99.5 -19t-87.5 -65.5t-71 -125.5t-50 -199q-16 -98 -15 -177q0 -64 14 -113.5t39.5 -83t62 -50.5t81.5 -17q51 0 92 18.5t74 64t58.5 122t43.5 192.5q19 121 19 206q0 123 -38.5 185
t-122.5 62z" />
    <glyph glyph-name="ydieresis" unicode="&#xff;" horiz-adv-x="840" 
d="M411 0q-45 -95 -87 -173t-88 -134t-99.5 -87t-123.5 -31q-27 0 -55.5 3.5t-52.5 10.5l25 134q14 -3 31.5 -5.5t31.5 -2.5q78 0 137.5 64t117.5 186l22 47l-178 1070h150l92 -598q5 -32 10 -74l11 -84l9 -76q4 -36 4 -54q8 22 22 54l29 66l33 74l32 72l277 620h163z
M644 1219l29 184h142l-29 -184h-142zM329 1219l29 184h143l-28 -184h-144z" />
    <glyph glyph-name="Amacron" unicode="&#x100;" horiz-adv-x="1120" 
d="M870 0l-62 412h-523l-197 -412h-171l695 1409h178l240 -1409h-160zM714 1034q-7 41 -13 80t-10 71.5t-7 54t-3 25.5q-2 -4 -11 -26l-24 -55l-34 -72l-37 -79l-222 -472h432zM1474 1570h-826l39 127h826z" />
    <glyph glyph-name="amacron" unicode="&#x101;" 
d="M865 6q-24 -7 -51.5 -11.5t-53.5 -4.5q-76 0 -111 38.5t-35 114.5q0 15 1.5 32.5t2.5 31.5h-5q-29 -53 -59.5 -95t-67.5 -71.5t-83 -45t-107 -15.5q-64 0 -112 25t-80.5 66.5t-49 95.5t-16.5 111q0 81 19 140t52.5 101t78 68.5t95 41.5t104.5 21t106 7l190 3l6 36
q4 25 7 48t3 43q0 91 -43.5 134.5t-120.5 43.5q-40 0 -75 -7.5t-62.5 -27t-48.5 -53t-34 -84.5l-146 29q16 62 43 113.5t71 88.5t107.5 57.5t152.5 20.5q73 0 129.5 -22t95 -61t58.5 -93t20 -119q0 -31 -4.5 -74.5t-10.5 -82.5l-61 -378q-4 -22 -6.5 -45t-2.5 -43
q0 -37 16 -55t50 -18q12 0 25 2t25 5zM663 536l-163 -4q-33 -1 -68 -4t-69 -12.5t-65 -25.5t-54 -43.5t-36.5 -66.5t-13.5 -94q0 -32 9 -62.5t27 -54t44.5 -38t62.5 -14.5q71 0 124.5 30t91 74t59.5 95.5t29 94.5zM1306 1236h-826l39 127h826z" />
    <glyph glyph-name="Abreve" unicode="&#x102;" horiz-adv-x="1120" 
d="M870 0l-62 412h-523l-197 -412h-171l695 1409h178l240 -1409h-160zM714 1034q-7 41 -13 80t-10 71.5t-7 54t-3 25.5q-2 -4 -11 -26l-24 -55l-34 -72l-37 -79l-222 -472h432zM794 1520q-61 0 -106 20.5t-75 55t-45.5 79.5t-15.5 94h95q2 -59 44.5 -86t110.5 -27
q147 0 199 114h96q-17 -49 -44 -94.5t-64 -80t-85.5 -55t-109.5 -20.5z" />
    <glyph glyph-name="abreve" unicode="&#x103;" 
d="M865 6q-24 -7 -51.5 -11.5t-53.5 -4.5q-76 0 -111 38.5t-35 114.5q0 15 1.5 32.5t2.5 31.5h-5q-29 -53 -59.5 -95t-67.5 -71.5t-83 -45t-107 -15.5q-64 0 -112 25t-80.5 66.5t-49 95.5t-16.5 111q0 81 19 140t52.5 101t78 68.5t95 41.5t104.5 21t106 7l190 3l6 36
q4 25 7 48t3 43q0 91 -43.5 134.5t-120.5 43.5q-40 0 -75 -7.5t-62.5 -27t-48.5 -53t-34 -84.5l-146 29q16 62 43 113.5t71 88.5t107.5 57.5t152.5 20.5q73 0 129.5 -22t95 -61t58.5 -93t20 -119q0 -31 -4.5 -74.5t-10.5 -82.5l-61 -378q-4 -22 -6.5 -45t-2.5 -43
q0 -37 16 -55t50 -18q12 0 25 2t25 5zM663 536l-163 -4q-33 -1 -68 -4t-69 -12.5t-65 -25.5t-54 -43.5t-36.5 -66.5t-13.5 -94q0 -32 9 -62.5t27 -54t44.5 -38t62.5 -14.5q71 0 124.5 30t91 74t59.5 95.5t29 94.5zM612 1201q-61 0 -106 25.5t-75 68.5t-45.5 98.5
t-15.5 116.5h95q2 -85 44.5 -124t110.5 -39q147 0 199 163h96q-17 -61 -44 -116.5t-64 -98.5t-85.5 -68.5t-109.5 -25.5z" />
    <glyph glyph-name="Aogonek" unicode="&#x104;" horiz-adv-x="1120" 
d="M870 0l-62 412h-523l-197 -412h-171l695 1409h178l240 -1409h-160zM714 1034q-7 41 -13 80t-10 71.5t-7 54t-3 25.5q-2 -4 -11 -26l-24 -55l-34 -72l-37 -79l-222 -472h432zM990 -427q-72 0 -109 47t-37 121q0 52 17 95t42 75t54.5 54.5t54.5 34.5h109q-22 -14 -50 -36.5
t-51.5 -52.5t-40 -67t-16.5 -80q0 -34 16.5 -57.5t47.5 -23.5q26 0 47.5 5.5t45.5 16.5l-12 -105q-25 -12 -53.5 -19.5t-64.5 -7.5z" />
    <glyph glyph-name="aogonek" unicode="&#x105;" 
d="M865 6q-24 -7 -51.5 -11.5t-53.5 -4.5q-76 0 -111 38.5t-35 114.5q0 15 1.5 32.5t2.5 31.5h-5q-29 -53 -59.5 -95t-67.5 -71.5t-83 -45t-107 -15.5q-64 0 -112 25t-80.5 66.5t-49 95.5t-16.5 111q0 81 19 140t52.5 101t78 68.5t95 41.5t104.5 21t106 7l190 3l6 36
q4 25 7 48t3 43q0 91 -43.5 134.5t-120.5 43.5q-40 0 -75 -7.5t-62.5 -27t-48.5 -53t-34 -84.5l-146 29q16 62 43 113.5t71 88.5t107.5 57.5t152.5 20.5q73 0 129.5 -22t95 -61t58.5 -93t20 -119q0 -31 -4.5 -74.5t-10.5 -82.5l-61 -378q-4 -22 -6.5 -45t-2.5 -43
q0 -37 16 -55t50 -18q12 0 25 2t25 5zM663 536l-163 -4q-33 -1 -68 -4t-69 -12.5t-65 -25.5t-54 -43.5t-36.5 -66.5t-13.5 -94q0 -32 9 -62.5t27 -54t44.5 -38t62.5 -14.5q71 0 124.5 30t91 74t59.5 95.5t29 94.5zM757 -417q-72 0 -109 47t-37 121q0 52 17 95t42 75
t54.5 54.5t54.5 34.5h109q-22 -14 -50 -36.5t-51.5 -52.5t-40 -67t-16.5 -80q0 -34 16.5 -57.5t47.5 -23.5q26 0 47.5 5.5t45.5 16.5l-12 -105q-25 -12 -53.5 -19.5t-64.5 -7.5z" />
    <glyph glyph-name="Cacute" unicode="&#x106;" horiz-adv-x="1212" 
d="M1113 337q-40 -73 -90 -138t-114.5 -113.5t-147 -77t-187.5 -28.5q-121 0 -212 46t-150.5 125.5t-89 187t-29.5 230.5q0 124 22 236t63 207.5t100 173t133 131.5t161.5 83.5t186.5 29.5q106 0 185.5 -29.5t136 -77.5t90.5 -110t50 -128l-147 -55q-12 47 -38 90.5
t-65.5 78t-94 55t-125.5 20.5q-120 0 -213.5 -53.5t-158 -148t-98.5 -224t-34 -282.5q0 -94 21.5 -173t63.5 -136.5t105.5 -89.5t146.5 -32q74 0 135.5 24.5t112.5 65t92 93t72 108.5zM815 1530l2 20l214 226h170l-4 -29l-289 -217h-93z" />
    <glyph glyph-name="cacute" unicode="&#x107;" horiz-adv-x="840" 
d="M385 122q46 0 82.5 16.5t65.5 46.5t51 72.5t38 94.5l128 -49q-23 -75 -56.5 -134.5t-79 -101.5t-103.5 -64.5t-130 -22.5q-84 0 -146 31t-101.5 86.5t-59 131.5t-19.5 166q0 40 3 87t10 92q18 111 46.5 193t63 140.5t75.5 96.5t84 59.5t87.5 30t88.5 8.5q73 0 128 -23
t94 -65t60.5 -100.5t25.5 -129.5l-145 -25q-2 45 -13.5 82t-32.5 63.5t-51.5 41.5t-70.5 15q-57 0 -102 -20t-80.5 -65t-61 -117.5t-43.5 -177.5q-7 -48 -11 -101t-4 -91q0 -127 42.5 -197t136.5 -70zM502 1201l3 20l207 287h178l-4 -29l-307 -278h-77z" />
    <glyph glyph-name="Ccircumflex" unicode="&#x108;" horiz-adv-x="1212" 
d="M1113 337q-40 -73 -90 -138t-114.5 -113.5t-147 -77t-187.5 -28.5q-121 0 -212 46t-150.5 125.5t-89 187t-29.5 230.5q0 124 22 236t63 207.5t100 173t133 131.5t161.5 83.5t186.5 29.5q106 0 185.5 -29.5t136 -77.5t90.5 -110t50 -128l-147 -55q-12 47 -38 90.5
t-65.5 78t-94 55t-125.5 20.5q-120 0 -213.5 -53.5t-158 -148t-98.5 -224t-34 -282.5q0 -94 21.5 -173t63.5 -136.5t105.5 -89.5t146.5 -32q74 0 135.5 24.5t112.5 65t92 93t72 108.5zM1134 1550l-3 -20h-78l-157 139h-2l-212 -139h-93l3 20l230 240h167z" />
    <glyph glyph-name="ccircumflex" unicode="&#x109;" horiz-adv-x="840" 
d="M385 122q46 0 82.5 16.5t65.5 46.5t51 72.5t38 94.5l128 -49q-23 -75 -56.5 -134.5t-79 -101.5t-103.5 -64.5t-130 -22.5q-84 0 -146 31t-101.5 86.5t-59 131.5t-19.5 166q0 40 3 87t10 92q18 111 46.5 193t63 140.5t75.5 96.5t84 59.5t87.5 30t88.5 8.5q73 0 128 -23
t94 -65t60.5 -100.5t25.5 -129.5l-145 -25q-2 45 -13.5 82t-32.5 63.5t-51.5 41.5t-70.5 15q-57 0 -102 -20t-80.5 -65t-61 -117.5t-43.5 -177.5q-7 -48 -11 -101t-4 -91q0 -127 42.5 -197t136.5 -70zM836 1221l-3 -20h-76l-152 169h-2l-217 -169h-95l3 20l235 270h167z" />
    <glyph glyph-name="Cdotaccent" unicode="&#x10a;" horiz-adv-x="1212" 
d="M1113 337q-40 -73 -90 -138t-114.5 -113.5t-147 -77t-187.5 -28.5q-121 0 -212 46t-150.5 125.5t-89 187t-29.5 230.5q0 124 22 236t63 207.5t100 173t133 131.5t161.5 83.5t186.5 29.5q106 0 185.5 -29.5t136 -77.5t90.5 -110t50 -128l-147 -55q-12 47 -38 90.5
t-65.5 78t-94 55t-125.5 20.5q-120 0 -213.5 -53.5t-158 -148t-98.5 -224t-34 -282.5q0 -94 21.5 -173t63.5 -136.5t105.5 -89.5t146.5 -32q74 0 135.5 24.5t112.5 65t92 93t72 108.5zM805 1530l28 172h148l-28 -172h-148z" />
    <glyph glyph-name="cdotaccent" unicode="&#x10b;" horiz-adv-x="840" 
d="M385 122q46 0 82.5 16.5t65.5 46.5t51 72.5t38 94.5l128 -49q-23 -75 -56.5 -134.5t-79 -101.5t-103.5 -64.5t-130 -22.5q-84 0 -146 31t-101.5 86.5t-59 131.5t-19.5 166q0 40 3 87t10 92q18 111 46.5 193t63 140.5t75.5 96.5t84 59.5t87.5 30t88.5 8.5q73 0 128 -23
t94 -65t60.5 -100.5t25.5 -129.5l-145 -25q-2 45 -13.5 82t-32.5 63.5t-51.5 41.5t-70.5 15q-57 0 -102 -20t-80.5 -65t-61 -117.5t-43.5 -177.5q-7 -48 -11 -101t-4 -91q0 -127 42.5 -197t136.5 -70zM527 1312l28 172h148l-28 -172h-148z" />
    <glyph glyph-name="Ccaron" unicode="&#x10c;" horiz-adv-x="1212" 
d="M1113 337q-40 -73 -90 -138t-114.5 -113.5t-147 -77t-187.5 -28.5q-121 0 -212 46t-150.5 125.5t-89 187t-29.5 230.5q0 124 22 236t63 207.5t100 173t133 131.5t161.5 83.5t186.5 29.5q106 0 185.5 -29.5t136 -77.5t90.5 -110t50 -128l-147 -55q-12 47 -38 90.5
t-65.5 78t-94 55t-125.5 20.5q-120 0 -213.5 -53.5t-158 -148t-98.5 -224t-34 -282.5q0 -94 21.5 -173t63.5 -136.5t105.5 -89.5t146.5 -32q74 0 135.5 24.5t112.5 65t92 93t72 108.5zM942 1530h-167l-153 239l3 21h76l168 -139h2l202 139h95l-4 -21z" />
    <glyph glyph-name="ccaron" unicode="&#x10d;" horiz-adv-x="840" 
d="M385 122q46 0 82.5 16.5t65.5 46.5t51 72.5t38 94.5l128 -49q-23 -75 -56.5 -134.5t-79 -101.5t-103.5 -64.5t-130 -22.5q-84 0 -146 31t-101.5 86.5t-59 131.5t-19.5 166q0 40 3 87t10 92q18 111 46.5 193t63 140.5t75.5 96.5t84 59.5t87.5 30t88.5 8.5q73 0 128 -23
t94 -65t60.5 -100.5t25.5 -129.5l-145 -25q-2 45 -13.5 82t-32.5 63.5t-51.5 41.5t-70.5 15q-57 0 -102 -20t-80.5 -65t-61 -117.5t-43.5 -177.5q-7 -48 -11 -101t-4 -91q0 -127 42.5 -197t136.5 -70zM641 1201h-167l-149 270l4 20h79l163 -169h2l207 169h91l-3 -20z" />
    <glyph glyph-name="Dcaron" unicode="&#x10e;" horiz-adv-x="1212" 
d="M610 1409q121 0 222 -39.5t173.5 -117.5t112.5 -193.5t40 -267.5q0 -133 -26 -243t-72.5 -198t-110.5 -153.5t-140 -109.5t-162 -65.5t-176 -21.5h-419l223 1409h335zM232 153h233q120 0 219 44t169 126.5t108 201t38 268.5q0 120 -30 207t-82.5 144t-124.5 84.5
t-156 27.5h-198zM827 1530h-167l-153 239l3 21h76l168 -139h2l202 139h95l-4 -21z" />
    <glyph glyph-name="dcaron" unicode="&#x10f;" horiz-adv-x="1049" 
d="M329 -21q-66 0 -116.5 25t-85 71t-52.5 111.5t-18 146.5q0 45 3.5 107t13.5 125q22 142 58 243.5t87 166.5t116.5 95.5t146.5 30.5q101 0 164.5 -52t89.5 -146h4q2 10 5.5 33t7 48.5t7 48.5t3.5 32l68 419h147l-201 -1261q-7 -39 -12 -75l-9 -66q-4 -30 -6 -52l-4 -30
h-141q0 20 4.5 64t12.5 96h-4q-30 -47 -60.5 -81t-65 -56.5t-74.5 -33t-89 -10.5zM371 118q52 0 99.5 19t88 65.5t71 125.5t49.5 199q16 98 16 177q0 65 -14 114t-40 82.5t-62.5 50.5t-80.5 17q-50 0 -91.5 -18.5t-75 -64t-58.5 -122t-43 -192.5q-19 -121 -19 -206
q0 -123 38 -185t122 -62zM1369 1378q-14 -87 -41.5 -145.5t-67.5 -105.5h-96q44 48 72 96t36 94h-72l26 167h160z" />
    <glyph glyph-name="Dcroat" unicode="&#x110;" horiz-adv-x="1212" 
d="M626 1409q121 0 222 -39.5t173.5 -117.5t112.5 -193.5t40 -267.5q0 -133 -25 -243t-69.5 -198t-107 -153.5t-137.5 -109.5t-159 -65.5t-174 -21.5h-450l102 647h-126l24 154h127l96 608h351zM335 801h333l-25 -154h-332l-79 -494h249q120 0 219 44t169 126.5t108 201
t38 268.5q0 120 -29.5 207t-82 144t-125 84.5t-155.5 27.5h-215z" />
    <glyph glyph-name="dcroat" unicode="&#x111;" horiz-adv-x="928" 
d="M369 118q52 0 99 19t87 65.5t70.5 125.5t49.5 199q15 98 15 177q0 65 -14 114t-39.5 82.5t-61.5 50.5t-80 17q-50 0 -91 -18.5t-74 -64t-58 -122t-44 -192.5q-19 -121 -19 -206q0 -123 38.5 -185t121.5 -62zM327 -21q-65 0 -115.5 25t-85 71t-52.5 111.5t-18 146.5
q0 45 4 107t13 125q22 142 58 243.5t86.5 166.5t115.5 95.5t146 30.5q100 0 163.5 -52t89.5 -146h4q2 10 5 33l7 48q3 26 7 49t5 32l22 141h-244l20 131h245l23 147h147l-24 -147h108l-21 -131h-107l-157 -983q-7 -39 -12 -75l-9 -66q-4 -30 -7 -52l-3 -30h-140q0 20 4.5 64
t12.5 96h-3q-29 -47 -59.5 -81t-65.5 -56.5t-74.5 -33t-88.5 -10.5z" />
    <glyph glyph-name="Emacron" unicode="&#x112;" horiz-adv-x="1120" 
d="M52 0l223 1409h861l-25 -156h-703l-73 -452h655l-25 -154h-654l-78 -491h737l-25 -156h-893zM1505 1570h-826l39 127h826z" />
    <glyph glyph-name="emacron" unicode="&#x113;" 
d="M210 503q-4 -28 -5.5 -56.5t-1.5 -56.5q0 -133 54.5 -204t163.5 -71q46 0 84 14.5t68.5 39t54 57t39.5 68.5l113 -63q-20 -45 -50 -89.5t-73.5 -80.5t-105 -58.5t-147.5 -22.5q-82 0 -146.5 28.5t-109.5 83t-68 133.5t-23 180q0 158 34.5 287t96.5 220t146 140.5
t183 49.5q90 0 156.5 -29t110.5 -81t66 -124.5t22 -159.5q0 -21 -1.5 -46t-4 -52t-6 -54.5t-8.5 -52.5h-642zM722 641q2 20 2.5 37.5t0.5 34.5q0 66 -15 114.5t-42 80t-64.5 46.5t-83.5 15q-39 0 -82.5 -14.5t-83.5 -51.5t-73 -100.5t-51 -161.5h492zM1298 1236h-826l39 127
h826z" />
    <glyph glyph-name="Ebreve" unicode="&#x114;" horiz-adv-x="1120" 
d="M52 0l223 1409h861l-25 -156h-703l-73 -452h655l-25 -154h-654l-78 -491h737l-25 -156h-893zM770 1520q-61 0 -106 20.5t-75 55t-45.5 79.5t-15.5 94h95q2 -59 44.5 -86t110.5 -27q147 0 199 114h96q-17 -49 -44 -94.5t-64 -80t-85.5 -55t-109.5 -20.5z" />
    <glyph glyph-name="ebreve" unicode="&#x115;" 
d="M210 503q-4 -28 -5.5 -56.5t-1.5 -56.5q0 -133 54.5 -204t163.5 -71q46 0 84 14.5t68.5 39t54 57t39.5 68.5l113 -63q-20 -45 -50 -89.5t-73.5 -80.5t-105 -58.5t-147.5 -22.5q-82 0 -146.5 28.5t-109.5 83t-68 133.5t-23 180q0 158 34.5 287t96.5 220t146 140.5
t183 49.5q90 0 156.5 -29t110.5 -81t66 -124.5t22 -159.5q0 -21 -1.5 -46t-4 -52t-6 -54.5t-8.5 -52.5h-642zM722 641q2 20 2.5 37.5t0.5 34.5q0 66 -15 114.5t-42 80t-64.5 46.5t-83.5 15q-39 0 -82.5 -14.5t-83.5 -51.5t-73 -100.5t-51 -161.5h492zM621 1201
q-61 0 -106 25.5t-75 68.5t-45.5 98.5t-15.5 116.5h95q2 -85 44.5 -124t110.5 -39q147 0 199 163h96q-17 -61 -44 -116.5t-64 -98.5t-85.5 -68.5t-109.5 -25.5z" />
    <glyph glyph-name="Edotaccent" unicode="&#x116;" horiz-adv-x="1120" 
d="M52 0l223 1409h861l-25 -156h-703l-73 -452h655l-25 -154h-654l-78 -491h737l-25 -156h-893zM719 1530l28 172h148l-28 -172h-148z" />
    <glyph glyph-name="edotaccent" unicode="&#x117;" 
d="M210 503q-4 -28 -5.5 -56.5t-1.5 -56.5q0 -133 54.5 -204t163.5 -71q46 0 84 14.5t68.5 39t54 57t39.5 68.5l113 -63q-20 -45 -50 -89.5t-73.5 -80.5t-105 -58.5t-147.5 -22.5q-82 0 -146.5 28.5t-109.5 83t-68 133.5t-23 180q0 158 34.5 287t96.5 220t146 140.5
t183 49.5q90 0 156.5 -29t110.5 -81t66 -124.5t22 -159.5q0 -21 -1.5 -46t-4 -52t-6 -54.5t-8.5 -52.5h-642zM722 641q2 20 2.5 37.5t0.5 34.5q0 66 -15 114.5t-42 80t-64.5 46.5t-83.5 15q-39 0 -82.5 -14.5t-83.5 -51.5t-73 -100.5t-51 -161.5h492zM542 1312l28 172h148
l-28 -172h-148z" />
    <glyph glyph-name="Eogonek" unicode="&#x118;" horiz-adv-x="1120" 
d="M52 0l223 1409h861l-25 -156h-703l-73 -452h655l-25 -154h-654l-78 -491h737l-25 -156h-893zM815 -427q-72 0 -109 47t-37 121q0 52 17 95t42 75t54.5 54.5t54.5 34.5h109q-22 -14 -50 -36.5t-51.5 -52.5t-40 -67t-16.5 -80q0 -34 16.5 -57.5t47.5 -23.5q26 0 47.5 5.5
t45.5 16.5l-12 -105q-25 -12 -53.5 -19.5t-64.5 -7.5z" />
    <glyph glyph-name="eogonek" unicode="&#x119;" 
d="M210 503q-4 -28 -5.5 -56.5t-1.5 -56.5q0 -133 54.5 -204t163.5 -71q46 0 84 14.5t68.5 39t54 57t39.5 68.5l113 -63q-20 -45 -50 -89.5t-73.5 -80.5t-105 -58.5t-147.5 -22.5q-82 0 -146.5 28.5t-109.5 83t-68 133.5t-23 180q0 158 34.5 287t96.5 220t146 140.5
t183 49.5q90 0 156.5 -29t110.5 -81t66 -124.5t22 -159.5q0 -21 -1.5 -46t-4 -52t-6 -54.5t-8.5 -52.5h-642zM722 641q2 20 2.5 37.5t0.5 34.5q0 66 -15 114.5t-42 80t-64.5 46.5t-83.5 15q-39 0 -82.5 -14.5t-83.5 -51.5t-73 -100.5t-51 -161.5h492zM517 -407
q-72 0 -109 47t-37 121q0 52 17 95t42 75t54.5 54.5t54.5 34.5h109q-22 -14 -50 -36.5t-51.5 -52.5t-40 -67t-16.5 -80q0 -34 16.5 -57.5t47.5 -23.5q26 0 47.5 5.5t45.5 16.5l-12 -105q-25 -12 -53.5 -19.5t-64.5 -7.5z" />
    <glyph glyph-name="Ecaron" unicode="&#x11a;" horiz-adv-x="1120" 
d="M52 0l223 1409h861l-25 -156h-703l-73 -452h655l-25 -154h-654l-78 -491h737l-25 -156h-893zM871 1530h-167l-153 239l3 21h76l168 -139h2l202 139h95l-4 -21z" />
    <glyph glyph-name="ecaron" unicode="&#x11b;" 
d="M210 503q-4 -28 -5.5 -56.5t-1.5 -56.5q0 -133 54.5 -204t163.5 -71q46 0 84 14.5t68.5 39t54 57t39.5 68.5l113 -63q-20 -45 -50 -89.5t-73.5 -80.5t-105 -58.5t-147.5 -22.5q-82 0 -146.5 28.5t-109.5 83t-68 133.5t-23 180q0 158 34.5 287t96.5 220t146 140.5
t183 49.5q90 0 156.5 -29t110.5 -81t66 -124.5t22 -159.5q0 -21 -1.5 -46t-4 -52t-6 -54.5t-8.5 -52.5h-642zM722 641q2 20 2.5 37.5t0.5 34.5q0 66 -15 114.5t-42 80t-64.5 46.5t-83.5 15q-39 0 -82.5 -14.5t-83.5 -51.5t-73 -100.5t-51 -161.5h492zM684 1201h-167
l-149 270l4 20h79l163 -169h2l207 169h91l-3 -20z" />
    <glyph glyph-name="Gcircumflex" unicode="&#x11c;" horiz-adv-x="1307" 
d="M1140 210q-46 -48 -99.5 -90t-118.5 -73t-142.5 -49t-170.5 -18q-133 0 -232 43.5t-164 121.5t-97.5 187t-32.5 241q0 188 48.5 345.5t138.5 271t218 177t287 63.5q107 0 185.5 -27t133.5 -73t89 -106t52 -126l-159 -54q-12 47 -35 88.5t-60 73t-90.5 50t-125.5 18.5
q-126 0 -223 -52.5t-163.5 -146t-100.5 -221t-34 -277.5q0 -97 22 -178t67.5 -139.5t115.5 -91.5t165 -33q75 0 136.5 15t111 37.5t86.5 50.5t62 53l42 254h-346l27 160h489zM1136 1550l-3 -20h-78l-157 139h-2l-212 -139h-93l3 20l230 240h167z" />
    <glyph glyph-name="gcircumflex" unicode="&#x11d;" 
d="M326 -425q-76 0 -133 18.5t-96 51.5t-61.5 79.5t-32.5 102.5l134 42q14 -76 62 -116.5t130 -40.5q59 0 104 18.5t77.5 56.5t54 97.5t34.5 142.5l9 56l9 56l10 62h-1q-23 -40 -49 -78t-59.5 -67t-78 -46.5t-103.5 -17.5q-65 0 -116.5 27.5t-87.5 76t-55.5 116t-19.5 147.5
q0 49 4.5 103.5t14.5 117.5q41 261 139 391t267 130q47 0 89 -13.5t75 -40t57 -64.5t35 -86h2q4 25 10 56t12 59l10 47q5 20 7 23h140q-2 -9 -6 -30l-9 -52q-6 -30 -12 -66l-13 -76l-132 -827q-17 -107 -47.5 -191.5t-80.5 -143.5t-121.5 -90t-171.5 -31zM212 373
q0 -121 43 -184.5t127 -63.5q44 0 89.5 23t86.5 73t73 129t50 191q7 42 10.5 86.5t3.5 76.5q0 67 -15 116.5t-41.5 82.5t-62.5 49t-78 16q-51 0 -92.5 -18.5t-74.5 -63t-57.5 -119t-42.5 -187.5q-9 -59 -14 -113t-5 -94zM846 1221l-3 -20h-76l-152 169h-2l-217 -169h-95
l3 20l235 270h167z" />
    <glyph glyph-name="Gbreve" unicode="&#x11e;" horiz-adv-x="1307" 
d="M1140 210q-46 -48 -99.5 -90t-118.5 -73t-142.5 -49t-170.5 -18q-133 0 -232 43.5t-164 121.5t-97.5 187t-32.5 241q0 188 48.5 345.5t138.5 271t218 177t287 63.5q107 0 185.5 -27t133.5 -73t89 -106t52 -126l-159 -54q-12 47 -35 88.5t-60 73t-90.5 50t-125.5 18.5
q-126 0 -223 -52.5t-163.5 -146t-100.5 -221t-34 -277.5q0 -97 22 -178t67.5 -139.5t115.5 -91.5t165 -33q75 0 136.5 15t111 37.5t86.5 50.5t62 53l42 254h-346l27 160h489zM879 1520q-61 0 -106 20.5t-75 55t-45.5 79.5t-15.5 94h95q2 -59 44.5 -86t110.5 -27
q147 0 199 114h96q-17 -49 -44 -94.5t-64 -80t-85.5 -55t-109.5 -20.5z" />
    <glyph glyph-name="gbreve" unicode="&#x11f;" 
d="M326 -425q-76 0 -133 18.5t-96 51.5t-61.5 79.5t-32.5 102.5l134 42q14 -76 62 -116.5t130 -40.5q59 0 104 18.5t77.5 56.5t54 97.5t34.5 142.5l9 56l9 56l10 62h-1q-23 -40 -49 -78t-59.5 -67t-78 -46.5t-103.5 -17.5q-65 0 -116.5 27.5t-87.5 76t-55.5 116t-19.5 147.5
q0 49 4.5 103.5t14.5 117.5q41 261 139 391t267 130q47 0 89 -13.5t75 -40t57 -64.5t35 -86h2q4 25 10 56t12 59l10 47q5 20 7 23h140q-2 -9 -6 -30l-9 -52q-6 -30 -12 -66l-13 -76l-132 -827q-17 -107 -47.5 -191.5t-80.5 -143.5t-121.5 -90t-171.5 -31zM212 373
q0 -121 43 -184.5t127 -63.5q44 0 89.5 23t86.5 73t73 129t50 191q7 42 10.5 86.5t3.5 76.5q0 67 -15 116.5t-41.5 82.5t-62.5 49t-78 16q-51 0 -92.5 -18.5t-74.5 -63t-57.5 -119t-42.5 -187.5q-9 -59 -14 -113t-5 -94zM598 1201q-61 0 -106 25.5t-75 68.5t-45.5 98.5
t-15.5 116.5h95q2 -85 44.5 -124t110.5 -39q147 0 199 163h96q-17 -61 -44 -116.5t-64 -98.5t-85.5 -68.5t-109.5 -25.5z" />
    <glyph glyph-name="Gdotaccent" unicode="&#x120;" horiz-adv-x="1307" 
d="M1140 210q-46 -48 -99.5 -90t-118.5 -73t-142.5 -49t-170.5 -18q-133 0 -232 43.5t-164 121.5t-97.5 187t-32.5 241q0 188 48.5 345.5t138.5 271t218 177t287 63.5q107 0 185.5 -27t133.5 -73t89 -106t52 -126l-159 -54q-12 47 -35 88.5t-60 73t-90.5 50t-125.5 18.5
q-126 0 -223 -52.5t-163.5 -146t-100.5 -221t-34 -277.5q0 -97 22 -178t67.5 -139.5t115.5 -91.5t165 -33q75 0 136.5 15t111 37.5t86.5 50.5t62 53l42 254h-346l27 160h489zM807 1530l28 172h148l-28 -172h-148z" />
    <glyph glyph-name="gdotaccent" unicode="&#x121;" 
d="M326 -425q-76 0 -133 18.5t-96 51.5t-61.5 79.5t-32.5 102.5l134 42q14 -76 62 -116.5t130 -40.5q59 0 104 18.5t77.5 56.5t54 97.5t34.5 142.5l9 56l9 56l10 62h-1q-23 -40 -49 -78t-59.5 -67t-78 -46.5t-103.5 -17.5q-65 0 -116.5 27.5t-87.5 76t-55.5 116t-19.5 147.5
q0 49 4.5 103.5t14.5 117.5q41 261 139 391t267 130q47 0 89 -13.5t75 -40t57 -64.5t35 -86h2q4 25 10 56t12 59l10 47q5 20 7 23h140q-2 -9 -6 -30l-9 -52q-6 -30 -12 -66l-13 -76l-132 -827q-17 -107 -47.5 -191.5t-80.5 -143.5t-121.5 -90t-171.5 -31zM212 373
q0 -121 43 -184.5t127 -63.5q44 0 89.5 23t86.5 73t73 129t50 191q7 42 10.5 86.5t3.5 76.5q0 67 -15 116.5t-41.5 82.5t-62.5 49t-78 16q-51 0 -92.5 -18.5t-74.5 -63t-57.5 -119t-42.5 -187.5q-9 -59 -14 -113t-5 -94zM561 1312l28 172h148l-28 -172h-148z" />
    <glyph glyph-name="Gcommaaccent" unicode="&#x122;" horiz-adv-x="1307" 
d="M1140 210q-46 -48 -99.5 -90t-118.5 -73t-142.5 -49t-170.5 -18q-133 0 -232 43.5t-164 121.5t-97.5 187t-32.5 241q0 188 48.5 345.5t138.5 271t218 177t287 63.5q107 0 185.5 -27t133.5 -73t89 -106t52 -126l-159 -54q-12 47 -35 88.5t-60 73t-90.5 50t-125.5 18.5
q-126 0 -223 -52.5t-163.5 -146t-100.5 -221t-34 -277.5q0 -97 22 -178t67.5 -139.5t115.5 -91.5t165 -33q75 0 136.5 15t111 37.5t86.5 50.5t62 53l42 254h-346l27 160h489zM766 -204q-14 -87 -41.5 -145.5t-67.5 -105.5h-96q44 48 72 96t36 94h-73l27 167h159z" />
    <glyph glyph-name="gcommaaccent" unicode="&#x123;" 
d="M326 -425q-76 0 -133 18.5t-96 51.5t-61.5 79.5t-32.5 102.5l134 42q14 -76 62 -116.5t130 -40.5q59 0 104 18.5t77.5 56.5t54 97.5t34.5 142.5l9 56l9 56l10 62h-1q-23 -40 -49 -78t-59.5 -67t-78 -46.5t-103.5 -17.5q-65 0 -116.5 27.5t-87.5 76t-55.5 116t-19.5 147.5
q0 49 4.5 103.5t14.5 117.5q41 261 139 391t267 130q47 0 89 -13.5t75 -40t57 -64.5t35 -86h2q4 25 10 56t12 59l10 47q5 20 7 23h140q-2 -9 -6 -30l-9 -52q-6 -30 -12 -66l-13 -76l-132 -827q-17 -107 -47.5 -191.5t-80.5 -143.5t-121.5 -90t-171.5 -31zM212 373
q0 -121 43 -184.5t127 -63.5q44 0 89.5 23t86.5 73t73 129t50 191q7 42 10.5 86.5t3.5 76.5q0 67 -15 116.5t-41.5 82.5t-62.5 49t-78 16q-51 0 -92.5 -18.5t-74.5 -63t-57.5 -119t-42.5 -187.5q-9 -59 -14 -113t-5 -94zM545 1317q14 87 41.5 145.5t67.5 105.5h96
q-44 -48 -72 -96t-35 -94h72l-26 -167h-160z" />
    <glyph glyph-name="Hcircumflex" unicode="&#x124;" horiz-adv-x="1212" 
d="M837 0l104 653h-629l-104 -653h-156l224 1409h157l-95 -596h628l95 596h153l-225 -1409h-152zM1103 1550l-3 -20h-78l-157 139h-2l-212 -139h-93l3 20l230 240h167z" />
    <glyph glyph-name="hcircumflex" unicode="&#x125;" 
d="M314 897q28 47 57.5 85t65 64.5t78.5 40.5t98 14q121 0 182.5 -73t61.5 -211q0 -36 -5.5 -81t-11.5 -83l-104 -653h-149l103 645q7 39 11 79.5t4 70.5q0 79 -34.5 123t-112.5 44q-52 0 -98.5 -25.5t-84 -72t-64 -112t-40.5 -146.5l-96 -606h-147l236 1484h148l-62 -386
q-5 -33 -11 -66t-12 -60.5t-10 -47.5t-5 -27h2zM972 1629l-3 -20h-78l-157 139h-2l-212 -139h-93l3 20l230 240h167z" />
    <glyph glyph-name="Hbar" unicode="&#x126;" horiz-adv-x="1212" 
d="M836 0l103 653h-628l-104 -653h-156l163 1025h-126l24 154h126l37 230h156l-36 -230h629l36 230h152l-36 -230h125l-24 -154h-126l-163 -1025h-152zM965 813l34 212h-629l-33 -212h628z" />
    <glyph glyph-name="hbar" unicode="&#x127;" 
d="M308 857q28 47 57 85t65 64.5t79 40.5t98 14q121 0 182 -73t61 -211q0 -36 -5 -81t-12 -83l-97 -613h-149l97 605q7 39 11 79.5t4 70.5q0 79 -34.5 123t-112.5 44q-52 0 -98.5 -25.5t-84.5 -72t-64.5 -112t-39.5 -146.5l-90 -566h-147l192 1206h-108l21 131h107l24 147
h148l-24 -147h247l-21 -131h-247l-23 -148q-5 -33 -12 -66l-12 -60l-9 -48q-4 -20 -6 -27h3z" />
    <glyph glyph-name="Itilde" unicode="&#x128;" horiz-adv-x="467" 
d="M66 0l225 1409h157l-225 -1409h-157zM513 1530q-34 0 -65 20t-59.5 44.5t-54.5 44.5t-51 20q-22 0 -39 -9.5t-29.5 -26.5t-22.5 -40.5t-18 -52.5h-82q11 45 26.5 92.5t39 86.5t57.5 64t83 25q36 0 67 -20t59 -44.5t53.5 -44.5t49.5 -20q22 0 39 10t29.5 27t22.5 40.5
t18 51.5h83q-11 -44 -26.5 -91.5t-38.5 -86.5t-57.5 -64.5t-83.5 -25.5z" />
    <glyph glyph-name="itilde" unicode="&#x129;" horiz-adv-x="467" 
d="M73 0l172 1082h148l-173 -1082h-147zM454 1201q-34 0 -65.5 18.5t-60 41t-54.5 41t-51 18.5q-45 0 -72.5 -31t-44.5 -88h-74q11 45 27 92.5t39.5 86.5t57.5 64t82 25q36 0 67.5 -18.5t59.5 -41t53.5 -41t49.5 -18.5q44 0 72 31.5t44 87.5h75q-11 -44 -26 -91.5
t-38.5 -86.5t-57.5 -64.5t-83 -25.5z" />
    <glyph glyph-name="Imacron" unicode="&#x12a;" horiz-adv-x="467" 
d="M66 0l225 1409h157l-225 -1409h-157zM1091 1570h-826l39 127h826z" />
    <glyph glyph-name="imacron" unicode="&#x12b;" horiz-adv-x="467" 
d="M73 0l172 1082h148l-173 -1082h-147zM1033 1236h-826l39 127h826z" />
    <glyph glyph-name="Ibreve" unicode="&#x12c;" horiz-adv-x="467" 
d="M66 0l225 1409h157l-225 -1409h-157zM387 1520q-61 0 -106 20.5t-75 55t-45.5 79.5t-15.5 94h95q2 -59 44.5 -86t110.5 -27q147 0 199 114h96q-17 -49 -44 -94.5t-64 -80t-85.5 -55t-109.5 -20.5z" />
    <glyph glyph-name="ibreve" unicode="&#x12d;" horiz-adv-x="467" 
d="M73 0l172 1082h148l-173 -1082h-147zM337 1201q-61 0 -106 25.5t-75 68.5t-45.5 98.5t-15.5 116.5h95q2 -85 44.5 -124t110.5 -39q147 0 199 163h96q-17 -61 -44 -116.5t-64 -98.5t-85.5 -68.5t-109.5 -25.5z" />
    <glyph glyph-name="Iogonek" unicode="&#x12e;" horiz-adv-x="467" 
d="M66 0l225 1409h157l-225 -1409h-157zM69 -427q-72 0 -109 47t-37 121q0 52 17 95t42 75t54.5 54.5t54.5 34.5h109q-22 -14 -50 -36.5t-51.5 -52.5t-40 -67t-16.5 -80q0 -34 16.5 -57.5t47.5 -23.5q26 0 47.5 5.5t45.5 16.5l-12 -105q-25 -12 -53.5 -19.5t-64.5 -7.5z" />
    <glyph glyph-name="iogonek" unicode="&#x12f;" horiz-adv-x="373" 
d="M235 1312l28 172h148l-28 -172h-148zM27 0l172 1082h148l-173 -1082h-147zM8 -427q-72 0 -109 47t-37 121q0 52 17 95t42 75t54.5 54.5t54.5 34.5h109q-22 -14 -50 -36.5t-51.5 -52.5t-40 -67t-16.5 -80q0 -34 16.5 -57.5t47.5 -23.5q26 0 47.5 5.5t45.5 16.5l-12 -105
q-25 -12 -53.5 -19.5t-64.5 -7.5z" />
    <glyph glyph-name="Idotaccent" unicode="&#x130;" horiz-adv-x="467" 
d="M66 0l225 1409h157l-225 -1409h-157zM314 1530l28 172h148l-28 -172h-148z" />
    <glyph glyph-name="dotlessi" unicode="&#x131;" horiz-adv-x="467" 
d="M73 0l172 1082h148l-173 -1082h-147z" />
    <glyph glyph-name="IJ" unicode="&#x132;" horiz-adv-x="1307" 
d="M66 0l225 1409h157l-225 -1409h-157zM791 -20q-130 0 -213 93t-104 270l138 33q19 -117 64.5 -179t127.5 -62q49 0 85.5 22t62.5 62t42.5 96.5t27.5 124.5l129 813h-239l25 156h394l-158 -986q-16 -100 -45 -182t-74.5 -140t-110 -89.5t-152.5 -31.5z" />
    <glyph glyph-name="ij" unicode="&#x133;" horiz-adv-x="746" 
d="M235 1312l28 172h148l-28 -172h-148zM27 0l172 1082h148l-173 -1082h-147zM691 1312l27 172h148l-28 -172h-147zM372 -425q-28 0 -56 4.5t-50 9.5l19 136q11 -2 31.5 -5t36.5 -3q48 0 73 42t39 134l189 1189h148l-195 -1216q-10 -62 -26 -115t-43 -92t-67.5 -61.5
t-98.5 -22.5z" />
    <glyph glyph-name="Jcircumflex" unicode="&#x134;" horiz-adv-x="840" 
d="M313 -20q-130 0 -213 93t-104 270l138 33q19 -117 64.5 -179t127.5 -62q49 0 85.5 22t62.5 62t42.5 96.5t27.5 124.5l129 813h-239l25 156h394l-158 -986q-16 -100 -45 -182t-74.5 -140t-110 -89.5t-152.5 -31.5zM1016 1550l-3 -20h-78l-157 139h-2l-212 -139h-93l3 20
l230 240h167z" />
    <glyph glyph-name="jcircumflex" unicode="&#x135;" horiz-adv-x="373" 
d="M548 1221l-3 -20h-75l-153 169h-1l-218 -169h-95l4 20l234 270h167zM-82 -425q-28 0 -56 4.5t-50 9.5l19 136q11 -2 31.5 -5t36.5 -3q48 0 73 42t39 134l189 1189h148l-195 -1216q-10 -62 -26 -115t-43 -92t-67.5 -61.5t-98.5 -22.5z" />
    <glyph glyph-name="Kcommaaccent" unicode="&#x136;" horiz-adv-x="1120" 
d="M838 0l-387 674l-156 -129l-87 -545h-156l223 1409h157l-111 -691l114 129l546 562h200l-614 -630l456 -779h-185zM638 -204q-14 -87 -41.5 -145.5t-67.5 -105.5h-96q44 48 72 96t36 94h-73l27 167h159z" />
    <glyph glyph-name="kcommaaccent" unicode="&#x137;" horiz-adv-x="840" 
d="M591 0l-219 502l-138 -124l-59 -378h-147l236 1484h148l-147 -917l167 190l296 325h183l-435 -465l275 -617h-160zM486 -204q-14 -87 -41.5 -145.5t-67.5 -105.5h-96q44 48 72 96t36 94h-73l27 167h159z" />
    <glyph glyph-name="kgreenlandic" unicode="&#x138;" horiz-adv-x="840" 
d="M591 0l-219 502l-138 -124l-59 -378h-147l172 1082h148l-83 -515l167 190l296 325h183l-435 -465l275 -617h-160z" />
    <glyph glyph-name="Lacute" unicode="&#x139;" 
d="M52 0l224 1409h156l-199 -1253h584l-25 -156h-740zM393 1530l2 20l214 226h170l-4 -29l-289 -217h-93z" />
    <glyph glyph-name="lacute" unicode="&#x13a;" horiz-adv-x="373" 
d="M27 0l236 1484h148l-237 -1484h-147zM261 1609l2 20l214 226h170l-4 -29l-289 -217h-93z" />
    <glyph glyph-name="Lcommaaccent" unicode="&#x13b;" 
d="M52 0l224 1409h156l-199 -1253h584l-25 -156h-740zM541 -204q-14 -87 -41.5 -145.5t-67.5 -105.5h-96q44 48 72 96t36 94h-73l27 167h159z" />
    <glyph glyph-name="lcommaaccent" unicode="&#x13c;" horiz-adv-x="373" 
d="M27 0l236 1484h148l-237 -1484h-147zM121 -204q-14 -87 -41.5 -145.5t-67.5 -105.5h-96q44 48 72 96t36 94h-73l27 167h159z" />
    <glyph glyph-name="Lcaron" unicode="&#x13d;" 
d="M52 0l224 1409h156l-199 -1253h584l-25 -156h-740zM941 1303q-14 -87 -41.5 -145.5t-67.5 -105.5h-96q44 48 72 96t36 94h-72l26 167h160z" />
    <glyph glyph-name="lcaron" unicode="&#x13e;" horiz-adv-x="473" 
d="M27 0l236 1484h148l-237 -1484h-147zM680 1378q-14 -87 -41.5 -145.5t-67.5 -105.5h-96q44 48 72 96t36 94h-72l26 167h160z" />
    <glyph glyph-name="Ldot" unicode="&#x13f;" 
d="M52 0l224 1409h156l-199 -1253h584l-25 -156h-740zM615 686l28 172h148l-28 -172h-148z" />
    <glyph glyph-name="ldot" unicode="&#x140;" horiz-adv-x="551" 
d="M27 0l236 1484h148l-237 -1484h-147zM481 686l28 172h148l-28 -172h-148z" />
    <glyph glyph-name="Lslash" unicode="&#x141;" 
d="M560 797l-251 -149l-78 -492h584l-25 -156h-741l86 538l-133 -85l23 158l136 85l113 713h157l-96 -603l250 148z" />
    <glyph glyph-name="lslash" unicode="&#x142;" horiz-adv-x="373" 
d="M26 0l86 542l-110 -68l25 158l110 68l125 784h148l-108 -680l113 72l-26 -159l-113 -71l-103 -646h-147z" />
    <glyph glyph-name="Nacute" unicode="&#x143;" horiz-adv-x="1212" 
d="M809 0l-435 1210q-5 -46 -11 -94l-11 -88q-6 -46 -13 -85l-148 -943h-139l223 1409h174l438 -1215q5 43 10 91l11 91q7 51 16 102l148 931h141l-224 -1409h-180zM749 1530l2 20l214 226h170l-4 -29l-289 -217h-93z" />
    <glyph glyph-name="nacute" unicode="&#x144;" 
d="M592 0l103 645q7 39 11 79.5t4 70.5q0 79 -34.5 123t-112.5 44q-52 0 -98.5 -25.5t-84 -72t-64.5 -112t-40 -146.5l-97 -606h-147l136 851q6 34 11 71l9 72l8 57q3 24 4 31h139q0 -5 -3 -27l-6 -51l-6 -58q-4 -29 -8 -49h3q28 47 57.5 85t65 64.5t78.5 40.5t98 14
q121 0 182.5 -73t61.5 -211q0 -36 -5.5 -81t-11.5 -83l-105 -653h-148zM531 1201l3 20l207 287h178l-4 -29l-307 -278h-77z" />
    <glyph glyph-name="Ncommaaccent" unicode="&#x145;" horiz-adv-x="1212" 
d="M809 0l-435 1210q-5 -46 -11 -94l-11 -88q-6 -46 -13 -85l-148 -943h-139l223 1409h174l438 -1215q5 43 10 91l11 91q7 51 16 102l148 931h141l-224 -1409h-180zM646 -204q-14 -87 -41.5 -145.5t-67.5 -105.5h-96q44 48 72 96t36 94h-73l27 167h159z" />
    <glyph glyph-name="ncommaaccent" unicode="&#x146;" 
d="M592 0l103 645q7 39 11 79.5t4 70.5q0 79 -34.5 123t-112.5 44q-52 0 -98.5 -25.5t-84 -72t-64.5 -112t-40 -146.5l-97 -606h-147l136 851q6 34 11 71l9 72l8 57q3 24 4 31h139q0 -5 -3 -27l-6 -51l-6 -58q-4 -29 -8 -49h3q28 47 57.5 85t65 64.5t78.5 40.5t98 14
q121 0 182.5 -73t61.5 -211q0 -36 -5.5 -81t-11.5 -83l-105 -653h-148zM486 -204q-14 -87 -41.5 -145.5t-67.5 -105.5h-96q44 48 72 96t36 94h-73l27 167h159z" />
    <glyph glyph-name="Ncaron" unicode="&#x147;" horiz-adv-x="1212" 
d="M809 0l-435 1210q-5 -46 -11 -94l-11 -88q-6 -46 -13 -85l-148 -943h-139l223 1409h174l438 -1215q5 43 10 91l11 91q7 51 16 102l148 931h141l-224 -1409h-180zM913 1530h-167l-153 239l3 21h76l168 -139h2l202 139h95l-4 -21z" />
    <glyph glyph-name="ncaron" unicode="&#x148;" 
d="M592 0l103 645q7 39 11 79.5t4 70.5q0 79 -34.5 123t-112.5 44q-52 0 -98.5 -25.5t-84 -72t-64.5 -112t-40 -146.5l-97 -606h-147l136 851q6 34 11 71l9 72l8 57q3 24 4 31h139q0 -5 -3 -27l-6 -51l-6 -58q-4 -29 -8 -49h3q28 47 57.5 85t65 64.5t78.5 40.5t98 14
q121 0 182.5 -73t61.5 -211q0 -36 -5.5 -81t-11.5 -83l-105 -653h-148zM691 1201h-167l-149 270l4 20h79l163 -169h2l207 169h91l-3 -20z" />
    <glyph glyph-name="napostrophe" unicode="&#x149;" horiz-adv-x="1174" 
d="M708 0l103 645q7 39 11 79.5t4 70.5q0 79 -34.5 123t-112.5 44q-52 0 -98.5 -25.5t-84 -72t-64.5 -112t-40 -146.5l-97 -606h-147l136 851q6 34 11 71l9 72l8 57q3 24 4 31h139q0 -5 -3 -27l-6 -51l-6 -58q-4 -29 -8 -49h3q28 47 57.5 85t65 64.5t78.5 40.5t98 14
q121 0 182.5 -73t61.5 -211q0 -36 -5.5 -81t-11.5 -83l-105 -653h-148zM231 1264q-8 -52 -19 -95.5t-25 -81t-31 -70.5t-39 -65h-101q47 65 78 131t41 129h-72l31 197h160z" />
    <glyph glyph-name="Eng" unicode="&#x14a;" horiz-adv-x="1214" 
d="M698 -20q-91 0 -155 43.5t-100 111.5l115 108q28 -48 67 -79t83 -31q49 0 83.5 24.5t59 75t42.5 128.5t35 185l60 378q5 30 8 64.5t3 59.5q0 109 -53.5 167.5t-170.5 58.5q-76 0 -147 -31t-129 -83.5t-97.5 -122t-51.5 -146.5l-142 -891h-156l173 1092l13 83l14 91l12 83
q6 38 8 60h151q-2 -22 -7 -53l-8 -66l-10 -70l-9 -62h4q37 62 82 112t97.5 85t114 54.5t130.5 19.5q337 0 337 -357q0 -55 -4.5 -95.5t-9.5 -72.5l-57 -362q-21 -133 -45 -237.5t-64.5 -176.5t-106 -110t-169.5 -38z" />
    <glyph glyph-name="eng" unicode="&#x14b;" 
d="M714 -134q-10 -62 -26 -115t-43 -92t-67.5 -61.5t-98.5 -22.5q-28 0 -56.5 4.5t-49.5 9.5l19 136q11 -2 31.5 -5t36.5 -3q48 0 73 42t39 134l119 752q7 39 11 79.5t4 70.5q0 79 -34.5 123t-112.5 44q-52 0 -98.5 -25.5t-84 -72t-64.5 -112t-40 -146.5l-97 -606h-147
l136 851q6 34 11 71l9 72l8 57q3 24 4 31h139q0 -5 -3 -27l-6 -51l-6 -58q-4 -29 -8 -49h3q28 47 57.5 85t65 64.5t78.5 40.5t98 14q121 0 182.5 -73t61.5 -211q0 -36 -5.5 -81t-11.5 -83z" />
    <glyph glyph-name="Omacron" unicode="&#x14c;" horiz-adv-x="1307" 
d="M770 1430q118 0 209 -42.5t153.5 -119.5t95 -183t32.5 -234q-1 -49 -4.5 -101.5t-11.5 -100.5q-25 -154 -83 -277.5t-144 -210.5t-196 -134t-239 -47q-123 0 -215 43.5t-153 122t-92 187.5t-31 240q0 46 3.5 94t12.5 97q25 150 82 273t143 210.5t197 135t241 47.5z
M762 1276q-107 0 -191 -37t-146 -107t-102 -171t-61 -229q-7 -43 -10.5 -86.5t-3.5 -82.5q0 -107 23 -187.5t67 -134t107.5 -80t143.5 -26.5q108 0 192.5 37.5t146 108t102 171t60.5 225.5q7 42 10.5 87t3.5 83q0 107 -24 187.5t-68.5 134t-107.5 80.5t-142 27zM1574 1570
h-826l39 127h826z" />
    <glyph glyph-name="omacron" unicode="&#x14d;" 
d="M881 683q0 -52 -5 -104.5t-17 -111.5q-25 -132 -68.5 -225t-102.5 -151t-131 -84.5t-154 -26.5q-79 0 -143 29.5t-109.5 86t-70.5 138t-25 185.5q1 47 4.5 97t13.5 104q24 126 65.5 216.5t99 149.5t130 87t158.5 28q87 0 153 -28t111 -82t68 -131.5t23 -176.5zM728 683
q0 77 -14 131t-40.5 88.5t-64 50.5t-84.5 16q-43 0 -87 -12.5t-84 -50.5t-73 -108t-55 -186q-11 -55 -15 -104.5t-4 -91.5q0 -82 15.5 -140t43 -94t64.5 -52.5t82 -16.5q44 0 87 12t81.5 50.5t71 109.5t54.5 188q11 60 15.5 110t6.5 100zM1283 1236h-826l39 127h826z" />
    <glyph glyph-name="Obreve" unicode="&#x14e;" horiz-adv-x="1307" 
d="M770 1430q118 0 209 -42.5t153.5 -119.5t95 -183t32.5 -234q-1 -49 -4.5 -101.5t-11.5 -100.5q-25 -154 -83 -277.5t-144 -210.5t-196 -134t-239 -47q-123 0 -215 43.5t-153 122t-92 187.5t-31 240q0 46 3.5 94t12.5 97q25 150 82 273t143 210.5t197 135t241 47.5z
M762 1276q-107 0 -191 -37t-146 -107t-102 -171t-61 -229q-7 -43 -10.5 -86.5t-3.5 -82.5q0 -107 23 -187.5t67 -134t107.5 -80t143.5 -26.5q108 0 192.5 37.5t146 108t102 171t60.5 225.5q7 42 10.5 87t3.5 83q0 107 -24 187.5t-68.5 134t-107.5 80.5t-142 27zM873 1520
q-61 0 -106 20.5t-75 55t-45.5 79.5t-15.5 94h95q2 -59 44.5 -86t110.5 -27q147 0 199 114h96q-17 -49 -44 -94.5t-64 -80t-85.5 -55t-109.5 -20.5z" />
    <glyph glyph-name="obreve" unicode="&#x14f;" 
d="M881 683q0 -52 -5 -104.5t-17 -111.5q-25 -132 -68.5 -225t-102.5 -151t-131 -84.5t-154 -26.5q-79 0 -143 29.5t-109.5 86t-70.5 138t-25 185.5q1 47 4.5 97t13.5 104q24 126 65.5 216.5t99 149.5t130 87t158.5 28q87 0 153 -28t111 -82t68 -131.5t23 -176.5zM728 683
q0 77 -14 131t-40.5 88.5t-64 50.5t-84.5 16q-43 0 -87 -12.5t-84 -50.5t-73 -108t-55 -186q-11 -55 -15 -104.5t-4 -91.5q0 -82 15.5 -140t43 -94t64.5 -52.5t82 -16.5q44 0 87 12t81.5 50.5t71 109.5t54.5 188q11 60 15.5 110t6.5 100zM621 1201q-61 0 -106 25.5t-75 68.5
t-45.5 98.5t-15.5 116.5h95q2 -85 44.5 -124t110.5 -39q147 0 199 163h96q-17 -61 -44 -116.5t-64 -98.5t-85.5 -68.5t-109.5 -25.5z" />
    <glyph glyph-name="Ohungarumlaut" unicode="&#x150;" horiz-adv-x="1307" 
d="M770 1430q118 0 209 -42.5t153.5 -119.5t95 -183t32.5 -234q-1 -49 -4.5 -101.5t-11.5 -100.5q-25 -154 -83 -277.5t-144 -210.5t-196 -134t-239 -47q-123 0 -215 43.5t-153 122t-92 187.5t-31 240q0 46 3.5 94t12.5 97q25 150 82 273t143 210.5t197 135t241 47.5z
M762 1276q-107 0 -191 -37t-146 -107t-102 -171t-61 -229q-7 -43 -10.5 -86.5t-3.5 -82.5q0 -107 23 -187.5t67 -134t107.5 -80t143.5 -26.5q108 0 192.5 37.5t146 108t102 171t60.5 225.5q7 42 10.5 87t3.5 83q0 107 -24 187.5t-68.5 134t-107.5 80.5t-142 27zM648 1530
l2 20l182 227h170l-4 -29l-274 -218h-76zM931 1530l3 20l183 227h169l-4 -29l-274 -218h-77z" />
    <glyph glyph-name="ohungarumlaut" unicode="&#x151;" 
d="M881 683q0 -52 -5 -104.5t-17 -111.5q-25 -132 -68.5 -225t-102.5 -151t-131 -84.5t-154 -26.5q-79 0 -143 29.5t-109.5 86t-70.5 138t-25 185.5q1 47 4.5 97t13.5 104q24 126 65.5 216.5t99 149.5t130 87t158.5 28q87 0 153 -28t111 -82t68 -131.5t23 -176.5zM728 683
q0 77 -14 131t-40.5 88.5t-64 50.5t-84.5 16q-43 0 -87 -12.5t-84 -50.5t-73 -108t-55 -186q-11 -55 -15 -104.5t-4 -91.5q0 -82 15.5 -140t43 -94t64.5 -52.5t82 -16.5q44 0 87 12t81.5 50.5t71 109.5t54.5 188q11 60 15.5 110t6.5 100zM350 1201l2 20l207 287h170l-5 -29
l-298 -278h-76zM633 1201l3 20l207 287h170l-4 -29l-298 -278h-78z" />
    <glyph glyph-name="OE" unicode="&#x152;" horiz-adv-x="1679" 
d="M732 0q-31 -5 -74 -7.5t-82 -2.5q-119 0 -211.5 42t-154.5 118.5t-94.5 184t-32.5 238.5q0 94 15 191q24 150 82.5 271.5t144.5 207t196 131.5t237 46q20 0 49 -1t60 -2.5t60.5 -3.5t51.5 -4h716l-25 -156h-582l-72 -452h533l-25 -154h-533l-78 -491h616l-25 -156h-772z
M584 145q26 0 51.5 1t48.5 2.5t41.5 3.5t31.5 4l174 1099q-19 3 -43 5t-48.5 3.5t-48 2t-41.5 0.5q-103 0 -186.5 -35.5t-145.5 -103.5t-103.5 -167.5t-61.5 -227.5q-7 -43 -10.5 -86.5t-3.5 -82.5q0 -107 25 -186t70.5 -130.5t109 -76.5t140.5 -25z" />
    <glyph glyph-name="oe" unicode="&#x153;" horiz-adv-x="1585" 
d="M865 503q-4 -23 -6.5 -54.5t-2.5 -58.5q0 -133 54.5 -204t164.5 -71q46 0 83.5 14.5t67.5 39t53 57t39 68.5l113 -63q-20 -45 -49.5 -89.5t-73 -80.5t-104.5 -58.5t-146 -22.5q-110 0 -187 49.5t-119 143.5q-65 -101 -154 -144.5t-195 -43.5q-79 0 -143 28.5t-109 84
t-69.5 136.5t-24.5 185q1 47 4.5 97t13.5 104q24 126 65 216.5t98.5 149.5t129.5 87t158 28q116 0 194.5 -49.5t119.5 -142.5q62 93 146.5 143t183.5 50q90 0 156 -29t110 -81t65.5 -124.5t21.5 -159.5q0 -21 -1.5 -46t-4 -52t-6 -54.5t-8.5 -52.5h-638zM728 683
q0 77 -14 131t-40.5 88.5t-64 50.5t-84.5 16q-43 0 -87 -12.5t-83 -50.5t-72 -108t-55 -186q-11 -55 -15.5 -104.5t-4.5 -91.5q0 -82 15.5 -139t42.5 -92.5t64 -51t82 -15.5q44 0 87 11.5t81.5 48.5t71 107.5t54.5 187.5q11 60 15.5 110t6.5 100zM1373 641q2 20 2.5 37.5
t0.5 34.5q0 66 -14.5 114.5t-40.5 80t-64 46.5t-84 15q-39 0 -82.5 -14.5t-83 -51.5t-72.5 -100.5t-52 -161.5h490z" />
    <glyph glyph-name="Racute" unicode="&#x154;" horiz-adv-x="1212" 
d="M861 0l-199 585h-361l-93 -585h-156l223 1409h502q85 0 155.5 -25.5t121 -73.5t78.5 -116.5t28 -154.5q0 -188 -88.5 -298t-261.5 -139l220 -602h-169zM702 736q148 0 223.5 75.5t75.5 212.5q0 112 -61 172t-182 60h-350l-83 -520h377zM670 1530l2 20l214 226h170l-4 -29
l-289 -217h-93z" />
    <glyph glyph-name="racute" unicode="&#x155;" horiz-adv-x="559" 
d="M589 938q-14 5 -33.5 9t-40.5 4q-52 0 -94 -37t-73.5 -94t-52 -125.5t-29.5 -130.5l-91 -564h-147l133 830q6 35 11 70l8 68l9 62l7 52h139q-2 -22 -6 -52l-8 -61l-7 -59q-4 -29 -7 -49h3q25 62 50 107.5t52 75t58 44t68 14.5q9 0 19.5 -1.5t21.5 -3.5t21 -4.5t16 -4.5z
M325 1201l3 20l207 287h178l-4 -29l-307 -278h-77z" />
    <glyph glyph-name="Rcommaaccent" unicode="&#x156;" horiz-adv-x="1212" 
d="M861 0l-199 585h-361l-93 -585h-156l223 1409h502q85 0 155.5 -25.5t121 -73.5t78.5 -116.5t28 -154.5q0 -188 -88.5 -298t-261.5 -139l220 -602h-169zM702 736q148 0 223.5 75.5t75.5 212.5q0 112 -61 172t-182 60h-350l-83 -520h377zM671 -204q-14 -87 -41.5 -145.5
t-67.5 -105.5h-96q44 48 72 96t36 94h-73l27 167h159z" />
    <glyph glyph-name="rcommaaccent" unicode="&#x157;" horiz-adv-x="559" 
d="M589 938q-14 5 -33.5 9t-40.5 4q-52 0 -94 -37t-73.5 -94t-52 -125.5t-29.5 -130.5l-91 -564h-147l133 830q6 35 11 70l8 68l9 62l7 52h139q-2 -22 -6 -52l-8 -61l-7 -59q-4 -29 -7 -49h3q25 62 50 107.5t52 75t58 44t68 14.5q9 0 19.5 -1.5t21.5 -3.5t21 -4.5t16 -4.5z
M136 -204q-14 -87 -41.5 -145.5t-67.5 -105.5h-96q44 48 72 96t36 94h-73l27 167h159z" />
    <glyph glyph-name="Rcaron" unicode="&#x158;" horiz-adv-x="1212" 
d="M861 0l-199 585h-361l-93 -585h-156l223 1409h502q85 0 155.5 -25.5t121 -73.5t78.5 -116.5t28 -154.5q0 -188 -88.5 -298t-261.5 -139l220 -602h-169zM702 736q148 0 223.5 75.5t75.5 212.5q0 112 -61 172t-182 60h-350l-83 -520h377zM840 1530h-167l-153 239l3 21h76
l168 -139h2l202 139h95l-4 -21z" />
    <glyph glyph-name="rcaron" unicode="&#x159;" horiz-adv-x="559" 
d="M589 938q-14 5 -33.5 9t-40.5 4q-52 0 -94 -37t-73.5 -94t-52 -125.5t-29.5 -130.5l-91 -564h-147l133 830q6 35 11 70l8 68l9 62l7 52h139q-2 -22 -6 -52l-8 -61l-7 -59q-4 -29 -7 -49h3q25 62 50 107.5t52 75t58 44t68 14.5q9 0 19.5 -1.5t21.5 -3.5t21 -4.5t16 -4.5z
M499 1201h-167l-149 270l4 20h79l163 -169h2l207 169h91l-3 -20z" />
    <glyph glyph-name="Sacute" unicode="&#x15a;" horiz-adv-x="1120" 
d="M505 -20q-107 0 -186.5 23.5t-135.5 69t-89 112t-46 153.5l145 37q11 -62 33.5 -108t61 -76.5t95 -45.5t134.5 -15q80 0 144 13.5t108.5 45t68.5 82t24 125.5q0 51 -14 87t-48.5 64.5t-93 54t-147.5 55.5q-72 24 -135.5 53.5t-111 73t-75.5 105.5t-28 152q0 105 39 178.5
t104 120.5t149 68.5t175 21.5q99 0 173 -22t126 -61.5t83.5 -94.5t43.5 -120l-142 -51q-12 48 -34 86t-56.5 64.5t-82.5 40.5t-112 14q-85 0 -144 -17.5t-95.5 -49t-53 -75t-16.5 -94.5q0 -54 17 -89.5t51.5 -60.5t87.5 -45.5t125 -44.5q71 -24 139 -53t120 -73.5t84 -110.5
t32 -165q0 -206 -127.5 -317t-389.5 -111zM672 1530l3 20l207 287h178l-4 -29l-307 -278h-77z" />
    <glyph glyph-name="sacute" unicode="&#x15b;" horiz-adv-x="840" 
d="M744 317q0 -85 -28 -148.5t-79 -105.5t-124 -62.5t-164 -20.5q-76 0 -133.5 16t-99 46.5t-69 76t-43.5 104.5l121 56q12 -40 31.5 -71.5t47.5 -53t67 -32.5t91 -11t96 10.5t75.5 33.5t49 59t17.5 87q0 40 -15.5 68.5t-43.5 50t-69 40t-91 37.5q-53 21 -101 46t-84.5 60
t-58 82.5t-21.5 111.5q0 82 29 139.5t78.5 93.5t115.5 52.5t140 16.5q67 0 123 -14t98 -44.5t69 -79t37 -117.5l-134 -25q-18 79 -68 114t-135 35q-43 0 -81.5 -8t-67 -26t-45.5 -47t-17 -70t16 -68.5t44 -48.5t68 -38l89 -35q47 -18 95 -42t86.5 -59.5t63 -86t24.5 -122.5z
M456 1201l3 20l207 287h178l-4 -29l-307 -278h-77z" />
    <glyph glyph-name="Scircumflex" unicode="&#x15c;" horiz-adv-x="1120" 
d="M505 -20q-107 0 -186.5 23.5t-135.5 69t-89 112t-46 153.5l145 37q11 -62 33.5 -108t61 -76.5t95 -45.5t134.5 -15q80 0 144 13.5t108.5 45t68.5 82t24 125.5q0 51 -14 87t-48.5 64.5t-93 54t-147.5 55.5q-72 24 -135.5 53.5t-111 73t-75.5 105.5t-28 152q0 105 39 178.5
t104 120.5t149 68.5t175 21.5q99 0 173 -22t126 -61.5t83.5 -94.5t43.5 -120l-142 -51q-12 48 -34 86t-56.5 64.5t-82.5 40.5t-112 14q-85 0 -144 -17.5t-95.5 -49t-53 -75t-16.5 -94.5q0 -54 17 -89.5t51.5 -60.5t87.5 -45.5t125 -44.5q71 -24 139 -53t120 -73.5t84 -110.5
t32 -165q0 -206 -127.5 -317t-389.5 -111zM1045 1548l-3 -20h-76l-152 169h-2l-217 -169h-95l3 20l235 270h167z" />
    <glyph glyph-name="scircumflex" unicode="&#x15d;" horiz-adv-x="840" 
d="M744 317q0 -85 -28 -148.5t-79 -105.5t-124 -62.5t-164 -20.5q-76 0 -133.5 16t-99 46.5t-69 76t-43.5 104.5l121 56q12 -40 31.5 -71.5t47.5 -53t67 -32.5t91 -11t96 10.5t75.5 33.5t49 59t17.5 87q0 40 -15.5 68.5t-43.5 50t-69 40t-91 37.5q-53 21 -101 46t-84.5 60
t-58 82.5t-21.5 111.5q0 82 29 139.5t78.5 93.5t115.5 52.5t140 16.5q67 0 123 -14t98 -44.5t69 -79t37 -117.5l-134 -25q-18 79 -68 114t-135 35q-43 0 -81.5 -8t-67 -26t-45.5 -47t-17 -70t16 -68.5t44 -48.5t68 -38l89 -35q47 -18 95 -42t86.5 -59.5t63 -86t24.5 -122.5z
M803 1221l-3 -20h-76l-152 169h-2l-217 -169h-95l3 20l235 270h167z" />
    <glyph glyph-name="Scedilla" unicode="&#x15e;" horiz-adv-x="1120" 
d="M505 -20q-107 0 -186.5 23.5t-135.5 69t-89 112t-46 153.5l145 37q11 -62 33.5 -108t61 -76.5t95 -45.5t134.5 -15q80 0 144 13.5t108.5 45t68.5 82t24 125.5q0 51 -14 87t-48.5 64.5t-93 54t-147.5 55.5q-72 24 -135.5 53.5t-111 73t-75.5 105.5t-28 152q0 105 39 178.5
t104 120.5t149 68.5t175 21.5q99 0 173 -22t126 -61.5t83.5 -94.5t43.5 -120l-142 -51q-12 48 -34 86t-56.5 64.5t-82.5 40.5t-112 14q-85 0 -144 -17.5t-95.5 -49t-53 -75t-16.5 -94.5q0 -54 17 -89.5t51.5 -60.5t87.5 -45.5t125 -44.5q71 -24 139 -53t120 -73.5t84 -110.5
t32 -165q0 -206 -127.5 -317t-389.5 -111zM577 -96q66 -5 99 -41t33 -95q0 -45 -13.5 -81t-43.5 -60.5t-77.5 -38t-113.5 -13.5q-23 0 -45 2t-42 5l17 91q39 -6 73 -6q75 0 105.5 22t30.5 67q0 31 -22.5 51.5t-75.5 20.5h-24q-12 0 -23 -2l82 174h88z" />
    <glyph glyph-name="scedilla" unicode="&#x15f;" horiz-adv-x="840" 
d="M744 317q0 -85 -28 -148.5t-79 -105.5t-124 -62.5t-164 -20.5q-76 0 -133.5 16t-99 46.5t-69 76t-43.5 104.5l121 56q12 -40 31.5 -71.5t47.5 -53t67 -32.5t91 -11t96 10.5t75.5 33.5t49 59t17.5 87q0 40 -15.5 68.5t-43.5 50t-69 40t-91 37.5q-53 21 -101 46t-84.5 60
t-58 82.5t-21.5 111.5q0 82 29 139.5t78.5 93.5t115.5 52.5t140 16.5q67 0 123 -14t98 -44.5t69 -79t37 -117.5l-134 -25q-18 79 -68 114t-135 35q-43 0 -81.5 -8t-67 -26t-45.5 -47t-17 -70t16 -68.5t44 -48.5t68 -38l89 -35q47 -18 95 -42t86.5 -59.5t63 -86t24.5 -122.5z
M404 -96q66 -5 99 -41t33 -95q0 -45 -13.5 -81t-43.5 -60.5t-77.5 -38t-113.5 -13.5q-23 0 -45 2t-42 5l17 91q39 -6 73 -6q75 0 105.5 22t30.5 67q0 31 -22.5 51.5t-75.5 20.5h-24q-12 0 -23 -2l82 174h88z" />
    <glyph glyph-name="Scaron" unicode="&#x160;" horiz-adv-x="1120" 
d="M505 -20q-107 0 -186.5 23.5t-135.5 69t-89 112t-46 153.5l145 37q11 -62 33.5 -108t61 -76.5t95 -45.5t134.5 -15q80 0 144 13.5t108.5 45t68.5 82t24 125.5q0 51 -14 87t-48.5 64.5t-93 54t-147.5 55.5q-72 24 -135.5 53.5t-111 73t-75.5 105.5t-28 152q0 105 39 178.5
t104 120.5t149 68.5t175 21.5q99 0 173 -22t126 -61.5t83.5 -94.5t43.5 -120l-142 -51q-12 48 -34 86t-56.5 64.5t-82.5 40.5t-112 14q-85 0 -144 -17.5t-95.5 -49t-53 -75t-16.5 -94.5q0 -54 17 -89.5t51.5 -60.5t87.5 -45.5t125 -44.5q71 -24 139 -53t120 -73.5t84 -110.5
t32 -165q0 -206 -127.5 -317t-389.5 -111zM833 1530h-167l-153 239l3 21h76l168 -139h2l202 139h95l-4 -21z" />
    <glyph glyph-name="scaron" unicode="&#x161;" horiz-adv-x="840" 
d="M744 317q0 -85 -28 -148.5t-79 -105.5t-124 -62.5t-164 -20.5q-76 0 -133.5 16t-99 46.5t-69 76t-43.5 104.5l121 56q12 -40 31.5 -71.5t47.5 -53t67 -32.5t91 -11t96 10.5t75.5 33.5t49 59t17.5 87q0 40 -15.5 68.5t-43.5 50t-69 40t-91 37.5q-53 21 -101 46t-84.5 60
t-58 82.5t-21.5 111.5q0 82 29 139.5t78.5 93.5t115.5 52.5t140 16.5q67 0 123 -14t98 -44.5t69 -79t37 -117.5l-134 -25q-18 79 -68 114t-135 35q-43 0 -81.5 -8t-67 -26t-45.5 -47t-17 -70t16 -68.5t44 -48.5t68 -38l89 -35q47 -18 95 -42t86.5 -59.5t63 -86t24.5 -122.5z
M619 1201h-167l-149 270l4 20h79l163 -169h2l207 169h91l-3 -20z" />
    <glyph glyph-name="Tcommaaccent" unicode="&#x162;" horiz-adv-x="1026" 
d="M421 -96q66 -5 99 -41t33 -95q0 -45 -13.5 -81t-43.5 -60.5t-77.5 -38t-113.5 -13.5q-23 0 -45 2t-42 5l17 91q39 -6 73 -6q75 0 105.5 22t30.5 67q0 31 -22.5 51.5t-75.5 20.5h-24q-12 0 -23 -2l82 174h88zM704 1253l-200 -1253h-156l200 1253h-397l25 156h949l-24 -156
h-397z" />
    <glyph glyph-name="tcommaaccent" unicode="&#x163;" horiz-adv-x="467" 
d="M203 -96q66 -5 99 -41t33 -95q0 -45 -13.5 -81t-43.5 -60.5t-77.5 -38t-113.5 -13.5q-23 0 -45 2t-42 5l17 91q39 -6 73 -6q75 0 105.5 22t30.5 67q0 31 -22.5 51.5t-75.5 20.5h-24q-12 0 -23 -2l82 174h88zM368 4q-30 -9 -66.5 -16.5t-75.5 -7.5q-70 0 -110 51t-40 135
q0 32 4.5 68.5t8.5 61.5l103 655h-103l22 131h104l86 242h99l-39 -242h164l-21 -131h-164l-103 -645q-3 -20 -6.5 -49t-3.5 -46q0 -42 17.5 -65t56.5 -23q21 0 39.5 3.5t42.5 10.5z" />
    <glyph glyph-name="Tcaron" unicode="&#x164;" horiz-adv-x="1026" 
d="M704 1253l-200 -1253h-156l200 1253h-397l25 156h949l-24 -156h-397zM797 1530h-167l-153 239l3 21h76l168 -139h2l202 139h95l-4 -21z" />
    <glyph glyph-name="tcaron" unicode="&#x165;" horiz-adv-x="594" 
d="M368 4q-30 -9 -66.5 -16.5t-75.5 -7.5q-70 0 -110 51t-40 135q0 32 4.5 68.5t8.5 61.5l103 655h-103l22 131h104l86 242h99l-39 -242h164l-21 -131h-164l-103 -645q-3 -20 -6.5 -49t-3.5 -46q0 -42 17.5 -65t56.5 -23q21 0 39.5 3.5t42.5 10.5zM828 1378
q-14 -87 -41.5 -145.5t-67.5 -105.5h-96q44 48 72 96t36 94h-72l26 167h160z" />
    <glyph glyph-name="Tbar" unicode="&#x166;" horiz-adv-x="1026" 
d="M704 1253l-72 -452h230l-25 -154h-230l-103 -647h-155l102 647h-229l25 154h229l72 452h-397l25 156h949l-24 -156h-397z" />
    <glyph glyph-name="tbar" unicode="&#x167;" horiz-adv-x="467" 
d="M237 306q-3 -20 -6.5 -49t-3.5 -46q0 -42 17.5 -65t56.5 -23q21 0 39.5 3.5t42.5 10.5l-15 -133q-30 -9 -66.5 -16.5t-75.5 -7.5q-70 0 -110 51t-40 135q0 32 4.5 68.5t8.5 61.5l34 220h-102l20 131h103l48 304h-103l22 131h104l86 242h99l-39 -242h164l-21 -131h-164
l-49 -304h165l-21 -131h-165z" />
    <glyph glyph-name="Utilde" unicode="&#x168;" horiz-adv-x="1212" 
d="M536 -20q-85 0 -160 27t-131 83t-88 141t-32 200q0 21 2 48.5t4.5 55.5t6 54.5t6.5 45.5l123 774h157l-133 -843q-6 -36 -10 -74.5t-4 -68.5q0 -74 20.5 -128t56.5 -89.5t86 -53t109 -17.5q71 0 132 22t110 70t84 125.5t52 188.5l137 868h156l-139 -879
q-23 -141 -70 -244.5t-117 -171.5t-160 -101t-198 -33zM967 1530q-34 0 -65 20t-59.5 44.5t-54.5 44.5t-51 20q-22 0 -39 -9.5t-29.5 -26.5t-22.5 -40.5t-18 -52.5h-82q11 45 26.5 92.5t39 86.5t57.5 64t83 25q36 0 67 -20t59 -44.5t53.5 -44.5t49.5 -20q22 0 39 10t29.5 27
t22.5 40.5t18 51.5h83q-11 -44 -26.5 -91.5t-38.5 -86.5t-57.5 -64.5t-83.5 -25.5z" />
    <glyph glyph-name="utilde" unicode="&#x169;" 
d="M340 1082l-103 -645q-7 -39 -11 -79.5t-4 -70.5q0 -79 34.5 -123t112.5 -44q52 0 98.5 25.5t84.5 72t64.5 112t39.5 146.5l97 606h147l-136 -851q-6 -34 -11 -71l-9 -72l-8 -57q-3 -24 -4 -31h-139q0 5 3 27l6 51q3 28 7 57.5t7 49.5h-3q-28 -47 -57.5 -85t-65 -64.5
t-78.5 -40.5t-98 -14q-121 0 -182 73t-61 211q0 36 5 81t12 83l104 653h148zM736 1201q-34 0 -65.5 18.5t-60 41t-54.5 41t-51 18.5q-45 0 -72.5 -31t-44.5 -88h-74q11 45 27 92.5t39.5 86.5t57.5 64t82 25q36 0 67.5 -18.5t59.5 -41t53.5 -41t49.5 -18.5q44 0 72 31.5
t44 87.5h75q-11 -44 -26 -91.5t-38.5 -86.5t-57.5 -64.5t-83 -25.5z" />
    <glyph glyph-name="Umacron" unicode="&#x16a;" horiz-adv-x="1212" 
d="M536 -20q-85 0 -160 27t-131 83t-88 141t-32 200q0 21 2 48.5t4.5 55.5t6 54.5t6.5 45.5l123 774h157l-133 -843q-6 -36 -10 -74.5t-4 -68.5q0 -74 20.5 -128t56.5 -89.5t86 -53t109 -17.5q71 0 132 22t110 70t84 125.5t52 188.5l137 868h156l-139 -879
q-23 -141 -70 -244.5t-117 -171.5t-160 -101t-198 -33zM1543 1565h-826l39 127h826z" />
    <glyph glyph-name="umacron" unicode="&#x16b;" 
d="M340 1082l-103 -645q-7 -39 -11 -79.5t-4 -70.5q0 -79 34.5 -123t112.5 -44q52 0 98.5 25.5t84.5 72t64.5 112t39.5 146.5l97 606h147l-136 -851q-6 -34 -11 -71l-9 -72l-8 -57q-3 -24 -4 -31h-139q0 5 3 27l6 51q3 28 7 57.5t7 49.5h-3q-28 -47 -57.5 -85t-65 -64.5
t-78.5 -40.5t-98 -14q-121 0 -182 73t-61 211q0 36 5 81t12 83l104 653h148zM1305 1236h-826l39 127h826z" />
    <glyph glyph-name="Ubreve" unicode="&#x16c;" horiz-adv-x="1212" 
d="M536 -20q-85 0 -160 27t-131 83t-88 141t-32 200q0 21 2 48.5t4.5 55.5t6 54.5t6.5 45.5l123 774h157l-133 -843q-6 -36 -10 -74.5t-4 -68.5q0 -74 20.5 -128t56.5 -89.5t86 -53t109 -17.5q71 0 132 22t110 70t84 125.5t52 188.5l137 868h156l-139 -879
q-23 -141 -70 -244.5t-117 -171.5t-160 -101t-198 -33zM836 1520q-61 0 -106 20.5t-75 55t-45.5 79.5t-15.5 94h95q2 -59 44.5 -86t110.5 -27q147 0 199 114h96q-17 -49 -44 -94.5t-64 -80t-85.5 -55t-109.5 -20.5z" />
    <glyph glyph-name="ubreve" unicode="&#x16d;" 
d="M340 1082l-103 -645q-7 -39 -11 -79.5t-4 -70.5q0 -79 34.5 -123t112.5 -44q52 0 98.5 25.5t84.5 72t64.5 112t39.5 146.5l97 606h147l-136 -851q-6 -34 -11 -71l-9 -72l-8 -57q-3 -24 -4 -31h-139q0 5 3 27l6 51q3 28 7 57.5t7 49.5h-3q-28 -47 -57.5 -85t-65 -64.5
t-78.5 -40.5t-98 -14q-121 0 -182 73t-61 211q0 36 5 81t12 83l104 653h148zM605 1201q-61 0 -106 25.5t-75 68.5t-45.5 98.5t-15.5 116.5h95q2 -85 44.5 -124t110.5 -39q147 0 199 163h96q-17 -61 -44 -116.5t-64 -98.5t-85.5 -68.5t-109.5 -25.5z" />
    <glyph glyph-name="Uring" unicode="&#x16e;" horiz-adv-x="1212" 
d="M536 -20q-85 0 -160 27t-131 83t-88 141t-32 200q0 21 2 48.5t4.5 55.5t6 54.5t6.5 45.5l123 774h157l-133 -843q-6 -36 -10 -74.5t-4 -68.5q0 -74 20.5 -128t56.5 -89.5t86 -53t109 -17.5q71 0 132 22t110 70t84 125.5t52 188.5l137 868h156l-139 -879
q-23 -141 -70 -244.5t-117 -171.5t-160 -101t-198 -33zM1038 1744q0 -50 -15.5 -94t-42.5 -77t-63 -52t-77 -19t-77 19t-63 52t-42.5 77t-15.5 94t15.5 94t42.5 76.5t63 51.5t77 19t77 -19t63 -51.5t42.5 -76.5t15.5 -94zM950 1744q0 29 -8 53.5t-23 42.5t-35 28t-44 10
q-23 0 -43.5 -10t-35 -28t-23.5 -42.5t-9 -53.5q0 -28 9 -53t23.5 -44t35 -29.5t43.5 -10.5q24 0 44 10.5t35 29.5t23 44t8 53z" />
    <glyph glyph-name="uring" unicode="&#x16f;" 
d="M340 1082l-103 -645q-7 -39 -11 -79.5t-4 -70.5q0 -79 34.5 -123t112.5 -44q52 0 98.5 25.5t84.5 72t64.5 112t39.5 146.5l97 606h147l-136 -851q-6 -34 -11 -71l-9 -72l-8 -57q-3 -24 -4 -31h-139q0 5 3 27l6 51q3 28 7 57.5t7 49.5h-3q-28 -47 -57.5 -85t-65 -64.5
t-78.5 -40.5t-98 -14q-121 0 -182 73t-61 211q0 36 5 81t12 83l104 653h148zM807 1410q0 -50 -15.5 -94t-42.5 -77t-63 -52t-77 -19t-77 19t-63 52t-42.5 77t-15.5 94t15.5 94t42.5 76.5t63 51.5t77 19t77 -19t63 -51.5t42.5 -76.5t15.5 -94zM719 1410q0 29 -8 53.5
t-23 42.5t-35 28t-44 10q-23 0 -43.5 -10t-35 -28t-23.5 -42.5t-9 -53.5q0 -28 9 -53t23.5 -44t35 -29.5t43.5 -10.5q24 0 44 10.5t35 29.5t23 44t8 53z" />
    <glyph glyph-name="Uhungarumlaut" unicode="&#x170;" horiz-adv-x="1212" 
d="M536 -20q-85 0 -160 27t-131 83t-88 141t-32 200q0 21 2 48.5t4.5 55.5t6 54.5t6.5 45.5l123 774h157l-133 -843q-6 -36 -10 -74.5t-4 -68.5q0 -74 20.5 -128t56.5 -89.5t86 -53t109 -17.5q71 0 132 22t110 70t84 125.5t52 188.5l137 868h156l-139 -879
q-23 -141 -70 -244.5t-117 -171.5t-160 -101t-198 -33zM596 1530l2 20l182 227h170l-4 -29l-274 -218h-76zM879 1530l3 20l183 227h169l-4 -29l-274 -218h-77z" />
    <glyph glyph-name="uhungarumlaut" unicode="&#x171;" 
d="M340 1082l-103 -645q-7 -39 -11 -79.5t-4 -70.5q0 -79 34.5 -123t112.5 -44q52 0 98.5 25.5t84.5 72t64.5 112t39.5 146.5l97 606h147l-136 -851q-6 -34 -11 -71l-9 -72l-8 -57q-3 -24 -4 -31h-139q0 5 3 27l6 51q3 28 7 57.5t7 49.5h-3q-28 -47 -57.5 -85t-65 -64.5
t-78.5 -40.5t-98 -14q-121 0 -182 73t-61 211q0 36 5 81t12 83l104 653h148zM372 1201l2 20l207 287h170l-5 -29l-298 -278h-76zM655 1201l3 20l207 287h170l-4 -29l-298 -278h-78z" />
    <glyph glyph-name="Uogonek" unicode="&#x172;" horiz-adv-x="1212" 
d="M536 -20q-85 0 -160 27t-131 83t-88 141t-32 200q0 21 2 48.5t4.5 55.5t6 54.5t6.5 45.5l123 774h157l-133 -843q-6 -36 -10 -74.5t-4 -68.5q0 -74 20.5 -128t56.5 -89.5t86 -53t109 -17.5q71 0 132 22t110 70t84 125.5t52 188.5l137 868h156l-139 -879
q-23 -141 -70 -244.5t-117 -171.5t-160 -101t-198 -33zM638 -427q-72 0 -109 47t-37 121q0 52 17 95t42 75t54.5 54.5t54.5 34.5h109q-22 -14 -50 -36.5t-51.5 -52.5t-40 -67t-16.5 -80q0 -34 16.5 -57.5t47.5 -23.5q26 0 47.5 5.5t45.5 16.5l-12 -105q-25 -12 -53.5 -19.5
t-64.5 -7.5z" />
    <glyph glyph-name="uogonek" unicode="&#x173;" 
d="M340 1082l-103 -645q-7 -39 -11 -79.5t-4 -70.5q0 -79 34.5 -123t112.5 -44q52 0 98.5 25.5t84.5 72t64.5 112t39.5 146.5l97 606h147l-136 -851q-6 -34 -11 -71l-9 -72l-8 -57q-3 -24 -4 -31h-139q0 5 3 27l6 51q3 28 7 57.5t7 49.5h-3q-28 -47 -57.5 -85t-65 -64.5
t-78.5 -40.5t-98 -14q-121 0 -182 73t-61 211q0 36 5 81t12 83l104 653h148zM652 -427q-72 0 -109 47t-37 121q0 52 17 95t42 75t54.5 54.5t54.5 34.5h109q-22 -14 -50 -36.5t-51.5 -52.5t-40 -67t-16.5 -80q0 -34 16.5 -57.5t47.5 -23.5q26 0 47.5 5.5t45.5 16.5l-12 -105
q-25 -12 -53.5 -19.5t-64.5 -7.5z" />
    <glyph glyph-name="Wcircumflex" unicode="&#x174;" horiz-adv-x="1585" 
d="M1153 0h-183l-58 895q-1 19 -2 43t-2.5 50.5t-2.5 53.5l-2 53l-4 124l-40 -124l-37 -107q-19 -55 -34 -93l-344 -895h-182l-117 1409h162l64 -895q4 -63 7 -124l4 -112q2 -58 3 -110l47 136l21 60l21 60l22 58l19 50l340 877h150l62 -877q2 -22 3.5 -50t2.5 -57.5
t2.5 -60t1.5 -59.5l4 -137q1 0 13 34l29 87l40 113l42 112l347 895h165zM1310 1550l-3 -20h-78l-157 139h-2l-212 -139h-93l3 20l230 240h167z" />
    <glyph glyph-name="wcircumflex" unicode="&#x175;" horiz-adv-x="1212" 
d="M875 0h-171l-30 698q-1 20 -2 59l-2 79q-1 47 -1 98l-30 -89l-27 -79l-26 -72l-257 -694h-170l-75 1082h145l33 -735q1 -12 2 -39.5t1.5 -58t1.5 -59t1 -41.5q12 36 25 71q11 30 21.5 63t19.5 56l280 743h158l36 -743q2 -54 3.5 -104t1.5 -86q12 36 25 71l24 64l22 63
l274 735h144zM1031 1221l-3 -20h-76l-152 169h-2l-217 -169h-95l3 20l235 270h167z" />
    <glyph glyph-name="Ycircumflex" unicode="&#x176;" horiz-adv-x="1120" 
d="M644 584l-93 -584h-156l94 584l-314 825h160l251 -674l459 674h176zM1041 1550l-3 -20h-78l-157 139h-2l-212 -139h-93l3 20l230 240h167z" />
    <glyph glyph-name="ycircumflex" unicode="&#x177;" horiz-adv-x="840" 
d="M411 0q-45 -95 -87 -173t-88 -134t-99.5 -87t-123.5 -31q-27 0 -55.5 3.5t-52.5 10.5l25 134q14 -3 31.5 -5.5t31.5 -2.5q78 0 137.5 64t117.5 186l22 47l-178 1070h150l92 -598q5 -32 10 -74l11 -84l9 -76q4 -36 4 -54q8 22 22 54l29 66l33 74l32 72l277 620h163z
M826 1221l-3 -20h-76l-152 169h-2l-217 -169h-95l3 20l235 270h167z" />
    <glyph glyph-name="Ydieresis" unicode="&#x178;" horiz-adv-x="1120" 
d="M644 584l-93 -584h-156l94 584l-314 825h160l251 -674l459 674h176zM837 1530l29 184h142l-29 -184h-142zM523 1530l28 184h144l-29 -184h-143z" />
    <glyph glyph-name="Zacute" unicode="&#x179;" horiz-adv-x="1026" 
d="M887 0h-920l22 143l865 1110h-628l25 156h822l-22 -139l-865 -1114h726zM636 1530l2 20l214 226h170l-4 -29l-289 -217h-93z" />
    <glyph glyph-name="zacute" unicode="&#x17a;" horiz-adv-x="840" 
d="M-36 0l22 137l654 806h-493l22 139h676l-22 -137l-656 -806h557l-22 -139h-738zM452 1201l3 20l207 287h178l-4 -29l-307 -278h-77z" />
    <glyph glyph-name="Zdotaccent" unicode="&#x17b;" horiz-adv-x="1026" 
d="M887 0h-920l22 143l865 1110h-628l25 156h822l-22 -139l-865 -1114h726zM635 1530l28 172h148l-28 -172h-148z" />
    <glyph glyph-name="zdotaccent" unicode="&#x17c;" horiz-adv-x="840" 
d="M-36 0l22 137l654 806h-493l22 139h676l-22 -137l-656 -806h557l-22 -139h-738zM489 1312l28 172h148l-28 -172h-148z" />
    <glyph glyph-name="Zcaron" unicode="&#x17d;" horiz-adv-x="1026" 
d="M887 0h-920l22 143l865 1110h-628l25 156h822l-22 -139l-865 -1114h726zM785 1530h-167l-153 239l3 21h76l168 -139h2l202 139h95l-4 -21z" />
    <glyph glyph-name="zcaron" unicode="&#x17e;" horiz-adv-x="840" 
d="M-47 0l22 137l654 806h-493l22 139h676l-22 -137l-656 -806h557l-22 -139h-738zM627 1201h-167l-149 270l4 20h79l163 -169h2l207 169h91l-3 -20z" />
    <glyph glyph-name="longs" unicode="&#x17f;" horiz-adv-x="373" 
d="M27 0l192 1204q9 59 24 110t42.5 89t72 59.5t111.5 21.5q25 0 51 -3t46 -9l-20 -137q-13 3 -34 5.5t-35 2.5q-30 0 -48.5 -11t-31.5 -32t-20 -51.5t-14 -69.5l-188 -1179h-148z" />
    <glyph glyph-name="florin" unicode="&#x192;" 
d="M843 1312q-14 5 -39.5 10t-50.5 5t-44 -9.5t-32.5 -29.5t-23.5 -52t-17 -77l-22 -137h173l-20 -131h-175l-212 -1347h-147l211 1347h-124l22 131h124l24 152q10 59 26 110t45 89t74 59.5t111 21.5q26 0 60 -5t62 -15z" />
    <glyph glyph-name="Aringacute" unicode="&#x1fa;" horiz-adv-x="1120" 
d="M870 0l-62 412h-523l-197 -412h-171l695 1409h178l240 -1409h-160zM714 1034q-7 41 -13 80t-10 71.5t-7 54t-3 25.5q-2 -4 -11 -26l-24 -55l-34 -72l-37 -79l-222 -472h432zM974 1546q0 -50 -15.5 -94t-42.5 -77t-63 -52t-77 -19t-77 19t-63 52t-42.5 77t-15.5 94
t15.5 94t42.5 76.5t63 51.5t77 19t77 -19t63 -51.5t42.5 -76.5t15.5 -94zM886 1546q0 29 -8 53.5t-23 42.5t-35 28t-44 10q-23 0 -43.5 -10t-35 -28t-23.5 -42.5t-9 -53.5q0 -28 9 -53t23.5 -44t35 -29.5t43.5 -10.5q24 0 44 10.5t35 29.5t23 44t8 53zM744 1831l2 20
l214 226h170l-4 -29l-289 -217h-93z" />
    <glyph glyph-name="aringacute" unicode="&#x1fb;" 
d="M865 6q-24 -7 -51.5 -11.5t-53.5 -4.5q-76 0 -111 38.5t-35 114.5q0 15 1.5 32.5t2.5 31.5h-5q-29 -53 -59.5 -95t-67.5 -71.5t-83 -45t-107 -15.5q-64 0 -112 25t-80.5 66.5t-49 95.5t-16.5 111q0 81 19 140t52.5 101t78 68.5t95 41.5t104.5 21t106 7l190 3l6 36
q4 25 7 48t3 43q0 91 -43.5 134.5t-120.5 43.5q-40 0 -75 -7.5t-62.5 -27t-48.5 -53t-34 -84.5l-146 29q16 62 43 113.5t71 88.5t107.5 57.5t152.5 20.5q73 0 129.5 -22t95 -61t58.5 -93t20 -119q0 -31 -4.5 -74.5t-10.5 -82.5l-61 -378q-4 -22 -6.5 -45t-2.5 -43
q0 -37 16 -55t50 -18q12 0 25 2t25 5zM663 536l-163 -4q-33 -1 -68 -4t-69 -12.5t-65 -25.5t-54 -43.5t-36.5 -66.5t-13.5 -94q0 -32 9 -62.5t27 -54t44.5 -38t62.5 -14.5q71 0 124.5 30t91 74t59.5 95.5t29 94.5zM837 1410q0 -50 -15.5 -94t-42.5 -77t-63 -52t-77 -19
t-77 19t-63 52t-42.5 77t-15.5 94t15.5 94t42.5 76.5t63 51.5t77 19t77 -19t63 -51.5t42.5 -76.5t15.5 -94zM749 1410q0 29 -8 53.5t-23 42.5t-35 28t-44 10q-23 0 -43.5 -10t-35 -28t-23.5 -42.5t-9 -53.5q0 -28 9 -53t23.5 -44t35 -29.5t43.5 -10.5q24 0 44 10.5t35 29.5
t23 44t8 53zM637 1711l2 20l214 226h170l-4 -29l-289 -217h-93z" />
    <glyph glyph-name="AEacute" unicode="&#x1fc;" horiz-adv-x="1679" 
d="M708 0l66 412h-445l-229 -412h-166l786 1409h975l-25 -156h-606l-72 -452h557l-25 -154h-557l-77 -491h639l-25 -156h-796zM909 1262h-124q-1 -3 -9.5 -20.5t-21.5 -42.5l-28 -54l-28 -55l-24 -44q-10 -19 -13 -24l-251 -461h388zM1216 1530l2 20l214 226h170l-4 -29
l-289 -217h-93z" />
    <glyph glyph-name="aeacute" unicode="&#x1fd;" horiz-adv-x="1493" 
d="M811 503q-4 -28 -5.5 -56.5t-2.5 -56.5q0 -133 50.5 -204t150.5 -71q42 0 76 14.5t62 39t49 57t36 68.5l113 -63q-20 -45 -48 -89.5t-69.5 -80.5t-99 -58.5t-138.5 -22.5q-124 0 -201.5 70t-106.5 198q-32 -56 -71 -105t-87 -85t-106.5 -57t-128.5 -21q-66 0 -114 25
t-80 66.5t-48 95.5t-16 111q0 81 20 140t54 101t79.5 68.5t97.5 41.5t107 21t109 7l195 3l6 36q4 25 6.5 48t2.5 43q0 91 -44.5 134.5t-125.5 43.5q-43 0 -79 -7.5t-64.5 -27t-50.5 -53t-36 -84.5l-146 29q16 62 44.5 113.5t74 88.5t111.5 57.5t158 20.5q100 0 164 -43
t103 -115q48 75 119.5 116.5t163.5 41.5q85 0 148 -29t105 -81t63 -124.5t21 -159.5q0 -21 -1.5 -46t-4 -52t-5.5 -54.5t-8 -52.5h-602zM667 534l-169 -4q-34 -1 -70 -4t-71.5 -12t-67 -25t-55 -43t-37.5 -66t-14 -94q0 -37 10 -68.5t28 -53.5t43.5 -34.5t58.5 -12.5
q73 0 131 31.5t99 79.5t66.5 106t33.5 111zM1281 641q2 20 3 37.5t1 34.5q0 66 -13.5 114.5t-38.5 80t-59.5 46.5t-76.5 15q-37 0 -76.5 -14.5t-76 -51.5t-66.5 -100.5t-47 -161.5h450zM861 1201l3 20l207 287h178l-4 -29l-307 -278h-77z" />
    <glyph glyph-name="Oslashacute" unicode="&#x1fe;" horiz-adv-x="1307" 
d="M1168 1205q42 -72 63 -161.5t21 -192.5q-1 -49 -4.5 -101.5t-11.5 -100.5q-25 -154 -83.5 -277.5t-144 -210.5t-196 -134t-238.5 -47q-107 0 -189.5 32t-143.5 92l-132 -157h-155l213 254q-43 75 -63.5 168.5t-20.5 203.5q0 46 3.5 94t11.5 97q25 150 82.5 273t143 210.5
t196.5 135t241 47.5q104 0 187 -33t145 -94l137 163h157zM754 1276q-107 0 -191 -37t-146 -107t-102 -171t-61 -229q-7 -43 -10.5 -86.5t-3.5 -82.5q0 -136 37 -231l714 850q-89 94 -237 94zM1095 847q0 133 -37 227l-714 -848q43 -46 102.5 -68.5t134.5 -22.5
q108 0 192 37.5t145.5 108t102.5 171t61 225.5q7 42 10 87t3 83zM807 1530l2 20l214 226h170l-4 -29l-289 -217h-93z" />
    <glyph glyph-name="oslashacute" unicode="&#x1ff;" horiz-adv-x="1026" 
d="M165 145q-30 53 -46 121t-16 153q1 47 4.5 97t13.5 104q24 126 65.5 216.5t99 149.5t130 87t158.5 28q133 0 219 -67l57 82h137l-119 -169q61 -103 60 -264q0 -52 -4.5 -104.5t-16.5 -111.5q-25 -132 -68.5 -224t-102.5 -149.5t-131.5 -83t-154.5 -25.5q-126 0 -211 71
l-66 -94h-137zM254 416q0 -73 13 -127l442 627q-26 27 -60.5 40t-76.5 13q-43 0 -87 -12.5t-83.5 -50.5t-72.5 -108t-55 -186q-11 -55 -15.5 -104.5t-4.5 -91.5zM776 683q0 66 -12 117l-442 -627q27 -29 61.5 -42t75.5 -13q44 0 87.5 11.5t82 48.5t71 107.5t54.5 187.5
q11 60 15.5 110t6.5 100zM577 1201l3 20l207 287h178l-4 -29l-307 -278h-77z" />
    <glyph glyph-name="Scommaaccent" unicode="&#x218;" horiz-adv-x="1120" 
d="M386 -203q-14 -87 -41.5 -145.5t-67.5 -105.5h-96q44 48 72 96t36 94h-73l27 167h159zM505 -20q-107 0 -186.5 23.5t-135.5 69t-89 112t-46 153.5l145 37q11 -62 33.5 -108t61 -76.5t95 -45.5t134.5 -15q80 0 144 13.5t108.5 45t68.5 82t24 125.5q0 51 -14 87t-48.5 64.5
t-93 54t-147.5 55.5q-72 24 -135.5 53.5t-111 73t-75.5 105.5t-28 152q0 105 39 178.5t104 120.5t149 68.5t175 21.5q99 0 173 -22t126 -61.5t83.5 -94.5t43.5 -120l-142 -51q-12 48 -34 86t-56.5 64.5t-82.5 40.5t-112 14q-85 0 -144 -17.5t-95.5 -49t-53 -75t-16.5 -94.5
q0 -54 17 -89.5t51.5 -60.5t87.5 -45.5t125 -44.5q71 -24 139 -53t120 -73.5t84 -110.5t32 -165q0 -206 -127.5 -317t-389.5 -111z" />
    <glyph glyph-name="scommaaccent" unicode="&#x219;" horiz-adv-x="840" 
d="M287 -204q-14 -87 -41.5 -145.5t-67.5 -105.5h-96q44 48 72 96t36 94h-73l27 167h159zM744 317q0 -85 -28 -148.5t-79 -105.5t-124 -62.5t-164 -20.5q-76 0 -133.5 16t-99 46.5t-69 76t-43.5 104.5l121 56q12 -40 31.5 -71.5t47.5 -53t67 -32.5t91 -11t96 10.5t75.5 33.5
t49 59t17.5 87q0 40 -15.5 68.5t-43.5 50t-69 40t-91 37.5q-53 21 -101 46t-84.5 60t-58 82.5t-21.5 111.5q0 82 29 139.5t78.5 93.5t115.5 52.5t140 16.5q67 0 123 -14t98 -44.5t69 -79t37 -117.5l-134 -25q-18 79 -68 114t-135 35q-43 0 -81.5 -8t-67 -26t-45.5 -47
t-17 -70t16 -68.5t44 -48.5t68 -38l89 -35q47 -18 95 -42t86.5 -59.5t63 -86t24.5 -122.5z" />
    <glyph glyph-name="uni021A" unicode="&#x21a;" horiz-adv-x="1026" 
d="M477 -203q-14 -87 -41.5 -145.5t-67.5 -105.5h-96q44 48 72 96t36 94h-73l27 167h159zM704 1253l-200 -1253h-156l200 1253h-397l25 156h949l-24 -156h-397z" />
    <glyph glyph-name="uni021B" unicode="&#x21b;" horiz-adv-x="467" 
d="M270 -204q-14 -87 -41.5 -145.5t-67.5 -105.5h-96q44 48 72 96t36 94h-73l27 167h159zM368 4q-30 -9 -66.5 -16.5t-75.5 -7.5q-70 0 -110 51t-40 135q0 32 4.5 68.5t8.5 61.5l103 655h-103l22 131h104l86 242h99l-39 -242h164l-21 -131h-164l-103 -645q-3 -20 -6.5 -49
t-3.5 -46q0 -42 17.5 -65t56.5 -23q21 0 39.5 3.5t42.5 10.5z" />
    <glyph glyph-name="circumflex" unicode="&#x2c6;" horiz-adv-x="559" 
d="M608 1221l-3 -20h-76l-152 169h-2l-217 -169h-95l3 20l235 270h167z" />
    <glyph glyph-name="caron" unicode="&#x2c7;" horiz-adv-x="559" 
d="M427 1201h-167l-149 270l4 20h79l163 -169h2l207 169h91l-3 -20z" />
    <glyph glyph-name="uni02C9" unicode="&#x2c9;" horiz-adv-x="1024" 
d="M1039 1236h-826l39 127h826z" />
    <glyph glyph-name="breve" unicode="&#x2d8;" horiz-adv-x="559" 
d="M349 1201q-61 0 -106 25.5t-75 68.5t-45.5 98.5t-15.5 116.5h95q2 -85 44.5 -124t110.5 -39q147 0 199 163h96q-17 -61 -44 -116.5t-64 -98.5t-85.5 -68.5t-109.5 -25.5z" />
    <glyph glyph-name="dotaccent" unicode="&#x2d9;" horiz-adv-x="559" 
d="M280 1312l28 172h148l-28 -172h-148z" />
    <glyph glyph-name="ring" unicode="&#x2da;" horiz-adv-x="559" 
d="M561 1410q0 -50 -15.5 -94t-42.5 -77t-63 -52t-77 -19t-77 19t-63 52t-42.5 77t-15.5 94t15.5 94t42.5 76.5t63 51.5t77 19t77 -19t63 -51.5t42.5 -76.5t15.5 -94zM473 1410q0 29 -8 53.5t-23 42.5t-35 28t-44 10q-23 0 -43.5 -10t-35 -28t-23.5 -42.5t-9 -53.5
q0 -28 9 -53t23.5 -44t35 -29.5t43.5 -10.5q24 0 44 10.5t35 29.5t23 44t8 53z" />
    <glyph glyph-name="ogonek" unicode="&#x2db;" horiz-adv-x="559" 
d="M204 -427q-72 0 -109 47t-37 121q0 52 17 95t42 75t54.5 54.5t54.5 34.5h109q-22 -14 -50 -36.5t-51.5 -52.5t-40 -67t-16.5 -80q0 -34 16.5 -57.5t47.5 -23.5q26 0 47.5 5.5t45.5 16.5l-12 -105q-25 -12 -53.5 -19.5t-64.5 -7.5z" />
    <glyph glyph-name="tilde" unicode="&#x2dc;" horiz-adv-x="559" 
d="M465 1201q-34 0 -65.5 18.5t-60 41t-54.5 41t-51 18.5q-45 0 -72.5 -31t-44.5 -88h-74q11 45 27 92.5t39.5 86.5t57.5 64t82 25q36 0 67.5 -18.5t59.5 -41t53.5 -41t49.5 -18.5q44 0 72 31.5t44 87.5h75q-11 -44 -26 -91.5t-38.5 -86.5t-57.5 -64.5t-83 -25.5z" />
    <glyph glyph-name="hungarumlaut" unicode="&#x2dd;" horiz-adv-x="559" 
d="M19 1201l2 20l207 287h170l-5 -29l-298 -278h-76zM302 1201l3 20l207 287h170l-4 -29l-298 -278h-78z" />
    <glyph glyph-name="tonos" unicode="&#x384;" horiz-adv-x="559" 
d="M191 1218l5 33l103 292h170l-6 -37l-211 -288h-61z" />
    <glyph glyph-name="dieresistonos" unicode="&#x385;" horiz-adv-x="559" 
d="M172 1200l6 33l115 368h153l-6 -37l-206 -364h-62zM-3 1231l27 172h123l-28 -172h-122zM383 1231l28 172h123l-28 -172h-123z" />
    <glyph glyph-name="Alphatonos" unicode="&#x386;" horiz-adv-x="1120" 
d="M870 0l-62 412h-523l-197 -412h-171l695 1409h178l240 -1409h-160zM714 1034q-7 41 -13 80t-10 71.5t-7 54t-3 25.5q-2 -4 -11 -26l-24 -55l-34 -72l-37 -79l-222 -472h432zM102 1085l5 33l103 292h170l-6 -37l-211 -288h-61z" />
    <glyph glyph-name="anoteleia" unicode="&#x387;" horiz-adv-x="559" 
d="M162 446l42 220h192l-42 -220h-192z" />
    <glyph glyph-name="Epsilontonos" unicode="&#x388;" horiz-adv-x="1325" 
d="M301 0l223 1409h861l-25 -156h-703l-73 -452h655l-25 -154h-654l-78 -491h737l-25 -156h-893zM34 1085l5 33l103 292h170l-6 -37l-211 -288h-61z" />
    <glyph glyph-name="Etatonos" unicode="&#x389;" horiz-adv-x="1421" 
d="M1091 0l104 653h-629l-104 -653h-156l224 1409h157l-95 -596h628l95 596h153l-225 -1409h-152zM31 1085l5 33l103 292h170l-6 -37l-211 -288h-61z" />
    <glyph glyph-name="Iotatonos" unicode="&#x38a;" horiz-adv-x="655" 
d="M293 0l225 1409h157l-225 -1409h-157zM31 1085l5 33l103 292h170l-6 -37l-211 -288h-61z" />
    <glyph glyph-name="Omicrontonos" unicode="&#x38c;" horiz-adv-x="1333" 
d="M803 1430q118 0 209 -42.5t153.5 -119.5t95 -183t32.5 -234q-1 -49 -4.5 -101.5t-11.5 -100.5q-25 -154 -83 -277.5t-144 -210.5t-196 -134t-239 -47q-123 0 -215 43.5t-153 122t-92 187.5t-31 240q0 46 3.5 94t12.5 97q25 150 82 273t143 210.5t197 135t241 47.5z
M795 1276q-107 0 -191 -37t-146 -107t-102 -171t-61 -229q-7 -43 -10.5 -86.5t-3.5 -82.5q0 -107 23 -187.5t67 -134t107.5 -80t143.5 -26.5q108 0 192.5 37.5t146 108t102 171t60.5 225.5q7 42 10.5 87t3.5 83q0 107 -24 187.5t-68.5 134t-107.5 80.5t-142 27zM-51 1085
l5 33l103 292h170l-6 -37l-211 -288h-61z" />
    <glyph glyph-name="Upsilontonos" unicode="&#x38e;" horiz-adv-x="1454" 
d="M1050 584l-93 -584h-156l94 584l-314 825h160l251 -674l459 674h176zM156 1085l5 33l103 292h170l-6 -37l-211 -288h-61z" />
    <glyph glyph-name="Omegatonos" unicode="&#x38f;" horiz-adv-x="1303" 
d="M758 1430q112 0 203 -38t155 -109.5t99 -174.5t35 -232q0 -126 -27.5 -238t-84.5 -205.5t-145.5 -166.5t-211.5 -121q37 3 70 6q29 2 58.5 3.5t48.5 1.5h208l-25 -156h-483l35 224q107 42 183.5 106.5t125 146.5t71 177.5t22.5 200.5q0 103 -24.5 181.5t-69 132
t-108 80.5t-141.5 27q-84 0 -162.5 -35t-139.5 -106.5t-97 -179.5t-36 -254q0 -88 14.5 -159.5t43 -129.5t70.5 -104t95 -84l-37 -224h-449l25 156h167q19 0 51.5 -1.5t63.5 -3.5q37 -3 78 -6q-57 39 -108 95t-88.5 128t-60 160t-22.5 193q0 165 47 296.5t127.5 223
t189.5 140.5t234 49zM-43 1085l5 33l103 292h170l-6 -37l-211 -288h-61z" />
    <glyph glyph-name="iotadieresistonos" unicode="&#x390;" horiz-adv-x="467" 
d="M250 139q0 -38 13 -74t34 -65h-204q-14 20 -21 52.5t-7 72.5q0 27 3 55.5t8 55.5l169 846h185l-170 -855q-4 -20 -7 -45t-3 -43zM222 1200l6 33l115 368h153l-6 -37l-206 -364h-62zM47 1231l27 172h123l-28 -172h-122zM433 1231l28 172h123l-28 -172h-123z" />
    <glyph glyph-name="Alpha" unicode="&#x391;" horiz-adv-x="1120" 
d="M870 0l-62 412h-523l-197 -412h-171l695 1409h178l240 -1409h-160zM714 1034q-7 41 -13 80t-10 71.5t-7 54t-3 25.5q-2 -4 -11 -26l-24 -55l-34 -72l-37 -79l-222 -472h432z" />
    <glyph glyph-name="Beta" unicode="&#x392;" horiz-adv-x="1120" 
d="M275 1409h419q85 0 153 -22t116 -63.5t74 -101.5t26 -135q0 -146 -70.5 -230.5t-207.5 -113.5q58 -12 102.5 -39.5t74.5 -67.5t45 -90t15 -107q0 -83 -18.5 -148t-52.5 -114t-79.5 -82.5t-99 -54.5t-113 -30.5t-119.5 -9.5h-488zM337 810h271q148 0 219.5 65t71.5 193
q0 95 -56 141.5t-163 46.5h-272zM232 153h302q64 0 124 12t106 44t74 88t28 145q0 107 -65.5 163t-187.5 56h-300z" />
    <glyph glyph-name="Gamma" unicode="&#x393;" horiz-adv-x="958" 
d="M1018 1410l-25 -156h-585l-200 -1253h-156l224 1409h742z" />
    <glyph glyph-name="Delta" unicode="&#x394;" horiz-adv-x="1126" 
d="M-9 141l624 1268h178l217 -1268l-23 -141h-1020zM854 156l-140 862q-7 41 -12 81l-9 73q-4 34 -6 58.5t-2 34.5q-2 -7 -12 -32l-25 -60l-33 -76l-37 -81l-415 -860h691z" />
    <glyph glyph-name="Epsilon" unicode="&#x395;" horiz-adv-x="1120" 
d="M52 0l223 1409h861l-25 -156h-703l-73 -452h655l-25 -154h-654l-78 -491h737l-25 -156h-893z" />
    <glyph glyph-name="Zeta" unicode="&#x396;" horiz-adv-x="1026" 
d="M887 0h-920l22 143l865 1110h-628l25 156h822l-22 -139l-865 -1114h726z" />
    <glyph glyph-name="Eta" unicode="&#x397;" horiz-adv-x="1212" 
d="M837 0l104 653h-629l-104 -653h-156l224 1409h157l-95 -596h628l95 596h153l-225 -1409h-152z" />
    <glyph glyph-name="Theta" unicode="&#x398;" horiz-adv-x="1307" 
d="M444 794h481l-25 -160h-482zM761 1430q118 0 209.5 -42.5t154 -119.5t95 -183t32.5 -234q-1 -49 -4.5 -101.5t-11.5 -100.5q-25 -154 -83.5 -277.5t-144 -210.5t-196 -134t-238.5 -47q-123 0 -215 43.5t-153.5 122t-92 187.5t-30.5 240q0 46 3.5 94t11.5 97
q25 150 82.5 273t143 210.5t196.5 135t241 47.5zM754 1276q-107 0 -191 -37t-146 -107t-102 -171t-61 -229q-7 -43 -10.5 -86.5t-3.5 -82.5q0 -107 23 -187.5t66.5 -134t107 -80t144.5 -26.5q108 0 192 37.5t145.5 108t102.5 171t61 225.5q7 42 10 87t3 83
q0 107 -23.5 187.5t-68 134t-107.5 80.5t-142 27z" />
    <glyph glyph-name="Iota" unicode="&#x399;" horiz-adv-x="467" 
d="M66 0l225 1409h157l-225 -1409h-157z" />
    <glyph glyph-name="Kappa" unicode="&#x39a;" horiz-adv-x="1120" 
d="M838 0l-387 674l-156 -129l-87 -545h-156l223 1409h157l-111 -691l114 129l546 562h200l-614 -630l456 -779h-185z" />
    <glyph glyph-name="Lambda" unicode="&#x39b;" horiz-adv-x="1120" 
d="M1027 1h-160l-159 992q-7 47 -12 91l-10 80q-4 41 -7 78l-34 -81l-35 -80q-19 -44 -40 -88l-478 -992h-169l695 1409h163z" />
    <glyph glyph-name="Mu" unicode="&#x39c;" horiz-adv-x="1399" 
d="M1034 0l148 928l17 104l17 97q9 51 19 99q-20 -52 -42 -103l-39 -92q-20 -48 -38 -85l-449 -948h-102l-152 948q-5 30 -11 78l-10 92l-12 110l-14 -111l-14 -98l-13 -91l-148 -928h-139l224 1409h193l155 -977q2 -15 7 -48.5t9 -68.5q5 -40 10 -88l33 84l29 71l24 58
l453 969h210l-224 -1409h-141z" />
    <glyph glyph-name="Nu" unicode="&#x39d;" horiz-adv-x="1212" 
d="M809 0l-435 1210q-5 -46 -11 -94l-11 -88q-6 -46 -13 -85l-148 -943h-139l223 1409h174l438 -1215q5 43 10 91l11 91q7 51 16 102l148 931h141l-224 -1409h-180z" />
    <glyph glyph-name="Xi" unicode="&#x39e;" horiz-adv-x="1090" 
d="M241 1409h888l-25 -156h-887zM958 156l-26 -156h-943l25 156h944zM933 801l-24 -154h-691l25 154h690z" />
    <glyph glyph-name="Omicron" unicode="&#x39f;" horiz-adv-x="1307" 
d="M770 1430q118 0 209 -42.5t153.5 -119.5t95 -183t32.5 -234q-1 -49 -4.5 -101.5t-11.5 -100.5q-25 -154 -83 -277.5t-144 -210.5t-196 -134t-239 -47q-123 0 -215 43.5t-153 122t-92 187.5t-31 240q0 46 3.5 94t12.5 97q25 150 82 273t143 210.5t197 135t241 47.5z
M762 1276q-107 0 -191 -37t-146 -107t-102 -171t-61 -229q-7 -43 -10.5 -86.5t-3.5 -82.5q0 -107 23 -187.5t67 -134t107.5 -80t143.5 -26.5q108 0 192.5 37.5t146 108t102 171t60.5 225.5q7 42 10.5 87t3.5 83q0 107 -24 187.5t-68.5 134t-107.5 80.5t-142 27z" />
    <glyph glyph-name="Pi" unicode="&#x3a0;" horiz-adv-x="1212" 
d="M834 0l198 1248h-626l-199 -1248h-156l224 1409h939l-224 -1409h-156z" />
    <glyph glyph-name="Rho" unicode="&#x3a1;" horiz-adv-x="1120" 
d="M699 1409q95 0 170.5 -27t129 -77t82 -122.5t28.5 -162.5q0 -110 -32 -197.5t-92.5 -148t-147 -93t-194.5 -32.5h-348l-87 -549h-156l223 1409h424zM320 700h317q157 0 235 78t78 233q0 65 -18.5 111t-52 76t-80.5 44t-105 14h-286z" />
    <glyph glyph-name="Sigma" unicode="&#x3a3;" horiz-adv-x="1008" 
d="M-5 0l27 171l535 581l-348 505l24 152h820l-24 -156h-649l315 -457l-19 -115l-484 -525h712l-26 -156h-883z" />
    <glyph glyph-name="Tau" unicode="&#x3a4;" horiz-adv-x="1026" 
d="M704 1253l-200 -1253h-156l200 1253h-397l25 156h949l-24 -156h-397z" />
    <glyph glyph-name="Upsilon" unicode="&#x3a5;" horiz-adv-x="1120" 
d="M644 584l-93 -584h-156l94 584l-314 825h160l251 -674l459 674h176z" />
    <glyph glyph-name="Phi" unicode="&#x3a6;" horiz-adv-x="1409" 
d="M526 216q-96 0 -173.5 32.5t-133 93.5t-85.5 148t-30 196q0 129 35 231t100 173t156 109t202 38h132l29 182h150l-27 -182h41q96 0 173.5 -32.5t133 -93t85.5 -147.5t30 -196q0 -129 -35.5 -231t-100.5 -173.5t-156 -109.5t-202 -38h-132l-37 -227h-151l36 227h-40z
M741 358h102q81 0 144.5 25.5t107.5 76t67 125.5t23 174q0 88 -21.5 151.5t-58.5 104t-86 60t-104 19.5h-57zM706 1094h-102q-81 0 -144.5 -25.5t-107 -75.5t-66.5 -124.5t-23 -173.5q0 -89 21.5 -152.5t58.5 -104.5t85.5 -60.5t102.5 -19.5h58z" />
    <glyph glyph-name="Chi" unicode="&#x3a7;" horiz-adv-x="1120" 
d="M819 0l-248 606l-430 -606h-173l536 746l-279 663h164l221 -551l389 551h173l-491 -676l301 -733h-163z" />
    <glyph glyph-name="Psi" unicode="&#x3a8;" horiz-adv-x="1395" 
d="M536 0l68 427h-42q-188 0 -289.5 102t-101.5 297q0 14 0.5 31.5t2 34t3 31t3.5 23.5l73 463h157l-74 -467q-2 -12 -4 -28l-4 -34q-2 -18 -3.5 -35t-1.5 -31q0 -67 19 -113.5t52.5 -76t81 -43t105.5 -13.5h46l133 841h152l-134 -841l65 -2q90 -3 150 22.5t98.5 74
t60.5 119.5t36 160l74 467h157l-81 -507q-17 -108 -52 -195.5t-94.5 -149.5t-145.5 -96t-205 -34h-86l-68 -427h-151z" />
    <glyph glyph-name="Omega" unicode="&#x3a9;" horiz-adv-x="1278" 
d="M729 1430q112 0 203 -38t155 -109.5t99 -174.5t35 -232q0 -126 -27.5 -238t-84.5 -205.5t-145.5 -166.5t-211.5 -121q37 3 70 6q29 2 58.5 3.5t48.5 1.5h208l-25 -156h-483l35 224q107 42 183.5 106.5t125 146.5t71 177.5t22.5 200.5q0 103 -24.5 181.5t-69 132
t-108 80.5t-141.5 27q-84 0 -162.5 -35t-139.5 -106.5t-97 -179.5t-36 -254q0 -88 14.5 -159.5t43 -129.5t70.5 -104t95 -84l-37 -224h-449l25 156h167q19 0 51.5 -1.5t63.5 -3.5q37 -3 78 -6q-57 39 -108 95t-88.5 128t-60 160t-22.5 193q0 165 47 296.5t127.5 223
t189.5 140.5t234 49z" />
    <glyph glyph-name="Iotadieresis" unicode="&#x3aa;" horiz-adv-x="467" 
d="M66 0l225 1409h157l-225 -1409h-157zM464 1530l29 184h142l-29 -184h-142zM150 1530l28 184h144l-29 -184h-143z" />
    <glyph glyph-name="Upsilondieresis" unicode="&#x3ab;" horiz-adv-x="1120" 
d="M644 584l-93 -584h-156l94 584l-314 825h160l251 -674l459 674h176zM837 1530l29 184h142l-29 -184h-142zM523 1530l28 184h144l-29 -184h-143z" />
    <glyph glyph-name="alphatonos" unicode="&#x3ac;" horiz-adv-x="954" 
d="M486 1101q57 0 101.5 -18t77.5 -50t53 -76.5t29 -98.5h1q6 21 16 47l20 55q12 30 26 61t30 61h153q-17 -31 -36.5 -75.5t-39.5 -95.5l-39 -105l-38 -108q-18 -52 -32 -99.5t-23 -84.5q0 -101 1.5 -176t4.5 -134.5t7 -108t10 -95.5h-145q-4 25 -7 57t-4.5 65t-2 63.5
t-0.5 51.5v16h-4q-27 -56 -57 -105.5t-67.5 -87t-84 -59.5t-104.5 -22q-66 0 -117.5 27t-86.5 78t-53 124.5t-18 166.5q0 46 4.5 103t13.5 111q22 142 61 240t91.5 158.5t118.5 87t140 26.5zM491 969q-47 0 -87.5 -20t-73.5 -67.5t-58.5 -125t-42.5 -192.5
q-17 -114 -17 -198q0 -247 152 -247q42 0 85.5 28t83.5 83t76 137t64 190q1 20 1.5 38.5t0.5 36.5q0 73 -10.5 135t-33 107t-57 70t-83.5 25zM547 1218l5 33l103 292h170l-6 -37l-211 -288h-61z" />
    <glyph glyph-name="epsilontonos" unicode="&#x3ad;" horiz-adv-x="737" 
d="M328 116q87 0 153 40t123 108l72 -105q-35 -43 -72 -76t-79.5 -56t-93 -35t-112.5 -12q-69 0 -123 21.5t-91.5 61t-57 94.5t-19.5 121q0 63 19 115t54 91t83.5 63.5t106.5 31.5l1 2q-32 11 -60 30.5t-49.5 48t-33.5 65.5t-12 81q0 73 23 128.5t66 92.5t103 55.5t134 18.5
q51 0 94.5 -9t80 -29t66.5 -53t53 -80l-111 -84q-34 63 -79 91t-107 28q-35 0 -67 -10t-55.5 -31t-38 -53t-14.5 -75q0 -45 21 -76t57 -49.5t85 -26.5t106 -8l-23 -141q-43 0 -85 -1.5t-81 -7.5t-73 -19.5t-58.5 -37t-39 -60t-14.5 -88.5q0 -36 10.5 -66.5t30.5 -52t47 -34
t60 -12.5zM465 1218l5 33l103 292h170l-6 -37l-211 -288h-61z" />
    <glyph glyph-name="etatonos" unicode="&#x3ae;" 
d="M521 -425l171 1070q7 39 11 79.5t4 70.5q0 79 -34.5 123t-112.5 44q-53 0 -99 -25.5t-84 -72t-64.5 -112t-39.5 -146.5l-97 -606h-148l127 789q4 23 7 46t5 44l3 38q2 17 2 27q0 11 -1 30l-2 38l-2 38q-1 19 -3 32h137q2 -12 4.5 -34t4 -48.5t2.5 -53.5t1 -49h2
q28 47 58 85t65.5 64.5t78.5 40.5t98 14q122 0 183 -73t61 -211q0 -36 -5 -81t-12 -83l-173 -1078h-148zM598 1218l5 33l103 292h170l-6 -37l-211 -288h-61z" />
    <glyph glyph-name="iotatonos" unicode="&#x3af;" horiz-adv-x="467" 
d="M250 139q0 -38 13 -74t34 -65h-204q-14 20 -21 52.5t-7 72.5q0 27 3 55.5t8 55.5l169 846h185l-170 -855q-4 -20 -7 -45t-3 -43zM243 1218l5 33l103 292h170l-6 -37l-211 -288h-61z" />
    <glyph glyph-name="upsilondieresistonos" unicode="&#x3b0;" horiz-adv-x="924" 
d="M341 1082l-99 -621q-11 -73 -11 -129q0 -101 40.5 -157t127.5 -56q60 0 106 27.5t79.5 75t57 112.5t37.5 140t20 157t6 164q0 87 -9.5 163t-18.5 124h154q11 -50 19 -122.5t8 -160.5q0 -103 -11.5 -204t-36.5 -192t-63 -168.5t-90.5 -134t-120 -88.5t-151.5 -32
q-66 0 -121 22t-94.5 66t-62 112t-22.5 159q0 35 3.5 72.5t9.5 79.5l95 591h148zM534 1200l6 33l115 368h153l-6 -37l-206 -364h-62zM359 1231l27 172h123l-28 -172h-122zM745 1231l28 172h123l-28 -172h-123z" />
    <glyph glyph-name="alpha" unicode="&#x3b1;" horiz-adv-x="954" 
d="M486 1101q57 0 101.5 -18t77.5 -50t53 -76.5t29 -98.5h1q6 21 16 47l20 55q12 30 26 61t30 61h153q-17 -31 -36.5 -75.5t-39.5 -95.5l-39 -105l-38 -108q-18 -52 -32 -99.5t-23 -84.5q0 -101 1.5 -176t4.5 -134.5t7 -108t10 -95.5h-145q-4 25 -7 57t-4.5 65t-2 63.5
t-0.5 51.5v16h-4q-27 -56 -57 -105.5t-67.5 -87t-84 -59.5t-104.5 -22q-66 0 -117.5 27t-86.5 78t-53 124.5t-18 166.5q0 46 4.5 103t13.5 111q22 142 61 240t91.5 158.5t118.5 87t140 26.5zM491 969q-47 0 -87.5 -20t-73.5 -67.5t-58.5 -125t-42.5 -192.5
q-17 -114 -17 -198q0 -247 152 -247q42 0 85.5 28t83.5 83t76 137t64 190q1 20 1.5 38.5t0.5 36.5q0 73 -10.5 135t-33 107t-57 70t-83.5 25z" />
    <glyph glyph-name="beta" unicode="&#x3b2;" horiz-adv-x="958" 
d="M188 1011q37 230 142.5 351.5t285.5 121.5q69 0 124.5 -23t94.5 -66t60.5 -102.5t21.5 -133.5q0 -83 -21 -148t-55 -112t-78 -76t-91 -41q44 -13 82 -41t66 -69t44 -94t16 -117q0 -107 -29 -195.5t-84 -152t-135 -98.5t-182 -35q-84 0 -152 28t-113 66h-5l-12 -103
q-6 -46 -15 -99l-47 -297h-147zM601 1343q-102 0 -170.5 -82t-95.5 -252l-129 -804q20 -16 47.5 -32t60 -29.5t68 -22t70.5 -8.5q63 0 115.5 20.5t90 62t59 104.5t21.5 147q0 55 -15.5 102t-45 81t-73.5 53.5t-100 19.5l22 142q59 10 105 32.5t77.5 59.5t48 90t16.5 123
q0 43 -10.5 78.5t-32 61t-54 39.5t-75.5 14z" />
    <glyph glyph-name="gamma" unicode="&#x3b3;" horiz-adv-x="840" 
d="M246 1082l94 -675q3 -23 6 -56l6 -67q3 -34 4.5 -65t1.5 -49q7 21 19 50l25 62l28 65l26 58l304 677h160l-484 -1029q-21 -45 -43 -100.5t-43 -117.5t-40.5 -128t-36.5 -131h-157q34 131 72 238l71 197l-168 1071h155z" />
    <glyph glyph-name="delta" unicode="&#x3b4;" horiz-adv-x="936" 
d="M420 113q73 0 128 33t92 90.5t55.5 135.5t18.5 168q0 65 -9 120t-24.5 102.5t-37 88.5t-45.5 78q-39 -15 -82.5 -36.5t-86 -51.5t-82 -70.5t-69.5 -95.5t-48 -125.5t-18 -160.5q0 -68 15.5 -120t43.5 -86.5t66 -52t83 -17.5zM624 1352q-11 0 -27.5 1t-35 2.5t-35.5 2.5
t-27 2l208 -324q36 -56 66.5 -112t51.5 -116t33.5 -124.5t12.5 -136.5q0 -128 -33.5 -232.5t-94.5 -179t-145.5 -115t-185.5 -40.5q-85 0 -151 30t-111.5 85t-70 131.5t-24.5 169.5q0 140 40 244t106.5 179.5t153.5 125.5t182 81l-208 339l19 119h603l-22 -132h-305z" />
    <glyph glyph-name="epsilon" unicode="&#x3b5;" horiz-adv-x="737" 
d="M328 116q87 0 153 40t123 108l72 -105q-35 -43 -72 -76t-79.5 -56t-93 -35t-112.5 -12q-69 0 -123 21.5t-91.5 61t-57 94.5t-19.5 121q0 63 19 115t54 91t83.5 63.5t106.5 31.5l1 2q-32 11 -60 30.5t-49.5 48t-33.5 65.5t-12 81q0 73 23 128.5t66 92.5t103 55.5t134 18.5
q51 0 94.5 -9t80 -29t66.5 -53t53 -80l-111 -84q-34 63 -79 91t-107 28q-35 0 -67 -10t-55.5 -31t-38 -53t-14.5 -75q0 -45 21 -76t57 -49.5t85 -26.5t106 -8l-23 -141q-43 0 -85 -1.5t-81 -7.5t-73 -19.5t-58.5 -37t-39 -60t-14.5 -88.5q0 -36 10.5 -66.5t30.5 -52t47 -34
t60 -12.5z" />
    <glyph glyph-name="zeta" unicode="&#x3b6;" horiz-adv-x="778" 
d="M847 1484l-21 -127l-132 -153l-140 -166q-69 -86 -132 -175t-111 -178.5t-76.5 -178.5t-28.5 -174q0 -43 12.5 -72.5t37.5 -51.5t62.5 -38t86.5 -33q47 -16 86.5 -33.5t69 -42.5t46.5 -60t17 -86q0 -43 -11 -81.5t-28 -74t-38 -66.5l-40 -59l-84 72l22 32
q12 17 21.5 37.5t16 42t6.5 42.5q0 27 -12 46.5t-36.5 35.5t-60 29.5t-81.5 27.5q-52 16 -97 38.5t-79 57t-53.5 83.5t-19.5 116q0 93 28.5 188t77.5 188.5t113 185t135 178t144 166.5l138 153l1 6q-10 -1 -29.5 -2t-41.5 -2t-42.5 -1.5t-29.5 -0.5h-245l22 131h526z" />
    <glyph glyph-name="eta" unicode="&#x3b7;" 
d="M521 -425l171 1070q7 39 11 79.5t4 70.5q0 79 -34.5 123t-112.5 44q-53 0 -99 -25.5t-84 -72t-64.5 -112t-39.5 -146.5l-97 -606h-148l127 789q4 23 7 46t5 44l3 38q2 17 2 27q0 11 -1 30l-2 38l-2 38q-1 19 -3 32h137q2 -12 4.5 -34t4 -48.5t2.5 -53.5t1 -49h2
q28 47 58 85t65.5 64.5t78.5 40.5t98 14q122 0 183 -73t61 -211q0 -36 -5 -81t-12 -83l-173 -1078h-148z" />
    <glyph glyph-name="theta" unicode="&#x3b8;" horiz-adv-x="911" 
d="M597 1484q152 0 225.5 -116.5t73.5 -339.5q0 -64 -7.5 -146t-20.5 -173q-30 -190 -76 -328t-106.5 -227t-137.5 -131.5t-171 -42.5q-67 0 -121 29.5t-92.5 89.5t-59.5 149.5t-21 209.5q0 58 5.5 131.5t18.5 153.5q60 374 180 557.5t310 183.5zM383 113q51 0 97 26t87 90
t76 172t64 272h-459q-11 -81 -16 -147t-5 -120q0 -83 11.5 -139.5t32.5 -90.5t49.5 -48.5t62.5 -14.5zM590 1355q-50 0 -95.5 -25.5t-86 -88.5t-75 -169.5t-62.5 -267.5h459q11 82 16.5 149t5.5 121q0 80 -11.5 134t-32.5 86.5t-51 46.5t-67 14z" />
    <glyph glyph-name="iota" unicode="&#x3b9;" horiz-adv-x="467" 
d="M250 139q0 -38 13 -74t34 -65h-204q-14 20 -21 52.5t-7 72.5q0 27 3 55.5t8 55.5l169 846h185l-170 -855q-4 -20 -7 -45t-3 -43z" />
    <glyph glyph-name="kappa" unicode="&#x3ba;" horiz-adv-x="840" 
d="M591 0l-219 502l-138 -124l-59 -378h-147l172 1082h148l-83 -515l167 190l296 325h183l-435 -465l275 -617h-160z" />
    <glyph glyph-name="lambda" unicode="&#x3bb;" horiz-adv-x="827" 
d="M456 981l-14 99q-10 74 -19.5 123.5t-23 80t-33 43.5t-48.5 13q-16 0 -33.5 -4t-23.5 -6l-20 130q11 5 26.5 9t32.5 7.5t33.5 5.5t29.5 2q44 0 76 -18t56 -58.5t41.5 -106t32.5 -160.5l169 -1141h-148l-102 766l-403 -766h-161z" />
    <glyph glyph-name="mu" unicode="&#x3bc;" horiz-adv-x="1180" 
d="M753 0q1 6 4 29l7 53q4 29 8.5 59t8.5 49h-4q-29 -50 -59 -89t-66 -66t-78 -41t-94 -14q-41 0 -79 8t-68.5 24t-52.5 38.5t-34 51.5h-4q-3 -32 -9 -64l-11 -58l-77 -373h-190l301 1475h191l-131 -644q-13 -61 -13 -115q0 -46 11 -83t36 -63.5t65 -41t97 -14.5
q63 0 115 26t92.5 71.5t68 108.5t41.5 138l126 617h190l-173 -849q-7 -34 -14 -72l-14 -71q-6 -34 -10 -58l-4 -32h-177z" />
    <glyph glyph-name="nu" unicode="&#x3bd;" horiz-adv-x="840" 
d="M342 166q80 112 143 209.5t106.5 191t66.5 190t23 205.5q0 35 -3.5 64.5t-8.5 55.5h146q15 -51 14 -119q0 -125 -40 -249.5t-105 -246t-147.5 -239t-168.5 -228.5h-137l-150 1082h154z" />
    <glyph glyph-name="xi" unicode="&#x3be;" horiz-adv-x="750" 
d="M793 1359q-44 -6 -89 -15t-86.5 -23t-77.5 -34t-63 -48t-42 -66t-15 -88q0 -58 21.5 -95.5t58 -60.5t83.5 -34.5t98 -17.5l-20 -131q-53 -8 -108 -23.5t-106 -39t-95.5 -56.5t-78.5 -76.5t-53 -97.5t-19 -121q0 -43 12.5 -72.5t37.5 -51.5t62.5 -38t86.5 -33
q47 -16 86.5 -33.5t69 -42.5t46.5 -60t17 -86q0 -43 -11 -81.5t-28 -74t-38 -66.5l-40 -59l-84 72l22 32q12 17 21.5 37.5t16 42t6.5 42.5q0 27 -12 46.5t-36.5 35.5t-60 29.5t-81.5 27.5q-52 16 -97 39.5t-79 59.5t-53.5 88t-19.5 124q0 92 31 174.5t90 148.5t142.5 112
t188.5 65v5q-44 9 -85.5 30t-72.5 54t-50 76.5t-19 97.5q0 70 27.5 118.5t69 81t90 51.5t90.5 29l1 8q-7 0 -22.5 -1t-36 -2t-44 -2t-45 -1.5t-39.5 -1t-28 -0.5h-61l21 131h520z" />
    <glyph glyph-name="omicron" unicode="&#x3bf;" 
d="M881 683q0 -52 -5 -104.5t-17 -111.5q-25 -132 -68.5 -225t-102.5 -151t-131 -84.5t-154 -26.5q-79 0 -143 29.5t-109.5 86t-70.5 138t-25 185.5q1 47 4.5 97t13.5 104q24 126 65.5 216.5t99 149.5t130 87t158.5 28q87 0 153 -28t111 -82t68 -131.5t23 -176.5zM728 683
q0 77 -14 131t-40.5 88.5t-64 50.5t-84.5 16q-43 0 -87 -12.5t-84 -50.5t-73 -108t-55 -186q-11 -55 -15 -104.5t-4 -91.5q0 -82 15.5 -140t43 -94t64.5 -52.5t82 -16.5q44 0 87 12t81.5 50.5t71 109.5t54.5 188q11 60 15.5 110t6.5 100z" />
    <glyph glyph-name="pi" unicode="&#x3c0;" horiz-adv-x="1124" 
d="M828 266q-2 -15 -3.5 -32.5t-1.5 -30.5q0 -48 17.5 -65t41.5 -17q18 0 38 4.5t39 10.5l-12 -134q-28 -9 -59.5 -15.5t-66.5 -6.5q-77 0 -112.5 51.5t-35.5 141.5q0 23 3 52t6 46l107 680h-329l-12 -72q-20 -130 -47 -256t-56 -240t-59 -211.5t-57 -171.5h-154
q28 76 59 174.5t62.5 211.5t59 236.5t47.5 248.5q1 2 2.5 14.5t4.5 27.5q3 18 5 38q-32 0 -64.5 -3t-61.5 -8.5t-51.5 -12t-34.5 -13.5l22 139q11 6 30 11.5t40 9.5t43.5 6t41.5 2h869l-21 -131h-192z" />
    <glyph glyph-name="rho" unicode="&#x3c1;" horiz-adv-x="961" 
d="M557 1102q80 0 145.5 -31.5t111 -89.5t70.5 -141t25 -187q0 -36 -3 -77t-10 -83q-19 -118 -59 -213t-97.5 -161.5t-129 -102.5t-153.5 -36q-48 0 -87.5 11t-72 30.5t-57.5 45.5t-47 56h-3q-3 -30 -7 -61q-5 -30 -9 -62l-68 -425h-147l160 1006q19 120 54 216.5t88.5 164
t127 104t168.5 36.5zM544 969q-61 0 -106.5 -28t-79 -79.5t-56 -124t-36.5 -160.5l-51 -317q17 -27 43 -53.5t57 -47t65.5 -33.5t70.5 -13q58 0 105 27t82.5 78t60.5 124.5t40 165.5q13 79 13 150q0 152 -55 231.5t-153 79.5z" />
    <glyph glyph-name="sigma1" unicode="&#x3c2;" horiz-adv-x="817" 
d="M55 330q0 74 13.5 160t40.5 171.5t68 165.5t97 141t126 97.5t155 36.5q51 0 89.5 -10t69.5 -28.5t54.5 -44t43.5 -56.5l-111 -108q-28 45 -67 75.5t-91 30.5q-50 0 -94 -27t-81 -73t-66 -107t-49 -129.5t-30.5 -140.5t-10.5 -140q0 -46 12.5 -78t37 -55t62 -40t86.5 -34
q47 -16 86.5 -33.5t69.5 -42.5t46.5 -60t16.5 -86q0 -43 -11 -81.5t-28 -74t-38 -66.5l-40 -59l-84 72l22 32q12 17 22 37.5t16.5 42t6.5 42.5q0 27 -12.5 46.5t-36.5 35.5t-60 29.5t-82 27.5q-52 16 -97 40t-79 62.5t-53.5 94.5t-19.5 134z" />
    <glyph glyph-name="sigma" unicode="&#x3c3;" horiz-adv-x="1014" 
d="M402 -20q-85 0 -150 31t-108.5 87t-65.5 136t-22 177q0 36 3 78t9 82q23 144 75 242t125 157.5t161 85.5t184 26h454l-22 -131h-119q-7 0 -21.5 0.5t-31.5 1.5l-35 2q-18 1 -32 2l-1 -4q24 -61 43.5 -142.5t19.5 -178.5q0 -134 -28.5 -253t-86 -207.5t-145 -140
t-206.5 -51.5zM411 113q86 0 144 42t94 117t51.5 179.5t15.5 229.5q0 81 -9.5 148.5t-22.5 121.5h-68q-67 0 -130.5 -20t-116 -66.5t-90.5 -121.5t-56 -185q-7 -41 -10 -77.5t-3 -71.5q0 -139 52 -217.5t149 -78.5z" />
    <glyph glyph-name="tau" unicode="&#x3c4;" horiz-adv-x="629" 
d="M274 951q-32 0 -64.5 -3t-62 -8.5t-52 -12t-33.5 -13.5l22 139q11 6 29.5 11.5t40 9.5t44 6t41.5 2h476l-21 -131h-250l-109 -685q-2 -15 -4 -32.5t-2 -30.5q0 -48 18 -65t41 -17q18 0 38.5 4.5t39.5 10.5l-12 -134q-28 -9 -59.5 -15.5t-66.5 -6.5q-77 0 -112.5 51.5
t-35.5 141.5q0 23 2.5 51.5t5.5 46.5l108 680h-22z" />
    <glyph glyph-name="upsilon" unicode="&#x3c5;" horiz-adv-x="924" 
d="M341 1082l-99 -621q-11 -73 -11 -129q0 -101 40.5 -157t127.5 -56q60 0 106 27.5t79.5 75t57 112.5t37.5 140t20 157t6 164q0 87 -9.5 163t-18.5 124h154q11 -50 19 -122.5t8 -160.5q0 -103 -11.5 -204t-36.5 -192t-63 -168.5t-90.5 -134t-120 -88.5t-151.5 -32
q-66 0 -121 22t-94.5 66t-62 112t-22.5 159q0 35 3.5 72.5t9.5 79.5l95 591h148z" />
    <glyph glyph-name="phi" unicode="&#x3c6;" horiz-adv-x="1096" 
d="M801 1104q55 0 99.5 -24t76 -71.5t48.5 -117.5t17 -162q0 -43 -4 -96t-13 -104q-24 -151 -70 -254t-110.5 -167t-146 -93.5t-175.5 -32.5l-65 -407h-140l65 407q-77 4 -137.5 37t-102 91.5t-63.5 140.5t-22 183q0 136 29.5 251t84 202.5t133 144t176.5 74.5l23 -133
q-113 -32 -182 -126.5t-95 -258.5q-15 -90 -15 -165q0 -138 48 -217.5t145 -86.5l92 580q16 96 39 171.5t59 127.5t86 79t120 27zM793 971q-28 0 -51.5 -14.5t-43 -46.5t-34.5 -83t-27 -125l-92 -583q64 2 116 25t92.5 72.5t70 128t47.5 190.5q11 66 16 122t5 101
q0 110 -26.5 161.5t-72.5 51.5z" />
    <glyph glyph-name="chi" unicode="&#x3c7;" horiz-adv-x="918" 
d="M427 239l-388 -663h-161l500 825l-85 343q-13 54 -24.5 95t-24 68.5t-27 41.5t-35.5 14q-9 0 -22.5 -4.5t-19.5 -7.5l-28 124l26 11q14 5 29.5 9t31 6.5t28.5 2.5q39 0 65.5 -13.5t46.5 -44.5t36 -82t34 -126l70 -295l303 539h158l-414 -697l213 -809h-148z" />
    <glyph glyph-name="psi" unicode="&#x3c8;" horiz-adv-x="1223" 
d="M611 119q76 1 129.5 16.5t90.5 52t60.5 97t38.5 151.5l103 646h150l-103 -644q-20 -122 -55 -208t-93 -141t-142 -81.5t-201 -27.5l-65 -405h-140l65 405q-91 1 -157.5 24.5t-109.5 67.5t-64 108t-21 146q0 32 3 68t10 76l97 612h148l-100 -627q-6 -35 -9.5 -67t-3.5 -59
q0 -113 56.5 -160.5t172.5 -49.5l195 1221h139z" />
    <glyph glyph-name="omega" unicode="&#x3c9;" horiz-adv-x="1309" 
d="M714 449q-4 -29 -6.5 -55.5t-2.5 -51.5q0 -49 8.5 -90t25.5 -70.5t42 -46t58 -16.5q53 0 93.5 26t70 75.5t50 120.5t34.5 161q14 85 14 155q0 116 -36.5 195.5t-113.5 111.5l41 139q70 -15 120 -58t82 -105.5t47 -139t15 -158.5q0 -79 -13 -156q-21 -128 -57.5 -223
t-87.5 -158t-115.5 -94t-138.5 -31q-54 0 -93 18.5t-66.5 53t-43 84t-21.5 110.5h-4q-21 -62 -48.5 -111.5t-63 -84t-80 -52.5t-100.5 -18q-64 0 -114 28.5t-84.5 81t-52.5 127.5t-18 169q0 79 10.5 159t33 154.5t57.5 141.5t84 120.5t112 90.5t142 51l9 -139
q-115 -30 -183.5 -137.5t-97.5 -284.5q-7 -48 -11 -91.5t-4 -84.5q0 -55 8 -100.5t26 -78t45.5 -50.5t66.5 -18q85 0 142.5 87t82.5 243l40 252h136z" />
    <glyph glyph-name="iotadieresis" unicode="&#x3ca;" horiz-adv-x="467" 
d="M250 139q0 -38 13 -74t34 -65h-204q-14 20 -21 52.5t-7 72.5q0 27 3 55.5t8 55.5l169 846h185l-170 -855q-4 -20 -7 -45t-3 -43zM363 1219l29 184h142l-29 -184h-142zM48 1219l29 184h143l-28 -184h-144z" />
    <glyph glyph-name="upsilondieresis" unicode="&#x3cb;" horiz-adv-x="924" 
d="M341 1082l-99 -621q-11 -73 -11 -129q0 -101 40.5 -157t127.5 -56q60 0 106 27.5t79.5 75t57 112.5t37.5 140t20 157t6 164q0 87 -9.5 163t-18.5 124h154q11 -50 19 -122.5t8 -160.5q0 -103 -11.5 -204t-36.5 -192t-63 -168.5t-90.5 -134t-120 -88.5t-151.5 -32
q-66 0 -121 22t-94.5 66t-62 112t-22.5 159q0 35 3.5 72.5t9.5 79.5l95 591h148zM669 1219l29 184h142l-29 -184h-142zM354 1219l29 184h143l-28 -184h-144z" />
    <glyph glyph-name="omicrontonos" unicode="&#x3cc;" 
d="M881 683q0 -52 -5 -104.5t-17 -111.5q-25 -132 -68.5 -225t-102.5 -151t-131 -84.5t-154 -26.5q-79 0 -143 29.5t-109.5 86t-70.5 138t-25 185.5q1 47 4.5 97t13.5 104q24 126 65.5 216.5t99 149.5t130 87t158.5 28q87 0 153 -28t111 -82t68 -131.5t23 -176.5zM728 683
q0 77 -14 131t-40.5 88.5t-64 50.5t-84.5 16q-43 0 -87 -12.5t-84 -50.5t-73 -108t-55 -186q-11 -55 -15 -104.5t-4 -91.5q0 -82 15.5 -140t43 -94t64.5 -52.5t82 -16.5q44 0 87 12t81.5 50.5t71 109.5t54.5 188q11 60 15.5 110t6.5 100zM575 1218l5 33l103 292h170l-6 -37
l-211 -288h-61z" />
    <glyph glyph-name="upsilontonos" unicode="&#x3cd;" horiz-adv-x="924" 
d="M341 1082l-99 -621q-11 -73 -11 -129q0 -101 40.5 -157t127.5 -56q60 0 106 27.5t79.5 75t57 112.5t37.5 140t20 157t6 164q0 87 -9.5 163t-18.5 124h154q11 -50 19 -122.5t8 -160.5q0 -103 -11.5 -204t-36.5 -192t-63 -168.5t-90.5 -134t-120 -88.5t-151.5 -32
q-66 0 -121 22t-94.5 66t-62 112t-22.5 159q0 35 3.5 72.5t9.5 79.5l95 591h148zM556 1218l5 33l103 292h170l-6 -37l-211 -288h-61z" />
    <glyph glyph-name="omegatonos" unicode="&#x3ce;" horiz-adv-x="1309" 
d="M714 449q-4 -29 -6.5 -55.5t-2.5 -51.5q0 -49 8.5 -90t25.5 -70.5t42 -46t58 -16.5q53 0 93.5 26t70 75.5t50 120.5t34.5 161q14 85 14 155q0 116 -36.5 195.5t-113.5 111.5l41 139q70 -15 120 -58t82 -105.5t47 -139t15 -158.5q0 -79 -13 -156q-21 -128 -57.5 -223
t-87.5 -158t-115.5 -94t-138.5 -31q-54 0 -93 18.5t-66.5 53t-43 84t-21.5 110.5h-4q-21 -62 -48.5 -111.5t-63 -84t-80 -52.5t-100.5 -18q-64 0 -114 28.5t-84.5 81t-52.5 127.5t-18 169q0 79 10.5 159t33 154.5t57.5 141.5t84 120.5t112 90.5t142 51l9 -139
q-115 -30 -183.5 -137.5t-97.5 -284.5q-7 -48 -11 -91.5t-4 -84.5q0 -55 8 -100.5t26 -78t45.5 -50.5t66.5 -18q85 0 142.5 87t82.5 243l40 252h136zM817 1218l5 33l103 292h170l-6 -37l-211 -288h-61z" />
    <glyph glyph-name="uni0400" unicode="&#x400;" horiz-adv-x="1120" 
d="M52 0l223 1409h861l-25 -156h-703l-73 -452h655l-25 -154h-654l-78 -491h737l-25 -156h-893zM822 1530l-240 217l4 29h170l142 -226l-3 -20h-73z" />
    <glyph glyph-name="afii10023" unicode="&#x401;" horiz-adv-x="1120" 
d="M52 0l223 1409h861l-25 -156h-703l-73 -452h655l-25 -154h-654l-78 -491h737l-25 -156h-893zM863 1530l29 184h142l-29 -184h-142zM549 1530l28 184h144l-29 -184h-143z" />
    <glyph glyph-name="afii10051" unicode="&#x402;" horiz-adv-x="1415" 
d="M703 1253l-55 -352q28 7 71.5 17t93.5 19.5t102 16t96 6.5q160 0 241 -79t81 -231q0 -24 -2 -52t-6 -51l-31 -196q-15 -93 -38.5 -162.5t-61.5 -116t-92.5 -69.5t-130.5 -23q-87 0 -148.5 37.5t-100.5 94.5l105 120q12 -16 27.5 -33.5t34.5 -31.5t41.5 -23.5t49.5 -9.5
q34 0 59.5 12.5t44.5 38.5t31.5 66t21.5 95l32 201q2 9 3 21t2.5 24.5t2 24t0.5 18.5q0 82 -48.5 126.5t-148.5 44.5q-42 0 -91.5 -5t-99.5 -12.5t-93 -16t-72 -16.5l-120 -756h-156l200 1253h-397l24 156h950l-25 -156h-397z" />
    <glyph glyph-name="afii10052" unicode="&#x403;" horiz-adv-x="958" 
d="M1018 1410l-25 -156h-585l-200 -1253h-156l224 1409h742zM594 1530l2 20l214 226h170l-4 -29l-289 -217h-93z" />
    <glyph glyph-name="afii10053" unicode="&#x404;" horiz-adv-x="1188" 
d="M557 -20q-120 0 -209 46t-148 125.5t-88 187t-29 230.5q0 124 21.5 236t62 207.5t99 173t131.5 131.5t159.5 83.5t183.5 29.5q104 0 182.5 -29.5t134 -77.5t89.5 -110t49 -128l-147 -55q-12 47 -37 90.5t-64 78t-92.5 55t-123.5 20.5q-94 0 -172 -35t-137.5 -98.5
t-100.5 -152t-63 -196.5h518l-24 -154h-513q-1 -18 -1 -36v-36q0 -94 21 -173t62 -136.5t102.5 -89.5t143.5 -32q77 0 138.5 24.5t110 65.5t86.5 93.5t68 107.5l117 -89q-39 -73 -88.5 -138t-113 -113.5t-144.5 -77t-184 -28.5z" />
    <glyph glyph-name="afii10054" unicode="&#x405;" horiz-adv-x="1120" 
d="M505 -20q-107 0 -186.5 23.5t-135.5 69t-89 112t-46 153.5l145 37q11 -62 33.5 -108t61 -76.5t95 -45.5t134.5 -15q80 0 144 13.5t108.5 45t68.5 82t24 125.5q0 51 -14 87t-48.5 64.5t-93 54t-147.5 55.5q-72 24 -135.5 53.5t-111 73t-75.5 105.5t-28 152q0 105 39 178.5
t104 120.5t149 68.5t175 21.5q99 0 173 -22t126 -61.5t83.5 -94.5t43.5 -120l-142 -51q-12 48 -34 86t-56.5 64.5t-82.5 40.5t-112 14q-85 0 -144 -17.5t-95.5 -49t-53 -75t-16.5 -94.5q0 -54 17 -89.5t51.5 -60.5t87.5 -45.5t125 -44.5q71 -24 139 -53t120 -73.5t84 -110.5
t32 -165q0 -206 -127.5 -317t-389.5 -111z" />
    <glyph glyph-name="afii10055" unicode="&#x406;" horiz-adv-x="467" 
d="M66 0l225 1409h157l-225 -1409h-157z" />
    <glyph glyph-name="afii10056" unicode="&#x407;" horiz-adv-x="467" 
d="M66 0l225 1409h157l-225 -1409h-157zM457 1530l29 184h142l-29 -184h-142zM143 1530l28 184h144l-29 -184h-143z" />
    <glyph glyph-name="afii10057" unicode="&#x408;" horiz-adv-x="840" 
d="M313 -20q-130 0 -213 93t-104 270l138 33q19 -117 64.5 -179t127.5 -62q49 0 85.5 22t62.5 62t42.5 96.5t27.5 124.5l129 813h-239l25 156h394l-158 -986q-16 -100 -45 -182t-74.5 -140t-110 -89.5t-152.5 -31.5z" />
    <glyph glyph-name="afii10058" unicode="&#x409;" horiz-adv-x="1790" 
d="M944 1249h-378l-99 -368l-85 -305q-38 -134 -74.5 -233.5t-71.5 -168t-74 -111t-83.5 -61t-98.5 -18.5q-20 0 -39.5 2.5t-29.5 7.5l24 152q9 -4 23 -5.5t22 -1.5q25 0 48 11.5t46.5 42.5t49 84.5t55 138t65 203.5t77.5 280l137 510h669l-94 -596h267q96 0 169.5 -26
t124 -74.5t76.5 -118t26 -157.5q0 -104 -31.5 -185t-90.5 -137t-143 -85.5t-190 -29.5h-496zM927 151h307q303 0 303 276q0 61 -18 105.5t-50 73t-77 42t-100 13.5h-283z" />
    <glyph glyph-name="afii10059" unicode="&#x40a;" horiz-adv-x="1651" 
d="M638 0l104 653h-430l-104 -653h-156l224 1409h156l-94 -596h430l94 596h157l-94 -596h227q96 0 170 -26t124.5 -74.5t76 -118t25.5 -157.5q0 -104 -31 -185t-90 -137t-143 -85.5t-190 -29.5h-456zM819 151h267q303 0 303 276q0 61 -17.5 105.5t-49.5 73t-77 42t-100 13.5
h-244z" />
    <glyph glyph-name="afii10060" unicode="&#x40b;" horiz-adv-x="1417" 
d="M504 0h-156l199 1253h-396l24 156h986l-24 -156h-434l-56 -352q28 8 66.5 18t82 19t90.5 15.5t90 6.5q159 0 236.5 -79.5t77.5 -230.5q0 -27 -3 -58t-6 -51l-86 -541h-156l87 547q3 18 5.5 46.5t2.5 46.5q0 79 -44.5 122.5t-143.5 43.5q-42 0 -86.5 -5t-87.5 -12.5
t-81.5 -16t-66.5 -16.5z" />
    <glyph glyph-name="afii10061" unicode="&#x40c;" horiz-adv-x="989" 
d="M275 1409h157l-99 -619q31 0 56.5 5t48.5 18t46.5 35t52 57t63.5 84l82 115l216 305h169l-294 -415q-68 -97 -112.5 -148.5t-71.5 -74.5l293 -771h-173l-249 677q-16 -7 -35.5 -13t-40.5 -10.5t-40.5 -6.5t-32.5 -2l-102 -645h-157zM665 1530l2 20l214 226h170l-4 -29
l-289 -217h-93z" />
    <glyph glyph-name="uni040D" unicode="&#x40d;" horiz-adv-x="1212" 
d="M812 1471l-231 278l4 29h169l132 -287l-2 -20h-72zM809 0l-435 1210q-5 -46 -11 -94l-11 -88q-6 -46 -13 -85l-148 -943h-139l223 1409h174l438 -1215q5 43 10 91l11 91q7 51 16 102l148 931h141l-224 -1409h-180z" />
    <glyph glyph-name="afii10062" unicode="&#x40e;" horiz-adv-x="1073" 
d="M576 318q-52 -88 -97 -152t-90.5 -105t-95 -61t-110.5 -20q-52 0 -101 21t-84 56l69 137q25 -22 56.5 -40.5t70.5 -18.5q35 0 63 12.5t55.5 41t59.5 75.5l74 116l54 89l-317 940h170l244 -784l439 784h176zM800 1530q-59 0 -105.5 16t-82.5 46.5t-63 76t-47 104.5l120 61
q15 -42 33 -76t42.5 -58t55.5 -36.5t71 -12.5q43 0 78 15t63 41t48.5 61.5t33.5 75.5l85 -36q-13 -50 -40.5 -100t-68.5 -89.5t-96.5 -64t-126.5 -24.5z" />
    <glyph glyph-name="afii10145" unicode="&#x40f;" horiz-adv-x="1214" 
d="M382 -408l65 408h-395l223 1409h157l-199 -1249h630l199 1249h152l-224 -1409h-395l-66 -408h-147z" />
    <glyph glyph-name="afii10017" unicode="&#x410;" horiz-adv-x="1120" 
d="M870 0l-62 412h-523l-197 -412h-171l695 1409h178l240 -1409h-160zM714 1034q-7 41 -13 80t-10 71.5t-7 54t-3 25.5q-2 -4 -11 -26l-24 -55l-34 -72l-37 -79l-222 -472h432z" />
    <glyph glyph-name="afii10018" unicode="&#x411;" horiz-adv-x="1094" 
d="M276 1409h760l-25 -156h-603l-70 -440h266q96 0 170 -26t124.5 -74.5t76 -118t25.5 -157.5q0 -104 -31 -185t-90 -137t-143 -85.5t-190 -29.5h-495zM231 151h307q303 0 303 276q0 61 -17.5 105.5t-49.5 73t-77 42t-100 13.5h-283z" />
    <glyph glyph-name="afii10019" unicode="&#x412;" horiz-adv-x="1120" 
d="M275 1409h419q85 0 153 -22t116 -63.5t74 -101.5t26 -135q0 -146 -70.5 -230.5t-207.5 -113.5q58 -12 102.5 -39.5t74.5 -67.5t45 -90t15 -107q0 -83 -18.5 -148t-52.5 -114t-79.5 -82.5t-99 -54.5t-113 -30.5t-119.5 -9.5h-488zM337 810h271q148 0 219.5 65t71.5 193
q0 95 -56 141.5t-163 46.5h-272zM232 153h302q64 0 124 12t106 44t74 88t28 145q0 107 -65.5 163t-187.5 56h-300z" />
    <glyph glyph-name="afii10020" unicode="&#x413;" horiz-adv-x="958" 
d="M1018 1410l-25 -156h-585l-200 -1253h-156l224 1409h742z" />
    <glyph glyph-name="afii10021" unicode="&#x414;" horiz-adv-x="1182" 
d="M936 160h144l-91 -568h-148l66 408h-850l-65 -408h-147l90 568h118q42 51 80 120t74.5 159.5t72.5 204.5t74 255l136 510h644zM784 160l173 1089h-359l-98 -368q-36 -134 -70 -244.5t-67 -199.5t-66 -157.5t-67 -119.5h554z" />
    <glyph glyph-name="afii10022" unicode="&#x415;" horiz-adv-x="1120" 
d="M52 0l223 1409h861l-25 -156h-703l-73 -452h655l-25 -154h-654l-78 -491h737l-25 -156h-893z" />
    <glyph glyph-name="afii10024" unicode="&#x416;" horiz-adv-x="1540" 
d="M710 659q-28 0 -64 7.5t-62 22.5l-459 -689h-193l549 775q-17 18 -46.5 73.5t-68.5 150.5l-172 410h159l120 -305q39 -99 66.5 -160.5t54.5 -95.5t59 -46t78 -12l99 619h156l-98 -619q31 0 56 5t48.5 18t47 35t51.5 57t63 84l83 115l216 305h169l-294 -415
q-68 -97 -112.5 -148.5t-71.5 -74.5l293 -771h-173l-247 693q-16 -7 -36 -13t-41 -10.5t-40 -6.5t-33 -2l-104 -661h-157z" />
    <glyph glyph-name="afii10025" unicode="&#x417;" horiz-adv-x="1030" 
d="M453 -20q-96 0 -168 25.5t-124.5 71t-87.5 109.5t-57 142l137 70q19 -58 43 -106.5t59 -84t85 -55t120 -19.5q72 0 129 19t96.5 55.5t60.5 91t21 125.5q0 105 -64.5 167.5t-200.5 62.5h-81l23 148h58q79 0 141 13.5t104.5 44.5t65 82.5t22.5 126.5q0 45 -14 82.5
t-40.5 64.5t-65.5 42.5t-89 15.5q-69 0 -120.5 -18t-91 -51t-68 -78.5t-49.5 -99.5l-136 61q66 169 181.5 255t290.5 86q80 0 146.5 -25t115 -69.5t75 -107t26.5 -137.5q0 -79 -21.5 -141.5t-59.5 -107.5t-90.5 -73t-114.5 -39q41 -9 79.5 -32.5t69 -61.5t49.5 -90t19 -118
q0 -105 -33.5 -187.5t-95 -140.5t-149 -88.5t-196.5 -30.5z" />
    <glyph glyph-name="afii10026" unicode="&#x418;" horiz-adv-x="1202" 
d="M52 0l224 1409h141l-147 -924q-8 -51 -17 -100l-16 -88l-17 -86l801 1198h183l-224 -1409h-140l149 936l15 84q8 44 14 82q8 45 17 88l-795 -1190h-188z" />
    <glyph glyph-name="afii10027" unicode="&#x419;" horiz-adv-x="1202" 
d="M52 0l224 1409h141l-147 -924q-8 -51 -17 -100l-16 -88l-17 -86l801 1198h183l-224 -1409h-140l149 936l15 84q8 44 14 82q8 45 17 88l-795 -1190h-188zM846 1530q-59 0 -105.5 16t-82.5 46.5t-63 76t-47 104.5l120 61q15 -42 33 -76t42.5 -58t55.5 -36.5t71 -12.5
q43 0 78 15t63 41t48.5 61.5t33.5 75.5l85 -36q-13 -50 -40.5 -100t-68.5 -89.5t-96.5 -64t-126.5 -24.5z" />
    <glyph glyph-name="afii10028" unicode="&#x41a;" horiz-adv-x="989" 
d="M275 1409h157l-99 -619q31 0 56.5 5t48.5 18t46.5 35t52 57t63.5 84l82 115l216 305h169l-294 -415q-68 -97 -112.5 -148.5t-71.5 -74.5l293 -771h-173l-249 677q-16 -7 -35.5 -13t-40.5 -10.5t-40.5 -6.5t-32.5 -2l-102 -645h-157z" />
    <glyph glyph-name="afii10029" unicode="&#x41b;" horiz-adv-x="1151" 
d="M976 1249h-410l-99 -368l-85 -305q-38 -134 -74.5 -233.5t-71.5 -168t-74 -111t-83.5 -61t-98.5 -18.5q-20 0 -39.5 2.5t-29.5 7.5l24 152q9 -4 23 -5.5t22 -1.5q25 0 48 11.5t46.5 42.5t49 84.5t55 138t65 203.5t77.5 280l136 510h696l-223 -1409h-153z" />
    <glyph glyph-name="afii10030" unicode="&#x41c;" horiz-adv-x="1399" 
d="M1034 0l148 928l17 104l17 97q9 51 19 99q-20 -52 -42 -103l-39 -92q-20 -48 -38 -85l-449 -948h-102l-152 948q-5 30 -11 78l-10 92l-12 110l-14 -111l-14 -98l-13 -91l-148 -928h-139l224 1409h193l155 -977q2 -15 7 -48.5t9 -68.5q5 -40 10 -88l33 84l29 71l24 58
l453 969h210l-224 -1409h-141z" />
    <glyph glyph-name="afii10031" unicode="&#x41d;" horiz-adv-x="1212" 
d="M837 0l104 653h-629l-104 -653h-156l224 1409h157l-95 -596h628l95 596h153l-225 -1409h-152z" />
    <glyph glyph-name="afii10032" unicode="&#x41e;" horiz-adv-x="1307" 
d="M770 1430q118 0 209 -42.5t153.5 -119.5t95 -183t32.5 -234q-1 -49 -4.5 -101.5t-11.5 -100.5q-25 -154 -83 -277.5t-144 -210.5t-196 -134t-239 -47q-123 0 -215 43.5t-153 122t-92 187.5t-31 240q0 46 3.5 94t12.5 97q25 150 82 273t143 210.5t197 135t241 47.5z
M762 1276q-107 0 -191 -37t-146 -107t-102 -171t-61 -229q-7 -43 -10.5 -86.5t-3.5 -82.5q0 -107 23 -187.5t67 -134t107.5 -80t143.5 -26.5q108 0 192.5 37.5t146 108t102 171t60.5 225.5q7 42 10.5 87t3.5 83q0 107 -24 187.5t-68.5 134t-107.5 80.5t-142 27z" />
    <glyph glyph-name="afii10033" unicode="&#x41f;" horiz-adv-x="1212" 
d="M834 0l198 1248h-626l-199 -1248h-156l224 1409h939l-224 -1409h-156z" />
    <glyph glyph-name="afii10034" unicode="&#x420;" horiz-adv-x="1120" 
d="M699 1409q95 0 170.5 -27t129 -77t82 -122.5t28.5 -162.5q0 -110 -32 -197.5t-92.5 -148t-147 -93t-194.5 -32.5h-348l-87 -549h-156l223 1409h424zM320 700h317q157 0 235 78t78 233q0 65 -18.5 111t-52 76t-80.5 44t-105 14h-286z" />
    <glyph glyph-name="afii10035" unicode="&#x421;" horiz-adv-x="1212" 
d="M1113 337q-40 -73 -90 -138t-114.5 -113.5t-147 -77t-187.5 -28.5q-121 0 -212 46t-150.5 125.5t-89 187t-29.5 230.5q0 124 22 236t63 207.5t100 173t133 131.5t161.5 83.5t186.5 29.5q106 0 185.5 -29.5t136 -77.5t90.5 -110t50 -128l-147 -55q-12 47 -38 90.5
t-65.5 78t-94 55t-125.5 20.5q-120 0 -213.5 -53.5t-158 -148t-98.5 -224t-34 -282.5q0 -94 21.5 -173t63.5 -136.5t105.5 -89.5t146.5 -32q74 0 135.5 24.5t112.5 65t92 93t72 108.5z" />
    <glyph glyph-name="afii10036" unicode="&#x422;" horiz-adv-x="1026" 
d="M704 1253l-200 -1253h-156l200 1253h-397l25 156h949l-24 -156h-397z" />
    <glyph glyph-name="afii10037" unicode="&#x423;" horiz-adv-x="1073" 
d="M576 318q-52 -88 -97 -152t-90.5 -105t-95 -61t-110.5 -20q-52 0 -101 21t-84 56l69 137q25 -22 56.5 -40.5t70.5 -18.5q35 0 63 12.5t55.5 41t59.5 75.5l74 116l54 89l-317 940h170l244 -784l439 784h176z" />
    <glyph glyph-name="afii10038" unicode="&#x424;" horiz-adv-x="1335" 
d="M491 216q-88 0 -160 31.5t-123 90.5t-79.5 145t-28.5 195q0 129 37.5 232t105 176t159.5 112t202 39h82l29 182h154l-28 -182h29q93 0 167 -31t125.5 -90t79 -144.5t27.5 -194.5q0 -129 -37 -232.5t-104 -176.5t-159.5 -112.5t-202.5 -39.5h-87l-36 -227h-154l36 227h-34
zM699 358h64q80 0 144 27t109 78.5t69 126t24 169.5q0 88 -20.5 151.5t-54.5 104t-79 60t-93 19.5h-45zM665 1094h-50q-176 0 -266.5 -103t-90.5 -296q0 -89 20 -152.5t54 -104.5t77.5 -60.5t91.5 -19.5h47z" />
    <glyph glyph-name="afii10039" unicode="&#x425;" horiz-adv-x="1120" 
d="M819 0l-248 606l-430 -606h-173l536 746l-279 663h164l221 -551l389 551h173l-491 -676l301 -733h-163z" />
    <glyph glyph-name="afii10040" unicode="&#x426;" horiz-adv-x="1221" 
d="M1118 160l-91 -568h-148l66 408h-893l224 1409h156l-198 -1249h588l198 1249h153l-199 -1249h144z" />
    <glyph glyph-name="afii10041" unicode="&#x427;" horiz-adv-x="1130" 
d="M833 508q-29 -8 -69 -18t-85 -19t-93 -15.5t-93 -6.5q-161 0 -242.5 79t-81.5 231q0 24 2 52t6 51l87 547h156l-87 -547q-2 -9 -3 -21t-2.5 -24.5t-2.5 -24t-1 -18.5q0 -82 50 -126.5t152 -44.5q43 0 88.5 5t89.5 12.5t83.5 16t67.5 16.5l121 756h156l-224 -1409h-156z
" />
    <glyph glyph-name="afii10042" unicode="&#x428;" horiz-adv-x="1546" 
d="M52 0l224 1409h156l-198 -1249h404l199 1249h152l-198 -1249h404l198 1249h153l-224 -1409h-1270z" />
    <glyph glyph-name="afii10043" unicode="&#x429;" horiz-adv-x="1550" 
d="M1447 160l-91 -568h-147l65 408h-1222l224 1409h156l-198 -1249h383l198 1249h153l-199 -1249h382l199 1249h152l-198 -1249h143z" />
    <glyph glyph-name="afii10044" unicode="&#x42a;" horiz-adv-x="1352" 
d="M527 1253h-376l24 156h533l-94 -596h240q96 0 169.5 -26t124 -74.5t76.5 -118t26 -157.5q0 -104 -31.5 -185t-90.5 -137t-143 -85.5t-190 -29.5h-467zM508 151h280q303 0 302 276q0 61 -17.5 105.5t-49.5 73t-77 42t-100 13.5h-256z" />
    <glyph glyph-name="afii10045" unicode="&#x42b;" horiz-adv-x="1561" 
d="M1140 0l235 1409h165l-235 -1409h-165zM354 813h279q101 0 178 -26t130 -74.5t80 -118t27 -157.5q0 -104 -32.5 -185t-94.5 -137t-150 -85.5t-199 -29.5h-519l236 1409h164zM243 151h321q317 0 318 276q0 61 -18.5 105.5t-52.5 73t-81 42t-105 13.5h-296z" />
    <glyph glyph-name="afii10046" unicode="&#x42c;" horiz-adv-x="1094" 
d="M338 813h257q96 0 170 -26t124.5 -74.5t76 -118t25.5 -157.5q0 -104 -31 -185t-90 -137t-143 -85.5t-190 -29.5h-486l225 1409h157zM231 151h298q303 0 303 276q0 61 -17.5 105.5t-49.5 73t-77 42t-100 13.5h-274z" />
    <glyph glyph-name="afii10047" unicode="&#x42d;" horiz-adv-x="1165" 
d="M639 1274q-129 0 -219 -66.5t-139 -186.5l-138 60q33 82 79 146.5t108 109.5t140 69t175 24q110 0 196.5 -42.5t146.5 -120.5t91.5 -187.5t31.5 -243.5q0 -187 -43.5 -344t-125 -271t-199.5 -177.5t-268 -63.5q-88 0 -162 23t-133 69.5t-100 116.5t-64 163l143 58
q34 -133 115.5 -203t206.5 -70q89 0 166.5 33t137.5 97t100.5 157.5t54.5 213.5h-513l22 154h501q2 20 2.5 38.5t0.5 37.5q0 94 -21.5 169t-62 127.5t-99 81t-131.5 28.5z" />
    <glyph glyph-name="afii10048" unicode="&#x42e;" horiz-adv-x="1718" 
d="M1196 1430q112 0 199.5 -42.5t147 -119.5t90.5 -183t31 -234q-1 -49 -4.5 -101.5t-11.5 -100.5q-24 -154 -79 -277.5t-137 -210.5t-187 -134t-228 -47q-116 0 -204.5 43.5t-147 122t-87.5 187.5t-29 240q0 40 2 80h-239l-104 -653h-156l224 1409h156l-94 -596h234
q28 140 84 254t136 194.5t182 124.5t222 44zM1189 1276q-100 0 -178 -37t-135.5 -107t-95.5 -171t-57 -229q-7 -43 -10 -86.5t-3 -82.5q0 -214 84 -321t234 -107q101 0 179.5 37.5t135.5 108t95 171t57 225.5q7 42 9.5 87t2.5 83q0 107 -22 187.5t-63.5 134t-100.5 80.5
t-132 27z" />
    <glyph glyph-name="afii10049" unicode="&#x42f;" horiz-adv-x="1145" 
d="M-75 0l455 613q-37 16 -77 44.5t-72.5 73.5t-53.5 108t-21 148q0 213 121.5 317.5t375.5 104.5h494l-224 -1409h-157l93 585h-324l-423 -585h-187zM966 1256h-338q-154 0 -233.5 -62.5t-79.5 -202.5q0 -73 20.5 -122t55 -78.5t79.5 -42t93 -12.5h320z" />
    <glyph glyph-name="afii10065" unicode="&#x430;" 
d="M865 6q-24 -7 -51.5 -11.5t-53.5 -4.5q-76 0 -111 38.5t-35 114.5q0 15 1.5 32.5t2.5 31.5h-5q-29 -53 -59.5 -95t-67.5 -71.5t-83 -45t-107 -15.5q-64 0 -112 25t-80.5 66.5t-49 95.5t-16.5 111q0 81 19 140t52.5 101t78 68.5t95 41.5t104.5 21t106 7l190 3l6 36
q4 25 7 48t3 43q0 91 -43.5 134.5t-120.5 43.5q-40 0 -75 -7.5t-62.5 -27t-48.5 -53t-34 -84.5l-146 29q16 62 43 113.5t71 88.5t107.5 57.5t152.5 20.5q73 0 129.5 -22t95 -61t58.5 -93t20 -119q0 -31 -4.5 -74.5t-10.5 -82.5l-61 -378q-4 -22 -6.5 -45t-2.5 -43
q0 -37 16 -55t50 -18q12 0 25 2t25 5zM663 536l-163 -4q-33 -1 -68 -4t-69 -12.5t-65 -25.5t-54 -43.5t-36.5 -66.5t-13.5 -94q0 -32 9 -62.5t27 -54t44.5 -38t62.5 -14.5q71 0 124.5 30t91 74t59.5 95.5t29 94.5z" />
    <glyph glyph-name="afii10066" unicode="&#x431;" horiz-adv-x="944" 
d="M542 895q-48 0 -94 -15t-87 -54.5t-73.5 -107t-52.5 -172.5q-6 -29 -8 -65t-2 -65q0 -81 15.5 -138.5t43 -94t66 -53.5t83.5 -17q54 0 100 18.5t82.5 60.5t63.5 110.5t42 168.5q7 44 10.5 82.5t3.5 72.5q0 72 -14 123.5t-39.5 83.5t-61 47t-78.5 15zM574 1027
q152 0 234 -100.5t82 -290.5q0 -38 -3.5 -78t-10.5 -84q-20 -132 -61 -226t-99 -153.5t-131 -87t-158 -27.5q-79 0 -142.5 29t-107.5 91t-67.5 158t-23.5 231q0 56 7 132t21 154q30 171 74.5 286t110.5 190.5t158.5 119t217.5 71.5q48 11 91 20l80 15l75 13l72 12l-25 -161
q-72 -11 -140 -23t-145 -28q-68 -14 -122.5 -28.5t-98.5 -37t-78.5 -57t-62.5 -88.5t-50 -131.5t-42 -185.5q25 56 57.5 104t74.5 84t95 56.5t118 20.5z" />
    <glyph glyph-name="afii10067" unicode="&#x432;" horiz-adv-x="877" 
d="M827 840q0 -64 -19 -111t-50 -80t-71.5 -53t-84.5 -29l-1 -7q36 -7 69.5 -25t59 -47t40.5 -69.5t15 -92.5q0 -90 -29 -155t-82 -107.5t-127 -63t-162 -20.5q-92 0 -181.5 10.5t-171.5 30.5l95 618q21 131 58 218t88.5 139.5t115 74t137.5 21.5q70 0 125.5 -16t94.5 -48
t60 -79t21 -109zM196 133q20 -4 45 -7.5t51 -6.5t51.5 -4.5t46.5 -1.5q111 0 174.5 50t63.5 158q0 80 -50.5 127t-159.5 47h-164zM436 625q115 0 174 47t59 145q0 65 -37.5 103t-113.5 38q-37 0 -72.5 -10.5t-67 -42t-57 -88.5t-40.5 -151l-6 -41h161z" />
    <glyph glyph-name="afii10068" unicode="&#x433;" horiz-adv-x="829" 
d="M475 962q-46 0 -81 -8.5t-61 -26.5t-44 -46.5t-30 -68.5l-124 48q31 118 118.5 180.5t233.5 62.5q82 0 140 -21.5t94.5 -58.5t53 -86.5t16.5 -104.5q0 -70 -21 -120.5t-63 -88t-103 -66.5t-139 -57l-119 -44q-53 -21 -88.5 -46t-53.5 -57t-18 -79q0 -78 46.5 -115.5
t140.5 -37.5q52 0 90.5 9.5t67 29t48 49.5t31.5 70l120 -56q-31 -118 -120.5 -180.5t-240.5 -62.5q-99 0 -164 25.5t-102.5 67t-52 93t-14.5 103.5q0 77 24.5 132.5t70 97t112 73t151.5 59.5q83 27 132.5 50.5t76 47t35 49t8.5 55.5q0 26 -8.5 49.5t-28.5 41t-53 28
t-81 10.5z" />
    <glyph glyph-name="afii10069" unicode="&#x434;" horiz-adv-x="928" 
d="M403 -20q-84 0 -148.5 31.5t-108.5 89t-67.5 138t-23.5 178.5q0 30 2 63.5t8 67.5q20 125 59.5 215.5t93 148.5t119 85.5t136.5 27.5q41 0 80.5 -10.5t74 -30t63 -46.5t48.5 -61q2 38 2 73q0 108 -21 185t-57.5 126.5t-87 72.5t-109.5 23q-30 0 -62.5 -8.5t-55.5 -19.5
l-35 123q30 14 71 23.5t80 9.5q201 0 306.5 -151t105.5 -454q0 -145 -27 -332q-25 -153 -65 -260.5t-95.5 -176t-127 -100t-158.5 -31.5zM411 113q79 0 129 35t81.5 92t47.5 128.5t27 143.5q9 58 9 117q0 50 -9 98t-33 85.5t-64 60t-103 22.5q-57 0 -102.5 -21t-79.5 -65.5
t-58.5 -114t-39.5 -167.5q-5 -35 -7.5 -68.5t-2.5 -64.5q0 -65 12 -117t37 -88.5t64.5 -56t91.5 -19.5z" />
    <glyph glyph-name="afii10070" unicode="&#x435;" 
d="M210 503q-4 -28 -5.5 -56.5t-1.5 -56.5q0 -133 54.5 -204t163.5 -71q46 0 84 14.5t68.5 39t54 57t39.5 68.5l113 -63q-20 -45 -50 -89.5t-73.5 -80.5t-105 -58.5t-147.5 -22.5q-82 0 -146.5 28.5t-109.5 83t-68 133.5t-23 180q0 158 34.5 287t96.5 220t146 140.5
t183 49.5q90 0 156.5 -29t110.5 -81t66 -124.5t22 -159.5q0 -21 -1.5 -46t-4 -52t-6 -54.5t-8.5 -52.5h-642zM722 641q2 20 2.5 37.5t0.5 34.5q0 66 -15 114.5t-42 80t-64.5 46.5t-83.5 15q-39 0 -82.5 -14.5t-83.5 -51.5t-73 -100.5t-51 -161.5h492z" />
    <glyph glyph-name="afii10072" unicode="&#x436;" horiz-adv-x="1155" 
d="M499 485q-21 0 -44 6t-37 14l-315 -505h-164l387 599q-10 12 -29 48.5t-44 103.5l-123 331h143l83 -239q27 -76 46 -122.5t37 -71.5t36 -33t43 -8l75 474h148l-75 -474q25 0 45 8t44.5 33t58.5 71.5t84 122.5l160 239h158l-222 -325q-46 -67 -80.5 -110.5t-55.5 -60.5
l193 -586h-153l-152 506q-8 -4 -21 -7.5t-27 -6.5t-27.5 -5t-23.5 -2l-78 -485h-148z" />
    <glyph glyph-name="afii10073" unicode="&#x437;" horiz-adv-x="780" 
d="M314 -20q-138 0 -220.5 61t-104.5 193l138 44q7 -37 22.5 -67.5t39 -52t57 -33t78.5 -11.5q39 0 74 10.5t62 34.5t42.5 62.5t15.5 93.5q0 50 -17 85.5t-49 58t-78 32.5t-105 10l23 134q55 0 107 7.5t93 28.5t66 59t25 99q0 69 -41 104t-109 35q-29 0 -57.5 -6.5
t-53.5 -22.5t-44.5 -44t-30.5 -71l-135 20q17 71 47.5 120t72.5 80t96 44.5t118 13.5q66 0 119.5 -19t91 -53.5t57.5 -82t20 -104.5q0 -69 -23.5 -119.5t-60 -84.5t-79.5 -52t-83 -23v-4q44 -6 78.5 -28t58.5 -55.5t36.5 -75.5t12.5 -88q0 -76 -24 -137.5t-70 -105t-113 -67
t-153 -23.5z" />
    <glyph glyph-name="afii10074" unicode="&#x438;" horiz-adv-x="939" 
d="M345 1082l-94 -592q-4 -23 -11 -61.5t-15 -79.5t-15 -78t-11 -58l548 869h161l-172 -1082h-141l105 660q3 19 8 48l12 58q5 30 11 58l11 49l-554 -873h-157l172 1082h142z" />
    <glyph glyph-name="afii10075" unicode="&#x439;" horiz-adv-x="939" 
d="M547 1200q-59 0 -105.5 16t-82.5 46.5t-63 76t-47 104.5l120 61q15 -42 33 -76t42.5 -58t55.5 -36.5t71 -12.5q43 0 78 15t63 41t48.5 61.5t33.5 75.5l85 -36q-13 -50 -40.5 -100t-68.5 -89.5t-96.5 -64t-126.5 -24.5zM345 1082l-94 -592q-4 -23 -11 -61.5t-15 -79.5
t-15 -78t-11 -58l548 869h161l-172 -1082h-141l105 660q3 19 8 48l12 58q5 30 11 58l11 49l-554 -873h-157l172 1082h142z" />
    <glyph glyph-name="afii10076" unicode="&#x43a;" horiz-adv-x="793" 
d="M200 1082h148l-76 -474q27 0 51.5 8t53.5 33t65.5 71.5t87.5 122.5l160 239h157l-221 -325q-46 -67 -81 -110.5t-55 -60.5l192 -586h-152l-155 498q-25 -11 -55.5 -16t-68.5 -5l-76 -477h-147z" />
    <glyph glyph-name="afii10077" unicode="&#x43b;" horiz-adv-x="948" 
d="M593 0l151 951h-274l-99 -357q-43 -151 -78.5 -259t-66.5 -177t-63.5 -108.5t-69 -54.5t-82.5 -15q-28 0 -52.5 5.5t-38.5 12.5l26 130q9 -5 25 -10t31 -5q22 0 42 15.5t41.5 55.5t46 109.5t56.5 176.5l74 259l97 353h555l-173 -1082h-148z" />
    <glyph glyph-name="afii10078" unicode="&#x43c;" horiz-adv-x="1151" 
d="M1119 1082l-172 -1082h-142l115 724l10 52l10 62q6 32 12 62.5t11 52.5l-411 -953h-122l-114 951q-2 -25 -6 -55.5l-8 -61t-8.5 -59t-8.5 -51.5l-114 -724h-143l172 1082h217l69 -582q5 -42 8.5 -93.5t6 -102.5t4 -95.5t1.5 -73.5q24 80 52 156.5t51 129.5l288 661h222z
" />
    <glyph glyph-name="afii10079" unicode="&#x43d;" horiz-adv-x="924" 
d="M348 1082l-73 -458h396l73 458h147l-172 -1082h-148l78 493h-396l-78 -493h-147l172 1082h148z" />
    <glyph glyph-name="afii10080" unicode="&#x43e;" 
d="M881 683q0 -52 -5 -104.5t-17 -111.5q-25 -132 -68.5 -225t-102.5 -151t-131 -84.5t-154 -26.5q-79 0 -143 29.5t-109.5 86t-70.5 138t-25 185.5q1 47 4.5 97t13.5 104q24 126 65.5 216.5t99 149.5t130 87t158.5 28q87 0 153 -28t111 -82t68 -131.5t23 -176.5zM728 683
q0 77 -14 131t-40.5 88.5t-64 50.5t-84.5 16q-43 0 -87 -12.5t-84 -50.5t-73 -108t-55 -186q-11 -55 -15 -104.5t-4 -91.5q0 -82 15.5 -140t43 -94t64.5 -52.5t82 -16.5q44 0 87 12t81.5 50.5t71 109.5t54.5 188q11 60 15.5 110t6.5 100z" />
    <glyph glyph-name="afii10081" unicode="&#x43f;" 
d="M902 1082l-174 -1082h-150l153 951h-401l-153 -951h-149l174 1082h700z" />
    <glyph glyph-name="afii10082" unicode="&#x440;" 
d="M454 -20q-101 0 -164.5 52t-89.5 146h-4q0 -2 -1.5 -19.5t-4.5 -43.5l-8 -57q-5 -31 -10 -60l-67 -423h-147l204 1286q7 39 12 75t8.5 65.5t5.5 50.5t3 30h137q0 -8 -1 -26t-3 -40.5t-4.5 -47.5t-5.5 -47h3q30 47 60.5 81t65.5 56.5t75 33t90 10.5q66 0 116.5 -25t85 -71
t52.5 -111.5t18 -146.5q0 -50 -4 -109.5t-13 -122.5q-22 -142 -58.5 -243.5t-87 -166.5t-116.5 -95.5t-147 -30.5zM565 963q-52 0 -99.5 -19t-87.5 -65.5t-71 -125.5t-50 -199q-16 -98 -15 -177q0 -64 14 -113.5t39.5 -83t62 -50.5t81.5 -17q51 0 92 18.5t74 64t58.5 122
t43.5 192.5q19 121 19 206q0 123 -38.5 185t-122.5 62z" />
    <glyph glyph-name="afii10083" unicode="&#x441;" horiz-adv-x="840" 
d="M385 122q46 0 82.5 16.5t65.5 46.5t51 72.5t38 94.5l128 -49q-23 -75 -56.5 -134.5t-79 -101.5t-103.5 -64.5t-130 -22.5q-84 0 -146 31t-101.5 86.5t-59 131.5t-19.5 166q0 40 3 87t10 92q18 111 46.5 193t63 140.5t75.5 96.5t84 59.5t87.5 30t88.5 8.5q73 0 128 -23
t94 -65t60.5 -100.5t25.5 -129.5l-145 -25q-2 45 -13.5 82t-32.5 63.5t-51.5 41.5t-70.5 15q-57 0 -102 -20t-80.5 -65t-61 -117.5t-43.5 -177.5q-7 -48 -11 -101t-4 -91q0 -127 42.5 -197t136.5 -70z" />
    <glyph glyph-name="afii10084" unicode="&#x442;" horiz-adv-x="1399" 
d="M541 0l102 634q3 20 7 44t6.5 48t4.5 45.5t2 36.5q0 75 -31 114.5t-101 39.5q-47 0 -89.5 -25.5t-76 -72t-58 -113t-36.5 -147.5l-96 -604h-147l136 851q6 34 11 71l9 72l8 57q3 24 4 31h139q0 -5 -3 -27l-6 -51l-6 -58q-4 -29 -8 -49h3q25 47 51 85t57 64.5t69.5 40.5
t86.5 14q99 0 157.5 -59.5t69.5 -172.5q26 50 54 92t62 73.5t75.5 49t93.5 17.5q111 0 170.5 -73t59.5 -211q0 -36 -5.5 -81t-11.5 -83l-104 -653h-146l101 634q3 20 7 44t7 48t5 45.5t2 36.5q0 75 -31 114.5t-102 39.5q-47 0 -89 -25t-75.5 -71t-58.5 -112t-36 -147
l-97 -607h-146z" />
    <glyph glyph-name="afii10085" unicode="&#x443;" horiz-adv-x="840" 
d="M411 0q-45 -95 -87 -173t-88 -134t-99.5 -87t-123.5 -31q-27 0 -55.5 3.5t-52.5 10.5l25 134q14 -3 31.5 -5.5t31.5 -2.5q78 0 137.5 64t117.5 186l22 47l-178 1070h150l92 -598q5 -32 10 -74l11 -84l9 -76q4 -36 4 -54q8 22 22 54l29 66l33 74l32 72l277 620h163z" />
    <glyph glyph-name="afii10086" unicode="&#x444;" horiz-adv-x="1403" 
d="M304 -21q-60 0 -105.5 25t-77.5 71t-48 111.5t-16 146.5q0 45 3 107t12 125q21 142 54.5 243.5t80 166.5t108 95.5t136.5 30.5q93 0 152.5 -52t82.5 -146h4q2 10 5.5 33t7 48.5t7 48.5t3.5 32l68 419h147l-90 -563h2q27 47 54.5 81t59.5 56.5t68.5 33t80.5 10.5
q59 0 105.5 -25t77.5 -71t47.5 -111.5t16.5 -146.5q0 -50 -3.5 -109.5t-12.5 -122.5q-20 -142 -54 -243.5t-80.5 -166.5t-107 -95.5t-135.5 -30.5q-93 0 -152 52t-83 146h-4q0 -2 -1.5 -19.5t-4.5 -43.5l-8 -57l-9 -60l-68 -423h-146l92 585h-4q-27 -47 -55 -81t-60 -56.5
t-69 -33t-81 -10.5zM354 118q47 0 89 19t78 65.5t63.5 125.5t44.5 199q16 98 16 177q0 65 -13 114t-36.5 82.5t-56 50.5t-72.5 17q-45 0 -82 -18.5t-66.5 -64t-52 -122t-38.5 -192.5q-17 -118 -17 -206q0 -123 34 -185t109 -62zM1052 963q-47 0 -89 -19t-77.5 -65.5
t-63 -125.5t-44.5 -199q-7 -51 -10.5 -95t-3.5 -82q0 -130 48 -197t128 -67q45 0 81.5 18.5t66 64t52 122t38.5 192.5q17 119 18 206q0 123 -34.5 185t-109.5 62z" />
    <glyph glyph-name="afii10087" unicode="&#x445;" horiz-adv-x="840" 
d="M579 0l-171 444l-312 -444h-163l403 556l-216 526h155l158 -421l287 421h169l-385 -524l231 -558h-156z" />
    <glyph glyph-name="afii10088" unicode="&#x446;" horiz-adv-x="961" 
d="M343 1082l-103 -645q-7 -39 -11 -79.5t-4 -70.5q0 -79 34.5 -123t112.5 -44q53 0 99 25.5t84 72t64.5 112t39.5 146.5l97 606h148l-137 -851q-4 -24 -7.5 -49.5t-7.5 -50.5h120l-86 -539h-134l66 408h-122q0 5 2 27l6 51q4 28 8 57.5t7 49.5h-3q-28 -47 -57.5 -85
t-65 -64.5t-78.5 -40.5t-98 -14q-121 0 -182.5 73t-61.5 211q0 36 5.5 81t11.5 83l104 653h149z" />
    <glyph glyph-name="afii10089" unicode="&#x447;" horiz-adv-x="868" 
d="M327 1082l-55 -344q-2 -9 -4 -22l-2 -26q-2 -14 -3 -26.5t-1 -20.5q0 -65 31.5 -95t95.5 -30q29 0 54 3t51 8.5t53 14.5t59 21l83 517h147l-172 -1082h-147l73 461q-67 -42 -128.5 -64t-128.5 -22q-51 0 -91.5 16t-69.5 48t-44.5 79.5t-15.5 110.5q0 11 1 26t2.5 30.5
t3.5 31.5t5 29l55 336h148z" />
    <glyph glyph-name="afii10090" unicode="&#x448;" horiz-adv-x="1395" 
d="M851 1082l-102 -634l-7 -43l-6 -48t-5 -46t-2 -37q0 -75 31 -114.5t102 -39.5q47 0 89 25.5t75.5 72t58 113t36.5 147.5l97 604h147l-137 -851q-6 -34 -11 -71l-9 -72l-8 -57q-3 -24 -4 -31h-139q0 5 3 27l6 51q3 28 7 57.5t7 49.5h-3q-25 -47 -51 -85t-57 -64.5
t-69 -40.5t-87 -14q-99 0 -157.5 59.5t-69.5 172.5q-25 -49 -53.5 -91.5t-62.5 -74t-75.5 -49t-94.5 -17.5q-111 0 -170 73t-59 211q0 36 5 81t12 83l104 653h146l-102 -634l-6 -43q-4 -24 -7 -48t-5 -46t-2 -37q0 -75 31 -114.5t102 -39.5q47 0 89 25t75.5 71t58.5 112
t36 147l97 607h146z" />
    <glyph glyph-name="afii10091" unicode="&#x449;" horiz-adv-x="1430" 
d="M1065 0q0 5 3 27l6 51q3 28 7 57.5t7 49.5h-3q-25 -47 -51.5 -85t-58.5 -64.5t-70.5 -40.5t-87.5 -14q-99 0 -157.5 59.5t-69.5 172.5q-25 -49 -53.5 -91.5t-62.5 -74t-75.5 -49t-94.5 -17.5q-111 0 -172 73t-61 211q0 36 5 81t12 83l104 653h146l-102 -634l-6 -43
q-4 -24 -7 -48t-5 -46t-2 -37q0 -75 33 -114.5t104 -39.5q47 0 89 25t75.5 71t58.5 112t36 147l97 607h146l-102 -634l-7 -43q-4 -24 -6.5 -48t-4.5 -46t-2 -37q0 -75 31 -114.5t102 -39.5q47 0 89.5 25.5t77 72t59.5 113t37 147.5l97 604h147l-137 -851q-4 -24 -7 -49.5
t-7 -50.5h120l-86 -539h-134l66 408h-123z" />
    <glyph glyph-name="afii10092" unicode="&#x44a;" horiz-adv-x="1042" 
d="M944 335q0 -91 -27.5 -158t-79 -111t-126 -65t-167.5 -21q-92 0 -181.5 10.5t-171.5 30.5l147 930h-284l21 131h432l-73 -458h151q80 0 146.5 -16t113.5 -50.5t73 -89.5t26 -133zM356 133q20 -4 44.5 -7.5t51 -6.5t51.5 -4.5t46 -1.5q111 0 174.5 50t63.5 158
q0 41 -11.5 73.5t-36.5 55t-65.5 34t-96.5 11.5h-163z" />
    <glyph glyph-name="afii10093" unicode="&#x44b;" horiz-adv-x="1256" 
d="M897 0l175 1082h150l-175 -1082h-150zM798 335q0 -91 -28 -158t-80.5 -111t-128 -65t-170.5 -21q-93 0 -184.5 10.5t-174.5 30.5l171 1061h150l-74 -458h154q82 0 149 -16t115 -50.5t74.5 -89.5t26.5 -133zM199 133q20 -4 45.5 -7.5t52 -6.5t52.5 -4.5t47 -1.5
q113 0 177.5 50t64.5 158q0 41 -11.5 73.5t-37.5 55t-66.5 34t-98.5 11.5h-166z" />
    <glyph glyph-name="afii10094" unicode="&#x44c;" horiz-adv-x="883" 
d="M785 335q0 -91 -27.5 -158t-79.5 -111t-126 -65t-167 -21q-92 0 -182 10.5t-172 30.5l169 1061h148l-73 -458h151q80 0 146.5 -16t113.5 -50.5t73 -89.5t26 -133zM196 133q20 -4 45 -7.5t51 -6.5t51.5 -4.5t45.5 -1.5q111 0 175 50t64 158q0 41 -11.5 73.5t-37 55
t-65.5 34t-97 11.5h-163z" />
    <glyph glyph-name="afii10095" unicode="&#x44d;" horiz-adv-x="825" 
d="M448 1101q66 0 125 -21.5t104.5 -70.5t71.5 -128.5t26 -195.5q0 -76 -9.5 -157.5t-30.5 -160t-55.5 -148.5t-84 -123.5t-115.5 -84.5t-151 -31q-145 0 -224.5 83t-97.5 241l136 28q8 -58 25 -99.5t42 -68t56.5 -39t67.5 -12.5q60 0 105 25t78.5 72.5t54.5 116t33 155.5
h-326l21 131h322q2 21 3.5 44.5t1.5 43.5q0 134 -48 200.5t-136 66.5q-86 0 -142 -47.5t-79 -148.5l-137 32q29 143 123.5 220t239.5 77z" />
    <glyph glyph-name="afii10096" unicode="&#x44e;" horiz-adv-x="1264" 
d="M1211 683q0 -52 -4.5 -104.5t-14.5 -111.5q-23 -132 -64.5 -225t-97 -151t-123 -84.5t-145.5 -26.5q-74 0 -134 29.5t-102.5 86t-66 138t-23.5 185.5q0 35 2 74h-184l-78 -493h-148l172 1082h148l-73 -458h179q22 125 61 215t93 148t122.5 86t148.5 28q81 0 143 -28
t104.5 -82t63.5 -131.5t21 -176.5zM1056 683q0 77 -12.5 131t-36 88.5t-57 50.5t-75.5 16q-39 0 -78 -12.5t-74.5 -50.5t-65 -108t-49.5 -186q-9 -55 -13 -104.5t-4 -91.5q0 -82 14 -140t38 -94t58 -52.5t73 -16.5t78 12t73 50.5t63 109.5t49 188q10 60 13.5 110t5.5 100z
" />
    <glyph glyph-name="afii10097" unicode="&#x44f;" horiz-adv-x="897" 
d="M426 458l-296 -458h-169l316 471q-17 6 -44.5 25t-53.5 53.5t-44.5 84t-18.5 116.5q0 97 29.5 161t82.5 102t124.5 53.5t153.5 15.5h357l-172 -1082h-147l73 458h-191zM695 955h-184q-56 0 -100 -9.5t-75 -33t-47.5 -63.5t-16.5 -101q0 -33 9.5 -63t28.5 -52.5t47 -36
t64 -13.5h215z" />
    <glyph glyph-name="uni0450" unicode="&#x450;" 
d="M565 1214l-231 278l4 29h169l132 -287l-2 -20h-72zM210 503q-4 -28 -5.5 -56.5t-1.5 -56.5q0 -133 54.5 -204t163.5 -71q46 0 84 14.5t68.5 39t54 57t39.5 68.5l113 -63q-20 -45 -50 -89.5t-73.5 -80.5t-105 -58.5t-147.5 -22.5q-82 0 -146.5 28.5t-109.5 83t-68 133.5
t-23 180q0 158 34.5 287t96.5 220t146 140.5t183 49.5q90 0 156.5 -29t110.5 -81t66 -124.5t22 -159.5q0 -21 -1.5 -46t-4 -52t-6 -54.5t-8.5 -52.5h-642zM722 641q2 20 2.5 37.5t0.5 34.5q0 66 -15 114.5t-42 80t-64.5 46.5t-83.5 15q-39 0 -82.5 -14.5t-83.5 -51.5
t-73 -100.5t-51 -161.5h492z" />
    <glyph glyph-name="afii10071" unicode="&#x451;" 
d="M210 503q-4 -28 -5.5 -56.5t-1.5 -56.5q0 -133 54.5 -204t163.5 -71q46 0 84 14.5t68.5 39t54 57t39.5 68.5l113 -63q-20 -45 -50 -89.5t-73.5 -80.5t-105 -58.5t-147.5 -22.5q-82 0 -146.5 28.5t-109.5 83t-68 133.5t-23 180q0 158 34.5 287t96.5 220t146 140.5
t183 49.5q90 0 156.5 -29t110.5 -81t66 -124.5t22 -159.5q0 -21 -1.5 -46t-4 -52t-6 -54.5t-8.5 -52.5h-642zM722 641q2 20 2.5 37.5t0.5 34.5q0 66 -15 114.5t-42 80t-64.5 46.5t-83.5 15q-39 0 -82.5 -14.5t-83.5 -51.5t-73 -100.5t-51 -161.5h492zM668 1219l29 184h142
l-29 -184h-142zM353 1219l29 184h143l-28 -184h-144z" />
    <glyph glyph-name="afii10099" unicode="&#x452;" 
d="M478 -425q-28 0 -56 4.5t-50 9.5l19 136q11 -2 31.5 -5t36.5 -3q48 0 72.5 42t39.5 134l113 712q7 39 11 79.5t4 70.5q0 79 -34.5 123t-112.5 44q-52 0 -98.5 -25.5t-84.5 -72t-64.5 -112t-39.5 -146.5l-90 -566h-147l192 1206h-108l21 131h107l24 147h148l-24 -147h247
l-21 -131h-247l-23 -148q-5 -33 -12 -66l-12 -60l-9 -48q-4 -20 -6 -27h3q28 47 57 85t65 64.5t79 40.5t98 14q121 0 182 -73t61 -211q0 -36 -5 -81t-12 -83l-120 -747q-10 -62 -25.5 -115t-43 -92t-68 -61.5t-98.5 -22.5z" />
    <glyph glyph-name="afii10100" unicode="&#x453;" horiz-adv-x="635" 
d="M645 1082l-21 -131h-299l-150 -951h-148l171 1082h447zM346 1201l3 20l207 287h178l-4 -29l-307 -278h-77z" />
    <glyph glyph-name="afii10101" unicode="&#x454;" horiz-adv-x="831" 
d="M381 122q45 0 80 17t63 48t49.5 73t38.5 92l126 -53q-22 -75 -54.5 -134t-77 -100t-101.5 -63t-128 -22q-84 0 -144.5 31t-100 86.5t-58.5 131.5t-19 166q0 40 3 87t10 92q18 111 45.5 193t62 140.5t74.5 96.5t83 59.5t87 30t87 8.5q71 0 126.5 -23t93.5 -65t59 -100.5
t25 -129.5l-145 -25q-2 45 -13.5 82t-32 63.5t-50 41.5t-68.5 15q-53 0 -96.5 -18.5t-77.5 -60t-59.5 -107.5t-42.5 -162h330l-21 -131h-325q-2 -26 -3.5 -52.5t-1.5 -46.5q0 -128 41.5 -194.5t134.5 -66.5z" />
    </font>
</defs>
</svg>
