<?xml version="1.0" standalone="no"?>
<!DOCTYPE svg PUBLIC "-//W3C//DTD SVG 1.1//EN" "http://www.w3.org/Graphics/SVG/1.1/DTD/svg11.dtd" >
<svg>
<metadata>
Created by FontForge 20110222 at Mon Jun 27 20:33:36 2011
 By Application Server
Copyright (c) 2007 Red Hat, Inc. All rights reserved. LIBERATION is a trademark of Red Hat, Inc.
</metadata>
<defs>
<font id="LiberationSerif-BoldItalic" horiz-adv-x="1024" >
  <font-face 
    font-family="Liberation Serif"
    font-weight="700"
    font-style="italic"
    font-stretch="normal"
    units-per-em="2048"
    panose-1="2 2 7 3 6 5 5 9 3 4"
    ascent="1638"
    descent="-410"
    x-height="940"
    cap-height="1341"
    bbox="-365 -621 2356 2009"
    underline-thickness="195"
    underline-position="-126"
    slope="-16.333"
    unicode-range="U+0020-F005"
  />
<missing-glyph horiz-adv-x="748" 
d="M68 0v1365h544v-1365h-544zM136 68h408v1229h-408v-1229z" />
    <glyph glyph-name=".notdef" horiz-adv-x="748" 
d="M68 0v1365h544v-1365h-544zM136 68h408v1229h-408v-1229z" />
    <glyph glyph-name=".null" horiz-adv-x="0" 
 />
    <glyph glyph-name="nonmarkingreturn" horiz-adv-x="682" 
 />
    <glyph glyph-name="uni00A0" unicode=" " horiz-adv-x="512" 
 />
    <glyph glyph-name="uni00A0" unicode="&#xa0;" horiz-adv-x="512" 
 />
    <glyph glyph-name="exclam" unicode="!" horiz-adv-x="797" 
d="M415 420h-95l60 921h299zM322 -29q-35 0 -65 13t-52.5 35.5t-35.5 52.5t-13 65q0 34 13 64.5t35.5 53t52.5 35.5t65 13q34 0 64.5 -13t53 -35.5t35.5 -53t13 -64.5q0 -35 -13 -65t-35.5 -52.5t-53 -35.5t-64.5 -13z" />
    <glyph glyph-name="quotedbl" unicode="&#x22;" horiz-adv-x="1137" 
d="M763 1341h238l-163 -481h-84zM377 1341h238l-163 -481h-84z" />
    <glyph glyph-name="numbersign" unicode="#" 
d="M713 411l-148 -411h-151l148 411h-262l-146 -411h-154l148 411h-153l22 123h178l103 287h-231l22 123h254l143 397h152l-144 -397h262l144 397h151l-144 -397h152l-22 -123h-174l-101 -287h225l-22 -123h-252zM449 821l-103 -287h262l104 287h-263z" />
    <glyph glyph-name="dollar" unicode="$" 
d="M713 1354q71 -4 139.5 -14.5t129.5 -26.5l-56 -319h-89l-7 196q-28 21 -61.5 36t-75.5 21l-82 -437q55 -31 112 -66t102.5 -80t74.5 -104t29 -137q0 -203 -120.5 -312.5t-353.5 -126.5l-26 -140h-102l25 136q-126 2 -219.5 23.5t-156.5 47.5l64 360h88l1 -215
q32 -47 91.5 -80.5t150.5 -34.5l97 515q-54 28 -109.5 60.5t-99.5 76.5t-72 103.5t-28 142.5q0 183 113.5 275.5t338.5 100.5l24 128h103zM685 346q0 37 -9 67.5t-25.5 55.5t-39 45.5t-48.5 38.5l-87 -462q54 12 93 37t65 59t38.5 74.5t12.5 84.5zM399 1047q0 -65 33 -110
t85 -81l75 394q-54 -5 -90.5 -23.5t-59.5 -46.5t-33 -62.5t-10 -70.5z" />
    <glyph glyph-name="percent" unicode="%" horiz-adv-x="1706" 
d="M352 -20h-150l1192 1382h151zM801 1105q0 -26 -3 -53t-8 -57q-16 -90 -47 -159t-79 -116.5t-113.5 -72t-149.5 -24.5q-134 0 -201.5 65.5t-67.5 193.5q0 103 25.5 190.5t75.5 152t124 101t171 36.5q134 0 203.5 -64.5t69.5 -192.5zM323 853q0 -27 3.5 -52t13 -43.5
t25.5 -30t40 -11.5q65 0 115.5 73.5t73.5 205.5q12 67 12 120q0 75 -20 114t-68 39q-63 0 -110 -71t-70 -202q-5 -29 -10 -66.5t-5 -75.5zM1601 455q0 -26 -3 -53t-8 -57q-16 -90 -47 -159t-79 -116.5t-113.5 -72t-149.5 -24.5q-134 0 -201.5 65.5t-67.5 193.5
q0 103 25.5 190.5t75.5 152t124 101t171 36.5q134 0 203.5 -64.5t69.5 -192.5zM1123 203q0 -27 3.5 -52t13 -43.5t25.5 -30t40 -11.5q65 0 115.5 73.5t73.5 205.5q12 67 12 120q0 75 -20 114t-68 39q-63 0 -110 -71t-70 -202q-5 -29 -10 -66.5t-5 -75.5z" />
    <glyph glyph-name="ampersand" unicode="&#x26;" horiz-adv-x="1593" 
d="M1099 1102q0 -79 -31.5 -134t-82 -94.5t-114 -68t-126.5 -53.5l312 -351q54 83 89 160.5t50 155.5l-116 26l11 64h477l-11 -64l-125 -26q-18 -43 -45 -96.5t-61 -111.5t-75.5 -116.5t-89.5 -110.5l173 -194l122 -25l-11 -63h-364l-101 120q-42 -28 -88.5 -53.5
t-102 -44.5t-123 -30.5t-151.5 -11.5q-123 0 -211 26.5t-144.5 74.5t-83 115.5t-26.5 150.5q0 96 39 163.5t98 114t128.5 76.5t131.5 52q-33 52 -59.5 122.5t-26.5 161.5q0 73 26.5 133t76 102.5t121 65.5t162.5 23q95 0 162 -22.5t109 -59t61.5 -83t19.5 -94.5zM517 658
q-35 -18 -71 -40.5t-65 -57t-47 -84t-18 -120.5q0 -60 17.5 -106.5t48.5 -78t73 -47.5t92 -16q103 0 188.5 32.5t150.5 87.5zM595 1071q0 -58 21.5 -116.5t58.5 -111.5q43 20 80 42t64.5 50.5t43.5 65.5t16 87q0 84 -37.5 130t-94.5 46q-74 0 -113 -52t-39 -141z" />
    <glyph glyph-name="quotesingle" unicode="'" horiz-adv-x="569" 
d="M291 1341h238l-163 -481h-84z" />
    <glyph glyph-name="parenleft" unicode="(" horiz-adv-x="682" 
d="M339 120q0 -140 36 -256.5t125 -195.5l-22 -104q-95 55 -165.5 120t-117.5 144t-70.5 175t-23.5 215q0 66 7.5 140t21.5 157q33 188 88 326.5t136.5 243.5t193 185t257.5 151l-22 -124q-94 -63 -161 -154t-114.5 -199t-79 -228t-52.5 -242q-17 -92 -27 -181t-10 -173z
" />
    <glyph glyph-name="parenright" unicode=")" horiz-adv-x="682" 
d="M-153 -436l21 124q93 63 160.5 154t115.5 199.5t79.5 229.5t53.5 243q17 93 27 182t10 174q0 69 -8.5 133t-27 120.5t-49 105.5t-74.5 88l18 104q95 -56 166 -120.5t118 -143t70.5 -174.5t23.5 -214q0 -128 -29 -294q-33 -189 -88.5 -328.5t-137 -245t-193 -186
t-256.5 -151.5z" />
    <glyph glyph-name="asterisk" unicode="*" 
d="M632 889l22 -324l-230 37l119 305l-320 -188l-60 225l317 39l-289 137l126 195l247 -275l-19 324l230 -36l-122 -302l320 179l61 -221l-322 -38l295 -134l-127 -193z" />
    <glyph glyph-name="plus" unicode="+" horiz-adv-x="1167" 
d="M672 608v-405h-143v405h-404v143h404v406h143v-406h405v-143h-405z" />
    <glyph glyph-name="comma" unicode="," horiz-adv-x="512" 
d="M343 106q0 -71 -21.5 -135.5t-68 -119.5t-120 -98t-177.5 -70v92q51 14 86 38t56.5 51t30.5 53t9 44q0 20 -10.5 33.5t-26 24.5t-34 22.5t-34 27.5t-26 39.5t-10.5 59.5q0 65 45 99t114 34q38 0 72 -12.5t59.5 -37.5t40.5 -61t15 -84z" />
    <glyph glyph-name="uni00AD" unicode="-" horiz-adv-x="682" 
d="M43 395l33 174h532l-33 -174h-532z" />
    <glyph glyph-name="uni00AD" unicode="&#xad;" horiz-adv-x="682" 
d="M43 395l33 174h532l-33 -174h-532z" />
    <glyph glyph-name="period" unicode="." horiz-adv-x="512" 
d="M181 -29q-35 0 -65 13t-52.5 35.5t-35.5 52.5t-13 65q0 34 13 64.5t35.5 53t52.5 35.5t65 13q34 0 64.5 -13t53 -35.5t35.5 -53t13 -64.5q0 -35 -13 -65t-35.5 -52.5t-53 -35.5t-64.5 -13z" />
    <glyph glyph-name="slash" unicode="/" horiz-adv-x="569" 
d="M16 -20h-140l710 1369h140z" />
    <glyph glyph-name="zero" unicode="0" 
d="M988 951q0 -58 -6.5 -130.5t-19.5 -144.5q-30 -168 -77.5 -298t-115.5 -218.5t-157 -134t-202 -45.5q-165 0 -252 103.5t-87 315.5q0 59 6 130.5t19 146.5q30 166 78 294t115.5 215t155.5 132t198 45q166 0 255.5 -100t89.5 -311zM741 970q0 138 -27.5 209.5t-96.5 71.5
q-51 0 -91 -37.5t-72 -109.5t-58 -178t-48 -243q-16 -98 -24 -172.5t-8 -143.5q0 -61 6 -112t20 -87.5t36.5 -57t56.5 -20.5q52 0 92 36t72.5 106.5t58 175t48.5 241.5q7 45 13 90t10.5 87t7.5 78.5t4 65.5z" />
    <glyph glyph-name="one" unicode="1" 
d="M578 110l239 -24l-15 -86h-754l15 86l246 24l177 1006l-253 -71l15 85l417 222h132z" />
    <glyph glyph-name="two" unicode="2" 
d="M825 0h-850l33 189q149 115 276 225t219.5 216t145 210t52.5 209q0 108 -50 156.5t-131 48.5q-48 0 -88 -14.5t-71 -37.5l-77 -194h-87l54 305q84 18 162.5 30.5t168.5 12.5q97 0 170.5 -20.5t123.5 -58.5t75.5 -91t25.5 -119q0 -87 -29 -165.5t-80.5 -151t-124 -141
t-160 -135t-186.5 -133t-205 -135.5h672z" />
    <glyph glyph-name="three" unicode="3" 
d="M347 -20q-231 0 -363 40l45 325h92l14 -215q13 -11 38 -19.5t54 -15.5t58.5 -10.5t50.5 -3.5q138 0 215 79t77 234q0 115 -49.5 171.5t-146.5 67.5l-115 7l22 121l113 8q64 4 109.5 26t74.5 58.5t42 86.5t13 111q0 101 -48 152t-133 51q-46 0 -86.5 -14.5t-69.5 -37.5
l-77 -194h-87l54 305q36 9 72.5 17t76 14t84 9t97.5 3q94 0 168 -20.5t124 -58t76.5 -91.5t26.5 -121q0 -74 -20.5 -135t-62.5 -107.5t-105.5 -77t-149.5 -43.5q63 -10 114 -35.5t86.5 -65t55 -91.5t19.5 -113q0 -106 -43 -184.5t-118.5 -130t-177.5 -77t-220 -25.5z" />
    <glyph glyph-name="four" unicode="4" 
d="M772 275l-47 -275h-249l47 275h-555l28 153l763 920h203l-157 -888h157l-33 -185h-157zM625 846q5 27 14.5 66.5t18.5 76.5q11 43 23 88l-510 -617h385z" />
    <glyph glyph-name="five" unicode="5" 
d="M516 798q101 0 176 -24.5t124 -70t73 -110t24 -143.5q0 -113 -38.5 -200.5t-111.5 -147.5t-180 -91t-243 -31q-55 0 -98.5 3t-80 8.5t-70 13t-68.5 15.5l45 325h92l14 -215q28 -23 78 -36t102 -13q73 0 126.5 26.5t89 74.5t52.5 115t17 148q0 51 -9.5 95t-32.5 77
t-61 51.5t-94 18.5q-28 0 -55.5 -4t-53 -9.5t-47 -12.5t-36.5 -13h-93l122 693h692l-36 -203h-566l-63 -365q18 5 38.5 9.5t45.5 8t56 5.5t70 2z" />
    <glyph glyph-name="six" unicode="6" 
d="M459 -20q-94 0 -166.5 31t-122 91t-75 146.5t-25.5 197.5q0 125 24.5 241.5t68.5 217.5t105.5 184t136 142.5t160 92t177.5 32.5q82 0 155 -13t127 -30l-54 -305h-87l-9 194q-31 25 -67 38.5t-74 13.5q-70 0 -129 -40t-106 -109t-82 -162.5t-56 -200.5q55 29 122 51
t142 22q81 0 141.5 -24.5t100 -68.5t59 -105t19.5 -134q0 -104 -32 -195.5t-93.5 -159.5t-152 -108t-207.5 -40zM329 415q0 -97 12.5 -161.5t34 -102.5t49 -54t57.5 -16q44 0 80 27t61.5 76.5t39.5 119.5t14 155q0 120 -46 175.5t-118 55.5q-40 0 -83 -11.5t-86 -29.5
q-15 -114 -15 -234z" />
    <glyph glyph-name="seven" unicode="7" 
d="M254 958h-87l68 383h857l-14 -79l-733 -1262h-259l774 1138h-529z" />
    <glyph glyph-name="eight" unicode="8" 
d="M993 1085q0 -80 -20.5 -142.5t-55 -109t-80 -77t-96.5 -45.5q83 -30 130.5 -99.5t47.5 -171.5q0 -111 -30 -197t-91.5 -144.5t-155.5 -88.5t-223 -30q-98 0 -170 25t-119 70.5t-70 108t-23 137.5q0 82 22 147.5t62 114t95 81t121 47.5q-32 17 -58 44.5t-44.5 62t-29 76
t-10.5 86.5q0 88 27 159t83 120.5t141.5 76t202.5 26.5q88 0 152.5 -19t107 -55t63.5 -87.5t21 -115.5zM447 914q0 -68 24 -108t82 -40q48 0 83.5 29t58.5 77t34 110t11 127q0 73 -26.5 112.5t-88.5 39.5q-47 0 -81 -27t-55.5 -74t-31.5 -110.5t-10 -135.5zM289 272
q0 -91 37.5 -140t116.5 -49q60 0 102.5 29t69 81t39 123t12.5 155q0 41 -8.5 75t-26.5 58t-47 37t-71 13q-57 0 -99 -27.5t-69.5 -78t-41.5 -121t-14 -155.5z" />
    <glyph glyph-name="nine" unicode="9" 
d="M588 1355q86 0 159.5 -31.5t127 -92t83.5 -149t30 -202.5q0 -127 -23.5 -243.5t-66.5 -216.5t-103.5 -181t-134 -138.5t-158 -89t-176.5 -31.5q-88 0 -160.5 11.5t-135.5 31.5l54 305h87l9 -194q35 -28 78 -40t81 -12q70 0 128.5 39.5t104.5 107.5t78.5 159.5t52.5 195.5
q-54 -26 -119 -44.5t-141 -18.5q-85 0 -147 27t-102.5 74.5t-60 111.5t-19.5 138q0 99 32.5 187t93.5 153.5t149 104t199 38.5zM730 883q0 106 -14 177t-36 114.5t-49.5 62t-54.5 18.5q-44 0 -80.5 -28t-62.5 -78.5t-40 -121t-14 -155.5q0 -114 41 -170t115 -56q41 0 89 11
t94 28q12 97 12 198z" />
    <glyph glyph-name="colon" unicode=":" horiz-adv-x="682" 
d="M374 628q-35 0 -65.5 13t-52.5 35.5t-34.5 52.5t-12.5 65t12.5 65.5t34.5 53t52.5 35t65.5 12.5t65 -12.5t52.5 -35t35.5 -53t13 -65.5t-13 -65t-35.5 -52.5t-52.5 -35.5t-65 -13zM235 -29q-35 0 -65 13t-52.5 35.5t-35.5 52.5t-13 65q0 34 13 64.5t35.5 53t52.5 35.5
t65 13q34 0 64.5 -13t53 -35.5t35.5 -53t13 -64.5q0 -35 -13 -65t-35.5 -52.5t-53 -35.5t-64.5 -13z" />
    <glyph glyph-name="uni037E" unicode=";" horiz-adv-x="682" 
d="M413 106q0 -71 -21.5 -135.5t-68 -119.5t-120 -98t-177.5 -70v92q51 14 86 38t56.5 51t30.5 53t9 44q0 20 -10.5 33.5t-26 24.5t-34 22.5t-34 27.5t-26 39.5t-10.5 59.5q0 65 45 99t114 34q38 0 72 -12.5t59.5 -37.5t40.5 -61t15 -84zM382 628q-35 0 -65.5 13t-52.5 35.5
t-34.5 52.5t-12.5 65t12.5 65.5t34.5 53t52.5 35t65.5 12.5t65 -12.5t52.5 -35t35.5 -53t13 -65.5t-13 -65t-35.5 -52.5t-52.5 -35.5t-65 -13z" />
    <glyph glyph-name="uni037E" unicode="&#x37e;" horiz-adv-x="682" 
d="M413 106q0 -71 -21.5 -135.5t-68 -119.5t-120 -98t-177.5 -70v92q51 14 86 38t56.5 51t30.5 53t9 44q0 20 -10.5 33.5t-26 24.5t-34 22.5t-34 27.5t-26 39.5t-10.5 59.5q0 65 45 99t114 34q38 0 72 -12.5t59.5 -37.5t40.5 -61t15 -84zM382 628q-35 0 -65.5 13t-52.5 35.5
t-34.5 52.5t-12.5 65t12.5 65.5t34.5 53t52.5 35t65.5 12.5t65 -12.5t52.5 -35t35.5 -53t13 -65.5t-13 -65t-35.5 -52.5t-52.5 -35.5t-65 -13z" />
    <glyph glyph-name="less" unicode="&#x3c;" horiz-adv-x="1167" 
d="M101 635v90l952 468v-143l-767 -370l767 -371v-143z" />
    <glyph glyph-name="equal" unicode="=" horiz-adv-x="1167" 
d="M1070 547v-144h-952v144h952zM1070 956v-143h-952v143h952z" />
    <glyph glyph-name="greater" unicode="&#x3e;" horiz-adv-x="1167" 
d="M153 166v143l768 371l-768 370v143l952 -468v-90z" />
    <glyph glyph-name="question" unicode="?" 
d="M950 1043q0 -171 -90.5 -274t-281.5 -155l-81 -22l-63 -202h-103l-2 313l107 23q57 12 102 37t76.5 64.5t48.5 94.5t17 129q0 95 -43.5 149t-145.5 54q-38 0 -79.5 -13.5t-67.5 -33.5l-65 -194h-89l40 295q69 21 149 34.5t163 13.5q103 0 179.5 -22t127.5 -62.5t76 -98.5
t25 -130zM350 -29q-35 0 -65.5 13t-52.5 35.5t-34.5 52.5t-12.5 65q0 34 12.5 64.5t34.5 53t52.5 35.5t65.5 13t65 -13t52.5 -35.5t35.5 -53t13 -64.5q0 -35 -13 -65t-35.5 -52.5t-52.5 -35.5t-65 -13z" />
    <glyph glyph-name="at" unicode="@" horiz-adv-x="1704" 
d="M972 1364q168 0 295 -43.5t212 -123.5t127.5 -193t42.5 -252q0 -103 -23.5 -197t-66 -174.5t-100.5 -146.5t-128 -112.5t-149 -71.5t-162 -25q-33 0 -62 10t-50.5 27.5t-36 41.5t-18.5 52q-23 -19 -55.5 -41.5t-69.5 -42.5t-75.5 -33.5t-72.5 -13.5q-50 0 -85.5 21
t-58 55t-32.5 77.5t-10 88.5q0 171 69 307t202 231q51 37 97.5 60t96 36t104.5 18t122 5q48 0 98 -3.5t85 -7.5l-121 -534q-5 -21 -10 -44.5t-9.5 -45t-7.5 -39.5t-3 -27q0 -22 11.5 -38t40.5 -16q44 0 82.5 24t70.5 65.5t56.5 98t41.5 121t26 134t9 138.5q0 122 -34.5 216
t-98.5 157.5t-155 96.5t-203 33t-209.5 -32t-177.5 -90.5t-142.5 -140t-105.5 -180.5t-65 -211.5t-22 -233.5q0 -126 36.5 -242t111.5 -204t188.5 -140.5t267.5 -52.5q96 0 173 14.5t140.5 38.5t116.5 56t103 68l52 -76q-56 -45 -119 -84t-138 -68.5t-164 -46.5t-195 -17
q-184 0 -327 58.5t-240.5 160.5t-148.5 239t-51 293q0 143 31 273t89 241t141 201.5t185.5 154t223 98t254.5 34.5zM644 320q0 -66 20 -98.5t48 -32.5q20 0 40.5 6t39.5 15.5t35.5 21t28.5 21.5l127 552q-4 1 -12 1.5t-16 1.5t-15.5 1.5t-11.5 0.5q-17 0 -38 -2.5t-43 -9.5
t-44.5 -20t-42.5 -34q-19 -24 -39.5 -69.5t-37.5 -103t-28 -123t-11 -128.5z" />
    <glyph glyph-name="A" unicode="A" horiz-adv-x="1366" 
d="M302 73l-14 -73h-394l14 73l103 27l668 1252h240l254 -1252l109 -27l-14 -73h-549l14 73l138 27l-61 347h-472l-184 -347zM689 1118l-295 -561h396z" />
    <glyph glyph-name="B" unicode="B" horiz-adv-x="1366" 
d="M677 764q155 0 235.5 66t80.5 205q0 95 -60.5 145.5t-177.5 50.5h-89l-83 -467h94zM654 104q93 0 155.5 21t100.5 60.5t54.5 95t16.5 124.5q0 66 -21.5 113t-61 77.5t-95.5 44.5t-125 14h-114l-96 -544q35 -2 68 -3q29 -2 61 -2.5t57 -0.5zM648 -6q-55 0 -98.5 1t-83 2
t-78.5 2t-85 1h-322l12 73l178 27l201 1142l-168 26l14 73h586q133 0 225.5 -21t150.5 -59t84 -92t26 -121q0 -76 -25 -133.5t-70 -98t-107 -65.5t-135 -35q69 -6 128.5 -28.5t103 -61.5t68.5 -94.5t25 -127.5q0 -209 -157.5 -309.5t-472.5 -100.5z" />
    <glyph glyph-name="C" unicode="C" horiz-adv-x="1366" 
d="M670 -20q-147 0 -259 39.5t-187.5 112t-114.5 174t-39 225.5q0 193 62.5 346.5t174.5 259.5t266.5 162.5t338.5 56.5q148 0 263 -16t210 -36l-53 -337h-84v194q-54 43 -130.5 66.5t-160.5 23.5q-123 0 -228 -51.5t-182 -147t-120.5 -230t-43.5 -300.5q0 -95 21 -175.5
t64 -139t109 -91.5t157 -33q55 0 107.5 8.5t99 22.5t85 32t65.5 38l77 220h85l-66 -340q-49 -16 -109.5 -31t-127.5 -27t-138 -19t-142 -7z" />
    <glyph glyph-name="D" unicode="D" horiz-adv-x="1479" 
d="M1120 774q0 125 -30 212t-84.5 141.5t-131 79t-169.5 24.5h-37l-197 -1117q32 -3 61.5 -5.5t62.5 -2.5q125 0 222.5 47.5t165 135t102.5 210.5t35 275zM742 1341q168 0 296.5 -36t215.5 -106.5t132 -173.5t45 -237q0 -179 -57 -325t-164.5 -250t-262 -160.5t-348.5 -56.5
q-118 0 -228 2t-191 2h-195l12 73l177 27l201 1142l-167 26l13 73h521z" />
    <glyph glyph-name="E" unicode="E" horiz-adv-x="1366" 
d="M-3 73l177 27l201 1142l-167 26l13 73h1052l-60 -341h-91l6 217q-31 4 -72.5 7t-86 4.5t-87 2t-75.5 0.5h-138l-87 -492h281l57 148h89l-73 -412h-89l-4 152h-281l-91 -517h183q62 0 116.5 1.5t98.5 3.5t75.5 5t47.5 6l103 248h91l-84 -374h-1117z" />
    <glyph glyph-name="F" unicode="F" horiz-adv-x="1366" 
d="M556 592l-87 -492l218 -27l-12 -73h-677l12 73l164 27l201 1142l-167 26l13 73h1111l-64 -361h-94l10 237q-21 3 -56 5t-77 4t-86.5 2.5t-85 1.5t-72.5 1h-47h-91l-93 -529h363l61 170h89l-80 -452h-89l-1 172h-363z" />
    <glyph glyph-name="G" unicode="G" horiz-adv-x="1479" 
d="M70 523q0 201 65.5 356t180.5 261t271 161t337 55q138 0 253 -16.5t222 -45.5l-55 -308h-84l1 174q-58 44 -138.5 67.5t-181.5 23.5q-112 0 -213.5 -49t-178.5 -143.5t-122.5 -234.5t-45.5 -321q0 -105 24 -184t67 -131.5t103 -78.5t133 -26q77 0 139.5 14.5t97.5 28.5
l68 380l-167 32l12 68h598l-12 -68l-136 -32l-77 -436q-67 -21 -133 -37.5t-135.5 -28.5t-144 -18t-156.5 -6q-142 0 -252.5 37.5t-186 108t-114.5 171t-39 226.5z" />
    <glyph glyph-name="H" unicode="H" horiz-adv-x="1593" 
d="M-15 0l13 74l176 26l201 1141l-167 27l13 73h639l-13 -73l-177 -27l-87 -496h488l87 496l-167 27l13 73h641l-13 -73l-178 -27l-201 -1141l168 -26l-13 -74h-641l13 74l177 26l94 535h-488l-94 -535l167 -26l-13 -74h-638z" />
    <glyph glyph-name="I" unicode="I" horiz-adv-x="797" 
d="M464 100l167 -26l-13 -74h-638l13 74l176 26l201 1141l-167 27l13 73h639l-13 -73l-177 -27z" />
    <glyph glyph-name="J" unicode="J" 
d="M613 1242l-167 26l13 73h619l-13 -73l-157 -26l-142 -810q-24 -137 -79.5 -224.5t-127.5 -138t-154.5 -70t-160.5 -19.5q-69 0 -136 8t-112 22l54 304h83l4 -179q15 -23 43 -36t70 -13q34 0 65.5 12t57 36t44 59.5t26.5 82.5z" />
    <glyph glyph-name="K" unicode="K" horiz-adv-x="1366" 
d="M469 100l178 -27l-12 -73h-650l12 73l177 27l201 1142l-167 26l13 73h629l-13 -73l-167 -26l-91 -524l576 524l-113 26l13 73h425l-13 -73l-139 -26l-473 -429l353 -713l134 -27l-12 -73h-386l-296 636l-93 -45z" />
    <glyph glyph-name="L" unicode="L" horiz-adv-x="1251" 
d="M872 1268l-202 -26l-200 -1136h113q52 0 111.5 2t112.5 5t94 6.5t57 6.5l117 279h84l-89 -405h-1085l12 73l177 27l201 1142l-166 26l13 73h663z" />
    <glyph glyph-name="M" unicode="M" horiz-adv-x="1821" 
d="M740 0h-45l-221 1158l-187 -1058l175 -27l-12 -73h-477l12 73l177 27l201 1142l-167 26l13 73h493l165 -874l476 874h535l-13 -73l-177 -26l-201 -1142l167 -27l-12 -73h-657l12 73l195 27l187 1058z" />
    <glyph glyph-name="N" unicode="N" horiz-adv-x="1479" 
d="M1225 1242l-175 26l13 73h477l-13 -73l-177 -26l-218 -1242h-115l-541 1112l-181 -1012l175 -27l-12 -73h-477l12 73l177 27l201 1142l-167 26l13 73h433l435 -894z" />
    <glyph glyph-name="O" unicode="O" horiz-adv-x="1479" 
d="M1120 843q0 93 -19 168t-55.5 128.5t-90.5 82.5t-123 29q-77 0 -141 -36.5t-115 -97t-88.5 -139t-62.5 -163.5t-37.5 -170.5t-12.5 -159.5q0 -92 18.5 -166t54 -126.5t88 -81t121.5 -28.5q78 0 142.5 35.5t116 95.5t90 138t64 162t38 169.5t12.5 159.5zM639 -20
q-129 0 -233 40.5t-178 113t-114 172t-40 218.5q0 113 22.5 218.5t67 198t111 169t153 131t194 85t234.5 30.5q129 0 233 -40.5t178 -113t114 -172.5t40 -218q0 -97 -19 -196.5t-59 -192t-102 -173.5t-149 -141t-199.5 -94.5t-253.5 -34.5z" />
    <glyph glyph-name="P" unicode="P" horiz-adv-x="1251" 
d="M643 636q76 0 136.5 23.5t103 68t65.5 108t23 144.5q0 69 -18 116.5t-49 77.5t-74 43t-92 13h-69l-105 -594h79zM544 526l-76 -426l219 -27l-11 -73h-677l11 73l162 27l202 1142l-168 26l12 73h531q136 0 233.5 -25t160 -71.5t92 -113t29.5 -148.5q0 -102 -35 -186
t-106.5 -144.5t-180 -93.5t-255.5 -33h-143z" />
    <glyph glyph-name="Q" unicode="Q" horiz-adv-x="1479" 
d="M1421 812q0 -120 -29 -242t-90.5 -229.5t-158.5 -192t-233 -128.5l32 -49q34 -54 65.5 -89.5t59.5 -56.5t52.5 -29.5t46.5 -8.5q26 0 49 3t40 5l13 -78q-19 -8 -50 -16.5t-67 -15.5t-73.5 -12t-70.5 -5q-74 0 -128 16.5t-97.5 49.5t-81 82.5t-77.5 115.5l-30 50
q-119 7 -215 50t-163.5 114.5t-104 168t-36.5 209.5t22.5 218.5t67 198t111 169t153 131t194 85t234.5 30.5q129 0 233 -40.5t178 -113t114 -172.5t40 -218zM1120 843q0 93 -19 168t-55.5 128.5t-90.5 82.5t-123 29q-77 0 -141 -36.5t-115 -97t-88.5 -139t-62.5 -163.5
t-37.5 -170.5t-12.5 -159.5q0 -92 18.5 -166t54 -126.5t88 -81t121.5 -28.5q78 0 142.5 35.5t116 95.5t90 138t64 162t38 169.5t12.5 159.5z" />
    <glyph glyph-name="R" unicode="R" horiz-adv-x="1366" 
d="M552 568l-83 -468l167 -27l-12 -73h-627l12 73l164 27l201 1142l-167 26l13 73h535q135 0 232 -21.5t159.5 -64t92.5 -105.5t30 -147q0 -87 -25 -154.5t-69 -117t-104.5 -83t-130.5 -52.5l201 -496l147 -27l-12 -73h-400l-208 568h-116zM626 678q82 0 147 21t110 60.5
t69 97t24 130.5q0 130 -60.5 187t-177.5 57h-69l-98 -553h55z" />
    <glyph glyph-name="S" unicode="S" horiz-adv-x="1139" 
d="M432 -20q-131 0 -230.5 22.5t-164.5 48.5l64 360h88l1 -215q17 -25 44.5 -46t61.5 -36.5t73 -24t80 -8.5q79 0 136.5 17.5t94.5 48.5t55 73t18 91q0 54 -24 94t-63.5 72.5t-89.5 61t-102.5 58t-102.5 64t-89.5 79.5t-63.5 103t-24 136q0 96 35.5 166.5t103 117.5
t164.5 70t220 23q85 0 174 -12t162 -31l-56 -319h-89l-7 196q-38 29 -91.5 45.5t-119.5 16.5q-64 0 -110 -15t-75 -40t-43 -58.5t-14 -69.5q0 -48 24 -85t64 -68t90.5 -59t103 -58t103 -64.5t90.5 -79t64 -101t24 -131.5q0 -110 -38.5 -193t-112.5 -138.5t-181.5 -83.5
t-246.5 -28z" />
    <glyph glyph-name="T" unicode="T" horiz-adv-x="1251" 
d="M167 0l12 73l218 27l200 1135h-61q-23 0 -54 -1.5t-62.5 -4.5t-60.5 -6.5t-48 -7.5l-75 -249h-87l66 375h1103l-66 -375h-88l13 249q-18 4 -46.5 7t-60.5 5.5t-63.5 4t-54.5 1.5h-59l-200 -1133l208 -27l-12 -73h-722z" />
    <glyph glyph-name="U" unicode="U" horiz-adv-x="1479" 
d="M167 1268l13 73h619l-13 -73l-177 -26l-113 -656q-11 -62 -17 -115.5t-6 -81.5q0 -138 69.5 -202.5t197.5 -64.5q90 0 158.5 26t117 71.5t78 108t42.5 135.5l137 779l-175 26l13 73h456l-13 -73l-157 -26l-135 -771q-19 -107 -58.5 -197t-107 -155t-167.5 -101.5
t-240 -36.5q-134 0 -230 31.5t-158 87t-91.5 132.5t-29.5 167q0 37 5.5 83.5t14.5 100.5l114 659z" />
    <glyph glyph-name="V" unicode="V" horiz-adv-x="1366" 
d="M1505 1341l-12 -73l-132 -27l-722 -1272h-113l-301 1272l-105 27l12 73h547l-12 -73l-144 -27l202 -879l487 879l-130 27l12 73h411z" />
    <glyph glyph-name="W" unicode="W" horiz-adv-x="1821" 
d="M1806 1242l-592 -1273h-94l-158 848l-402 -848h-101l-188 1273l-130 26l13 73h564l-13 -73l-162 -26l106 -814l397 829h100l152 -834l362 819l-164 26l13 73h432l-13 -73z" />
    <glyph glyph-name="X" unicode="X" horiz-adv-x="1366" 
d="M257 100l151 -27l-12 -73h-448l12 73l153 27l461 535l-238 607l-146 26l13 73h613l-13 -73l-165 -26l143 -367l316 367l-151 26l13 73h449l-13 -73l-153 -26l-416 -482l259 -660l147 -27l-12 -73h-613l12 73l165 27l-165 420z" />
    <glyph glyph-name="Y" unicode="Y" horiz-adv-x="1251" 
d="M782 548l-80 -448l208 -27l-12 -73h-722l12 73l218 27l79 442l-234 700l-146 26l13 73h636l-13 -73l-185 -26l178 -556l364 556l-159 26l13 73h456l-13 -73l-147 -26z" />
    <glyph glyph-name="Z" unicode="Z" horiz-adv-x="1251" 
d="M15 114l826 1121h-192q-46 0 -90.5 -1.5t-83 -4.5t-69.5 -6.5t-50 -7.5l-68 -211h-89l59 337h941l-19 -106l-823 -1131h187q59 0 120.5 3.5t115 9t94.5 11t60 9.5l104 256h90l-96 -393h-1037z" />
    <glyph glyph-name="bracketleft" unicode="[" horiz-adv-x="682" 
d="M51 -274l299 1695h436l-12 -67l-210 -41l-261 -1479l196 -41l-12 -67h-436z" />
    <glyph glyph-name="backslash" unicode="\" horiz-adv-x="569" 
d="M339 -20l-209 1369h127l212 -1369h-130z" />
    <glyph glyph-name="bracketright" unicode="]" horiz-adv-x="682" 
d="M-106 -274l12 67l210 41l261 1479l-196 41l12 67h436l-299 -1695h-436z" />
    <glyph glyph-name="asciicircum" unicode="^" horiz-adv-x="1167" 
d="M934 389l-330 761l-330 -761h-143l428 952h90l428 -952h-143z" />
    <glyph glyph-name="underscore" unicode="_" 
d="M-153 -285v144h1056v-144h-1056z" />
    <glyph glyph-name="grave" unicode="`" horiz-adv-x="682" 
d="M547 1118l-317 268l7 37h265l137 -273l-6 -32h-86z" />
    <glyph glyph-name="a" unicode="a" 
d="M823 90l109 -32l-8 -58h-347l-4 138q-27 -34 -59.5 -63t-69 -50.5t-76 -33.5t-80.5 -12q-58 0 -106.5 21t-83.5 63.5t-54.5 106.5t-19.5 149q0 129 40.5 246t114.5 205.5t178 141t231 52.5q72 0 136.5 -12.5t114.5 -32.5l82 37h54zM287 351q0 -58 10.5 -100.5t28 -70
t39 -40.5t43.5 -13q23 0 47.5 12.5t48 33t44.5 45t37 48.5l99 563q-21 16 -55 25t-69 9q-61 0 -111.5 -45t-86.5 -118t-55.5 -164.5t-19.5 -184.5z" />
    <glyph glyph-name="b" unicode="b" 
d="M700 587q0 60 -10.5 103t-27.5 70t-39 40t-44 13q-19 0 -40.5 -10.5t-44 -29t-45.5 -44t-44 -55.5l-97 -550q12 -12 29.5 -21t35.5 -15t35 -9t29 -3q56 0 104 45t83.5 118t55.5 164t20 184zM449 -23q-48 0 -101.5 4t-108.5 12t-109 21.5t-103 33.5l227 1285l-92 23l11 65
h365l-76 -430q-3 -18 -7.5 -42t-10 -50t-11.5 -52t-13 -50q27 36 59 67t68 53.5t75 35t79 12.5q56 0 104 -21.5t83 -63.5t55 -104.5t20 -144.5q0 -86 -17 -168t-48.5 -154.5t-76.5 -133.5t-102 -105t-125 -68.5t-145 -24.5z" />
    <glyph glyph-name="c" unicode="c" horiz-adv-x="909" 
d="M391 -20q-90 0 -158 25.5t-113 72t-67.5 110.5t-22.5 142q0 156 48.5 275t127 199t178 120.5t201.5 40.5q40 0 82 -4t81.5 -10.5t73.5 -14.5t57 -16l-49 -288h-72l-14 171q-25 28 -60.5 44t-85.5 16q-58 0 -112 -38.5t-96 -107.5t-67 -165t-25 -212q0 -63 13.5 -108
t36.5 -73.5t55 -41.5t68 -13q75 0 136.5 27t118.5 67l44 -63q-27 -24 -66 -51t-87.5 -50t-105.5 -38.5t-120 -15.5z" />
    <glyph glyph-name="d" unicode="d" 
d="M276 -20q-53 0 -99 21t-80 62t-53.5 103t-19.5 144q0 129 35.5 247.5t101.5 208.5t159 144t208 54q22 0 47 -2t48.5 -5.5t44 -9t34.5 -11.5q1 12 2.5 29.5t3.5 35.5t4 34t4 25l46 272l-160 24l12 65h435l-237 -1336l99 -25l-12 -60h-332l-7 144q-27 -36 -60 -66.5
t-70 -52t-76 -33.5t-78 -12zM287 354q0 -60 8.5 -103t23 -70t33 -40t38.5 -13q19 0 42.5 10.5t48.5 29t50 44t46 55.5l97 550q-12 12 -30 21t-37.5 15t-37 9t-29.5 3q-56 0 -102.5 -45t-80 -118t-52 -164t-18.5 -184z" />
    <glyph glyph-name="e" unicode="e" horiz-adv-x="909" 
d="M864 760q0 -65 -36 -124.5t-105 -106.5t-169 -79t-229 -42q-1 -4 -2 -12.5t-1.5 -18t-1 -20t-0.5 -17.5q0 -45 8 -87.5t28 -75.5t55.5 -53t89.5 -20q74 0 137 28.5t118 65.5l44 -63q-31 -26 -73 -53.5t-92 -50t-107 -37t-117 -14.5q-94 0 -162.5 24.5t-113 69.5t-66 110
t-21.5 146q0 89 19.5 170.5t55 152t83.5 128t105.5 98.5t121.5 63.5t130 22.5q73 0 129 -15.5t94.5 -43t58 -65t19.5 -81.5zM341 508q67 7 119 32.5t87.5 62t54 81t18.5 89.5q0 42 -20.5 63t-48.5 21q-38 0 -71.5 -30t-61 -79t-47.5 -111.5t-30 -128.5z" />
    <glyph glyph-name="f" unicode="f" horiz-adv-x="682" 
d="M222 836h-162l12 69l169 39l23 122q37 198 144 287t285 89q44 0 88.5 -6.5t70.5 -14.5l-39 -222h-64l-12 112q-8 8 -20.5 14.5t-35.5 6.5t-43.5 -10.5t-38.5 -36.5t-33 -71.5t-28 -115.5l-29 -158h206l-18 -104h-206l-222 -1272h-269z" />
    <glyph glyph-name="g" unicode="g" 
d="M292 355q0 -60 10 -103t26.5 -70t37 -40t41.5 -13q35 0 82.5 35t92.5 95l107 582q-26 11 -56.5 18t-72.5 7q-62 0 -111.5 -45t-84 -118t-53.5 -164t-19 -184zM29 311q0 86 16.5 168t47.5 154.5t76.5 133.5t104 105t129 68.5t152.5 24.5q48 0 101 -3.5t106.5 -9.5
t106.5 -13.5t101 -15.5l-172 -958q-20 -108 -62 -184.5t-105.5 -124.5t-148 -70t-188.5 -22q-51 0 -101 6t-94 16t-79.5 23t-57.5 26l22 253h56l36 -131q36 -37 93 -60.5t126 -23.5q58 0 97.5 18t66 51t41.5 79.5t25 103.5q3 18 8 45t11 57t13 61t15 57q-28 -36 -61.5 -67
t-70.5 -53.5t-75.5 -35t-76.5 -12.5q-55 0 -102 21.5t-82 63.5t-55 104.5t-20 144.5z" />
    <glyph glyph-name="h" unicode="h" horiz-adv-x="1139" 
d="M475 958q-4 -24 -10 -53.5t-11.5 -57t-10.5 -49.5t-7 -29q76 97 170.5 146.5t211.5 49.5q46 0 85.5 -13t68.5 -38.5t45 -62.5t16 -85q0 -18 -3 -43t-6.5 -51.5t-8 -50.5t-7.5 -41l-87 -490l116 -24l-13 -66h-386l102 569q4 21 8 44t7 44t5 39t2 29q0 97 -91 97
q-34 0 -72 -20.5t-74 -53t-66 -73.5t-47 -81l-106 -594h-266l234 1331l-91 24l11 66h365z" />
    <glyph glyph-name="i" unicode="i" horiz-adv-x="569" 
d="M337 90l119 -24l-11 -66h-393l150 850l-91 24l11 66h365zM253 1268q0 32 12 60t33 48.5t49 32.5t60 12t60 -12t48.5 -32.5t32.5 -48.5t12 -60t-12 -60t-32.5 -49t-48.5 -33t-60 -12t-60 12t-49 33t-33 49t-12 60z" />
    <glyph glyph-name="j" unicode="j" horiz-adv-x="569" 
d="M328 -39q-19 -106 -58 -181.5t-94.5 -123.5t-125.5 -70t-150 -22q-45 0 -89 5t-79 13l39 225h63l24 -118q8 -6 19 -10.5t26 -4.5q22 0 43.5 13.5t41 43.5t36.5 78.5t29 119.5l161 911l-160 34l11 66h435zM268 1268q0 32 12 60t33 48.5t49 32.5t60 12t60 -12t48.5 -32.5
t32.5 -48.5t12 -60t-12 -60t-32.5 -49t-48.5 -33t-60 -12t-60 12t-49 33t-33 49t-12 60z" />
    <glyph glyph-name="k" unicode="k" 
d="M388 507l351 344l-86 23l11 66h344l-11 -66l-92 -22l-243 -224l222 -538l80 -24l-11 -66h-314l-166 453l-108 -70l-68 -383h-269l235 1331l-92 24l12 66h365z" />
    <glyph glyph-name="l" unicode="l" horiz-adv-x="569" 
d="M330 90l119 -24l-11 -66h-393l236 1331l-91 24l11 66h365z" />
    <glyph glyph-name="m" unicode="m" horiz-adv-x="1593" 
d="M1220 725q0 97 -72 97q-27 0 -61 -23.5t-65.5 -61t-56 -83.5t-32.5 -91l-99 -563h-267l102 569q4 21 8 44t7 44t5 39t2 29q0 97 -74 97q-27 0 -57 -20.5t-58.5 -53t-52 -73.5t-38.5 -81l-106 -594h-266l148 849l-89 25l13 66h328l-3 -168q72 98 153 145.5t181 47.5
q39 0 73 -11t60 -35t41.5 -61.5t16.5 -90.5q72 101 155.5 149.5t182.5 48.5q39 0 74 -12.5t61.5 -38.5t41.5 -66t15 -94q0 -12 -3 -34.5t-6.5 -48t-8 -50t-7.5 -41.5l-87 -490l116 -24l-13 -66h-386l102 569q4 21 8 44t7 44t5 39t2 29z" />
    <glyph glyph-name="n" unicode="n" horiz-adv-x="1139" 
d="M764 725q0 97 -91 97q-34 0 -72 -20.5t-74 -53t-66 -73.5t-47 -81l-106 -594h-266l148 849l-89 25l13 66h334l-8 -175q76 98 169.5 149t210.5 51q46 0 85.5 -12.5t68.5 -37.5t45 -63t16 -89q0 -18 -2.5 -41t-6.5 -47.5l-8 -49t-8 -45.5l-87 -490l116 -24l-13 -66h-386
l102 569q4 21 8 44t7 44t5 39t2 29z" />
    <glyph glyph-name="o" unicode="o" 
d="M683 625q0 117 -31 179t-94 62q-47 0 -94 -43.5t-84 -118.5t-60 -174.5t-23 -210.5q0 -115 37 -177.5t95 -62.5q47 0 92.5 40.5t81.5 113t58 172.5t22 220zM406 -20q-83 0 -152 27t-118.5 78t-76.5 124t-27 165q0 117 38 224t109.5 188.5t173 130t227.5 48.5
q83 0 152 -27t118.5 -78t76.5 -124t27 -165q0 -117 -38 -224t-109.5 -188.5t-173 -130t-227.5 -48.5z" />
    <glyph glyph-name="p" unicode="p" 
d="M962 631q0 -129 -35.5 -247t-102.5 -207.5t-162 -143t-213 -53.5q-45 0 -86.5 10t-68.5 23q-1 -12 -2.5 -29.5t-3.5 -35.5t-4.5 -34t-3.5 -25l-38 -236l160 -24l-12 -65h-536l12 65l104 24l214 1202l-99 25l12 60h345l-6 -138q56 73 123.5 118t143.5 45q55 0 102 -21.5
t82 -63.5t55 -104.5t20 -144.5zM699 587q0 60 -9.5 103t-25 70t-35.5 40t-41 13q-35 0 -79 -36.5t-89 -96.5l-98 -553q24 -24 57.5 -36t58.5 -12q39 0 74 20.5t64 56.5t52 84.5t38.5 105t24 118t8.5 123.5z" />
    <glyph glyph-name="q" unicode="q" 
d="M289 355q0 -60 10 -103t26.5 -70t37 -40t40.5 -13q17 0 39.5 10.5t47 29t49.5 44t47 55.5l105 573q-26 11 -61 18t-76 7q-61 0 -110 -45t-83.5 -118t-53 -164t-18.5 -184zM540 965q106 0 219.5 -11.5t212.5 -30.5l-229 -1271l92 -23l-11 -65h-365l73 387q3 18 7.5 42
t10 50t11.5 52t13 50q-27 -36 -61.5 -67t-73 -53.5t-78.5 -35t-77 -12.5q-54 0 -101.5 21.5t-82 63.5t-54.5 104.5t-20 144.5q0 129 34.5 247.5t100.5 208.5t161.5 144t217.5 54z" />
    <glyph glyph-name="r" unicode="r" horiz-adv-x="797" 
d="M438 738q30 59 66 102t74 70.5t77 41t74 13.5q20 0 44.5 -3t38.5 -7l-58 -337h-55l-44 137q-36 0 -67.5 -8.5t-60.5 -27.5t-56.5 -49.5t-54.5 -73.5l-105 -596h-269l150 850l-117 24l11 66h375z" />
    <glyph glyph-name="s" unicode="s" horiz-adv-x="797" 
d="M693 297q0 -152 -102 -234.5t-305 -82.5q-43 0 -88.5 5.5t-86 14t-72.5 17.5t-50 17l46 261h66l15 -132q12 -17 29 -33t38.5 -29t49 -20.5t60.5 -7.5q43 0 77 12.5t56.5 33.5t34.5 48.5t12 57.5q0 31 -14.5 54.5t-39 43.5t-56 38t-65.5 38q-41 23 -77.5 49.5t-64.5 60
t-44.5 75.5t-16.5 96q0 84 30.5 139.5t82 87.5t120 45t144.5 13q64 0 131.5 -9t130.5 -23l-43 -241h-66l-13 110q-21 26 -62 47.5t-92 21.5q-76 0 -111.5 -34t-35.5 -89q0 -28 13 -50t35 -41t50.5 -36.5t60.5 -35.5q43 -24 83 -50t71 -59t50 -76.5t19 -102.5z" />
    <glyph glyph-name="t" unicode="t" horiz-adv-x="569" 
d="M428 106q24 0 51 7.5t59 18.5l26 -70q-20 -14 -49.5 -28.5t-65 -26.5t-75 -19.5t-78.5 -7.5q-64 0 -107.5 16.5t-70.5 44.5t-39 65t-12 79q0 29 5.5 67.5t12.5 76.5l92 507h-115l11 65l142 39l139 213h146l-38 -213h158l-18 -104h-158l-91 -509q-7 -36 -11.5 -69
t-4.5 -51q0 -53 26.5 -77t64.5 -24z" />
    <glyph glyph-name="u" unicode="u" horiz-adv-x="1139" 
d="M350 216q0 -97 91 -97q34 0 72 20.5t74 53t66 73t47 81.5l106 593h266l-148 -849l109 -25l-13 -66h-354l8 176q-76 -98 -169.5 -149t-210.5 -51q-47 0 -86 12.5t-68 38.5t-45 66t-16 94q0 12 2.5 34.5t6.5 49t9 54.5t9 51l85 474l-116 24l13 66h386l-102 -568
q-4 -21 -8 -44t-7 -44t-5 -39t-2 -29z" />
    <glyph glyph-name="v" unicode="v" horiz-adv-x="909" 
d="M330 941l149 -654l203 314q32 50 49 99t17 81q0 25 -7.5 41t-20 26.5t-29 16t-33.5 10.5l12 65h231q9 -8 17.5 -25t8.5 -38q0 -16 -3.5 -37t-12.5 -48.5t-25 -61t-42 -73.5l-437 -677h-123l-204 871l-61 24l11 66h300z" />
    <glyph glyph-name="w" unicode="w" horiz-adv-x="1366" 
d="M1129 580q11 20 21 46.5t18 54t12.5 52.5t4.5 42q0 28 -8.5 45.5t-23 28t-32.5 16t-36 10.5l12 65h245q14 -11 22.5 -31t8.5 -50q0 -33 -13 -83t-54 -119l-402 -677h-119l-103 538l-296 -538h-133l-171 870l-80 24l11 66h304l126 -658l309 564h100l112 -564z" />
    <glyph glyph-name="x" unicode="x" 
d="M439 374l-165 -138q-34 -29 -52.5 -49t-27.5 -35t-10.5 -26.5t-1.5 -21.5q0 -11 9.5 -22.5t32.5 -16.5l-12 -65h-221q-6 5 -11 16.5t-5 26.5q0 35 32.5 76.5t104.5 101.5l284 239l-202 390l-86 25l11 65h299l165 -325l102 85q34 28 53.5 49t29.5 37t12.5 28t2.5 22
q0 13 -13.5 23.5t-41.5 15.5l12 65h213q9 -7 15 -17.5t6 -25.5q0 -38 -33 -84t-105 -106l-208 -174l228 -447l86 -21l-11 -65h-302z" />
    <glyph glyph-name="y" unicode="y" horiz-adv-x="909" 
d="M915 877q0 -16 -3 -37t-12 -48t-25 -61t-41 -74l-439 -716q-49 -80 -98 -150t-101.5 -121.5t-111.5 -81.5t-128 -30q-28 0 -48.5 1t-38.5 3.5t-35.5 6t-38.5 8.5l42 242h60l20 -126q12 -11 28.5 -17t41.5 -6q37 0 74 23.5t73 62t70.5 88.5t67.5 104l28 47l-214 855
l-61 24l11 66h303l152 -639l181 300q14 23 25.5 48t20 49t13.5 45.5t5 37.5q0 25 -7.5 41t-20 26.5t-29 16t-33.5 10.5l12 65h231q9 -8 17.5 -25t8.5 -38z" />
    <glyph glyph-name="z" unicode="z" horiz-adv-x="797" 
d="M-58 0l8 50l516 800h-70q-28 0 -55.5 -2.5t-52.5 -7t-44.5 -11t-31.5 -14.5l-60 -155h-72l49 280h660l-9 -54l-516 -796h83q27 0 57.5 3.5t59 9.5t53.5 14.5t42 19.5l82 178h72l-74 -315h-697z" />
    <glyph glyph-name="braceleft" unicode="{" horiz-adv-x="713" 
d="M402 -274q-66 0 -113.5 17.5t-78 48.5t-45.5 74.5t-15 95.5q0 40 7 78l48 275q6 33 6 61q0 82 -47.5 118t-135.5 39l15 85q103 3 168.5 52.5t85.5 163.5l55 314q25 141 109.5 207t239.5 66h135l-15 -87h-62q-69 0 -109.5 -34.5t-55.5 -120.5l-64 -360q-9 -50 -31.5 -92
t-55.5 -74.5t-74 -54t-86 -30.5v-3q75 -17 118.5 -68.5t43.5 -131.5q0 -13 -1.5 -26t-3.5 -27l-53 -304q-6 -33 -6 -61q0 -61 26.5 -97.5t83.5 -36.5h62l-16 -87h-135z" />
    <glyph glyph-name="bar" unicode="|" horiz-adv-x="451" 
d="M139 -442v1863h143v-1863h-143z" />
    <glyph glyph-name="braceright" unicode="}" horiz-adv-x="713" 
d="M-120 -274l16 87h62q69 0 109 34.5t55 120.5l65 364q9 51 31 93t54.5 74.5t73.5 54t88 31.5v3q-72 16 -117 68t-45 132q0 12 1.5 24.5t3.5 26.5l52 300q6 33 6 62q0 61 -26.5 97t-82.5 36h-62l15 87h135q130 0 191.5 -62.5t61.5 -168.5q0 -20 -2 -40t-6 -42l-47 -274
q-6 -33 -6 -61q0 -81 47.5 -117t134.5 -38l-15 -85q-51 -2 -93 -14.5t-74.5 -38.5t-54 -66.5t-31.5 -98.5l-56 -315q-24 -136 -109 -205t-240 -69h-135z" />
    <glyph glyph-name="asciitilde" unicode="~" horiz-adv-x="1167" 
d="M831 481q-48 0 -92 18t-84 45t-77 58t-71.5 58t-67 45t-63.5 18q-34 0 -59 -12t-42.5 -40.5t-29 -75t-18.5 -114.5h-141q7 69 21 138t45 123.5t84.5 89t139.5 34.5q39 0 74 -11t67.5 -28t62 -39.5t56.5 -44.5q17 -14 40.5 -34.5t50 -39.5t53.5 -32t51 -13q33 0 57 13.5
t41 42.5t29 75t20 111h144q-9 -68 -24.5 -137t-47 -124t-84 -89.5t-135.5 -34.5z" />
    <glyph glyph-name="exclamdown" unicode="&#xa1;" horiz-adv-x="797" 
d="M340 512h95l-60 -921h-299zM433 961q34 0 64.5 -13t53 -35.5t35.5 -53t13 -64.5q0 -35 -13 -65t-35.5 -52.5t-53 -35.5t-64.5 -13q-35 0 -65 13t-52.5 35.5t-35.5 52.5t-13 65q0 34 13 64.5t35.5 53t52.5 35.5t65 13z" />
    <glyph glyph-name="cent" unicode="&#xa2;" 
d="M883 348q-22 -19 -52.5 -41.5t-68 -44t-81 -39.5t-91.5 -28l-34 -195h-92l32 185q-90 0 -159.5 25.5t-117 72t-72 110.5t-24.5 142q0 153 48 270t125.5 196.5t175.5 122t198 45.5l30 172h92l-31 -174q33 -3 66.5 -7.5t64 -10t56.5 -12t44 -12.5l-49 -288h-72l-14 171
q-40 45 -114 57l-132 -754q64 8 120.5 36.5t107.5 63.5zM391 545q0 -102 36.5 -159.5t90.5 -73.5l133 753q-51 -15 -98 -59.5t-83 -112.5t-57.5 -156.5t-21.5 -191.5z" />
    <glyph glyph-name="sterling" unicode="&#xa3;" 
d="M905 203l-37 -203h-873l21 123q45 35 93.5 71.5t88.5 79.5t65.5 95t25.5 120q0 31 -5 63.5t-14 67.5h-161l18 101h88q-11 42 -18.5 86.5t-7.5 94.5q0 107 33 191.5t99.5 143t166.5 89t235 30.5q46 0 84.5 -3.5t74.5 -9t71 -13.5t73 -17l-54 -305h-87l-9 194
q-29 20 -69 36.5t-97 16.5q-66 0 -116 -29.5t-83.5 -85.5t-51 -136t-17.5 -182q0 -24 1 -51.5t2 -49.5h262l-18 -101h-243q1 -15 1 -33.5v-35.5q0 -57 -13 -108.5t-34 -95.5t-48.5 -80.5t-56.5 -63.5h610z" />
    <glyph glyph-name="currency" unicode="&#xa4;" 
d="M750 352q-48 -34 -104.5 -51.5t-118.5 -17.5q-63 0 -119 18.5t-104 50.5l-105 -104l-100 102l102 103q-32 48 -49.5 104t-17.5 119t17.5 119t49.5 104l-102 105l104 104l101 -107q48 32 104 51t119 19q62 0 118.5 -19t104.5 -51l105 105l102 -100l-104 -107
q32 -48 50.5 -104.5t18.5 -118.5q0 -63 -18.5 -119t-50.5 -104l104 -103l-100 -102zM527 932q-52 0 -98.5 -20t-81 -55t-54.5 -81.5t-20 -99.5q0 -52 20 -98.5t54.5 -81t81 -54.5t98.5 -20q53 0 99.5 20t81.5 54.5t55 81t20 98.5q0 53 -20 99.5t-55 81.5t-81.5 55t-99.5 20z
" />
    <glyph glyph-name="yen" unicode="&#xa5;" 
d="M131 1275l12 66h473l-12 -66l-116 -26l109 -547l319 549l-106 24l12 66h331l-12 -66l-89 -20l-373 -616h233l-18 -102h-254l-24 -138h254l-18 -102h-254l-37 -207l139 -24l-11 -66h-554l11 66l146 24l37 207h-257l18 102h257l24 138h-257l18 102h233l-154 612z" />
    <glyph glyph-name="brokenbar" unicode="&#xa6;" horiz-adv-x="451" 
d="M182 801v620h142v-620h-142zM182 -442v622h142v-622h-142z" />
    <glyph glyph-name="section" unicode="&#xa7;" 
d="M768 57q0 -149 -108 -230.5t-326 -81.5q-48 0 -96 6t-88.5 14.5t-70.5 17t-42 13.5l46 261h66l14 -132q13 -15 32 -30.5t44 -28t54.5 -20.5t62.5 -8q45 0 81 12t61.5 33.5t39 51.5t13.5 65q0 52 -31.5 92t-79.5 74.5t-103 69t-103 77t-79.5 96.5t-31.5 129q0 63 22 114.5
t60.5 91t91 67t114.5 43.5q-29 17 -56 40.5t-48 53.5t-33.5 67t-12.5 81q0 81 31.5 137t85.5 91t125 50.5t150 15.5q70 0 140 -9t133 -20l-42 -241h-66l-13 110q-11 13 -29 25t-40.5 21t-48.5 14.5t-51 5.5q-79 0 -121 -37t-42 -100q0 -38 19 -67t50 -53.5t70.5 -46.5
t81 -45t81 -49t70.5 -59.5t50 -76.5t19 -99q0 -64 -21 -117t-60.5 -95t-95.5 -72.5t-126 -49.5q33 -25 62 -53.5t50 -61.5t33 -72t12 -85zM514 407q38 8 71 27t58 45t39 57t14 63q0 34 -14.5 60.5t-39 48t-56.5 39t-68 34.5q-38 -6 -70.5 -22t-57.5 -39t-39 -52t-14 -60
q0 -34 14.5 -62t39 -52t56.5 -45.5t67 -41.5z" />
    <glyph glyph-name="dieresis" unicode="&#xa8;" horiz-adv-x="682" 
d="M640 1130q-25 0 -47 10t-38.5 26.5t-26 38.5t-9.5 46q0 25 9.5 46.5t26 37.5t38.5 25.5t47 9.5t47 -9.5t38 -25.5t25 -37.5t9 -46.5q0 -24 -9 -46t-25 -38.5t-38 -26.5t-47 -10zM284 1130q-24 0 -46 10t-38.5 26.5t-26.5 38.5t-10 46q0 25 10 46.5t26.5 37.5t38.5 25.5
t46 9.5q25 0 46.5 -9.5t37.5 -25.5t25.5 -37.5t9.5 -46.5q0 -24 -9 -46t-25 -38.5t-38 -26.5t-47 -10z" />
    <glyph glyph-name="copyright" unicode="&#xa9;" horiz-adv-x="1530" 
d="M87 670q0 96 24.5 184.5t69.5 165.5t107.5 140t139.5 108t165 69.5t184 24.5t184.5 -24.5t165.5 -69.5t140 -108t108 -140t69.5 -165.5t24.5 -184.5t-24.5 -184t-69.5 -165t-108 -139.5t-140 -107.5t-165.5 -69.5t-184.5 -24.5q-144 0 -269.5 54t-219 147.5t-147.5 219
t-54 269.5zM812 254q-99 0 -178 28.5t-134 82t-84.5 129t-29.5 170.5q0 108 29.5 188t85 132.5t134.5 78.5t179 26q82 0 147.5 -9.5t120.5 -20.5l4 -207h-69l-19 105q-41 25 -82 38t-98 13q-66 0 -112 -18.5t-75 -59t-42 -106t-13 -158.5q0 -165 53.5 -248.5t182.5 -83.5
q75 0 119.5 17t75.5 42l22 119h70l-4 -219q-26 -8 -58 -15t-69 -12.5t-76.5 -8.5t-79.5 -3zM777 1278q-125 0 -234.5 -48t-190.5 -130.5t-128 -193t-47 -236.5t47 -236.5t128 -193t190.5 -130t234.5 -47.5q124 0 234 47.5t191.5 130t129 193t47.5 236.5q0 84 -21.5 161.5
t-61 145.5t-94 123t-121.5 95t-144 61.5t-160 21.5z" />
    <glyph glyph-name="ordfeminine" unicode="&#xaa;" horiz-adv-x="545" 
d="M584 846l54 -15l-10 -49h-203l2 44q-30 -22 -71.5 -40.5t-101.5 -18.5q-35 0 -65.5 15t-53 43t-35 68t-12.5 90q0 75 24.5 144t71.5 121t115.5 83t157.5 31q46 0 79 -9.5t51 -16.5l6 3q3 2 6 3.5l7 3.5q8 4 19 11h50zM495 1278q-14 6 -33 10.5t-39 4.5q-45 0 -77.5 -27
t-54.5 -70.5t-32.5 -97t-10.5 -106.5q0 -71 19 -105t53 -34q23 0 51.5 10t55.5 27z" />
    <glyph glyph-name="guillemotleft" unicode="&#xab;" 
d="M92 496l383 356h101l-262 -389l125 -389h-101l-258 356zM502 496l383 356h100l-261 -389l124 -389h-100l-258 356z" />
    <glyph glyph-name="logicalnot" unicode="&#xac;" horiz-adv-x="1241" 
d="M1067 752v-549h-142v405h-811v144h953z" />
    <glyph glyph-name="registered" unicode="&#xae;" horiz-adv-x="1530" 
d="M1469 670q0 -96 -24.5 -184t-69.5 -165t-108 -139.5t-140 -107.5t-165.5 -69.5t-184.5 -24.5q-144 0 -269.5 54t-219 147.5t-147.5 219t-54 269.5q0 96 24.5 184.5t69.5 165.5t107.5 140t139.5 108t165 69.5t184 24.5t184.5 -24.5t165.5 -69.5t140 -108t108 -140
t69.5 -165.5t24.5 -184.5zM966 276l-230 343h-49v-269l94 -16v-58h-346v58l76 16v660l-84 16v55h350q84 0 143.5 -16t98 -45.5t56.5 -70t18 -89.5q0 -77 -45.5 -135t-133.5 -86l207 -289l70 -16v-58h-225zM910 858q0 48 -13 77t-38.5 44.5t-63.5 21t-89 5.5h-19v-312h23
q104 0 152 36t48 128zM777 1278q-125 0 -234.5 -48t-190.5 -130.5t-128 -193t-47 -236.5t47 -236.5t128 -193t190.5 -130t234.5 -47.5q124 0 234 47.5t191.5 130t129 193t47.5 236.5q0 84 -21.5 161.5t-61 145.5t-94 123t-121.5 95t-144 61.5t-160 21.5z" />
    <glyph glyph-name="macron" unicode="&#xaf;" 
d="M1196 1452h-1059v94h1059v-94z" />
    <glyph glyph-name="degree" unicode="&#xb0;" horiz-adv-x="819" 
d="M184 1051q0 64 24 121t66 99t98.5 66.5t121.5 24.5q64 0 121 -24.5t99 -66.5t66.5 -99t24.5 -121q0 -65 -24.5 -121.5t-66.5 -98.5t-99 -66t-121 -24q-65 0 -121.5 24t-98.5 66t-66 98.5t-24 121.5zM493 1250q-40 0 -75 -15.5t-60.5 -42.5t-40 -63.5t-14.5 -79.5
q0 -41 14.5 -77t40 -63t60.5 -43t75 -16q42 0 77 16t60.5 43t40 63t14.5 77q0 43 -14.5 79.5t-40 63.5t-60.5 42.5t-77 15.5z" />
    <glyph glyph-name="plusminus" unicode="&#xb1;" horiz-adv-x="1124" 
d="M632 608v-405h-143v405h-404v144h404v405h143v-405h406v-144h-406zM1038 141v-141h-953v141h953z" />
    <glyph glyph-name="uni00B2" unicode="&#xb2;" horiz-adv-x="614" 
d="M550 535h-510l20 114q89 69 163.5 133t128 126.5t83.5 124.5t30 128q0 52 -22.5 84.5t-67.5 32.5q-28 0 -52 -8.5t-43 -22.5l-46 -116h-62l33 192q48 11 97.5 19t101.5 8q118 0 181.5 -51t63.5 -138q0 -71 -34.5 -132.5t-93.5 -119t-139 -114.5t-170 -118h363z" />
    <glyph glyph-name="uni00B3" unicode="&#xb3;" horiz-adv-x="614" 
d="M259 522q-59 0 -117 8t-101 19l27 203h65l9 -132q17 -10 45.5 -17.5t61.5 -7.5q93 0 136 50t43 139q0 61 -31 90.5t-80 33.5l-68 6l14 83l63 4q60 3 96 43.5t36 129.5q0 49 -24 75.5t-67 26.5q-29 0 -52 -7t-44 -20l-47 -119h-62l34 193q44 11 89.5 19t107.5 8
q56 0 101.5 -12t78 -34.5t50 -55t17.5 -72.5q0 -97 -54.5 -150.5t-147.5 -69.5q83 -11 125.5 -54.5t42.5 -113.5q0 -54 -21.5 -102.5t-64.5 -85t-108.5 -57.5t-152.5 -21z" />
    <glyph glyph-name="acute" unicode="&#xb4;" horiz-adv-x="682" 
d="M253 1118l6 33l196 272h285l-4 -37l-397 -268h-86z" />
    <glyph glyph-name="uni00B5" unicode="&#xb5;" horiz-adv-x="1180" 
d="M105 874l13 66h386l-102 -569q-4 -21 -8 -44t-7 -44t-5 -39t-2 -29q0 -97 91 -97q34 0 72 20.5t74 53t66 73t47 81.5l106 594h266l-148 -849l89 -25l-13 -66h-329l3 175q-21 -31 -51 -65t-65 -63t-72.5 -48t-71.5 -19q-38 0 -66 11.5t-45 37.5q-11 -62 -24.5 -124.5
t-28.5 -122t-31 -115t-32 -103.5h-274l8 45q9 19 25.5 62t35 103.5t37.5 135.5t34 159l138 781z" />
    <glyph glyph-name="paragraph" unicode="&#xb6;" 
d="M874 1245v-1503h-140v1503h-135v-1503h-140v803q-87 3 -164.5 29.5t-135 76.5t-91 125t-33.5 176q0 90 27.5 162t82 122.5t136 77.5t188.5 27h488v-73z" />
    <glyph glyph-name="uni2219" unicode="&#xb7;" horiz-adv-x="512" 
d="M270 511q-35 0 -65 13t-52.5 35.5t-35.5 52.5t-13 65q0 34 13 64.5t35.5 53t52.5 35.5t65 13q34 0 64.5 -13t53 -35.5t35.5 -53t13 -64.5q0 -35 -13 -65t-35.5 -52.5t-53 -35.5t-64.5 -13z" />
    <glyph glyph-name="uni2219" unicode="&#x2219;" horiz-adv-x="512" 
d="M270 511q-35 0 -65 13t-52.5 35.5t-35.5 52.5t-13 65q0 34 13 64.5t35.5 53t52.5 35.5t65 13q34 0 64.5 -13t53 -35.5t35.5 -53t13 -64.5q0 -35 -13 -65t-35.5 -52.5t-53 -35.5t-64.5 -13z" />
    <glyph glyph-name="cedilla" unicode="&#xb8;" horiz-adv-x="682" 
d="M93 -432q-32 0 -71.5 6.5t-77.5 22.5l37 97q32 -11 59 -15t44 -4q28 0 48 8t33.5 20.5t20 29t6.5 34.5q0 35 -22.5 58t-83.5 27l86 195h91l-43 -110q36 -5 67 -17t53.5 -31t35.5 -45t13 -60q0 -54 -24.5 -94.5t-66 -67.5t-95 -40.5t-110.5 -13.5z" />
    <glyph glyph-name="uni00B9" unicode="&#xb9;" horiz-adv-x="614" 
d="M406 616l138 -14l-12 -67h-457l12 67l141 14l101 572l-146 -41l11 66l251 134h90z" />
    <glyph glyph-name="ordmasculine" unicode="&#xba;" horiz-adv-x="614" 
d="M364 840q42 0 72 33.5t49.5 83.5t29 106.5t9.5 103.5q0 64 -21.5 93.5t-63.5 29.5q-28 0 -50.5 -16t-39.5 -42.5t-29.5 -60.5t-20.5 -71t-11.5 -73.5t-3.5 -67.5q0 -119 80 -119zM351 770q-50 0 -91.5 16.5t-71.5 47t-46.5 74.5t-16.5 99q0 70 23 134.5t66 113.5
t104.5 78t138.5 29q50 0 91.5 -16.5t71.5 -47t46.5 -74.5t16.5 -99q0 -71 -23 -135t-66 -113t-104.5 -78t-138.5 -29z" />
    <glyph glyph-name="guillemotright" unicode="&#xbb;" 
d="M890 430l-382 -356h-101l261 389l-124 389h101l257 -356zM480 430l-382 -356h-100l260 389l-123 389h100l257 -356z" />
    <glyph glyph-name="onequarter" unicode="&#xbc;" horiz-adv-x="1536" 
d="M411 0h-123l965 1341h120zM395 616l138 -14l-12 -67h-457l12 67l141 14l101 572l-146 -41l11 66l251 134h90zM1305 157l-28 -159h-161l28 159h-342l18 98l458 552h142l-93 -527h80l-22 -123h-80zM1206 507q3 17 8 40t10 43q5 24 12 49l-295 -359h225z" />
    <glyph glyph-name="onehalf" unicode="&#xbd;" horiz-adv-x="1536" 
d="M364 0h-123l965 1341h120zM376 616l138 -14l-12 -67h-457l12 67l141 14l101 572l-146 -41l11 66l251 134h90zM1392 1h-510l20 114q89 69 163.5 133t128 126.5t83.5 124.5t30 128q0 52 -22.5 84.5t-67.5 32.5q-28 0 -52 -8.5t-43 -22.5l-46 -116h-62l33 192q48 11 97.5 19
t101.5 8q118 0 181.5 -51t63.5 -138q0 -71 -34.5 -132.5t-93.5 -119t-139 -114.5t-170 -118h363z" />
    <glyph glyph-name="threequarters" unicode="&#xbe;" horiz-adv-x="1536" 
d="M441 0h-123l965 1341h120zM317 522q-59 0 -117 8t-101 19l27 203h65l9 -132q17 -10 45.5 -17.5t61.5 -7.5q93 0 136 50t43 139q0 61 -31 90.5t-80 33.5l-68 6l14 83l63 4q60 3 96 43.5t36 129.5q0 49 -24 75.5t-67 26.5q-29 0 -52 -7t-44 -20l-47 -119h-62l34 193
q44 11 89.5 19t107.5 8q56 0 101.5 -12t78 -34.5t50 -55t17.5 -72.5q0 -97 -54.5 -150.5t-147.5 -69.5q83 -11 125.5 -54.5t42.5 -113.5q0 -54 -21.5 -102.5t-64.5 -85t-108.5 -57.5t-152.5 -21zM1321 157l-28 -159h-161l28 159h-342l18 98l458 552h142l-93 -527h80
l-22 -123h-80zM1222 507q3 17 8 40t10 43q5 24 12 49l-295 -359h225z" />
    <glyph glyph-name="questiondown" unicode="&#xbf;" 
d="M318 -123q0 -95 43.5 -149t145.5 -54q38 0 79.5 13.5t67.5 33.5l65 194h89l-40 -295q-69 -21 -149 -34.5t-163 -13.5q-206 0 -307 78.5t-101 222.5q0 171 85 280t277 159l91 24l63 202h103l2 -313l-100 -25q-63 -16 -110 -41t-78.5 -63t-47 -92t-15.5 -127zM648 957
q35 0 65.5 -13t52.5 -35.5t34.5 -53t12.5 -64.5q0 -35 -12.5 -65t-34.5 -52.5t-52.5 -35.5t-65.5 -13t-65 13t-52.5 35.5t-35.5 52.5t-13 65q0 34 13 64.5t35.5 53t52.5 35.5t65 13z" />
    <glyph glyph-name="Agrave" unicode="&#xc0;" horiz-adv-x="1366" 
d="M302 73l-14 -73h-394l14 73l103 27l668 1252h240l254 -1252l109 -27l-14 -73h-549l14 73l138 27l-61 347h-472l-184 -347zM689 1118l-295 -561h396zM861 1452l-317 268l7 37h265l137 -273l-6 -32h-86z" />
    <glyph glyph-name="Aacute" unicode="&#xc1;" horiz-adv-x="1366" 
d="M302 73l-14 -73h-394l14 73l103 27l668 1252h240l254 -1252l109 -27l-14 -73h-549l14 73l138 27l-61 347h-472l-184 -347zM689 1118l-295 -561h396zM690 1452l6 33l196 272h285l-4 -37l-397 -268h-86z" />
    <glyph glyph-name="Acircumflex" unicode="&#xc2;" horiz-adv-x="1366" 
d="M302 73l-14 -73h-394l14 73l103 27l668 1252h240l254 -1252l109 -27l-14 -73h-549l14 73l138 27l-61 347h-472l-184 -347zM689 1118l-295 -561h396zM478 1452l6 33l269 293h213l166 -293l-6 -33h-76l-220 162l-276 -162h-76z" />
    <glyph glyph-name="Atilde" unicode="&#xc3;" horiz-adv-x="1366" 
d="M302 73l-14 -73h-394l14 73l103 27l668 1252h240l254 -1252l109 -27l-14 -73h-549l14 73l138 27l-61 347h-472l-184 -347zM689 1118l-295 -561h396zM899 1424q-26 0 -48.5 6.5t-42 16t-36.5 22t-32 24.5q-10 8 -22 19t-25.5 21t-28 17t-28.5 7q-38 0 -59 -26t-40 -89h-99
q13 56 34 108t52.5 91.5t76 63.5t106.5 24q52 0 90.5 -21.5t69.5 -46.5q10 -8 22.5 -18.5t26 -20.5t28 -17t27.5 -7q37 0 58 25.5t41 86.5h99q-14 -56 -34.5 -107.5t-52.5 -91.5t-77 -63.5t-106 -23.5z" />
    <glyph glyph-name="Adieresis" unicode="&#xc4;" horiz-adv-x="1366" 
d="M302 73l-14 -73h-394l14 73l103 27l668 1252h240l254 -1252l109 -27l-14 -73h-549l14 73l138 27l-61 347h-472l-184 -347zM689 1118l-295 -561h396zM993 1464q-25 0 -47 10t-38.5 26.5t-26 38.5t-9.5 46q0 25 9.5 46.5t26 37.5t38.5 25.5t47 9.5t47 -9.5t38 -25.5
t25 -37.5t9 -46.5q0 -24 -9 -46t-25 -38.5t-38 -26.5t-47 -10zM637 1464q-24 0 -46 10t-38.5 26.5t-26.5 38.5t-10 46q0 25 10 46.5t26.5 37.5t38.5 25.5t46 9.5q25 0 46.5 -9.5t37.5 -25.5t25.5 -37.5t9.5 -46.5q0 -24 -9 -46t-25 -38.5t-38 -26.5t-47 -10z" />
    <glyph glyph-name="Aring" unicode="&#xc5;" horiz-adv-x="1366" 
d="M302 73l-14 -73h-394l14 73l103 27l668 1252h240l254 -1252l109 -27l-14 -73h-549l14 73l138 27l-61 347h-472l-184 -347zM689 1118l-295 -561h396zM800 1237q-45 0 -83.5 17t-67 46t-44.5 67.5t-16 82.5t16 82.5t44.5 67t67 45t83.5 16.5t83.5 -16.5t67 -45t44.5 -67
t16 -82.5t-16 -82.5t-44.5 -67.5t-67 -46t-83.5 -17zM800 1549q-20 0 -37.5 -8t-31 -21.5t-21.5 -31.5t-8 -38t8 -37.5t21.5 -31t31 -21.5t37.5 -8t37.5 8t31 21.5t21.5 31t8 37.5t-8 38t-21.5 31.5t-31 21.5t-37.5 8z" />
    <glyph glyph-name="AE" unicode="&#xc6;" horiz-adv-x="1933" 
d="M828 1252l-141 18l12 71h1141l-60 -341h-91l6 217q-31 4 -67 7t-71 4.5t-67.5 2t-55.5 0.5h-200l-87 -492h283l57 148h89l-73 -412h-89l-4 152h-283l-91 -517h245q62 0 108 1.5t79 3.5t55.5 5t38.5 6l100 248h91l-84 -374h-1119l12 73l177 27l61 347h-412l-254 -347
l149 -27l-12 -73h-432l12 73l125 27zM820 557l112 641l-463 -641h351z" />
    <glyph glyph-name="Ccedilla" unicode="&#xc7;" horiz-adv-x="1366" 
d="M670 -20q-147 0 -259 39.5t-187.5 112t-114.5 174t-39 225.5q0 193 62.5 346.5t174.5 259.5t266.5 162.5t338.5 56.5q148 0 263 -16t210 -36l-53 -337h-84v194q-54 43 -130.5 66.5t-160.5 23.5q-123 0 -228 -51.5t-182 -147t-120.5 -230t-43.5 -300.5q0 -95 21 -175.5
t64 -139t109 -91.5t157 -33q55 0 107.5 8.5t99 22.5t85 32t65.5 38l77 220h85l-66 -340q-49 -16 -109.5 -31t-127.5 -27t-138 -19t-142 -7zM556 -432q-32 0 -71.5 6.5t-77.5 22.5l37 97q32 -11 59 -15t44 -4q28 0 48 8t33.5 20.5t20 29t6.5 34.5q0 35 -22.5 58t-83.5 27
l86 195h91l-43 -110q36 -5 67 -17t53.5 -31t35.5 -45t13 -60q0 -54 -24.5 -94.5t-66 -67.5t-95 -40.5t-110.5 -13.5z" />
    <glyph glyph-name="Egrave" unicode="&#xc8;" horiz-adv-x="1366" 
d="M-3 73l177 27l201 1142l-167 26l13 73h1052l-60 -341h-91l6 217q-31 4 -72.5 7t-86 4.5t-87 2t-75.5 0.5h-138l-87 -492h281l57 148h89l-73 -412h-89l-4 152h-281l-91 -517h183q62 0 116.5 1.5t98.5 3.5t75.5 5t47.5 6l103 248h91l-84 -374h-1117zM845 1452l-317 268
l7 37h265l137 -273l-6 -32h-86z" />
    <glyph glyph-name="Eacute" unicode="&#xc9;" horiz-adv-x="1366" 
d="M-3 73l177 27l201 1142l-167 26l13 73h1052l-60 -341h-91l6 217q-31 4 -72.5 7t-86 4.5t-87 2t-75.5 0.5h-138l-87 -492h281l57 148h89l-73 -412h-89l-4 152h-281l-91 -517h183q62 0 116.5 1.5t98.5 3.5t75.5 5t47.5 6l103 248h91l-84 -374h-1117zM656 1452l6 33l196 272
h285l-4 -37l-397 -268h-86z" />
    <glyph glyph-name="Ecircumflex" unicode="&#xca;" horiz-adv-x="1366" 
d="M-3 73l177 27l201 1142l-167 26l13 73h1052l-60 -341h-91l6 217q-31 4 -72.5 7t-86 4.5t-87 2t-75.5 0.5h-138l-87 -492h281l57 148h89l-73 -412h-89l-4 152h-281l-91 -517h183q62 0 116.5 1.5t98.5 3.5t75.5 5t47.5 6l103 248h91l-84 -374h-1117zM506 1452l6 33l269 293
h213l166 -293l-6 -33h-76l-220 162l-276 -162h-76z" />
    <glyph glyph-name="Edieresis" unicode="&#xcb;" horiz-adv-x="1366" 
d="M-3 73l177 27l201 1142l-167 26l13 73h1052l-60 -341h-91l6 217q-31 4 -72.5 7t-86 4.5t-87 2t-75.5 0.5h-138l-87 -492h281l57 148h89l-73 -412h-89l-4 152h-281l-91 -517h183q62 0 116.5 1.5t98.5 3.5t75.5 5t47.5 6l103 248h91l-84 -374h-1117zM1002 1464
q-25 0 -47 10t-38.5 26.5t-26 38.5t-9.5 46q0 25 9.5 46.5t26 37.5t38.5 25.5t47 9.5t47 -9.5t38 -25.5t25 -37.5t9 -46.5q0 -24 -9 -46t-25 -38.5t-38 -26.5t-47 -10zM646 1464q-24 0 -46 10t-38.5 26.5t-26.5 38.5t-10 46q0 25 10 46.5t26.5 37.5t38.5 25.5t46 9.5
q25 0 46.5 -9.5t37.5 -25.5t25.5 -37.5t9.5 -46.5q0 -24 -9 -46t-25 -38.5t-38 -26.5t-47 -10z" />
    <glyph glyph-name="Igrave" unicode="&#xcc;" horiz-adv-x="797" 
d="M464 100l167 -26l-13 -74h-638l13 74l176 26l201 1141l-167 27l13 73h639l-13 -73l-177 -27zM625 1452l-317 268l7 37h265l137 -273l-6 -32h-86z" />
    <glyph glyph-name="Iacute" unicode="&#xcd;" horiz-adv-x="797" 
d="M464 100l167 -26l-13 -74h-638l13 74l176 26l201 1141l-167 27l13 73h639l-13 -73l-177 -27zM406 1452l6 33l196 272h285l-4 -37l-397 -268h-86z" />
    <glyph glyph-name="Icircumflex" unicode="&#xce;" horiz-adv-x="797" 
d="M464 100l167 -26l-13 -74h-638l13 74l176 26l201 1141l-167 27l13 73h639l-13 -73l-177 -27zM229 1452l6 33l269 293h213l166 -293l-6 -33h-76l-220 162l-276 -162h-76z" />
    <glyph glyph-name="Idieresis" unicode="&#xcf;" horiz-adv-x="797" 
d="M464 100l167 -26l-13 -74h-638l13 74l176 26l201 1141l-167 27l13 73h639l-13 -73l-177 -27zM757 1464q-25 0 -47 10t-38.5 26.5t-26 38.5t-9.5 46q0 25 9.5 46.5t26 37.5t38.5 25.5t47 9.5t47 -9.5t38 -25.5t25 -37.5t9 -46.5q0 -24 -9 -46t-25 -38.5t-38 -26.5t-47 -10
zM401 1464q-24 0 -46 10t-38.5 26.5t-26.5 38.5t-10 46q0 25 10 46.5t26.5 37.5t38.5 25.5t46 9.5q25 0 46.5 -9.5t37.5 -25.5t25.5 -37.5t9.5 -46.5q0 -24 -9 -46t-25 -38.5t-38 -26.5t-47 -10z" />
    <glyph glyph-name="Eth" unicode="&#xd0;" horiz-adv-x="1479" 
d="M1431 788q0 -179 -57 -325t-164.5 -250t-262 -160.5t-348.5 -56.5q-118 0 -228 2t-191 2h-195l12 73l177 27l89 509h-172l22 122h172l90 511l-167 26l13 73h521q168 0 296.5 -36t215.5 -106.5t132 -173.5t45 -237zM1120 774q0 125 -30 212t-84.5 141.5t-131 79
t-169.5 24.5h-37l-88 -500h257l-21 -122h-258l-87 -495q32 -3 61.5 -5.5t62.5 -2.5q125 0 222.5 47.5t165 135t102.5 210.5t35 275z" />
    <glyph glyph-name="Ntilde" unicode="&#xd1;" horiz-adv-x="1479" 
d="M1225 1242l-175 26l13 73h477l-13 -73l-177 -26l-218 -1242h-115l-541 1112l-181 -1012l175 -27l-12 -73h-477l12 73l177 27l201 1142l-167 26l13 73h433l435 -894zM1052 1424q-26 0 -48.5 6.5t-42 16t-36.5 22t-32 24.5q-10 8 -22 19t-25.5 21t-28 17t-28.5 7
q-38 0 -59 -26t-40 -89h-99q13 56 34 108t52.5 91.5t76 63.5t106.5 24q52 0 90.5 -21.5t69.5 -46.5q10 -8 22.5 -18.5t26 -20.5t28 -17t27.5 -7q37 0 58 25.5t41 86.5h99q-14 -56 -34.5 -107.5t-52.5 -91.5t-77 -63.5t-106 -23.5z" />
    <glyph glyph-name="Ograve" unicode="&#xd2;" horiz-adv-x="1479" 
d="M1120 843q0 93 -19 168t-55.5 128.5t-90.5 82.5t-123 29q-77 0 -141 -36.5t-115 -97t-88.5 -139t-62.5 -163.5t-37.5 -170.5t-12.5 -159.5q0 -92 18.5 -166t54 -126.5t88 -81t121.5 -28.5q78 0 142.5 35.5t116 95.5t90 138t64 162t38 169.5t12.5 159.5zM639 -20
q-129 0 -233 40.5t-178 113t-114 172t-40 218.5q0 113 22.5 218.5t67 198t111 169t153 131t194 85t234.5 30.5q129 0 233 -40.5t178 -113t114 -172.5t40 -218q0 -97 -19 -196.5t-59 -192t-102 -173.5t-149 -141t-199.5 -94.5t-253.5 -34.5zM927 1452l-317 268l7 37h265
l137 -273l-6 -32h-86z" />
    <glyph glyph-name="Oacute" unicode="&#xd3;" horiz-adv-x="1479" 
d="M1120 843q0 93 -19 168t-55.5 128.5t-90.5 82.5t-123 29q-77 0 -141 -36.5t-115 -97t-88.5 -139t-62.5 -163.5t-37.5 -170.5t-12.5 -159.5q0 -92 18.5 -166t54 -126.5t88 -81t121.5 -28.5q78 0 142.5 35.5t116 95.5t90 138t64 162t38 169.5t12.5 159.5zM639 -20
q-129 0 -233 40.5t-178 113t-114 172t-40 218.5q0 113 22.5 218.5t67 198t111 169t153 131t194 85t234.5 30.5q129 0 233 -40.5t178 -113t114 -172.5t40 -218q0 -97 -19 -196.5t-59 -192t-102 -173.5t-149 -141t-199.5 -94.5t-253.5 -34.5zM744 1452l6 33l196 272h285
l-4 -37l-397 -268h-86z" />
    <glyph glyph-name="Ocircumflex" unicode="&#xd4;" horiz-adv-x="1479" 
d="M1120 843q0 93 -19 168t-55.5 128.5t-90.5 82.5t-123 29q-77 0 -141 -36.5t-115 -97t-88.5 -139t-62.5 -163.5t-37.5 -170.5t-12.5 -159.5q0 -92 18.5 -166t54 -126.5t88 -81t121.5 -28.5q78 0 142.5 35.5t116 95.5t90 138t64 162t38 169.5t12.5 159.5zM639 -20
q-129 0 -233 40.5t-178 113t-114 172t-40 218.5q0 113 22.5 218.5t67 198t111 169t153 131t194 85t234.5 30.5q129 0 233 -40.5t178 -113t114 -172.5t40 -218q0 -97 -19 -196.5t-59 -192t-102 -173.5t-149 -141t-199.5 -94.5t-253.5 -34.5zM571 1452l6 33l269 293h213
l166 -293l-6 -33h-76l-220 162l-276 -162h-76z" />
    <glyph glyph-name="Otilde" unicode="&#xd5;" horiz-adv-x="1479" 
d="M1120 843q0 93 -19 168t-55.5 128.5t-90.5 82.5t-123 29q-77 0 -141 -36.5t-115 -97t-88.5 -139t-62.5 -163.5t-37.5 -170.5t-12.5 -159.5q0 -92 18.5 -166t54 -126.5t88 -81t121.5 -28.5q78 0 142.5 35.5t116 95.5t90 138t64 162t38 169.5t12.5 159.5zM639 -20
q-129 0 -233 40.5t-178 113t-114 172t-40 218.5q0 113 22.5 218.5t67 198t111 169t153 131t194 85t234.5 30.5q129 0 233 -40.5t178 -113t114 -172.5t40 -218q0 -97 -19 -196.5t-59 -192t-102 -173.5t-149 -141t-199.5 -94.5t-253.5 -34.5zM1016 1424q-26 0 -48.5 6.5
t-42 16t-36.5 22t-32 24.5q-10 8 -22 19t-25.5 21t-28 17t-28.5 7q-38 0 -59 -26t-40 -89h-99q13 56 34 108t52.5 91.5t76 63.5t106.5 24q52 0 90.5 -21.5t69.5 -46.5q10 -8 22.5 -18.5t26 -20.5t28 -17t27.5 -7q37 0 58 25.5t41 86.5h99q-14 -56 -34.5 -107.5t-52.5 -91.5
t-77 -63.5t-106 -23.5z" />
    <glyph glyph-name="Odieresis" unicode="&#xd6;" horiz-adv-x="1479" 
d="M1120 843q0 93 -19 168t-55.5 128.5t-90.5 82.5t-123 29q-77 0 -141 -36.5t-115 -97t-88.5 -139t-62.5 -163.5t-37.5 -170.5t-12.5 -159.5q0 -92 18.5 -166t54 -126.5t88 -81t121.5 -28.5q78 0 142.5 35.5t116 95.5t90 138t64 162t38 169.5t12.5 159.5zM639 -20
q-129 0 -233 40.5t-178 113t-114 172t-40 218.5q0 113 22.5 218.5t67 198t111 169t153 131t194 85t234.5 30.5q129 0 233 -40.5t178 -113t114 -172.5t40 -218q0 -97 -19 -196.5t-59 -192t-102 -173.5t-149 -141t-199.5 -94.5t-253.5 -34.5zM1094 1464q-25 0 -47 10
t-38.5 26.5t-26 38.5t-9.5 46q0 25 9.5 46.5t26 37.5t38.5 25.5t47 9.5t47 -9.5t38 -25.5t25 -37.5t9 -46.5q0 -24 -9 -46t-25 -38.5t-38 -26.5t-47 -10zM738 1464q-24 0 -46 10t-38.5 26.5t-26.5 38.5t-10 46q0 25 10 46.5t26.5 37.5t38.5 25.5t46 9.5q25 0 46.5 -9.5
t37.5 -25.5t25.5 -37.5t9.5 -46.5q0 -24 -9 -46t-25 -38.5t-38 -26.5t-47 -10z" />
    <glyph glyph-name="multiply" unicode="&#xd7;" horiz-adv-x="1167" 
d="M606 578l-325 -324l-101 102l324 326l-324 322l104 104l322 -324l326 324l101 -102l-324 -324l324 -326l-101 -102z" />
    <glyph glyph-name="Oslash" unicode="&#xd8;" horiz-adv-x="1479" 
d="M639 -20q-114 0 -208 31.5t-166 88.5l-155 -155h-149l229 229q-57 70 -86.5 158.5t-29.5 191.5q0 113 22.5 218.5t67 198t111 169t153 131t194 85t234.5 30.5q119 0 216.5 -34.5t170.5 -97.5l167 167h145l-241 -242q52 -68 79.5 -153t27.5 -184q0 -97 -19 -196.5
t-59 -192t-102 -173.5t-149 -141t-199.5 -94.5t-253.5 -34.5zM375 485q0 -32 1.5 -61.5t6.5 -56.5l700 698q-34 88 -97 137t-154 49q-77 0 -141 -36.5t-115 -97t-88.5 -139t-62.5 -163.5t-37.5 -170.5t-12.5 -159.5zM1120 843q0 28 -2 54t-5 51l-697 -697q34 -80 94 -124
t147 -44q78 0 142.5 35.5t116 95.5t90 138t64 162t38 169.5t12.5 159.5z" />
    <glyph glyph-name="Ugrave" unicode="&#xd9;" horiz-adv-x="1479" 
d="M167 1268l13 73h619l-13 -73l-177 -26l-113 -656q-11 -62 -17 -115.5t-6 -81.5q0 -138 69.5 -202.5t197.5 -64.5q90 0 158.5 26t117 71.5t78 108t42.5 135.5l137 779l-175 26l13 73h456l-13 -73l-157 -26l-135 -771q-19 -107 -58.5 -197t-107 -155t-167.5 -101.5
t-240 -36.5q-134 0 -230 31.5t-158 87t-91.5 132.5t-29.5 167q0 37 5.5 83.5t14.5 100.5l114 659zM961 1452l-317 268l7 37h265l137 -273l-6 -32h-86z" />
    <glyph glyph-name="Uacute" unicode="&#xda;" horiz-adv-x="1479" 
d="M167 1268l13 73h619l-13 -73l-177 -26l-113 -656q-11 -62 -17 -115.5t-6 -81.5q0 -138 69.5 -202.5t197.5 -64.5q90 0 158.5 26t117 71.5t78 108t42.5 135.5l137 779l-175 26l13 73h456l-13 -73l-157 -26l-135 -771q-19 -107 -58.5 -197t-107 -155t-167.5 -101.5
t-240 -36.5q-134 0 -230 31.5t-158 87t-91.5 132.5t-29.5 167q0 37 5.5 83.5t14.5 100.5l114 659zM797 1452l6 33l196 272h285l-4 -37l-397 -268h-86z" />
    <glyph glyph-name="Ucircumflex" unicode="&#xdb;" horiz-adv-x="1479" 
d="M167 1268l13 73h619l-13 -73l-177 -26l-113 -656q-11 -62 -17 -115.5t-6 -81.5q0 -138 69.5 -202.5t197.5 -64.5q90 0 158.5 26t117 71.5t78 108t42.5 135.5l137 779l-175 26l13 73h456l-13 -73l-157 -26l-135 -771q-19 -107 -58.5 -197t-107 -155t-167.5 -101.5
t-240 -36.5q-134 0 -230 31.5t-158 87t-91.5 132.5t-29.5 167q0 37 5.5 83.5t14.5 100.5l114 659zM626 1452l6 33l269 293h213l166 -293l-6 -33h-76l-220 162l-276 -162h-76z" />
    <glyph glyph-name="Udieresis" unicode="&#xdc;" horiz-adv-x="1479" 
d="M167 1268l13 73h619l-13 -73l-177 -26l-113 -656q-11 -62 -17 -115.5t-6 -81.5q0 -138 69.5 -202.5t197.5 -64.5q90 0 158.5 26t117 71.5t78 108t42.5 135.5l137 779l-175 26l13 73h456l-13 -73l-157 -26l-135 -771q-19 -107 -58.5 -197t-107 -155t-167.5 -101.5
t-240 -36.5q-134 0 -230 31.5t-158 87t-91.5 132.5t-29.5 167q0 37 5.5 83.5t14.5 100.5l114 659zM1147 1464q-25 0 -47 10t-38.5 26.5t-26 38.5t-9.5 46q0 25 9.5 46.5t26 37.5t38.5 25.5t47 9.5t47 -9.5t38 -25.5t25 -37.5t9 -46.5q0 -24 -9 -46t-25 -38.5t-38 -26.5
t-47 -10zM791 1464q-24 0 -46 10t-38.5 26.5t-26.5 38.5t-10 46q0 25 10 46.5t26.5 37.5t38.5 25.5t46 9.5q25 0 46.5 -9.5t37.5 -25.5t25.5 -37.5t9.5 -46.5q0 -24 -9 -46t-25 -38.5t-38 -26.5t-47 -10z" />
    <glyph glyph-name="Yacute" unicode="&#xdd;" horiz-adv-x="1251" 
d="M782 548l-80 -448l208 -27l-12 -73h-722l12 73l218 27l79 442l-234 700l-146 26l13 73h636l-13 -73l-185 -26l178 -556l364 556l-159 26l13 73h456l-13 -73l-147 -26zM707 1452l6 33l196 272h285l-4 -37l-397 -268h-86z" />
    <glyph glyph-name="Thorn" unicode="&#xde;" horiz-adv-x="1251" 
d="M564 378q345 0 345 337q0 132 -60.5 195t-183.5 63h-42l-105 -595h46zM751 1083q119 0 204.5 -26t140 -72.5t80.5 -112t26 -144.5q0 -100 -31.5 -184.5t-99.5 -145.5t-174 -95.5t-254 -34.5h-145l-29 -168l168 -26l-13 -74h-639l13 74l176 26l201 1141l-167 27l13 73h639
l-13 -73l-177 -27l-28 -158h109z" />
    <glyph glyph-name="germandbls" unicode="&#xdf;" 
d="M753 802q0 -39 13 -72.5t34 -66t48 -65t54 -69.5q26 -35 44.5 -84t18.5 -109q0 -80 -25.5 -145.5t-74.5 -112.5t-121.5 -72.5t-165.5 -25.5q-80 0 -136 13.5t-82 27.5l35 223h66l17 -134q17 -15 39.5 -26t57.5 -11t61.5 13.5t44.5 37t27 56.5t9 72q0 42 -11 77t-29.5 67
t-43 62.5t-52.5 63.5q-30 36 -50.5 86t-20.5 113q0 57 16.5 108t45.5 91.5t70 69.5t89 43q5 38 8.5 76.5t3.5 66.5q0 83 -24.5 124t-78.5 41q-41 0 -70 -24t-51.5 -73t-40.5 -122t-35 -170l-167 -952h-351l11 66l86 24l152 862q21 119 58.5 210.5t96.5 153.5t141.5 94
t193.5 32q175 0 256 -82t81 -243q0 -31 -3 -63.5t-8 -68.5q-51 0 -94.5 -10t-75 -32t-49.5 -57t-18 -84z" />
    <glyph glyph-name="agrave" unicode="&#xe0;" 
d="M823 90l109 -32l-8 -58h-347l-4 138q-27 -34 -59.5 -63t-69 -50.5t-76 -33.5t-80.5 -12q-58 0 -106.5 21t-83.5 63.5t-54.5 106.5t-19.5 149q0 129 40.5 246t114.5 205.5t178 141t231 52.5q72 0 136.5 -12.5t114.5 -32.5l82 37h54zM287 351q0 -58 10.5 -100.5t28 -70
t39 -40.5t43.5 -13q23 0 47.5 12.5t48 33t44.5 45t37 48.5l99 563q-21 16 -55 25t-69 9q-61 0 -111.5 -45t-86.5 -118t-55.5 -164.5t-19.5 -184.5zM714 1118l-317 268l7 37h265l137 -273l-6 -32h-86z" />
    <glyph glyph-name="aacute" unicode="&#xe1;" 
d="M823 90l109 -32l-8 -58h-347l-4 138q-27 -34 -59.5 -63t-69 -50.5t-76 -33.5t-80.5 -12q-58 0 -106.5 21t-83.5 63.5t-54.5 106.5t-19.5 149q0 129 40.5 246t114.5 205.5t178 141t231 52.5q72 0 136.5 -12.5t114.5 -32.5l82 37h54zM287 351q0 -58 10.5 -100.5t28 -70
t39 -40.5t43.5 -13q23 0 47.5 12.5t48 33t44.5 45t37 48.5l99 563q-21 16 -55 25t-69 9q-61 0 -111.5 -45t-86.5 -118t-55.5 -164.5t-19.5 -184.5zM543 1118l6 33l196 272h285l-4 -37l-397 -268h-86z" />
    <glyph glyph-name="acircumflex" unicode="&#xe2;" 
d="M823 90l109 -32l-8 -58h-347l-4 138q-27 -34 -59.5 -63t-69 -50.5t-76 -33.5t-80.5 -12q-58 0 -106.5 21t-83.5 63.5t-54.5 106.5t-19.5 149q0 129 40.5 246t114.5 205.5t178 141t231 52.5q72 0 136.5 -12.5t114.5 -32.5l82 37h54zM287 351q0 -58 10.5 -100.5t28 -70
t39 -40.5t43.5 -13q23 0 47.5 12.5t48 33t44.5 45t37 48.5l99 563q-21 16 -55 25t-69 9q-61 0 -111.5 -45t-86.5 -118t-55.5 -164.5t-19.5 -184.5zM305 1118l6 33l269 293h213l166 -293l-6 -33h-76l-220 162l-276 -162h-76z" />
    <glyph glyph-name="atilde" unicode="&#xe3;" 
d="M823 90l109 -32l-8 -58h-347l-4 138q-27 -34 -59.5 -63t-69 -50.5t-76 -33.5t-80.5 -12q-58 0 -106.5 21t-83.5 63.5t-54.5 106.5t-19.5 149q0 129 40.5 246t114.5 205.5t178 141t231 52.5q72 0 136.5 -12.5t114.5 -32.5l82 37h54zM287 351q0 -58 10.5 -100.5t28 -70
t39 -40.5t43.5 -13q23 0 47.5 12.5t48 33t44.5 45t37 48.5l99 563q-21 16 -55 25t-69 9q-61 0 -111.5 -45t-86.5 -118t-55.5 -164.5t-19.5 -184.5zM717 1090q-26 0 -48.5 6.5t-42 16t-36.5 22t-32 24.5q-10 8 -22 19t-25.5 21t-28 17t-28.5 7q-38 0 -59 -26t-40 -89h-99
q13 56 34 108t52.5 91.5t76 63.5t106.5 24q52 0 90.5 -21.5t69.5 -46.5q10 -8 22.5 -18.5t26 -20.5t28 -17t27.5 -7q37 0 58 25.5t41 86.5h99q-14 -56 -34.5 -107.5t-52.5 -91.5t-77 -63.5t-106 -23.5z" />
    <glyph glyph-name="adieresis" unicode="&#xe4;" 
d="M823 90l109 -32l-8 -58h-347l-4 138q-27 -34 -59.5 -63t-69 -50.5t-76 -33.5t-80.5 -12q-58 0 -106.5 21t-83.5 63.5t-54.5 106.5t-19.5 149q0 129 40.5 246t114.5 205.5t178 141t231 52.5q72 0 136.5 -12.5t114.5 -32.5l82 37h54zM287 351q0 -58 10.5 -100.5t28 -70
t39 -40.5t43.5 -13q23 0 47.5 12.5t48 33t44.5 45t37 48.5l99 563q-21 16 -55 25t-69 9q-61 0 -111.5 -45t-86.5 -118t-55.5 -164.5t-19.5 -184.5zM809 1130q-25 0 -47 10t-38.5 26.5t-26 38.5t-9.5 46q0 25 9.5 46.5t26 37.5t38.5 25.5t47 9.5t47 -9.5t38 -25.5t25 -37.5
t9 -46.5q0 -24 -9 -46t-25 -38.5t-38 -26.5t-47 -10zM453 1130q-24 0 -46 10t-38.5 26.5t-26.5 38.5t-10 46q0 25 10 46.5t26.5 37.5t38.5 25.5t46 9.5q25 0 46.5 -9.5t37.5 -25.5t25.5 -37.5t9.5 -46.5q0 -24 -9 -46t-25 -38.5t-38 -26.5t-47 -10z" />
    <glyph glyph-name="aring" unicode="&#xe5;" 
d="M823 90l109 -32l-8 -58h-347l-4 138q-27 -34 -59.5 -63t-69 -50.5t-76 -33.5t-80.5 -12q-58 0 -106.5 21t-83.5 63.5t-54.5 106.5t-19.5 149q0 129 40.5 246t114.5 205.5t178 141t231 52.5q72 0 136.5 -12.5t114.5 -32.5l82 37h54zM287 351q0 -58 10.5 -100.5t28 -70
t39 -40.5t43.5 -13q23 0 47.5 12.5t48 33t44.5 45t37 48.5l99 563q-21 16 -55 25t-69 9q-61 0 -111.5 -45t-86.5 -118t-55.5 -164.5t-19.5 -184.5zM637 1059q-45 0 -83.5 17t-67 46t-44.5 67.5t-16 82.5t16 82.5t44.5 67t67 45t83.5 16.5t83.5 -16.5t67 -45t44.5 -67
t16 -82.5t-16 -82.5t-44.5 -67.5t-67 -46t-83.5 -17zM637 1371q-20 0 -37.5 -8t-31 -21.5t-21.5 -31.5t-8 -38t8 -37.5t21.5 -31t31 -21.5t37.5 -8t37.5 8t31 21.5t21.5 31t8 37.5t-8 38t-21.5 31.5t-31 21.5t-37.5 8z" />
    <glyph glyph-name="ae" unicode="&#xe6;" horiz-adv-x="1479" 
d="M901 508q67 7 122 32.5t94.5 62t61 81t21.5 89.5q0 42 -24.5 63t-52.5 21q-38 0 -73.5 -30t-65 -79t-51.5 -111.5t-32 -128.5zM887 895q24 16 53 29t61.5 22t66.5 14t67 5q73 0 129 -15.5t93.5 -43t57 -65t19.5 -81.5q0 -65 -37 -124.5t-107.5 -106.5t-172 -79
t-230.5 -42q-1 -4 -2 -12.5t-1.5 -18t-1 -20t-0.5 -17.5q0 -45 9.5 -87.5t31.5 -75.5t59 -53t91 -20q37 0 69.5 8t62 21t57 30t54.5 35l44 -63q-31 -26 -73 -53.5t-92 -50t-106.5 -37t-117.5 -14.5q-138 0 -215.5 47t-111.5 131q-43 -51 -85 -85.5t-83 -55t-82.5 -29.5
t-83.5 -9q-58 0 -109.5 21t-90.5 63.5t-61.5 106.5t-22.5 149q0 129 43.5 246t121.5 205.5t185 141t234 52.5q36 0 74.5 -6.5t75 -16t69.5 -22t58 -24.5zM623 264q-1 11 -2 29t-1 37q0 55 9 114t28.5 118.5t49 117t70.5 108.5q-21 15 -45.5 29t-50.5 24t-51.5 16t-47.5 6
q-61 0 -114.5 -45t-93 -118t-62.5 -164.5t-23 -184.5q0 -60 10.5 -102.5t28.5 -69.5t42.5 -39.5t51.5 -12.5q23 0 51.5 12.5t56 32t52.5 44t41 48.5z" />
    <glyph glyph-name="ccedilla" unicode="&#xe7;" horiz-adv-x="909" 
d="M391 -20q-90 0 -158 25.5t-113 72t-67.5 110.5t-22.5 142q0 156 48.5 275t127 199t178 120.5t201.5 40.5q40 0 82 -4t81.5 -10.5t73.5 -14.5t57 -16l-49 -288h-72l-14 171q-25 28 -60.5 44t-85.5 16q-58 0 -112 -38.5t-96 -107.5t-67 -165t-25 -212q0 -63 13.5 -108
t36.5 -73.5t55 -41.5t68 -13q75 0 136.5 27t118.5 67l44 -63q-27 -24 -66 -51t-87.5 -50t-105.5 -38.5t-120 -15.5zM237 -432q-32 0 -71.5 6.5t-77.5 22.5l37 97q32 -11 59 -15t44 -4q28 0 48 8t33.5 20.5t20 29t6.5 34.5q0 35 -22.5 58t-83.5 27l86 195h91l-43 -110
q36 -5 67 -17t53.5 -31t35.5 -45t13 -60q0 -54 -24.5 -94.5t-66 -67.5t-95 -40.5t-110.5 -13.5z" />
    <glyph glyph-name="egrave" unicode="&#xe8;" horiz-adv-x="909" 
d="M864 760q0 -65 -36 -124.5t-105 -106.5t-169 -79t-229 -42q-1 -4 -2 -12.5t-1.5 -18t-1 -20t-0.5 -17.5q0 -45 8 -87.5t28 -75.5t55.5 -53t89.5 -20q74 0 137 28.5t118 65.5l44 -63q-31 -26 -73 -53.5t-92 -50t-107 -37t-117 -14.5q-94 0 -162.5 24.5t-113 69.5t-66 110
t-21.5 146q0 89 19.5 170.5t55 152t83.5 128t105.5 98.5t121.5 63.5t130 22.5q73 0 129 -15.5t94.5 -43t58 -65t19.5 -81.5zM341 508q67 7 119 32.5t87.5 62t54 81t18.5 89.5q0 42 -20.5 63t-48.5 21q-38 0 -71.5 -30t-61 -79t-47.5 -111.5t-30 -128.5zM647 1118l-317 268
l7 37h265l137 -273l-6 -32h-86z" />
    <glyph glyph-name="eacute" unicode="&#xe9;" horiz-adv-x="909" 
d="M864 760q0 -65 -36 -124.5t-105 -106.5t-169 -79t-229 -42q-1 -4 -2 -12.5t-1.5 -18t-1 -20t-0.5 -17.5q0 -45 8 -87.5t28 -75.5t55.5 -53t89.5 -20q74 0 137 28.5t118 65.5l44 -63q-31 -26 -73 -53.5t-92 -50t-107 -37t-117 -14.5q-94 0 -162.5 24.5t-113 69.5t-66 110
t-21.5 146q0 89 19.5 170.5t55 152t83.5 128t105.5 98.5t121.5 63.5t130 22.5q73 0 129 -15.5t94.5 -43t58 -65t19.5 -81.5zM341 508q67 7 119 32.5t87.5 62t54 81t18.5 89.5q0 42 -20.5 63t-48.5 21q-38 0 -71.5 -30t-61 -79t-47.5 -111.5t-30 -128.5zM479 1118l6 33
l196 272h285l-4 -37l-397 -268h-86z" />
    <glyph glyph-name="ecircumflex" unicode="&#xea;" horiz-adv-x="909" 
d="M864 760q0 -65 -36 -124.5t-105 -106.5t-169 -79t-229 -42q-1 -4 -2 -12.5t-1.5 -18t-1 -20t-0.5 -17.5q0 -45 8 -87.5t28 -75.5t55.5 -53t89.5 -20q74 0 137 28.5t118 65.5l44 -63q-31 -26 -73 -53.5t-92 -50t-107 -37t-117 -14.5q-94 0 -162.5 24.5t-113 69.5t-66 110
t-21.5 146q0 89 19.5 170.5t55 152t83.5 128t105.5 98.5t121.5 63.5t130 22.5q73 0 129 -15.5t94.5 -43t58 -65t19.5 -81.5zM341 508q67 7 119 32.5t87.5 62t54 81t18.5 89.5q0 42 -20.5 63t-48.5 21q-38 0 -71.5 -30t-61 -79t-47.5 -111.5t-30 -128.5zM259 1118l6 33
l269 293h213l166 -293l-6 -33h-76l-220 162l-276 -162h-76z" />
    <glyph glyph-name="edieresis" unicode="&#xeb;" horiz-adv-x="909" 
d="M864 760q0 -65 -36 -124.5t-105 -106.5t-169 -79t-229 -42q-1 -4 -2 -12.5t-1.5 -18t-1 -20t-0.5 -17.5q0 -45 8 -87.5t28 -75.5t55.5 -53t89.5 -20q74 0 137 28.5t118 65.5l44 -63q-31 -26 -73 -53.5t-92 -50t-107 -37t-117 -14.5q-94 0 -162.5 24.5t-113 69.5t-66 110
t-21.5 146q0 89 19.5 170.5t55 152t83.5 128t105.5 98.5t121.5 63.5t130 22.5q73 0 129 -15.5t94.5 -43t58 -65t19.5 -81.5zM341 508q67 7 119 32.5t87.5 62t54 81t18.5 89.5q0 42 -20.5 63t-48.5 21q-38 0 -71.5 -30t-61 -79t-47.5 -111.5t-30 -128.5zM758 1130
q-25 0 -47 10t-38.5 26.5t-26 38.5t-9.5 46q0 25 9.5 46.5t26 37.5t38.5 25.5t47 9.5t47 -9.5t38 -25.5t25 -37.5t9 -46.5q0 -24 -9 -46t-25 -38.5t-38 -26.5t-47 -10zM402 1130q-24 0 -46 10t-38.5 26.5t-26.5 38.5t-10 46q0 25 10 46.5t26.5 37.5t38.5 25.5t46 9.5
q25 0 46.5 -9.5t37.5 -25.5t25.5 -37.5t9.5 -46.5q0 -24 -9 -46t-25 -38.5t-38 -26.5t-47 -10z" />
    <glyph glyph-name="igrave" unicode="&#xec;" horiz-adv-x="569" 
d="M332 90l119 -24l-11 -66h-393l150 850l-91 24l11 66h365zM418 1118l-317 268l7 37h265l137 -273l-6 -32h-86z" />
    <glyph glyph-name="iacute" unicode="&#xed;" horiz-adv-x="569" 
d="M332 90l119 -24l-11 -66h-393l150 850l-91 24l11 66h365zM221 1118l6 33l196 272h285l-4 -37l-397 -268h-86z" />
    <glyph glyph-name="icircumflex" unicode="&#xee;" horiz-adv-x="569" 
d="M332 90l119 -24l-11 -66h-393l150 850l-91 24l11 66h365zM24 1118l6 33l269 293h213l166 -293l-6 -33h-76l-220 162l-276 -162h-76z" />
    <glyph glyph-name="idieresis" unicode="&#xef;" horiz-adv-x="569" 
d="M332 90l119 -24l-11 -66h-393l150 850l-91 24l11 66h365zM555 1130q-25 0 -47 10t-38.5 26.5t-26 38.5t-9.5 46q0 25 9.5 46.5t26 37.5t38.5 25.5t47 9.5t47 -9.5t38 -25.5t25 -37.5t9 -46.5q0 -24 -9 -46t-25 -38.5t-38 -26.5t-47 -10zM199 1130q-24 0 -46 10
t-38.5 26.5t-26.5 38.5t-10 46q0 25 10 46.5t26.5 37.5t38.5 25.5t46 9.5q25 0 46.5 -9.5t37.5 -25.5t25.5 -37.5t9.5 -46.5q0 -24 -9 -46t-25 -38.5t-38 -26.5t-47 -10z" />
    <glyph glyph-name="eth" unicode="&#xf0;" 
d="M333 1117l191 100q-34 29 -75 54t-92 42l19 108q85 -20 153.5 -51.5t133.5 -75.5l314 165l-22 -124l-211 -111q96 -92 154 -225.5t58 -311.5q0 -91 -15 -179t-45.5 -166.5t-76 -144.5t-106 -114.5t-136.5 -75.5t-167 -27q-78 0 -146.5 25t-119 72.5t-80 117t-29.5 158.5
q0 127 38.5 228.5t109 173t169.5 110t219 38.5q29 0 62 -4t55 -9q-4 59 -27.5 125t-68.5 124l-281 -148zM301 283q0 -102 36 -153t95 -51q51 0 97 44t81 118t55.5 171.5t20.5 204.5q0 53 -10.5 89t-28 57.5t-40.5 31t-49 9.5q-47 0 -93 -42.5t-82.5 -114t-59 -166
t-22.5 -198.5z" />
    <glyph glyph-name="ntilde" unicode="&#xf1;" horiz-adv-x="1139" 
d="M764 725q0 97 -91 97q-34 0 -72 -20.5t-74 -53t-66 -73.5t-47 -81l-106 -594h-266l148 849l-89 25l13 66h334l-8 -175q76 98 169.5 149t210.5 51q46 0 85.5 -12.5t68.5 -37.5t45 -63t16 -89q0 -18 -2.5 -41t-6.5 -47.5l-8 -49t-8 -45.5l-87 -490l116 -24l-13 -66h-386
l102 569q4 21 8 44t7 44t5 39t2 29zM775 1090q-26 0 -48.5 6.5t-42 16t-36.5 22t-32 24.5q-10 8 -22 19t-25.5 21t-28 17t-28.5 7q-38 0 -59 -26t-40 -89h-99q13 56 34 108t52.5 91.5t76 63.5t106.5 24q52 0 90.5 -21.5t69.5 -46.5q10 -8 22.5 -18.5t26 -20.5t28 -17
t27.5 -7q37 0 58 25.5t41 86.5h99q-14 -56 -34.5 -107.5t-52.5 -91.5t-77 -63.5t-106 -23.5z" />
    <glyph glyph-name="ograve" unicode="&#xf2;" 
d="M683 625q0 117 -31 179t-94 62q-47 0 -94 -43.5t-84 -118.5t-60 -174.5t-23 -210.5q0 -115 37 -177.5t95 -62.5q47 0 92.5 40.5t81.5 113t58 172.5t22 220zM406 -20q-83 0 -152 27t-118.5 78t-76.5 124t-27 165q0 117 38 224t109.5 188.5t173 130t227.5 48.5
q83 0 152 -27t118.5 -78t76.5 -124t27 -165q0 -117 -38 -224t-109.5 -188.5t-173 -130t-227.5 -48.5zM654 1118l-317 268l7 37h265l137 -273l-6 -32h-86z" />
    <glyph glyph-name="oacute" unicode="&#xf3;" 
d="M683 625q0 117 -31 179t-94 62q-47 0 -94 -43.5t-84 -118.5t-60 -174.5t-23 -210.5q0 -115 37 -177.5t95 -62.5q47 0 92.5 40.5t81.5 113t58 172.5t22 220zM406 -20q-83 0 -152 27t-118.5 78t-76.5 124t-27 165q0 117 38 224t109.5 188.5t173 130t227.5 48.5
q83 0 152 -27t118.5 -78t76.5 -124t27 -165q0 -117 -38 -224t-109.5 -188.5t-173 -130t-227.5 -48.5zM469 1118l6 33l196 272h285l-4 -37l-397 -268h-86z" />
    <glyph glyph-name="ocircumflex" unicode="&#xf4;" 
d="M683 625q0 117 -31 179t-94 62q-47 0 -94 -43.5t-84 -118.5t-60 -174.5t-23 -210.5q0 -115 37 -177.5t95 -62.5q47 0 92.5 40.5t81.5 113t58 172.5t22 220zM406 -20q-83 0 -152 27t-118.5 78t-76.5 124t-27 165q0 117 38 224t109.5 188.5t173 130t227.5 48.5
q83 0 152 -27t118.5 -78t76.5 -124t27 -165q0 -117 -38 -224t-109.5 -188.5t-173 -130t-227.5 -48.5zM281 1118l6 33l269 293h213l166 -293l-6 -33h-76l-220 162l-276 -162h-76z" />
    <glyph glyph-name="otilde" unicode="&#xf5;" 
d="M683 625q0 117 -31 179t-94 62q-47 0 -94 -43.5t-84 -118.5t-60 -174.5t-23 -210.5q0 -115 37 -177.5t95 -62.5q47 0 92.5 40.5t81.5 113t58 172.5t22 220zM406 -20q-83 0 -152 27t-118.5 78t-76.5 124t-27 165q0 117 38 224t109.5 188.5t173 130t227.5 48.5
q83 0 152 -27t118.5 -78t76.5 -124t27 -165q0 -117 -38 -224t-109.5 -188.5t-173 -130t-227.5 -48.5zM717 1090q-26 0 -48.5 6.5t-42 16t-36.5 22t-32 24.5q-10 8 -22 19t-25.5 21t-28 17t-28.5 7q-38 0 -59 -26t-40 -89h-99q13 56 34 108t52.5 91.5t76 63.5t106.5 24
q52 0 90.5 -21.5t69.5 -46.5q10 -8 22.5 -18.5t26 -20.5t28 -17t27.5 -7q37 0 58 25.5t41 86.5h99q-14 -56 -34.5 -107.5t-52.5 -91.5t-77 -63.5t-106 -23.5z" />
    <glyph glyph-name="odieresis" unicode="&#xf6;" 
d="M683 625q0 117 -31 179t-94 62q-47 0 -94 -43.5t-84 -118.5t-60 -174.5t-23 -210.5q0 -115 37 -177.5t95 -62.5q47 0 92.5 40.5t81.5 113t58 172.5t22 220zM406 -20q-83 0 -152 27t-118.5 78t-76.5 124t-27 165q0 117 38 224t109.5 188.5t173 130t227.5 48.5
q83 0 152 -27t118.5 -78t76.5 -124t27 -165q0 -117 -38 -224t-109.5 -188.5t-173 -130t-227.5 -48.5zM801 1130q-25 0 -47 10t-38.5 26.5t-26 38.5t-9.5 46q0 25 9.5 46.5t26 37.5t38.5 25.5t47 9.5t47 -9.5t38 -25.5t25 -37.5t9 -46.5q0 -24 -9 -46t-25 -38.5t-38 -26.5
t-47 -10zM445 1130q-24 0 -46 10t-38.5 26.5t-26.5 38.5t-10 46q0 25 10 46.5t26.5 37.5t38.5 25.5t46 9.5q25 0 46.5 -9.5t37.5 -25.5t25.5 -37.5t9.5 -46.5q0 -24 -9 -46t-25 -38.5t-38 -26.5t-47 -10z" />
    <glyph glyph-name="divide" unicode="&#xf7;" horiz-adv-x="1124" 
d="M1052 751v-143h-952v143h952zM575 183q-28 0 -52.5 10.5t-42.5 28.5t-28.5 42.5t-10.5 52.5t10.5 52.5t28.5 42.5t42.5 28.5t52.5 10.5t52.5 -10.5t42.5 -28.5t28.5 -42.5t10.5 -52.5t-10.5 -52.5t-28.5 -42.5t-42.5 -28.5t-52.5 -10.5zM575 909q-28 0 -52.5 10.5
t-42.5 28.5t-28.5 42.5t-10.5 52.5t10.5 52.5t28.5 42.5t42.5 28.5t52.5 10.5t52.5 -10.5t42.5 -28.5t28.5 -42.5t10.5 -52.5t-10.5 -52.5t-28.5 -42.5t-42.5 -28.5t-52.5 -10.5z" />
    <glyph glyph-name="oslash" unicode="&#xf8;" 
d="M406 -20q-128 0 -219 61l-107 -125h-127l164 190q-41 51 -63 117.5t-22 150.5q0 117 38 224t109.5 188.5t173 130t227.5 48.5q130 0 221 -64l104 121h124l-159 -185q40 -51 62 -117.5t22 -148.5q0 -117 -38 -224t-109.5 -188.5t-173 -130t-227.5 -48.5zM297 315l373 434
q-14 57 -41.5 87t-70.5 30q-47 0 -94 -43.5t-84 -118.5t-60 -174.5t-23 -210.5v-4zM429 79q46 0 91.5 40t81.5 111.5t58 170.5t23 218l-369 -430q17 -54 46.5 -82t68.5 -28z" />
    <glyph glyph-name="ugrave" unicode="&#xf9;" horiz-adv-x="1139" 
d="M350 216q0 -97 91 -97q34 0 72 20.5t74 53t66 73t47 81.5l106 593h266l-148 -849l109 -25l-13 -66h-354l8 176q-76 -98 -169.5 -149t-210.5 -51q-47 0 -86 12.5t-68 38.5t-45 66t-16 94q0 12 2.5 34.5t6.5 49t9 54.5t9 51l85 474l-116 24l13 66h386l-102 -568
q-4 -21 -8 -44t-7 -44t-5 -39t-2 -29zM738 1118l-317 268l7 37h265l137 -273l-6 -32h-86z" />
    <glyph glyph-name="uacute" unicode="&#xfa;" horiz-adv-x="1139" 
d="M350 216q0 -97 91 -97q34 0 72 20.5t74 53t66 73t47 81.5l106 593h266l-148 -849l109 -25l-13 -66h-354l8 176q-76 -98 -169.5 -149t-210.5 -51q-47 0 -86 12.5t-68 38.5t-45 66t-16 94q0 12 2.5 34.5t6.5 49t9 54.5t9 51l85 474l-116 24l13 66h386l-102 -568
q-4 -21 -8 -44t-7 -44t-5 -39t-2 -29zM503 1118l6 33l196 272h285l-4 -37l-397 -268h-86z" />
    <glyph glyph-name="ucircumflex" unicode="&#xfb;" horiz-adv-x="1139" 
d="M350 216q0 -97 91 -97q34 0 72 20.5t74 53t66 73t47 81.5l106 593h266l-148 -849l109 -25l-13 -66h-354l8 176q-76 -98 -169.5 -149t-210.5 -51q-47 0 -86 12.5t-68 38.5t-45 66t-16 94q0 12 2.5 34.5t6.5 49t9 54.5t9 51l85 474l-116 24l13 66h386l-102 -568
q-4 -21 -8 -44t-7 -44t-5 -39t-2 -29zM339 1118l6 33l269 293h213l166 -293l-6 -33h-76l-220 162l-276 -162h-76z" />
    <glyph glyph-name="udieresis" unicode="&#xfc;" horiz-adv-x="1139" 
d="M350 216q0 -97 91 -97q34 0 72 20.5t74 53t66 73t47 81.5l106 593h266l-148 -849l109 -25l-13 -66h-354l8 176q-76 -98 -169.5 -149t-210.5 -51q-47 0 -86 12.5t-68 38.5t-45 66t-16 94q0 12 2.5 34.5t6.5 49t9 54.5t9 51l85 474l-116 24l13 66h386l-102 -568
q-4 -21 -8 -44t-7 -44t-5 -39t-2 -29zM849 1130q-25 0 -47 10t-38.5 26.5t-26 38.5t-9.5 46q0 25 9.5 46.5t26 37.5t38.5 25.5t47 9.5t47 -9.5t38 -25.5t25 -37.5t9 -46.5q0 -24 -9 -46t-25 -38.5t-38 -26.5t-47 -10zM493 1130q-24 0 -46 10t-38.5 26.5t-26.5 38.5t-10 46
q0 25 10 46.5t26.5 37.5t38.5 25.5t46 9.5q25 0 46.5 -9.5t37.5 -25.5t25.5 -37.5t9.5 -46.5q0 -24 -9 -46t-25 -38.5t-38 -26.5t-47 -10z" />
    <glyph glyph-name="yacute" unicode="&#xfd;" horiz-adv-x="909" 
d="M915 877q0 -16 -3 -37t-12 -48t-25 -61t-41 -74l-439 -716q-49 -80 -98 -150t-101.5 -121.5t-111.5 -81.5t-128 -30q-28 0 -48.5 1t-38.5 3.5t-35.5 6t-38.5 8.5l42 242h60l20 -126q12 -11 28.5 -17t41.5 -6q37 0 74 23.5t73 62t70.5 88.5t67.5 104l28 47l-214 855
l-61 24l11 66h303l152 -639l181 300q14 23 25.5 48t20 49t13.5 45.5t5 37.5q0 25 -7.5 41t-20 26.5t-29 16t-33.5 10.5l12 65h231q9 -8 17.5 -25t8.5 -38zM407 1118l6 33l196 272h285l-4 -37l-397 -268h-86z" />
    <glyph glyph-name="thorn" unicode="&#xfe;" 
d="M956 631q0 -129 -35.5 -247t-102 -207.5t-162 -143t-214.5 -53.5q-22 0 -46 3t-47 7.5t-43 10.5t-33 12q-1 -12 -2.5 -29.5t-3.5 -35.5t-4.5 -34t-3.5 -25l-38 -236l160 -24l-12 -65h-536l12 65l104 24l297 1683l-99 25l12 60h370l-76 -432q-10 -56 -21.5 -108t-22.5 -90
q27 40 61 72.5t73 55t81 34.5t85 12q53 0 98.5 -21.5t78.5 -63.5t51.5 -104.5t18.5 -144.5zM693 587q0 62 -10.5 105t-27 70t-37.5 39t-42 12q-17 0 -38.5 -10.5t-45.5 -29t-48.5 -44t-45.5 -55.5l-97 -547q12 -12 29.5 -21t35.5 -15t35 -9t29 -3q59 0 107.5 44t83 116
t53.5 163t19 185z" />
    <glyph glyph-name="ydieresis" unicode="&#xff;" horiz-adv-x="909" 
d="M915 877q0 -16 -3 -37t-12 -48t-25 -61t-41 -74l-439 -716q-49 -80 -98 -150t-101.5 -121.5t-111.5 -81.5t-128 -30q-28 0 -48.5 1t-38.5 3.5t-35.5 6t-38.5 8.5l42 242h60l20 -126q12 -11 28.5 -17t41.5 -6q37 0 74 23.5t73 62t70.5 88.5t67.5 104l28 47l-214 855
l-61 24l11 66h303l152 -639l181 300q14 23 25.5 48t20 49t13.5 45.5t5 37.5q0 25 -7.5 41t-20 26.5t-29 16t-33.5 10.5l12 65h231q9 -8 17.5 -25t8.5 -38zM715 1130q-25 0 -47 10t-38.5 26.5t-26 38.5t-9.5 46q0 25 9.5 46.5t26 37.5t38.5 25.5t47 9.5t47 -9.5t38 -25.5
t25 -37.5t9 -46.5q0 -24 -9 -46t-25 -38.5t-38 -26.5t-47 -10zM359 1130q-24 0 -46 10t-38.5 26.5t-26.5 38.5t-10 46q0 25 10 46.5t26.5 37.5t38.5 25.5t46 9.5q25 0 46.5 -9.5t37.5 -25.5t25.5 -37.5t9.5 -46.5q0 -24 -9 -46t-25 -38.5t-38 -26.5t-47 -10z" />
    <glyph glyph-name="Amacron" unicode="&#x100;" horiz-adv-x="1366" 
d="M302 73l-14 -73h-394l14 73l103 27l668 1252h240l254 -1252l109 -27l-14 -73h-549l14 73l138 27l-61 347h-472l-184 -347zM689 1118l-295 -561h396zM477 1485l26 150h628l-26 -150h-628z" />
    <glyph glyph-name="amacron" unicode="&#x101;" 
d="M823 90l109 -32l-8 -58h-347l-4 138q-27 -34 -59.5 -63t-69 -50.5t-76 -33.5t-80.5 -12q-58 0 -106.5 21t-83.5 63.5t-54.5 106.5t-19.5 149q0 129 40.5 246t114.5 205.5t178 141t231 52.5q72 0 136.5 -12.5t114.5 -32.5l82 37h54zM287 351q0 -58 10.5 -100.5t28 -70
t39 -40.5t43.5 -13q23 0 47.5 12.5t48 33t44.5 45t37 48.5l99 563q-21 16 -55 25t-69 9q-61 0 -111.5 -45t-86.5 -118t-55.5 -164.5t-19.5 -184.5zM314 1151l26 150h628l-26 -150h-628z" />
    <glyph glyph-name="Abreve" unicode="&#x102;" horiz-adv-x="1366" 
d="M302 73l-14 -73h-394l14 73l103 27l668 1252h240l254 -1252l109 -27l-14 -73h-549l14 73l138 27l-61 347h-472l-184 -347zM689 1118l-295 -561h396zM792 1452q-66 0 -113 18t-77.5 50t-45 77.5t-14.5 99.5q0 37 6 78h121q4 -72 47.5 -101.5t109.5 -29.5t120 29.5
t83 101.5h121q-14 -70 -43 -129t-73 -102t-104.5 -67.5t-137.5 -24.5z" />
    <glyph glyph-name="abreve" unicode="&#x103;" 
d="M823 90l109 -32l-8 -58h-347l-4 138q-27 -34 -59.5 -63t-69 -50.5t-76 -33.5t-80.5 -12q-58 0 -106.5 21t-83.5 63.5t-54.5 106.5t-19.5 149q0 129 40.5 246t114.5 205.5t178 141t231 52.5q72 0 136.5 -12.5t114.5 -32.5l82 37h54zM287 351q0 -58 10.5 -100.5t28 -70
t39 -40.5t43.5 -13q23 0 47.5 12.5t48 33t44.5 45t37 48.5l99 563q-21 16 -55 25t-69 9q-61 0 -111.5 -45t-86.5 -118t-55.5 -164.5t-19.5 -184.5zM571 1118q-66 0 -113 18t-77.5 50t-45 77.5t-14.5 99.5q0 37 6 78h121q4 -72 47.5 -101.5t109.5 -29.5t120 29.5t83 101.5
h121q-14 -70 -43 -129t-73 -102t-104.5 -67.5t-137.5 -24.5z" />
    <glyph glyph-name="Aogonek" unicode="&#x104;" horiz-adv-x="1366" 
d="M302 73l-14 -73h-394l14 73l103 27l668 1252h240l254 -1252l109 -27l-14 -73h-549l14 73l138 27l-61 347h-472l-184 -347zM689 1118l-295 -561h396zM996 -430q-109 0 -167 51t-58 150q0 34 9.5 69t26.5 67.5t40.5 60t51.5 46.5h132q-32 -49 -53 -108t-21 -113
q0 -55 26 -84t78 -29q23 0 53 7t57 19l30 -83q-40 -23 -92.5 -38t-112.5 -15z" />
    <glyph glyph-name="aogonek" unicode="&#x105;" 
d="M823 90l109 -32l-8 -58h-347l-4 138q-27 -34 -59.5 -63t-69 -50.5t-76 -33.5t-80.5 -12q-58 0 -106.5 21t-83.5 63.5t-54.5 106.5t-19.5 149q0 129 40.5 246t114.5 205.5t178 141t231 52.5q72 0 136.5 -12.5t114.5 -32.5l82 37h54zM287 351q0 -58 10.5 -100.5t28 -70
t39 -40.5t43.5 -13q23 0 47.5 12.5t48 33t44.5 45t37 48.5l99 563q-21 16 -55 25t-69 9q-61 0 -111.5 -45t-86.5 -118t-55.5 -164.5t-19.5 -184.5zM690 -430q-109 0 -167 51t-58 150q0 34 9.5 69t26.5 67.5t40.5 60t51.5 46.5h132q-32 -49 -53 -108t-21 -113q0 -55 26 -84
t78 -29q23 0 53 7t57 19l30 -83q-40 -23 -92.5 -38t-112.5 -15z" />
    <glyph glyph-name="Cacute" unicode="&#x106;" horiz-adv-x="1366" 
d="M670 -20q-147 0 -259 39.5t-187.5 112t-114.5 174t-39 225.5q0 193 62.5 346.5t174.5 259.5t266.5 162.5t338.5 56.5q148 0 263 -16t210 -36l-53 -337h-84v194q-54 43 -130.5 66.5t-160.5 23.5q-123 0 -228 -51.5t-182 -147t-120.5 -230t-43.5 -300.5q0 -95 21 -175.5
t64 -139t109 -91.5t157 -33q55 0 107.5 8.5t99 22.5t85 32t65.5 38l77 220h85l-66 -340q-49 -16 -109.5 -31t-127.5 -27t-138 -19t-142 -7zM753 1452l6 33l196 272h285l-4 -37l-397 -268h-86z" />
    <glyph glyph-name="cacute" unicode="&#x107;" horiz-adv-x="909" 
d="M391 -20q-90 0 -158 25.5t-113 72t-67.5 110.5t-22.5 142q0 156 48.5 275t127 199t178 120.5t201.5 40.5q40 0 82 -4t81.5 -10.5t73.5 -14.5t57 -16l-49 -288h-72l-14 171q-25 28 -60.5 44t-85.5 16q-58 0 -112 -38.5t-96 -107.5t-67 -165t-25 -212q0 -63 13.5 -108
t36.5 -73.5t55 -41.5t68 -13q75 0 136.5 27t118.5 67l44 -63q-27 -24 -66 -51t-87.5 -50t-105.5 -38.5t-120 -15.5zM479 1118l6 33l196 272h285l-4 -37l-397 -268h-86z" />
    <glyph glyph-name="Ccircumflex" unicode="&#x108;" horiz-adv-x="1366" 
d="M670 -20q-147 0 -259 39.5t-187.5 112t-114.5 174t-39 225.5q0 193 62.5 346.5t174.5 259.5t266.5 162.5t338.5 56.5q148 0 263 -16t210 -36l-53 -337h-84v194q-54 43 -130.5 66.5t-160.5 23.5q-123 0 -228 -51.5t-182 -147t-120.5 -230t-43.5 -300.5q0 -95 21 -175.5
t64 -139t109 -91.5t157 -33q55 0 107.5 8.5t99 22.5t85 32t65.5 38l77 220h85l-66 -340q-49 -16 -109.5 -31t-127.5 -27t-138 -19t-142 -7zM573 1452l6 33l269 293h213l166 -293l-6 -33h-76l-220 162l-276 -162h-76z" />
    <glyph glyph-name="ccircumflex" unicode="&#x109;" horiz-adv-x="909" 
d="M391 -20q-90 0 -158 25.5t-113 72t-67.5 110.5t-22.5 142q0 156 48.5 275t127 199t178 120.5t201.5 40.5q40 0 82 -4t81.5 -10.5t73.5 -14.5t57 -16l-49 -288h-72l-14 171q-25 28 -60.5 44t-85.5 16q-58 0 -112 -38.5t-96 -107.5t-67 -165t-25 -212q0 -63 13.5 -108
t36.5 -73.5t55 -41.5t68 -13q75 0 136.5 27t118.5 67l44 -63q-27 -24 -66 -51t-87.5 -50t-105.5 -38.5t-120 -15.5zM295 1118l6 33l269 293h213l166 -293l-6 -33h-76l-220 162l-276 -162h-76z" />
    <glyph glyph-name="Cdotaccent" unicode="&#x10a;" horiz-adv-x="1366" 
d="M670 -20q-147 0 -259 39.5t-187.5 112t-114.5 174t-39 225.5q0 193 62.5 346.5t174.5 259.5t266.5 162.5t338.5 56.5q148 0 263 -16t210 -36l-53 -337h-84v194q-54 43 -130.5 66.5t-160.5 23.5q-123 0 -228 -51.5t-182 -147t-120.5 -230t-43.5 -300.5q0 -95 21 -175.5
t64 -139t109 -91.5t157 -33q55 0 107.5 8.5t99 22.5t85 32t65.5 38l77 220h85l-66 -340q-49 -16 -109.5 -31t-127.5 -27t-138 -19t-142 -7zM772 1602q0 32 12 60t33 48.5t49 32.5t60 12t60 -12t48.5 -32.5t32.5 -48.5t12 -60t-12 -60t-32.5 -49t-48.5 -33t-60 -12t-60 12
t-49 33t-33 49t-12 60z" />
    <glyph glyph-name="cdotaccent" unicode="&#x10b;" horiz-adv-x="909" 
d="M391 -20q-90 0 -158 25.5t-113 72t-67.5 110.5t-22.5 142q0 156 48.5 275t127 199t178 120.5t201.5 40.5q40 0 82 -4t81.5 -10.5t73.5 -14.5t57 -16l-49 -288h-72l-14 171q-25 28 -60.5 44t-85.5 16q-58 0 -112 -38.5t-96 -107.5t-67 -165t-25 -212q0 -63 13.5 -108
t36.5 -73.5t55 -41.5t68 -13q75 0 136.5 27t118.5 67l44 -63q-27 -24 -66 -51t-87.5 -50t-105.5 -38.5t-120 -15.5zM461 1268q0 32 12 60t33 48.5t49 32.5t60 12t60 -12t48.5 -32.5t32.5 -48.5t12 -60t-12 -60t-32.5 -49t-48.5 -33t-60 -12t-60 12t-49 33t-33 49t-12 60z
" />
    <glyph glyph-name="Ccaron" unicode="&#x10c;" horiz-adv-x="1366" 
d="M670 -20q-147 0 -259 39.5t-187.5 112t-114.5 174t-39 225.5q0 193 62.5 346.5t174.5 259.5t266.5 162.5t338.5 56.5q148 0 263 -16t210 -36l-53 -337h-84v194q-54 43 -130.5 66.5t-160.5 23.5q-123 0 -228 -51.5t-182 -147t-120.5 -230t-43.5 -300.5q0 -95 21 -175.5
t64 -139t109 -91.5t157 -33q55 0 107.5 8.5t99 22.5t85 32t65.5 38l77 220h85l-66 -340q-49 -16 -109.5 -31t-127.5 -27t-138 -19t-142 -7zM1281 1778l-6 -33l-269 -293h-213l-166 293l6 33h76l220 -162l276 162h76z" />
    <glyph glyph-name="ccaron" unicode="&#x10d;" horiz-adv-x="909" 
d="M391 -20q-90 0 -158 25.5t-113 72t-67.5 110.5t-22.5 142q0 156 48.5 275t127 199t178 120.5t201.5 40.5q40 0 82 -4t81.5 -10.5t73.5 -14.5t57 -16l-49 -288h-72l-14 171q-25 28 -60.5 44t-85.5 16q-58 0 -112 -38.5t-96 -107.5t-67 -165t-25 -212q0 -63 13.5 -108
t36.5 -73.5t55 -41.5t68 -13q75 0 136.5 27t118.5 67l44 -63q-27 -24 -66 -51t-87.5 -50t-105.5 -38.5t-120 -15.5zM979 1444l-6 -33l-269 -293h-213l-166 293l6 33h76l220 -162l276 162h76z" />
    <glyph glyph-name="Dcaron" unicode="&#x10e;" horiz-adv-x="1479" 
d="M1120 774q0 125 -30 212t-84.5 141.5t-131 79t-169.5 24.5h-37l-197 -1117q32 -3 61.5 -5.5t62.5 -2.5q125 0 222.5 47.5t165 135t102.5 210.5t35 275zM742 1341q168 0 296.5 -36t215.5 -106.5t132 -173.5t45 -237q0 -179 -57 -325t-164.5 -250t-262 -160.5t-348.5 -56.5
q-118 0 -228 2t-191 2h-195l12 73l177 27l201 1142l-167 26l13 73h521zM1195 1778l-6 -33l-269 -293h-213l-166 293l6 33h76l220 -162l276 162h76z" />
    <glyph glyph-name="dcaron" unicode="&#x10f;" horiz-adv-x="1533" 
d="M276 -20q-53 0 -99 21t-80 62t-53.5 103t-19.5 144q0 129 35.5 247.5t101.5 208.5t159 144t208 54q22 0 47 -2t48.5 -5.5t44 -9t34.5 -11.5q1 12 2.5 29.5t3.5 35.5t4 34t4 25l46 272l-160 24l12 65h435l-237 -1336l99 -25l-12 -60h-332l-7 144q-27 -36 -60 -66.5
t-70 -52t-76 -33.5t-78 -12zM287 354q0 -60 8.5 -103t23 -70t33 -40t38.5 -13q19 0 42.5 10.5t48.5 29t50 44t46 55.5l97 550q-12 12 -30 21t-37.5 15t-37 9t-29.5 3q-56 0 -102.5 -45t-80 -118t-52 -164t-18.5 -184zM1384 1421q30 0 58 -8.5t49.5 -27t34.5 -47t13 -68.5
q0 -70 -29.5 -129t-85 -107t-136 -84t-182.5 -61l15 80q60 15 100.5 36t65 43.5t35 44t10.5 37.5q0 25 -16 42.5t-35.5 34.5t-35.5 38t-16 53q0 34 13 57.5t34.5 38t49.5 21t58 6.5z" />
    <glyph glyph-name="Dcroat" unicode="&#x110;" horiz-adv-x="1479" 
d="M1431 788q0 -179 -57 -325t-164.5 -250t-262 -160.5t-348.5 -56.5q-118 0 -228 2t-191 2h-195l12 73l177 27l89 509h-172l22 122h172l90 511l-167 26l13 73h521q168 0 296.5 -36t215.5 -106.5t132 -173.5t45 -237zM1120 774q0 125 -30 212t-84.5 141.5t-131 79
t-169.5 24.5h-37l-88 -500h257l-21 -122h-258l-87 -495q32 -3 61.5 -5.5t62.5 -2.5q125 0 222.5 47.5t165 135t102.5 210.5t35 275z" />
    <glyph glyph-name="dcroat" unicode="&#x111;" 
d="M991 1099l-179 -1014l99 -25l-12 -60h-332l-7 144q-27 -36 -60 -66.5t-70 -52t-76 -33.5t-78 -12q-53 0 -99 21t-80 62t-53.5 103t-19.5 144q0 129 35.5 247.5t101.5 208.5t159 144t208 54q22 0 47 -2t48.5 -5.5t44 -9t34.5 -11.5q1 12 2.5 29.5t3.5 35.5t4 34t4 25l6 39
h-210l18 103h211l22 130l-161 24l12 65h435l-39 -219h101l-18 -103h-102zM674 817q-12 12 -30 21t-37.5 15t-37 9t-29.5 3q-56 0 -102.5 -45t-80 -118t-52 -164t-18.5 -184q0 -60 9.5 -103t24.5 -70t34.5 -40t39.5 -13q16 0 38.5 10.5t47.5 29t50 44t46 55.5z" />
    <glyph glyph-name="Emacron" unicode="&#x112;" horiz-adv-x="1366" 
d="M-3 73l177 27l201 1142l-167 26l13 73h1052l-60 -341h-91l6 217q-31 4 -72.5 7t-86 4.5t-87 2t-75.5 0.5h-138l-87 -492h281l57 148h89l-73 -412h-89l-4 152h-281l-91 -517h183q62 0 116.5 1.5t98.5 3.5t75.5 5t47.5 6l103 248h91l-84 -374h-1117zM467 1485l26 150h628
l-26 -150h-628z" />
    <glyph glyph-name="emacron" unicode="&#x113;" horiz-adv-x="909" 
d="M864 760q0 -65 -36 -124.5t-105 -106.5t-169 -79t-229 -42q-1 -4 -2 -12.5t-1.5 -18t-1 -20t-0.5 -17.5q0 -45 8 -87.5t28 -75.5t55.5 -53t89.5 -20q74 0 137 28.5t118 65.5l44 -63q-31 -26 -73 -53.5t-92 -50t-107 -37t-117 -14.5q-94 0 -162.5 24.5t-113 69.5t-66 110
t-21.5 146q0 89 19.5 170.5t55 152t83.5 128t105.5 98.5t121.5 63.5t130 22.5q73 0 129 -15.5t94.5 -43t58 -65t19.5 -81.5zM341 508q67 7 119 32.5t87.5 62t54 81t18.5 89.5q0 42 -20.5 63t-48.5 21q-38 0 -71.5 -30t-61 -79t-47.5 -111.5t-30 -128.5zM265 1151l26 150h628
l-26 -150h-628z" />
    <glyph glyph-name="Ebreve" unicode="&#x114;" horiz-adv-x="1366" 
d="M-3 73l177 27l201 1142l-167 26l13 73h1052l-60 -341h-91l6 217q-31 4 -72.5 7t-86 4.5t-87 2t-75.5 0.5h-138l-87 -492h281l57 148h89l-73 -412h-89l-4 152h-281l-91 -517h183q62 0 116.5 1.5t98.5 3.5t75.5 5t47.5 6l103 248h91l-84 -374h-1117zM795 1452
q-66 0 -113 18t-77.5 50t-45 77.5t-14.5 99.5q0 37 6 78h121q4 -72 47.5 -101.5t109.5 -29.5t120 29.5t83 101.5h121q-14 -70 -43 -129t-73 -102t-104.5 -67.5t-137.5 -24.5z" />
    <glyph glyph-name="ebreve" unicode="&#x115;" horiz-adv-x="909" 
d="M864 760q0 -65 -36 -124.5t-105 -106.5t-169 -79t-229 -42q-1 -4 -2 -12.5t-1.5 -18t-1 -20t-0.5 -17.5q0 -45 8 -87.5t28 -75.5t55.5 -53t89.5 -20q74 0 137 28.5t118 65.5l44 -63q-31 -26 -73 -53.5t-92 -50t-107 -37t-117 -14.5q-94 0 -162.5 24.5t-113 69.5t-66 110
t-21.5 146q0 89 19.5 170.5t55 152t83.5 128t105.5 98.5t121.5 63.5t130 22.5q73 0 129 -15.5t94.5 -43t58 -65t19.5 -81.5zM341 508q67 7 119 32.5t87.5 62t54 81t18.5 89.5q0 42 -20.5 63t-48.5 21q-38 0 -71.5 -30t-61 -79t-47.5 -111.5t-30 -128.5zM567 1118
q-66 0 -113 18t-77.5 50t-45 77.5t-14.5 99.5q0 37 6 78h121q4 -72 47.5 -101.5t109.5 -29.5t120 29.5t83 101.5h121q-14 -70 -43 -129t-73 -102t-104.5 -67.5t-137.5 -24.5z" />
    <glyph glyph-name="Edotaccent" unicode="&#x116;" horiz-adv-x="1366" 
d="M-3 73l177 27l201 1142l-167 26l13 73h1052l-60 -341h-91l6 217q-31 4 -72.5 7t-86 4.5t-87 2t-75.5 0.5h-138l-87 -492h281l57 148h89l-73 -412h-89l-4 152h-281l-91 -517h183q62 0 116.5 1.5t98.5 3.5t75.5 5t47.5 6l103 248h91l-84 -374h-1117zM643 1602q0 32 12 60
t33 48.5t49 32.5t60 12t60 -12t48.5 -32.5t32.5 -48.5t12 -60t-12 -60t-32.5 -49t-48.5 -33t-60 -12t-60 12t-49 33t-33 49t-12 60z" />
    <glyph glyph-name="edotaccent" unicode="&#x117;" horiz-adv-x="909" 
d="M864 760q0 -65 -36 -124.5t-105 -106.5t-169 -79t-229 -42q-1 -4 -2 -12.5t-1.5 -18t-1 -20t-0.5 -17.5q0 -45 8 -87.5t28 -75.5t55.5 -53t89.5 -20q74 0 137 28.5t118 65.5l44 -63q-31 -26 -73 -53.5t-92 -50t-107 -37t-117 -14.5q-94 0 -162.5 24.5t-113 69.5t-66 110
t-21.5 146q0 89 19.5 170.5t55 152t83.5 128t105.5 98.5t121.5 63.5t130 22.5q73 0 129 -15.5t94.5 -43t58 -65t19.5 -81.5zM341 508q67 7 119 32.5t87.5 62t54 81t18.5 89.5q0 42 -20.5 63t-48.5 21q-38 0 -71.5 -30t-61 -79t-47.5 -111.5t-30 -128.5zM443 1268q0 32 12 60
t33 48.5t49 32.5t60 12t60 -12t48.5 -32.5t32.5 -48.5t12 -60t-12 -60t-32.5 -49t-48.5 -33t-60 -12t-60 12t-49 33t-33 49t-12 60z" />
    <glyph glyph-name="Eogonek" unicode="&#x118;" horiz-adv-x="1366" 
d="M-3 73l177 27l201 1142l-167 26l13 73h1052l-60 -341h-91l6 217q-31 4 -72.5 7t-86 4.5t-87 2t-75.5 0.5h-138l-87 -492h281l57 148h89l-73 -412h-89l-4 152h-281l-91 -517h183q62 0 116.5 1.5t98.5 3.5t75.5 5t47.5 6l103 248h91l-84 -374h-1117zM905 -430
q-109 0 -167 51t-58 150q0 34 9.5 69t26.5 67.5t40.5 60t51.5 46.5h132q-32 -49 -53 -108t-21 -113q0 -55 26 -84t78 -29q23 0 53 7t57 19l30 -83q-40 -23 -92.5 -38t-112.5 -15z" />
    <glyph glyph-name="eogonek" unicode="&#x119;" horiz-adv-x="909" 
d="M864 760q0 -65 -36 -124.5t-105 -106.5t-169 -79t-229 -42q-1 -4 -2 -12.5t-1.5 -18t-1 -20t-0.5 -17.5q0 -45 8 -87.5t28 -75.5t55.5 -53t89.5 -20q74 0 137 28.5t118 65.5l44 -63q-31 -26 -73 -53.5t-92 -50t-107 -37t-117 -14.5q-94 0 -162.5 24.5t-113 69.5t-66 110
t-21.5 146q0 89 19.5 170.5t55 152t83.5 128t105.5 98.5t121.5 63.5t130 22.5q73 0 129 -15.5t94.5 -43t58 -65t19.5 -81.5zM341 508q67 7 119 32.5t87.5 62t54 81t18.5 89.5q0 42 -20.5 63t-48.5 21q-38 0 -71.5 -30t-61 -79t-47.5 -111.5t-30 -128.5zM561 -430
q-109 0 -167 51t-58 150q0 34 9.5 69t26.5 67.5t40.5 60t51.5 46.5h132q-32 -49 -53 -108t-21 -113q0 -55 26 -84t78 -29q23 0 53 7t57 19l30 -83q-40 -23 -92.5 -38t-112.5 -15z" />
    <glyph glyph-name="Ecaron" unicode="&#x11a;" horiz-adv-x="1366" 
d="M-3 73l177 27l201 1142l-167 26l13 73h1052l-60 -341h-91l6 217q-31 4 -72.5 7t-86 4.5t-87 2t-75.5 0.5h-138l-87 -492h281l57 148h89l-73 -412h-89l-4 152h-281l-91 -517h183q62 0 116.5 1.5t98.5 3.5t75.5 5t47.5 6l103 248h91l-84 -374h-1117zM1147 1778l-6 -33
l-269 -293h-213l-166 293l6 33h76l220 -162l276 162h76z" />
    <glyph glyph-name="ecaron" unicode="&#x11b;" horiz-adv-x="909" 
d="M864 760q0 -65 -36 -124.5t-105 -106.5t-169 -79t-229 -42q-1 -4 -2 -12.5t-1.5 -18t-1 -20t-0.5 -17.5q0 -45 8 -87.5t28 -75.5t55.5 -53t89.5 -20q74 0 137 28.5t118 65.5l44 -63q-31 -26 -73 -53.5t-92 -50t-107 -37t-117 -14.5q-94 0 -162.5 24.5t-113 69.5t-66 110
t-21.5 146q0 89 19.5 170.5t55 152t83.5 128t105.5 98.5t121.5 63.5t130 22.5q73 0 129 -15.5t94.5 -43t58 -65t19.5 -81.5zM341 508q67 7 119 32.5t87.5 62t54 81t18.5 89.5q0 42 -20.5 63t-48.5 21q-38 0 -71.5 -30t-61 -79t-47.5 -111.5t-30 -128.5zM947 1444l-6 -33
l-269 -293h-213l-166 293l6 33h76l220 -162l276 162h76z" />
    <glyph glyph-name="Gcircumflex" unicode="&#x11c;" horiz-adv-x="1479" 
d="M70 523q0 201 65.5 356t180.5 261t271 161t337 55q138 0 253 -16.5t222 -45.5l-55 -308h-84l1 174q-58 44 -138.5 67.5t-181.5 23.5q-112 0 -213.5 -49t-178.5 -143.5t-122.5 -234.5t-45.5 -321q0 -105 24 -184t67 -131.5t103 -78.5t133 -26q77 0 139.5 14.5t97.5 28.5
l68 380l-167 32l12 68h598l-12 -68l-136 -32l-77 -436q-67 -21 -133 -37.5t-135.5 -28.5t-144 -18t-156.5 -6q-142 0 -252.5 37.5t-186 108t-114.5 171t-39 226.5zM573 1452l6 33l269 293h213l166 -293l-6 -33h-76l-220 162l-276 -162h-76z" />
    <glyph glyph-name="gcircumflex" unicode="&#x11d;" 
d="M292 355q0 -60 10 -103t26.5 -70t37 -40t41.5 -13q35 0 82.5 35t92.5 95l107 582q-26 11 -56.5 18t-72.5 7q-62 0 -111.5 -45t-84 -118t-53.5 -164t-19 -184zM29 311q0 86 16.5 168t47.5 154.5t76.5 133.5t104 105t129 68.5t152.5 24.5q48 0 101 -3.5t106.5 -9.5
t106.5 -13.5t101 -15.5l-172 -958q-20 -108 -62 -184.5t-105.5 -124.5t-148 -70t-188.5 -22q-51 0 -101 6t-94 16t-79.5 23t-57.5 26l22 253h56l36 -131q36 -37 93 -60.5t126 -23.5q58 0 97.5 18t66 51t41.5 79.5t25 103.5q3 18 8 45t11 57t13 61t15 57q-28 -36 -61.5 -67
t-70.5 -53.5t-75.5 -35t-76.5 -12.5q-55 0 -102 21.5t-82 63.5t-55 104.5t-20 144.5zM251 1118l6 33l269 293h213l166 -293l-6 -33h-76l-220 162l-276 -162h-76z" />
    <glyph glyph-name="Gbreve" unicode="&#x11e;" horiz-adv-x="1479" 
d="M70 523q0 201 65.5 356t180.5 261t271 161t337 55q138 0 253 -16.5t222 -45.5l-55 -308h-84l1 174q-58 44 -138.5 67.5t-181.5 23.5q-112 0 -213.5 -49t-178.5 -143.5t-122.5 -234.5t-45.5 -321q0 -105 24 -184t67 -131.5t103 -78.5t133 -26q77 0 139.5 14.5t97.5 28.5
l68 380l-167 32l12 68h598l-12 -68l-136 -32l-77 -436q-67 -21 -133 -37.5t-135.5 -28.5t-144 -18t-156.5 -6q-142 0 -252.5 37.5t-186 108t-114.5 171t-39 226.5zM896 1452q-66 0 -113 18t-77.5 50t-45 77.5t-14.5 99.5q0 37 6 78h121q4 -72 47.5 -101.5t109.5 -29.5
t120 29.5t83 101.5h121q-14 -70 -43 -129t-73 -102t-104.5 -67.5t-137.5 -24.5z" />
    <glyph glyph-name="gbreve" unicode="&#x11f;" 
d="M292 355q0 -60 10 -103t26.5 -70t37 -40t41.5 -13q35 0 82.5 35t92.5 95l107 582q-26 11 -56.5 18t-72.5 7q-62 0 -111.5 -45t-84 -118t-53.5 -164t-19 -184zM29 311q0 86 16.5 168t47.5 154.5t76.5 133.5t104 105t129 68.5t152.5 24.5q48 0 101 -3.5t106.5 -9.5
t106.5 -13.5t101 -15.5l-172 -958q-20 -108 -62 -184.5t-105.5 -124.5t-148 -70t-188.5 -22q-51 0 -101 6t-94 16t-79.5 23t-57.5 26l22 253h56l36 -131q36 -37 93 -60.5t126 -23.5q58 0 97.5 18t66 51t41.5 79.5t25 103.5q3 18 8 45t11 57t13 61t15 57q-28 -36 -61.5 -67
t-70.5 -53.5t-75.5 -35t-76.5 -12.5q-55 0 -102 21.5t-82 63.5t-55 104.5t-20 144.5zM589 1118q-66 0 -113 18t-77.5 50t-45 77.5t-14.5 99.5q0 37 6 78h121q4 -72 47.5 -101.5t109.5 -29.5t120 29.5t83 101.5h121q-14 -70 -43 -129t-73 -102t-104.5 -67.5t-137.5 -24.5z
" />
    <glyph glyph-name="Gdotaccent" unicode="&#x120;" horiz-adv-x="1479" 
d="M70 523q0 201 65.5 356t180.5 261t271 161t337 55q138 0 253 -16.5t222 -45.5l-55 -308h-84l1 174q-58 44 -138.5 67.5t-181.5 23.5q-112 0 -213.5 -49t-178.5 -143.5t-122.5 -234.5t-45.5 -321q0 -105 24 -184t67 -131.5t103 -78.5t133 -26q77 0 139.5 14.5t97.5 28.5
l68 380l-167 32l12 68h598l-12 -68l-136 -32l-77 -436q-67 -21 -133 -37.5t-135.5 -28.5t-144 -18t-156.5 -6q-142 0 -252.5 37.5t-186 108t-114.5 171t-39 226.5zM772 1602q0 32 12 60t33 48.5t49 32.5t60 12t60 -12t48.5 -32.5t32.5 -48.5t12 -60t-12 -60t-32.5 -49
t-48.5 -33t-60 -12t-60 12t-49 33t-33 49t-12 60z" />
    <glyph glyph-name="gdotaccent" unicode="&#x121;" 
d="M292 355q0 -60 10 -103t26.5 -70t37 -40t41.5 -13q35 0 82.5 35t92.5 95l107 582q-26 11 -56.5 18t-72.5 7q-62 0 -111.5 -45t-84 -118t-53.5 -164t-19 -184zM29 311q0 86 16.5 168t47.5 154.5t76.5 133.5t104 105t129 68.5t152.5 24.5q48 0 101 -3.5t106.5 -9.5
t106.5 -13.5t101 -15.5l-172 -958q-20 -108 -62 -184.5t-105.5 -124.5t-148 -70t-188.5 -22q-51 0 -101 6t-94 16t-79.5 23t-57.5 26l22 253h56l36 -131q36 -37 93 -60.5t126 -23.5q58 0 97.5 18t66 51t41.5 79.5t25 103.5q3 18 8 45t11 57t13 61t15 57q-28 -36 -61.5 -67
t-70.5 -53.5t-75.5 -35t-76.5 -12.5q-55 0 -102 21.5t-82 63.5t-55 104.5t-20 144.5zM450 1268q0 32 12 60t33 48.5t49 32.5t60 12t60 -12t48.5 -32.5t32.5 -48.5t12 -60t-12 -60t-32.5 -49t-48.5 -33t-60 -12t-60 12t-49 33t-33 49t-12 60z" />
    <glyph glyph-name="Gcommaaccent" unicode="&#x122;" horiz-adv-x="1479" 
d="M70 523q0 201 65.5 356t180.5 261t271 161t337 55q138 0 253 -16.5t222 -45.5l-55 -308h-84l1 174q-58 44 -138.5 67.5t-181.5 23.5q-112 0 -213.5 -49t-178.5 -143.5t-122.5 -234.5t-45.5 -321q0 -105 24 -184t67 -131.5t103 -78.5t133 -26q77 0 139.5 14.5t97.5 28.5
l68 380l-167 32l12 68h598l-12 -68l-136 -32l-77 -436q-67 -21 -133 -37.5t-135.5 -28.5t-144 -18t-156.5 -6q-142 0 -252.5 37.5t-186 108t-114.5 171t-39 226.5zM706 -72q28 0 53 -9.5t44.5 -28t31 -46t11.5 -62.5q0 -45 -17.5 -91.5t-61 -88.5t-117.5 -75t-186 -50l13 69
q56 13 90 29t52.5 32t24.5 32t6 30q0 20 -13.5 35t-29 31t-29 35.5t-13.5 48.5q0 20 8 39.5t25.5 35t44 25t63.5 9.5z" />
    <glyph glyph-name="gcommaaccent" unicode="&#x123;" 
d="M292 355q0 -60 10 -103t26.5 -70t37 -40t41.5 -13q35 0 82.5 35t92.5 95l107 582q-26 11 -56.5 18t-72.5 7q-62 0 -111.5 -45t-84 -118t-53.5 -164t-19 -184zM29 311q0 86 16.5 168t47.5 154.5t76.5 133.5t104 105t129 68.5t152.5 24.5q48 0 101 -3.5t106.5 -9.5
t106.5 -13.5t101 -15.5l-172 -958q-20 -108 -62 -184.5t-105.5 -124.5t-148 -70t-188.5 -22q-51 0 -101 6t-94 16t-79.5 23t-57.5 26l22 253h56l36 -131q36 -37 93 -60.5t126 -23.5q58 0 97.5 18t66 51t41.5 79.5t25 103.5q3 18 8 45t11 57t13 61t15 57q-28 -36 -61.5 -67
t-70.5 -53.5t-75.5 -35t-76.5 -12.5q-55 0 -102 21.5t-82 63.5t-55 104.5t-20 144.5zM602 1120q-28 0 -53 9.5t-44.5 28t-31 46t-11.5 62.5q0 45 17.5 91.5t61 88.5t117 75t186.5 50l-13 -69q-56 -14 -90 -29.5t-52.5 -31.5t-24.5 -32t-6 -30q0 -20 13.5 -35t29 -31t29 -36
t13.5 -48q0 -20 -8.5 -39.5t-25.5 -35t-43.5 -25t-63.5 -9.5z" />
    <glyph glyph-name="Hcircumflex" unicode="&#x124;" horiz-adv-x="1593" 
d="M-15 0l13 74l176 26l201 1141l-167 27l13 73h639l-13 -73l-177 -27l-87 -496h488l87 496l-167 27l13 73h641l-13 -73l-178 -27l-201 -1141l168 -26l-13 -74h-641l13 74l177 26l94 535h-488l-94 -535l167 -26l-13 -74h-638zM628 1452l6 33l269 293h213l166 -293l-6 -33
h-76l-220 162l-276 -162h-76z" />
    <glyph glyph-name="hcircumflex" unicode="&#x125;" horiz-adv-x="1139" 
d="M475 958q-4 -24 -10 -53.5t-11.5 -57t-10.5 -49.5t-7 -29q76 97 170.5 146.5t211.5 49.5q46 0 85.5 -13t68.5 -38.5t45 -62.5t16 -85q0 -18 -3 -43t-6.5 -51.5t-8 -50.5t-7.5 -41l-87 -490l116 -24l-13 -66h-386l102 569q4 21 8 44t7 44t5 39t2 29q0 97 -91 97
q-34 0 -72 -20.5t-74 -53t-66 -73.5t-47 -81l-106 -594h-266l234 1331l-91 24l11 66h365zM401 1502l6 33l269 293h213l166 -293l-6 -33h-76l-220 162l-276 -162h-76z" />
    <glyph glyph-name="Hbar" unicode="&#x126;" horiz-adv-x="1593" 
d="M-14 0l13 74l176 26l151 852h-172l18 110h172l32 179l-167 27l13 73h639l-13 -73l-177 -27l-32 -179h487l32 179l-167 27l13 73h641l-13 -73l-178 -27l-32 -179h173l-18 -110h-173l-151 -852l168 -26l-13 -74h-641l13 74l177 26l94 535h-487l-94 -535l167 -26l-13 -74
h-638zM1071 745l37 207h-487l-37 -207h487z" />
    <glyph glyph-name="hbar" unicode="&#x127;" horiz-adv-x="1139" 
d="M519 1202h255l-20 -103h-254l-25 -141q-4 -21 -9 -50.5t-9.5 -57.5t-9 -51t-6.5 -30q76 97 168 146.5t209 49.5q46 0 85.5 -12.5t68.5 -38.5t45 -66t16 -94q0 -12 -3 -34.5t-6.5 -48t-8 -50t-7.5 -41.5l-87 -490l116 -24l-13 -66h-386l102 569q4 21 8 44t7 44t5 39t2 29
q0 97 -91 97q-34 0 -72 -20.5t-74 -53t-66 -73.5t-47 -81l-106 -594h-266l193 1099h-144l20 103h142l23 129l-91 24l11 66h365z" />
    <glyph glyph-name="Itilde" unicode="&#x128;" horiz-adv-x="797" 
d="M464 100l167 -26l-13 -74h-638l13 74l176 26l201 1141l-167 27l13 73h639l-13 -73l-177 -27zM673 1424q-26 0 -48.5 6.5t-42 16t-36.5 22t-32 24.5q-10 8 -22 19t-25.5 21t-28 17t-28.5 7q-38 0 -59 -26t-40 -89h-99q13 56 34 108t52.5 91.5t76 63.5t106.5 24
q52 0 90.5 -21.5t69.5 -46.5q10 -8 22.5 -18.5t26 -20.5t28 -17t27.5 -7q37 0 58 25.5t41 86.5h99q-14 -56 -34.5 -107.5t-52.5 -91.5t-77 -63.5t-106 -23.5z" />
    <glyph glyph-name="itilde" unicode="&#x129;" horiz-adv-x="569" 
d="M332 90l119 -24l-11 -66h-393l150 850l-91 24l11 66h365zM488 1090q-26 0 -48.5 6.5t-42 16t-36.5 22t-32 24.5q-10 8 -22 19t-25.5 21t-28 17t-28.5 7q-38 0 -59 -26t-40 -89h-99q13 56 34 108t52.5 91.5t76 63.5t106.5 24q52 0 90.5 -21.5t69.5 -46.5q10 -8 22.5 -18.5
t26 -20.5t28 -17t27.5 -7q37 0 58 25.5t41 86.5h99q-14 -56 -34.5 -107.5t-52.5 -91.5t-77 -63.5t-106 -23.5z" />
    <glyph glyph-name="Imacron" unicode="&#x12a;" horiz-adv-x="797" 
d="M464 100l167 -26l-13 -74h-638l13 74l176 26l201 1141l-167 27l13 73h639l-13 -73l-177 -27zM259 1552l26 150h628l-26 -150h-628z" />
    <glyph glyph-name="imacron" unicode="&#x12b;" horiz-adv-x="569" 
d="M332 90l119 -24l-11 -66h-393l150 850l-91 24l11 66h365zM39 1151l26 150h628l-26 -150h-628z" />
    <glyph glyph-name="Ibreve" unicode="&#x12c;" horiz-adv-x="797" 
d="M464 100l167 -26l-13 -74h-638l13 74l176 26l201 1141l-167 27l13 73h639l-13 -73l-177 -27zM567 1519q-66 0 -113 18t-77.5 50t-45 77.5t-14.5 99.5q0 37 6 78h121q4 -72 47.5 -101.5t109.5 -29.5t120 29.5t83 101.5h121q-14 -70 -43 -129t-73 -102t-104.5 -67.5
t-137.5 -24.5z" />
    <glyph glyph-name="ibreve" unicode="&#x12d;" horiz-adv-x="569" 
d="M332 90l119 -24l-11 -66h-393l150 850l-91 24l11 66h365zM347 1118q-66 0 -113 18t-77.5 50t-45 77.5t-14.5 99.5q0 37 6 78h121q4 -72 47.5 -101.5t109.5 -29.5t120 29.5t83 101.5h121q-14 -70 -43 -129t-73 -102t-104.5 -67.5t-137.5 -24.5z" />
    <glyph glyph-name="Iogonek" unicode="&#x12e;" horiz-adv-x="797" 
d="M464 100l167 -26l-13 -74h-638l13 74l176 26l201 1141l-167 27l13 73h639l-13 -73l-177 -27zM346 -430q-109 0 -167 51t-58 150q0 34 9.5 69t26.5 67.5t40.5 60t51.5 46.5h132q-32 -49 -53 -108t-21 -113q0 -55 26 -84t78 -29q23 0 53 7t57 19l30 -83q-40 -23 -92.5 -38
t-112.5 -15z" />
    <glyph glyph-name="iogonek" unicode="&#x12f;" horiz-adv-x="569" 
d="M337 90l119 -24l-11 -66h-393l150 850l-91 24l11 66h365zM253 1268q0 32 12 60t33 48.5t49 32.5t60 12t60 -12t48.5 -32.5t32.5 -48.5t12 -60t-12 -60t-32.5 -49t-48.5 -33t-60 -12t-60 12t-49 33t-33 49t-12 60zM169 -430q-109 0 -167 51t-58 150q0 34 9.5 69t26.5 67.5
t40.5 60t51.5 46.5h132q-32 -49 -53 -108t-21 -113q0 -55 26 -84t78 -29q23 0 53 7t57 19l30 -83q-40 -23 -92.5 -38t-112.5 -15z" />
    <glyph glyph-name="Idotaccent" unicode="&#x130;" horiz-adv-x="797" 
d="M464 100l167 -26l-13 -74h-638l13 74l176 26l201 1141l-167 27l13 73h639l-13 -73l-177 -27zM433 1602q0 32 12 60t33 48.5t49 32.5t60 12t60 -12t48.5 -32.5t32.5 -48.5t12 -60t-12 -60t-32.5 -49t-48.5 -33t-60 -12t-60 12t-49 33t-33 49t-12 60z" />
    <glyph glyph-name="dotlessi" unicode="&#x131;" horiz-adv-x="569" 
d="M332 90l119 -24l-11 -66h-393l150 850l-91 24l11 66h365z" />
    <glyph glyph-name="IJ" unicode="&#x132;" horiz-adv-x="1685" 
d="M464 100l167 -26l-13 -74h-638l13 74l176 26l201 1141l-167 27l13 73h639l-13 -73l-177 -27zM1278 1242l-167 26l13 73h619l-13 -73l-157 -26l-142 -810q-24 -137 -79.5 -224.5t-127.5 -138t-154.5 -70t-160.5 -19.5q-69 0 -136 8t-112 22l54 304h83l4 -179
q15 -23 43 -36t70 -13q34 0 65.5 12t57 36t44 59.5t26.5 82.5z" />
    <glyph glyph-name="ij" unicode="&#x133;" horiz-adv-x="1131" 
d="M337 90l119 -24l-11 -66h-393l150 850l-91 24l11 66h365zM253 1268q0 32 12 60t33 48.5t49 32.5t60 12t60 -12t48.5 -32.5t32.5 -48.5t12 -60t-12 -60t-32.5 -49t-48.5 -33t-60 -12t-60 12t-49 33t-33 49t-12 60zM878 -39q-19 -106 -58 -181.5t-94.5 -123.5t-125.5 -70
t-150 -22q-45 0 -89 5t-79 13l39 225h63l24 -118q8 -6 19 -10.5t26 -4.5q22 0 43.5 13.5t41 43.5t36.5 78.5t29 119.5l161 911l-160 34l11 66h435zM818 1268q0 32 12 60t33 48.5t49 32.5t60 12t60 -12t48.5 -32.5t32.5 -48.5t12 -60t-12 -60t-32.5 -49t-48.5 -33t-60 -12
t-60 12t-49 33t-33 49t-12 60z" />
    <glyph glyph-name="Jcircumflex" unicode="&#x134;" 
d="M613 1242l-167 26l13 73h619l-13 -73l-157 -26l-142 -810q-24 -137 -79.5 -224.5t-127.5 -138t-154.5 -70t-160.5 -19.5q-69 0 -136 8t-112 22l54 304h83l4 -179q15 -23 43 -36t70 -13q34 0 65.5 12t57 36t44 59.5t26.5 82.5zM464 1452l6 33l269 293h213l166 -293l-6 -33
h-76l-220 162l-276 -162h-76z" />
    <glyph glyph-name="jcircumflex" unicode="&#x135;" horiz-adv-x="569" 
d="M328 -39q-19 -106 -58 -181.5t-94.5 -123.5t-125.5 -70t-150 -22q-45 0 -89 5t-79 13l39 225h63l23 -114q8 -8 17.5 -13.5t28.5 -5.5q22 0 43.5 13.5t41 43.5t36.5 78.5t29 119.5l161 911l-160 34l11 66h435zM34 1118l6 33l269 293h213l166 -293l-6 -33h-76l-220 162
l-276 -162h-76z" />
    <glyph glyph-name="Kcommaaccent" unicode="&#x136;" horiz-adv-x="1366" 
d="M469 100l178 -27l-12 -73h-650l12 73l177 27l201 1142l-167 26l13 73h629l-13 -73l-167 -26l-91 -524l576 524l-113 26l13 73h425l-13 -73l-139 -26l-473 -429l353 -713l134 -27l-12 -73h-386l-296 636l-93 -45zM703 -72q28 0 53 -9.5t44.5 -28t31 -46t11.5 -62.5
q0 -45 -17.5 -91.5t-61 -88.5t-117.5 -75t-186 -50l13 69q56 13 90 29t52.5 32t24.5 32t6 30q0 20 -13.5 35t-29 31t-29 35.5t-13.5 48.5q0 20 8 39.5t25.5 35t44 25t63.5 9.5z" />
    <glyph glyph-name="kcommaaccent" unicode="&#x137;" 
d="M388 507l351 344l-86 23l11 66h344l-11 -66l-92 -22l-243 -224l222 -538l80 -24l-11 -66h-314l-166 453l-108 -70l-68 -383h-269l235 1331l-92 24l12 66h365zM472 -72q28 0 53 -9.5t44.5 -28t31 -46t11.5 -62.5q0 -45 -17.5 -91.5t-61 -88.5t-117.5 -75t-186 -50l13 69
q56 13 90 29t52.5 32t24.5 32t6 30q0 20 -13.5 35t-29 31t-29 35.5t-13.5 48.5q0 20 8 39.5t25.5 35t44 25t63.5 9.5z" />
    <glyph glyph-name="kgreenlandic" unicode="&#x138;" 
d="M382 476l357 375l-86 23l11 66h344l-11 -66l-92 -22l-249 -255l238 -507l80 -24l-11 -66h-324l-176 420l-104 -66l-62 -354h-269l151 850l-92 24l12 66h365z" />
    <glyph glyph-name="Lacute" unicode="&#x139;" horiz-adv-x="1251" 
d="M872 1268l-202 -26l-200 -1136h113q52 0 111.5 2t112.5 5t94 6.5t57 6.5l117 279h84l-89 -405h-1085l12 73l177 27l201 1142l-166 26l13 73h663zM456 1452l6 33l196 272h285l-4 -37l-397 -268h-86z" />
    <glyph glyph-name="lacute" unicode="&#x13a;" horiz-adv-x="569" 
d="M330 90l119 -24l-11 -66h-393l236 1331l-91 24l11 66h365zM311 1502l6 33l196 272h285l-4 -37l-397 -268h-86z" />
    <glyph glyph-name="Lcommaaccent" unicode="&#x13b;" horiz-adv-x="1251" 
d="M872 1268l-202 -26l-200 -1136h113q52 0 111.5 2t112.5 5t94 6.5t57 6.5l117 279h84l-89 -405h-1085l12 73l177 27l201 1142l-166 26l13 73h663zM552 -72q28 0 53 -9.5t44.5 -28t31 -46t11.5 -62.5q0 -45 -17.5 -91.5t-61 -88.5t-117.5 -75t-186 -50l13 69q56 13 90 29
t52.5 32t24.5 32t6 30q0 20 -13.5 35t-29 31t-29 35.5t-13.5 48.5q0 20 8 39.5t25.5 35t44 25t63.5 9.5z" />
    <glyph glyph-name="lcommaaccent" unicode="&#x13c;" horiz-adv-x="569" 
d="M330 90l119 -24l-11 -66h-393l236 1331l-91 24l11 66h365zM176 -72q28 0 53 -9.5t44.5 -28t31 -46t11.5 -62.5q0 -45 -17.5 -91.5t-61 -88.5t-117.5 -75t-186 -50l13 69q56 13 90 29t52.5 32t24.5 32t6 30q0 20 -13.5 35t-29 31t-29 35.5t-13.5 48.5q0 20 8 39.5t25.5 35
t44 25t63.5 9.5z" />
    <glyph glyph-name="Lcaron" unicode="&#x13d;" horiz-adv-x="1251" 
d="M872 1268l-202 -26l-200 -1136h113q52 0 111.5 2t112.5 5t94 6.5t57 6.5l117 279h84l-89 -405h-1085l12 73l177 27l201 1142l-166 26l13 73h663zM1178 1362q30 0 58 -8.5t49.5 -27t34.5 -47t13 -68.5q0 -70 -29.5 -129t-85 -107t-136 -84t-182.5 -61l15 80
q60 15 100.5 36t65 43.5t35 44t10.5 37.5q0 25 -16 42.5t-35.5 34.5t-35.5 38t-16 53q0 34 13 57.5t34.5 38t49.5 21t58 6.5z" />
    <glyph glyph-name="lcaron" unicode="&#x13e;" horiz-adv-x="1067" 
d="M330 90l119 -24l-11 -66h-393l236 1331l-91 24l11 66h365zM918 1421q30 0 58 -8.5t49.5 -27t34.5 -47t13 -68.5q0 -70 -29.5 -129t-85 -107t-136 -84t-182.5 -61l15 80q60 15 100.5 36t65 43.5t35 44t10.5 37.5q0 25 -16 42.5t-35.5 34.5t-35.5 38t-16 53q0 34 13 57.5
t34.5 38t49.5 21t58 6.5z" />
    <glyph glyph-name="Ldot" unicode="&#x13f;" horiz-adv-x="1251" 
d="M872 1268l-202 -26l-200 -1136h113q52 0 111.5 2t112.5 5t94 6.5t57 6.5l117 279h84l-89 -405h-1085l12 73l177 27l201 1142l-166 26l13 73h663zM765 691q0 32 12 60t33 48.5t49 32.5t60 12t60 -12t48.5 -32.5t32.5 -48.5t12 -60t-12 -60t-32.5 -49t-48.5 -33t-60 -12
t-60 12t-49 33t-33 49t-12 60z" />
    <glyph glyph-name="ldot" unicode="&#x140;" horiz-adv-x="768" 
d="M330 90l119 -24l-11 -66h-393l236 1331l-91 24l11 66h365zM536 691q0 32 12 60t33 48.5t49 32.5t60 12t60 -12t48.5 -32.5t32.5 -48.5t12 -60t-12 -60t-32.5 -49t-48.5 -33t-60 -12t-60 12t-49 33t-33 49t-12 60z" />
    <glyph glyph-name="Lslash" unicode="&#x141;" horiz-adv-x="1251" 
d="M872 1268l-202 -26l-76 -431l262 140l-23 -134l-262 -137l-101 -574h113q56 0 115.5 2t112 5t92 6.5t55.5 6.5l117 279h84l-89 -405h-1085l12 73l177 27l71 402l-184 -100l24 136l183 98l107 606l-166 26l13 73h663z" />
    <glyph glyph-name="lslash" unicode="&#x142;" horiz-adv-x="569" 
d="M10 533l135 70l128 728l-92 24l12 66h365l-115 -651l141 74l-22 -124l-141 -75l-98 -555l99 -24l-11 -66h-374l86 478l-135 -71z" />
    <glyph glyph-name="Nacute" unicode="&#x143;" horiz-adv-x="1479" 
d="M1225 1242l-175 26l13 73h477l-13 -73l-177 -26l-218 -1242h-115l-541 1112l-181 -1012l175 -27l-12 -73h-477l12 73l177 27l201 1142l-167 26l13 73h433l435 -894zM748 1452l6 33l196 272h285l-4 -37l-397 -268h-86z" />
    <glyph glyph-name="nacute" unicode="&#x144;" horiz-adv-x="1139" 
d="M764 725q0 97 -91 97q-34 0 -72 -20.5t-74 -53t-66 -73.5t-47 -81l-106 -594h-266l148 849l-89 25l13 66h334l-8 -175q76 98 169.5 149t210.5 51q46 0 85.5 -12.5t68.5 -37.5t45 -63t16 -89q0 -18 -2.5 -41t-6.5 -47.5l-8 -49t-8 -45.5l-87 -490l116 -24l-13 -66h-386
l102 569q4 21 8 44t7 44t5 39t2 29zM572 1118l6 33l196 272h285l-4 -37l-397 -268h-86z" />
    <glyph glyph-name="Ncommaaccent" unicode="&#x145;" horiz-adv-x="1479" 
d="M1225 1242l-175 26l13 73h477l-13 -73l-177 -26l-218 -1242h-115l-541 1112l-181 -1012l175 -27l-12 -73h-477l12 73l177 27l201 1142l-167 26l13 73h433l435 -894zM628 -72q28 0 53 -9.5t44.5 -28t31 -46t11.5 -62.5q0 -45 -17.5 -91.5t-61 -88.5t-117.5 -75t-186 -50
l13 69q56 13 90 29t52.5 32t24.5 32t6 30q0 20 -13.5 35t-29 31t-29 35.5t-13.5 48.5q0 20 8 39.5t25.5 35t44 25t63.5 9.5z" />
    <glyph glyph-name="ncommaaccent" unicode="&#x146;" horiz-adv-x="1139" 
d="M764 725q0 97 -91 97q-34 0 -72 -20.5t-74 -53t-66 -73.5t-47 -81l-106 -594h-266l148 849l-89 25l13 66h334l-8 -175q76 98 169.5 149t210.5 51q46 0 85.5 -12.5t68.5 -37.5t45 -63t16 -89q0 -18 -2.5 -41t-6.5 -47.5l-8 -49t-8 -45.5l-87 -490l116 -24l-13 -66h-386
l102 569q4 21 8 44t7 44t5 39t2 29zM457 -72q28 0 53 -9.5t44.5 -28t31 -46t11.5 -62.5q0 -45 -17.5 -91.5t-61 -88.5t-117.5 -75t-186 -50l13 69q56 13 90 29t52.5 32t24.5 32t6 30q0 20 -13.5 35t-29 31t-29 35.5t-13.5 48.5q0 20 8 39.5t25.5 35t44 25t63.5 9.5z" />
    <glyph glyph-name="Ncaron" unicode="&#x147;" horiz-adv-x="1479" 
d="M1225 1242l-175 26l13 73h477l-13 -73l-177 -26l-218 -1242h-115l-541 1112l-181 -1012l175 -27l-12 -73h-477l12 73l177 27l201 1142l-167 26l13 73h433l435 -894zM1265 1778l-6 -33l-269 -293h-213l-166 293l6 33h76l220 -162l276 162h76z" />
    <glyph glyph-name="ncaron" unicode="&#x148;" horiz-adv-x="1139" 
d="M764 725q0 97 -91 97q-34 0 -72 -20.5t-74 -53t-66 -73.5t-47 -81l-106 -594h-266l148 849l-89 25l13 66h334l-8 -175q76 98 169.5 149t210.5 51q46 0 85.5 -12.5t68.5 -37.5t45 -63t16 -89q0 -18 -2.5 -41t-6.5 -47.5l-8 -49t-8 -45.5l-87 -490l116 -24l-13 -66h-386
l102 569q4 21 8 44t7 44t5 39t2 29zM1051 1444l-6 -33l-269 -293h-213l-166 293l6 33h76l220 -162l276 162h76z" />
    <glyph glyph-name="napostrophe" unicode="&#x149;" horiz-adv-x="1472" 
d="M1097 725q0 97 -91 97q-34 0 -72 -20.5t-74 -53t-66 -73.5t-47 -81l-106 -594h-266l148 849l-89 25l13 66h334l-8 -175q76 98 169.5 149t210.5 51q46 0 85.5 -12.5t68.5 -37.5t45 -63t16 -89q0 -18 -2.5 -41t-6.5 -47.5l-8 -49t-8 -45.5l-87 -490l116 -24l-13 -66h-386
l102 569q4 21 8 44t7 44t5 39t2 29zM416 1166q0 -71 -21.5 -135.5t-68 -119.5t-120 -98t-177.5 -70v92q51 14 86 38t56.5 51t30.5 53t9 44q0 20 -10.5 33.5t-26 24.5t-34 22.5t-34 27.5t-26 39.5t-10.5 59.5q0 65 45 99t114 34q38 0 72 -12.5t59.5 -37.5t40.5 -61t15 -84z
" />
    <glyph glyph-name="Eng" unicode="&#x14a;" horiz-adv-x="1605" 
d="M898 -20q-32 0 -65.5 2t-64.5 6t-58 9.5t-47 12.5l48 274h89l5 -165q17 -16 41 -24.5t57 -8.5q64 0 101 51t54 145l112 637q3 16 6 35t6 37t4.5 33.5t1.5 26.5q0 49 -14.5 81.5t-39 51.5t-55.5 26.5t-64 7.5q-70 0 -163.5 -25.5t-205.5 -78.5l-178 -1014l98 -15l-15 -85
h-567l13 74l175 26l201 1141l-166 27l13 73h453l-8 -122q66 34 125 58.5t115 41t110 24.5t108 8q178 0 270 -66.5t92 -212.5q0 -12 -2 -32.5t-5 -43.5t-7 -47t-7 -43l-84 -474q-24 -137 -71 -224.5t-110 -138t-140 -70t-161 -19.5z" />
    <glyph glyph-name="eng" unicode="&#x14b;" horiz-adv-x="1107" 
d="M673 822q-34 0 -72 -20.5t-74 -53t-66 -73.5t-47 -81l-106 -594h-266l148 849l-89 25l13 66h334l-8 -175q76 98 169.5 149t210.5 51q46 0 85.5 -12.5t68.5 -38.5t45 -66t16 -94q0 -12 -3 -34.5t-6.5 -48t-8 -50t-7.5 -41.5l-107 -619q-18 -106 -57.5 -181.5t-95 -123.5
t-125.5 -70t-150 -22q-45 0 -89 5t-79 13l39 225h63l23 -114q8 -8 17.5 -13.5t28.5 -5.5q22 0 43.5 13.5t41 43.5t36.5 78.5t29 119.5l114 640q4 21 8 44t7 44t5 39t2 29q0 97 -91 97z" />
    <glyph glyph-name="Omacron" unicode="&#x14c;" horiz-adv-x="1479" 
d="M1120 843q0 93 -19 168t-55.5 128.5t-90.5 82.5t-123 29q-77 0 -141 -36.5t-115 -97t-88.5 -139t-62.5 -163.5t-37.5 -170.5t-12.5 -159.5q0 -92 18.5 -166t54 -126.5t88 -81t121.5 -28.5q78 0 142.5 35.5t116 95.5t90 138t64 162t38 169.5t12.5 159.5zM639 -20
q-129 0 -233 40.5t-178 113t-114 172t-40 218.5q0 113 22.5 218.5t67 198t111 169t153 131t194 85t234.5 30.5q129 0 233 -40.5t178 -113t114 -172.5t40 -218q0 -97 -19 -196.5t-59 -192t-102 -173.5t-149 -141t-199.5 -94.5t-253.5 -34.5zM578 1485l26 150h628l-26 -150
h-628z" />
    <glyph glyph-name="omacron" unicode="&#x14d;" 
d="M683 625q0 117 -31 179t-94 62q-47 0 -94 -43.5t-84 -118.5t-60 -174.5t-23 -210.5q0 -115 37 -177.5t95 -62.5q47 0 92.5 40.5t81.5 113t58 172.5t22 220zM406 -20q-83 0 -152 27t-118.5 78t-76.5 124t-27 165q0 117 38 224t109.5 188.5t173 130t227.5 48.5
q83 0 152 -27t118.5 -78t76.5 -124t27 -165q0 -117 -38 -224t-109.5 -188.5t-173 -130t-227.5 -48.5zM298 1151l26 150h628l-26 -150h-628z" />
    <glyph glyph-name="Obreve" unicode="&#x14e;" horiz-adv-x="1479" 
d="M1120 843q0 93 -19 168t-55.5 128.5t-90.5 82.5t-123 29q-77 0 -141 -36.5t-115 -97t-88.5 -139t-62.5 -163.5t-37.5 -170.5t-12.5 -159.5q0 -92 18.5 -166t54 -126.5t88 -81t121.5 -28.5q78 0 142.5 35.5t116 95.5t90 138t64 162t38 169.5t12.5 159.5zM639 -20
q-129 0 -233 40.5t-178 113t-114 172t-40 218.5q0 113 22.5 218.5t67 198t111 169t153 131t194 85t234.5 30.5q129 0 233 -40.5t178 -113t114 -172.5t40 -218q0 -97 -19 -196.5t-59 -192t-102 -173.5t-149 -141t-199.5 -94.5t-253.5 -34.5zM885 1452q-66 0 -113 18t-77.5 50
t-45 77.5t-14.5 99.5q0 37 6 78h121q4 -72 47.5 -101.5t109.5 -29.5t120 29.5t83 101.5h121q-14 -70 -43 -129t-73 -102t-104.5 -67.5t-137.5 -24.5z" />
    <glyph glyph-name="obreve" unicode="&#x14f;" 
d="M683 625q0 117 -31 179t-94 62q-47 0 -94 -43.5t-84 -118.5t-60 -174.5t-23 -210.5q0 -115 37 -177.5t95 -62.5q47 0 92.5 40.5t81.5 113t58 172.5t22 220zM406 -20q-83 0 -152 27t-118.5 78t-76.5 124t-27 165q0 117 38 224t109.5 188.5t173 130t227.5 48.5
q83 0 152 -27t118.5 -78t76.5 -124t27 -165q0 -117 -38 -224t-109.5 -188.5t-173 -130t-227.5 -48.5zM606 1118q-66 0 -113 18t-77.5 50t-45 77.5t-14.5 99.5q0 37 6 78h121q4 -72 47.5 -101.5t109.5 -29.5t120 29.5t83 101.5h121q-14 -70 -43 -129t-73 -102t-104.5 -67.5
t-137.5 -24.5z" />
    <glyph glyph-name="Ohungarumlaut" unicode="&#x150;" horiz-adv-x="1479" 
d="M1120 843q0 93 -19 168t-55.5 128.5t-90.5 82.5t-123 29q-77 0 -141 -36.5t-115 -97t-88.5 -139t-62.5 -163.5t-37.5 -170.5t-12.5 -159.5q0 -92 18.5 -166t54 -126.5t88 -81t121.5 -28.5q78 0 142.5 35.5t116 95.5t90 138t64 162t38 169.5t12.5 159.5zM639 -20
q-129 0 -233 40.5t-178 113t-114 172t-40 218.5q0 113 22.5 218.5t67 198t111 169t153 131t194 85t234.5 30.5q129 0 233 -40.5t178 -113t114 -172.5t40 -218q0 -97 -19 -196.5t-59 -192t-102 -173.5t-149 -141t-199.5 -94.5t-253.5 -34.5zM624 1452l6 33l190 293h251
l-7 -37l-343 -289h-97zM975 1452l6 33l189 293h252l-7 -37l-344 -289h-96z" />
    <glyph glyph-name="ohungarumlaut" unicode="&#x151;" 
d="M683 625q0 117 -31 179t-94 62q-47 0 -94 -43.5t-84 -118.5t-60 -174.5t-23 -210.5q0 -115 37 -177.5t95 -62.5q47 0 92.5 40.5t81.5 113t58 172.5t22 220zM406 -20q-83 0 -152 27t-118.5 78t-76.5 124t-27 165q0 117 38 224t109.5 188.5t173 130t227.5 48.5
q83 0 152 -27t118.5 -78t76.5 -124t27 -165q0 -117 -38 -224t-109.5 -188.5t-173 -130t-227.5 -48.5zM332 1118l6 33l190 293h251l-7 -37l-343 -289h-97zM683 1118l6 33l189 293h252l-7 -37l-344 -289h-96z" />
    <glyph glyph-name="OE" unicode="&#x152;" horiz-adv-x="1933" 
d="M636 -7q-129 0 -233 38.5t-178 108.5t-114 167.5t-40 216.5q0 169 50.5 319t149.5 262.5t245 178t337 65.5q38 0 92 -2t109 -6h793l-60 -341h-91l6 217q-31 4 -78 7t-96 4.5t-92.5 2t-66.5 0.5h-58l-87 -492h213l57 148h89l-73 -412h-89l-4 152h-213l-91 -517h103
q62 0 119 1.5t103.5 3.5t80.5 5t50 6l100 248h91l-84 -374h-875q-52 -3 -91 -5t-74 -2zM654 93q50 0 89 5.5t76 18.5l194 1102q-20 6 -38.5 11.5t-39 9t-43.5 6t-53 2.5q-80 0 -145.5 -36t-117.5 -96t-90.5 -138.5t-63.5 -163.5t-37.5 -170t-12.5 -159q0 -92 18.5 -164.5
t54 -123t88 -77.5t121.5 -27z" />
    <glyph glyph-name="oe" unicode="&#x153;" horiz-adv-x="1479" 
d="M1436 760q0 -65 -36 -124.5t-105 -106.5t-169 -79t-229 -42q-1 -4 -2 -12.5t-1.5 -18t-1 -20t-0.5 -17.5q0 -45 8 -87.5t28 -75.5t55.5 -53t89.5 -20q74 0 137 28.5t118 65.5l44 -63q-31 -26 -73 -53.5t-90.5 -50t-103 -37t-111.5 -14.5q-108 0 -178 33.5t-109 93.5
q-58 -58 -135.5 -92.5t-180.5 -34.5q-177 0 -261.5 86t-84.5 254q0 35 3 74t11 81q21 119 62.5 210.5t105 153.5t149.5 94t197 32q100 0 164.5 -36t100.5 -96q60 62 134.5 97t162.5 35q147 0 224 -54t77 -151zM635 475q12 67 18.5 122t6.5 99q0 85 -26 126.5t-85 41.5
q-44 0 -76.5 -24t-58 -73t-45 -122t-36.5 -170q-13 -71 -19.5 -129t-6.5 -104q0 -81 23.5 -121.5t80.5 -40.5q45 0 79 25t60.5 75t47 123.5t37.5 171.5zM913 508q67 7 119 32.5t87.5 62t54 81t18.5 89.5q0 42 -20.5 63t-48.5 21q-38 0 -71.5 -30t-61 -79t-47.5 -111.5
t-30 -128.5z" />
    <glyph glyph-name="Racute" unicode="&#x154;" horiz-adv-x="1366" 
d="M552 568l-83 -468l167 -27l-12 -73h-627l12 73l164 27l201 1142l-167 26l13 73h535q135 0 232 -21.5t159.5 -64t92.5 -105.5t30 -147q0 -87 -25 -154.5t-69 -117t-104.5 -83t-130.5 -52.5l201 -496l147 -27l-12 -73h-400l-208 568h-116zM626 678q82 0 147 21t110 60.5
t69 97t24 130.5q0 130 -60.5 187t-177.5 57h-69l-98 -553h55zM644 1452l6 33l196 272h285l-4 -37l-397 -268h-86z" />
    <glyph glyph-name="racute" unicode="&#x155;" horiz-adv-x="797" 
d="M438 738q30 59 66 102t74 70.5t77 41t74 13.5q20 0 44.5 -3t38.5 -7l-58 -337h-55l-44 137q-36 0 -67.5 -8.5t-60.5 -27.5t-56.5 -49.5t-54.5 -73.5l-105 -596h-269l150 850l-117 24l11 66h375zM404 1118l6 33l196 272h285l-4 -37l-397 -268h-86z" />
    <glyph glyph-name="Rcommaaccent" unicode="&#x156;" horiz-adv-x="1366" 
d="M552 568l-83 -468l167 -27l-12 -73h-627l12 73l164 27l201 1142l-167 26l13 73h535q135 0 232 -21.5t159.5 -64t92.5 -105.5t30 -147q0 -87 -25 -154.5t-69 -117t-104.5 -83t-130.5 -52.5l201 -496l147 -27l-12 -73h-400l-208 568h-116zM626 678q82 0 147 21t110 60.5
t69 97t24 130.5q0 130 -60.5 187t-177.5 57h-69l-98 -553h55zM623 -72q28 0 53 -9.5t44.5 -28t31 -46t11.5 -62.5q0 -45 -17.5 -91.5t-61 -88.5t-117.5 -75t-186 -50l13 69q56 13 90 29t52.5 32t24.5 32t6 30q0 20 -13.5 35t-29 31t-29 35.5t-13.5 48.5q0 20 8 39.5t25.5 35
t44 25t63.5 9.5z" />
    <glyph glyph-name="rcommaaccent" unicode="&#x157;" horiz-adv-x="797" 
d="M438 738q30 59 66 102t74 70.5t77 41t74 13.5q20 0 44.5 -3t38.5 -7l-58 -337h-55l-44 137q-36 0 -67.5 -8.5t-60.5 -27.5t-56.5 -49.5t-54.5 -73.5l-105 -596h-269l150 850l-117 24l11 66h375zM154 -72q28 0 53 -9.5t44.5 -28t31 -46t11.5 -62.5q0 -45 -17.5 -91.5
t-61 -88.5t-117.5 -75t-186 -50l13 69q56 13 90 29t52.5 32t24.5 32t6 30q0 20 -13.5 35t-29 31t-29 35.5t-13.5 48.5q0 20 8 39.5t25.5 35t44 25t63.5 9.5z" />
    <glyph glyph-name="Rcaron" unicode="&#x158;" horiz-adv-x="1366" 
d="M552 568l-83 -468l167 -27l-12 -73h-627l12 73l164 27l201 1142l-167 26l13 73h535q135 0 232 -21.5t159.5 -64t92.5 -105.5t30 -147q0 -87 -25 -154.5t-69 -117t-104.5 -83t-130.5 -52.5l201 -496l147 -27l-12 -73h-400l-208 568h-116zM626 678q82 0 147 21t110 60.5
t69 97t24 130.5q0 130 -60.5 187t-177.5 57h-69l-98 -553h55zM1177 1778l-6 -33l-269 -293h-213l-166 293l6 33h76l220 -162l276 162h76z" />
    <glyph glyph-name="rcaron" unicode="&#x159;" horiz-adv-x="797" 
d="M438 738q30 59 66 102t74 70.5t77 41t74 13.5q20 0 44.5 -3t38.5 -7l-58 -337h-55l-44 137q-36 0 -67.5 -8.5t-60.5 -27.5t-56.5 -49.5t-54.5 -73.5l-105 -596h-269l150 850l-117 24l11 66h375zM886 1444l-6 -33l-269 -293h-213l-166 293l6 33h76l220 -162l276 162h76z
" />
    <glyph glyph-name="Sacute" unicode="&#x15a;" horiz-adv-x="1139" 
d="M432 -20q-131 0 -230.5 22.5t-164.5 48.5l64 360h88l1 -215q17 -25 44.5 -46t61.5 -36.5t73 -24t80 -8.5q79 0 136.5 17.5t94.5 48.5t55 73t18 91q0 54 -24 94t-63.5 72.5t-89.5 61t-102.5 58t-102.5 64t-89.5 79.5t-63.5 103t-24 136q0 96 35.5 166.5t103 117.5
t164.5 70t220 23q85 0 174 -12t162 -31l-56 -319h-89l-7 196q-38 29 -91.5 45.5t-119.5 16.5q-64 0 -110 -15t-75 -40t-43 -58.5t-14 -69.5q0 -48 24 -85t64 -68t90.5 -59t103 -58t103 -64.5t90.5 -79t64 -101t24 -131.5q0 -110 -38.5 -193t-112.5 -138.5t-181.5 -83.5
t-246.5 -28zM582 1452l6 33l196 272h285l-4 -37l-397 -268h-86z" />
    <glyph glyph-name="sacute" unicode="&#x15b;" horiz-adv-x="797" 
d="M693 297q0 -152 -102 -234.5t-305 -82.5q-43 0 -88.5 5.5t-86 14t-72.5 17.5t-50 17l46 261h66l15 -132q12 -17 29 -33t38.5 -29t49 -20.5t60.5 -7.5q43 0 77 12.5t56.5 33.5t34.5 48.5t12 57.5q0 31 -14.5 54.5t-39 43.5t-56 38t-65.5 38q-41 23 -77.5 49.5t-64.5 60
t-44.5 75.5t-16.5 96q0 84 30.5 139.5t82 87.5t120 45t144.5 13q64 0 131.5 -9t130.5 -23l-43 -241h-66l-13 110q-21 26 -62 47.5t-92 21.5q-76 0 -111.5 -34t-35.5 -89q0 -28 13 -50t35 -41t50.5 -36.5t60.5 -35.5q43 -24 83 -50t71 -59t50 -76.5t19 -102.5zM362 1118l6 33
l196 272h285l-4 -37l-397 -268h-86z" />
    <glyph glyph-name="Scircumflex" unicode="&#x15c;" horiz-adv-x="1139" 
d="M432 -20q-131 0 -230.5 22.5t-164.5 48.5l64 360h88l1 -215q17 -25 44.5 -46t61.5 -36.5t73 -24t80 -8.5q79 0 136.5 17.5t94.5 48.5t55 73t18 91q0 54 -24 94t-63.5 72.5t-89.5 61t-102.5 58t-102.5 64t-89.5 79.5t-63.5 103t-24 136q0 96 35.5 166.5t103 117.5
t164.5 70t220 23q85 0 174 -12t162 -31l-56 -319h-89l-7 196q-38 29 -91.5 45.5t-119.5 16.5q-64 0 -110 -15t-75 -40t-43 -58.5t-14 -69.5q0 -48 24 -85t64 -68t90.5 -59t103 -58t103 -64.5t90.5 -79t64 -101t24 -131.5q0 -110 -38.5 -193t-112.5 -138.5t-181.5 -83.5
t-246.5 -28zM374 1452l6 33l269 293h213l166 -293l-6 -33h-76l-220 162l-276 -162h-76z" />
    <glyph glyph-name="scircumflex" unicode="&#x15d;" horiz-adv-x="797" 
d="M693 297q0 -152 -102 -234.5t-305 -82.5q-43 0 -88.5 5.5t-86 14t-72.5 17.5t-50 17l46 261h66l15 -132q12 -17 29 -33t38.5 -29t49 -20.5t60.5 -7.5q43 0 77 12.5t56.5 33.5t34.5 48.5t12 57.5q0 31 -14.5 54.5t-39 43.5t-56 38t-65.5 38q-41 23 -77.5 49.5t-64.5 60
t-44.5 75.5t-16.5 96q0 84 30.5 139.5t82 87.5t120 45t144.5 13q64 0 131.5 -9t130.5 -23l-43 -241h-66l-13 110q-21 26 -62 47.5t-92 21.5q-76 0 -111.5 -34t-35.5 -89q0 -28 13 -50t35 -41t50.5 -36.5t60.5 -35.5q43 -24 83 -50t71 -59t50 -76.5t19 -102.5zM179 1118l6 33
l269 293h213l166 -293l-6 -33h-76l-220 162l-276 -162h-76z" />
    <glyph glyph-name="Scedilla" unicode="&#x15e;" horiz-adv-x="1139" 
d="M432 -20q-131 0 -230.5 22.5t-164.5 48.5l64 360h88l1 -215q17 -25 44.5 -46t61.5 -36.5t73 -24t80 -8.5q79 0 136.5 17.5t94.5 48.5t55 73t18 91q0 54 -24 94t-63.5 72.5t-89.5 61t-102.5 58t-102.5 64t-89.5 79.5t-63.5 103t-24 136q0 96 35.5 166.5t103 117.5
t164.5 70t220 23q85 0 174 -12t162 -31l-56 -319h-89l-7 196q-38 29 -91.5 45.5t-119.5 16.5q-64 0 -110 -15t-75 -40t-43 -58.5t-14 -69.5q0 -48 24 -85t64 -68t90.5 -59t103 -58t103 -64.5t90.5 -79t64 -101t24 -131.5q0 -110 -38.5 -193t-112.5 -138.5t-181.5 -83.5
t-246.5 -28zM372 -432q-32 0 -71.5 6.5t-77.5 22.5l37 97q32 -11 59 -15t44 -4q28 0 48 8t33.5 20.5t20 29t6.5 34.5q0 35 -22.5 58t-83.5 27l86 195h91l-43 -110q36 -5 67 -17t53.5 -31t35.5 -45t13 -60q0 -54 -24.5 -94.5t-66 -67.5t-95 -40.5t-110.5 -13.5z" />
    <glyph glyph-name="scedilla" unicode="&#x15f;" horiz-adv-x="797" 
d="M693 297q0 -152 -102 -234.5t-305 -82.5q-43 0 -88.5 5.5t-86 14t-72.5 17.5t-50 17l46 261h66l15 -132q12 -17 29 -33t38.5 -29t49 -20.5t60.5 -7.5q43 0 77 12.5t56.5 33.5t34.5 48.5t12 57.5q0 31 -14.5 54.5t-39 43.5t-56 38t-65.5 38q-41 23 -77.5 49.5t-64.5 60
t-44.5 75.5t-16.5 96q0 84 30.5 139.5t82 87.5t120 45t144.5 13q64 0 131.5 -9t130.5 -23l-43 -241h-66l-13 110q-21 26 -62 47.5t-92 21.5q-76 0 -111.5 -34t-35.5 -89q0 -28 13 -50t35 -41t50.5 -36.5t60.5 -35.5q43 -24 83 -50t71 -59t50 -76.5t19 -102.5zM207 -432
q-32 0 -71.5 6.5t-77.5 22.5l37 97q32 -11 59 -15t44 -4q28 0 48 8t33.5 20.5t20 29t6.5 34.5q0 35 -22.5 58t-83.5 27l86 195h91l-43 -110q36 -5 67 -17t53.5 -31t35.5 -45t13 -60q0 -54 -24.5 -94.5t-66 -67.5t-95 -40.5t-110.5 -13.5z" />
    <glyph glyph-name="Scaron" unicode="&#x160;" horiz-adv-x="1139" 
d="M432 -20q-131 0 -230.5 22.5t-164.5 48.5l64 360h88l1 -215q17 -25 44.5 -46t61.5 -36.5t73 -24t80 -8.5q79 0 136.5 17.5t94.5 48.5t55 73t18 91q0 54 -24 94t-63.5 72.5t-89.5 61t-102.5 58t-102.5 64t-89.5 79.5t-63.5 103t-24 136q0 96 35.5 166.5t103 117.5
t164.5 70t220 23q85 0 174 -12t162 -31l-56 -319h-89l-7 196q-38 29 -91.5 45.5t-119.5 16.5q-64 0 -110 -15t-75 -40t-43 -58.5t-14 -69.5q0 -48 24 -85t64 -68t90.5 -59t103 -58t103 -64.5t90.5 -79t64 -101t24 -131.5q0 -110 -38.5 -193t-112.5 -138.5t-181.5 -83.5
t-246.5 -28zM1086 1778l-6 -33l-269 -293h-213l-166 293l6 33h76l220 -162l276 162h76z" />
    <glyph glyph-name="scaron" unicode="&#x161;" horiz-adv-x="797" 
d="M693 297q0 -152 -102 -234.5t-305 -82.5q-43 0 -88.5 5.5t-86 14t-72.5 17.5t-50 17l46 261h66l15 -132q12 -17 29 -33t38.5 -29t49 -20.5t60.5 -7.5q43 0 77 12.5t56.5 33.5t34.5 48.5t12 57.5q0 31 -14.5 54.5t-39 43.5t-56 38t-65.5 38q-41 23 -77.5 49.5t-64.5 60
t-44.5 75.5t-16.5 96q0 84 30.5 139.5t82 87.5t120 45t144.5 13q64 0 131.5 -9t130.5 -23l-43 -241h-66l-13 110q-21 26 -62 47.5t-92 21.5q-76 0 -111.5 -34t-35.5 -89q0 -28 13 -50t35 -41t50.5 -36.5t60.5 -35.5q43 -24 83 -50t71 -59t50 -76.5t19 -102.5zM866 1444
l-6 -33l-269 -293h-213l-166 293l6 33h76l220 -162l276 162h76z" />
    <glyph glyph-name="Tcommaaccent" unicode="&#x162;" horiz-adv-x="1251" 
d="M372 -432q-32 0 -71.5 6.5t-77.5 22.5l37 97q32 -11 59 -15t44 -4q28 0 48 8t33.5 20.5t20 29t6.5 34.5q0 35 -22.5 58t-83.5 27l86 195h91l-43 -110q36 -5 67 -17t53.5 -31t35.5 -45t13 -60q0 -54 -24.5 -94.5t-66 -67.5t-95 -40.5t-110.5 -13.5zM167 0l12 73l218 27
l200 1135h-61q-23 0 -54 -1.5t-62.5 -4.5t-60.5 -6.5t-48 -7.5l-75 -249h-87l66 375h1103l-66 -375h-88l13 249q-18 4 -46.5 7t-60.5 5.5t-63.5 4t-54.5 1.5h-59l-200 -1133l208 -27l-12 -73h-722z" />
    <glyph glyph-name="tcommaaccent" unicode="&#x163;" horiz-adv-x="569" 
d="M207 -432q-32 0 -71.5 6.5t-77.5 22.5l37 97q32 -11 59 -15t44 -4q28 0 48 8t33.5 20.5t20 29t6.5 34.5q0 35 -22.5 58t-83.5 27l86 195h91l-43 -110q36 -5 67 -17t53.5 -31t35.5 -45t13 -60q0 -54 -24.5 -94.5t-66 -67.5t-95 -40.5t-110.5 -13.5zM428 106q24 0 51 7.5
t59 18.5l26 -70q-20 -14 -49.5 -28.5t-65 -26.5t-75 -19.5t-78.5 -7.5q-64 0 -107.5 16.5t-70.5 44.5t-39 65t-12 79q0 29 5.5 67.5t12.5 76.5l92 507h-115l11 65l142 39l139 213h146l-38 -213h158l-18 -104h-158l-91 -509q-7 -36 -11.5 -69t-4.5 -51q0 -53 26.5 -77
t64.5 -24z" />
    <glyph glyph-name="Tcaron" unicode="&#x164;" horiz-adv-x="1251" 
d="M167 0l12 73l218 27l200 1135h-61q-23 0 -54 -1.5t-62.5 -4.5t-60.5 -6.5t-48 -7.5l-75 -249h-87l66 375h1103l-66 -375h-88l13 249q-18 4 -46.5 7t-60.5 5.5t-63.5 4t-54.5 1.5h-59l-200 -1133l208 -27l-12 -73h-722zM1154 1778l-6 -33l-269 -293h-213l-166 293l6 33h76
l220 -162l276 162h76z" />
    <glyph glyph-name="tcaron" unicode="&#x165;" horiz-adv-x="1088" 
d="M428 106q24 0 51 7.5t59 18.5l26 -70q-20 -14 -49.5 -28.5t-65 -26.5t-75 -19.5t-78.5 -7.5q-64 0 -107.5 16.5t-70.5 44.5t-39 65t-12 79q0 29 5.5 67.5t12.5 76.5l92 507h-115l11 65l142 39l139 213h146l-38 -213h158l-18 -104h-158l-91 -509q-7 -36 -11.5 -69
t-4.5 -51q0 -53 26.5 -77t64.5 -24zM951 1421q30 0 58 -8.5t49.5 -27t34.5 -47t13 -68.5q0 -70 -29.5 -129t-85 -107t-136 -84t-182.5 -61l15 80q60 15 100.5 36t65 43.5t35 44t10.5 37.5q0 25 -16 42.5t-35.5 34.5t-35.5 38t-16 53q0 34 13 57.5t34.5 38t49.5 21t58 6.5z
" />
    <glyph glyph-name="Tbar" unicode="&#x166;" horiz-adv-x="1251" 
d="M167 0l12 73l218 27l89 509h-279l21 122h280l89 504h-61q-23 0 -54 -1.5t-62.5 -4.5t-60.5 -6.5t-48 -7.5l-75 -249h-87l66 375h1103l-66 -375h-88l13 249q-18 4 -46.5 7t-60.5 5.5t-63.5 4t-54.5 1.5h-59l-89 -502h281l-21 -122h-281l-90 -509l208 -27l-12 -73h-722z
" />
    <glyph glyph-name="tbar" unicode="&#x167;" horiz-adv-x="569" 
d="M177 836h-115l11 65l142 39l139 213h146l-38 -213h158l-18 -104h-158l-46 -255h167l-18 -104h-167l-27 -150q-7 -36 -11.5 -69t-4.5 -51q0 -53 26.5 -77t64.5 -24q24 0 51 7.5t59 18.5l26 -70q-20 -14 -49.5 -28.5t-65 -26.5t-75 -19.5t-78.5 -7.5q-64 0 -107.5 16.5
t-70.5 44.5t-39 65t-12 79q0 29 5.5 67.5t12.5 76.5l27 148h-102l18 104h103z" />
    <glyph glyph-name="Utilde" unicode="&#x168;" horiz-adv-x="1479" 
d="M167 1268l13 73h619l-13 -73l-177 -26l-113 -656q-11 -62 -17 -115.5t-6 -81.5q0 -138 69.5 -202.5t197.5 -64.5q90 0 158.5 26t117 71.5t78 108t42.5 135.5l137 779l-175 26l13 73h456l-13 -73l-157 -26l-135 -771q-19 -107 -58.5 -197t-107 -155t-167.5 -101.5
t-240 -36.5q-134 0 -230 31.5t-158 87t-91.5 132.5t-29.5 167q0 37 5.5 83.5t14.5 100.5l114 659zM1037 1424q-26 0 -48.5 6.5t-42 16t-36.5 22t-32 24.5q-10 8 -22 19t-25.5 21t-28 17t-28.5 7q-38 0 -59 -26t-40 -89h-99q13 56 34 108t52.5 91.5t76 63.5t106.5 24
q52 0 90.5 -21.5t69.5 -46.5q10 -8 22.5 -18.5t26 -20.5t28 -17t27.5 -7q37 0 58 25.5t41 86.5h99q-14 -56 -34.5 -107.5t-52.5 -91.5t-77 -63.5t-106 -23.5z" />
    <glyph glyph-name="utilde" unicode="&#x169;" horiz-adv-x="1139" 
d="M350 216q0 -97 91 -97q34 0 72 20.5t74 53t66 73t47 81.5l106 593h266l-148 -849l109 -25l-13 -66h-354l8 176q-76 -98 -169.5 -149t-210.5 -51q-47 0 -86 12.5t-68 38.5t-45 66t-16 94q0 12 2.5 34.5t6.5 49t9 54.5t9 51l85 474l-116 24l13 66h386l-102 -568
q-4 -21 -8 -44t-7 -44t-5 -39t-2 -29zM788 1090q-26 0 -48.5 6.5t-42 16t-36.5 22t-32 24.5q-10 8 -22 19t-25.5 21t-28 17t-28.5 7q-38 0 -59 -26t-40 -89h-99q13 56 34 108t52.5 91.5t76 63.5t106.5 24q52 0 90.5 -21.5t69.5 -46.5q10 -8 22.5 -18.5t26 -20.5t28 -17
t27.5 -7q37 0 58 25.5t41 86.5h99q-14 -56 -34.5 -107.5t-52.5 -91.5t-77 -63.5t-106 -23.5z" />
    <glyph glyph-name="Umacron" unicode="&#x16a;" horiz-adv-x="1479" 
d="M167 1268l13 73h619l-13 -73l-177 -26l-113 -656q-11 -62 -17 -115.5t-6 -81.5q0 -138 69.5 -202.5t197.5 -64.5q90 0 158.5 26t117 71.5t78 108t42.5 135.5l137 779l-175 26l13 73h456l-13 -73l-157 -26l-135 -771q-19 -107 -58.5 -197t-107 -155t-167.5 -101.5
t-240 -36.5q-134 0 -230 31.5t-158 87t-91.5 132.5t-29.5 167q0 37 5.5 83.5t14.5 100.5l114 659zM605 1485l26 150h628l-26 -150h-628z" />
    <glyph glyph-name="umacron" unicode="&#x16b;" horiz-adv-x="1139" 
d="M350 216q0 -97 91 -97q34 0 72 20.5t74 53t66 73t47 81.5l106 593h266l-148 -849l109 -25l-13 -66h-354l8 176q-76 -98 -169.5 -149t-210.5 -51q-47 0 -86 12.5t-68 38.5t-45 66t-16 94q0 12 2.5 34.5t6.5 49t9 54.5t9 51l85 474l-116 24l13 66h386l-102 -568
q-4 -21 -8 -44t-7 -44t-5 -39t-2 -29zM363 1151l26 150h628l-26 -150h-628z" />
    <glyph glyph-name="Ubreve" unicode="&#x16c;" horiz-adv-x="1479" 
d="M167 1268l13 73h619l-13 -73l-177 -26l-113 -656q-11 -62 -17 -115.5t-6 -81.5q0 -138 69.5 -202.5t197.5 -64.5q90 0 158.5 26t117 71.5t78 108t42.5 135.5l137 779l-175 26l13 73h456l-13 -73l-157 -26l-135 -771q-19 -107 -58.5 -197t-107 -155t-167.5 -101.5
t-240 -36.5q-134 0 -230 31.5t-158 87t-91.5 132.5t-29.5 167q0 37 5.5 83.5t14.5 100.5l114 659zM890 1452q-66 0 -113 18t-77.5 50t-45 77.5t-14.5 99.5q0 37 6 78h121q4 -72 47.5 -101.5t109.5 -29.5t120 29.5t83 101.5h121q-14 -70 -43 -129t-73 -102t-104.5 -67.5
t-137.5 -24.5z" />
    <glyph glyph-name="ubreve" unicode="&#x16d;" horiz-adv-x="1139" 
d="M350 216q0 -97 91 -97q34 0 72 20.5t74 53t66 73t47 81.5l106 593h266l-148 -849l109 -25l-13 -66h-354l8 176q-76 -98 -169.5 -149t-210.5 -51q-47 0 -86 12.5t-68 38.5t-45 66t-16 94q0 12 2.5 34.5t6.5 49t9 54.5t9 51l85 474l-116 24l13 66h386l-102 -568
q-4 -21 -8 -44t-7 -44t-5 -39t-2 -29zM671 1118q-66 0 -113 18t-77.5 50t-45 77.5t-14.5 99.5q0 37 6 78h121q4 -72 47.5 -101.5t109.5 -29.5t120 29.5t83 101.5h121q-14 -70 -43 -129t-73 -102t-104.5 -67.5t-137.5 -24.5z" />
    <glyph glyph-name="Uring" unicode="&#x16e;" horiz-adv-x="1479" 
d="M167 1268l13 73h619l-13 -73l-177 -26l-113 -656q-11 -62 -17 -115.5t-6 -81.5q0 -138 69.5 -202.5t197.5 -64.5q90 0 158.5 26t117 71.5t78 108t42.5 135.5l137 779l-175 26l13 73h456l-13 -73l-157 -26l-135 -771q-19 -107 -58.5 -197t-107 -155t-167.5 -101.5
t-240 -36.5q-134 0 -230 31.5t-158 87t-91.5 132.5t-29.5 167q0 37 5.5 83.5t14.5 100.5l114 659zM940 1393q-45 0 -83.5 17t-67 46t-44.5 67.5t-16 82.5t16 82.5t44.5 67t67 45t83.5 16.5t83.5 -16.5t67 -45t44.5 -67t16 -82.5t-16 -82.5t-44.5 -67.5t-67 -46t-83.5 -17z
M940 1705q-20 0 -37.5 -8t-31 -21.5t-21.5 -31.5t-8 -38t8 -37.5t21.5 -31t31 -21.5t37.5 -8t37.5 8t31 21.5t21.5 31t8 37.5t-8 38t-21.5 31.5t-31 21.5t-37.5 8z" />
    <glyph glyph-name="uring" unicode="&#x16f;" horiz-adv-x="1139" 
d="M350 216q0 -97 91 -97q34 0 72 20.5t74 53t66 73t47 81.5l106 593h266l-148 -849l109 -25l-13 -66h-354l8 176q-76 -98 -169.5 -149t-210.5 -51q-47 0 -86 12.5t-68 38.5t-45 66t-16 94q0 12 2.5 34.5t6.5 49t9 54.5t9 51l85 474l-116 24l13 66h386l-102 -568
q-4 -21 -8 -44t-7 -44t-5 -39t-2 -29zM697 1059q-45 0 -83.5 17t-67 46t-44.5 67.5t-16 82.5t16 82.5t44.5 67t67 45t83.5 16.5t83.5 -16.5t67 -45t44.5 -67t16 -82.5t-16 -82.5t-44.5 -67.5t-67 -46t-83.5 -17zM697 1371q-20 0 -37.5 -8t-31 -21.5t-21.5 -31.5t-8 -38
t8 -37.5t21.5 -31t31 -21.5t37.5 -8t37.5 8t31 21.5t21.5 31t8 37.5t-8 38t-21.5 31.5t-31 21.5t-37.5 8z" />
    <glyph glyph-name="Uhungarumlaut" unicode="&#x170;" horiz-adv-x="1479" 
d="M167 1268l13 73h619l-13 -73l-177 -26l-113 -656q-11 -62 -17 -115.5t-6 -81.5q0 -138 69.5 -202.5t197.5 -64.5q90 0 158.5 26t117 71.5t78 108t42.5 135.5l137 779l-175 26l13 73h456l-13 -73l-157 -26l-135 -771q-19 -107 -58.5 -197t-107 -155t-167.5 -101.5
t-240 -36.5q-134 0 -230 31.5t-158 87t-91.5 132.5t-29.5 167q0 37 5.5 83.5t14.5 100.5l114 659zM623 1452l6 33l190 293h251l-7 -37l-343 -289h-97zM974 1452l6 33l189 293h252l-7 -37l-344 -289h-96z" />
    <glyph glyph-name="uhungarumlaut" unicode="&#x171;" horiz-adv-x="1139" 
d="M350 216q0 -97 91 -97q34 0 72 20.5t74 53t66 73t47 81.5l106 593h266l-148 -849l109 -25l-13 -66h-354l8 176q-76 -98 -169.5 -149t-210.5 -51q-47 0 -86 12.5t-68 38.5t-45 66t-16 94q0 12 2.5 34.5t6.5 49t9 54.5t9 51l85 474l-116 24l13 66h386l-102 -568
q-4 -21 -8 -44t-7 -44t-5 -39t-2 -29zM398 1118l6 33l190 293h251l-7 -37l-343 -289h-97zM749 1118l6 33l189 293h252l-7 -37l-344 -289h-96z" />
    <glyph glyph-name="Uogonek" unicode="&#x172;" horiz-adv-x="1479" 
d="M167 1268l13 73h619l-13 -73l-177 -26l-113 -656q-11 -62 -17 -115.5t-6 -81.5q0 -138 69.5 -202.5t197.5 -64.5q90 0 158.5 26t117 71.5t78 108t42.5 135.5l137 779l-175 26l13 73h456l-13 -73l-157 -26l-135 -771q-19 -107 -58.5 -197t-107 -155t-167.5 -101.5
t-240 -36.5q-134 0 -230 31.5t-158 87t-91.5 132.5t-29.5 167q0 37 5.5 83.5t14.5 100.5l114 659zM793 -430q-109 0 -167 51t-58 150q0 34 9.5 69t26.5 67.5t40.5 60t51.5 46.5h132q-32 -49 -53 -108t-21 -113q0 -55 26 -84t78 -29q23 0 53 7t57 19l30 -83
q-40 -23 -92.5 -38t-112.5 -15z" />
    <glyph glyph-name="uogonek" unicode="&#x173;" horiz-adv-x="1139" 
d="M350 216q0 -97 91 -97q34 0 72 20.5t74 53t66 73t47 81.5l106 593h266l-148 -849l109 -25l-13 -66h-354l8 176q-76 -98 -169.5 -149t-210.5 -51q-47 0 -86 12.5t-68 38.5t-45 66t-16 94q0 12 2.5 34.5t6.5 49t9 54.5t9 51l85 474l-116 24l13 66h386l-102 -568
q-4 -21 -8 -44t-7 -44t-5 -39t-2 -29zM783 -430q-109 0 -167 51t-58 150q0 34 9.5 69t26.5 67.5t40.5 60t51.5 46.5h132q-32 -49 -53 -108t-21 -113q0 -55 26 -84t78 -29q23 0 53 7t57 19l30 -83q-40 -23 -92.5 -38t-112.5 -15z" />
    <glyph glyph-name="Wcircumflex" unicode="&#x174;" horiz-adv-x="1821" 
d="M1806 1242l-592 -1273h-94l-158 848l-402 -848h-101l-188 1273l-130 26l13 73h564l-13 -73l-162 -26l106 -814l397 829h100l152 -834l362 819l-164 26l13 73h432l-13 -73zM757 1452l6 33l269 293h213l166 -293l-6 -33h-76l-220 162l-276 -162h-76z" />
    <glyph glyph-name="wcircumflex" unicode="&#x175;" horiz-adv-x="1366" 
d="M1115 580q11 20 21 46.5t18 54t12.5 52.5t4.5 42q0 28 -8.5 45.5t-23 28t-32.5 16t-36 10.5l12 65h245q14 -11 22.5 -31t8.5 -50q0 -33 -13 -83t-54 -119l-402 -677h-119l-103 538l-296 -538h-133l-171 870l-80 24l11 66h304l126 -658l309 564h100l112 -564zM450 1118
l6 33l269 293h213l166 -293l-6 -33h-76l-220 162l-276 -162h-76z" />
    <glyph glyph-name="Ycircumflex" unicode="&#x176;" horiz-adv-x="1251" 
d="M782 548l-80 -448l208 -27l-12 -73h-722l12 73l218 27l79 442l-234 700l-146 26l13 73h636l-13 -73l-185 -26l178 -556l364 556l-159 26l13 73h456l-13 -73l-147 -26zM471 1452l6 33l269 293h213l166 -293l-6 -33h-76l-220 162l-276 -162h-76z" />
    <glyph glyph-name="ycircumflex" unicode="&#x177;" horiz-adv-x="909" 
d="M915 877q0 -16 -3 -37t-12 -48t-25 -61t-41 -74l-439 -716q-49 -80 -98 -150t-101.5 -121.5t-111.5 -81.5t-128 -30q-28 0 -48.5 1t-38.5 3.5t-35.5 6t-38.5 8.5l42 242h60l20 -126q12 -11 28.5 -17t41.5 -6q37 0 74 23.5t73 62t70.5 88.5t67.5 104l28 47l-214 855
l-61 24l11 66h303l152 -639l181 300q14 23 25.5 48t20 49t13.5 45.5t5 37.5q0 25 -7.5 41t-20 26.5t-29 16t-33.5 10.5l12 65h231q9 -8 17.5 -25t8.5 -38zM237 1118l6 33l269 293h213l166 -293l-6 -33h-76l-220 162l-276 -162h-76z" />
    <glyph glyph-name="Ydieresis" unicode="&#x178;" horiz-adv-x="1251" 
d="M782 548l-80 -448l208 -27l-12 -73h-722l12 73l218 27l79 442l-234 700l-146 26l13 73h636l-13 -73l-185 -26l178 -556l364 556l-159 26l13 73h456l-13 -73l-147 -26zM1035 1531q-25 0 -47 10t-38.5 26.5t-26 38.5t-9.5 46q0 25 9.5 46.5t26 37.5t38.5 25.5t47 9.5
t47 -9.5t38 -25.5t25 -37.5t9 -46.5q0 -24 -9 -46t-25 -38.5t-38 -26.5t-47 -10zM679 1531q-24 0 -46 10t-38.5 26.5t-26.5 38.5t-10 46q0 25 10 46.5t26.5 37.5t38.5 25.5t46 9.5q25 0 46.5 -9.5t37.5 -25.5t25.5 -37.5t9.5 -46.5q0 -24 -9 -46t-25 -38.5t-38 -26.5
t-47 -10z" />
    <glyph glyph-name="Zacute" unicode="&#x179;" horiz-adv-x="1251" 
d="M15 114l826 1121h-192q-46 0 -90.5 -1.5t-83 -4.5t-69.5 -6.5t-50 -7.5l-68 -211h-89l59 337h941l-19 -106l-823 -1131h187q59 0 120.5 3.5t115 9t94.5 11t60 9.5l104 256h90l-96 -393h-1037zM597 1452l6 33l196 272h285l-4 -37l-397 -268h-86z" />
    <glyph glyph-name="zacute" unicode="&#x17a;" horiz-adv-x="797" 
d="M-58 0l8 50l516 800h-70q-28 0 -55.5 -2.5t-52.5 -7t-44.5 -11t-31.5 -14.5l-60 -155h-72l49 280h660l-9 -54l-516 -796h83q27 0 57.5 3.5t59 9.5t53.5 14.5t42 19.5l82 178h72l-74 -315h-697zM357 1118l6 33l196 272h285l-4 -37l-397 -268h-86z" />
    <glyph glyph-name="Zdotaccent" unicode="&#x17b;" horiz-adv-x="1251" 
d="M15 114l826 1121h-192q-46 0 -90.5 -1.5t-83 -4.5t-69.5 -6.5t-50 -7.5l-68 -211h-89l59 337h941l-19 -106l-823 -1131h187q59 0 120.5 3.5t115 9t94.5 11t60 9.5l104 256h90l-96 -393h-1037zM593 1602q0 32 12 60t33 48.5t49 32.5t60 12t60 -12t48.5 -32.5t32.5 -48.5
t12 -60t-12 -60t-32.5 -49t-48.5 -33t-60 -12t-60 12t-49 33t-33 49t-12 60z" />
    <glyph glyph-name="zdotaccent" unicode="&#x17c;" horiz-adv-x="797" 
d="M-58 0l8 50l516 800h-70q-28 0 -55.5 -2.5t-52.5 -7t-44.5 -11t-31.5 -14.5l-60 -155h-72l49 280h660l-9 -54l-516 -796h83q27 0 57.5 3.5t59 9.5t53.5 14.5t42 19.5l82 178h72l-74 -315h-697zM343 1268q0 32 12 60t33 48.5t49 32.5t60 12t60 -12t48.5 -32.5t32.5 -48.5
t12 -60t-12 -60t-32.5 -49t-48.5 -33t-60 -12t-60 12t-49 33t-33 49t-12 60z" />
    <glyph glyph-name="Zcaron" unicode="&#x17d;" horiz-adv-x="1251" 
d="M15 114l826 1121h-192q-46 0 -90.5 -1.5t-83 -4.5t-69.5 -6.5t-50 -7.5l-68 -211h-89l59 337h941l-19 -106l-823 -1131h187q59 0 120.5 3.5t115 9t94.5 11t60 9.5l104 256h90l-96 -393h-1037zM1111 1778l-6 -33l-269 -293h-213l-166 293l6 33h76l220 -162l276 162h76z
" />
    <glyph glyph-name="zcaron" unicode="&#x17e;" horiz-adv-x="797" 
d="M-58 0l8 50l516 800h-70q-28 0 -55.5 -2.5t-52.5 -7t-44.5 -11t-31.5 -14.5l-60 -155h-72l49 280h660l-9 -54l-516 -796h83q27 0 57.5 3.5t59 9.5t53.5 14.5t42 19.5l82 178h72l-74 -315h-697zM833 1444l-6 -33l-269 -293h-213l-166 293l6 33h76l220 -162l276 162h76z
" />
    <glyph glyph-name="longs" unicode="&#x17f;" horiz-adv-x="682" 
d="M264 1066q17 99 53 170t90 117t125.5 67.5t160.5 21.5q44 0 88.5 -6.5t70.5 -14.5l-39 -222h-64l-12 109q-8 9 -19.5 16.5t-36.5 7.5q-23 0 -43.5 -10.5t-38.5 -36.5t-33.5 -71.5t-27.5 -115.5l-269 -1534h-269z" />
    <glyph glyph-name="florin" unicode="&#x192;" 
d="M160 -285l171 978h-169l15 69l173 34l39 226q13 79 44 142t76.5 107t105.5 67.5t131 23.5q59 0 112 -4.5t94 -14.5l-10 -224h-64l-28 113q-11 8 -26 14t-37 6t-38 -12t-29.5 -39.5t-24.5 -71.5t-23 -108l-40 -224h239l-19 -104h-239l-171 -978h-282z" />
    <glyph glyph-name="Aringacute" unicode="&#x1fa;" horiz-adv-x="1366" 
d="M302 73l-14 -73h-394l14 73l103 27l668 1252h240l254 -1252l109 -27l-14 -73h-549l14 73l138 27l-61 347h-472l-184 -347zM689 1118l-295 -561h396zM800 1237q-45 0 -83.5 17t-67 46t-44.5 67.5t-16 82.5t16 82.5t44.5 67t67 45t83.5 16.5t83.5 -16.5t67 -45t44.5 -67
t16 -82.5t-16 -82.5t-44.5 -67.5t-67 -46t-83.5 -17zM800 1549q-20 0 -37.5 -8t-31 -21.5t-21.5 -31.5t-8 -38t8 -37.5t21.5 -31t31 -21.5t37.5 -8t37.5 8t31 21.5t21.5 31t8 37.5t-8 38t-21.5 31.5t-31 21.5t-37.5 8zM701 1704l6 33l196 272h285l-4 -37l-397 -268h-86z" />
    <glyph glyph-name="aringacute" unicode="&#x1fb;" 
d="M823 90l109 -32l-8 -58h-347l-4 138q-27 -34 -59.5 -63t-69 -50.5t-76 -33.5t-80.5 -12q-58 0 -106.5 21t-83.5 63.5t-54.5 106.5t-19.5 149q0 129 40.5 246t114.5 205.5t178 141t231 52.5q72 0 136.5 -12.5t114.5 -32.5l82 37h54zM287 351q0 -58 10.5 -100.5t28 -70
t39 -40.5t43.5 -13q23 0 47.5 12.5t48 33t44.5 45t37 48.5l99 563q-21 16 -55 25t-69 9q-61 0 -111.5 -45t-86.5 -118t-55.5 -164.5t-19.5 -184.5zM540 1529l6 33l196 272h285l-4 -37l-397 -268h-86zM637 1059q-45 0 -83.5 17t-67 46t-44.5 67.5t-16 82.5t16 82.5t44.5 67
t67 45t83.5 16.5t83.5 -16.5t67 -45t44.5 -67t16 -82.5t-16 -82.5t-44.5 -67.5t-67 -46t-83.5 -17zM637 1371q-20 0 -37.5 -8t-31 -21.5t-21.5 -31.5t-8 -38t8 -37.5t21.5 -31t31 -21.5t37.5 -8t37.5 8t31 21.5t21.5 31t8 37.5t-8 38t-21.5 31.5t-31 21.5t-37.5 8z" />
    <glyph glyph-name="AEacute" unicode="&#x1fc;" horiz-adv-x="1933" 
d="M828 1252l-141 18l12 71h1141l-60 -341h-91l6 217q-31 4 -67 7t-71 4.5t-67.5 2t-55.5 0.5h-200l-87 -492h283l57 148h89l-73 -412h-89l-4 152h-283l-91 -517h245q62 0 108 1.5t79 3.5t55.5 5t38.5 6l100 248h91l-84 -374h-1119l12 73l177 27l61 347h-412l-254 -347
l149 -27l-12 -73h-432l12 73l125 27zM820 557l112 641l-463 -641h351zM1192 1452l6 33l196 272h285l-4 -37l-397 -268h-86z" />
    <glyph glyph-name="aeacute" unicode="&#x1fd;" horiz-adv-x="1479" 
d="M901 508q67 7 122 32.5t94.5 62t61 81t21.5 89.5q0 42 -24.5 63t-52.5 21q-38 0 -73.5 -30t-65 -79t-51.5 -111.5t-32 -128.5zM887 895q24 16 53 29t61.5 22t66.5 14t67 5q73 0 129 -15.5t93.5 -43t57 -65t19.5 -81.5q0 -65 -37 -124.5t-107.5 -106.5t-172 -79
t-230.5 -42q-1 -4 -2 -12.5t-1.5 -18t-1 -20t-0.5 -17.5q0 -45 9.5 -87.5t31.5 -75.5t59 -53t91 -20q37 0 69.5 8t62 21t57 30t54.5 35l44 -63q-31 -26 -73 -53.5t-92 -50t-106.5 -37t-117.5 -14.5q-138 0 -215.5 47t-111.5 131q-43 -51 -85 -85.5t-83 -55t-82.5 -29.5
t-83.5 -9q-58 0 -109.5 21t-90.5 63.5t-61.5 106.5t-22.5 149q0 129 43.5 246t121.5 205.5t185 141t234 52.5q36 0 74.5 -6.5t75 -16t69.5 -22t58 -24.5zM623 264q-1 11 -2 29t-1 37q0 55 9 114t28.5 118.5t49 117t70.5 108.5q-21 15 -45.5 29t-50.5 24t-51.5 16t-47.5 6
q-61 0 -114.5 -45t-93 -118t-62.5 -164.5t-23 -184.5q0 -60 10.5 -102.5t28.5 -69.5t42.5 -39.5t51.5 -12.5q23 0 51.5 12.5t56 32t52.5 44t41 48.5zM708 1118l6 33l196 272h285l-4 -37l-397 -268h-86z" />
    <glyph glyph-name="Oslashacute" unicode="&#x1fe;" horiz-adv-x="1479" 
d="M639 -20q-114 0 -208 31.5t-166 88.5l-155 -155h-149l229 229q-57 70 -86.5 158.5t-29.5 191.5q0 113 22.5 218.5t67 198t111 169t153 131t194 85t234.5 30.5q119 0 216.5 -34.5t170.5 -97.5l167 167h145l-241 -242q52 -68 79.5 -153t27.5 -184q0 -97 -19 -196.5
t-59 -192t-102 -173.5t-149 -141t-199.5 -94.5t-253.5 -34.5zM375 485q0 -32 1.5 -61.5t6.5 -56.5l700 698q-34 88 -97 137t-154 49q-77 0 -141 -36.5t-115 -97t-88.5 -139t-62.5 -163.5t-37.5 -170.5t-12.5 -159.5zM1120 843q0 28 -2 54t-5 51l-697 -697q34 -80 94 -124
t147 -44q78 0 142.5 35.5t116 95.5t90 138t64 162t38 169.5t12.5 159.5zM773 1452l6 33l196 272h285l-4 -37l-397 -268h-86z" />
    <glyph glyph-name="oslashacute" unicode="&#x1ff;" 
d="M406 -20q-128 0 -219 61l-107 -125h-127l164 190q-41 51 -63 117.5t-22 150.5q0 117 38 224t109.5 188.5t173 130t227.5 48.5q130 0 221 -64l104 121h124l-159 -185q40 -51 62 -117.5t22 -148.5q0 -117 -38 -224t-109.5 -188.5t-173 -130t-227.5 -48.5zM297 315l373 434
q-14 57 -41.5 87t-70.5 30q-47 0 -94 -43.5t-84 -118.5t-60 -174.5t-23 -210.5v-4zM429 79q46 0 91.5 40t81.5 111.5t58 170.5t23 218l-369 -430q17 -54 46.5 -82t68.5 -28zM488 1118l6 33l196 272h285l-4 -37l-397 -268h-86z" />
    <glyph glyph-name="Scommaaccent" unicode="&#x218;" horiz-adv-x="1139" 
d="M491 -72q28 0 53 -9.5t44.5 -28t31 -46t11.5 -62.5q0 -45 -17.5 -91.5t-61 -88.5t-117.5 -75t-186 -50l13 69q56 13 90 29t52.5 32t24.5 32t6 30q0 20 -13.5 35t-29 31t-29 35.5t-13.5 48.5q0 20 8 39.5t25.5 35t44 25t63.5 9.5zM432 -20q-131 0 -230.5 22.5t-164.5 48.5
l64 360h88l1 -215q17 -25 44.5 -46t61.5 -36.5t73 -24t80 -8.5q79 0 136.5 17.5t94.5 48.5t55 73t18 91q0 54 -24 94t-63.5 72.5t-89.5 61t-102.5 58t-102.5 64t-89.5 79.5t-63.5 103t-24 136q0 96 35.5 166.5t103 117.5t164.5 70t220 23q85 0 174 -12t162 -31l-56 -319h-89
l-7 196q-38 29 -91.5 45.5t-119.5 16.5q-64 0 -110 -15t-75 -40t-43 -58.5t-14 -69.5q0 -48 24 -85t64 -68t90.5 -59t103 -58t103 -64.5t90.5 -79t64 -101t24 -131.5q0 -110 -38.5 -193t-112.5 -138.5t-181.5 -83.5t-246.5 -28z" />
    <glyph glyph-name="scommaaccent" unicode="&#x219;" horiz-adv-x="797" 
d="M265 -72q28 0 53 -9.5t44.5 -28t31 -46t11.5 -62.5q0 -45 -17.5 -91.5t-61 -88.5t-117.5 -75t-186 -50l13 69q56 13 90 29t52.5 32t24.5 32t6 30q0 20 -13.5 35t-29 31t-29 35.5t-13.5 48.5q0 20 8 39.5t25.5 35t44 25t63.5 9.5zM693 297q0 -152 -102 -234.5t-305 -82.5
q-43 0 -88.5 5.5t-86 14t-72.5 17.5t-50 17l46 261h66l15 -132q12 -17 29 -33t38.5 -29t49 -20.5t60.5 -7.5q43 0 77 12.5t56.5 33.5t34.5 48.5t12 57.5q0 31 -14.5 54.5t-39 43.5t-56 38t-65.5 38q-41 23 -77.5 49.5t-64.5 60t-44.5 75.5t-16.5 96q0 84 30.5 139.5t82 87.5
t120 45t144.5 13q64 0 131.5 -9t130.5 -23l-43 -241h-66l-13 110q-21 26 -62 47.5t-92 21.5q-76 0 -111.5 -34t-35.5 -89q0 -28 13 -50t35 -41t50.5 -36.5t60.5 -35.5q43 -24 83 -50t71 -59t50 -76.5t19 -102.5z" />
    <glyph glyph-name="uni021A" unicode="&#x21a;" horiz-adv-x="1251" 
d="M491 -72q28 0 53 -9.5t44.5 -28t31 -46t11.5 -62.5q0 -45 -17.5 -91.5t-61 -88.5t-117.5 -75t-186 -50l13 69q56 13 90 29t52.5 32t24.5 32t6 30q0 20 -13.5 35t-29 31t-29 35.5t-13.5 48.5q0 20 8 39.5t25.5 35t44 25t63.5 9.5zM167 0l12 73l218 27l200 1135h-61
q-23 0 -54 -1.5t-62.5 -4.5t-60.5 -6.5t-48 -7.5l-75 -249h-87l66 375h1103l-66 -375h-88l13 249q-18 4 -46.5 7t-60.5 5.5t-63.5 4t-54.5 1.5h-59l-200 -1133l208 -27l-12 -73h-722z" />
    <glyph glyph-name="uni021B" unicode="&#x21b;" horiz-adv-x="569" 
d="M265 -72q28 0 53 -9.5t44.5 -28t31 -46t11.5 -62.5q0 -45 -17.5 -91.5t-61 -88.5t-117.5 -75t-186 -50l13 69q56 13 90 29t52.5 32t24.5 32t6 30q0 20 -13.5 35t-29 31t-29 35.5t-13.5 48.5q0 20 8 39.5t25.5 35t44 25t63.5 9.5zM428 106q24 0 51 7.5t59 18.5l26 -70
q-20 -14 -49.5 -28.5t-65 -26.5t-75 -19.5t-78.5 -7.5q-64 0 -107.5 16.5t-70.5 44.5t-39 65t-12 79q0 29 5.5 67.5t12.5 76.5l92 507h-115l11 65l142 39l139 213h146l-38 -213h158l-18 -104h-158l-91 -509q-7 -36 -11.5 -69t-4.5 -51q0 -53 26.5 -77t64.5 -24z" />
    <glyph glyph-name="circumflex" unicode="&#x2c6;" horiz-adv-x="682" 
d="M113 1118l6 33l269 293h213l166 -293l-6 -33h-76l-220 162l-276 -162h-76z" />
    <glyph glyph-name="caron" unicode="&#x2c7;" horiz-adv-x="682" 
d="M821 1444l-6 -33l-269 -293h-213l-166 293l6 33h76l220 -162l276 162h76z" />
    <glyph glyph-name="uni02C9" unicode="&#x2c9;" horiz-adv-x="682" 
d="M129 1151l26 150h628l-26 -150h-628z" />
    <glyph glyph-name="breve" unicode="&#x2d8;" horiz-adv-x="682" 
d="M431 1118q-66 0 -113 18t-77.5 50t-45 77.5t-14.5 99.5q0 37 6 78h121q4 -72 47.5 -101.5t109.5 -29.5t120 29.5t83 101.5h121q-14 -70 -43 -129t-73 -102t-104.5 -67.5t-137.5 -24.5z" />
    <glyph glyph-name="dotaccent" unicode="&#x2d9;" horiz-adv-x="682" 
d="M307 1268q0 32 12 60t33 48.5t49 32.5t60 12t60 -12t48.5 -32.5t32.5 -48.5t12 -60t-12 -60t-32.5 -49t-48.5 -33t-60 -12t-60 12t-49 33t-33 49t-12 60z" />
    <glyph glyph-name="ring" unicode="&#x2da;" horiz-adv-x="682" 
d="M461 1059q-45 0 -83.5 17t-67 46t-44.5 67.5t-16 82.5t16 82.5t44.5 67t67 45t83.5 16.5t83.5 -16.5t67 -45t44.5 -67t16 -82.5t-16 -82.5t-44.5 -67.5t-67 -46t-83.5 -17zM461 1371q-20 0 -37.5 -8t-31 -21.5t-21.5 -31.5t-8 -38t8 -37.5t21.5 -31t31 -21.5t37.5 -8
t37.5 8t31 21.5t21.5 31t8 37.5t-8 38t-21.5 31.5t-31 21.5t-37.5 8z" />
    <glyph glyph-name="ogonek" unicode="&#x2db;" horiz-adv-x="682" 
d="M257 -430q-109 0 -167 51t-58 150q0 34 9.5 69t26.5 67.5t40.5 60t51.5 46.5h132q-32 -49 -53 -108t-21 -113q0 -55 26 -84t78 -29q23 0 53 7t57 19l30 -83q-40 -23 -92.5 -38t-112.5 -15z" />
    <glyph glyph-name="tilde" unicode="&#x2dc;" horiz-adv-x="682" 
d="M555 1090q-26 0 -48.5 6.5t-42 16t-36.5 22t-32 24.5q-10 8 -22 19t-25.5 21t-28 17t-28.5 7q-38 0 -59 -26t-40 -89h-99q13 56 34 108t52.5 91.5t76 63.5t106.5 24q52 0 90.5 -21.5t69.5 -46.5q10 -8 22.5 -18.5t26 -20.5t28 -17t27.5 -7q37 0 58 25.5t41 86.5h99
q-14 -56 -34.5 -107.5t-52.5 -91.5t-77 -63.5t-106 -23.5z" />
    <glyph glyph-name="hungarumlaut" unicode="&#x2dd;" horiz-adv-x="682" 
d="M168 1118l6 33l190 293h251l-7 -37l-343 -289h-97zM519 1118l6 33l189 293h252l-7 -37l-344 -289h-96z" />
    <glyph glyph-name="tonos" unicode="&#x384;" horiz-adv-x="682" 
d="M228 1108v33l123 371h285v-37l-322 -367h-86z" />
    <glyph glyph-name="dieresistonos" unicode="&#x385;" horiz-adv-x="682" 
d="M583 1122q-22 0 -42 8.5t-35 23.5t-23.5 35t-8.5 42t8.5 41.5t23.5 34t35 23t42 8.5q23 0 42.5 -8.5t34 -23t22.5 -34t8 -41.5t-8 -42t-22.5 -35t-34 -23.5t-42.5 -8.5zM101 1122q-22 0 -42 8.5t-35 23.5t-23.5 35t-8.5 42t8.5 41.5t23.5 34t35 23t42 8.5t41.5 -8.5
t34 -23t23 -34t8.5 -41.5t-8 -42t-22.5 -35t-34 -23.5t-42.5 -8.5zM227 1108v33l113 371h242v-37l-269 -367h-86z" />
    <glyph glyph-name="Alphatonos" unicode="&#x386;" horiz-adv-x="1366" 
d="M302 73l-14 -73h-394l14 73l103 27l668 1252h240l254 -1252l109 -27l-14 -73h-549l14 73l138 27l-61 347h-472l-184 -347zM689 1118l-295 -561h396zM89 938v33l123 371h285v-37l-322 -367h-86z" />
    <glyph glyph-name="anoteleia" unicode="&#x387;" horiz-adv-x="682" 
d="M373 511q-35 0 -65 13t-52.5 35.5t-35.5 52.5t-13 65q0 34 13 64.5t35.5 53t52.5 35.5t65 13q34 0 64.5 -13t53 -35.5t35.5 -53t13 -64.5q0 -35 -13 -65t-35.5 -52.5t-53 -35.5t-64.5 -13z" />
    <glyph glyph-name="Epsilontonos" unicode="&#x388;" horiz-adv-x="1591" 
d="M222 73l177 27l201 1142l-167 26l13 73h1052l-60 -341h-91l6 217q-31 4 -72.5 7t-86 4.5t-87 2t-75.5 0.5h-138l-87 -492h281l57 148h89l-73 -412h-89l-4 152h-281l-91 -517h183q62 0 116.5 1.5t98.5 3.5t75.5 5t47.5 6l103 248h91l-84 -374h-1117zM-16 938v33l123 371
h285v-37l-322 -367h-86z" />
    <glyph glyph-name="Etatonos" unicode="&#x389;" horiz-adv-x="1833" 
d="M225 0l13 74l176 26l201 1141l-167 27l13 73h639l-13 -73l-177 -27l-87 -496h488l87 496l-167 27l13 73h641l-13 -73l-178 -27l-201 -1141l168 -26l-13 -74h-641l13 74l177 26l94 535h-488l-94 -535l167 -26l-13 -74h-638zM-3 938v33l123 371h285v-37l-322 -367h-86z" />
    <glyph glyph-name="Iotatonos" unicode="&#x38a;" horiz-adv-x="1036" 
d="M703 100l167 -26l-13 -74h-638l13 74l176 26l201 1141l-167 27l13 73h639l-13 -73l-177 -27zM-6 938v33l123 371h285v-37l-322 -367h-86z" />
    <glyph glyph-name="Omicrontonos" unicode="&#x38c;" horiz-adv-x="1497" 
d="M1138 843q0 93 -19 168t-55.5 128.5t-90.5 82.5t-123 29q-77 0 -141 -36.5t-115 -97t-88.5 -139t-62.5 -163.5t-37.5 -170.5t-12.5 -159.5q0 -92 18.5 -166t54 -126.5t88 -81t121.5 -28.5q78 0 142.5 35.5t116 95.5t90 138t64 162t38 169.5t12.5 159.5zM657 -20
q-129 0 -233 40.5t-178 113t-114 172t-40 218.5q0 113 22.5 218.5t67 198t111 169t153 131t194 85t234.5 30.5q129 0 233 -40.5t178 -113t114 -172.5t40 -218q0 -97 -19 -196.5t-59 -192t-102 -173.5t-149 -141t-199.5 -94.5t-253.5 -34.5zM-110 938v33l123 371h285v-37
l-322 -367h-86z" />
    <glyph glyph-name="Upsilontonos" unicode="&#x38e;" horiz-adv-x="1536" 
d="M1067 548l-80 -448l208 -27l-12 -73h-722l12 73l218 27l79 442l-234 700l-146 26l13 73h636l-13 -73l-185 -26l178 -556l364 556l-159 26l13 73h456l-13 -73l-147 -26zM-59 938v33l123 371h285v-37l-322 -367h-86z" />
    <glyph glyph-name="Omegatonos" unicode="&#x38f;" horiz-adv-x="1608" 
d="M927 1251q-118 0 -204 -38t-142 -106t-83 -161.5t-27 -203.5q0 -134 62 -223t175 -115l-46 -404h-579l45 370h66l34 -134q15 -3 41 -6t61 -5t78 -3.5t91 -1.5h67l11 107q-86 16 -160.5 53t-130.5 90.5t-88 122.5t-32 150q0 145 55.5 259t156.5 192.5t244 120t317 41.5
q148 0 263 -30.5t194 -88.5t120 -140.5t41 -187.5q0 -124 -41.5 -224t-115.5 -174t-176 -120.5t-224 -63.5l-31 -107h54q48 0 93 1.5t82.5 3.5t66.5 5t45 6l80 134h86l-83 -370h-599l100 404q94 13 162 56t111.5 108t64 148.5t20.5 178.5q0 97 -24.5 165t-68 110.5
t-103 61.5t-129.5 19zM-111 938v33l123 371h285v-37l-322 -367h-86z" />
    <glyph glyph-name="iotadieresistonos" unicode="&#x390;" horiz-adv-x="569" 
d="M263 -20q-88 0 -136.5 45.5t-48.5 130.5q0 17 2 34.5t5 36.5l110 623l-92 24l12 66h365l-124 -705q-2 -14 -3.5 -28t-1.5 -25q0 -38 16.5 -58t51.5 -20q22 0 49.5 11.5t45.5 23.5l32 -54q-31 -27 -67.5 -47t-74 -32.5t-74 -19t-67.5 -6.5zM631 1122q-22 0 -42 8.5
t-35 23.5t-23.5 35t-8.5 42t8.5 41.5t23.5 34t35 23t42 8.5q23 0 42.5 -8.5t34 -23t22.5 -34t8 -41.5t-8 -42t-22.5 -35t-34 -23.5t-42.5 -8.5zM149 1122q-22 0 -42 8.5t-35 23.5t-23.5 35t-8.5 42t8.5 41.5t23.5 34t35 23t42 8.5t41.5 -8.5t34 -23t23 -34t8.5 -41.5t-8 -42
t-22.5 -35t-34 -23.5t-42.5 -8.5zM275 1108v33l113 371h242v-37l-269 -367h-86z" />
    <glyph glyph-name="Alpha" unicode="&#x391;" horiz-adv-x="1366" 
d="M302 73l-14 -73h-394l14 73l103 27l668 1252h240l254 -1252l109 -27l-14 -73h-549l14 73l138 27l-61 347h-472l-184 -347zM689 1118l-295 -561h396z" />
    <glyph glyph-name="Beta" unicode="&#x392;" horiz-adv-x="1366" 
d="M677 764q155 0 235.5 66t80.5 205q0 95 -60.5 145.5t-177.5 50.5h-89l-83 -467h94zM654 104q93 0 155.5 21t100.5 60.5t54.5 95t16.5 124.5q0 66 -21.5 113t-61 77.5t-95.5 44.5t-125 14h-114l-96 -544q35 -2 68 -3q29 -2 61 -2.5t57 -0.5zM648 -6q-55 0 -98.5 1t-83 2
t-78.5 2t-85 1h-322l12 73l178 27l201 1142l-168 26l14 73h586q133 0 225.5 -21t150.5 -59t84 -92t26 -121q0 -76 -25 -133.5t-70 -98t-107 -65.5t-135 -35q69 -6 128.5 -28.5t103 -61.5t68.5 -94.5t25 -127.5q0 -209 -157.5 -309.5t-472.5 -100.5z" />
    <glyph glyph-name="Gamma" unicode="&#x393;" horiz-adv-x="1237" 
d="M643 0h-663l13 73l176 26l201 1142l-167 27l14 73h1029l-55 -405h-83l-19 279q-14 3 -48.5 6.5t-81 6.5t-100.5 5t-106 2h-89l-200 -1136l192 -26z" />
    <glyph glyph-name="Delta" unicode="&#x394;" horiz-adv-x="1284" 
d="M1092 0h-1160l15 80l763 1272h190l208 -1272zM660 1060l-554 -941h692z" />
    <glyph glyph-name="Epsilon" unicode="&#x395;" horiz-adv-x="1366" 
d="M-3 73l177 27l201 1142l-167 26l13 73h1052l-60 -341h-91l6 217q-31 4 -72.5 7t-86 4.5t-87 2t-75.5 0.5h-138l-87 -492h281l57 148h89l-73 -412h-89l-4 152h-281l-91 -517h183q62 0 116.5 1.5t98.5 3.5t75.5 5t47.5 6l103 248h91l-84 -374h-1117z" />
    <glyph glyph-name="Zeta" unicode="&#x396;" horiz-adv-x="1251" 
d="M15 114l826 1121h-192q-46 0 -90.5 -1.5t-83 -4.5t-69.5 -6.5t-50 -7.5l-68 -211h-89l59 337h941l-19 -106l-823 -1131h187q59 0 120.5 3.5t115 9t94.5 11t60 9.5l104 256h90l-96 -393h-1037z" />
    <glyph glyph-name="Eta" unicode="&#x397;" horiz-adv-x="1593" 
d="M-15 0l13 74l176 26l201 1141l-167 27l13 73h639l-13 -73l-177 -27l-87 -496h488l87 496l-167 27l13 73h641l-13 -73l-178 -27l-201 -1141l168 -26l-13 -74h-641l13 74l177 26l94 535h-488l-94 -535l167 -26l-13 -74h-638z" />
    <glyph glyph-name="Theta" unicode="&#x398;" horiz-adv-x="1563" 
d="M1202 843q0 93 -21 168t-61.5 128.5t-100.5 82.5t-137 29q-86 0 -157 -36.5t-127.5 -97t-98 -139t-69.5 -163.5t-41.5 -170.5t-13.5 -159.5q0 -92 20.5 -166t60 -126.5t98 -81t134.5 -28.5q86 0 157.5 35.5t129 95.5t100 138t71 162t42.5 169.5t14 159.5zM673 -20
q-136 0 -246.5 40.5t-189 113t-121 172t-42.5 218.5q0 113 24 218.5t71.5 198t117.5 169t162 131t206 85t249 30.5q136 0 246.5 -40.5t189 -113t121 -172.5t42.5 -218q0 -97 -20 -196.5t-62.5 -192t-108.5 -173.5t-158 -141t-212 -94.5t-269 -34.5zM955 780l46 102h68
l-80 -412h-68l-6 100h-293l-46 -100h-68l80 412h68l6 -102h293z" />
    <glyph glyph-name="Iota" unicode="&#x399;" horiz-adv-x="797" 
d="M464 100l167 -26l-13 -74h-638l13 74l176 26l201 1141l-167 27l13 73h639l-13 -73l-177 -27z" />
    <glyph glyph-name="Kappa" unicode="&#x39a;" horiz-adv-x="1366" 
d="M469 100l178 -27l-12 -73h-650l12 73l177 27l201 1142l-167 26l13 73h629l-13 -73l-167 -26l-91 -524l576 524l-113 26l13 73h425l-13 -73l-139 -26l-473 -429l353 -713l134 -27l-12 -73h-386l-296 636l-93 -45z" />
    <glyph glyph-name="Lambda" unicode="&#x39b;" horiz-adv-x="1366" 
d="M699 1105l-556 -1005l144 -27l-12 -73h-395l12 73l110 27l700 1252h250l157 -1252l124 -27l-12 -73h-592l12 73l156 27z" />
    <glyph glyph-name="Mu" unicode="&#x39c;" horiz-adv-x="1821" 
d="M740 0h-45l-221 1158l-187 -1058l175 -27l-12 -73h-477l12 73l177 27l201 1142l-167 26l13 73h493l165 -874l476 874h535l-13 -73l-177 -26l-201 -1142l167 -27l-12 -73h-657l12 73l195 27l187 1058z" />
    <glyph glyph-name="Nu" unicode="&#x39d;" horiz-adv-x="1479" 
d="M1225 1242l-175 26l13 73h477l-13 -73l-177 -26l-218 -1242h-115l-541 1112l-181 -1012l175 -27l-12 -73h-477l12 73l177 27l201 1142l-167 26l13 73h433l435 -894z" />
    <glyph glyph-name="Xi" unicode="&#x39e;" horiz-adv-x="1350" 
d="M912 780l45 102h68l-84 -432h-68l-2 120h-397l-50 -120h-68l84 432h68l7 -102h397zM655 1118q-23 0 -59 -0.5t-76 -2t-80 -4.5t-72 -7l-68 -164h-83l98 401h1015l-58 -401h-83l-4 164q-31 4 -70 7t-78 4.5t-74.5 2t-58.5 0.5h-249zM748 243q125 0 207 5t114 11l72 185h83
l-104 -444h-1114l66 444h82v-185q30 -6 105 -11t200 -5h289z" />
    <glyph glyph-name="Omicron" unicode="&#x39f;" horiz-adv-x="1479" 
d="M1120 843q0 93 -19 168t-55.5 128.5t-90.5 82.5t-123 29q-77 0 -141 -36.5t-115 -97t-88.5 -139t-62.5 -163.5t-37.5 -170.5t-12.5 -159.5q0 -92 18.5 -166t54 -126.5t88 -81t121.5 -28.5q78 0 142.5 35.5t116 95.5t90 138t64 162t38 169.5t12.5 159.5zM639 -20
q-129 0 -233 40.5t-178 113t-114 172t-40 218.5q0 113 22.5 218.5t67 198t111 169t153 131t194 85t234.5 30.5q129 0 233 -40.5t178 -113t114 -172.5t40 -218q0 -97 -19 -196.5t-59 -192t-102 -173.5t-149 -141t-199.5 -94.5t-253.5 -34.5z" />
    <glyph glyph-name="Pi" unicode="&#x3a0;" horiz-adv-x="1593" 
d="M-15 0l13 73l174 27l201 1142l-166 26l14 73h1424l-14 -73l-177 -26l-201 -1142l166 -27l-11 -73h-636l11 73l178 27l200 1131h-496l-200 -1131l166 -27l-11 -73h-635z" />
    <glyph glyph-name="Rho" unicode="&#x3a1;" horiz-adv-x="1251" 
d="M643 636q76 0 136.5 23.5t103 68t65.5 108t23 144.5q0 69 -18 116.5t-49 77.5t-74 43t-92 13h-69l-105 -594h79zM544 526l-76 -426l219 -27l-11 -73h-677l11 73l162 27l202 1142l-168 26l12 73h531q136 0 233.5 -25t160 -71.5t92 -113t29.5 -148.5q0 -102 -35 -186
t-106.5 -144.5t-180 -93.5t-255.5 -33h-143z" />
    <glyph glyph-name="Sigma" unicode="&#x3a3;" horiz-adv-x="1268" 
d="M534 1231l231 -451l-10 -68l-471 -472h281q62 0 129 1.5t126 3.5t102.5 5t59.5 6l86 188h92l-108 -444h-1086l18 94l536 547l-306 601l20 99h1011l-63 -341h-90l6 217q-29 4 -65.5 7t-75 4.5t-76 2t-68.5 0.5h-279z" />
    <glyph glyph-name="Tau" unicode="&#x3a4;" horiz-adv-x="1251" 
d="M167 0l12 73l218 27l200 1135h-61q-23 0 -54 -1.5t-62.5 -4.5t-60.5 -6.5t-48 -7.5l-75 -249h-87l66 375h1103l-66 -375h-88l13 249q-18 4 -46.5 7t-60.5 5.5t-63.5 4t-54.5 1.5h-59l-200 -1133l208 -27l-12 -73h-722z" />
    <glyph glyph-name="Upsilon" unicode="&#x3a5;" horiz-adv-x="1251" 
d="M782 548l-80 -448l208 -27l-12 -73h-722l12 73l218 27l79 442l-234 700l-146 26l13 73h636l-13 -73l-185 -26l178 -556l364 556l-159 26l13 73h456l-13 -73l-147 -26z" />
    <glyph glyph-name="Phi" unicode="&#x3a6;" horiz-adv-x="1616" 
d="M989 320q71 0 129 26t99 77t63.5 127t22.5 177q0 79 -19.5 138t-53 97.5t-78 57.5t-94.5 19h-32l-115 -719h78zM656 1039q-71 0 -129 -26t-99 -77t-63.5 -127t-22.5 -177q0 -80 19.5 -138.5t53 -97t78 -57.5t94.5 -19h41l126 719h-98zM610 222h-71q-116 0 -203.5 31
t-146.5 85.5t-89 130.5t-30 166q0 112 36.5 204.5t108.5 158.5t179.5 102.5t249.5 36.5h129l17 105l-166 26l13 73h616l-13 -73l-178 -26l-17 -105h61q110 0 198.5 -29t150.5 -83t95 -130t33 -169q0 -112 -37.5 -205t-111 -159.5t-182.5 -103t-251 -36.5h-119l-20 -122
l165 -27l-12 -73h-616l12 73l179 27z" />
    <glyph glyph-name="Chi" unicode="&#x3a7;" horiz-adv-x="1366" 
d="M257 100l151 -27l-12 -73h-448l12 73l153 27l461 535l-238 607l-146 26l13 73h613l-13 -73l-165 -26l143 -367l316 367l-151 26l13 73h449l-13 -73l-153 -26l-416 -482l259 -660l147 -27l-12 -73h-613l12 73l165 27l-165 420z" />
    <glyph glyph-name="Psi" unicode="&#x3a8;" horiz-adv-x="1638" 
d="M869 100l177 -27l-13 -73h-636l13 73l187 27l71 406q-115 0 -204 25t-150 71t-92.5 112.5t-31.5 149.5q0 29 3 64t8 59l45 255l-117 26l13 73h404l-64 -359q-7 -37 -10 -66.5t-3 -61.5q0 -56 18 -101.5t48 -78t69 -50.5t82 -19l112 637l-127 26l13 73h536l-13 -73
l-137 -26l-112 -637q57 0 110 19.5t96.5 59.5t75 100.5t45.5 141.5l74 415h404l-13 -73l-127 -26l-55 -311q-20 -110 -69.5 -190t-128.5 -132t-187 -77.5t-243 -25.5z" />
    <glyph glyph-name="Omega" unicode="&#x3a9;" horiz-adv-x="1528" 
d="M863 1251q-118 0 -204 -38t-142 -106t-83 -161.5t-27 -203.5q0 -134 62 -223t175 -115l-46 -404h-579l45 370h66l34 -134q15 -3 41 -6t61 -5t78 -3.5t91 -1.5h67l11 107q-86 16 -160.5 53t-130.5 90.5t-88 122.5t-32 150q0 145 55.5 259t156.5 192.5t244 120t317 41.5
q148 0 263 -30.5t194 -88.5t120 -140.5t41 -187.5q0 -124 -41.5 -224t-115.5 -174t-176 -120.5t-224 -63.5l-31 -107h54q48 0 93 1.5t82.5 3.5t66.5 5t45 6l80 134h86l-83 -370h-599l100 404q94 13 162 56t111.5 108t64 148.5t20.5 178.5q0 97 -24.5 165t-68 110.5
t-103 61.5t-129.5 19z" />
    <glyph glyph-name="Iotadieresis" unicode="&#x3aa;" horiz-adv-x="797" 
d="M464 100l167 -26l-13 -74h-638l13 74l176 26l201 1141l-167 27l13 73h639l-13 -73l-177 -27zM757 1464q-25 0 -47 10t-38.5 26.5t-26 38.5t-9.5 46q0 25 9.5 46.5t26 37.5t38.5 25.5t47 9.5t47 -9.5t38 -25.5t25 -37.5t9 -46.5q0 -24 -9 -46t-25 -38.5t-38 -26.5t-47 -10
zM401 1464q-24 0 -46 10t-38.5 26.5t-26.5 38.5t-10 46q0 25 10 46.5t26.5 37.5t38.5 25.5t46 9.5q25 0 46.5 -9.5t37.5 -25.5t25.5 -37.5t9.5 -46.5q0 -24 -9 -46t-25 -38.5t-38 -26.5t-47 -10z" />
    <glyph glyph-name="Upsilondieresis" unicode="&#x3ab;" horiz-adv-x="1251" 
d="M782 548l-80 -448l208 -27l-12 -73h-722l12 73l218 27l79 442l-234 700l-146 26l13 73h636l-13 -73l-185 -26l178 -556l364 556l-159 26l13 73h456l-13 -73l-147 -26zM1071 1464q-25 0 -47 10t-38.5 26.5t-26 38.5t-9.5 46q0 25 9.5 46.5t26 37.5t38.5 25.5t47 9.5
t47 -9.5t38 -25.5t25 -37.5t9 -46.5q0 -24 -9 -46t-25 -38.5t-38 -26.5t-47 -10zM715 1464q-24 0 -46 10t-38.5 26.5t-26.5 38.5t-10 46q0 25 10 46.5t26.5 37.5t38.5 25.5t46 9.5q25 0 46.5 -9.5t37.5 -25.5t25.5 -37.5t9.5 -46.5q0 -24 -9 -46t-25 -38.5t-38 -26.5
t-47 -10z" />
    <glyph glyph-name="alphatonos" unicode="&#x3ac;" horiz-adv-x="1133" 
d="M960 80l57 -15l-13 -65h-283q-16 44 -27 98.5t-16 105.5q-33 -52 -68.5 -93.5t-75 -71t-84.5 -45t-99 -15.5q-74 0 -133.5 25t-102 72.5t-65.5 116t-23 154.5q0 149 42 264.5t112.5 194t162.5 119.5t193 41q59 0 103 -18t76 -51.5t52.5 -81t31.5 -106.5l92 231h267
l-8 -40q-26 -28 -60.5 -75.5t-74 -105t-80.5 -121t-78 -123.5q15 -143 36.5 -240t65.5 -155zM673 542q0 156 -37 240t-100 84q-40 0 -73.5 -26t-60.5 -70t-47.5 -100.5t-34 -117.5t-20.5 -122.5t-7 -113.5q0 -113 26.5 -165.5t67.5 -52.5q43 0 81.5 24.5t74 67.5t67.5 101
t62 125q0 6 0.5 25t0.5 40.5v39.5v21zM462 1108v33l123 371h285v-37l-322 -367h-86z" />
    <glyph glyph-name="epsilontonos" unicode="&#x3ad;" horiz-adv-x="840" 
d="M550 965q33 0 70 -2.5t73.5 -7t70.5 -11t61 -15.5l-42 -216h-68l-23 115q-17 15 -53 27t-75 12q-72 0 -117 -45.5t-45 -126.5q0 -30 8 -54t20 -42.5t26 -30.5t26 -17q13 3 30.5 6t34.5 6t31.5 4.5t20.5 1.5h75l-20 -123h-72q-6 0 -22 1t-35.5 3t-41 4.5t-38.5 4.5
q-22 -7 -49 -20.5t-50.5 -37t-39.5 -59.5t-16 -88q0 -74 38.5 -112t106.5 -38q78 0 147 28t123 68l47 -68q-35 -30 -75 -57.5t-88 -48.5t-104 -33.5t-122 -12.5q-86 0 -149.5 18.5t-105.5 52.5t-63 81.5t-21 106.5q0 65 25 112t63 79t84.5 50.5t90.5 25.5l2 7
q-31 12 -57.5 31t-46 44.5t-30.5 56.5t-11 66q0 74 38 123t97 78t131 41t140 12zM442 1108v33l123 371h285v-37l-322 -367h-86z" />
    <glyph glyph-name="etatonos" unicode="&#x3ae;" horiz-adv-x="1124" 
d="M820 965q46 0 85.5 -12.5t68.5 -38.5t45 -66t16 -94q0 -12 -3 -34.5t-6.5 -48t-8 -50t-7.5 -41.5l-88 -511q-12 -71 -19.5 -144.5t-12 -137t-6 -112t-1.5 -67.5l-8 -45h-277q0 49 4 107.5t11.5 122.5t17 131t21.5 133l91 512q4 21 7.5 44t6.5 44t5 39t2 29q0 97 -91 97
q-34 0 -72 -20.5t-74 -53t-66 -73.5t-47 -81l-106 -594h-266l148 849l-89 25l13 66h334l-8 -175q76 98 169.5 149t210.5 51zM559 1108v33l123 371h285v-37l-322 -367h-86z" />
    <glyph glyph-name="iotatonos" unicode="&#x3af;" horiz-adv-x="569" 
d="M263 -20q-88 0 -136.5 45.5t-48.5 130.5q0 17 2 34.5t5 36.5l110 623l-92 24l12 66h365l-124 -705q-2 -14 -3.5 -28t-1.5 -25q0 -38 16.5 -58t51.5 -20q22 0 49.5 11.5t45.5 23.5l32 -54q-31 -27 -67.5 -47t-74 -32.5t-74 -19t-67.5 -6.5zM247 1108v33l123 371h285v-37
l-322 -367h-86z" />
    <glyph glyph-name="upsilondieresistonos" unicode="&#x3b0;" horiz-adv-x="1003" 
d="M437 -20q-87 0 -151.5 25.5t-108 70t-65 104t-21.5 128.5q0 17 0.5 33t2 34.5t4 40t7.5 49.5t12 64.5t17 83t22.5 105t29.5 132.5l-117 25l11 65h381q-20 -97 -35 -174t-26.5 -137t-20 -105t-14.5 -79q-5 -32 -9 -57.5t-6 -47t-3 -40t-1 -37.5q0 -50 11 -84t29.5 -54.5
t42 -29.5t48.5 -9q56 0 97 39t67.5 106.5t39.5 157.5t13 193q0 48 -6 97t-16.5 91t-25.5 73.5t-33 44.5l41 76q63 -13 116.5 -44.5t92.5 -80.5t61.5 -115t22.5 -149q0 -143 -36 -253.5t-102.5 -186.5t-161 -115.5t-210.5 -39.5zM863 1122q-22 0 -42 8.5t-35 23.5t-23.5 35
t-8.5 42t8.5 41.5t23.5 34t35 23t42 8.5q23 0 42.5 -8.5t34 -23t22.5 -34t8 -41.5t-8 -42t-22.5 -35t-34 -23.5t-42.5 -8.5zM381 1122q-22 0 -42 8.5t-35 23.5t-23.5 35t-8.5 42t8.5 41.5t23.5 34t35 23t42 8.5t41.5 -8.5t34 -23t23 -34t8.5 -41.5t-8 -42t-22.5 -35
t-34 -23.5t-42.5 -8.5zM507 1108v33l113 371h242v-37l-269 -367h-86z" />
    <glyph glyph-name="alpha" unicode="&#x3b1;" horiz-adv-x="1133" 
d="M960 80l57 -15l-13 -65h-283q-16 44 -27 98.5t-16 105.5q-33 -52 -68.5 -93.5t-75 -71t-84.5 -45t-99 -15.5q-74 0 -133.5 25t-102 72.5t-65.5 116t-23 154.5q0 149 42 264.5t112.5 194t162.5 119.5t193 41q59 0 103 -18t76 -51.5t52.5 -81t31.5 -106.5l92 231h267
l-8 -40q-26 -28 -60.5 -75.5t-74 -105t-80.5 -121t-78 -123.5q15 -143 36.5 -240t65.5 -155zM673 542q0 156 -37 240t-100 84q-40 0 -73.5 -26t-60.5 -70t-47.5 -100.5t-34 -117.5t-20.5 -122.5t-7 -113.5q0 -113 26.5 -165.5t67.5 -52.5q43 0 81.5 24.5t74 67.5t67.5 101
t62 125q0 6 0.5 25t0.5 40.5v39.5v21z" />
    <glyph glyph-name="beta" unicode="&#x3b2;" horiz-adv-x="1049" 
d="M697 1442q77 0 139.5 -19.5t107 -56.5t69 -91t24.5 -122q0 -95 -28.5 -163.5t-73.5 -115t-99.5 -73.5t-106.5 -38l-1 -10q50 -11 93 -36t74.5 -63.5t49.5 -90t18 -115.5q0 -114 -37 -201.5t-102 -147t-154.5 -89.5t-194.5 -30q-57 0 -106 14t-80 34l-82 -464h-270
l242 1377q25 144 72 240t113.5 154t150 82.5t182.5 24.5zM674 1342q-47 0 -79.5 -16t-57.5 -60t-45.5 -123.5t-42.5 -205.5l-144 -807q24 -16 67 -29t89 -13q40 0 82.5 24.5t76.5 70t56 110t22 144.5q0 131 -55.5 195t-152.5 70l16 98q76 1 128.5 29.5t85.5 76.5t48 109.5
t15 128.5q0 55 -9.5 93t-25.5 61.5t-35.5 33.5t-38.5 10z" />
    <glyph glyph-name="gamma" unicode="&#x3b3;" horiz-adv-x="852" 
d="M847 940q3 -6 4 -21.5t1 -31.5q0 -24 -11.5 -59t-30.5 -78t-44 -91.5t-53 -99.5l-269 -493q-2 -45 -8 -110.5t-14.5 -135t-19 -135t-22.5 -110.5l-242 -11l-41 29q7 36 19.5 87.5t28 109t33.5 116.5t38 109q-15 130 -33.5 251.5t-38 229t-40.5 198t-42 159.5l-51 22
l12 65h310q18 -76 32.5 -161.5t26.5 -174t22 -177.5t19 -171l154 306q44 90 65.5 146t21.5 91q0 30 -19.5 50t-38.5 26l12 65h219z" />
    <glyph glyph-name="delta" unicode="&#x3b4;" horiz-adv-x="1049" 
d="M406 -20q-90 0 -160 27t-117.5 76t-72 118t-24.5 152q0 114 40 199.5t104.5 148t146.5 103.5t167 66q-29 31 -55.5 66.5t-46.5 73.5t-32 78t-12 81q0 70 31.5 120t85 81.5t125.5 46t153 14.5q67 0 133 -12t117 -26l-38 -223h-67l-23 114q-20 23 -56.5 35t-77.5 12
q-60 0 -97.5 -36t-37.5 -110q0 -36 14.5 -70.5t39.5 -69t59 -70.5t72 -74q53 -56 87 -108.5t54 -103t28 -99t8 -96.5q0 -59 -14.5 -120t-43.5 -118t-74 -107t-105.5 -87.5t-138 -59.5t-172.5 -22zM429 79q52 0 91.5 22t67.5 58t46.5 81.5t29 92.5t15 91.5t4.5 78.5
q0 85 -31.5 154t-93.5 129q-42 -17 -83.5 -48t-76.5 -80q-42 -60 -71.5 -149t-29.5 -201t34 -170.5t98 -58.5z" />
    <glyph glyph-name="epsilon" unicode="&#x3b5;" horiz-adv-x="840" 
d="M550 965q33 0 70 -2.5t73.5 -7t70.5 -11t61 -15.5l-42 -216h-68l-23 115q-17 15 -53 27t-75 12q-72 0 -117 -45.5t-45 -126.5q0 -30 8 -54t20 -42.5t26 -30.5t26 -17q13 3 30.5 6t34.5 6t31.5 4.5t20.5 1.5h75l-20 -123h-72q-6 0 -22 1t-35.5 3t-41 4.5t-38.5 4.5
q-22 -7 -49 -20.5t-50.5 -37t-39.5 -59.5t-16 -88q0 -74 38.5 -112t106.5 -38q78 0 147 28t123 68l47 -68q-35 -30 -75 -57.5t-88 -48.5t-104 -33.5t-122 -12.5q-86 0 -149.5 18.5t-105.5 52.5t-63 81.5t-21 106.5q0 65 25 112t63 79t84.5 50.5t90.5 25.5l2 7
q-31 12 -57.5 31t-46 44.5t-30.5 56.5t-11 66q0 74 38 123t97 78t131 41t140 12z" />
    <glyph glyph-name="zeta" unicode="&#x3b6;" horiz-adv-x="903" 
d="M382 -6q-89 24 -153 56.5t-104.5 74t-59.5 92t-19 110.5q0 69 19.5 138t52.5 133q51 100 127 195t165.5 184.5t187 174t192.5 162.5v9l-537 -100v154q97 6 195 12.5t188 14t168 15t135 15.5l23 -89q-101 -102 -193.5 -202.5t-171.5 -198t-141 -191.5t-102 -184
q-21 -47 -32 -92.5t-11 -77.5q0 -64 48.5 -105t140.5 -67q115 -32 177 -93.5t62 -162.5q0 -61 -28 -113t-78.5 -95t-119 -76.5t-149.5 -58.5l-24 78q33 12 62 30t51 40t34.5 47.5t12.5 53.5q0 26 -6 44.5t-20 31.5t-36.5 22.5t-55.5 18.5z" />
    <glyph glyph-name="eta" unicode="&#x3b7;" horiz-adv-x="1124" 
d="M820 965q46 0 85.5 -12.5t68.5 -38.5t45 -66t16 -94q0 -12 -3 -34.5t-6.5 -48t-8 -50t-7.5 -41.5l-88 -511q-12 -71 -19.5 -144.5t-12 -137t-6 -112t-1.5 -67.5l-8 -45h-277q0 49 4 107.5t11.5 122.5t17 131t21.5 133l91 512q4 21 7.5 44t6.5 44t5 39t2 29q0 97 -91 97
q-34 0 -72 -20.5t-74 -53t-66 -73.5t-47 -81l-106 -594h-266l148 849l-89 25l13 66h334l-8 -175q76 98 169.5 149t210.5 51z" />
    <glyph glyph-name="theta" unicode="&#x3b8;" horiz-adv-x="1063" 
d="M661 1432q90 0 158.5 -33t114.5 -95t69.5 -151t23.5 -201q0 -66 -7.5 -140.5t-22.5 -155.5q-34 -177 -87.5 -304.5t-125.5 -210t-162.5 -122t-199.5 -39.5q-88 0 -153 32.5t-107.5 92.5t-63.5 145.5t-21 192.5q0 71 8 152t25 169q34 175 85.5 301.5t121 208t155.5 120
t189 38.5zM650 1332q-58 0 -100 -38t-73.5 -111.5t-56 -180t-46.5 -242.5h373q14 85 22 161t8 140q0 63 -7.5 113t-23 85t-39.5 54t-57 19zM355 652q-16 -92 -25 -174.5t-9 -151.5q0 -56 6.5 -102t20 -78t34 -49.5t48.5 -17.5q58 0 103.5 39t81.5 112.5t63.5 180t49.5 241.5
h-373z" />
    <glyph glyph-name="iota" unicode="&#x3b9;" horiz-adv-x="569" 
d="M263 -20q-88 0 -136.5 45.5t-48.5 130.5q0 17 2 34.5t5 36.5l110 623l-92 24l12 66h365l-124 -705q-2 -14 -3.5 -28t-1.5 -25q0 -38 16.5 -58t51.5 -20q22 0 49.5 11.5t45.5 23.5l32 -54q-31 -27 -67.5 -47t-74 -32.5t-74 -19t-67.5 -6.5z" />
    <glyph glyph-name="kappa" unicode="&#x3ba;" horiz-adv-x="1085" 
d="M1122 940l-11 -63l-112 -16l-303 -271l240 -492l96 -25l-13 -73h-325l-191 426l-128 -79l-60 -347h-269l150 850l-92 24l11 66h365l-84 -479l505 479h221z" />
    <glyph glyph-name="lambda" unicode="&#x3bb;" horiz-adv-x="909" 
d="M552 593l-329 -593h-293l8 43l562 960l-16 117q-7 57 -16.5 91.5t-24.5 61.5t-37 41t-54 14q-30 0 -52 -12l-48 -83h-69l24 188q30 8 71.5 14.5t78.5 6.5q56 0 97 -18t70 -54.5t47.5 -92t30.5 -129.5l156 -981q4 -24 13.5 -41t23 -29t29.5 -19.5t32 -12.5l-12 -65h-216z
" />
    <glyph glyph-name="mu" unicode="&#x3bc;" horiz-adv-x="1139" 
d="M75 874l13 66h386l-102 -569q-4 -21 -8 -44t-7 -44t-5 -39t-2 -29q0 -97 91 -97q34 0 72 20.5t74 53t66 73t47 81.5l106 594h266l-148 -849l89 -25l-13 -66h-329l3 175q-21 -31 -51 -65t-65 -63t-72.5 -48t-71.5 -19q-38 0 -66 11.5t-45 37.5q-11 -62 -24.5 -124.5
t-28.5 -122t-31 -115t-32 -103.5h-274l8 45q9 19 25.5 62t35 103.5t37.5 135.5t34 159l138 781z" />
    <glyph glyph-name="nu" unicode="&#x3bd;" horiz-adv-x="909" 
d="M330 941l149 -654l203 314q32 50 49 99t17 81q0 25 -7.5 41t-20 26.5t-29 16t-33.5 10.5l12 65h231q9 -8 17.5 -25t8.5 -38q0 -16 -3.5 -37t-12.5 -48.5t-25 -61t-42 -73.5l-437 -677h-123l-204 871l-61 24l11 66h300z" />
    <glyph glyph-name="xi" unicode="&#x3be;" horiz-adv-x="920" 
d="M574 197q124 -32 191 -95.5t67 -157.5q0 -59 -24.5 -107t-70 -86t-110.5 -68t-145 -54l-26 75q33 14 61.5 31.5t49.5 39t32.5 47t11.5 56.5q0 43 -40 65t-116 37q-106 22 -181 54.5t-122.5 77.5t-69.5 103t-22 130q0 97 37 168t99 120.5t143.5 79.5t171.5 45l2 7
q-37 11 -76 30t-71 48.5t-52.5 71t-20.5 98.5t27.5 109.5t81 95.5t133 75t183.5 47l1 9l-445 -67l23 139h343q53 0 93 0.5t71.5 1.5t56.5 3t48 5l-7 -114q-50 -9 -111.5 -28.5t-115.5 -55t-90.5 -89.5t-36.5 -132q0 -49 11 -84.5t29 -59.5t42.5 -38t51.5 -18q15 4 34 8t37 7
t33 4.5t24 1.5h32l-23 -146h-32q-9 0 -23.5 2.5t-32 6t-36.5 7.5t-36 7q-168 -42 -253 -121t-85 -204q0 -43 19.5 -73t53.5 -52t80.5 -36.5t99.5 -26.5z" />
    <glyph glyph-name="omicron" unicode="&#x3bf;" 
d="M683 625q0 117 -31 179t-94 62q-47 0 -94 -43.5t-84 -118.5t-60 -174.5t-23 -210.5q0 -115 37 -177.5t95 -62.5q47 0 92.5 40.5t81.5 113t58 172.5t22 220zM406 -20q-83 0 -152 27t-118.5 78t-76.5 124t-27 165q0 117 38 224t109.5 188.5t173 130t227.5 48.5
q83 0 152 -27t118.5 -78t76.5 -124t27 -165q0 -117 -38 -224t-109.5 -188.5t-173 -130t-227.5 -48.5z" />
    <glyph glyph-name="pi" unicode="&#x3c0;" horiz-adv-x="1118" 
d="M777 -20q-62 0 -103.5 13t-66.5 36.5t-35.5 56t-10.5 70.5q0 17 2 34.5t5 36.5l107 609h-217l-110 -453q-20 -81 -36.5 -142t-30 -106.5t-24.5 -78t-20 -56.5h-222l8 45q35 30 61 58.5t47.5 65.5t39.5 89.5t38 130.5l112 447h-120l-85 -133h-73l59 237h1059l-18 -104
h-198l-106 -601q-2 -14 -3.5 -26t-1.5 -23q0 -82 68 -82q22 0 46 11.5t42 23.5l23 -67q-20 -18 -47.5 -34.5t-59 -29t-65 -20.5t-64.5 -8z" />
    <glyph glyph-name="rho" unicode="&#x3c1;" horiz-adv-x="1055" 
d="M453 -20q-20 0 -42 2.5t-43 7.5t-39.5 11.5t-31.5 14.5l-80 -452h-268l176 997q21 115 62.5 191.5t100 123t131 66t153.5 19.5q89 0 165 -26t131 -77.5t86 -128.5t31 -179q0 -124 -37.5 -228.5t-106.5 -180.5t-167.5 -118.5t-220.5 -42.5zM452 85q73 0 123.5 43.5
t81.5 112t44.5 153t13.5 167.5q0 145 -40 212t-113 67q-34 0 -59.5 -15t-45.5 -49t-35.5 -88.5t-29.5 -133.5l-78 -441q30 -14 63 -21t75 -7z" />
    <glyph glyph-name="sigma1" unicode="&#x3c2;" horiz-adv-x="913" 
d="M322 395q0 -35 10 -59.5t34.5 -44t65.5 -37t104 -37.5q52 -17 95 -39.5t73.5 -53t47 -71t16.5 -92.5q0 -57 -26.5 -107t-73.5 -92.5t-111.5 -76.5t-140.5 -58l-22 75q27 14 52.5 30.5t44.5 37t30.5 45.5t11.5 56q0 48 -38 77.5t-102 44.5q-175 41 -255 117t-80 202
q0 87 20.5 169t58 155t89 133t114 104t134 68t147.5 24q86 0 150 -10.5t122 -26.5l-40 -234h-75l-19 129q-21 20 -51.5 31.5t-77.5 11.5q-40 0 -78.5 -19t-73 -52t-63 -78t-49.5 -97.5t-32.5 -110t-11.5 -114.5z" />
    <glyph glyph-name="sigma" unicode="&#x3c3;" horiz-adv-x="1104" 
d="M466 79q40 0 74.5 21.5t62.5 58t50 85.5t37 104t22.5 113t7.5 114q0 98 -15.5 162.5t-32.5 98.5q-65 0 -127 -27.5t-111.5 -86t-79.5 -148.5t-30 -215q0 -74 12 -127t31.5 -87t45 -50t53.5 -16zM856 836l-1 -6q12 -16 30 -43.5t35 -66.5t29 -88.5t12 -110.5
q0 -117 -37.5 -216t-105.5 -171.5t-164 -113t-213 -40.5q-86 0 -156 26.5t-120.5 78.5t-78 128.5t-27.5 175.5q0 127 38.5 229t111.5 173.5t179.5 110t243.5 38.5h357l86 136h77l-61 -240h-235z" />
    <glyph glyph-name="tau" unicode="&#x3c4;" horiz-adv-x="909" 
d="M455 -20q-53 0 -89.5 13t-59 36.5t-33 56t-10.5 70.5q0 17 2 34.5t5 36.5l107 609h-177l-85 -133h-73l59 237h860l-18 -104h-296l-106 -601q-2 -14 -3.5 -27.5t-1.5 -24.5q0 -38 17 -58.5t47 -20.5q29 0 55.5 12t43.5 23l33 -54q-24 -21 -55 -40t-67 -33.5t-75.5 -23
t-79.5 -8.5z" />
    <glyph glyph-name="upsilon" unicode="&#x3c5;" horiz-adv-x="1003" 
d="M437 -20q-87 0 -151.5 25.5t-108 70t-65 104t-21.5 128.5q0 17 0.5 33t2 34.5t4 40t7.5 49.5t12 64.5t17 83t22.5 105t29.5 132.5l-117 25l11 65h381q-20 -97 -35 -174t-26.5 -137t-20 -105t-14.5 -79q-5 -32 -9 -57.5t-6 -47t-3 -40t-1 -37.5q0 -50 11 -84t29.5 -54.5
t42 -29.5t48.5 -9q56 0 97 39t67.5 106.5t39.5 157.5t13 193q0 48 -6 97t-16.5 91t-25.5 73.5t-33 44.5l41 76q63 -13 116.5 -44.5t92.5 -80.5t61.5 -115t22.5 -149q0 -143 -36 -253.5t-102.5 -186.5t-161 -115.5t-210.5 -39.5z" />
    <glyph glyph-name="phi" unicode="&#x3c6;" horiz-adv-x="1198" 
d="M833 966q143 0 218.5 -88t75.5 -248q0 -171 -43 -291t-119.5 -196.5t-181.5 -114.5t-229 -45l-74 -419h-136l74 420q-90 7 -161 35.5t-121 77.5t-76.5 118.5t-26.5 159.5q0 31 2.5 64t8.5 68q20 122 67.5 204t108.5 133.5t128.5 76.5t127.5 33l22 -82q-43 -19 -75.5 -49
t-56.5 -75.5t-41 -108t-29 -144.5q-6 -38 -9.5 -76.5t-3.5 -69.5q0 -125 40 -191.5t110 -79.5l106 592q12 66 33 120.5t56 93.5t85.5 60.5t119.5 21.5zM798 861q-21 0 -39 -8t-33 -29.5t-28 -58.5t-23 -95l-106 -592q59 5 106 29t83 69.5t61.5 115t40.5 166.5q10 61 15 121
t5 104q0 39 -4 71.5t-13.5 56t-25.5 37t-39 13.5z" />
    <glyph glyph-name="chi" unicode="&#x3c7;" horiz-adv-x="952" 
d="M-230 -403q29 39 69.5 96.5t87.5 124.5t98 140.5t101.5 146t97 139.5t85.5 122l-127 421q-7 24 -21.5 39.5t-32 25.5t-36.5 15t-35 8l12 65h214q11 -8 21 -32.5t18 -53.5l91 -353q34 50 66 102t64.5 106t66 111.5t70.5 119.5h305l-7 -39q-32 -43 -71 -97t-81.5 -114
t-86.5 -123t-86.5 -124.5t-82.5 -119.5t-73 -106l150 -500q14 -47 38 -65t57 -23l-12 -65h-185q-5 4 -11 15.5t-12 28t-12 35.5t-11 39l-108 406q-88 -128 -169.5 -261.5t-154.5 -262.5h-303z" />
    <glyph glyph-name="psi" unicode="&#x3c8;" horiz-adv-x="1368" 
d="M1381 940l-12 -65l-95 -25l-91 -503q-14 -77 -51 -143.5t-102 -115.5t-160.5 -77t-225.5 -28l-75 -419h-136l73 418q-95 0 -172 21t-131 61t-83.5 98.5t-29.5 132.5q0 31 4 70.5t9 69.5l69 415l-88 25l12 65h358l-93 -548q-2 -12 -4 -28.5t-3.5 -34.5t-2.5 -35.5
t-1 -31.5q0 -48 16 -82.5t41 -56.5t56 -32.5t62 -10.5l203 1152h136l-203 -1152q68 0 113.5 24t75.5 63.5t46.5 89.5t25.5 102l103 581h356z" />
    <glyph glyph-name="omega" unicode="&#x3c9;" horiz-adv-x="1481" 
d="M874 648l-16 -92q-4 -24 -14 -57.5t-22 -70t-25 -71.5t-23 -61q0 -94 42 -141.5t110 -47.5q62 0 104 42t67.5 106.5t36.5 140t11 143.5q0 70 -11.5 123.5t-33 94t-51 69t-65.5 48.5l30 86q83 -14 154 -48.5t123.5 -90t82.5 -133.5t30 -178q0 -109 -28.5 -205.5
t-86 -168.5t-143.5 -114t-201 -42q-57 0 -99.5 13.5t-73.5 36.5t-51 54t-32 67h-5q-23 -35 -51 -66.5t-65 -54.5t-84.5 -36.5t-108.5 -13.5q-91 0 -154.5 28.5t-103 79t-57 119t-17.5 148.5q0 96 23 176t63 144.5t94 113.5t116 84t129.5 56.5t133.5 30.5l10 -86
q-53 -21 -99.5 -54t-84.5 -82t-66.5 -116t-46.5 -154q-7 -33 -10.5 -70.5t-3.5 -66.5q0 -112 35.5 -170.5t92.5 -58.5q26 0 56.5 13t59.5 38t54.5 61t42.5 82q0 20 0.5 56t1.5 75.5t3 75t5 53.5l16 92h206z" />
    <glyph glyph-name="iotadieresis" unicode="&#x3ca;" horiz-adv-x="569" 
d="M332 90l119 -24l-11 -66h-393l150 850l-91 24l11 66h365zM555 1130q-25 0 -47 10t-38.5 26.5t-26 38.5t-9.5 46q0 25 9.5 46.5t26 37.5t38.5 25.5t47 9.5t47 -9.5t38 -25.5t25 -37.5t9 -46.5q0 -24 -9 -46t-25 -38.5t-38 -26.5t-47 -10zM199 1130q-24 0 -46 10
t-38.5 26.5t-26.5 38.5t-10 46q0 25 10 46.5t26.5 37.5t38.5 25.5t46 9.5q25 0 46.5 -9.5t37.5 -25.5t25.5 -37.5t9.5 -46.5q0 -24 -9 -46t-25 -38.5t-38 -26.5t-47 -10z" />
    <glyph glyph-name="upsilondieresis" unicode="&#x3cb;" horiz-adv-x="1003" 
d="M437 -20q-87 0 -151.5 25.5t-108 70t-65 104t-21.5 128.5q0 17 0.5 33t2 34.5t4 40t7.5 49.5t12 64.5t17 83t22.5 105t29.5 132.5l-117 25l11 65h381q-20 -97 -35 -174t-26.5 -137t-20 -105t-14.5 -79q-5 -32 -9 -57.5t-6 -47t-3 -40t-1 -37.5q0 -50 11 -84t29.5 -54.5
t42 -29.5t48.5 -9q56 0 97 39t67.5 106.5t39.5 157.5t13 193q0 48 -6 97t-16.5 91t-25.5 73.5t-33 44.5l41 76q63 -13 116.5 -44.5t92.5 -80.5t61.5 -115t22.5 -149q0 -143 -36 -253.5t-102.5 -186.5t-161 -115.5t-210.5 -39.5zM799 1130q-25 0 -47 10t-38.5 26.5t-26 38.5
t-9.5 46q0 25 9.5 46.5t26 37.5t38.5 25.5t47 9.5t47 -9.5t38 -25.5t25 -37.5t9 -46.5q0 -24 -9 -46t-25 -38.5t-38 -26.5t-47 -10zM443 1130q-24 0 -46 10t-38.5 26.5t-26.5 38.5t-10 46q0 25 10 46.5t26.5 37.5t38.5 25.5t46 9.5q25 0 46.5 -9.5t37.5 -25.5t25.5 -37.5
t9.5 -46.5q0 -24 -9 -46t-25 -38.5t-38 -26.5t-47 -10z" />
    <glyph glyph-name="omicrontonos" unicode="&#x3cc;" 
d="M683 625q0 117 -31 179t-94 62q-47 0 -94 -43.5t-84 -118.5t-60 -174.5t-23 -210.5q0 -115 37 -177.5t95 -62.5q47 0 92.5 40.5t81.5 113t58 172.5t22 220zM406 -20q-83 0 -152 27t-118.5 78t-76.5 124t-27 165q0 117 38 224t109.5 188.5t173 130t227.5 48.5
q83 0 152 -27t118.5 -78t76.5 -124t27 -165q0 -117 -38 -224t-109.5 -188.5t-173 -130t-227.5 -48.5zM522 1108v33l123 371h285v-37l-322 -367h-86z" />
    <glyph glyph-name="upsilontonos" unicode="&#x3cd;" horiz-adv-x="1003" 
d="M437 -20q-87 0 -151.5 25.5t-108 70t-65 104t-21.5 128.5q0 17 0.5 33t2 34.5t4 40t7.5 49.5t12 64.5t17 83t22.5 105t29.5 132.5l-117 25l11 65h381q-20 -97 -35 -174t-26.5 -137t-20 -105t-14.5 -79q-5 -32 -9 -57.5t-6 -47t-3 -40t-1 -37.5q0 -50 11 -84t29.5 -54.5
t42 -29.5t48.5 -9q56 0 97 39t67.5 106.5t39.5 157.5t13 193q0 48 -6 97t-16.5 91t-25.5 73.5t-33 44.5l41 76q63 -13 116.5 -44.5t92.5 -80.5t61.5 -115t22.5 -149q0 -143 -36 -253.5t-102.5 -186.5t-161 -115.5t-210.5 -39.5zM503 1108v33l123 371h285v-37l-322 -367h-86z
" />
    <glyph glyph-name="omegatonos" unicode="&#x3ce;" horiz-adv-x="1481" 
d="M874 648l-16 -92q-4 -24 -14 -57.5t-22 -70t-25 -71.5t-23 -61q0 -94 42 -141.5t110 -47.5q62 0 104 42t67.5 106.5t36.5 140t11 143.5q0 70 -11.5 123.5t-33 94t-51 69t-65.5 48.5l30 86q83 -14 154 -48.5t123.5 -90t82.5 -133.5t30 -178q0 -109 -28.5 -205.5
t-86 -168.5t-143.5 -114t-201 -42q-57 0 -99.5 13.5t-73.5 36.5t-51 54t-32 67h-5q-23 -35 -51 -66.5t-65 -54.5t-84.5 -36.5t-108.5 -13.5q-91 0 -154.5 28.5t-103 79t-57 119t-17.5 148.5q0 96 23 176t63 144.5t94 113.5t116 84t129.5 56.5t133.5 30.5l10 -86
q-53 -21 -99.5 -54t-84.5 -82t-66.5 -116t-46.5 -154q-7 -33 -10.5 -70.5t-3.5 -66.5q0 -112 35.5 -170.5t92.5 -58.5q26 0 56.5 13t59.5 38t54.5 61t42.5 82q0 20 0.5 56t1.5 75.5t3 75t5 53.5l16 92h206zM767 1108v33l123 371h285v-37l-322 -367h-86z" />
    <glyph glyph-name="uni0400" unicode="&#x400;" horiz-adv-x="1366" 
d="M-3 73l177 27l201 1142l-167 26l13 73h1052l-60 -341h-91l6 217q-31 4 -72.5 7t-86 4.5t-87 2t-75.5 0.5h-138l-87 -492h281l57 148h89l-73 -412h-89l-4 152h-281l-91 -517h183q62 0 116.5 1.5t98.5 3.5t75.5 5t47.5 6l103 248h91l-84 -374h-1117zM845 1452l-317 268
l7 37h265l137 -273l-6 -32h-86z" />
    <glyph glyph-name="afii10023" unicode="&#x401;" horiz-adv-x="1366" 
d="M-3 73l177 27l201 1142l-167 26l13 73h1052l-60 -341h-91l6 217q-31 4 -72.5 7t-86 4.5t-87 2t-75.5 0.5h-138l-87 -492h281l57 148h89l-73 -412h-89l-4 152h-281l-91 -517h183q62 0 116.5 1.5t98.5 3.5t75.5 5t47.5 6l103 248h91l-84 -374h-1117zM1002 1464
q-25 0 -47 10t-38.5 26.5t-26 38.5t-9.5 46q0 25 9.5 46.5t26 37.5t38.5 25.5t47 9.5t47 -9.5t38 -25.5t25 -37.5t9 -46.5q0 -24 -9 -46t-25 -38.5t-38 -26.5t-47 -10zM646 1464q-24 0 -46 10t-38.5 26.5t-26.5 38.5t-10 46q0 25 10 46.5t26.5 37.5t38.5 25.5t46 9.5
q25 0 46.5 -9.5t37.5 -25.5t25.5 -37.5t9.5 -46.5q0 -24 -9 -46t-25 -38.5t-38 -26.5t-47 -10z" />
    <glyph glyph-name="afii10051" unicode="&#x402;" horiz-adv-x="1675" 
d="M1033 750q-70 0 -127.5 -8.5t-112.5 -21.5l-110 -620l168 -27l-12 -73h-642l12 73l178 27l200 1135h-71q-47 0 -83 -1.5t-63 -4.5t-46 -6.5t-33 -7.5l-75 -249h-87l66 375h1152l-61 -355h-88l9 229q-11 4 -33.5 7t-52.5 5.5t-65.5 4t-73.5 1.5h-99l-71 -403
q30 11 66.5 22t77 19.5t83 14t83.5 5.5q103 0 179.5 -22.5t127.5 -64.5t76 -101.5t25 -132.5q0 -15 -1 -34.5t-3.5 -41t-5 -42.5t-5.5 -38l-68 -398q-16 -95 -46.5 -165.5t-71 -121t-88 -82.5t-98 -50.5t-102 -25.5t-99.5 -7q-37 0 -73.5 2t-70 6t-61.5 9.5t-48 12.5l51 286
h83l7 -161q14 -23 44.5 -36t68.5 -13q76 0 119.5 48t60.5 143l97 550q2 13 5 34.5t5.5 44t4.5 43t2 32.5q0 88 -51 136.5t-153 48.5z" />
    <glyph glyph-name="afii10052" unicode="&#x403;" horiz-adv-x="1237" 
d="M643 0h-663l13 73l176 26l201 1142l-167 27l14 73h1029l-55 -405h-83l-19 279q-14 3 -48.5 6.5t-81 6.5t-100.5 5t-106 2h-89l-200 -1136l192 -26zM671 1452l6 33l196 272h285l-4 -37l-397 -268h-86z" />
    <glyph glyph-name="afii10053" unicode="&#x404;" horiz-adv-x="1346" 
d="M665 -20q-147 0 -258 39.5t-186 112t-113 174t-38 225.5q0 193 62 346.5t173 259.5t264.5 162.5t337.5 56.5q74 0 137 -4.5t118.5 -11.5t105 -16.5t97.5 -19.5l-53 -337h-84v194q-54 43 -123 66.5t-153 23.5q-101 0 -189 -35t-159 -100.5t-122 -159.5t-76 -211h493
l-19 -110h-492q-2 -28 -3.5 -56t-1.5 -57q0 -95 20 -175.5t62 -139t107.5 -91.5t156.5 -33q112 0 199.5 30.5t142.5 70.5l77 220h85l-66 -340q-49 -16 -107 -31t-122 -27t-133 -19t-140 -7z" />
    <glyph glyph-name="afii10054" unicode="&#x405;" horiz-adv-x="1139" 
d="M432 -20q-131 0 -230.5 22.5t-164.5 48.5l64 360h88l1 -215q17 -25 44.5 -46t61.5 -36.5t73 -24t80 -8.5q79 0 136.5 17.5t94.5 48.5t55 73t18 91q0 54 -24 94t-63.5 72.5t-89.5 61t-102.5 58t-102.5 64t-89.5 79.5t-63.5 103t-24 136q0 96 35.5 166.5t103 117.5
t164.5 70t220 23q85 0 174 -12t162 -31l-56 -319h-89l-7 196q-38 29 -91.5 45.5t-119.5 16.5q-64 0 -110 -15t-75 -40t-43 -58.5t-14 -69.5q0 -48 24 -85t64 -68t90.5 -59t103 -58t103 -64.5t90.5 -79t64 -101t24 -131.5q0 -110 -38.5 -193t-112.5 -138.5t-181.5 -83.5
t-246.5 -28z" />
    <glyph glyph-name="afii10055" unicode="&#x406;" horiz-adv-x="797" 
d="M464 100l167 -26l-13 -74h-638l13 74l176 26l201 1141l-167 27l13 73h639l-13 -73l-177 -27z" />
    <glyph glyph-name="afii10056" unicode="&#x407;" horiz-adv-x="797" 
d="M464 100l167 -26l-13 -74h-638l13 74l176 26l201 1141l-167 27l13 73h639l-13 -73l-177 -27zM757 1464q-25 0 -47 10t-38.5 26.5t-26 38.5t-9.5 46q0 25 9.5 46.5t26 37.5t38.5 25.5t47 9.5t47 -9.5t38 -25.5t25 -37.5t9 -46.5q0 -24 -9 -46t-25 -38.5t-38 -26.5t-47 -10
zM401 1464q-24 0 -46 10t-38.5 26.5t-26.5 38.5t-10 46q0 25 10 46.5t26.5 37.5t38.5 25.5t46 9.5q25 0 46.5 -9.5t37.5 -25.5t25.5 -37.5t9.5 -46.5q0 -24 -9 -46t-25 -38.5t-38 -26.5t-47 -10z" />
    <glyph glyph-name="afii10057" unicode="&#x408;" 
d="M613 1242l-167 26l13 73h619l-13 -73l-157 -26l-142 -810q-24 -137 -79.5 -224.5t-127.5 -138t-154.5 -70t-160.5 -19.5q-69 0 -136 8t-112 22l54 304h83l4 -179q15 -23 43 -36t70 -13q34 0 65.5 12t57 36t44 59.5t26.5 82.5z" />
    <glyph glyph-name="afii10058" unicode="&#x409;" horiz-adv-x="1860" 
d="M982 1231h-267l-78 -291q-69 -256 -132 -438t-127.5 -298t-135 -170t-153.5 -54q-45 0 -89 12t-69 35l35 257h64l29 -109q24 -37 68 -37q42 0 84.5 45t88.5 142.5t97 252.5t110 375l77 289l-167 26l13 73h1045l-13 -73l-183 -27l-86 -486h49q250 0 378 -84.5t128 -265.5
q0 -113 -43.5 -190.5t-126.5 -125t-204.5 -68.5t-277.5 -21h-472l13 73l146 26zM1174 645l-94 -535h19q81 0 146 13t110.5 47t69.5 92.5t24 149.5q0 115 -67 174t-204 59h-4z" />
    <glyph glyph-name="afii10059" unicode="&#x40a;" horiz-adv-x="1999" 
d="M955 1268l13 73h615l-13 -73l-183 -27l-86 -486h88q250 0 374 -84.5t124 -265.5q0 -113 -42 -190.5t-123 -125t-201 -68.5t-276 -21h-513l13 73l146 26l94 536h-443l-94 -535l137 -26l-13 -74h-608l13 74l176 26l201 1141l-167 27l13 73h609l-13 -73l-147 -27l-87 -496
h443l87 496zM1283 645l-93 -535h67q81 0 143 13t104 47t63 92.5t21 149.5q0 115 -65 174t-202 59h-38z" />
    <glyph glyph-name="afii10060" unicode="&#x40b;" horiz-adv-x="1661" 
d="M1412 100l158 -27l-12 -73h-592l12 73l138 27l55 311q2 13 5.5 35.5t6.5 47t5 46t2 33.5q0 89 -44 133t-130 44q-59 0 -111.5 -8t-111.5 -22l-110 -620l168 -27l-12 -73h-642l12 73l178 27l200 1135h-71q-47 0 -83 -1.5t-63 -4.5t-46 -6.5t-33 -7.5l-75 -249h-87l66 375
h1152l-61 -341h-88l9 215q-11 4 -33.5 7t-52.5 5.5t-65.5 4t-73.5 1.5h-99l-71 -403q58 23 136.5 42t161.5 19q99 0 170.5 -20.5t117.5 -60t67.5 -97t21.5 -132.5q0 -17 -2 -39t-5.5 -45t-7 -44.5t-6.5 -38.5z" />
    <glyph glyph-name="afii10061" unicode="&#x40c;" horiz-adv-x="1389" 
d="M469 100l178 -27l-12 -73h-650l12 73l177 27l201 1142l-167 26l13 73h629l-13 -73l-167 -26l-91 -524l576 524l-113 26l13 73h425l-13 -73l-139 -26l-473 -429l353 -713l134 -27l-12 -73h-386l-296 636l-93 -45zM769 1452l6 33l196 272h285l-4 -37l-397 -268h-86z" />
    <glyph glyph-name="uni040D" unicode="&#x40d;" horiz-adv-x="1479" 
d="M842 1451l-317 268l7 37h265l137 -273l-6 -32h-86zM1225 1242l-175 26l13 73h477l-13 -73l-177 -26l-218 -1242h-115l-541 1112l-181 -1012l175 -27l-12 -73h-477l12 73l177 27l201 1142l-167 26l13 73h433l435 -894z" />
    <glyph glyph-name="afii10062" unicode="&#x40e;" horiz-adv-x="1425" 
d="M283 1242l-146 26l13 73h613l-13 -73l-165 -26l276 -652l439 652l-147 26l13 73h449l-13 -73l-162 -28l-550 -809q-77 -113 -143 -197t-131 -140.5t-132.5 -84.5t-145.5 -28q-26 0 -54 3t-53.5 9t-48 14t-37.5 18l35 279h65l30 -117q14 -23 42.5 -36t59.5 -13
q64 0 138.5 48t155.5 155zM1031 1581q46 0 84 19.5t70 52t59 73.5t51 84l82 -37q-23 -49 -56 -104.5t-80.5 -102.5t-112.5 -78t-153 -31q-75 0 -130 19t-95 53.5t-67 83t-46 106.5l242 40q15 -82 50.5 -130t101.5 -48z" />
    <glyph glyph-name="afii10145" unicode="&#x40f;" horiz-adv-x="1593" 
d="M835 1l-170 -437h-95l-16 437h-571l14 73l177 26l201 1142l-169 27l11 73h639l-11 -73l-178 -27l-200 -1131h496l200 1131l-166 27l11 73h635l-13 -73l-174 -27l-201 -1142l166 -26l-14 -73h-572z" />
    <glyph glyph-name="afii10017" unicode="&#x410;" horiz-adv-x="1366" 
d="M302 73l-14 -73h-394l14 73l103 27l668 1252h240l254 -1252l109 -27l-14 -73h-549l14 73l138 27l-61 347h-472l-184 -347zM689 1118l-295 -561h396z" />
    <glyph glyph-name="afii10018" unicode="&#x411;" horiz-adv-x="1301" 
d="M581 755h95q250 0 378 -84.5t128 -265.5q0 -113 -44.5 -190.5t-126.5 -125t-199 -68.5t-262 -21h-568l13 73l176 26l201 1142l-157 27l14 73h1015l-55 -365h-83l-14 239q-14 3 -42 6.5t-67 6.5t-87 5t-100 2h-130zM562 645l-94 -535h65q81 0 146 13t110.5 47t69.5 92.5
t24 149.5q0 114 -62 173.5t-198 59.5h-61z" />
    <glyph glyph-name="afii10019" unicode="&#x412;" horiz-adv-x="1366" 
d="M677 764q155 0 235.5 66t80.5 205q0 95 -60.5 145.5t-177.5 50.5h-89l-83 -467h94zM654 104q93 0 155.5 21t100.5 60.5t54.5 95t16.5 124.5q0 66 -21.5 113t-61 77.5t-95.5 44.5t-125 14h-114l-96 -544q35 -2 68 -3q29 -2 61 -2.5t57 -0.5zM648 -6q-55 0 -98.5 1t-83 2
t-78.5 2t-85 1h-322l12 73l178 27l201 1142l-168 26l14 73h586q133 0 225.5 -21t150.5 -59t84 -92t26 -121q0 -76 -25 -133.5t-70 -98t-107 -65.5t-135 -35q69 -6 128.5 -28.5t103 -61.5t68.5 -94.5t25 -127.5q0 -209 -157.5 -309.5t-472.5 -100.5z" />
    <glyph glyph-name="afii10020" unicode="&#x413;" horiz-adv-x="1237" 
d="M643 0h-663l13 73l176 26l201 1142l-167 27l14 73h1029l-55 -405h-83l-19 279q-14 3 -48.5 6.5t-81 6.5t-100.5 5t-106 2h-89l-200 -1136l192 -26z" />
    <glyph glyph-name="afii10021" unicode="&#x414;" horiz-adv-x="1399" 
d="M675 1231q-30 -171 -77.5 -328.5t-106 -299t-125.5 -266t-136 -227.5h543l198 1121h-296zM144 0l-211 -437h-88l29 509l199 28q76 108 148.5 234t134.5 269.5t110.5 303.5t77.5 335l-167 26l12 73h1067l-12 -73l-177 -26l-202 -1142l207 -28l-146 -509h-87l-57 437h-838z
" />
    <glyph glyph-name="afii10022" unicode="&#x415;" horiz-adv-x="1366" 
d="M-3 73l177 27l201 1142l-167 26l13 73h1052l-60 -341h-91l6 217q-31 4 -72.5 7t-86 4.5t-87 2t-75.5 0.5h-138l-87 -492h281l57 148h89l-73 -412h-89l-4 152h-281l-91 -517h183q62 0 116.5 1.5t98.5 3.5t75.5 5t47.5 6l103 248h91l-84 -374h-1117z" />
    <glyph glyph-name="afii10024" unicode="&#x416;" horiz-adv-x="1880" 
d="M1668 100l119 -27l-13 -73h-367l-238 635l-90 -56l-85 -479l144 -27l-13 -73h-573l13 73l154 27l84 481l-62 52l-461 -633h-397l13 73l117 27l586 756l-249 386l-139 26l13 73h399l-13 -73l-123 -26l339 -533l94 533l-138 26l13 73h561l-13 -73l-148 -26l-92 -523
l515 523l-103 26l13 73h402l-13 -73l-135 -26l-409 -400z" />
    <glyph glyph-name="afii10025" unicode="&#x417;" horiz-adv-x="1042" 
d="M327 -20q-42 0 -88.5 3.5t-92 9.5t-88 14t-78.5 18l41 300h86l10 -188q13 -10 36 -20t51 -17.5t57 -12t54 -4.5q151 0 227.5 82.5t76.5 228.5q0 60 -15 104.5t-42 75.5t-64.5 47.5t-82.5 19.5l-131 8l18 102l139 9q54 3 100.5 22t80.5 57t53.5 97t19.5 144q0 83 -40 128
t-121 45q-24 0 -50.5 -4.5t-52 -12t-47.5 -17t-37 -19.5l-62 -164h-86l49 276q37 9 73.5 17t74.5 14t80 9t90 3q108 0 188 -22.5t132.5 -62t78 -94.5t25.5 -120q0 -80 -26 -141.5t-74.5 -105t-117 -71t-152.5 -39.5q73 -9 128 -35t91 -65.5t54 -90.5t18 -110
q0 -108 -43 -187t-120 -130.5t-184.5 -76t-236.5 -24.5z" />
    <glyph glyph-name="afii10026" unicode="&#x418;" horiz-adv-x="1593" 
d="M-13 0l15 74l172 26l201 1141l-165 27l13 73h637l-13 -73l-177 -27l-145 -826l624 775l9 51l-167 27l13 73h641l-13 -73l-178 -27l-201 -1141l168 -26l-11 -74h-641l11 74l177 26l151 855l-625 -775l-14 -80l167 -26l-11 -74h-638z" />
    <glyph glyph-name="afii10027" unicode="&#x419;" horiz-adv-x="1593" 
d="M-13 0l15 74l172 26l201 1141l-165 27l13 73h637l-13 -73l-177 -27l-145 -826l624 775l9 51l-167 27l13 73h641l-13 -73l-178 -27l-201 -1141l168 -26l-11 -74h-641l11 74l177 26l151 855l-625 -775l-14 -80l167 -26l-11 -74h-638zM1010 1581q46 0 84 19.5t70 52t59 73.5
t51 84l82 -37q-23 -49 -56 -104.5t-80.5 -102.5t-112.5 -78t-153 -31q-75 0 -130 19t-95 53.5t-67 83t-46 106.5l242 40q15 -82 50.5 -130t101.5 -48z" />
    <glyph glyph-name="afii10028" unicode="&#x41a;" horiz-adv-x="1389" 
d="M469 100l178 -27l-12 -73h-650l12 73l177 27l201 1142l-167 26l13 73h629l-13 -73l-167 -26l-89 -509l560 509l-113 26l13 73h439l-13 -73l-139 -26l-485 -438l409 -704l110 -27l-12 -73h-386l-342 624l-71 -59z" />
    <glyph glyph-name="afii10029" unicode="&#x41b;" horiz-adv-x="1405" 
d="M89 -20q-45 0 -89 12t-69 35l35 257h64l29 -109q24 -37 68 -37q42 0 84.5 45t88.5 142.5t97 252.5t110 375l77 289l-167 26l13 73h1027l-13 -73l-177 -26l-201 -1141l167 -27l-12 -74h-640l13 73l177 27l199 1131h-255l-78 -291q-69 -256 -132 -438t-127.5 -298
t-135 -170t-153.5 -54z" />
    <glyph glyph-name="afii10030" unicode="&#x41c;" horiz-adv-x="1821" 
d="M740 0h-45l-221 1158l-187 -1058l175 -27l-12 -73h-477l12 73l177 27l201 1142l-167 26l13 73h493l165 -874l476 874h535l-13 -73l-177 -26l-201 -1142l167 -27l-12 -73h-657l12 73l195 27l187 1058z" />
    <glyph glyph-name="afii10031" unicode="&#x41d;" horiz-adv-x="1593" 
d="M-15 0l13 74l176 26l201 1141l-167 27l13 73h639l-13 -73l-177 -27l-87 -496h488l87 496l-167 27l13 73h641l-13 -73l-178 -27l-201 -1141l168 -26l-13 -74h-641l13 74l177 26l94 535h-488l-94 -535l167 -26l-13 -74h-638z" />
    <glyph glyph-name="afii10032" unicode="&#x41e;" horiz-adv-x="1479" 
d="M1120 843q0 93 -19 168t-55.5 128.5t-90.5 82.5t-123 29q-77 0 -141 -36.5t-115 -97t-88.5 -139t-62.5 -163.5t-37.5 -170.5t-12.5 -159.5q0 -92 18.5 -166t54 -126.5t88 -81t121.5 -28.5q78 0 142.5 35.5t116 95.5t90 138t64 162t38 169.5t12.5 159.5zM639 -20
q-129 0 -233 40.5t-178 113t-114 172t-40 218.5q0 113 22.5 218.5t67 198t111 169t153 131t194 85t234.5 30.5q129 0 233 -40.5t178 -113t114 -172.5t40 -218q0 -97 -19 -196.5t-59 -192t-102 -173.5t-149 -141t-199.5 -94.5t-253.5 -34.5z" />
    <glyph glyph-name="afii10033" unicode="&#x41f;" horiz-adv-x="1593" 
d="M-15 0l13 73l174 27l201 1142l-166 26l14 73h1424l-14 -73l-177 -26l-201 -1142l166 -27l-11 -73h-636l11 73l178 27l200 1131h-496l-200 -1131l166 -27l-11 -73h-635z" />
    <glyph glyph-name="afii10034" unicode="&#x420;" horiz-adv-x="1251" 
d="M643 636q76 0 136.5 23.5t103 68t65.5 108t23 144.5q0 69 -18 116.5t-49 77.5t-74 43t-92 13h-69l-105 -594h79zM544 526l-76 -426l219 -27l-11 -73h-677l11 73l162 27l202 1142l-168 26l12 73h531q136 0 233.5 -25t160 -71.5t92 -113t29.5 -148.5q0 -102 -35 -186
t-106.5 -144.5t-180 -93.5t-255.5 -33h-143z" />
    <glyph glyph-name="afii10035" unicode="&#x421;" horiz-adv-x="1366" 
d="M670 -20q-147 0 -259 39.5t-187.5 112t-114.5 174t-39 225.5q0 193 62.5 346.5t174.5 259.5t266.5 162.5t338.5 56.5q148 0 263 -16t210 -36l-53 -337h-84v194q-54 43 -130.5 66.5t-160.5 23.5q-123 0 -228 -51.5t-182 -147t-120.5 -230t-43.5 -300.5q0 -95 21 -175.5
t64 -139t109 -91.5t157 -33q55 0 107.5 8.5t99 22.5t85 32t65.5 38l77 220h85l-66 -340q-49 -16 -109.5 -31t-127.5 -27t-138 -19t-142 -7z" />
    <glyph glyph-name="afii10036" unicode="&#x422;" horiz-adv-x="1251" 
d="M167 0l12 73l218 27l200 1135h-61q-23 0 -54 -1.5t-62.5 -4.5t-60.5 -6.5t-48 -7.5l-75 -249h-87l66 375h1103l-66 -375h-88l13 249q-18 4 -46.5 7t-60.5 5.5t-63.5 4t-54.5 1.5h-59l-200 -1133l208 -27l-12 -73h-722z" />
    <glyph glyph-name="afii10037" unicode="&#x423;" horiz-adv-x="1425" 
d="M283 1242l-146 26l13 73h613l-13 -73l-165 -26l276 -652l439 652l-147 26l13 73h449l-13 -73l-162 -28l-550 -809q-77 -113 -143 -197t-131 -140.5t-132.5 -84.5t-145.5 -28q-26 0 -54 3t-53.5 9t-48 14t-37.5 18l35 279h65l30 -117q14 -23 42.5 -36t59.5 -13
q64 0 138.5 48t155.5 155z" />
    <glyph glyph-name="afii10038" unicode="&#x424;" horiz-adv-x="1741" 
d="M1400 727q0 79 -19.5 138t-53 97.5t-78 57.5t-94.5 19h-72l-125 -719h128q71 0 129 26t99 77t63.5 127t22.5 177zM349 632q0 -80 19.5 -138.5t53 -97t78 -57.5t94.5 -19h71l126 719h-128q-71 0 -129 -26t-99 -77t-63.5 -127t-22.5 -177zM647 222h-111q-116 0 -203.5 31
t-146.5 85.5t-89 130.5t-30 166q0 112 36.5 204.5t108.5 158.5t179.5 102.5t249.5 36.5h169l17 105l-166 26l13 73h636l-13 -73l-178 -26l-17 -105h111q110 0 198.5 -29t150.5 -83t95 -130t33 -169q0 -112 -37.5 -205t-111 -159.5t-182.5 -103t-251 -36.5h-169l-20 -122
l165 -27l-12 -73h-636l12 73l179 27z" />
    <glyph glyph-name="afii10039" unicode="&#x425;" horiz-adv-x="1366" 
d="M257 100l151 -27l-12 -73h-448l12 73l153 27l461 535l-238 607l-146 26l13 73h613l-13 -73l-165 -26l143 -367l316 367l-151 26l13 73h449l-13 -73l-153 -26l-416 -482l259 -660l147 -27l-12 -73h-613l12 73l165 27l-165 420z" />
    <glyph glyph-name="afii10040" unicode="&#x426;" horiz-adv-x="1593" 
d="M1314 -437h-95l-46 437h-1190l14 73l177 26l201 1143l-169 27l11 73h639l-11 -73l-178 -27l-200 -1132h496l200 1132l-166 27l11 73h635l-13 -73l-174 -27l-201 -1143l216 -26z" />
    <glyph glyph-name="afii10041" unicode="&#x427;" horiz-adv-x="1532" 
d="M1192 100l167 -26l-13 -74h-638l13 74l176 26l72 411q-30 -11 -68.5 -21.5t-81 -19.5t-86.5 -14.5t-85 -5.5q-103 0 -176.5 23.5t-120 67t-68 106t-21.5 139.5q0 15 1 33.5t3 38t4.5 37.5t4.5 32l54 314l-138 27l12 73h592l-12 -73l-158 -27l-55 -311q-2 -13 -4.5 -32.5
t-4.5 -40t-3.5 -39t-1.5 -30.5q0 -103 52.5 -150t141.5 -47q69 0 124.5 8t114.5 22l109 620l-167 27l13 73h640l-14 -73l-176 -27z" />
    <glyph glyph-name="afii10042" unicode="&#x428;" horiz-adv-x="2306" 
d="M1968 100l167 -26l-13 -74h-2139l14 74l177 26l201 1141l-169 27l11 73h639l-11 -73l-178 -27l-200 -1130h460l199 1130l-169 27l11 73h639l-11 -73l-178 -27l-200 -1130h458l200 1130l-166 27l11 73h635l-13 -73l-174 -27z" />
    <glyph glyph-name="afii10043" unicode="&#x429;" horiz-adv-x="2306" 
d="M2027 -437h-95l-46 437h-1903l14 73l177 26l201 1142l-169 27l11 73h639l-11 -73l-178 -27l-200 -1131h460l199 1131l-169 27l11 73h639l-11 -73l-178 -27l-200 -1131h458l200 1131l-166 27l11 73h635l-13 -73l-174 -27l-201 -1142l216 -26z" />
    <glyph glyph-name="afii10044" unicode="&#x42a;" horiz-adv-x="1557" 
d="M632 1235h-171q-23 0 -52 -1.5t-59 -4.5t-57.5 -6.5t-46.5 -7.5l-76 -249h-87l67 375h1019l-14 -73l-227 -27l-86 -486h96q250 0 378 -84.5t128 -265.5q0 -113 -43.5 -190.5t-126.5 -125t-204.5 -68.5t-277.5 -21h-549l13 73l176 26zM824 645l-94 -535h66q81 0 146 13
t110.5 47t69.5 92.5t24 149.5q0 115 -71.5 174t-208.5 59h-42z" />
    <glyph glyph-name="afii10045" unicode="&#x42b;" horiz-adv-x="1985" 
d="M1646 100l167 -26l-13 -74h-638l13 74l176 26l201 1141l-167 27l13 73h639l-13 -73l-177 -27zM204 1268l13 73h689l-13 -73l-227 -27l-86 -486h86q250 0 380 -84.5t130 -265.5q0 -113 -44 -190.5t-128 -125t-206 -68.5t-278 -21h-539l13 73l176 26l201 1142zM562 645
l-95 -535h56q81 0 146.5 13t111.5 47t71 92.5t25 149.5q0 115 -73.5 174t-210.5 59h-31z" />
    <glyph glyph-name="afii10046" unicode="&#x42c;" horiz-adv-x="1298" 
d="M205 1268l13 73h689l-13 -73l-227 -27l-86 -486h96q250 0 380 -84.5t130 -265.5q0 -113 -44 -190.5t-128 -125t-206 -68.5t-278 -21h-549l13 73l176 26l201 1142zM563 645l-95 -535h66q81 0 146.5 13t111.5 47t71 92.5t25 149.5q0 115 -73.5 174t-210.5 59h-41z" />
    <glyph glyph-name="afii10047" unicode="&#x42d;" horiz-adv-x="1333" 
d="M675 1356q147 0 259 -39.5t187.5 -112t114.5 -174t39 -225.5q0 -194 -61 -347t-171 -259t-262.5 -162.5t-336.5 -56.5q-74 0 -134.5 5.5t-113.5 14t-100.5 19t-95.5 20.5l53 337h84v-194q54 -43 115.5 -70t145.5 -27q105 0 196 38t163 109.5t121 173t70 228.5h-482
l19 110h474q3 34 3 70q0 95 -18 175.5t-59 139t-107 91.5t-161 33q-48 0 -88.5 -7t-74 -18.5t-61 -26t-48.5 -29.5l-67 -180h-85l58 310q90 24 193.5 39t230.5 15z" />
    </font>
</defs>
</svg>
